<?xml version="1.0" encoding="utf-8"?>
<!-- Generator: Adobe Illustrator 16.0.0, SVG Export Plug-In . SVG Version: 6.00 Build 0)  -->
<!DOCTYPE svg PUBLIC "-//W3C//DTD SVG 1.1//EN" "http://www.w3.org/Graphics/SVG/1.1/DTD/svg11.dtd">
<svg version="1.1" id="Layer_1" xmlns="http://www.w3.org/2000/svg" xmlns:xlink="http://www.w3.org/1999/xlink" x="0px" y="0px"
	 width="128px" height="128px" viewBox="0 0 128 128" enable-background="new 0 0 128 128" xml:space="preserve">
<g>
	<g>
		<path opacity="0.3" fill-rule="evenodd" clip-rule="evenodd" d="M90.553,67.666h0.266v-2.598c0-0.107,0.088-0.195,0.195-0.195
			h0.268h0.285h0.637c0.107,0,0.195,0.088,0.195,0.195v2.598h0.266c0.033,0,0.068,0.004,0.1,0.016
			c0.066,0.018,0.125,0.059,0.168,0.109c0.668-0.004,1.4,0.072,1.693,1.232c0.131,0.52,0.184,2.982,0.186,5.615
			c0.006,3.223-0.066,6.717-0.17,7.191c-0.068,0.313-0.135,0.514-0.215,0.648c-0.135,0.221-0.291,0.293-0.492,0.299
			c-0.355,0.012-0.586-0.342-0.697-0.752c-0.033-0.125-0.057-0.256-0.072-0.381c-0.012-0.129-0.016-0.254-0.006-0.359
			c0.023-0.275,0.148-0.465,0.387-0.496c0.188-0.02,0.357,0.113,0.377,0.301c0.012,0.104-0.021,0.199-0.088,0.271
			c-0.002,0.055,0,0.125,0.008,0.207c0.012,0.09,0.029,0.188,0.055,0.279c0.01,0.037,0.014,0.07,0.014,0.102
			c0.018-0.068,0.041-0.156,0.064-0.264c0.094-0.439,0.162-3.867,0.158-7.047c-0.002-2.582-0.051-4.984-0.17-5.451
			c-0.154-0.609-0.557-0.703-0.951-0.713v23.75v0.713v0.537v0.713v9.545c0,0.752-0.461,8.973-0.895,8.973h-0.365h-0.287h-0.363
			c-0.375,0-0.896-8.221-0.896-8.973v-9.545v-0.713v-0.537v-0.713V68.012C90.205,67.82,90.361,67.666,90.553,67.666z"/>
		<path fill-rule="evenodd" clip-rule="evenodd" fill="#E94C3B" d="M92.459,63.428h1.188c0.107,0,0.195,0.088,0.195,0.196v7
			c0,0.109-0.088,0.195-0.195,0.195h-1.188c-0.107,0-0.195-0.086-0.195-0.195v-7C92.264,63.516,92.352,63.428,92.459,63.428z"/>
		<path fill-rule="evenodd" clip-rule="evenodd" fill="#EF7C70" d="M92.725,63.428h0.287c0.025,0,0.045,0.021,0.045,0.047v7.298
			c0,0.027-0.02,0.047-0.045,0.047h-0.287c-0.025,0-0.047-0.02-0.047-0.047v-7.298C92.678,63.45,92.699,63.428,92.725,63.428z"/>
		<g>
			<path fill="#E94C3B" d="M94.037,67.035c-0.188,0-0.342-0.152-0.342-0.342s0.154-0.342,0.342-0.342
				c0.119,0,0.146-0.002,0.172-0.002h0.002c0.709-0.012,1.541-0.025,1.857,1.227c0.133,0.521,0.186,2.986,0.189,5.619
				c0.004,3.219-0.068,6.715-0.172,7.189c-0.068,0.313-0.135,0.514-0.217,0.648c-0.133,0.221-0.289,0.293-0.492,0.299
				c-0.354,0.012-0.584-0.34-0.693-0.752c-0.035-0.123-0.059-0.258-0.074-0.381c-0.014-0.129-0.018-0.252-0.006-0.359
				c0.023-0.275,0.148-0.469,0.387-0.494c0.186-0.023,0.355,0.113,0.377,0.301c0.014,0.102-0.023,0.199-0.088,0.27
				c-0.004,0.055-0.002,0.127,0.008,0.209c0.012,0.088,0.029,0.186,0.053,0.279c0.01,0.035,0.014,0.068,0.014,0.102
				c0.021-0.07,0.041-0.156,0.064-0.264c0.096-0.439,0.162-3.867,0.158-7.047c-0.002-2.582-0.049-4.984-0.17-5.451
				c-0.184-0.732-0.723-0.723-1.186-0.713l0,0L94.037,67.035L94.037,67.035z M94.209,66.35h0.002H94.209z"/>
		</g>
		<g>
			<path fill="#EF7C70" d="M95.73,79.771c-0.025,0.404-0.09,0.805-0.377,0.734c0.045-0.102,0.082-0.359,0.109-0.734H95.73
				L95.73,79.771z M94.611,79.771h0.135c-0.059,0.1-0.107,0.238-0.137,0.428c-0.014-0.129-0.018-0.252-0.006-0.359
				C94.605,79.816,94.607,79.793,94.611,79.771z M95.451,68.049c0.186,0.846,0.424,3.063,0.426,4.711
				c0,2.633-0.061,5.449-0.127,6.648c-0.006,0.111-0.01,0.238-0.02,0.363h-0.268c0.104-1.324,0.117-4.102,0.113-6.576
				C95.574,71.273,95.527,69.186,95.451,68.049L95.451,68.049z M94.746,79.771h-0.135c0.037-0.232,0.154-0.395,0.365-0.424
				c0.213-0.035,0.373,0.143,0.391,0.299C95.342,79.547,94.969,79.391,94.746,79.771L94.746,79.771z M95.877,67.064
				c-0.316-0.506-1.326-0.482-2.033-0.471h-0.002l-0.131,0.004c0.039-0.143,0.17-0.246,0.326-0.246c0.119,0,0.146-0.002,0.172-0.002
				h0.002C95.102,66.367,95.545,66.402,95.877,67.064L95.877,67.064z M94.209,66.35h0.002H94.209z"/>
		</g>
		<path fill-rule="evenodd" clip-rule="evenodd" fill="#36485C" d="M91.996,66.221h2.111c0.193,0,0.35,0.156,0.35,0.348v35.721
			c0,0.752-0.461,8.973-0.895,8.973h-1.018c-0.373,0-0.896-8.221-0.896-8.973V66.568C91.648,66.377,91.807,66.221,91.996,66.221z"/>
		<path fill-rule="evenodd" clip-rule="evenodd" fill="#637386" d="M92.35,66.293h0.592c0.053,0,0.098,0.156,0.098,0.348v35.721
			c0,0.752,0.279,8.9,0.158,8.9H92.91c-0.104,0-0.658-8.148-0.658-8.9V66.641C92.252,66.449,92.295,66.293,92.35,66.293z"/>
		<g>
			<rect x="91.648" y="92.029" fill-rule="evenodd" clip-rule="evenodd" fill="#E94C3B" width="2.809" height="0.715"/>
			<rect x="91.648" y="90.779" fill-rule="evenodd" clip-rule="evenodd" fill="#E94C3B" width="2.809" height="0.715"/>
		</g>
		<g>
			<rect x="92.252" y="92.029" fill-rule="evenodd" clip-rule="evenodd" fill="#EF7C70" width="0.801" height="0.715"/>
			<rect x="92.252" y="90.779" fill-rule="evenodd" clip-rule="evenodd" fill="#EF7C70" width="0.801" height="0.715"/>
		</g>
	</g>
	<path opacity="0.3" fill-rule="evenodd" clip-rule="evenodd" d="M105.193,97.32l-0.547,4.863L104.1,97.32h-1.846
		c0.092-0.803,0.576-1.482,1.258-1.848l0.264-2.846h-0.928v-0.725h3.598v0.725h-0.928l0.264,2.846
		c0.68,0.365,1.164,1.045,1.258,1.848h-0.674h-0.514H105.193z"/>
	<g>
		<polygon fill-rule="evenodd" clip-rule="evenodd" fill="#E6E7E8" points="103.492,95.857 104.627,95.857 104.059,100.906 		"/>
		<path fill-rule="evenodd" clip-rule="evenodd" fill="#36485C" d="M102.262,90.625h3.596v0.723h-0.926l0.264,2.85
			c0.68,0.363,1.166,1.043,1.256,1.844h-4.783c0.092-0.801,0.576-1.48,1.256-1.844l0.264-2.85h-0.926V90.625z"/>
		<polygon fill-rule="evenodd" clip-rule="evenodd" fill="#637386" points="104.541,91.348 104.736,94.197 104.436,94.197 
			104.313,91.348 		"/>
		<polygon fill-rule="evenodd" clip-rule="evenodd" fill="#0A1420" points="104.932,91.348 104.971,91.781 103.148,91.781 
			103.188,91.348 		"/>
		<circle fill-rule="evenodd" clip-rule="evenodd" fill="#909FAF" cx="103.516" cy="94.994" r="0.248"/>
		<path fill-rule="evenodd" clip-rule="evenodd" fill="#909FAF" d="M105.779,96.041h-0.514c-0.043-0.182-0.094-0.359-0.154-0.535
			c-0.154-0.438,0.27-0.547,0.447-0.133C105.65,95.59,105.723,95.813,105.779,96.041z"/>
	</g>
	<path opacity="0.3" fill-rule="evenodd" clip-rule="evenodd" d="M113.092,97.32l-0.549,4.863l-0.547-4.863h-1.846
		c0.092-0.803,0.578-1.482,1.258-1.848l0.264-2.846h-0.928v-0.725h3.598v0.725h-0.928l0.266,2.846
		c0.678,0.365,1.164,1.045,1.256,1.848h-0.674h-0.512H113.092z"/>
	<g>
		<polygon fill-rule="evenodd" clip-rule="evenodd" fill="#E6E7E8" points="111.389,95.857 112.525,95.857 111.957,100.906 		"/>
		<path fill-rule="evenodd" clip-rule="evenodd" fill="#E94C3B" d="M110.156,90.625h3.602v0.723h-0.93l0.266,2.85
			c0.678,0.363,1.162,1.043,1.256,1.844h-4.785c0.092-0.801,0.576-1.48,1.258-1.844l0.262-2.85h-0.928V90.625z"/>
		<polygon fill-rule="evenodd" clip-rule="evenodd" fill="#EF7C70" points="112.438,91.348 112.633,94.197 112.332,94.197 
			112.211,91.348 		"/>
		<polygon fill-rule="evenodd" clip-rule="evenodd" fill="#BA3D2F" points="112.828,91.348 112.869,91.781 111.045,91.781 
			111.084,91.348 		"/>
		<circle fill-rule="evenodd" clip-rule="evenodd" fill="#F4ADA5" cx="111.412" cy="94.994" r="0.248"/>
		<path fill-rule="evenodd" clip-rule="evenodd" fill="#F4ADA5" d="M113.674,96.041h-0.512c-0.043-0.182-0.094-0.359-0.156-0.535
			c-0.15-0.438,0.273-0.547,0.451-0.133C113.549,95.59,113.621,95.813,113.674,96.041z"/>
	</g>
	<g>
		<path opacity="0.3" fill-rule="evenodd" clip-rule="evenodd" d="M87.021,104.076v11.859l0.563,2.691l0.361,1.719l0.361-1.719
			l0.564-2.691v-11.859v-11.66V68.828v-2.029v-0.9c0-0.459-0.416-0.834-0.926-0.834l0,0c-0.508,0-0.924,0.375-0.924,0.834v0.9v2.029
			v23.588V104.076z"/>
		<polygon fill-rule="evenodd" clip-rule="evenodd" fill="#FADDDA" points="85.582,90.979 85.582,114.496 86.508,118.906 
			87.432,114.496 87.432,90.979 		"/>
		<path fill-rule="evenodd" clip-rule="evenodd" fill="#E94C3B" d="M87.432,64.459c0-0.459-0.416-0.834-0.924-0.834l0,0
			c-0.51,0-0.926,0.375-0.926,0.834v26.519h1.85V64.459z"/>
		<path fill-rule="evenodd" clip-rule="evenodd" fill="#EF7C70" d="M86.816,114.496V65.361h-0.619v49.135
			C86.391,114.803,86.609,114.803,86.816,114.496z"/>
		<path fill-rule="evenodd" clip-rule="evenodd" fill="#E94C3B" d="M86.816,114.496c0.188,0.314,0.434,0.305,0.615,0V65.361h-0.615
			V114.496z"/>
		<path fill-rule="evenodd" clip-rule="evenodd" fill="#F4ADA5" d="M85.582,114.496c0.215,0.313,0.418,0.309,0.615,0V65.361h-0.615
			V114.496z"/>
		<path fill-rule="evenodd" clip-rule="evenodd" fill="#0A1420" d="M86.146,117.188l0.361,1.719l0.361-1.719
			c-0.119-0.025-0.238-0.037-0.361-0.037C86.383,117.15,86.264,117.162,86.146,117.188z"/>
		<rect x="86.197" y="65.361" fill-rule="evenodd" clip-rule="evenodd" fill="#637386" width="0.619" height="2.029"/>
		<rect x="86.816" y="65.361" fill-rule="evenodd" clip-rule="evenodd" fill="#36485C" width="0.615" height="2.029"/>
		<rect x="85.582" y="65.361" fill-rule="evenodd" clip-rule="evenodd" fill="#BDCAD9" width="0.615" height="2.029"/>
	</g>
	<g>
		<path opacity="0.3" fill-rule="evenodd" clip-rule="evenodd" d="M104.354,66.338c1.07-0.029,2.139-0.057,3.209-0.084
			c0.885-0.023,1.514,0.609,2.645,0.586c0.939-0.02,1.6-0.695,2.514-0.719c0.543-0.014,1.092-0.029,1.635-0.043
			c0.545-0.014,1.092-0.027,1.637-0.041c0.33-0.008,0.6,0.254,0.6,0.582c0,1.063,0,2.129,0,3.191c0,1.064,0,2.127,0,3.193
			c0,0.328-0.27,0.588-0.602,0.576c-0.547-0.02-1.096-0.039-1.641-0.059s-1.094-0.039-1.641-0.059
			c-0.914-0.033-1.576-0.717-2.518-0.744c-1.131-0.035-1.768,0.59-2.654,0.559c-1.072-0.037-2.143-0.074-3.217-0.113
			c-0.33-0.014-0.563-0.264-0.563-0.559v-5.719C103.758,66.592,104.023,66.344,104.354,66.338z"/>
		<path fill-rule="evenodd" clip-rule="evenodd" fill="#E94C3B" d="M102.605,64.709c1.07-0.027,2.141-0.055,3.209-0.08
			c0.885-0.025,1.516,0.605,2.645,0.584c0.939-0.02,1.602-0.693,2.514-0.717c0.545-0.015,1.092-0.029,1.635-0.042
			c0.545-0.015,1.092-0.03,1.637-0.043c0.332-0.008,0.602,0.253,0.602,0.583c0,1.063,0,2.127,0,3.189c0,1.064,0,2.129,0,3.193
			c0,0.328-0.27,0.59-0.602,0.576c-0.547-0.02-1.096-0.037-1.643-0.057c-0.545-0.02-1.094-0.041-1.639-0.059
			c-0.916-0.033-1.578-0.719-2.52-0.746c-1.133-0.033-1.766,0.592-2.654,0.559c-1.072-0.035-2.145-0.076-3.217-0.113
			c-0.33-0.012-0.563-0.264-0.563-0.559V65.26C102.01,64.965,102.277,64.719,102.605,64.709z"/>
		<path fill-rule="evenodd" clip-rule="evenodd" fill="#BF3C2E" d="M102.01,70.381v-4.389h9.957c1.207,0,2.195,0.986,2.195,2.193
			l0,0c0,1.207-0.988,2.195-2.195,2.195H102.01z"/>
		<path fill-rule="evenodd" clip-rule="evenodd" fill="#D7DFEA" d="M102.01,70.381v-3.379h11.803c0.221,0.344,0.35,0.75,0.35,1.184
			l0,0c0,1.207-0.988,2.195-2.195,2.195H102.01z"/>
		<path fill-rule="evenodd" clip-rule="evenodd" fill="#E4EAF2" d="M102.01,67.602v-0.6h11.803c0.119,0.184,0.209,0.385,0.27,0.6
			H102.01z"/>
		<circle fill-rule="evenodd" clip-rule="evenodd" fill="#909FAF" cx="108.086" cy="68.691" r="0.703"/>
		<path fill-rule="evenodd" clip-rule="evenodd" fill="#637386" d="M108.713,68.377c-0.049-0.1-0.123-0.188-0.215-0.254
			l-1.041,0.883c0.051,0.102,0.125,0.188,0.215,0.254L108.713,68.377z"/>
	</g>
	<rect x="3.089" y="7.945" opacity="0.3" fill-rule="evenodd" clip-rule="evenodd" width="74.798" height="105.784"/>
	<rect x="1.656" y="6.112" fill-rule="evenodd" clip-rule="evenodd" fill="#E94C3B" width="74.797" height="105.785"/>
	<g>
		<rect x="8.209" y="16.103" opacity="0.3" fill-rule="evenodd" clip-rule="evenodd" width="74.799" height="105.786"/>
		<rect x="5.932" y="13.827" fill-rule="evenodd" clip-rule="evenodd" fill="#FFFFFF" width="74.798" height="105.785"/>
	</g>
	<g opacity="0.3">
		<path d="M105.664,78.416c-1.852,0-3.352,1.5-3.352,3.352c0,1.85,1.5,3.352,3.352,3.352h3.875v-6.703H105.664z"/>
		<path d="M113.385,78.416h-3.838v6.703h3.838c1.85,0,3.35-1.502,3.35-3.352C116.734,79.916,115.234,78.416,113.385,78.416z"/>
	</g>
	<g>
		<path fill="#FFFFFF" d="M105.035,77.301c-1.85,0-3.352,1.5-3.352,3.352c0,1.85,1.502,3.35,3.352,3.35h3.877v-6.701H105.035z"/>
		<path fill="#E94C3B" d="M112.756,77.301h-3.838v6.701h3.838c1.85,0,3.35-1.5,3.35-3.35
			C116.105,78.801,114.605,77.301,112.756,77.301z"/>
	</g>
	<g>
		<rect x="86.971" y="35.162" opacity="0.3" fill-rule="evenodd" clip-rule="evenodd" width="39.373" height="22.864"/>
		<rect x="84.697" y="32.886" fill-rule="evenodd" clip-rule="evenodd" fill="#E94C3B" width="39.371" height="22.864"/>
		<g>
			<rect x="98.105" y="38.124" fill-rule="evenodd" clip-rule="evenodd" fill="#CCCCCC" width="2.828" height="1.679"/>
			<rect x="101.832" y="38.124" fill-rule="evenodd" clip-rule="evenodd" fill="#CCCCCC" width="5.1" height="1.679"/>
			<rect x="107.74" y="38.124" fill-rule="evenodd" clip-rule="evenodd" fill="#CCCCCC" width="2.857" height="1.679"/>
			<rect x="107.178" y="46.669" fill-rule="evenodd" clip-rule="evenodd" fill="#CCCCCC" width="0.961" height="0.994"/>
			<rect x="108.756" y="46.669" fill-rule="evenodd" clip-rule="evenodd" fill="#CCCCCC" width="2.264" height="0.994"/>
			<rect x="111.6" y="46.669" fill-rule="evenodd" clip-rule="evenodd" fill="#CCCCCC" width="0.961" height="0.994"/>
			<rect x="113.18" y="46.669" fill-rule="evenodd" clip-rule="evenodd" fill="#CCCCCC" width="2.264" height="0.994"/>
			<rect x="98.336" y="43.704" fill-rule="evenodd" clip-rule="evenodd" fill="#CCCCCC" width="2.549" height="0.994"/>
			<rect x="101.52" y="43.704" fill-rule="evenodd" clip-rule="evenodd" fill="#CCCCCC" width="1.066" height="0.994"/>
			<rect x="103.031" y="43.704" fill-rule="evenodd" clip-rule="evenodd" fill="#CCCCCC" width="1.064" height="0.994"/>
			<rect x="104.605" y="43.704" fill-rule="evenodd" clip-rule="evenodd" fill="#CCCCCC" width="2.549" height="0.994"/>
			<rect x="107.787" y="43.704" fill-rule="evenodd" clip-rule="evenodd" fill="#CCCCCC" width="1.068" height="0.994"/>
			<rect x="109.301" y="43.704" fill-rule="evenodd" clip-rule="evenodd" fill="#CCCCCC" width="1.066" height="0.994"/>
			<rect x="93.26" y="46.669" fill-rule="evenodd" clip-rule="evenodd" fill="#CCCCCC" width="2.844" height="0.994"/>
			<rect x="96.814" y="46.669" fill-rule="evenodd" clip-rule="evenodd" fill="#CCCCCC" width="1.189" height="0.994"/>
			<rect x="98.502" y="46.669" fill-rule="evenodd" clip-rule="evenodd" fill="#CCCCCC" width="1.191" height="0.994"/>
			<rect x="100.262" y="46.669" fill-rule="evenodd" clip-rule="evenodd" fill="#CCCCCC" width="2.844" height="0.994"/>
			<rect x="103.814" y="46.669" fill-rule="evenodd" clip-rule="evenodd" fill="#CCCCCC" width="1.191" height="0.994"/>
			<rect x="105.502" y="46.669" fill-rule="evenodd" clip-rule="evenodd" fill="#CCCCCC" width="1.191" height="0.994"/>
			<rect x="94.98" y="48.556" fill-rule="evenodd" clip-rule="evenodd" fill="#CCCCCC" width="1.211" height="0.995"/>
			<rect x="110.141" y="48.556" fill-rule="evenodd" clip-rule="evenodd" fill="#CCCCCC" width="3.586" height="0.995"/>
			<rect x="107.748" y="48.556" fill-rule="evenodd" clip-rule="evenodd" fill="#CCCCCC" width="1.5" height="0.995"/>
			<rect x="105.619" y="48.556" fill-rule="evenodd" clip-rule="evenodd" fill="#CCCCCC" width="1.502" height="0.995"/>
			<rect x="101.318" y="48.556" fill-rule="evenodd" clip-rule="evenodd" fill="#CCCCCC" width="3.586" height="0.995"/>
			<rect x="98.926" y="48.556" fill-rule="evenodd" clip-rule="evenodd" fill="#CCCCCC" width="1.502" height="0.995"/>
			<rect x="96.799" y="48.556" fill-rule="evenodd" clip-rule="evenodd" fill="#CCCCCC" width="1.5" height="0.995"/>
		</g>
	</g>
	<g>
		<rect x="86.945" y="8.89" opacity="0.3" fill-rule="evenodd" clip-rule="evenodd" width="38.898" height="22.589"/>
		<rect x="84.697" y="6.641" fill-rule="evenodd" clip-rule="evenodd" fill="#FFFFFF" width="38.898" height="22.589"/>
		<g>
			<rect x="97.943" y="12.154" fill-rule="evenodd" clip-rule="evenodd" fill="#CCCCCC" width="2.795" height="1.658"/>
			<rect x="101.625" y="12.154" fill-rule="evenodd" clip-rule="evenodd" fill="#CCCCCC" width="5.039" height="1.658"/>
			<rect x="107.463" y="12.154" fill-rule="evenodd" clip-rule="evenodd" fill="#CCCCCC" width="2.826" height="1.658"/>
			<rect x="106.906" y="20.595" fill-rule="evenodd" clip-rule="evenodd" fill="#CCCCCC" width="0.951" height="0.982"/>
			<rect x="108.469" y="20.595" fill-rule="evenodd" clip-rule="evenodd" fill="#CCCCCC" width="2.234" height="0.982"/>
			<rect x="111.277" y="20.595" fill-rule="evenodd" clip-rule="evenodd" fill="#CCCCCC" width="0.949" height="0.982"/>
			<rect x="112.838" y="20.595" fill-rule="evenodd" clip-rule="evenodd" fill="#CCCCCC" width="2.236" height="0.982"/>
			<rect x="98.172" y="17.667" fill-rule="evenodd" clip-rule="evenodd" fill="#CCCCCC" width="2.518" height="0.983"/>
			<rect x="101.316" y="17.667" fill-rule="evenodd" clip-rule="evenodd" fill="#CCCCCC" width="1.055" height="0.983"/>
			<rect x="102.813" y="17.667" fill-rule="evenodd" clip-rule="evenodd" fill="#CCCCCC" width="1.053" height="0.983"/>
			<rect x="104.369" y="17.667" fill-rule="evenodd" clip-rule="evenodd" fill="#CCCCCC" width="2.516" height="0.983"/>
			<rect x="107.512" y="17.667" fill-rule="evenodd" clip-rule="evenodd" fill="#CCCCCC" width="1.053" height="0.983"/>
			<rect x="109.006" y="17.667" fill-rule="evenodd" clip-rule="evenodd" fill="#CCCCCC" width="1.055" height="0.983"/>
			<rect x="93.158" y="20.595" fill-rule="evenodd" clip-rule="evenodd" fill="#CCCCCC" width="2.811" height="0.982"/>
			<rect x="96.67" y="20.595" fill-rule="evenodd" clip-rule="evenodd" fill="#CCCCCC" width="1.176" height="0.982"/>
			<rect x="98.336" y="20.595" fill-rule="evenodd" clip-rule="evenodd" fill="#CCCCCC" width="1.178" height="0.982"/>
			<rect x="100.074" y="20.595" fill-rule="evenodd" clip-rule="evenodd" fill="#CCCCCC" width="2.811" height="0.982"/>
			<rect x="103.584" y="20.595" fill-rule="evenodd" clip-rule="evenodd" fill="#CCCCCC" width="1.178" height="0.982"/>
			<rect x="105.254" y="20.595" fill-rule="evenodd" clip-rule="evenodd" fill="#CCCCCC" width="1.176" height="0.982"/>
			<rect x="94.855" y="22.461" fill-rule="evenodd" clip-rule="evenodd" fill="#CCCCCC" width="1.197" height="0.982"/>
			<rect x="109.836" y="22.461" fill-rule="evenodd" clip-rule="evenodd" fill="#CCCCCC" width="3.541" height="0.982"/>
			<rect x="107.471" y="22.461" fill-rule="evenodd" clip-rule="evenodd" fill="#CCCCCC" width="1.482" height="0.982"/>
			<rect x="105.369" y="22.461" fill-rule="evenodd" clip-rule="evenodd" fill="#CCCCCC" width="1.482" height="0.982"/>
			<rect x="101.121" y="22.461" fill-rule="evenodd" clip-rule="evenodd" fill="#CCCCCC" width="3.541" height="0.982"/>
			<rect x="98.756" y="22.461" fill-rule="evenodd" clip-rule="evenodd" fill="#CCCCCC" width="1.482" height="0.982"/>
			<rect x="96.654" y="22.461" fill-rule="evenodd" clip-rule="evenodd" fill="#CCCCCC" width="1.482" height="0.982"/>
		</g>
	</g>
</g>
</svg>
