<?xml version="1.0" encoding="utf-8"?>
<!-- Generator: Adobe Illustrator 16.0.0, SVG Export Plug-In . SVG Version: 6.00 Build 0)  -->
<!DOCTYPE svg PUBLIC "-//W3C//DTD SVG 1.1//EN" "http://www.w3.org/Graphics/SVG/1.1/DTD/svg11.dtd">
<svg version="1.1" id="Layer_1" xmlns="http://www.w3.org/2000/svg" xmlns:xlink="http://www.w3.org/1999/xlink" x="0px" y="0px"
	 width="128px" height="128px" viewBox="0 0 128 128" enable-background="new 0 0 128 128" xml:space="preserve">
<g>
	<path opacity="0.3" d="M120.416,32.5H120l0.5-0.967v-0.57c0-0.509-0.989-0.953-1.501-0.953l-68.938-0.108
		c-0.51-0.001-1.068,0.403-1.069,0.914l-0.078,4.191L46.163,35c-0.126,0-0.25,0.104-0.249,0.23c0,0.127-0.075,0.23,0.051,0.231
		l2.534,0.004V36.1l-2.543-0.003c-0.128-0.001-0.147,0.102-0.147,0.23c0,0.127,0.146,0.231,0.274,0.231l2.733,0.004l0.005,4.847
		l-2.709-0.004c-0.128,0.001-0.228,0.103-0.229,0.231c0.001,0.128-0.06,0.23,0.066,0.23l2.55,0.004v0.635l-2.548-0.004
		c-0.128,0.001-0.148,0.104-0.149,0.231c0.001,0.129,0.145,0.231,0.272,0.231l2.734,0.004l0.005,4.849l-2.709-0.003
		c-0.129-0.001-0.227,0.101-0.228,0.23c0,0.126-0.059,0.23,0.068,0.23l2.555,0.004v0.635l-2.552-0.003
		c-0.128-0.001-0.151,0.103-0.151,0.229c0,0.129,0.143,0.231,0.271,0.233l2.733,0.003l0.004,4.848l-2.708-0.003
		c-0.128-0.001-0.229,0.103-0.228,0.231c-0.001,0.127-0.055,0.229,0.072,0.229l2.559,0.005v0.635l-2.557-0.004
		c-0.127,0-0.152,0.103-0.153,0.231c0,0.128,0.143,0.23,0.269,0.23l2.735,0.004l0.003,4.849l-2.71-0.004
		c-0.126,0-0.228,0.102-0.228,0.23s-0.047,0.23,0.081,0.23L48.5,61.09v0.636l-2.561-0.004c-0.126,0-0.155,0.103-0.155,0.229
		c-0.001,0.129,0.141,0.233,0.268,0.234l2.733,0.003l0.004,4.846l-2.71-0.003c-0.127,0-0.228,0.104-0.228,0.231
		c-0.001,0.127-0.045,0.23,0.082,0.23l2.567,0.004v0.635l-2.566-0.003c-0.126,0-0.158,0.102-0.158,0.23
		c0,0.127,0.142,0.229,0.268,0.23l2.733,0.004l0.003,4.848l-2.71-0.004c-0.126,0.002-0.229,0.103-0.228,0.231
		c0,0.126-0.041,0.232,0.086,0.23l2.572,0.004v0.636l-2.571-0.005c-0.126,0-0.16,0.104-0.16,0.231
		c0.002,0.127,0.006,0.229,0.133,0.23l2.598,0.006v4.848l-2.575-0.004c-0.126-0.001-0.159,0.104-0.16,0.231
		c0,0.127-0.001,0.229,0.126,0.229l2.608,0.005v0.635l-2.574-0.004c-0.127,0-0.163,0.102-0.163,0.23s0.138,0.232,0.266,0.232
		l2.731,0.004l0.002,4.847l-2.711-0.004c-0.125,0-0.226,0.104-0.227,0.23c-0.002,0.129-0.032,0.233,0.094,0.233l2.581,0.004v0.634
		l-2.578-0.005c-0.129,0-0.165,0.104-0.164,0.23c-0.003,0.126,0.009,0.231,0.136,0.231l2.605,0.004v4.85l-2.583-0.005
		c-0.126-0.001-0.166,0.104-0.165,0.23c0,0.129,0.005,0.23,0.132,0.23l2.615,0.005v0.634l-2.583-0.003
		c-0.128,0-0.168,0.104-0.167,0.23c0,0.129,0.137,0.232,0.264,0.23l2.729,0.004l0.002,4.85l-2.711-0.005
		c-0.127,0-0.229,0.103-0.228,0.23c0,0.127-0.023,0.232,0.104,0.232l2.589,0.004v0.634l-2.588-0.004
		c-0.127,0-0.169,0.103-0.169,0.23c0,0.129,0.018,0.231,0.144,0.231l2.613,0.004v4.981l-2.591-0.002c-0.127,0-0.17,0.104-0.171,0.23
		c0.001,0.128,0.011,0.23,0.14,0.23l2.622,0.003v0.635l-2.591-0.004c-0.127,0-0.172,0.104-0.174,0.231
		c0.001,0.128,0.022,0.231,0.149,0.231l2.616,0.004v4.847l-2.597-0.003c-0.125,0-0.171,0.104-0.171,0.231
		c-0.001,0.127,0.016,0.23,0.142,0.231l2.626,0.004v0.635l-2.596-0.005c-0.126,0-0.173,0.104-0.173,0.23
		c0,0.128,0.022,0.232,0.15,0.23l2.619,0.006v4.847l-2.603-0.003c-0.126-0.001-0.172,0.104-0.173,0.231
		c0.001,0.127,0.019,0.23,0.147,0.23l2.629,0.004v0.636l-2.603-0.005c-0.126,0-0.174,0.103-0.174,0.23s0.132,0.229,0.259,0.231
		l2.729,0.003l0.003,3.536c-0.003,0.512,0.417,0.983,0.928,0.983h0.583l1.274,0.742v0.536c0,0.509,0.021,0.846,0.533,0.846
		l68.449,0.055c0.508,0.002,0.822-0.43,0.824-0.941l0.08-92.484C121.387,32.743,120.926,32.5,120.416,32.5z"/>
	<path opacity="0.3" d="M39.744,42.5c-0.019,0,0.031-0.216,0.007-0.682c-0.521-12.221-1.596-22.608-2.537-28.812
		c-1.104-0.003-2.194,0.173-3.3,0.169c-0.401,2.57-0.826,6.016-1.237,9.926l0.007-0.155c-0.064,0.25-0.125,0.54-0.187,0.815
		c-0.019,0.086-0.038,0.186-0.056,0.274c-0.059,0.274-0.116,0.561-0.173,0.857c-0.009,0.051-0.019,0.108-0.027,0.16
		c-0.05,0.271-0.1,0.551-0.147,0.839c-0.015,0.095-0.032,0.191-0.046,0.288c-0.053,0.332,0.203,0.672,0.151,1.027
		C32.196,27.22,32.5,27.234,32.5,27.25v0.005c-1,7.105-1.768,18.501-1.365,31.248c0.047,1.513-0.048,3.002,0.021,4.466l0.327,0.006
		l0,0l0.709,0.009l0.091-8.283l0.663,70.277l0.137-0.002c0.003,0.196,0.001,0.391,0.001,0.586c2.058,0.718,4.297,0.697,6.336-0.061
		c-0.001-0.195-0.003-0.39-0.005-0.587l0.143-0.002l-0.769-80.186l1.528-0.429L40.204,43.5h-0.353l0.649,0.659V44.09l0,0V42.5
		H39.744z"/>
	<polygon opacity="0.3" points="21.915,50.5 19.5,50.5 19.5,50.353 18.353,50.5 17.271,50.5 12.625,50.5 11.896,69.629 12.5,69.753 
		12.5,72.762 12.823,124.5 17.271,124.5 21.718,124.5 23.5,72.762 23.5,69.753 23.375,69.627 	"/>
	<g>
		<path fill="#54C2BA" d="M117.011,125.251c-0.002,0.509-0.413,0.922-0.924,0.921l-68.644-0.095c-0.511,0-0.925-0.415-0.924-0.923
			l0.127-92.656c0.001-0.51,0.415-0.922,0.925-0.921l68.646,0.093c0.51,0,0.922,0.414,0.922,0.924L117.011,125.251z"/>
		<polygon fill="#E5E8EC" points="116.241,125.249 116.369,32.287 114.525,30.283 45.445,30.19 45.318,123.15 47.161,125.154 		"/>
		<polygon fill="#CDD5D7" points="116.241,125.249 116.241,125.249 114.397,123.247 45.445,30.19 45.318,123.15 47.161,125.154 		
			"/>
		
			<rect x="33.439" y="42.178" transform="matrix(-0.0014 1 -1 -0.0014 156.7495 -3.097)" fill="#E5E8EC" width="92.964" height="69.081"/>
		<path fill="#00A79D" d="M115.013,123.093c0,0.51-0.414,0.923-0.924,0.922l-68.645-0.094c-0.511-0.001-0.924-0.415-0.921-0.926
			l0.125-92.655c0-0.51,0.414-0.922,0.924-0.92l68.646,0.093c0.51,0.001,0.922,0.416,0.922,0.924L115.013,123.093z"/>
		<g>
			<circle fill="#484F59" cx="48.728" cy="35.329" r="1.25"/>
			<circle fill="#484F59" cx="48.72" cy="41.752" r="1.25"/>
			<circle fill="#484F59" cx="48.709" cy="48.175" r="1.251"/>
			<circle fill="#484F59" cx="48.702" cy="54.595" r="1.25"/>
			<circle fill="#484F59" cx="48.693" cy="61.018" r="1.251"/>
			<circle fill="#484F59" cx="48.683" cy="67.439" r="1.251"/>
			<circle fill="#484F59" cx="48.675" cy="73.861" r="1.25"/>
			<path fill="#484F59" d="M47.415,80.282c0.003-0.694,0.563-1.252,1.252-1.251c0.691,0,1.25,0.562,1.25,1.253
				c0,0.69-0.562,1.253-1.253,1.251C47.973,81.534,47.414,80.972,47.415,80.282z"/>
			<circle fill="#484F59" cx="48.657" cy="86.705" r="1.25"/>
			<path fill="#484F59" d="M47.398,93.127c0-0.694,0.561-1.251,1.251-1.25c0.692,0,1.25,0.559,1.25,1.252
				c0,0.691-0.562,1.25-1.254,1.249C47.957,94.377,47.396,93.816,47.398,93.127z"/>
			<circle fill="#484F59" cx="48.64" cy="99.549" r="1.251"/>
		</g>
		<g>
			<g>
				<path fill="#FFFFFF" d="M41.929,34.994c-0.128-0.001-0.23-0.104-0.23-0.233l0,0c-0.002-0.125,0.104-0.229,0.23-0.229l6.463,0.01
					c0.128,0.001,0.231,0.102,0.231,0.231l0,0c0,0.127-0.104,0.23-0.23,0.231L41.929,34.994z"/>
				<path fill="#FFFFFF" d="M41.927,36.09c-0.127,0-0.231-0.104-0.23-0.231l0,0c0-0.128,0.104-0.231,0.23-0.23l6.465,0.008
					c0.127,0,0.23,0.104,0.229,0.231l0,0c0.001,0.128-0.104,0.231-0.231,0.231L41.927,36.09z"/>
			</g>
			<g>
				<path fill="#FFFFFF" d="M41.919,41.399c-0.126,0-0.23-0.102-0.231-0.23l0,0c0.001-0.128,0.104-0.23,0.231-0.231l6.467,0.009
					c0.126,0,0.23,0.104,0.229,0.231l0,0c0,0.127-0.104,0.231-0.23,0.231L41.919,41.399z"/>
				<path fill="#FFFFFF" d="M41.918,42.497c-0.128,0-0.23-0.102-0.23-0.231l0,0c0-0.127,0.104-0.23,0.23-0.231l6.466,0.01
					c0.126-0.001,0.231,0.104,0.23,0.231l0,0c-0.001,0.127-0.103,0.23-0.23,0.229L41.918,42.497z"/>
			</g>
			<g>
				<path fill="#FFFFFF" d="M41.909,47.807c-0.126,0-0.228-0.104-0.228-0.23l0,0c0-0.129,0.102-0.231,0.232-0.23l6.464,0.008
					c0.128,0.001,0.229,0.103,0.23,0.23l0,0c-0.001,0.127-0.104,0.23-0.231,0.23L41.909,47.807z"/>
				<path fill="#FFFFFF" d="M41.91,48.904c-0.129-0.002-0.23-0.104-0.23-0.233l0,0c0-0.126,0.102-0.23,0.229-0.229l6.467,0.008
					c0.127,0.001,0.229,0.104,0.229,0.23l0,0c0,0.128-0.102,0.232-0.231,0.231L41.91,48.904z"/>
			</g>
			<g>
				<path fill="#FFFFFF" d="M41.901,54.212c-0.127,0-0.229-0.102-0.229-0.229l0,0c0-0.128,0.103-0.232,0.231-0.231l6.465,0.008
					c0.126,0.001,0.231,0.103,0.23,0.231l0,0c0,0.127-0.103,0.232-0.23,0.231L41.901,54.212z"/>
				<path fill="#FFFFFF" d="M41.9,55.31c-0.126,0-0.23-0.103-0.23-0.23l0,0c0.001-0.128,0.103-0.231,0.231-0.231l6.466,0.009
					c0.127,0,0.229,0.104,0.23,0.231l0,0c0,0.128-0.104,0.23-0.231,0.229L41.9,55.31z"/>
			</g>
			<g>
				<path fill="#FFFFFF" d="M41.894,60.619c-0.127,0-0.231-0.102-0.231-0.23l0,0c0-0.128,0.104-0.23,0.23-0.23l6.467,0.008
					c0.127,0,0.23,0.104,0.23,0.23l0,0c0,0.128-0.105,0.231-0.231,0.231L41.894,60.619z"/>
				<path fill="#FFFFFF" d="M41.891,61.718c-0.126-0.001-0.23-0.105-0.229-0.234l0,0c0.001-0.125,0.105-0.229,0.231-0.229
					l6.466,0.008c0.125,0,0.229,0.104,0.229,0.229l0,0c0,0.129-0.104,0.233-0.229,0.231L41.891,61.718z"/>
			</g>
			<g>
				<path fill="#FFFFFF" d="M41.884,67.025c-0.127,0-0.23-0.104-0.229-0.23l0,0c0.001-0.128,0.104-0.231,0.23-0.231l6.465,0.009
					c0.127,0,0.229,0.104,0.229,0.232l0,0c0,0.127-0.104,0.23-0.231,0.229L41.884,67.025z"/>
				<path fill="#FFFFFF" d="M41.883,68.122c-0.127-0.002-0.23-0.104-0.23-0.23l0,0c0-0.129,0.104-0.23,0.231-0.23l6.466,0.008
					c0.125,0.002,0.229,0.104,0.229,0.233l0,0c0,0.124-0.105,0.229-0.232,0.229L41.883,68.122z"/>
			</g>
			<g>
				<path fill="#FFFFFF" d="M41.875,73.432c-0.127,0.002-0.229-0.104-0.229-0.23l0,0c-0.001-0.129,0.104-0.229,0.23-0.231
					l6.465,0.01c0.127,0.001,0.23,0.103,0.229,0.23l0,0c0.001,0.127-0.103,0.23-0.23,0.229L41.875,73.432z"/>
				<path fill="#FFFFFF" d="M41.874,74.528c-0.126-0.001-0.229-0.104-0.23-0.23l0,0c0-0.128,0.104-0.231,0.23-0.231l6.466,0.009
					c0.125,0,0.229,0.105,0.229,0.233l0,0c0,0.127-0.104,0.229-0.23,0.229L41.874,74.528z"/>
			</g>
			<g>
				<path fill="#FFFFFF" d="M41.868,79.838c-0.129,0-0.231-0.102-0.231-0.229l0,0c0.001-0.127,0.104-0.232,0.229-0.231l6.465,0.008
					c0.128-0.001,0.231,0.105,0.231,0.233l0,0c0,0.127-0.104,0.227-0.23,0.227L41.868,79.838z"/>
				<path fill="#FFFFFF" d="M41.865,80.937c-0.128,0-0.23-0.104-0.23-0.232l0,0c0-0.129,0.104-0.23,0.23-0.23l6.465,0.009
					c0.128,0.002,0.23,0.102,0.229,0.231l0,0c0,0.127-0.103,0.231-0.23,0.231L41.865,80.937z"/>
			</g>
			<g>
				<path fill="#FFFFFF" d="M41.857,86.247c-0.126,0-0.229-0.104-0.229-0.233l0,0c0.001-0.126,0.104-0.23,0.231-0.23l6.464,0.009
					c0.127,0,0.23,0.104,0.229,0.231l0,0c0.001,0.127-0.103,0.232-0.23,0.23L41.857,86.247z"/>
				<path fill="#FFFFFF" d="M41.856,87.342c-0.127,0-0.23-0.105-0.229-0.231l0,0c-0.001-0.127,0.101-0.23,0.23-0.23l6.464,0.01
					c0.128,0,0.23,0.101,0.23,0.23l0,0c-0.002,0.127-0.104,0.229-0.231,0.229L41.856,87.342z"/>
			</g>
			<g>
				<path fill="#FFFFFF" d="M41.849,92.651c-0.126,0-0.23-0.102-0.23-0.23l0,0c-0.001-0.127,0.104-0.231,0.23-0.23l6.466,0.009
					c0.126,0,0.231,0.104,0.23,0.233l0,0c0.001,0.127-0.104,0.228-0.23,0.228L41.849,92.651z"/>
				<path fill="#FFFFFF" d="M41.849,93.748c-0.127,0.002-0.232-0.102-0.232-0.23l0,0c-0.001-0.126,0.105-0.23,0.232-0.23
					l6.464,0.008c0.126,0.002,0.23,0.104,0.232,0.231l0,0c-0.002,0.129-0.106,0.231-0.231,0.231L41.849,93.748z"/>
			</g>
			<g>
				<path fill="#FFFFFF" d="M41.84,99.06c-0.127,0-0.23-0.105-0.23-0.232l0,0c-0.001-0.128,0.104-0.23,0.23-0.23l6.466,0.009
					c0.127,0.001,0.23,0.104,0.231,0.231l0,0c-0.001,0.126-0.105,0.231-0.231,0.23L41.84,99.06z"/>
				<path fill="#FFFFFF" d="M41.838,100.155c-0.127,0-0.23-0.103-0.23-0.231l0,0c0-0.128,0.103-0.23,0.231-0.23l6.467,0.009
					c0.125,0.001,0.229,0.104,0.227,0.232l0,0c0.003,0.127-0.103,0.231-0.23,0.23L41.838,100.155z"/>
			</g>
			<g>
				<circle fill="#484F59" cx="48.631" cy="105.951" r="1.251"/>
				<path fill="#484F59" d="M47.37,112.372c0.003-0.69,0.563-1.251,1.253-1.249c0.689,0,1.25,0.562,1.25,1.255
					c-0.001,0.688-0.563,1.247-1.254,1.249C47.929,113.623,47.37,113.063,47.37,112.372z"/>
				<circle fill="#484F59" cx="48.613" cy="118.797" r="1.251"/>
			</g>
			<g>
				<path fill="#FFFFFF" d="M41.832,105.6c-0.128,0-0.23-0.103-0.231-0.23l0,0c0.001-0.127,0.104-0.23,0.231-0.23l6.466,0.008
					c0.127,0,0.231,0.105,0.229,0.23l0,0c0,0.128-0.102,0.232-0.229,0.232L41.832,105.6z"/>
				<path fill="#FFFFFF" d="M41.83,106.696c-0.127,0-0.23-0.104-0.232-0.231l0,0c0.002-0.127,0.107-0.231,0.233-0.231l6.466,0.009
					c0.126,0,0.229,0.104,0.229,0.232l0,0c0.001,0.128-0.105,0.23-0.23,0.23L41.83,106.696z"/>
			</g>
			<g>
				<path fill="#FFFFFF" d="M41.822,112.007c-0.126-0.001-0.229-0.104-0.229-0.231l0,0c0-0.128,0.104-0.231,0.23-0.231l6.464,0.009
					c0.128,0.002,0.231,0.104,0.23,0.232l0,0c-0.001,0.127-0.104,0.23-0.231,0.23L41.822,112.007z"/>
				<path fill="#FFFFFF" d="M41.821,113.102c-0.127,0.002-0.229-0.103-0.23-0.23l0,0c0.001-0.127,0.104-0.23,0.23-0.23l6.465,0.008
					c0.128,0,0.23,0.104,0.229,0.232l0,0c0.001,0.128-0.103,0.231-0.23,0.232L41.821,113.102z"/>
			</g>
			<g>
				<path fill="#FFFFFF" d="M41.814,118.413c-0.127,0-0.229-0.104-0.23-0.23l0,0c0.001-0.127,0.104-0.232,0.229-0.231l6.466,0.009
					c0.128,0.001,0.231,0.104,0.23,0.231l0,0c-0.001,0.127-0.104,0.23-0.231,0.23L41.814,118.413z"/>
				<path fill="#FFFFFF" d="M41.812,119.51c-0.127-0.002-0.23-0.104-0.23-0.231l0,0c0-0.128,0.104-0.23,0.231-0.23l6.464,0.009
					c0.127,0,0.231,0.103,0.23,0.231l0,0c0,0.129-0.104,0.23-0.229,0.23L41.812,119.51z"/>
			</g>
		</g>
	</g>
	<g>
		<path fill="#28292C" d="M28.878,124.223c0.003,0.292,0.006,0.582,0.008,0.872c2.058,0.718,4.297,0.697,6.336-0.061
			c-0.002-0.291-0.005-0.58-0.007-0.872L28.878,124.223z"/>
		<path fill="#28292C" d="M34.222,124.458c-1.448,0.014-2.896,0.028-4.343,0.041c-0.01-0.925-0.018-1.851-0.026-2.778
			c1.399-0.518,2.935-0.531,4.342-0.04C34.204,122.605,34.213,123.532,34.222,124.458z"/>
		<g>
			<path fill="#B7BEC0" d="M30.542,23.353c-0.004-0.295,0.242-0.966,0.552-0.969l0,0c0.309-0.002,0.567,0.662,0.57,0.959
				l0.013,1.357c0.003,0.297-0.245,0.539-0.555,0.542l0,0c-0.31,0.002-0.563-0.235-0.566-0.53L30.542,23.353z"/>
			<path fill="#CDD5D7" d="M30.378,23.686c-0.438,1.175-0.72,3.456-0.697,6.078c0.038,3.813,0.712,6.9,1.509,6.893
				c0.797-0.008,1.413-3.107,1.376-6.92c-0.025-2.621-0.352-4.898-0.812-6.063L30.378,23.686z"/>
			<path fill="#B7BEC0" d="M31.889,25.789c0.052,5.525-0.552,10.011-1.346,10.02c-0.021,0-0.038-0.005-0.058-0.011
				c0.212,0.549,0.454,0.861,0.706,0.859c0.797-0.008,1.413-3.107,1.376-6.92c-0.023-2.447-0.309-4.594-0.723-5.818
				C31.864,24.525,31.883,25.149,31.889,25.789z"/>
			<path fill="#969C9E" d="M32.054,27.72c0.048,0.638,0.079,1.313,0.084,2.021c0.035,3.47-0.474,6.341-1.165,6.834
				c0.072,0.053,0.143,0.081,0.217,0.081c0.797-0.008,1.413-3.107,1.376-6.92c-0.006-0.688-0.036-1.345-0.08-1.969L32.054,27.72z"/>
			
				<rect x="30.315" y="32.631" transform="matrix(0.9999 -0.0102 0.0102 0.9999 -0.6699 0.3241)" fill="#28292C" width="2.35" height="66.645"/>
			
				<rect x="28.3" y="32.63" transform="matrix(1 -0.0094 0.0094 1 -0.7401 0.3019)" opacity="0.3" fill="#E5E8EC" width="6.621" height="91.851"/>
			<g>
				<path opacity="0.3" fill="#D3DBDD" d="M29.479,27.734c-0.525,1.643-1.054,3.286-1.58,4.928c2.189-0.021,4.378-0.043,6.57-0.064
					c-0.559-1.631-1.118-3.263-1.677-4.896C31.791,27.367,30.476,27.38,29.479,27.734z"/>
				<path opacity="0.3" fill="#E5E8EC" d="M29.844,27.693c-0.032,0.013-0.066,0.024-0.097,0.039
					c-0.401,1.641-0.802,3.283-1.201,4.923c0.897-0.008,1.131-0.01,2.029-0.019c-0.042-1.849-0.157-3.343-0.301-4.91
					C30.244,27.713,29.878,27.706,29.844,27.693z"/>
				<path opacity="0.3" fill="#E5E8EC" d="M33.049,32.613c0.221-0.002,0.464-0.005,0.802-0.008
					c-0.431-1.633-0.863-3.267-1.295-4.899c-0.031-0.015-0.066-0.025-0.097-0.038c-0.034,0.014-0.398,0.028-0.431,0.042
					c-0.018,0.275-0.036,0.55-0.055,0.823C32.331,29.893,32.693,31.252,33.049,32.613z"/>
				<path opacity="0.3" fill="#969C9E" d="M29.483,28.083c0.996-0.355,2.311-0.368,3.313-0.032c0.518,1.516,1.632,4.548,1.673,4.548
					c-0.559-1.631-1.118-3.263-1.677-4.896c-1.001-0.335-2.316-0.322-3.313,0.032C28.954,29.376,28.994,29.607,29.483,28.083z"/>
			</g>
			
				<rect x="33.532" y="32.605" transform="matrix(1 -0.0091 0.0091 1 -0.7167 0.3163)" opacity="0.3" fill="#E5E8EC" width="1.388" height="91.85"/>
			
				<rect x="29.367" y="32.649" transform="matrix(-1 0.0084 -0.0084 -1 60.0327 156.8971)" opacity="0.3" fill="#E5E8EC" width="0.64" height="91.851"/>
		</g>
		<g>
			<path fill="#E6E6E6" d="M28.49,22.523c-1.563,6.083-2.36,19.767-1.863,35.513c0.047,1.513,0.106,3.002,0.176,4.466l1.152,0.016
				L28.49,22.523z"/>
			<path fill="#28292C" d="M27.685,26.783l-0.477,35.725l0.748,0.009l0.534-39.994C28.191,23.68,27.923,25.114,27.685,26.783z"/>
			<g>
				<path fill="#28292C" d="M35.695,43.729c-0.023-0.553-0.046-1.11-0.074-1.669c-0.521-12.219-1.63-22.962-2.57-29.167
					c-1.105-0.003-2.213-0.004-3.318-0.008c-0.967,6.201-2.125,16.939-2.701,29.155c-0.029,0.56-0.055,1.115-0.081,1.668
					L35.695,43.729z"/>
				<path fill="#28292C" d="M31.794,21.221c0.007-2.931-0.002-5.736-0.026-8.331c-0.444,0-0.889-0.001-1.334-0.003
					c-0.037,2.594-0.057,5.399-0.064,8.331c-0.024,10.352,0.152,19.167,0.419,22.5l0.485,0
					C31.556,40.387,31.771,31.573,31.794,21.221z"/>
				
					<rect x="26.724" y="43.613" transform="matrix(1 0.0021 -0.0021 1 0.0937 -0.0668)" fill="#28292C" width="9.397" height="0.641"/>
				
					<rect x="30.677" y="43.45" transform="matrix(1 0.0024 -0.0024 1 0.1058 -0.0807)" fill="#28292C" width="5.446" height="0.44"/>
			</g>
		</g>
	</g>
	<g>
		<g>
			<polygon fill="#BE1E2D" points="17.519,124.442 8.625,124.442 7.044,72.294 19.101,72.294 			"/>
			<rect x="7.044" y="69.285" fill="#28292C" width="12.057" height="3.009"/>
			<polygon fill="#28292C" points="15.148,62.417 15.148,55.197 10.998,55.197 10.998,62.417 7.044,69.285 19.101,69.285 			"/>
			<polygon fill="#E8425E" points="11.556,52.038 11.556,55.197 14.589,55.197 14.589,49.885 			"/>
			<polygon opacity="0.3" fill="#FFFFFF" points="11.556,52.038 13.863,53.166 14.589,49.885 			"/>
			<polygon fill="#181919" points="13.073,55.197 13.073,69.285 19.101,69.285 15.148,62.417 15.148,55.197 			"/>
			<polygon opacity="0.05" points="13.073,124.442 17.519,124.442 19.101,72.294 13.073,72.294 			"/>
		</g>
		<g>
			<polygon fill="#28292C" points="19.101,46.356 7.044,46.356 8.427,26.957 17.717,26.957 			"/>
			<polygon fill="#181919" points="13.072,46.356 19.101,46.356 17.717,26.957 13.072,26.957 			"/>
		</g>
	</g>
	<g>
		<g>
			<path fill="#28292C" d="M47.141,3.605c0,0,39.715-1.067,42.846-0.617c3.126,0.45,5.38,1.104,10.919,6.991
				c5.537,5.89,10.072,9.739,10.072,9.739s1.88,1.941-0.827,2.23c-2.12,0.226-4.104-0.39-4.627-1.26
				c-0.524-0.874-6.479-9.075-7.589-10.085c-1.111-1.011-4.015-5.002-7.759-5.763C86.436,4.08,48.052,8.279,48.052,8.279
				L47.141,3.605z"/>
			<path fill="#28292C" d="M47.431,3.308c0,0,39.714-1.068,42.843-0.618c3.131,0.452,5.383,1.108,10.918,6.995
				c5.539,5.886,10.077,9.735,10.077,9.735s1.877,1.944-0.827,2.232c-2.123,0.228-4.104-0.39-4.627-1.262
				c-0.523-0.872-6.48-9.074-7.591-10.083c-1.111-1.015-4.015-5.004-7.756-5.764C86.725,3.783,48.34,7.983,48.34,7.983L47.431,3.308
				z"/>
		</g>
		<g>
			<path fill="#28292C" d="M116.152,2.769c0,0-39.729-0.105-42.846,0.42c-3.117,0.528-5.356,1.237-10.748,7.256
				c-5.393,6.021-9.834,9.979-9.834,9.979s-1.831,1.987,0.88,2.209c2.126,0.174,4.095-0.49,4.596-1.375
				c0.501-0.884,6.257-9.226,7.342-10.264c1.085-1.038,3.89-5.1,7.615-5.95c3.723-0.85,42.197,2.417,42.197,2.417L116.152,2.769z"/>
			<path fill="#28292C" d="M115.855,2.479c0,0-39.73-0.104-42.847,0.42c-3.117,0.526-5.354,1.238-10.747,7.258
				c-5.394,6.019-9.834,9.977-9.834,9.977s-1.831,1.987,0.88,2.209c2.126,0.178,4.094-0.488,4.596-1.372
				c0.503-0.885,6.258-9.227,7.342-10.265c1.088-1.039,3.893-5.099,7.617-5.949c3.722-0.852,42.195,2.417,42.195,2.417
				L115.855,2.479z"/>
		</g>
		<path fill="#28292C" d="M116.278,2.645c0,0-9.141-1.256-16.7-0.725c-5.574,0.392-6.869,1.061-9.247,2.113
			c-1.878,0.832-4.555,2.69-6.697,3.108c-0.802,0.155-1.362,0.212-1.765,0.229c-0.403-0.006-0.96-0.052-1.765-0.187
			c-2.153-0.365-4.876-2.159-6.773-2.944c-2.403-0.995-3.712-1.632-9.294-1.888c-7.57-0.349-16.678,1.13-16.678,1.13
			c-0.487,0.103-0.327,1.125-0.327,1.125s0.053,2.317,0.06,2.904c0.007,0.584,0.733,0.895,2.491,2.167
			c1.721,1.247,1.836,6.638,4.126,10.223c2.288,3.584,7.529,5.129,11.727,5.079c4.194-0.052,7.933-1.658,9.709-4.167
			c1.534-2.167,3.387-6.756,4.197-8.008c0.578-0.889,1.734-1.295,2.58-1.307c0.844-0.009,2.012,0.372,2.609,1.245
			c0.84,1.229,2.805,5.773,4.391,7.902c1.836,2.467,5.61,3.982,9.808,3.932c4.197-0.051,9.398-1.723,11.6-5.363
			c2.2-3.637,2.185-9.031,3.878-10.32c1.727-1.314,2.446-1.641,2.437-2.226c-0.005-0.586-0.009-2.904-0.009-2.904
			S116.769,2.737,116.278,2.645z M72.078,21.531c-3.279,2.734-10.43,2.039-13.755,0.51c-3.927-1.808-5.112-6.968-5.789-10.423
			c-0.675-3.458,0.744-5.972,3.529-6.682c3.018-0.769,7.215-0.723,7.215-0.723c1.804,0.028,3.855,0.099,6.892,0.894
			c6.064,1.583,6.267,5.586,6.285,7.098C76.473,13.718,75.703,18.51,72.078,21.531z M111.303,10.903
			c-0.593,3.474-1.652,8.66-5.533,10.561c-3.287,1.611-10.423,2.479-13.765-0.174c-3.696-2.933-4.585-7.706-4.604-9.218
			c-0.019-1.512,0.087-5.518,6.111-7.249c3.016-0.866,5.063-0.99,6.869-1.059c0,0,4.194-0.148,7.23,0.546
			C110.415,4.954,111.895,7.432,111.303,10.903z"/>
		<path opacity="0.3" fill="#E5E8EC" d="M71.954,21.289c-3.277,2.734-10.433,2.038-13.757,0.509
			c-3.927-1.808-5.112-6.967-5.788-10.423c-0.675-3.458,0.744-5.971,3.53-6.681c3.015-0.769,7.215-0.722,7.215-0.722
			c1.806,0.026,3.855,0.1,6.892,0.894c6.063,1.583,6.267,5.584,6.285,7.096C76.351,13.476,75.577,18.267,71.954,21.289z"/>
		<path opacity="0.3" fill="#E5E8EC" d="M111.179,10.662c-0.593,3.473-1.654,8.658-5.535,10.561
			c-3.287,1.609-10.421,2.477-13.764-0.177c-3.697-2.931-4.584-7.702-4.604-9.216c-0.017-1.513,0.087-5.518,6.113-7.249
			c3.014-0.866,5.063-0.989,6.868-1.059c0,0,4.195-0.149,7.23,0.546C110.29,4.71,111.769,7.189,111.179,10.662z"/>
	</g>
</g>
</svg>
