<?xml version="1.0" encoding="utf-8"?>
<!-- Generator: Adobe Illustrator 16.0.0, SVG Export Plug-In . SVG Version: 6.00 Build 0)  -->
<!DOCTYPE svg PUBLIC "-//W3C//DTD SVG 1.1//EN" "http://www.w3.org/Graphics/SVG/1.1/DTD/svg11.dtd">
<svg version="1.1" id="Layer_1" xmlns="http://www.w3.org/2000/svg" xmlns:xlink="http://www.w3.org/1999/xlink" x="0px" y="0px"
	 width="128px" height="128px" viewBox="0 0 128 128" enable-background="new 0 0 128 128" xml:space="preserve">
<g id="g3021">
	<path id="path2989" fill="none" stroke="#379AD6" stroke-width="2.4203" d="M124.75,64c0,33.551-27.199,60.75-60.75,60.75
		C30.449,124.75,3.25,97.551,3.25,64C3.25,30.449,30.449,3.25,64,3.25C97.551,3.25,124.75,30.449,124.75,64z"/>
</g>
<g>
	<g>
		<polygon fill="#151515" points="79.793,27.612 75.172,27.612 79.979,32.827 79.979,35.309 70.078,35.309 70.078,32.403 
			74.884,32.403 70.078,27.188 70.078,24.701 79.793,24.701 		"/>
		<polygon fill="#151515" points="68.117,27.612 63.496,27.612 68.302,32.827 68.302,35.309 58.401,35.309 58.401,32.403 
			63.207,32.403 58.401,27.188 58.401,24.701 68.117,24.701 		"/>
		<polygon fill="#151515" points="56.553,27.73 51.567,27.73 51.567,32.281 56.553,32.281 56.553,35.309 48.023,35.309 
			48.023,24.701 56.553,24.701 		"/>
	</g>
	<polygon fill="#1673B6" points="41.227,96.987 36.16,40.151 91.84,40.151 86.769,96.978 63.966,103.299 	"/>
	<polygon fill="#35A9DB" points="64,98.467 82.425,93.359 86.761,44.799 64,44.799 	"/>
	<g>
		<polygon fill="#FFFFFF" points="64,65.39 73.225,65.39 73.861,58.252 64,58.252 64,51.281 64.024,51.281 81.479,51.281 
			81.313,53.151 79.6,72.359 64,72.359 		"/>
		<polygon fill="#EBEBEB" points="64.042,83.493 64.012,83.502 56.248,81.404 55.752,75.846 51.98,75.846 48.755,75.846 
			49.731,86.791 64.01,90.754 64.042,90.745 		"/>
		<polygon fill="#FFFFFF" points="72.631,72.065 71.792,81.399 64.018,83.499 64.018,90.751 78.308,86.791 78.412,85.613 
			79.626,72.065 		"/>
		<polygon fill="#EBEBEB" points="64.024,51.281 64.024,55.611 64.024,58.235 64.024,58.252 47.209,58.252 47.209,58.252 
			47.187,58.252 47.048,56.686 46.729,53.151 46.563,51.281 		"/>
		<polygon fill="#EBEBEB" points="64,65.391 64,69.721 64,72.343 64,72.361 56.358,72.361 56.358,72.361 56.335,72.361 
			56.195,70.794 55.878,67.261 55.711,65.391 		"/>
	</g>
</g>
</svg>
