<?xml version="1.0" encoding="utf-8"?>
<!-- Generator: Adobe Illustrator 16.0.0, SVG Export Plug-In . SVG Version: 6.00 Build 0)  -->
<!DOCTYPE svg PUBLIC "-//W3C//DTD SVG 1.1//EN" "http://www.w3.org/Graphics/SVG/1.1/DTD/svg11.dtd">
<svg version="1.1" id="Layer_1" xmlns="http://www.w3.org/2000/svg" xmlns:xlink="http://www.w3.org/1999/xlink" x="0px" y="0px"
	 width="128px" height="128px" viewBox="0 0 128 128" enable-background="new 0 0 128 128" xml:space="preserve">
<g>
	<g>
		
			<linearGradient id="SVGID_1_" gradientUnits="userSpaceOnUse" x1="107.9375" y1="10.7661" x2="135.2744" y2="10.7661" gradientTransform="matrix(0.7134 -0.7007 0.7007 0.7134 -15.666 146.7722)">
			<stop  offset="0" style="stop-color:#561211"/>
			<stop  offset="1" style="stop-color:#EB2626"/>
		</linearGradient>
		<path fill="url(#SVGID_1_)" d="M71.339,83c0.038,0.101,0.075,0.206,0.113,0.308c0.002-0.015,0.004-0.032,0.004-0.047
			C71.457,83.172,71.415,83.083,71.339,83 M68.251,82.187c0.158,0.625,0.32,1.347,0.464,2.154c1.317-0.189,2.266-0.477,2.605-0.809
			c0.051-0.051,0.088-0.103,0.111-0.157c-0.74-0.364-1.511-0.677-2.308-0.933C68.837,82.349,68.544,82.265,68.251,82.187
			 M57.485,82.906c-0.063,0.073-0.096,0.148-0.098,0.228c-0.001,0.418,0.92,0.801,2.386,1.071c0.163-0.816,0.341-1.546,0.516-2.167
			l-0.501,0.108c-0.238,0.06-0.475,0.122-0.709,0.195C58.533,82.501,58.003,82.691,57.485,82.906"/>
		
			<linearGradient id="SVGID_2_" gradientUnits="userSpaceOnUse" x1="-233.895" y1="239.9443" x2="-232.9034" y2="239.9443" gradientTransform="matrix(0.1979 -22.0624 -22.0624 -0.1979 5404.1133 -5009.4546)">
			<stop  offset="0" style="stop-color:#F48020"/>
			<stop  offset="0.4784" style="stop-color:#EFB226"/>
			<stop  offset="1" style="stop-color:#ECE73B"/>
		</linearGradient>
		<path fill="url(#SVGID_2_)" d="M60.289,82.038c-0.174,0.621-0.353,1.351-0.516,2.167c-0.602,3.037-0.951,7.291,0.228,11.781
			l0.367-4.135c0,0-0.105,6.228,2.103,14.281l-0.175-5.829c0,0,1.7,11.054,1.692,11.916c0.008-0.862,1.905-11.884,1.905-11.884
			l-0.279,5.826c2.354-8.009,2.358-14.242,2.358-14.242l0.293,4.139c1.251-4.439,0.991-8.675,0.45-11.718
			c-0.144-0.808-0.306-1.529-0.464-2.154c-0.503-0.13-1.013-0.238-1.531-0.323c-0.035,0.165-0.071,0.332-0.108,0.494
			c-0.041,0.17-0.08,0.339-0.12,0.505c0.45,1.659,1.023,4.84,0.067,8.227l-0.168-2.39c0,0-0.002,3.595-1.358,8.215l0.161-3.361
			c0,0-1.096,6.356-1.101,6.854c0.005-0.497-0.976-6.871-0.976-6.871l0.103,3.363c-1.274-4.645-1.213-8.235-1.213-8.235
			l-0.213,2.381c-1.172-4.466,0.276-8.526,0.573-9.283c0.002-0.02,0.004-0.038,0.006-0.054c-0.37,0.033-0.734,0.079-1.096,0.135
			c-0.126,0.018-0.249,0.041-0.375,0.063L60.289,82.038"/>
		
			<linearGradient id="SVGID_3_" gradientUnits="userSpaceOnUse" x1="-233.3774" y1="240.0791" x2="-232.3857" y2="240.0791" gradientTransform="matrix(0.1495 -16.6686 -16.6686 -0.1495 4100.8579 -3763.1084)">
			<stop  offset="0" style="stop-color:#F48020"/>
			<stop  offset="0.4784" style="stop-color:#EFB226"/>
			<stop  offset="1" style="stop-color:#ECE73B"/>
		</linearGradient>
		<path fill="url(#SVGID_3_)" d="M62.367,81.761c-0.296,0.757-1.745,4.817-0.573,9.283l0.213-2.381c0,0-0.062,3.591,1.213,8.235
			l-0.103-3.363c0,0,0.98,6.374,0.976,6.871c0.005-0.497,1.101-6.854,1.101-6.854l-0.161,3.361c1.356-4.62,1.358-8.215,1.358-8.215
			l0.168,2.39c0.956-3.387,0.383-6.567-0.067-8.227c-0.09,0.384-0.179,0.756-0.264,1.114c-0.003,0.01-0.006,0.016-0.007,0.022
			c0.605,2.411,0.227,4.51,0.227,4.51c0.033-1.588-0.126-3.006-0.325-4.112c-0.09,0.36-0.177,0.707-0.258,1.033
			c-0.11,0.45-0.234,0.862-0.331,1.229c-0.099,0.364-0.188,0.684-0.27,0.946c-0.007,0.022-0.014,0.047-0.021,0.07
			c-0.115,0.534-0.259,1.11-0.434,1.71l0.045-0.958l-0.159-0.001c-0.221,1.299-0.523,3.117-0.525,3.334
			c0.003-0.341-0.663-4.671-0.663-4.671l0.069,2.285c-0.866-3.156-0.825-5.599-0.825-5.599l-0.143,1.62
			c-0.104-0.398-0.179-0.792-0.228-1.176c-0.231,1.122-0.432,2.592-0.427,4.25c0,0-0.367-2.252,0.375-4.749
			C62.276,83.02,62.301,82.357,62.367,81.761"/>
		
			<linearGradient id="SVGID_4_" gradientUnits="userSpaceOnUse" x1="-244.4976" y1="242.7441" x2="-243.5061" y2="242.7441" gradientTransform="matrix(-0.2221 3.8188 -3.8188 -0.2221 934.9489 1070.7046)">
			<stop  offset="0" style="stop-color:#F48020"/>
			<stop  offset="0.4784" style="stop-color:#EFB226"/>
			<stop  offset="1" style="stop-color:#ECE73B"/>
		</linearGradient>
		<path fill="url(#SVGID_4_)" d="M62.329,83.721c-0.742,2.497-0.375,4.749-0.375,4.749c-0.005-1.658,0.195-3.128,0.427-4.25
			C62.359,84.052,62.341,83.885,62.329,83.721"/>
		
			<linearGradient id="SVGID_5_" gradientUnits="userSpaceOnUse" x1="-244.7705" y1="237.2549" x2="-243.7783" y2="237.2549" gradientTransform="matrix(0.1536 3.8227 3.8227 -0.1536 -803.108 1055.2629)">
			<stop  offset="0" style="stop-color:#F48020"/>
			<stop  offset="0.4784" style="stop-color:#EFB226"/>
			<stop  offset="1" style="stop-color:#ECE73B"/>
		</linearGradient>
		<path fill="url(#SVGID_5_)" d="M66.221,83.999c-0.032,0.136-0.066,0.267-0.099,0.397c0.199,1.106,0.358,2.524,0.325,4.112
			C66.447,88.509,66.826,86.41,66.221,83.999"/>
		
			<linearGradient id="SVGID_6_" gradientUnits="userSpaceOnUse" x1="97.8936" y1="12.4805" x2="104.8981" y2="12.4805" gradientTransform="matrix(0.7134 -0.7007 0.7007 0.7134 -15.666 146.7722)">
			<stop  offset="0" style="stop-color:#ECE73B"/>
			<stop  offset="0.4804" style="stop-color:#EEED89"/>
			<stop  offset="1" style="stop-color:#F2F5D2"/>
		</linearGradient>
		<path fill="url(#SVGID_6_)" d="M65.242,87.675c-0.146,0.479-0.231,0.753-0.231,0.753l-0.157-0.001l-0.045,0.958
			C64.983,88.785,65.127,88.209,65.242,87.675 M62.373,81.707c-0.002,0.016-0.004,0.034-0.006,0.054
			c-0.065,0.597-0.09,1.259-0.038,1.96c0.012,0.164,0.03,0.331,0.052,0.499c0.048,0.384,0.123,0.777,0.228,1.176l0.143-1.62
			c0,0-0.041,2.442,0.825,5.599l-0.069-2.285c0,0,0.666,4.33,0.663,4.671c0.002-0.217,0.304-2.035,0.525-3.334l-0.312-0.004
			c0,0-0.086-0.301-0.238-0.829c-0.075-0.263-0.159-0.583-0.25-0.949c-0.092-0.367-0.206-0.783-0.308-1.233
			c-0.106-0.451-0.219-0.942-0.339-1.458c-0.112-0.519-0.231-1.063-0.354-1.629c-0.044-0.213-0.088-0.429-0.131-0.647
			C62.631,81.685,62.502,81.695,62.373,81.707"/>
		
			<linearGradient id="SVGID_7_" gradientUnits="userSpaceOnUse" x1="-240.4087" y1="236.8086" x2="-239.4172" y2="236.8086" gradientTransform="matrix(4.6763 4.7609 -4.7609 4.6763 2325.8396 113.9529)">
			<stop  offset="0" style="stop-color:#561211"/>
			<stop  offset="1" style="stop-color:#EB2626"/>
		</linearGradient>
		<path fill="url(#SVGID_7_)" d="M69.073,81.875c2.907,0.19,6.691,7.252,6.691,7.252c3.367-7.188,3.19-12.758,2.027-16.669
			c-1.353-4.554-4.042-6.859-4.042-6.859l-3.787,13.181L69.073,81.875z"/>
		
			<linearGradient id="SVGID_8_" gradientUnits="userSpaceOnUse" x1="-233.6553" y1="233.4629" x2="-232.6638" y2="233.4629" gradientTransform="matrix(-5.7846 -0.0519 -0.0519 5.7846 -1261.7184 -1287.2208)">
			<stop  offset="0" style="stop-color:#561211"/>
			<stop  offset="1" style="stop-color:#EB2626"/>
		</linearGradient>
		<path fill="url(#SVGID_8_)" d="M69.964,78.78c2.546,1.505,5.245,6.342,5.245,6.342c2.482-5.098,2.979-9.324,2.583-12.663
			c-1.353-4.555-4.043-6.858-4.043-6.858L69.964,78.78z"/>
		
			<linearGradient id="SVGID_9_" gradientUnits="userSpaceOnUse" x1="-236.2769" y1="242.1348" x2="-235.2861" y2="242.1348" gradientTransform="matrix(13.3104 0.1194 0.1194 -13.3104 3174.6448 3325.2412)">
			<stop  offset="0" style="stop-color:#561211"/>
			<stop  offset="1" style="stop-color:#EB2626"/>
		</linearGradient>
		<path fill="url(#SVGID_9_)" d="M73.642,65.599c0,0,6.848,5.873,1.483,17.325c0,0-2.786-5.2-4.926-5.34L73.642,65.599z"/>
		
			<linearGradient id="SVGID_10_" gradientUnits="userSpaceOnUse" x1="-238.2466" y1="234.5918" x2="-237.2549" y2="234.5918" gradientTransform="matrix(-4.7611 4.6764 4.6764 4.7611 -2176.6331 73.8555)">
			<stop  offset="0" style="stop-color:#561211"/>
			<stop  offset="1" style="stop-color:#EB2626"/>
		</linearGradient>
		<path fill="url(#SVGID_10_)" d="M59.787,81.794c-2.908,0.136-6.819,7.131-6.819,7.131c-3.237-7.248-2.961-12.813-1.727-16.706
			c1.432-4.527,4.164-6.784,4.164-6.784l3.549,13.247L59.787,81.794z"/>
		
			<linearGradient id="SVGID_11_" gradientUnits="userSpaceOnUse" x1="-236.752" y1="243.9541" x2="-235.7603" y2="243.9541" gradientTransform="matrix(7.9811 0.0716 0.0716 -7.9811 1923.1479 2039.1201)">
			<stop  offset="0" style="stop-color:#F6A8AC"/>
			<stop  offset="0.7773" style="stop-color:#EF4C3C"/>
			<stop  offset="1" style="stop-color:#EB2626"/>
		</linearGradient>
		<path fill="url(#SVGID_11_)" d="M58.954,78.682c-2.573,1.455-5.359,6.246-5.359,6.246c-2.391-5.142-2.813-9.375-2.355-12.706
			c1.433-4.53,4.165-6.786,4.165-6.786L58.954,78.682z"/>
		
			<linearGradient id="SVGID_12_" gradientUnits="userSpaceOnUse" x1="-236.2979" y1="242.3789" x2="-235.3065" y2="242.3789" gradientTransform="matrix(12.3737 0.111 0.111 -12.3737 2955.6191 3099.4751)">
			<stop  offset="0" style="stop-color:#561211"/>
			<stop  offset="1" style="stop-color:#EB2626"/>
		</linearGradient>
		<path fill="url(#SVGID_12_)" d="M55.512,65.438c0,0-6.952,5.748-1.794,17.295c0,0,2.88-5.148,5.021-5.251L55.512,65.438z"/>
		
			<linearGradient id="SVGID_13_" gradientUnits="userSpaceOnUse" x1="111.6201" y1="-7.2764" x2="132.9227" y2="-7.2764" gradientTransform="matrix(0.7134 -0.7007 0.7007 0.7134 -15.666 146.7722)">
			<stop  offset="0" style="stop-color:#561211"/>
			<stop  offset="1" style="stop-color:#EB2626"/>
		</linearGradient>
		<path fill="url(#SVGID_13_)" d="M67.211,80.098C67.211,80.099,67.211,80.099,67.211,80.098c0.657,0.127,1.301,0.295,1.93,0.494
			c0.143,0.046,0.283,0.096,0.425,0.143l0,0c-0.141-0.049-0.282-0.097-0.426-0.144C68.512,80.391,67.869,80.225,67.211,80.098
			 M59.228,80.452L59.228,80.452c0.191-0.054,0.383-0.107,0.577-0.153l1.014-0.222c-0.001,0-0.001,0-0.001,0l-1.013,0.219
			C59.611,80.345,59.419,80.397,59.228,80.452 M63.859,30.589c-2.668,2.622-9.556,10.766-9.683,25.105
			c-0.099,11.07,2.642,19.366,4.73,24.051c0.133-0.257,0.268-0.508,0.403-0.75c0.17-0.307,0.342-0.602,0.513-0.887
			c-1.822-3.921-4.781-12.041-4.68-23.314c0.125-13.781,6.724-21.305,8.73-23.276c0.36-0.356,0.572-0.529,0.572-0.529
			s9.025,7.709,8.881,23.967c-0.001,0.025-0.002,0.049-0.002,0.074c0,0.018,0,0.039,0,0.058c-0.01,1.042-0.047,2.052-0.107,3.033
			c-0.535,8.899-2.888,15.493-4.593,19.212c-0.008,0.019-0.017,0.033-0.022,0.051c0.039,0.065,0.081,0.13,0.12,0.197
			c0.423,0.692,0.849,1.454,1.263,2.284c2.173-4.644,5.074-12.896,5.175-23.983c0.159-17.792-10.26-26.233-10.26-26.233
			S64.502,29.958,63.859,30.589"/>
		
			<linearGradient id="SVGID_14_" gradientUnits="userSpaceOnUse" x1="108.5313" y1="-7.9922" x2="119.6502" y2="-7.9922" gradientTransform="matrix(0.7134 -0.7007 0.7007 0.7134 -15.666 146.7722)">
			<stop  offset="0" style="stop-color:#561211"/>
			<stop  offset="1" style="stop-color:#EB2626"/>
		</linearGradient>
		<path fill="url(#SVGID_14_)" d="M67.079,80.073C67.079,80.073,67.077,80.073,67.079,80.073c0.043,0.01,0.087,0.016,0.132,0.025
			c0,0,0,0,0-0.001C67.167,80.089,67.122,80.082,67.079,80.073 M60.818,80.077c0,0,0,0,0.001,0l0.101-0.021
			c0.124-0.021,0.249-0.044,0.372-0.063c0.378-0.058,0.758-0.104,1.145-0.138l0,0c-0.387,0.03-0.765,0.078-1.143,0.137
			c-0.125,0.021-0.249,0.04-0.373,0.063L60.818,80.077 M73.216,58.121c-0.581,9.313-3.318,15.867-4.857,18.882
			c0.08,0.124,0.161,0.25,0.242,0.381c0.006-0.018,0.015-0.032,0.022-0.051C70.328,73.614,72.681,67.021,73.216,58.121
			 M63.872,31.519c-2.006,1.971-8.605,9.495-8.73,23.276C55.042,66.067,58,74.188,59.822,78.108c0.368-0.608,0.734-1.17,1.09-1.677
			c-1.675-3.597-4.416-11.086-4.323-21.493c0.113-12.685,6.187-19.608,8.036-21.422c0.331-0.326,0.525-0.488,0.525-0.488
			s8.286,7.078,8.173,22.001c0-0.025,0.001-0.049,0.002-0.074c0.145-16.258-8.881-23.967-8.881-23.967S64.232,31.163,63.872,31.519"
			/>
		
			<linearGradient id="SVGID_15_" gradientUnits="userSpaceOnUse" x1="104.5059" y1="-7.7178" x2="132.7648" y2="-7.7178" gradientTransform="matrix(0.7134 -0.7007 0.7007 0.7134 -15.666 146.7722)">
			<stop  offset="0" style="stop-color:#561211"/>
			<stop  offset="1" style="stop-color:#EB2626"/>
		</linearGradient>
		<path fill="url(#SVGID_15_)" d="M68.094,60.301c-0.799,0.785-1.896,1.265-3.104,1.255c-1.725-0.017-3.204-1.027-3.904-2.482
			c-0.28-0.585-0.438-1.243-0.432-1.94c0.012-1.21,0.512-2.299,1.312-3.086c0.799-0.785,1.895-1.265,3.104-1.254
			c1.578,0.015,2.955,0.863,3.715,2.124c0.4,0.67,0.63,1.455,0.623,2.296C69.396,58.424,68.895,59.515,68.094,60.301 M64.625,33.517
			c-1.849,1.814-7.922,8.737-8.036,21.422c-0.093,10.407,2.648,17.896,4.323,21.493c0.218-0.312,0.431-0.605,0.64-0.878
			c-0.009-0.104-0.016-0.203-0.017-0.305c-0.005-0.278,0.017-0.554,0.058-0.822c-0.082-0.167-0.169-0.359-0.255-0.57
			c-0.195-0.502-0.479-1.102-0.709-1.817c-0.227-0.716-0.548-1.514-0.762-2.418c-0.118-0.448-0.241-0.917-0.369-1.401
			c-0.062-0.243-0.125-0.488-0.188-0.741c-0.049-0.253-0.1-0.512-0.15-0.772c-0.099-0.524-0.198-1.062-0.304-1.612
			c-0.106-0.55-0.21-1.113-0.26-1.694c-0.117-1.155-0.291-2.347-0.369-3.566c-0.038-1.222-0.077-2.462-0.114-3.703l-0.009-0.464
			c0.001-0.195,0.011-0.318,0.017-0.481l0.038-0.918l0.037-0.912c0.026-0.311,0.054-0.622,0.08-0.93
			c0.056-0.617,0.102-1.234,0.208-1.827c0.101-0.596,0.165-1.186,0.292-1.76c0.127-0.571,0.216-1.143,0.367-1.686
			c0.153-0.544,0.283-1.08,0.442-1.592c0.172-0.509,0.315-1.011,0.494-1.483c0.19-0.47,0.355-0.928,0.545-1.355
			c0.368-0.86,0.753-1.628,1.13-2.287c0.368-0.662,0.731-1.215,1.049-1.656c0.307-0.446,0.594-0.767,0.779-0.987
			c0.185-0.21,0.293-0.317,0.301-0.326l0,0c0,0-0.084,0.129-0.226,0.377c-0.143,0.25-0.338,0.625-0.568,1.104
			c-0.235,0.479-0.488,1.077-0.762,1.763c-0.271,0.686-0.536,1.476-0.807,2.339c-0.261,0.868-0.5,1.819-0.733,2.826
			c-0.216,1.012-0.4,2.087-0.563,3.204c-0.157,1.115-0.265,2.282-0.342,3.448c-0.022,0.293-0.044,0.585-0.065,0.88l-0.025,0.914
			l-0.023,0.917c0,0.143-0.009,0.326-0.007,0.438l0.014,0.454c0.018,1.211,0.038,2.423,0.056,3.615
			c0.074,1.188,0.147,2.359,0.219,3.495c0.02,0.568,0.109,1.12,0.162,1.664c0.059,0.543,0.116,1.076,0.172,1.595
			c0.027,0.261,0.056,0.515,0.085,0.768c0.04,0.249,0.078,0.496,0.117,0.738c0.073,0.486,0.143,0.956,0.21,1.408
			c0.035,0.227,0.068,0.446,0.102,0.663c0.042,0.213,0.083,0.423,0.125,0.626c0.077,0.409,0.15,0.797,0.219,1.163
			c0.132,0.734,0.301,1.359,0.41,1.885c0.014,0.059,0.028,0.114,0.042,0.171c0.023-0.102,0.05-0.199,0.077-0.298
			c0.143-0.516,0.333-1.003,0.548-1.452c0.419-0.897,0.956-1.642,1.413-2.166c0.174-0.192,0.328-0.356,0.458-0.485
			c0.044-0.043,0.087-0.084,0.125-0.119c0.149-0.14,0.241-0.214,0.241-0.214l0.629,0.006c0,0,0.094,0.076,0.238,0.217
			c0.15,0.144,0.345,0.353,0.573,0.616c0.448,0.529,0.971,1.286,1.376,2.192c0.18,0.4,0.344,0.83,0.471,1.284
			c0.067-0.19,0.149-0.429,0.255-0.706c0.128-0.393,0.28-0.865,0.455-1.41c0.153-0.55,0.324-1.171,0.513-1.848
			c0.188-0.675,0.329-1.428,0.523-2.205c0.207-0.775,0.311-1.621,0.486-2.479c0.079-0.429,0.159-0.867,0.239-1.309
			c0.059-0.449,0.115-0.901,0.173-1.357c0.06-0.456,0.121-0.913,0.181-1.375c0.067-0.461,0.128-0.921,0.146-1.39
			c0.07-0.932,0.144-1.863,0.212-2.779c0.018-0.225,0.032-0.446,0.05-0.667c0.002-0.229,0.004-0.459,0.007-0.685
			c0.004-0.455,0.009-0.902,0.014-1.342c0.007-0.443,0.011-0.875,0.016-1.3c-0.009-0.42-0.05-0.824-0.072-1.223
			c-0.025-0.398-0.05-0.786-0.073-1.161c-0.025-0.375-0.025-0.74-0.09-1.085c-0.104-0.691-0.185-1.332-0.254-1.898
			c-0.031-0.286-0.072-0.549-0.132-0.789c-0.053-0.243-0.1-0.465-0.143-0.665c-0.17-0.803-0.257-1.271-0.257-1.271
			s0.163,0.441,0.429,1.224c0.063,0.197,0.136,0.414,0.215,0.651c0.087,0.236,0.157,0.497,0.22,0.778
			c0.135,0.56,0.288,1.193,0.439,1.891c0.155,0.697,0.216,1.47,0.323,2.285c0.05,0.406,0.112,0.828,0.146,1.255
			c0.013,0.425,0.024,0.858,0.034,1.299c0.012,0.441,0.021,0.889,0.034,1.344c0.003,0.227,0.009,0.455,0.015,0.685
			c-0.009,0.27-0.028,0.472-0.043,0.714c-0.06,0.93-0.122,1.877-0.184,2.824c-0.024,0.474-0.092,0.945-0.162,1.41
			c-0.068,0.468-0.134,0.936-0.201,1.397c-0.07,0.461-0.139,0.919-0.207,1.372c-0.098,0.445-0.194,0.888-0.29,1.322
			c-0.197,0.869-0.359,1.713-0.613,2.488c-0.235,0.78-0.436,1.524-0.685,2.191c-0.244,0.667-0.469,1.277-0.691,1.812
			c-0.236,0.524-0.438,0.982-0.607,1.36c-0.154,0.313-0.29,0.562-0.39,0.749c0.008,0.021,0.014,0.045,0.019,0.066
			c0.138,0.52,0.226,1.063,0.204,1.628c-0.012,0.347-0.071,0.699-0.158,1.055c0.141,0.205,0.281,0.419,0.422,0.64
			c1.539-3.015,4.276-9.568,4.857-18.882c0.061-0.98,0.098-1.991,0.107-3.033c0-0.019,0-0.04,0-0.058
			c0.113-14.924-8.173-22.001-8.173-22.001S64.956,33.19,64.625,33.517"/>
		
			<linearGradient id="SVGID_16_" gradientUnits="userSpaceOnUse" x1="-236.2441" y1="241.9043" x2="-235.252" y2="241.9043" gradientTransform="matrix(14.2559 0.1279 0.1279 -14.2559 3393.7908 3535.8721)">
			<stop  offset="0" style="stop-color:#442221"/>
			<stop  offset="1" style="stop-color:#8F2C2C"/>
		</linearGradient>
		<path fill="url(#SVGID_16_)" d="M61.965,54.048c-0.8,0.787-1.3,1.875-1.312,3.086c-0.005,0.697,0.152,1.354,0.432,1.94
			c0.7,1.455,2.18,2.466,3.904,2.482c1.209,0.01,2.306-0.47,3.104-1.255c0.801-0.786,1.302-1.876,1.313-3.088
			c0.007-0.841-0.223-1.626-0.623-2.296c-0.76-1.261-2.137-2.109-3.715-2.124C63.86,52.783,62.764,53.263,61.965,54.048"/>
		
			<radialGradient id="SVGID_17_" cx="-236.0547" cy="241.4102" r="0.9921" gradientTransform="matrix(18.4438 0.1655 0.1656 -18.4641 4377.6797 4552.0513)" gradientUnits="userSpaceOnUse">
			<stop  offset="0" style="stop-color:#F6A8AC"/>
			<stop  offset="0.7773" style="stop-color:#EF4C3C"/>
			<stop  offset="1" style="stop-color:#EB2626"/>
		</radialGradient>
		<path fill="url(#SVGID_17_)" d="M63.882,37.467c-0.007,0.008-0.116,0.116-0.301,0.326c-0.185,0.22-0.472,0.541-0.779,0.987
			c-0.318,0.44-0.682,0.994-1.049,1.656c-0.377,0.659-0.762,1.427-1.13,2.287c-0.19,0.427-0.355,0.885-0.545,1.355
			c-0.179,0.472-0.322,0.974-0.494,1.483c-0.159,0.513-0.289,1.048-0.442,1.592c-0.151,0.543-0.24,1.115-0.367,1.686
			c-0.127,0.574-0.191,1.164-0.292,1.76c-0.106,0.593-0.153,1.209-0.208,1.827c-0.026,0.308-0.054,0.619-0.08,0.93l-0.037,0.912
			l-0.038,0.918c-0.006,0.163-0.015,0.286-0.017,0.481l0.009,0.464c0.037,1.241,0.076,2.481,0.114,3.703
			c0.078,1.219,0.252,2.412,0.369,3.566c0.05,0.581,0.154,1.145,0.26,1.694c0.105,0.551,0.205,1.088,0.304,1.612
			c0.051,0.261,0.101,0.52,0.15,0.772c0.062,0.253,0.126,0.498,0.188,0.741c0.128,0.484,0.251,0.953,0.369,1.401
			c0.214,0.904,0.535,1.702,0.762,2.418c0.23,0.716,0.515,1.315,0.709,1.817c0.086,0.211,0.173,0.403,0.255,0.57
			c0.025-0.172,0.058-0.339,0.099-0.503c-0.015-0.057-0.028-0.112-0.042-0.171c-0.109-0.525-0.278-1.15-0.41-1.885
			c-0.069-0.366-0.143-0.754-0.219-1.163c-0.041-0.203-0.083-0.413-0.125-0.626c-0.034-0.217-0.067-0.437-0.102-0.663
			c-0.067-0.452-0.137-0.922-0.21-1.408c-0.04-0.242-0.077-0.489-0.117-0.738c-0.029-0.253-0.059-0.507-0.085-0.768
			c-0.057-0.519-0.113-1.052-0.172-1.595c-0.052-0.544-0.142-1.096-0.162-1.664c-0.071-1.136-0.145-2.307-0.219-3.495
			c-0.018-1.192-0.038-2.404-0.056-3.615l-0.014-0.454c-0.002-0.112,0.007-0.296,0.007-0.438l0.023-0.917l0.025-0.914
			c0.021-0.295,0.043-0.587,0.065-0.88c0.077-1.167,0.185-2.333,0.342-3.448c0.163-1.116,0.347-2.192,0.563-3.204
			c0.233-1.007,0.472-1.958,0.733-2.826c0.271-0.863,0.536-1.653,0.807-2.339c0.274-0.687,0.526-1.284,0.762-1.763
			c0.23-0.48,0.426-0.855,0.568-1.104C63.797,37.596,63.882,37.467,63.882,37.467L63.882,37.467"/>
		
			<linearGradient id="SVGID_18_" gradientUnits="userSpaceOnUse" x1="-237.2866" y1="238.9756" x2="-236.2949" y2="238.9756" gradientTransform="matrix(-0.1788 19.9284 19.9284 0.1788 -4734.7817 4733.2217)">
			<stop  offset="0" style="stop-color:#FBDDDF"/>
			<stop  offset="0.0408" style="stop-color:#FBDBDB"/>
			<stop  offset="0.7607" style="stop-color:#F59BA0"/>
			<stop  offset="1" style="stop-color:#F59BA0"/>
		</linearGradient>
		<path fill="url(#SVGID_18_)" d="M70.09,44.563c0,0,0.087,0.468,0.257,1.271c0.043,0.2,0.09,0.421,0.143,0.665
			c0.06,0.24,0.101,0.503,0.132,0.789c0.069,0.566,0.149,1.207,0.254,1.898c0.064,0.345,0.064,0.709,0.09,1.085
			c0.023,0.375,0.048,0.763,0.073,1.161c0.022,0.398,0.063,0.802,0.072,1.223c-0.005,0.425-0.009,0.857-0.016,1.3
			c-0.005,0.44-0.01,0.888-0.014,1.342c-0.003,0.226-0.005,0.456-0.007,0.685c-0.018,0.221-0.032,0.442-0.05,0.667
			c-0.068,0.916-0.142,1.847-0.212,2.779c-0.018,0.468-0.078,0.929-0.146,1.39c-0.06,0.462-0.121,0.919-0.181,1.375
			c-0.058,0.456-0.114,0.908-0.173,1.357c-0.08,0.442-0.16,0.88-0.239,1.309c-0.176,0.857-0.279,1.703-0.486,2.479
			c-0.194,0.777-0.335,1.53-0.523,2.205c-0.188,0.677-0.359,1.298-0.513,1.848c-0.175,0.545-0.327,1.018-0.455,1.41
			c-0.105,0.277-0.188,0.516-0.255,0.706c0.011,0.036,0.021,0.071,0.03,0.109c0.1-0.188,0.235-0.437,0.39-0.749
			c0.169-0.378,0.371-0.836,0.607-1.36c0.223-0.534,0.447-1.145,0.691-1.812c0.249-0.667,0.449-1.411,0.685-2.191
			c0.254-0.775,0.416-1.619,0.613-2.488c0.096-0.434,0.192-0.877,0.29-1.322c0.068-0.453,0.137-0.911,0.207-1.372
			c0.067-0.462,0.133-0.929,0.201-1.397c0.07-0.465,0.138-0.936,0.162-1.41c0.062-0.947,0.124-1.894,0.184-2.824
			c0.015-0.242,0.034-0.445,0.043-0.714c-0.006-0.23-0.012-0.458-0.015-0.685c-0.013-0.455-0.022-0.902-0.034-1.344
			c-0.01-0.44-0.021-0.874-0.034-1.299c-0.034-0.428-0.097-0.849-0.146-1.255c-0.107-0.815-0.168-1.588-0.323-2.285
			c-0.151-0.698-0.305-1.331-0.439-1.891c-0.063-0.282-0.133-0.542-0.22-0.778c-0.079-0.237-0.151-0.455-0.215-0.651
			C70.253,45.004,70.09,44.563,70.09,44.563"/>
		
			<radialGradient id="SVGID_19_" cx="-236.0327" cy="241.4102" r="0.9875" gradientTransform="matrix(18.4414 0.1654 0.1656 -18.4617 4376.7251 4551.4121)" gradientUnits="userSpaceOnUse">
			<stop  offset="0" style="stop-color:#F6A8AC"/>
			<stop  offset="0.7773" style="stop-color:#EF4C3C"/>
			<stop  offset="1" style="stop-color:#EB2626"/>
		</radialGradient>
		<path fill="url(#SVGID_19_)" d="M69.052,54.045c-0.914-1.276-2.395-2.111-4.084-2.126c-2.805-0.025-5.105,2.231-5.13,5.046
			c-0.026,2.674,2.028,4.898,4.658,5.115c-0.13,0.008-0.25,0.012-0.375,0.012h-0.054l0.112,0.009
			c-0.131,0.008-0.256,0.013-0.387,0.012c-3.148-0.029-5.681-2.609-5.653-5.76c0.029-3.151,2.606-5.687,5.755-5.658
			c2.184,0.02,4.066,1.267,5.012,3.074l-0.035-0.042C68.934,53.827,68.994,53.933,69.052,54.045z"/>
		
			<linearGradient id="SVGID_20_" gradientUnits="userSpaceOnUse" x1="-239.9189" y1="241.8936" x2="-238.9277" y2="241.8936" gradientTransform="matrix(5.0811 5.1731 5.1731 -5.0811 29.7682 2524.3667)">
			<stop  offset="0" style="stop-color:#B5E2EE"/>
			<stop  offset="0.2393" style="stop-color:#B5E2EE"/>
			<stop  offset="1" style="stop-color:#E8F5F7"/>
		</linearGradient>
		<path fill="url(#SVGID_20_)" d="M68.459,56.809c-0.017,2.114-1.744,3.811-3.855,3.793c-1.504-0.016-2.795-0.896-3.408-2.167
			c-0.246-0.514-0.383-1.087-0.376-1.695c0.018-2.111,1.744-3.808,3.853-3.789c1.379,0.012,2.579,0.753,3.243,1.855
			C68.267,55.39,68.467,56.076,68.459,56.809z"/>
		
			<linearGradient id="SVGID_21_" gradientUnits="userSpaceOnUse" x1="-236.8779" y1="244.374" x2="-235.8862" y2="244.374" gradientTransform="matrix(7.3107 0.0656 0.0656 -7.3107 1776.913 1859.7471)">
			<stop  offset="0" style="stop-color:#E8F5F7"/>
			<stop  offset="0.7607" style="stop-color:#B5E2EE"/>
			<stop  offset="1" style="stop-color:#B5E2EE"/>
		</linearGradient>
		<path fill="url(#SVGID_21_)" d="M68.459,56.809c-0.017,2.114-1.744,3.811-3.855,3.793c-1.504-0.016-2.795-0.896-3.408-2.167
			c0.296-1.103,1.146-2.747,3.597-2.724c1.256,0.01,2.297-0.341,3.123-0.905C68.267,55.39,68.467,56.076,68.459,56.809z"/>
		
			<linearGradient id="SVGID_22_" gradientUnits="userSpaceOnUse" x1="-237.3975" y1="245.7754" x2="-236.4056" y2="245.7754" gradientTransform="matrix(5.6464 0.0507 0.0507 -5.6464 1389.6683 1453.5696)">
			<stop  offset="0" style="stop-color:#561211"/>
			<stop  offset="1" style="stop-color:#EB2626"/>
		</linearGradient>
		<circle fill="url(#SVGID_22_)" cx="62.523" cy="53.795" r="0.838"/>
		
			<linearGradient id="SVGID_23_" gradientUnits="userSpaceOnUse" x1="-240.3306" y1="236.8711" x2="-239.3388" y2="236.8711" gradientTransform="matrix(4.6749 4.7595 -4.7595 4.6749 2324.4109 113.9695)">
			<stop  offset="0" style="stop-color:#080808"/>
			<stop  offset="0.9613" style="stop-color:#69605E"/>
			<stop  offset="1" style="stop-color:#6C6461"/>
		</linearGradient>
		<path fill="url(#SVGID_23_)" d="M77.792,72.459c0.398,3.338-0.101,7.565-2.583,12.661c0,0-2.427-4.348-4.849-6.078
			c-0.416,0.938-0.816,1.756-1.173,2.442l-0.113,0.392c2.905,0.19,6.69,7.253,6.69,7.253C79.132,81.939,78.955,76.369,77.792,72.459
			z"/>
		
			<linearGradient id="SVGID_24_" gradientUnits="userSpaceOnUse" x1="-240.4106" y1="236.8066" x2="-239.419" y2="236.8066" gradientTransform="matrix(4.6764 4.7611 -4.7611 4.6764 2326.7698 113.1524)">
			<stop  offset="0" style="stop-color:#080808"/>
			<stop  offset="0.9613" style="stop-color:#69605E"/>
			<stop  offset="1" style="stop-color:#6C6461"/>
		</linearGradient>
		<path fill="url(#SVGID_24_)" d="M75.125,82.924c0,0-2.228-4.155-4.229-5.134c-0.181,0.438-0.36,0.856-0.537,1.251
			c2.424,1.731,4.851,6.079,4.851,6.079c2.482-5.098,2.979-9.323,2.583-12.662c-0.997-3.35-2.714-5.481-3.553-6.375l-0.019,0.113
			C75.751,67.952,79.503,73.581,75.125,82.924z"/>
		
			<linearGradient id="SVGID_25_" gradientUnits="userSpaceOnUse" x1="-233.7319" y1="233.3457" x2="-232.7401" y2="233.3457" gradientTransform="matrix(-5.7859 -0.0519 -0.0519 5.7859 -1262.4822 -1286.6211)">
			<stop  offset="0" style="stop-color:#080808"/>
			<stop  offset="0.9613" style="stop-color:#69605E"/>
			<stop  offset="1" style="stop-color:#6C6461"/>
		</linearGradient>
		<path fill="url(#SVGID_25_)" d="M75.125,82.924c0,0-2.228-4.155-4.229-5.134c-0.181,0.438-0.36,0.856-0.537,1.251
			c2.424,1.731,4.851,6.079,4.851,6.079c2.482-5.098,2.979-9.323,2.583-12.662c-0.997-3.35-2.714-5.481-3.553-6.375l-0.019,0.113
			C75.751,67.952,79.503,73.581,75.125,82.924z"/>
		
			<linearGradient id="SVGID_26_" gradientUnits="userSpaceOnUse" x1="-240.4116" y1="236.9004" x2="-239.4204" y2="236.9004" gradientTransform="matrix(4.6766 4.7612 -4.7612 4.6766 2327.7927 112.2111)">
			<stop  offset="0" style="stop-color:#080808"/>
			<stop  offset="0.9613" style="stop-color:#69605E"/>
			<stop  offset="1" style="stop-color:#6C6461"/>
		</linearGradient>
		<path fill="url(#SVGID_26_)" d="M75.125,82.924c4.376-9.343,0.625-14.972-0.904-16.728c-0.841,4.752-2.116,8.655-3.325,11.594
			C72.897,78.769,75.125,82.924,75.125,82.924z"/>
		
			<linearGradient id="SVGID_27_" gradientUnits="userSpaceOnUse" x1="-233.6455" y1="233.4453" x2="-232.654" y2="233.4453" gradientTransform="matrix(-5.7857 -0.0519 -0.0519 5.7857 -1261.9209 -1288.1785)">
			<stop  offset="0" style="stop-color:#080808"/>
			<stop  offset="0.9613" style="stop-color:#69605E"/>
			<stop  offset="1" style="stop-color:#6C6461"/>
		</linearGradient>
		<path fill="url(#SVGID_27_)" d="M75.125,82.924c4.376-9.343,0.625-14.972-0.904-16.728c-0.841,4.752-2.116,8.655-3.325,11.594
			C72.897,78.769,75.125,82.924,75.125,82.924z"/>
		
			<linearGradient id="SVGID_28_" gradientUnits="userSpaceOnUse" x1="-236.2715" y1="242.1074" x2="-235.2797" y2="242.1074" gradientTransform="matrix(13.3132 0.1194 0.1194 -13.3132 3175.2222 3325.8591)">
			<stop  offset="0" style="stop-color:#080808"/>
			<stop  offset="0.9613" style="stop-color:#69605E"/>
			<stop  offset="1" style="stop-color:#6C6461"/>
		</linearGradient>
		<path fill="url(#SVGID_28_)" d="M75.125,82.924c4.376-9.343,0.625-14.972-0.904-16.728c-0.841,4.752-2.116,8.655-3.325,11.594
			C72.897,78.769,75.125,82.924,75.125,82.924z"/>
		
			<linearGradient id="SVGID_29_" gradientUnits="userSpaceOnUse" x1="-238.2153" y1="234.7266" x2="-237.2239" y2="234.7266" gradientTransform="matrix(-4.7597 4.675 4.675 4.7597 -2175.7463 73.7275)">
			<stop  offset="0" style="stop-color:#080808"/>
			<stop  offset="0.9613" style="stop-color:#69605E"/>
			<stop  offset="1" style="stop-color:#6C6461"/>
		</linearGradient>
		<path fill="url(#SVGID_29_)" d="M53.597,84.928c-2.393-5.142-2.814-9.377-2.357-12.706c-1.234,3.891-1.509,9.455,1.728,16.703
			c0,0,3.911-6.995,6.82-7.131l-0.107-0.398c-0.345-0.694-0.728-1.516-1.126-2.46C56.101,80.621,53.597,84.928,53.597,84.928z"/>
		
			<linearGradient id="SVGID_30_" gradientUnits="userSpaceOnUse" x1="-238.2275" y1="234.6777" x2="-237.2357" y2="234.6777" gradientTransform="matrix(-4.761 4.6763 4.6763 4.761 -2177.7048 72.4777)">
			<stop  offset="0" style="stop-color:#080808"/>
			<stop  offset="0.9613" style="stop-color:#69605E"/>
			<stop  offset="1" style="stop-color:#6C6461"/>
		</linearGradient>
		<path fill="url(#SVGID_30_)" d="M53.597,84.928c0,0,2.503-4.307,4.957-5.994c-0.168-0.397-0.341-0.82-0.513-1.26
			c-2.018,0.941-4.322,5.059-4.322,5.059c-4.213-9.43-0.35-14.992,1.208-16.714l-0.017-0.113c-0.852,0.875-2.613,2.977-3.67,6.316
			C50.783,75.551,51.205,79.786,53.597,84.928z"/>
		
			<linearGradient id="SVGID_31_" gradientUnits="userSpaceOnUse" x1="-236.8096" y1="243.9043" x2="-235.8173" y2="243.9043" gradientTransform="matrix(7.9805 0.0716 0.0716 -7.9805 1923.4563 2038.8236)">
			<stop  offset="0" style="stop-color:#7C726E"/>
			<stop  offset="1" style="stop-color:#6C6461"/>
		</linearGradient>
		<path fill="url(#SVGID_31_)" d="M53.597,84.928c0,0,2.503-4.307,4.957-5.994c-0.168-0.397-0.341-0.82-0.513-1.26
			c-2.018,0.941-4.322,5.059-4.322,5.059c-4.213-9.43-0.35-14.992,1.208-16.714l-0.017-0.113c-0.852,0.875-2.613,2.977-3.67,6.316
			C50.783,75.551,51.205,79.786,53.597,84.928z"/>
		
			<linearGradient id="SVGID_32_" gradientUnits="userSpaceOnUse" x1="-238.1655" y1="234.625" x2="-237.174" y2="234.625" gradientTransform="matrix(-4.7608 4.6762 4.6762 4.7608 -2177.562 71.9346)">
			<stop  offset="0" style="stop-color:#080808"/>
			<stop  offset="0.9613" style="stop-color:#69605E"/>
			<stop  offset="1" style="stop-color:#6C6461"/>
		</linearGradient>
		<path fill="url(#SVGID_32_)" d="M53.718,82.732c0,0,2.306-4.12,4.323-5.059c-1.154-2.962-2.36-6.886-3.113-11.656
			C53.369,67.74,49.506,73.303,53.718,82.732z"/>
		
			<linearGradient id="SVGID_33_" gradientUnits="userSpaceOnUse" x1="-236.8345" y1="243.8838" x2="-235.8431" y2="243.8838" gradientTransform="matrix(7.9801 0.0716 0.0716 -7.9801 1923.5798 2037.5204)">
			<stop  offset="0" style="stop-color:#7C726E"/>
			<stop  offset="1" style="stop-color:#6C6461"/>
		</linearGradient>
		<path fill="url(#SVGID_33_)" d="M53.718,82.732c0,0,2.306-4.12,4.323-5.059c-1.154-2.962-2.36-6.886-3.113-11.656
			C53.369,67.74,49.506,73.303,53.718,82.732z"/>
		
			<linearGradient id="SVGID_34_" gradientUnits="userSpaceOnUse" x1="-236.29" y1="242.3818" x2="-235.2987" y2="242.3818" gradientTransform="matrix(12.3742 0.111 0.111 -12.3742 2955.626 3099.937)">
			<stop  offset="0" style="stop-color:#080808"/>
			<stop  offset="0.9613" style="stop-color:#69605E"/>
			<stop  offset="1" style="stop-color:#6C6461"/>
		</linearGradient>
		<path fill="url(#SVGID_34_)" d="M53.718,82.732c0,0,2.306-4.12,4.323-5.059c-1.154-2.962-2.36-6.886-3.113-11.656
			C53.369,67.74,49.506,73.303,53.718,82.732z"/>
		
			<linearGradient id="SVGID_35_" gradientUnits="userSpaceOnUse" x1="-236.4521" y1="242.5928" x2="-235.4604" y2="242.5928" gradientTransform="matrix(11.3542 0.1019 0.1019 -11.3542 2720.5417 2815.6631)">
			<stop  offset="0" style="stop-color:#080808"/>
			<stop  offset="0.9613" style="stop-color:#69605E"/>
			<stop  offset="1" style="stop-color:#6C6461"/>
		</linearGradient>
		<path fill="url(#SVGID_35_)" d="M64.444,30.989c0,0,4.744,4.054,7.297,12.479c0.709,0.381,1.385,0.815,2.021,1.298
			c-2.809-10.212-8.862-15.117-8.862-15.117s-6.123,4.784-9.113,14.918c0.309-0.227,0.631-0.442,0.96-0.645
			C59.409,35.143,64.444,30.989,64.444,30.989z"/>
		
			<linearGradient id="SVGID_36_" gradientUnits="userSpaceOnUse" x1="-236.4155" y1="242.6387" x2="-235.424" y2="242.6387" gradientTransform="matrix(11.3536 0.1019 0.1019 -11.3536 2719.9709 2816.3745)">
			<stop  offset="0" style="stop-color:#080808"/>
			<stop  offset="0.9613" style="stop-color:#69605E"/>
			<stop  offset="1" style="stop-color:#6C6461"/>
		</linearGradient>
		<path fill="url(#SVGID_36_)" d="M64.444,30.989c0,0-5.036,4.153-7.698,12.934c0.643-0.396,1.317-0.746,2.018-1.042
			c2.538-6.677,6.387-9.852,6.387-9.852s3.922,3.353,6.332,10.305c0.087,0.045,0.172,0.09,0.258,0.135
			C69.188,35.045,64.444,30.989,64.444,30.989z"/>
		
			<linearGradient id="SVGID_37_" gradientUnits="userSpaceOnUse" x1="-233.1704" y1="240.1748" x2="-232.1788" y2="240.1748" gradientTransform="matrix(0.1355 -15.1042 -15.1042 -0.1355 3723.2393 -3418.2195)">
			<stop  offset="0" style="stop-color:#080808"/>
			<stop  offset="0.9613" style="stop-color:#69605E"/>
			<stop  offset="1" style="stop-color:#6C6461"/>
		</linearGradient>
		<path fill="url(#SVGID_37_)" d="M64.444,30.989c0,0-5.036,4.153-7.698,12.934c0.643-0.396,1.317-0.746,2.018-1.042
			c2.538-6.677,6.387-9.852,6.387-9.852s3.922,3.353,6.332,10.305c0.087,0.045,0.172,0.09,0.258,0.135
			C69.188,35.045,64.444,30.989,64.444,30.989z"/>
		
			<linearGradient id="SVGID_38_" gradientUnits="userSpaceOnUse" x1="-236.3438" y1="242.5742" x2="-235.3524" y2="242.5742" gradientTransform="matrix(11.353 0.1018 0.1018 -11.353 2719.0483 2816.1167)">
			<stop  offset="0" style="stop-color:#080808"/>
			<stop  offset="0.9613" style="stop-color:#69605E"/>
			<stop  offset="1" style="stop-color:#6C6461"/>
		</linearGradient>
		<path fill="url(#SVGID_38_)" d="M61.754,40.436c0.368-0.661,0.731-1.215,1.049-1.655c0.307-0.447,0.593-0.768,0.78-0.988
			c0.191-0.219,0.3-0.327,0.3-0.327s-0.085,0.129-0.227,0.379c-0.142,0.25-0.338,0.625-0.569,1.104
			c-0.233,0.479-0.486,1.075-0.76,1.762c-0.15,0.38-0.299,0.793-0.449,1.231c0.937-0.173,1.903-0.261,2.891-0.251
			c2.419,0.021,4.698,0.613,6.714,1.643c-2.41-6.952-6.332-10.305-6.332-10.305s-3.849,3.174-6.386,9.85
			c0.678-0.287,1.379-0.526,2.104-0.712C61.161,41.529,61.459,40.948,61.754,40.436z"/>
		
			<linearGradient id="SVGID_39_" gradientUnits="userSpaceOnUse" x1="-233.1445" y1="240.2031" x2="-232.1538" y2="240.2031" gradientTransform="matrix(0.1355 -15.1039 -15.1039 -0.1355 3724.47 -3417.7778)">
			<stop  offset="0" style="stop-color:#080808"/>
			<stop  offset="0.9613" style="stop-color:#69605E"/>
			<stop  offset="1" style="stop-color:#6C6461"/>
		</linearGradient>
		<path fill="url(#SVGID_39_)" d="M61.754,40.436c0.368-0.661,0.731-1.215,1.049-1.655c0.307-0.447,0.593-0.768,0.78-0.988
			c0.191-0.219,0.3-0.327,0.3-0.327s-0.085,0.129-0.227,0.379c-0.142,0.25-0.338,0.625-0.569,1.104
			c-0.233,0.479-0.486,1.075-0.76,1.762c-0.15,0.38-0.299,0.793-0.449,1.231c0.937-0.173,1.903-0.261,2.891-0.251
			c2.419,0.021,4.698,0.613,6.714,1.643c-2.41-6.952-6.332-10.305-6.332-10.305s-3.849,3.174-6.386,9.85
			c0.678-0.287,1.379-0.526,2.104-0.712C61.161,41.529,61.459,40.948,61.754,40.436z"/>
		
			<linearGradient id="SVGID_40_" gradientUnits="userSpaceOnUse" x1="-236.2524" y1="241.9385" x2="-235.2611" y2="241.9385" gradientTransform="matrix(14.2551 0.1279 0.1279 -14.2551 3393.8813 3517.1565)">
			<stop  offset="0" style="stop-color:#080808"/>
			<stop  offset="0.9613" style="stop-color:#69605E"/>
			<stop  offset="1" style="stop-color:#6C6461"/>
		</linearGradient>
		<path fill="url(#SVGID_40_)" d="M61.754,40.436c0.368-0.661,0.731-1.215,1.049-1.655c0.307-0.447,0.593-0.768,0.78-0.988
			c0.191-0.219,0.3-0.327,0.3-0.327s-0.085,0.129-0.227,0.379c-0.142,0.25-0.338,0.625-0.569,1.104
			c-0.233,0.479-0.486,1.075-0.76,1.762c-0.15,0.38-0.299,0.793-0.449,1.231c0.937-0.173,1.903-0.261,2.891-0.251
			c2.419,0.021,4.698,0.613,6.714,1.643c-2.41-6.952-6.332-10.305-6.332-10.305s-3.849,3.174-6.386,9.85
			c0.678-0.287,1.379-0.526,2.104-0.712C61.161,41.529,61.459,40.948,61.754,40.436z"/>
		
			<linearGradient id="SVGID_41_" gradientUnits="userSpaceOnUse" x1="-236.3384" y1="242.5889" x2="-235.3476" y2="242.5889" gradientTransform="matrix(11.3525 0.1018 0.1018 -11.3525 2718.8542 2817.8501)">
			<stop  offset="0" style="stop-color:#080808"/>
			<stop  offset="0.9613" style="stop-color:#69605E"/>
			<stop  offset="1" style="stop-color:#6C6461"/>
		</linearGradient>
		<path fill="url(#SVGID_41_)" d="M63.087,38.949c0.231-0.48,0.426-0.854,0.569-1.104c0.142-0.25,0.227-0.379,0.227-0.379
			s-0.109,0.108-0.3,0.327c-0.186,0.22-0.472,0.541-0.78,0.988c-0.318,0.441-0.682,0.994-1.049,1.655
			c-0.294,0.514-0.593,1.094-0.884,1.731c0.332-0.086,0.67-0.16,1.01-0.224c0.148-0.438,0.297-0.852,0.448-1.231
			C62.601,40.024,62.854,39.427,63.087,38.949z"/>
		
			<linearGradient id="SVGID_42_" gradientUnits="userSpaceOnUse" x1="-233.1777" y1="240.167" x2="-232.1855" y2="240.167" gradientTransform="matrix(0.1355 -15.1042 -15.1042 -0.1355 3721.2236 -3418.3367)">
			<stop  offset="0" style="stop-color:#080808"/>
			<stop  offset="0.9613" style="stop-color:#69605E"/>
			<stop  offset="1" style="stop-color:#6C6461"/>
		</linearGradient>
		<path fill="url(#SVGID_42_)" d="M63.087,38.949c0.231-0.48,0.426-0.854,0.569-1.104c0.142-0.25,0.227-0.379,0.227-0.379
			s-0.109,0.108-0.3,0.327c-0.186,0.22-0.472,0.541-0.78,0.988c-0.318,0.441-0.682,0.994-1.049,1.655
			c-0.294,0.514-0.593,1.094-0.884,1.731c0.332-0.086,0.67-0.16,1.01-0.224c0.148-0.438,0.297-0.852,0.448-1.231
			C62.601,40.024,62.854,39.427,63.087,38.949z"/>
		
			<linearGradient id="SVGID_43_" gradientUnits="userSpaceOnUse" x1="-236.2427" y1="241.957" x2="-235.252" y2="241.957" gradientTransform="matrix(14.2545 0.1279 0.1279 -14.2545 3393.5764 3518.9692)">
			<stop  offset="0" style="stop-color:#080808"/>
			<stop  offset="0.9613" style="stop-color:#69605E"/>
			<stop  offset="1" style="stop-color:#6C6461"/>
		</linearGradient>
		<path fill="url(#SVGID_43_)" d="M63.087,38.949c0.231-0.48,0.426-0.854,0.569-1.104c0.142-0.25,0.227-0.379,0.227-0.379
			s-0.109,0.108-0.3,0.327c-0.186,0.22-0.472,0.541-0.78,0.988c-0.318,0.441-0.682,0.994-1.049,1.655
			c-0.294,0.514-0.593,1.094-0.884,1.731c0.332-0.086,0.67-0.16,1.01-0.224c0.148-0.438,0.297-0.852,0.448-1.231
			C62.601,40.024,62.854,39.427,63.087,38.949z"/>
		
			<radialGradient id="SVGID_44_" cx="-236.0557" cy="241.417" r="0.9891" gradientTransform="matrix(18.4429 0.1655 0.1656 -18.4632 4377.5034 4551.915)" gradientUnits="userSpaceOnUse">
			<stop  offset="0" style="stop-color:#7C726E"/>
			<stop  offset="1" style="stop-color:#6C6461"/>
		</radialGradient>
		<path fill="url(#SVGID_44_)" d="M63.087,38.949c0.231-0.48,0.426-0.854,0.569-1.104c0.142-0.25,0.227-0.379,0.227-0.379
			s-0.109,0.108-0.3,0.327c-0.186,0.22-0.472,0.541-0.78,0.988c-0.318,0.441-0.682,0.994-1.049,1.655
			c-0.294,0.514-0.593,1.094-0.884,1.731c0.332-0.086,0.67-0.16,1.01-0.224c0.148-0.438,0.297-0.852,0.448-1.231
			C62.601,40.024,62.854,39.427,63.087,38.949z"/>
		
			<linearGradient id="SVGID_45_" gradientUnits="userSpaceOnUse" x1="112.0908" y1="10.3232" x2="135.209" y2="10.3232" gradientTransform="matrix(0.7134 -0.7007 0.7007 0.7134 -15.666 146.7722)">
			<stop  offset="0" style="stop-color:#561211"/>
			<stop  offset="1" style="stop-color:#EB2626"/>
		</linearGradient>
		<path fill="url(#SVGID_45_)" d="M67.079,80.074c-0.114,0.606-0.232,1.207-0.359,1.789c0.519,0.085,1.028,0.193,1.531,0.323
			c0.293,0.078,0.586,0.162,0.873,0.256c0.797,0.256,1.567,0.568,2.308,0.933c0.017,0.009,0.035,0.02,0.054,0.028
			c-0.014-0.031-0.021-0.065-0.033-0.096c-0.038-0.102-0.075-0.207-0.113-0.308c-0.242-0.657-0.499-1.28-0.765-1.874
			c-0.331-0.139-0.668-0.271-1.009-0.392c-0.142-0.047-0.282-0.097-0.425-0.143c-0.629-0.199-1.272-0.367-1.93-0.493
			C67.166,80.089,67.122,80.083,67.079,80.074 M58.426,80.707l-0.081,0.171c-0.302,0.64-0.596,1.317-0.874,2.033
			c0.005-0.003,0.01-0.004,0.015-0.005c0.518-0.215,1.047-0.405,1.593-0.564c0.234-0.073,0.471-0.136,0.709-0.195l0.501-0.108
			l0.614-0.134c0.125-0.021,0.249-0.045,0.375-0.063c0.362-0.056,0.727-0.102,1.096-0.135c0.129-0.012,0.258-0.022,0.388-0.031
			c-0.113-0.596-0.222-1.206-0.324-1.821c-0.387,0.033-0.766,0.08-1.145,0.138c-0.124,0.02-0.249,0.042-0.372,0.063l-0.101,0.021
			l-1.014,0.222c-0.194,0.046-0.386,0.1-0.577,0.153c-0.044,0.013-0.089,0.025-0.133,0.038
			C58.869,80.561,58.647,80.631,58.426,80.707"/>
		
			<linearGradient id="SVGID_46_" gradientUnits="userSpaceOnUse" x1="97.7705" y1="8.4482" x2="108.6929" y2="8.4482" gradientTransform="matrix(0.7134 -0.7007 0.7007 0.7134 -15.666 146.7722)">
			<stop  offset="0" style="stop-color:#561211"/>
			<stop  offset="1" style="stop-color:#EB2626"/>
		</linearGradient>
		<path fill="url(#SVGID_46_)" d="M67.937,76.363c-0.054,0.225-0.117,0.45-0.183,0.678c-0.176,0.59-0.347,1.189-0.453,1.792
			c-0.07,0.414-0.145,0.828-0.222,1.24c0.043,0.009,0.088,0.016,0.132,0.024c0.658,0.127,1.301,0.293,1.929,0.493
			c0.144,0.047,0.285,0.095,0.426,0.144c0.342,0.12,0.678,0.251,1.008,0.392c-0.118-0.272-0.24-0.539-0.364-0.799
			c-0.074-0.156-0.149-0.311-0.226-0.462c-0.414-0.83-0.84-1.592-1.263-2.284c-0.039-0.067-0.081-0.132-0.12-0.197
			c-0.081-0.131-0.162-0.257-0.242-0.381C68.218,76.782,68.077,76.568,67.937,76.363 M61.552,75.554
			c-0.208,0.272-0.422,0.566-0.64,0.878c-0.355,0.507-0.722,1.068-1.09,1.677c-0.171,0.285-0.342,0.58-0.513,0.887
			c-0.136,0.242-0.27,0.493-0.403,0.75c-0.162,0.311-0.324,0.632-0.48,0.962c0.221-0.076,0.443-0.147,0.668-0.217
			c0.044-0.013,0.089-0.025,0.133-0.038c0.191-0.055,0.383-0.107,0.577-0.156l1.013-0.219l0.103-0.023
			c0.124-0.022,0.248-0.042,0.373-0.063c0.377-0.059,0.756-0.106,1.143-0.137c-0.059-0.355-0.117-0.712-0.171-1.069
			c-0.095-0.603-0.256-1.201-0.419-1.797C61.712,76.503,61.595,76.021,61.552,75.554"/>
		
			<linearGradient id="SVGID_47_" gradientUnits="userSpaceOnUse" x1="99.7881" y1="4.5977" x2="115.0078" y2="4.5977" gradientTransform="matrix(0.7134 -0.7007 0.7007 0.7134 -15.666 146.7722)">
			<stop  offset="0" style="stop-color:#0F8075"/>
			<stop  offset="1" style="stop-color:#1D8277"/>
		</linearGradient>
		<path fill="url(#SVGID_47_)" d="M61.593,74.427c-0.042,0.269-0.063,0.544-0.058,0.822c0.001,0.102,0.008,0.201,0.017,0.305
			c0.124-0.162,0.245-0.318,0.363-0.469c-0.014-0.027-0.029-0.059-0.046-0.089C61.8,74.845,61.702,74.655,61.593,74.427
			 M64.188,69.522c-0.131,0.129-0.285,0.293-0.458,0.485c-0.458,0.524-0.994,1.269-1.413,2.166
			c-0.214,0.449-0.405,0.937-0.548,1.452c-0.027,0.099-0.054,0.196-0.077,0.298c0.108,0.439,0.198,0.792,0.259,1.039
			c0.007,0.019,0.012,0.038,0.018,0.058c0.717-0.896,1.349-1.564,1.801-2.009c0.458-0.451,0.734-0.672,0.734-0.672
			s1.589,1.319,3.433,4.023c0.087-0.355,0.146-0.708,0.158-1.055c0.021-0.564-0.066-1.108-0.204-1.628
			c-0.005-0.021-0.011-0.046-0.019-0.066c-0.019,0.036-0.037,0.071-0.054,0.104c-0.112,0.19-0.17,0.295-0.17,0.295
			s0.043-0.111,0.126-0.317c0.021-0.058,0.043-0.121,0.067-0.191c-0.127-0.454-0.291-0.884-0.471-1.284
			c-0.405-0.906-0.928-1.663-1.376-2.192c-0.229-0.264-0.423-0.473-0.573-0.616c-0.145-0.141-0.238-0.217-0.238-0.217l-0.629-0.006
			c0,0-0.092,0.074-0.241,0.214C64.275,69.438,64.232,69.479,64.188,69.522"/>
		
			<radialGradient id="SVGID_48_" cx="-236.0513" cy="241.4033" r="0.9848" gradientTransform="matrix(18.4438 0.1655 0.1656 -18.4641 4377.6797 4552.0513)" gradientUnits="userSpaceOnUse">
			<stop  offset="0" style="stop-color:#1E8F84"/>
			<stop  offset="0.7773" style="stop-color:#1E8679"/>
			<stop  offset="1" style="stop-color:#1D8277"/>
		</radialGradient>
		<path fill="url(#SVGID_48_)" d="M61.692,73.924c-0.042,0.164-0.074,0.331-0.099,0.503c0.109,0.229,0.208,0.418,0.276,0.569
			c0.017,0.03,0.032,0.062,0.046,0.089c0.018-0.021,0.036-0.044,0.054-0.064c-0.006-0.02-0.011-0.039-0.018-0.058
			C61.89,74.716,61.8,74.363,61.692,73.924"/>
		
			<linearGradient id="SVGID_49_" gradientUnits="userSpaceOnUse" x1="218.7148" y1="8.6929" x2="398.4371" y2="8.6929" gradientTransform="matrix(0.7134 -0.7007 0.7007 0.7134 -15.666 146.7722)">
			<stop  offset="0" style="stop-color:#0F8075"/>
			<stop  offset="1" style="stop-color:#1D8277"/>
		</linearGradient>
		<path fill="url(#SVGID_49_)" d="M65.702,79.876c0.146,0.015,0.291,0.033,0.437,0.05c0.315,0.044,0.629,0.091,0.94,0.148
			c-0.002-0.001,0-0.001,0-0.001c-0.311-0.06-0.625-0.107-0.94-0.147c-0.145-0.018-0.289-0.035-0.435-0.05
			C65.703,79.875,65.703,79.875,65.702,79.876 M62.437,79.854L62.437,79.854c0.378-0.035,0.762-0.055,1.148-0.064l0,0
			C63.197,79.798,62.815,79.819,62.437,79.854"/>
		
			<linearGradient id="SVGID_50_" gradientUnits="userSpaceOnUse" x1="-236.2446" y1="240.3145" x2="-235.2511" y2="240.3145" gradientTransform="matrix(14.2559 0.1279 0.1279 -14.2559 3393.7908 3535.8721)">
			<stop  offset="0" style="stop-color:#0F8075"/>
			<stop  offset="1" style="stop-color:#1D8277"/>
		</linearGradient>
		<path fill="url(#SVGID_50_)" d="M63.584,79.79L63.584,79.79c0.172-0.004,0.346-0.004,0.519-0.004
			c0.538,0.005,1.073,0.036,1.599,0.09c0.001-0.001,0.001-0.001,0.002,0c-0.526-0.054-1.063-0.085-1.601-0.09
			C63.929,79.785,63.755,79.786,63.584,79.79"/>
		
			<linearGradient id="SVGID_51_" gradientUnits="userSpaceOnUse" x1="-233.8936" y1="239.8457" x2="-232.9035" y2="239.8457" gradientTransform="matrix(0.1979 -22.0624 -22.0624 -0.1979 5404.1133 -5009.4546)">
			<stop  offset="0" style="stop-color:#1E8B77"/>
			<stop  offset="0.4784" style="stop-color:#1E9077"/>
			<stop  offset="1" style="stop-color:#1D9579"/>
		</linearGradient>
		<path fill="url(#SVGID_51_)" d="M66.151,81.78c0.001,0.005,0.001,0.01,0.001,0.011c0.067,0.18,0.197,0.551,0.339,1.071
			c0.04-0.166,0.079-0.335,0.12-0.505c0.037-0.162,0.073-0.329,0.108-0.494C66.531,81.831,66.343,81.805,66.151,81.78"/>
		
			<linearGradient id="SVGID_52_" gradientUnits="userSpaceOnUse" x1="95.9551" y1="12.8853" x2="110.0983" y2="12.8853" gradientTransform="matrix(0.7134 -0.7007 0.7007 0.7134 -15.666 146.7722)">
			<stop  offset="0" style="stop-color:#1E8B77"/>
			<stop  offset="0.4784" style="stop-color:#1E9077"/>
			<stop  offset="1" style="stop-color:#1D9579"/>
		</linearGradient>
		<path fill="url(#SVGID_52_)" d="M64.918,87.101c0,0-0.1,0.577-0.224,1.325l0.159,0.001L64.918,87.101 M65.733,83.801
			c0,0-0.002,1.6-0.491,3.874c0.008-0.023,0.015-0.048,0.021-0.07c0.081-0.263,0.171-0.582,0.27-0.946
			c0.097-0.366,0.221-0.778,0.331-1.229c0.081-0.326,0.168-0.673,0.258-1.033c-0.01-0.049-0.018-0.098-0.025-0.144
			c-0.057,0.383-0.137,0.773-0.249,1.172L65.733,83.801 M66.152,81.791c0.057,0.597,0.068,1.262,0.004,1.961
			c0.023,0.085,0.045,0.166,0.064,0.247c0.001-0.007,0.004-0.013,0.007-0.022c0.085-0.358,0.174-0.73,0.264-1.114
			C66.35,82.342,66.22,81.971,66.152,81.791"/>
		
			<linearGradient id="SVGID_53_" gradientUnits="userSpaceOnUse" x1="-244.7705" y1="237.2207" x2="-243.7763" y2="237.2207" gradientTransform="matrix(0.1536 3.8227 3.8227 -0.1536 -803.108 1055.2629)">
			<stop  offset="0" style="stop-color:#1E8B77"/>
			<stop  offset="0.4784" style="stop-color:#1E9077"/>
			<stop  offset="1" style="stop-color:#1D9579"/>
		</linearGradient>
		<path fill="url(#SVGID_53_)" d="M66.156,83.752c-0.015,0.166-0.035,0.333-0.06,0.501c0.008,0.046,0.016,0.095,0.025,0.144
			c0.032-0.131,0.066-0.262,0.099-0.397C66.201,83.918,66.18,83.837,66.156,83.752"/>
		
			<linearGradient id="SVGID_54_" gradientUnits="userSpaceOnUse" x1="-232.4731" y1="240.3574" x2="-231.4815" y2="240.3574" gradientTransform="matrix(0.1053 -11.7386 -11.7386 -0.1053 2910.3638 -2615.8032)">
			<stop  offset="0" style="stop-color:#1D9579"/>
			<stop  offset="0.4804" style="stop-color:#1E9681"/>
			<stop  offset="1" style="stop-color:#1E9688"/>
		</linearGradient>
		<path fill="url(#SVGID_54_)" d="M62.761,81.676c0.042,0.219,0.086,0.435,0.131,0.647c0.123,0.566,0.242,1.11,0.354,1.629
			c0.12,0.516,0.233,1.007,0.339,1.458c0.102,0.45,0.216,0.866,0.308,1.233c0.092,0.366,0.175,0.687,0.25,0.949
			c0.152,0.528,0.238,0.829,0.238,0.829l0.312,0.004c0.124-0.748,0.224-1.325,0.224-1.325l-0.064,1.326l0.157,0.001
			c0,0,0.085-0.273,0.231-0.753c0.489-2.274,0.491-3.874,0.491-3.874l0.114,1.624c0.112-0.398,0.192-0.789,0.249-1.172
			c0.024-0.168,0.045-0.335,0.06-0.501c0.064-0.699,0.053-1.364-0.004-1.961c0-0.001,0-0.006-0.001-0.011
			c-0.009-0.002-0.019-0.003-0.029-0.003c-0.667-0.09-1.347-0.135-2.035-0.142C63.64,81.632,63.199,81.646,62.761,81.676"/>
		
			<linearGradient id="SVGID_55_" gradientUnits="userSpaceOnUse" x1="-237.2983" y1="238.873" x2="-236.2983" y2="238.873" gradientTransform="matrix(-0.1788 19.9284 19.9284 0.1788 -4734.7817 4733.2217)">
			<stop  offset="0" style="stop-color:#1F9489"/>
			<stop  offset="0.0408" style="stop-color:#1F9489"/>
			<stop  offset="0.7607" style="stop-color:#1E8D83"/>
			<stop  offset="1" style="stop-color:#1E8D83"/>
		</linearGradient>
		<path fill="url(#SVGID_55_)" d="M67.842,73.505c-0.024,0.07-0.047,0.134-0.067,0.191c-0.083,0.206-0.126,0.317-0.126,0.317
			s0.058-0.104,0.17-0.295c0.017-0.033,0.035-0.068,0.054-0.104C67.862,73.576,67.853,73.541,67.842,73.505"/>
		
			<linearGradient id="SVGID_56_" gradientUnits="userSpaceOnUse" x1="-230.8555" y1="240.7266" x2="-229.8645" y2="240.7266" gradientTransform="matrix(0.0684 -7.6297 -7.6297 -0.0684 1917.2397 -1666.5084)">
			<stop  offset="0" style="stop-color:#0F8075"/>
			<stop  offset="1" style="stop-color:#1D8277"/>
		</linearGradient>
		<path fill="url(#SVGID_56_)" d="M62.437,79.854c0.102,0.615,0.211,1.226,0.324,1.821c0.438-0.029,0.879-0.044,1.326-0.04
			c0.688,0.007,1.368,0.052,2.035,0.142c0.011,0,0.021,0.001,0.029,0.003c0.191,0.024,0.38,0.051,0.568,0.083
			c0.127-0.582,0.245-1.183,0.359-1.789c-0.312-0.058-0.625-0.104-0.94-0.148c-0.146-0.017-0.291-0.035-0.437-0.05
			c-0.525-0.054-1.061-0.085-1.599-0.09c-0.173,0-0.347,0-0.519,0.004C63.198,79.8,62.815,79.819,62.437,79.854"/>
		
			<linearGradient id="SVGID_57_" gradientUnits="userSpaceOnUse" x1="-236.2061" y1="242.123" x2="-235.2143" y2="242.123" gradientTransform="matrix(13.6157 0.1221 0.1221 -13.6157 3243.2957 3401.6506)">
			<stop  offset="0" style="stop-color:#0F8075"/>
			<stop  offset="1" style="stop-color:#1D8277"/>
		</linearGradient>
		<path fill="url(#SVGID_57_)" d="M63.77,73.012c-0.452,0.444-1.084,1.112-1.801,2.009c-0.018,0.021-0.036,0.044-0.054,0.064
			c-0.119,0.15-0.24,0.307-0.363,0.469c0.043,0.468,0.161,0.949,0.294,1.435c0.164,0.596,0.325,1.194,0.419,1.797
			c0.054,0.357,0.112,0.714,0.171,1.069c0.378-0.035,0.761-0.057,1.148-0.064c0.171-0.004,0.345-0.005,0.519-0.004
			c0.538,0.005,1.074,0.036,1.601,0.09c0.146,0.015,0.29,0.032,0.435,0.05c0.315,0.04,0.63,0.088,0.94,0.147
			c0.077-0.412,0.151-0.826,0.222-1.24c0.106-0.603,0.277-1.202,0.453-1.792c0.065-0.228,0.129-0.453,0.183-0.678
			c-1.844-2.704-3.433-4.023-3.433-4.023S64.228,72.561,63.77,73.012"/>
		<path fill="#006666" d="M65.266,65.901c0,0,0.093,0.074,0.237,0.217c0.151,0.141,0.345,0.351,0.573,0.616
			c0.449,0.529,0.973,1.286,1.376,2.191c0.206,0.452,0.388,0.941,0.52,1.461c0.139,0.519,0.226,1.063,0.206,1.626
			c-0.02,0.564-0.17,1.145-0.343,1.733c-0.176,0.59-0.348,1.19-0.451,1.79c-0.209,1.2-0.437,2.399-0.691,3.526
			c-0.132,0.562-0.261,1.106-0.383,1.618c-0.13,0.517-0.25,1.005-0.363,1.455c-0.11,0.45-0.234,0.86-0.332,1.227
			c-0.098,0.365-0.188,0.686-0.269,0.945c-0.16,0.524-0.251,0.824-0.251,0.824l-0.63-0.006c0,0-0.087-0.301-0.238-0.829
			c-0.076-0.261-0.16-0.581-0.253-0.949c-0.09-0.368-0.205-0.781-0.307-1.232c-0.104-0.452-0.218-0.941-0.338-1.459
			c-0.113-0.517-0.232-1.063-0.355-1.627c-0.233-1.131-0.439-2.335-0.626-3.539c-0.094-0.601-0.255-1.202-0.42-1.797
			c-0.161-0.592-0.301-1.177-0.311-1.74c-0.011-0.564,0.087-1.106,0.235-1.622c0.142-0.515,0.332-1.001,0.545-1.452
			c0.419-0.898,0.958-1.643,1.413-2.167c0.234-0.26,0.432-0.464,0.585-0.604c0.148-0.14,0.239-0.214,0.239-0.214L65.266,65.901z"/>
		
			<linearGradient id="SVGID_58_" gradientUnits="userSpaceOnUse" x1="-239.2178" y1="238.4385" x2="-238.2263" y2="238.4385" gradientTransform="matrix(-0.0864 9.6268 9.6268 0.0864 -2250.2773 2351.4592)">
			<stop  offset="0" style="stop-color:#FBDDDF"/>
			<stop  offset="0.0408" style="stop-color:#FBDBDB"/>
			<stop  offset="0.7607" style="stop-color:#00A79B"/>
			<stop  offset="1" style="stop-color:#00A79B"/>
		</linearGradient>
		<path fill="url(#SVGID_58_)" d="M64.541,82.105c0,0,0.023-0.052,0.068-0.15c0.042-0.101,0.097-0.25,0.178-0.433
			c0.067-0.189,0.151-0.418,0.247-0.684c0.083-0.264,0.175-0.563,0.277-0.891c0.104-0.326,0.18-0.689,0.287-1.066
			c0.113-0.374,0.17-0.782,0.264-1.195c0.042-0.209,0.086-0.42,0.131-0.633c0.032-0.216,0.062-0.435,0.094-0.655
			c0.031-0.221,0.064-0.442,0.097-0.665c0.036-0.224,0.069-0.445,0.079-0.671c0.039-0.449,0.076-0.898,0.114-1.341l0.025-0.324
			l0.005-0.331c0.003-0.219,0.005-0.436,0.008-0.648c0.003-0.215,0.006-0.423,0.009-0.627c-0.006-0.203-0.028-0.398-0.04-0.59
			c-0.016-0.193-0.03-0.381-0.043-0.563c-0.013-0.181-0.013-0.357-0.049-0.524c-0.059-0.333-0.101-0.643-0.142-0.917
			c-0.016-0.137-0.039-0.266-0.07-0.381c-0.03-0.117-0.055-0.225-0.08-0.32c-0.094-0.39-0.139-0.615-0.139-0.615
			s0.088,0.214,0.233,0.591c0.035,0.096,0.074,0.203,0.117,0.315c0.049,0.114,0.087,0.242,0.121,0.375
			c0.074,0.272,0.158,0.577,0.24,0.915c0.088,0.336,0.12,0.711,0.181,1.104c0.026,0.196,0.06,0.399,0.079,0.606
			c0.007,0.207,0.015,0.414,0.021,0.628c0.007,0.214,0.013,0.429,0.019,0.649l0.009,0.33c-0.003,0.129-0.015,0.229-0.021,0.346
			c-0.033,0.449-0.066,0.905-0.099,1.364c-0.014,0.228-0.053,0.454-0.089,0.68c-0.036,0.228-0.073,0.453-0.109,0.677
			c-0.038,0.222-0.076,0.444-0.112,0.662c-0.054,0.214-0.106,0.43-0.158,0.639c-0.106,0.418-0.195,0.827-0.333,1.202
			c-0.13,0.377-0.239,0.733-0.374,1.058c-0.133,0.322-0.256,0.617-0.377,0.873c-0.128,0.255-0.24,0.476-0.332,0.66
			c-0.1,0.18-0.187,0.315-0.242,0.412C64.572,82.058,64.541,82.105,64.541,82.105z"/>
	</g>
	<g>
		<path fill="none" stroke="#6C6360" stroke-width="1.1068" stroke-miterlimit="10" stroke-dasharray="3.4587,3.3204" d="
			M12.129,67.073"/>
		<path fill="none" stroke="#6C6360" stroke-width="1.1068" stroke-miterlimit="10" stroke-dasharray="3.4587,3.3204" d="
			M115.759,67.073"/>
		<g>
			<path fill="#6C6360" d="M63.16,118.328l0.008-0.799c1.135,0.014,2.28-0.012,3.407-0.074l0.045,0.799
				C65.476,118.316,64.311,118.341,63.16,118.328z M59.841,118.188c-1.149-0.084-2.306-0.209-3.44-0.368l0.111-0.791
				c1.117,0.157,2.257,0.278,3.388,0.362L59.841,118.188z M69.929,117.967l-0.093-0.791c1.123-0.134,2.256-0.306,3.367-0.515
				l0.146,0.786C72.221,117.657,71.069,117.833,69.929,117.967z M53.127,117.252c-1.125-0.231-2.258-0.505-3.364-0.811l0.212-0.771
				c1.09,0.302,2.204,0.57,3.313,0.8L53.127,117.252z M76.595,116.732l-0.196-0.774c1.097-0.279,2.199-0.597,3.273-0.949
				l0.248,0.761C78.828,116.125,77.707,116.451,76.595,116.732z M46.59,115.45c-1.086-0.377-2.174-0.796-3.233-1.245l0.312-0.735
				c1.042,0.443,2.112,0.854,3.183,1.227L46.59,115.45z M83.039,114.639l-0.295-0.743c1.05-0.417,2.099-0.877,3.12-1.366
				l0.345,0.721C85.172,113.745,84.105,114.214,83.039,114.639z M40.339,112.809c-1.027-0.517-2.051-1.073-3.042-1.656l0.404-0.689
				c0.976,0.575,1.984,1.123,2.996,1.631L40.339,112.809z M89.157,111.723l-0.39-0.698c0.986-0.553,1.969-1.146,2.916-1.762
				l0.436,0.671C91.156,110.56,90.159,111.162,89.157,111.723z M34.486,109.376c-0.95-0.646-1.893-1.33-2.801-2.038l0.49-0.631
				c0.896,0.697,1.823,1.371,2.758,2.006L34.486,109.376z M94.847,108.035l-0.477-0.641c0.907-0.676,1.804-1.391,2.666-2.125
				l0.519,0.609C96.678,106.625,95.768,107.351,94.847,108.035z M29.129,105.212c-0.861-0.763-1.707-1.563-2.515-2.382l0.567-0.563
				c0.796,0.807,1.629,1.595,2.477,2.346L29.129,105.212z M100.015,103.644l-0.555-0.574c0.814-0.787,1.611-1.612,2.371-2.451
				l0.593,0.537C101.652,102.008,100.842,102.845,100.015,103.644z M24.354,100.395c-0.755-0.868-1.491-1.771-2.187-2.687
				l0.635-0.483c0.686,0.9,1.41,1.791,2.153,2.644L24.354,100.395z M104.576,98.621l-0.625-0.497
				c0.707-0.886,1.391-1.808,2.037-2.737l0.656,0.455C105.988,96.787,105.293,97.722,104.576,98.621z M20.239,95.001
				c-0.637-0.956-1.25-1.948-1.822-2.945l0.692-0.396c0.564,0.98,1.167,1.956,1.794,2.899L20.239,95.001z M108.452,93.048
				l-0.684-0.411c0.586-0.971,1.146-1.973,1.665-2.979l0.709,0.367C109.616,91.047,109.046,92.064,108.452,93.048z M16.857,89.123
				c-0.508-1.032-0.987-2.094-1.424-3.153l0.738-0.307c0.429,1.045,0.901,2.091,1.401,3.107L16.857,89.123z M111.573,87.02
				l-0.729-0.321c0.453-1.037,0.878-2.106,1.264-3.171l0.749,0.271C112.467,84.882,112.036,85.965,111.573,87.02z M14.266,82.857
				c-0.368-1.087-0.705-2.202-1-3.312l0.771-0.206c0.292,1.093,0.624,2.19,0.987,3.261L14.266,82.857z M113.883,80.631l-0.765-0.223
				c0.314-1.087,0.597-2.198,0.837-3.305l0.779,0.169C114.49,78.397,114.203,79.527,113.883,80.631z"/>
		</g>
		<path fill="none" stroke="#6C6360" stroke-width="1.1068" stroke-miterlimit="10" stroke-dasharray="3.4587,3.3204" d="
			M63.945,15.204"/>
		<g>
			<path fill="#00A79D" d="M75.975,17.908c0,2.83-2.29,5.122-5.115,5.122c-1.162,0-2.233-0.388-3.092-1.041
				c-1.035,0.659-2.266,1.041-3.583,1.041c-1.431,0-2.757-0.451-3.844-1.218c-0.892,0.759-2.047,1.218-3.311,1.218
				c-2.826,0-5.116-2.292-5.116-5.122c0-2.828,2.29-5.122,5.116-5.122c0.482,0,0.951,0.067,1.393,0.191
				c1.159-1.979,3.306-3.309,5.762-3.309c2.417,0,4.533,1.285,5.705,3.21c0.314-0.06,0.639-0.092,0.97-0.092
				C73.685,12.787,75.975,15.08,75.975,17.908z"/>
		</g>
		<g>
			<path fill="#6C6360" d="M125.936,66.858c0,2.634-2.133,4.77-4.761,4.77c-1.084,0-2.082-0.362-2.883-0.971
				c-0.962,0.615-2.106,0.971-3.332,0.971c-1.333,0-2.567-0.419-3.579-1.135c-0.831,0.707-1.906,1.135-3.083,1.135
				c-2.632,0-4.764-2.136-4.764-4.77c0-2.632,2.132-4.768,4.764-4.768c0.45,0,0.885,0.063,1.296,0.178
				c1.079-1.842,3.078-3.081,5.366-3.081c2.25,0,4.22,1.197,5.312,2.989c0.292-0.057,0.594-0.086,0.903-0.086
				C123.803,62.09,125.936,64.226,125.936,66.858z"/>
		</g>
		<g>
			<path fill="#ED1C24" d="M24.465,68.671c0,2.634-2.132,4.77-4.762,4.77c-1.083,0-2.08-0.361-2.88-0.97
				c-0.963,0.614-2.107,0.97-3.334,0.97c-1.333,0-2.566-0.419-3.578-1.136c-0.831,0.708-1.907,1.136-3.083,1.136
				c-2.631,0-4.764-2.136-4.764-4.77s2.132-4.768,4.764-4.768c0.45,0,0.885,0.063,1.296,0.178C9.203,62.239,11.202,61,13.489,61
				c2.25,0,4.221,1.198,5.311,2.989c0.293-0.057,0.594-0.086,0.903-0.086C22.333,63.903,24.465,66.037,24.465,68.671z"/>
		</g>
		<g>
			<g>
				<path fill="#6C6360" d="M13.835,55.491l-0.777-0.18c0.257-1.121,0.556-2.247,0.888-3.348l0.764,0.23
					C14.383,53.278,14.088,54.388,13.835,55.491z M15.754,49.09l-0.748-0.28c0.401-1.077,0.844-2.154,1.317-3.204l0.727,0.328
					C16.585,46.969,16.149,48.03,15.754,49.09z M18.491,42.995l-0.706-0.375c0.538-1.015,1.118-2.026,1.722-3.005l0.679,0.42
					C19.59,40.999,19.02,41.995,18.491,42.995z M21.995,37.306l-0.65-0.463c0.665-0.937,1.371-1.864,2.096-2.755l0.619,0.504
					C23.344,35.47,22.649,36.383,21.995,37.306z M26.205,32.117l-0.586-0.542c0.782-0.844,1.6-1.673,2.435-2.463l0.548,0.58
					C27.78,30.471,26.974,31.287,26.205,32.117z M31.048,27.516l-0.511-0.614c0.883-0.737,1.802-1.454,2.73-2.129l0.47,0.646
					C32.822,26.085,31.917,26.79,31.048,27.516z M36.443,23.578l-0.428-0.676c0.971-0.615,1.974-1.206,2.983-1.756l0.381,0.701
					C38.387,22.389,37.399,22.971,36.443,23.578z M42.302,20.372l-0.336-0.725c0.563-0.261,1.139-0.518,1.713-0.76
					c0.487-0.204,0.982-0.405,1.475-0.595l0.288,0.745c-0.485,0.187-0.974,0.385-1.453,0.587
					C43.424,19.863,42.857,20.114,42.302,20.372z"/>
			</g>
			<g>
				<g>
					<path fill="#6C6360" d="M49.869,17.141c-2.417-0.066-5.542-0.521-7.681-1.4l2.522,3.156l-0.079,4.039
						C45.792,20.934,47.993,18.667,49.869,17.141z"/>
				</g>
			</g>
		</g>
		<g>
			<g>
				<path fill="#6C6360" d="M114.074,55.172c-0.252-1.104-0.547-2.213-0.873-3.297l0.765-0.231c0.33,1.102,0.63,2.228,0.887,3.349
					L114.074,55.172z M112.156,48.771c-0.395-1.061-0.83-2.121-1.296-3.154l0.727-0.329c0.473,1.049,0.915,2.127,1.317,3.204
					L112.156,48.771z M109.419,42.674c-0.528-1-1.1-1.995-1.696-2.959l0.681-0.421c0.605,0.979,1.184,1.99,1.722,3.006
					L109.419,42.674z M105.914,36.986c-0.653-0.922-1.349-1.837-2.064-2.715l0.619-0.504c0.729,0.892,1.431,1.819,2.097,2.757
					L105.914,36.986z M101.706,31.798c-0.771-0.832-1.575-1.648-2.398-2.426l0.549-0.58c0.834,0.79,1.653,1.619,2.435,2.463
					L101.706,31.798z M96.863,27.196c-0.871-0.725-1.776-1.431-2.689-2.097l0.468-0.646c0.93,0.677,1.849,1.394,2.731,2.13
					L96.863,27.196z M91.467,23.258c-0.956-0.606-1.944-1.189-2.938-1.731l0.382-0.702c1.009,0.55,2.013,1.142,2.984,1.758
					L91.467,23.258z M85.607,20.052c-0.555-0.258-1.122-0.509-1.686-0.748c-0.479-0.202-0.968-0.399-1.452-0.587l0.287-0.746
					c0.493,0.19,0.988,0.392,1.475,0.597c0.573,0.242,1.148,0.497,1.714,0.759L85.607,20.052z"/>
			</g>
			<g>
				<g>
					<path fill="#6C6360" d="M78.041,16.821c1.876,1.528,4.076,3.794,5.237,5.795l-0.077-4.04l2.521-3.154
						C83.583,16.301,80.458,16.756,78.041,16.821z"/>
				</g>
			</g>
		</g>
	</g>
</g>
</svg>
