<?xml version="1.0" encoding="utf-8"?>
<!-- Generator: Adobe Illustrator 16.0.0, SVG Export Plug-In . SVG Version: 6.00 Build 0)  -->
<!DOCTYPE svg PUBLIC "-//W3C//DTD SVG 1.1//EN" "http://www.w3.org/Graphics/SVG/1.1/DTD/svg11.dtd">
<svg version="1.1" id="Layer_1" xmlns="http://www.w3.org/2000/svg" xmlns:xlink="http://www.w3.org/1999/xlink" x="0px" y="0px"
	 width="128px" height="128px" viewBox="0 0 128 128" enable-background="new 0 0 128 128" xml:space="preserve">
<g>
	<linearGradient id="SVGID_1_" gradientUnits="userSpaceOnUse" x1="42.1851" y1="54.73" x2="42.1851" y2="104.9054">
		<stop  offset="0" style="stop-color:#6B503C"/>
		<stop  offset="1" style="stop-color:#C49A76"/>
	</linearGradient>
	<polygon fill="url(#SVGID_1_)" points="13.527,112.637 70.843,98.204 70.843,46.095 13.527,60.528 	"/>
	<g>
		<g>
			<path fill="#2E2E2E" d="M77.649,50.063c0.944,3.127,2.184,7.095,4.476,6.606c0.506-0.107,2.368-0.863,2.736-1.038
				c1.451-0.693,2.021-2.769,1.269-5.264c-0.942-3.127-3.605-5.73-5.947-5.813c-0.647-0.024-2.894,0.72-3.337,1.047
				C75.683,46.455,76.968,47.799,77.649,50.063z"/>
			<path fill="#2E2E2E" d="M75.442,50.921c0.943,3.127,3.606,5.731,5.949,5.813c2.342,0.085,3.476-2.382,2.532-5.51
				c-0.944-3.126-3.606-5.729-5.947-5.813C75.635,45.327,74.501,47.795,75.442,50.921z"/>
			<path fill="#B3B3B3" d="M77.684,51.001c0.445,1.476,1.699,2.703,2.805,2.743c1.105,0.039,1.64-1.124,1.194-2.6
				c-0.444-1.475-1.7-2.703-2.805-2.743C77.773,48.363,77.238,49.526,77.684,51.001z"/>
		</g>
		<polygon fill="#A84246" points="62.576,27.565 41.571,23.65 30.378,29.66 39.904,38.963 57.699,40.026 		"/>
		<polygon fill="#333333" points="59.929,55.536 34.881,51.658 34.529,44.974 61.333,49.113 		"/>
		<path fill="#B53E40" d="M56.073,34.167L27.718,30.14c0,0,7.239,9.629,6.092,17.952l25.413,3.532L56.073,34.167z"/>
		<path opacity="0.05" d="M58.169,45.786l1.054,5.838l-25.413-3.532c0.17-1.23,0.152-2.49,0.005-3.742
			C41.956,44.402,50.098,44.731,58.169,45.786z"/>
		<polygon fill="#C26D70" points="55.835,32.842 32.416,29.292 27.718,30.14 56.073,34.167 		"/>
		<polygon fill="#C26D70" points="62.865,28.227 41.446,24.588 41.177,23.099 64.384,27.239 		"/>
		<polygon fill="#C26D70" points="41.177,23.099 27.718,30.14 32.416,29.292 41.446,24.588 		"/>
		<polygon fill="#B3B3B3" points="88.123,51.28 84.082,26.039 69.972,33.539 74.568,59.022 		"/>
		<polygon fill="#9E9E9E" points="85.34,40.158 83.419,28.284 71.258,34.75 73.657,46.831 		"/>
		<polygon fill="#94C1D6" points="84.94,40.01 83.13,28.821 71.673,34.913 73.934,46.296 		"/>
		<path opacity="0.1" fill="#FFFFFF" d="M72.738,40.284l-0.493-2.48c2.787,1.652,5.66,3.15,8.58,4.558l-1.836,1.048
			C76.899,42.381,74.811,41.348,72.738,40.284z"/>
		<path opacity="0.1" fill="#FFFFFF" d="M72.69,34.371l4.027-2.141c2.414,1.162,4.945,2.143,7.471,3.129l0.741,4.578
			C80.709,38.379,76.573,36.638,72.69,34.371z"/>
		<path fill="#FBD56C" d="M83.371,48.728c0.181,0.998,0.869,1.503,1.537,1.131c0.67-0.372,1.067-1.482,0.886-2.479
			c-0.178-0.996-0.866-1.503-1.536-1.131C83.589,46.621,83.192,47.731,83.371,48.728z"/>
		<path fill="#FBD56C" d="M76.698,51.851c0.18,0.997,0.868,1.503,1.537,1.131c0.669-0.372,1.066-1.482,0.886-2.479
			c-0.18-0.997-0.868-1.503-1.537-1.131C76.915,49.744,76.518,50.854,76.698,51.851z"/>
		<polygon fill="#C4C4C4" points="84.082,26.039 69.606,23.463 55.566,31.353 69.972,33.539 		"/>
		<polygon fill="#9E9E9E" points="55.566,31.353 60.069,56.314 74.568,59.022 69.972,33.539 		"/>
		<polygon fill="#828282" points="71.227,47.227 59.241,44.988 57.262,34.022 69.112,35.505 		"/>
		<g>
			<path fill="#2E2E2E" d="M63.802,56.974c0.578,3.215,1.358,7.297,3.691,7.076c0.514-0.05,2.451-0.589,2.836-0.721
				c1.521-0.522,2.324-2.52,1.86-5.085c-0.577-3.214-2.926-6.104-5.243-6.454c-0.64-0.099-2.958,0.385-3.436,0.659
				C62.256,53.165,63.382,54.648,63.802,56.974z"/>
			<path fill="#404040" d="M61.511,57.575c0.58,3.215,2.928,6.104,5.245,6.456c2.317,0.351,3.725-1.97,3.145-5.185
				c-0.58-3.214-2.929-6.104-5.246-6.454C62.339,52.041,60.931,54.362,61.511,57.575z"/>
			<path fill="#B3B3B3" d="M63.726,57.912c0.275,1.515,1.383,2.878,2.477,3.043c1.091,0.166,1.755-0.929,1.482-2.446
				c-0.273-1.516-1.381-2.879-2.475-3.044C64.117,55.3,63.452,56.395,63.726,57.912z"/>
		</g>
		<g>
			<path fill="#2E2E2E" d="M37.092,51.443c0.579,3.214,1.358,7.297,3.692,7.076c0.515-0.05,2.451-0.588,2.836-0.722
				c1.521-0.523,2.324-2.52,1.861-5.085c-0.58-3.214-2.927-6.104-5.245-6.454c-0.64-0.097-2.956,0.386-3.436,0.659
				C35.547,47.634,36.672,49.117,37.092,51.443z"/>
			<path fill="#404040" d="M34.801,52.044c0.58,3.215,2.928,6.104,5.245,6.454c2.316,0.351,3.725-1.969,3.145-5.184
				c-0.58-3.215-2.928-6.104-5.244-6.455C35.629,46.509,34.221,48.83,34.801,52.044z"/>
			<path fill="#B3B3B3" d="M37.017,52.38c0.274,1.517,1.381,2.879,2.474,3.045c1.093,0.166,1.758-0.93,1.483-2.446
				c-0.273-1.517-1.38-2.88-2.474-3.045C37.408,49.769,36.744,50.864,37.017,52.38z"/>
		</g>
		
			<line fill="none" stroke="#828282" stroke-width="0.3363" stroke-miterlimit="10" x1="59.357" y1="44.629" x2="61.028" y2="53.893"/>
		<polygon fill="#94C1D6" points="70.834,46.855 59.521,44.743 57.654,34.394 68.838,35.793 		"/>
		<path opacity="0.1" fill="#FFFFFF" d="M65.859,35.421l2.979,0.373l0.476,2.634C68.171,37.417,67.002,36.429,65.859,35.421z"/>
		<path opacity="0.1" fill="#FFFFFF" d="M67.913,46.298c-3.044-3.073-6.241-5.988-9.667-8.625l-0.591-3.28l0.875,0.11
			c3.297,4.288,7.82,7.363,11.709,11.07c0.146,0.14,0.294,0.277,0.439,0.416l0.156,0.867l-2.906-0.543
			C67.923,46.309,67.919,46.304,67.913,46.298z"/>
	</g>
	<g>
		<polygon fill="#FBC858" points="87.783,19.621 82.111,67.352 114.951,32.483 112.368,3.441 		"/>
		<path opacity="0.05" d="M114.647,29.075c-1.894-0.585-3.899-0.897-5.6-1.969c-2.355-1.484-3.476-4.315-2.707-7.039
			c0.913-3.228,2.959-6.581,4.988-9.237c0.54-0.708,1.034-1.44,1.502-2.186l-0.463-5.204L110.41,4.73
			c-1.806,3.137-3.985,6.042-5.736,9.219c-1.289,2.334-2.493,7.065-5.617,7.634c-1.192,0.218-2.277-0.14-3.381-0.571
			c-1.63-0.634-3.393-1.209-5.109-1.565c-0.998-0.208-1.89-0.004-2.784,0.195l-0.302,2.537c2.323,2.021,4.893,4.114,6.027,6.988
			c1.706,4.324-0.846,8.618-3.058,12.257c-1.58,2.598-3.293,5.188-4.138,8.137c-0.733,2.557-1.315,5.075-2.629,7.419
			c-0.141,0.251-0.284,0.502-0.43,0.753l-1.143,9.618l8.097-8.597c0.222-0.667,0.44-1.336,0.64-2.007
			c0.804-2.71,2.225-5.062,3.237-7.668c1-2.58,1.335-5.398,2.47-7.926c0.994-2.217,2.558-3.96,4.094-5.812
			c1.161-1.399,2.227-3.711,4.19-4.146c1.77-0.39,3.459,0.24,5.001,1.098c1.123,0.625,2.227,1.368,3.34,2.069l1.771-1.88
			L114.647,29.075z"/>
		<path opacity="0.05" d="M114.79,30.654c-1.474-0.953-3.025-1.786-4.76-2.39c-1.375-0.477-5.916-1.257-5.57-3.54
			c0.263-1.735,0.936-3.526,1.438-5.213c0.518-1.738,1.313-3.282,2.151-4.879c1.557-2.971,2.852-6.068,4.516-8.975l-0.197-2.217
			l-0.097,0.063c-0.832,1.153-1.655,2.313-2.409,3.515c-1.05,1.676-1.861,3.449-2.813,5.176c-0.922,1.67-2.013,3.267-2.85,4.982
			c-0.685,1.404-1.241,2.93-2.14,4.219c-1.341,1.922-2.859,1.666-4.849,0.812c-1.403-0.602-2.835-0.846-4.286-1.299
			c-1.581-0.492-3.084-1.132-4.739-1.349c-0.005-0.001-0.008-0.003-0.011-0.004c-0.131,0.028-0.263,0.057-0.393,0.085l-0.146,1.225
			c2.398,1.149,4.768,2.448,7.117,3.659c1.437,0.74,3.844,1.932,3.817,3.871c-0.024,1.659-1.032,3.012-1.948,4.321
			c-1.621,2.323-2.917,4.839-3.441,7.647c-0.509,2.726-0.383,5.508-1.733,8.014c-1.374,2.548-2.997,5.017-4.5,7.493
			c-1.243,2.05-2.789,3.868-4.164,5.815l-0.672,5.665l3.347-3.554c0.511-1.27,1.088-2.515,1.688-3.742
			c2.7-5.536,6.635-10.839,8.168-16.837c0.907-3.551,2.064-6.799,3.974-9.954c1.255-2.071,2.771-4.222,5.479-3.792
			c2.318,0.368,4.434,1.531,6.578,2.434c0.63,0.265,1.943,0.688,2.929,1.297l0.679-0.721L114.79,30.654z"/>
		
			<rect x="97.038" y="-2.379" transform="matrix(0.9038 0.428 -0.428 0.9038 24.2406 -38.4498)" fill="#998369" width="1.186" height="74.128"/>
		
			<rect x="101.082" y="7.58" transform="matrix(-0.4277 0.9039 -0.9039 -0.4277 168.7887 -54.5847)" fill="#AD9477" width="1.185" height="37.127"/>
	</g>
	<g>
		<path fill="#CFA576" d="M86.065,44.15c0,0,15.828,10.294,13.715,18.061c-2.112,7.768-13.466,1.121-15.493-2.683
			c0,0,2.222,10.817-1.873,18.249c0,0,7.84,16.438,1.086,19.871c-6.395,3.252-12.416-8.934-14.075-16.371
			c0,0-5.332,20.422-13.918,16.479c-8.484-3.895-0.836-20.339-0.836-20.339s-3.194-10.175-0.229-17.811
			c0,0-10.909,10.617-15.007,4.245c-4.66-7.245,10.279-17.003,14.927-19.206C59.01,42.445,86.065,44.15,86.065,44.15z"/>
		<path opacity="0.05" d="M86.065,44.15c0,0-1.183-0.075-3.091-0.172c2.014,1.921,3.341,4.448,5.371,6.36
			c2.477,2.332,6.171,3.502,8.22,6.276c1.318,1.787,2.521,4.289,0.909,6.25c-1.467,1.787-5.273,0.604-6.935-0.104
			c-2.427-1.031-4.584-4.474-7.323-4.441c0.08,4.541,0.999,9.156-0.11,13.628c-0.488,1.976-1.606,4.209-1.445,6.271
			c0.135,1.728,0.743,3.336,1.379,4.935c1.074,2.693,2.298,5.537,1.371,8.449c-0.472,1.483-1.975,3.524-3.781,3.2
			c-1.814-0.325-3.109-2.081-4.057-3.525c-1.323-2.01-2.346-4.176-3.483-6.29c-0.402-0.745-0.879-1.351-1.369-2.034
			c-0.445-0.621-0.869-1.409-1.484-1.873c-1.502-1.13-2.818,0.695-3.361,1.848c-1.502,3.185-2.481,6.937-4.728,9.705
			c-1.656,2.039-6.523,3.802-8.11,0.579c-0.907-1.842-0.495-3.814-0.325-5.775c0.179-2.066,0.583-3.903,1.38-5.829
			c0.732-1.77,1.679-3.543,1.129-5.5c-0.321-1.152-0.663-2.271-0.839-3.454c-0.387-2.599-0.709-5.34-0.09-7.936
			c0.514-2.151,2.776-5.18,1.492-7.318c-0.643-1.075-1.839-0.948-2.891-0.59c-2.669,0.913-4.956,2.662-7.453,3.933
			c-1.216,0.619-3.361,1.798-4.515,0.467c-1.555-1.794,0.529-6.403,1.604-8.04c1.659-2.527,4.202-4.16,6.88-5.509
			c1.484-1.366,3.367-2.497,5.288-3.429c-0.547,0.12-1.001,0.258-1.335,0.415c-4.648,2.203-19.587,11.961-14.927,19.206
			c4.098,6.372,15.007-4.245,15.007-4.245c-2.964,7.636,0.229,17.811,0.229,17.811s-7.648,16.444,0.836,20.339
			c8.586,3.942,13.918-16.479,13.918-16.479c1.659,7.438,7.681,19.623,14.075,16.371c6.754-3.433-1.086-19.871-1.086-19.871
			c4.095-7.432,1.873-18.249,1.873-18.249c2.027,3.804,13.381,10.451,15.493,2.683C101.894,54.444,86.065,44.15,86.065,44.15z"/>
		<path opacity="0.05" d="M60.813,51.936c0,0-4.18,4.252-4.056,14.648c0.124,10.396,9.051,12.492,14.2,11.995
			c5.149-0.498,10.67-3.549,11.122-11.341c0.453-7.793,0.142-16.584-6.854-17.421C68.227,48.98,62.315,49.7,60.813,51.936z"/>
		<path fill="#EBD5BE" d="M61.41,52.771c0,0-3.892,3.959-3.776,13.64c0.115,9.677,8.426,11.63,13.22,11.167
			c4.796-0.463,9.937-3.303,10.356-10.559c0.423-7.256,0.133-15.441-6.383-16.221C68.313,50.02,62.809,50.69,61.41,52.771z"/>
		<path opacity="0.2" fill="#FFFFFF" d="M62.528,52.441c0,0-3.326,3.384-3.228,11.66c0.098,8.274,7.203,9.942,11.302,9.548
			c4.1-0.395,8.494-2.825,8.854-9.027c0.359-6.205,0.111-13.201-5.458-13.867C68.431,50.088,63.725,50.662,62.528,52.441z"/>
		<path opacity="0.05" d="M86.065,44.15c0,0-27.056-1.706-31.704,0.496c-0.361,0.172-0.784,0.389-1.255,0.647
			c1.935,5.622,6.653,11.124,17.755,10.835c10.41-0.27,14.473-6.007,15.979-11.453C86.352,44.337,86.065,44.15,86.065,44.15z"/>
		<path fill="#BD9664" d="M59.973,23.221c0,0,7.85-5.652,22.45-0.582c0,0,6.702-4.938,9.757,1.057
			c2.808,5.513-4.813,8.578-4.813,8.578s3.439,20.727-16.572,21.245C48.386,54.099,51.98,31.102,51.98,31.102
			s-5.643-5.113-1.063-9.269C55.153,17.989,59.973,23.221,59.973,23.221z"/>
		<path opacity="0.05" d="M92.18,23.696c-3.055-5.995-9.757-1.057-9.757-1.057c-3.378-1.172-6.393-1.771-9.033-1.999
			c4.131,4.534,9.528,13.579-0.143,23.679c-4.978,5.198-9.764,6.779-13.968,6.535c2.747,1.728,6.471,2.795,11.516,2.665
			c20.012-0.518,16.572-21.245,16.572-21.245S94.987,29.209,92.18,23.696z"/>
		<g opacity="0.1">
			<path d="M70.715,50.449c-15.121,0.393-18.401-9.952-18.936-16.721c-0.159,6.014,1.325,20.249,19.016,19.791
				C87.95,53.074,87.872,37.78,87.5,33.423C87.313,39.511,84.936,50.082,70.715,50.449z"/>
			<path d="M51.901,28.034c0,0-1.835-1.667-2.562-3.87c-0.937,2.923,1.502,5.773,2.357,6.656
				C51.73,29.122,51.901,28.034,51.901,28.034z"/>
			<path d="M87.288,29.207c0,0,0.197,1.19,0.222,3.007c0.969-0.427,6.651-3.164,4.979-7.793
				C91.456,27.526,87.288,29.207,87.288,29.207z"/>
		</g>
		<path fill="#594935" d="M74.192,38.074c0.014,0.56-1.269,2.227-2.902,2.27c-1.635,0.042-3-1.556-3.016-2.117
			c-0.016-0.56,1.299-1.049,2.932-1.091C72.84,37.094,74.177,37.513,74.192,38.074z"/>
		<g>
			<circle fill="#594935" cx="77.726" cy="32.904" r="1.075"/>
			<circle opacity="0.2" fill="#FFFFFF" cx="77.544" cy="32.702" r="0.464"/>
		</g>
		<g>
			<path fill="#594935" d="M71.29,40.344c0,0,0.064,0.797-0.297,1.957c-0.098,0.287-0.225,0.593-0.397,0.903
				c-0.184,0.304-0.401,0.62-0.694,0.896c-0.297,0.267-0.643,0.527-1.05,0.672c-0.399,0.161-0.84,0.235-1.265,0.236
				c-0.225-0.019-0.404,0.009-0.662-0.055l-0.563-0.125c-0.187-0.043-0.371-0.087-0.554-0.13c-0.188-0.087-0.374-0.173-0.557-0.258
				c-0.18-0.089-0.362-0.166-0.526-0.261c-0.146-0.118-0.29-0.232-0.429-0.344c-0.295-0.203-0.5-0.472-0.688-0.715
				c-0.211-0.224-0.31-0.499-0.429-0.71c-0.115-0.216-0.162-0.43-0.226-0.589c-0.092-0.337-0.1-0.535-0.1-0.535
				c0,0,0.078,0.183,0.241,0.476c0.097,0.139,0.183,0.323,0.335,0.498c0.16,0.169,0.295,0.389,0.517,0.563
				c0.206,0.188,0.419,0.393,0.699,0.542c0.132,0.083,0.267,0.168,0.404,0.255c0.148,0.058,0.299,0.116,0.453,0.176
				c0.15,0.062,0.304,0.124,0.458,0.188c0.185,0.034,0.371,0.068,0.56,0.103l0.566,0.112c0.117,0.035,0.334,0.012,0.495,0.024
				c0.347,0.008,0.69-0.043,1.001-0.16c0.315-0.107,0.604-0.276,0.859-0.479c0.25-0.211,0.47-0.45,0.662-0.698
				c0.18-0.257,0.341-0.512,0.476-0.761c0.259-0.501,0.443-0.949,0.547-1.271C71.235,40.534,71.29,40.344,71.29,40.344z"/>
		</g>
		<g>
			<path fill="#594935" d="M71.29,40.344c0,0,0.041,0.176,0.113,0.483c0.067,0.306,0.195,0.736,0.365,1.233
				c0.174,0.494,0.404,1.063,0.753,1.571c0.347,0.507,0.835,0.92,1.418,1.011c0.141,0.02,0.311,0.031,0.434,0.029
				c0.175-0.014,0.362-0.021,0.524-0.041c0.297-0.053,0.611-0.106,0.887-0.224c0.563-0.213,0.987-0.598,1.294-1.002
				c0.296-0.41,0.506-0.809,0.641-1.093c0.139-0.285,0.239-0.439,0.239-0.439s-0.033,0.178-0.09,0.49
				c-0.071,0.305-0.136,0.769-0.395,1.283c-0.246,0.51-0.716,1.085-1.401,1.402c-0.332,0.173-0.7,0.276-1.098,0.343
				c-0.187,0.028-0.355,0.037-0.536,0.057c-0.233,0.012-0.421,0.002-0.636-0.035c-0.857-0.146-1.521-0.79-1.86-1.42
				c-0.355-0.64-0.516-1.281-0.601-1.826C71.184,41.068,71.29,40.344,71.29,40.344z"/>
		</g>
		<path fill="#EBD5BE" d="M84.269,23.904c0,0,4.209-2.631,5.753,0.926c1.46,3.364-3.452,4.923-3.452,4.923
			S86.027,27.102,84.269,23.904z"/>
		<path opacity="0.05" d="M84.508,24.407c0,0,3.613-2.26,4.937,0.794c1.254,2.886-2.963,4.226-2.963,4.226
			S86.017,27.15,84.508,24.407z"/>
		<path fill="#EBD5BE" d="M53.152,28.659c0,0-3.394-2.883-1.125-5.337c2.502-2.706,4.982-0.269,5.636,0.817
			C57.663,24.139,55.421,25.995,53.152,28.659z"/>
		<path opacity="0.05" d="M53.518,28.269c0,0-2.777-2.359-0.921-4.368c2.047-2.215,4.077-0.22,4.611,0.67
			C57.208,24.57,55.374,26.088,53.518,28.269z"/>
		<g opacity="0.3">
			<g>
				<path fill="none" stroke="#594935" stroke-width="0.1965" stroke-linecap="round" stroke-linejoin="round" d="M53.207,45.61
					c0,0,0.488,0.785,0.995,2.131"/>
				
					<path fill="none" stroke="#594935" stroke-width="0.1965" stroke-linecap="round" stroke-linejoin="round" stroke-dasharray="2.9645,2.9645" d="
					M55.009,50.588c0.253,1.299,0.392,2.797,0.27,4.424"/>
				<path fill="none" stroke="#594935" stroke-width="0.1965" stroke-linecap="round" stroke-linejoin="round" d="M55.098,56.493
					c-0.126,0.745-0.312,1.511-0.567,2.292"/>
			</g>
		</g>
		
			<path opacity="0.3" fill="none" stroke="#594935" stroke-width="0.1965" stroke-linecap="round" stroke-linejoin="round" stroke-miterlimit="10" stroke-dasharray="4.7165" d="
			M83.507,58.033c0,0,0.155-9.144,2.723-12.554"/>
		
			<path opacity="0.3" fill="none" stroke="#594935" stroke-width="0.1965" stroke-linecap="round" stroke-linejoin="round" stroke-miterlimit="10" stroke-dasharray="4.7165" d="
			M54.987,77.447c0,0,6.984-0.87,13.876,3.376"/>
		
			<path opacity="0.3" fill="none" stroke="#594935" stroke-width="0.1965" stroke-linecap="round" stroke-linejoin="round" stroke-miterlimit="10" stroke-dasharray="4.7165" d="
			M70.238,80.788c0,0,3.685-3.634,11.495-2.952"/>
		<g>
			<circle fill="#594935" cx="63.988" cy="33.167" r="1.075"/>
			<circle opacity="0.2" fill="#FFFFFF" cx="63.806" cy="32.966" r="0.465"/>
		</g>
		
			<ellipse transform="matrix(0.9339 -0.3576 0.3576 0.9339 -6.6332 24.8937)" opacity="0.05" fill="#FFFFFF" cx="63.988" cy="30.381" rx="9.576" ry="7.445"/>
	</g>
	<g>
		<path fill="#696969" d="M114.89,63.086c0,0,6.593,6.207-4.312,13.763c-6.365,4.409-14.612,3.22-14.612,3.22
			S102.97,68.123,114.89,63.086z"/>
		<path opacity="0.1" d="M109.977,71.111c3.52-2.439,5.215-4.736,5.898-6.731c-0.493-0.829-0.985-1.293-0.985-1.293
			c-6.475,2.735-11.495,7.507-14.736,11.298C103.03,74.145,106.745,73.351,109.977,71.111z"/>
		<path fill="#B53E40" d="M91.823,61.326c1.063,2.29,2.911,4.585,5.391,6.474c2.479,1.89,5.184,3.06,7.675,3.476l0.011-0.066
			c4.103-2.165,8.133-5.562,11.497-9.981c6.818-8.954,8.868-19.421,5.771-26.196c-7.355-1.185-16.9,3.574-23.719,12.528
			c-3.364,4.419-5.568,9.207-6.564,13.738L91.823,61.326z"/>
		<circle fill="#696969" cx="108.013" cy="53.619" r="5.349"/>
		<circle fill="#7A7A7A" cx="108.013" cy="53.62" r="5.081"/>
		<circle fill="#696969" cx="108.014" cy="53.619" r="3.804"/>
		<circle fill="#83C8E6" cx="108.013" cy="53.619" r="3.366"/>
		<linearGradient id="SVGID_2_" gradientUnits="userSpaceOnUse" x1="111.0645" y1="40.6997" x2="123.5752" y2="40.6997">
			<stop  offset="0" style="stop-color:#080808"/>
			<stop  offset="0.9613" style="stop-color:#68605E"/>
			<stop  offset="1" style="stop-color:#6C6461"/>
		</linearGradient>
		<path fill="url(#SVGID_2_)" d="M123.152,46.546c0.792-4.295,0.478-8.316-0.984-11.514c-3.395-0.547-7.258,0.175-11.104,1.99
			C111.072,37.051,112.913,44.489,123.152,46.546z"/>
		<circle opacity="0.1" fill="#FFFFFF" cx="125.545" cy="29.855" r="0.787"/>
		<path fill="#B34448" d="M108.118,69.24c-2.875-0.801-5.864-2.273-8.652-4.396c-2.787-2.124-5.002-4.613-6.539-7.172
			c-0.431,1.22-0.78,2.432-1.042,3.626l-0.062,0.028c1.063,2.29,2.911,4.585,5.391,6.474c2.479,1.89,5.184,3.06,7.675,3.476
			l0.011-0.066C105.98,70.641,107.058,69.979,108.118,69.24z"/>
		<path opacity="0.1" fill="#FFFFFF" d="M104.897,52.351c-0.096,0.235-0.164,0.478-0.205,0.722l6.377-0.863
			c-0.104-0.226-0.235-0.441-0.391-0.643C108.752,51.829,106.825,52.09,104.897,52.351z"/>
		<path opacity="0.1" fill="#FFFFFF" d="M110.106,50.987c-0.021-0.015-0.035-0.031-0.054-0.046c-1.479-1.126-3.591-0.84-4.718,0.639
			c-0.013,0.019-0.025,0.04-0.039,0.058L110.106,50.987z"/>
		<path opacity="0.1" fill="#FFFFFF" d="M111.005,55.153c0.373-0.729,0.464-1.549,0.281-2.313l-6.638,0.898
			c0.029,0.785,0.335,1.552,0.889,2.155C107.359,55.647,109.183,55.399,111.005,55.153z"/>
		<path opacity="0.1" d="M116.396,61.228c6.818-8.954,8.868-19.421,5.771-26.196c-0.105-0.017-0.213-0.028-0.32-0.043
			c-0.669,6.641-3.604,14.025-8.705,20.726c-4.155,5.454-9.129,9.646-14.191,12.319l-0.014,0.081
			c-0.607-0.102-1.224-0.24-1.846-0.414c0.042,0.032,0.08,0.066,0.122,0.099c2.479,1.89,5.184,3.06,7.675,3.476l0.011-0.066
			C109.002,69.044,113.032,65.647,116.396,61.228z"/>
		<path opacity="0.1" fill="#FFFFFF" d="M122.568,37.232c0.362,0.793,0.651,1.639,0.873,2.526c-0.2-1.707-0.621-3.299-1.273-4.726
			c-7.355-1.185-16.9,3.574-23.719,12.528c-3.073,4.034-5.173,8.375-6.273,12.547c-0.008,0.033-0.016,0.064-0.023,0.096
			l-0.003,0.002c-0.009,0.03-0.017,0.061-0.024,0.092c0.196,0.412,0.421,0.825,0.666,1.235c1.148-3.933,3.177-7.987,6.058-11.772
			C105.668,40.805,115.216,36.047,122.568,37.232z"/>
	</g>
	<g>
		<path fill="#FBD15D" d="M53.424,36.166c-0.203,8.447-6.799,6.568-10.406,4.729c-3.606-1.838-5.812,0.391-7.037-0.132
			c-1.225-0.524-0.063-2.016,2.226-7.152c2.288-5.136-1.5-9.305-1.5-9.305s4.874-1.77,4.324-2.138
			c-0.55-0.371-5.072,1.14-5.072,1.14s2.175-6.355,1.603-6.353c-0.571,0.002-2.982,5.587-2.982,5.587
			c-13.058-1.898-13.775,8.463-13.775,8.463s-0.516,3.178,1.277,6.261c0,0,0.704,2.022-2.644,3.678
			c-3.344,1.655-4.976,13.241,8.005,17.802c12.981,4.562,21.521-2.639,24.419-7.621C54.762,46.144,54.411,37.915,53.424,36.166z"/>
		<path opacity="0.05" d="M20.712,40.651c1.543-0.335,3.376-0.327,4.745-1.198c1.561-0.994,2.393-2.442,2.976-4.153
			c0.125-0.369,0.316-0.821,0.299-1.215c-0.025-0.626-1-0.262-1.255-0.187c-0.552,0.164-1.093,0.36-1.651,0.497
			c-1.521,0.375-3.063,0.642-4.6,0.934c0.2,0.63,0.474,1.285,0.854,1.937c0,0,0.704,2.022-2.644,3.678
			c-0.238,0.119-0.469,0.289-0.687,0.503C19.35,41.084,20,40.806,20.712,40.651z"/>
		<g>
			<path opacity="0.1" d="M35.567,22.752c0,0,0.236-0.04,0.611-0.096c0.229-0.691,0.597-1.828,0.909-2.909
				C36.336,21.297,35.567,22.752,35.567,22.752z"/>
			<path opacity="0.05" d="M35.981,40.763c-1.225-0.524-0.063-2.016,2.226-7.152c2.288-5.136-1.5-9.305-1.5-9.305
				s1.387-0.504,2.597-1.029c-1.432,0.374-3.093,0.694-3.093,0.694s3.417,5.211,0.028,10.425c-3.389,5.215-4.917,6.643-3.67,7.427
				c1.248,0.784,4.043-1.269,7.665,1.364c3.499,2.544,10.042,5.612,11.999-2.479c-2.105,2.973-6.503,1.569-9.213,0.187
				C39.412,39.058,37.207,41.286,35.981,40.763z"/>
			<path opacity="0.1" d="M41.061,22.283c0.021-0.046,0.015-0.086-0.029-0.115c-0.165-0.11-0.687-0.053-1.338,0.083
				C40.271,22.218,40.766,22.22,41.061,22.283z"/>
			<path opacity="0.1" d="M37.35,17.101c-0.056,0.062-0.117,0.142-0.183,0.235C37.229,17.255,37.289,17.176,37.35,17.101z"/>
		</g>
		<path opacity="0.05" d="M54.042,43.279c-0.313,0.879-0.687,1.717-1.133,2.484c-3.161,5.431-12.472,13.283-26.626,8.309
			c-4.533-1.593-7.429-3.972-9.156-6.529c0.402,3.963,3.101,8.669,10.316,11.204c12.981,4.562,21.521-2.639,24.419-7.621
			C53.173,48.875,53.818,45.96,54.042,43.279z"/>
		<path opacity="0.05" d="M31.107,52.887c0,0,10.659,2.476,13.585-7.141C44.692,45.747,42.782,58.975,31.107,52.887z"/>
		<circle fill="#594935" cx="27.156" cy="29.323" r="0.831"/>
		<circle opacity="0.15" fill="#FFFFFF" cx="26.95" cy="29.084" r="0.314"/>
		<path fill="#FBA12B" d="M15.783,31.38c0,0,3.997,0.526,5.082-0.923c0,0,2.555,2.352,3.832,2.387
			c1.276,0.036,3.292-0.812,4.105-0.106s-0.788,3.086-3.255,2.964c-2.469-0.124-6.658,0.563-7.845,1.091
			c-1.105,0.49-2.821,0.145-2.248-0.997c0.574-1.141,2.146-1.619,3.537-1.758c0,0-2.542-0.49-3.983-1.853
			C15.007,32.185,14.221,31.288,15.783,31.38z"/>
		<path opacity="0.1" d="M28.806,32.741c-0.496,1.283-2.052,2.104-3.351,2.258c-1.452,0.172-2.915,0.019-4.358,0.299
			c-1.378,0.267-2.637,0.764-3.984,1.108c-0.57,0.145-1.489-0.066-1.695-0.518c-0.437,1.066,1.21,1.382,2.284,0.906
			c1.187-0.528,5.376-1.215,7.845-1.091C28.011,35.824,29.611,33.45,28.806,32.741z"/>
		<g>
			<path fill="#594935" d="M18.991,34.038c0,0,0.388,0.059,0.972,0.099c0.584,0.033,1.367,0.057,2.144-0.02
				c0.39-0.014,0.779-0.047,1.141-0.102c0.363-0.045,0.704-0.083,0.989-0.153c0.577-0.106,0.962-0.177,0.962-0.177
				s-0.379,0.098-0.949,0.245c-0.285,0.078-0.625,0.125-0.989,0.181c-0.363,0.065-0.753,0.111-1.146,0.134
				c-0.785,0.055-1.572,0.01-2.158-0.04C19.371,34.137,18.991,34.038,18.991,34.038z"/>
		</g>
		
			<ellipse transform="matrix(-0.9696 -0.2445 0.2445 -0.9696 34.6754 69.2234)" fill="#594935" cx="21.634" cy="32.459" rx="0.292" ry="0.204"/>
	</g>
	<g>
		<polygon fill="#71C2E6" points="60.011,65.665 64.676,61.986 73.036,62.189 68.648,66.523 		"/>
		<polygon fill="#4AC47C" points="68.648,66.523 70.488,74.698 61.869,73.833 60.011,65.665 		"/>
		<polygon fill="#FBD15D" points="68.648,66.523 73.036,62.189 74.531,69.83 70.488,74.698 		"/>
	</g>
	<g>
		<g>
			<circle fill="#4AC47C" cx="84.391" cy="67.769" r="12.831"/>
			<path fill="#B4DEC5" d="M78.825,75.162c3.794,2.501,7.952,3.76,11.793,3.824c1.752-0.971,3.304-2.364,4.484-4.153
				c0.267-0.404,0.506-0.818,0.721-1.24c-4.459,1.281-9.338-0.122-13.899-3.131c-4.051-2.671-7.129-5.935-8.076-10
				c-0.056,0.082-0.113,0.161-0.169,0.242c-1.399,2.122-2.083,4.509-2.114,6.875C73.208,70.428,75.67,73.08,78.825,75.162z"/>
			<path opacity="0.1" d="M91.56,57.129c1.852,3.917,1.675,8.679-0.886,12.562c-3.9,5.915-11.858,7.549-17.774,3.647
				c-0.036-0.024-0.07-0.05-0.104-0.074c0.97,2.054,2.497,3.875,4.532,5.216c5.916,3.9,13.874,2.268,17.775-3.647
				C98.98,68.953,97.388,61.056,91.56,57.129z"/>
		</g>
		
			<ellipse transform="matrix(0.5505 -0.8348 0.8348 0.5505 -11.0599 99.3732)" opacity="0.15" fill="#FFFFFF" cx="86.756" cy="59.958" rx="3.584" ry="4.747"/>
		<path opacity="0.1" d="M79.858,73.475c-3.517-2.319-6.252-5.244-8.029-8.318c-1.037,4.997,0.979,10.344,5.498,13.324
			c4.798,3.164,10.939,2.686,15.17-0.763C88.472,77.607,83.992,76.201,79.858,73.475z"/>
	</g>
	<g>
		
			<ellipse transform="matrix(0.9226 0.3858 -0.3858 0.9226 25.3937 -9.5841)" fill="#A1A1A1" cx="36.579" cy="58.486" rx="37.619" ry="9.705"/>
		
			<ellipse transform="matrix(0.9226 0.3858 -0.3858 0.9226 24.2929 -10.3273)" opacity="0.1" cx="37.881" cy="55.372" rx="14.308" ry="4.09"/>
		<path opacity="0.1" d="M34.64,63.12C18.358,56.313,5.908,47.708,3.794,42.24c-0.953,0.415-1.61,0.989-1.922,1.733
			c-2.068,4.945,11.794,15.451,30.963,23.466c19.168,8.015,36.384,10.504,38.451,5.559c0.312-0.744,0.26-1.615-0.115-2.586
			C65.794,72.748,50.923,69.93,34.64,63.12z"/>
		<g>
			<path opacity="0.1" d="M3.852,42.381c-0.02-0.046-0.041-0.094-0.058-0.141c-0.022,0.01-0.042,0.021-0.064,0.03
				C3.771,42.307,3.811,42.344,3.852,42.381z"/>
			<path opacity="0.1" d="M30.64,63.77C18.566,58.722,8.435,52.764,2.492,47.602c3.156,5.477,15.063,13.449,30.343,19.838
				c19.168,8.015,36.384,10.504,38.451,5.559c0.241-0.574,0.263-1.224,0.09-1.937C66.735,74.633,49.564,71.684,30.64,63.77z"/>
		</g>
		<path fill="#71C2E6" d="M36.631,58.362c4.529,1.894,9.165,2.576,13.345,2.193c1.123-8.197-0.309-17.965-5.791-20.258
			c-5.483-2.293-13.442,3.55-18.488,10.106C28.362,53.647,32.102,56.468,36.631,58.362z"/>
		<path opacity="0.1" d="M42.67,60.178c2.511,0.471,4.979,0.589,7.306,0.376c0.863-6.297,0.215-13.52-2.616-17.569
			C48.156,47.927,46.042,54.33,42.67,60.178z"/>
		<path opacity="0.1" fill="#FFFFFF" d="M43.708,40.122c-5.459-1.782-13.109,3.913-18.011,10.282c1.83,2.227,4.166,4.254,6.917,5.92
			C34.773,49.282,38.815,42.35,43.708,40.122z"/>
		<g>
			<path fill="#7A7A7A" d="M25.697,50.403c0,0-1.301-0.353-3.273-0.779c-1.971-0.423-4.613-0.954-7.286-1.173
				c-1.333-0.118-2.676-0.155-3.92-0.039c-1.241,0.11-2.397,0.378-3.244,0.897c-0.86,0.498-1.336,1.238-1.488,1.799
				c-0.116,0.272-0.113,0.508-0.147,0.662c-0.024,0.156-0.037,0.239-0.037,0.239s0.007-0.084,0.021-0.241
				c0.024-0.155,0.007-0.395,0.105-0.677c0.122-0.571,0.551-1.397,1.44-1.949c0.426-0.298,0.953-0.497,1.509-0.683
				c0.565-0.159,1.173-0.291,1.809-0.349c1.27-0.134,2.631-0.113,3.98-0.007c1.349,0.122,2.686,0.33,3.93,0.562
				c1.245,0.232,2.392,0.518,3.372,0.769C24.425,49.953,25.697,50.403,25.697,50.403z"/>
		</g>
		<g>
			<path fill="#7A7A7A" d="M49.976,60.555c0,0,1.214,0.589,2.958,1.616c0.867,0.522,1.875,1.138,2.915,1.861
				c1.04,0.722,2.126,1.529,3.161,2.403c1.022,0.887,1.994,1.841,2.79,2.839c0.405,0.493,0.738,1.019,1.021,1.532
				c0.259,0.527,0.487,1.042,0.574,1.554c0.231,1.021-0.055,1.907-0.376,2.395c-0.131,0.269-0.313,0.425-0.407,0.551
				c-0.102,0.12-0.157,0.185-0.157,0.185s0.05-0.067,0.145-0.194c0.086-0.132,0.256-0.296,0.368-0.569
				c0.292-0.503,0.485-1.361,0.235-2.323c-0.225-0.967-0.847-1.979-1.64-2.939c-0.791-0.968-1.76-1.896-2.781-2.763
				c-2.033-1.749-4.267-3.257-5.952-4.363C51.141,61.233,49.976,60.555,49.976,60.555z"/>
		</g>
		<g>
			<path fill="#7A7A7A" d="M31.459,55.585c0,0-0.871,0.121-2.163,0.36c-1.288,0.248-3.011,0.586-4.65,1.168
				c-0.821,0.28-1.623,0.622-2.304,1.052c-0.328,0.229-0.651,0.449-0.899,0.716c-0.265,0.253-0.446,0.548-0.583,0.832
				c-0.112,0.294-0.179,0.581-0.181,0.841c-0.012,0.262,0.034,0.487,0.073,0.673c0.099,0.366,0.18,0.573,0.18,0.573
				s-0.023-0.05-0.068-0.143c-0.038-0.095-0.124-0.226-0.177-0.412c-0.125-0.359-0.242-0.949-0.009-1.605
				c0.239-0.648,0.801-1.263,1.498-1.729c0.704-0.461,1.521-0.828,2.355-1.127c0.84-0.286,1.698-0.501,2.507-0.673
				c0.81-0.173,1.575-0.274,2.229-0.359C30.579,55.595,31.459,55.585,31.459,55.585z"/>
		</g>
		<g>
			<path fill="#7A7A7A" d="M41.371,59.901c0,0,0.748,0.615,1.775,1.644c1.023,1.03,2.319,2.485,3.362,4.139
				c0.501,0.836,0.941,1.724,1.166,2.629c0.226,0.899,0.123,1.866-0.362,2.469c-0.218,0.31-0.502,0.519-0.761,0.667
				c-0.249,0.169-0.508,0.231-0.698,0.325c-0.409,0.113-0.642,0.178-0.642,0.178s0.226-0.085,0.621-0.232
				c0.179-0.109,0.426-0.192,0.651-0.377c0.234-0.165,0.481-0.384,0.668-0.674c0.419-0.571,0.448-1.437,0.229-2.282
				c-0.225-0.853-0.666-1.709-1.168-2.519c-1-1.632-2.26-3.1-3.208-4.188C42.049,60.591,41.371,59.901,41.371,59.901z"/>
		</g>
		<circle fill="#7A7A7A" cx="21.781" cy="46.151" r="0.99"/>
		<circle fill="#7A7A7A" cx="23.648" cy="52.491" r="0.99"/>
		<circle fill="#7A7A7A" cx="35.694" cy="60.604" r="0.99"/>
		<circle fill="#7A7A7A" cx="49.197" cy="63.616" r="0.99"/>
		<circle fill="#7A7A7A" cx="54.115" cy="59.671" r="0.99"/>
		<g>
			<path fill="#7A7A7A" d="M27.302,48.459c0,0,0.028-0.112,0.025-0.299c0.016-0.09-0.031-0.206-0.048-0.332
				c-0.011-0.129-0.078-0.262-0.142-0.408c-0.066-0.145-0.113-0.309-0.238-0.45c-0.108-0.148-0.225-0.301-0.333-0.466
				c-0.121-0.157-0.285-0.292-0.429-0.444c-0.152-0.146-0.294-0.306-0.458-0.443c-0.34-0.267-0.681-0.533-1-0.783
				c-0.322-0.248-0.654-0.439-0.923-0.625c-0.544-0.365-0.898-0.636-0.898-0.636s0.405,0.17,0.999,0.466
				c0.288,0.163,0.657,0.3,0.995,0.544c0.337,0.246,0.698,0.508,1.058,0.77c0.166,0.15,0.312,0.324,0.465,0.482
				c0.147,0.166,0.31,0.312,0.433,0.483c0.117,0.179,0.217,0.36,0.314,0.528c0.112,0.159,0.149,0.348,0.202,0.51
				c0.054,0.162,0.097,0.312,0.084,0.455c-0.006,0.14,0.021,0.257-0.014,0.356C27.358,48.366,27.302,48.459,27.302,48.459z"/>
		</g>
		<g>
			<path fill="#7A7A7A" d="M50.294,57.001c0,0,0.086-0.069,0.262-0.152c0.172-0.096,0.435-0.185,0.756-0.286
				c0.329-0.038,0.715-0.167,1.137-0.128c0.21,0.006,0.428,0.013,0.648,0.019c0.217,0.041,0.437,0.082,0.657,0.123
				c0.216,0.058,0.444,0.076,0.643,0.174c0.204,0.082,0.404,0.163,0.598,0.241c0.194,0.077,0.379,0.157,0.55,0.241
				c0.161,0.104,0.312,0.202,0.452,0.292c0.555,0.367,0.903,0.631,0.903,0.631s-0.412-0.171-0.996-0.458
				c-0.145-0.073-0.302-0.152-0.468-0.235c-0.175-0.06-0.36-0.123-0.552-0.188c-0.189-0.069-0.385-0.14-0.584-0.211
				c-0.194-0.089-0.413-0.095-0.62-0.144c-0.208-0.047-0.417-0.094-0.622-0.141c-0.209-0.013-0.416-0.027-0.615-0.04
				c-0.2-0.013-0.394-0.034-0.576-0.011c-0.184,0.01-0.358,0.02-0.519,0.029c-0.313,0.067-0.589,0.087-0.766,0.156
				C50.397,56.958,50.294,57.001,50.294,57.001z"/>
		</g>
		<path fill="#A6A6A6" d="M47.377,34.782c0.173-0.417-0.022-0.896-0.439-1.071l0,0c-0.417-0.175-0.897,0.021-1.072,0.439
			l-2.455,5.873c-0.175,0.417,0.021,0.896,0.439,1.072l0,0c0.417,0.173,0.896-0.023,1.071-0.44L47.377,34.782z"/>
		<circle fill="#7A7A7A" cx="46.938" cy="33.711" r="3.007"/>
		<circle opacity="0.1" fill="#FFFFFF" cx="46.407" cy="32.859" r="1.426"/>
		<path opacity="0.1" d="M50.292,57.049c-4.017,0.263-8.42-0.438-12.726-2.24c-3.966-1.658-7.327-4.028-9.892-6.771
			c-0.696,0.768-1.358,1.561-1.977,2.365c2.665,3.244,6.405,6.064,10.934,7.958s9.165,2.576,13.345,2.193
			C50.133,59.408,50.237,58.231,50.292,57.049z"/>
		<path opacity="0.1" fill="#FFFFFF" d="M25.627,47.76c0,0-15.54-8.07-18.36-4.068C5.965,45.541,25.627,47.76,25.627,47.76z"/>
		<path opacity="0.1" fill="#FFFFFF" d="M14.599,50.616c-2.244-2.87,12.379,2.067,12.379,2.067S19.873,57.358,14.599,50.616z"/>
		<path opacity="0.1" fill="#FFFFFF" d="M36.406,58.899c0,0-9.475-2.269-8.448-0.457c1.026,1.812,15.546,7.951,15.26,5.578
			C42.931,61.649,36.406,58.899,36.406,58.899z"/>
		<path opacity="0.1" fill="#FFFFFF" d="M51.967,58.772c0,0,11.035,2.517,13.861,7.401C68.656,71.058,53.611,61.446,51.967,58.772z"
			/>
		<path opacity="0.1" fill="#FFFFFF" d="M48.316,61.731c0,0-1.586,4.25,3.542,5.903c5.128,1.652,7.97,0.675,3.86-1.907
			C51.609,63.147,48.316,61.731,48.316,61.731z"/>
	</g>
	<g>
		<linearGradient id="SVGID_3_" gradientUnits="userSpaceOnUse" x1="36.8159" y1="126.3643" x2="36.8159" y2="66.4592">
			<stop  offset="0" style="stop-color:#8F6F57"/>
			<stop  offset="1" style="stop-color:#C49A76"/>
		</linearGradient>
		<polygon fill="url(#SVGID_3_)" points="60.098,127.068 13.534,112.636 13.534,60.528 60.098,74.961 		"/>
		<polygon opacity="0.1" points="18.896,62.189 13.534,60.528 13.534,88.11 		"/>
		<linearGradient id="SVGID_4_" gradientUnits="userSpaceOnUse" x1="88.7549" y1="114.4951" x2="88.7549" y2="63.6617">
			<stop  offset="0" style="stop-color:#B59274"/>
			<stop  offset="1" style="stop-color:#CFAD91"/>
		</linearGradient>
		<polygon fill="url(#SVGID_4_)" points="60.098,127.068 117.413,112.636 117.413,60.528 60.098,74.961 		"/>
		<polygon opacity="0.1" points="112.609,61.737 117.321,98.916 117.413,60.528 		"/>
	</g>
</g>
</svg>
