<?xml version="1.0" encoding="utf-8"?>
<!-- Generator: Adobe Illustrator 16.0.0, SVG Export Plug-In . SVG Version: 6.00 Build 0)  -->
<!DOCTYPE svg PUBLIC "-//W3C//DTD SVG 1.1//EN" "http://www.w3.org/Graphics/SVG/1.1/DTD/svg11.dtd">
<svg version="1.1" id="Layer_1" xmlns="http://www.w3.org/2000/svg" xmlns:xlink="http://www.w3.org/1999/xlink" x="0px" y="0px"
	 width="128px" height="128px" viewBox="0 0 128 128" enable-background="new 0 0 128 128" xml:space="preserve">
<g>
	
		<rect x="24.672" y="13.509" fill="#FFFFFF" stroke="#BCBEC0" stroke-width="0.4488" stroke-miterlimit="10" width="79.488" height="112.419"/>
</g>
<g>
	<path fill="#B5BCB5" d="M53.831,126.398l-15.608-15.607c-13.777-5.766-17.767,14.542-4.25,15.607H53.831z"/>
	<path fill="#CCCECC" d="M97.874,126.398c4.885,1.425,6.147-7.694-0.128-9.907c3.872-1.212,7.389-5.031,5.131-10.083
		c-2.73-6.108-8.109-3.301-12.093-2.365l-13.491,22.355H97.874L97.874,126.398z"/>
	<path fill="#E0E3E0" d="M83.995,126.398c-0.318-1.162-0.825-2.267-1.438-3.166c2.666,1.944,7.854,1.408,9.736-1.659
		c2.123-3.468-0.327-7.856-2.756-10.158c0,0-13.211-3.923-17.4-3.371c-4.121,0.542-10.036,11.084-10.191,18.354H83.995z"/>
	<path fill="#FDFDFD" d="M49.302,85.322c1.603-5.322,6.182-5.928,9.378-4.491c-3.317-2.214-2.212-8.711,0.72-10.927
		c2.411-1.823,5.911-1.165,8.167-0.297v-0.967c2.666-2.228,8.197,1.974,8.957,4.84c0.727,2.744-0.76,5.563-2.49,7.297
		c9.511-6.819,18.298,3.824,11.871,12.725c3.18-1.563,7.398,2.27,8.363,5.348c1.354,4.313,0.76,9.764-2.281,13.049
		c-3.633,3.922-11.409,4.352-14.436-1.19c-1.086,12.55-20.027,8.685-15.805-2.082c-4.906,3.999-9.015,0.374-10.452-3.547
		c-1.375-3.752,0.595-9.229,4.569-9.371C50.835,94.999,47.573,91.064,49.302,85.322z"/>
	<path fill="#FDFDFD" d="M40.475,121.438c-1.56,1.647-2.313,3.357-2.474,4.963H66.83c0.016-1.357-0.271-2.862-0.969-4.484
		c4.303,6.495,14.344,0.454,10.195-8.415c-0.315,0.161-19.133-20.133-19.133-20.133c-2.102-3.392-8.232-4.825-11.639-2.683
		c-4.13,2.602-3.318,9.606-1.758,13.526c-4.86-3.11-10.333,0.757-11.479,6.072C30.768,116.229,35.244,121.159,40.475,121.438z"/>
	<path fill="#E0E3E0" d="M94.268,98.85c1.354,4.313,0.76,9.766-2.281,13.049c-3.633,3.922-11.409,4.352-14.436-1.19
		c-1.086,12.55-20.027,8.685-15.805-2.082c-4.906,3.999-9.015,0.374-10.452-3.547c-1.375-3.752,0.595-9.229,4.569-9.371
		c-5.028-0.707-8.291-4.642-6.561-10.384c1.125-3.738,3.719-5.146,6.268-5.158c-1.348,5.104,1.07,12.355,6.905,11.677
		c-6.146,2.146,0.636,8.339,4.423,6.632c-3.069,3.695-3.898,12.219,4.09,13.426c5.218,0.789,7.718-6.564,8.384-10.599
		c0.062,6.007,5.31,10.115,9.418,7.216c5.213-3.682,6.407-12.166-2.739-14.981l0.535-0.278
		C89.657,92.477,93.369,95.986,94.268,98.85z"/>
	<path fill="#E0E3E0" d="M51.586,126.398h4.558c-0.408-1.683-0.366-3.797,0.317-6.418C54.837,122.07,53.26,124.543,51.586,126.398z"
		/>
	<path fill="#E0E3E0" d="M40.737,121.285c-1.675,1.699-2.497,3.457-2.691,5.113h4.181c-1.742-2.688,0.152-5.684,3.247-7.633
		c-4.27-0.299-8.552-3.149-8.704-7.902c-0.144-4.521,4.229-6.789,7.957-7.4c-0.286-0.322-0.594-0.624-0.916-0.906
		c0.084,0.232,0.172,0.461,0.261,0.678c-5.308-3.26-11.285,0.793-12.538,6.363C30.135,115.826,35.024,120.993,40.737,121.285z"/>
</g>
<g>
	<g id="nube_8_">
		<g>
			<path fill="#FFFFFF" stroke="#F1F2F2" stroke-width="0.4488" stroke-miterlimit="10" d="M21.05,45.568
				c-2.434,0-4.869,0.003-7.302-0.001c-1.819-0.001-3.638-0.009-5.456-0.014c-1.045-0.004-2.026-0.751-2.335-1.798
				c-0.13-0.443-0.155-0.907-0.143-1.368c0.028-1.075,0.302-2.074,0.857-2.985c0.454-0.747,1.081-1.296,1.794-1.748
				c0.799-0.507,1.676-0.798,2.588-0.97c0.652-0.123,1.312-0.21,1.97-0.305c0.099-0.013,0.123-0.059,0.139-0.147
				c0.39-2.09,1.35-3.839,2.873-5.24c0.933-0.86,2.005-1.453,3.221-1.739c0.773-0.181,1.559-0.218,2.347-0.179
				c0.933,0.047,1.839,0.235,2.697,0.628c1.23,0.561,2.21,1.443,2.979,2.591c0.157,0.232,0.31,0.469,0.46,0.705
				c0.04,0.065,0.078,0.082,0.153,0.072c0.634-0.086,1.269-0.144,1.908-0.095c0.77,0.06,1.492,0.263,2.106,0.79
				c0.718,0.615,1.06,1.418,1.105,2.378c0.031,0.663-0.039,1.319-0.12,1.974c-0.012,0.097,0.02,0.14,0.085,0.184
				c0.298,0.2,0.631,0.304,0.973,0.374c0.673,0.141,1.285,0.416,1.806,0.889c0.694,0.629,1.075,1.44,1.218,2.38
				c0.081,0.527,0.058,1.049-0.043,1.571c-0.154,0.784-0.617,1.294-1.28,1.625c-0.645,0.324-1.338,0.414-2.045,0.414
				c-2.633,0.002-5.267,0.003-7.9,0.004c-1.552,0-3.104,0-4.655,0C21.05,45.562,21.05,45.565,21.05,45.568z"/>
		</g>
	</g>
	<g id="nube_5_">
		<g>
			<path fill="#FFFFFF" stroke="#F1F2F2" stroke-width="0.4488" stroke-miterlimit="10" d="M28.043,50.5
				c-1.491,0-2.981,0.002-4.47-0.001c-1.114-0.001-2.228-0.005-3.34-0.008c-0.64-0.003-1.241-0.46-1.429-1.102
				c-0.081-0.271-0.096-0.554-0.089-0.837c0.018-0.657,0.185-1.269,0.525-1.828c0.278-0.457,0.662-0.792,1.097-1.068
				c0.491-0.313,1.026-0.489,1.584-0.594c0.4-0.076,0.803-0.129,1.207-0.187c0.06-0.01,0.075-0.037,0.085-0.091
				c0.238-1.278,0.826-2.351,1.758-3.208c0.571-0.526,1.227-0.89,1.972-1.063c0.474-0.111,0.954-0.135,1.437-0.11
				c0.571,0.028,1.126,0.144,1.651,0.384c0.753,0.344,1.354,0.884,1.824,1.586c0.096,0.144,0.19,0.287,0.281,0.433
				c0.025,0.039,0.049,0.05,0.095,0.043c0.388-0.052,0.776-0.087,1.168-0.058c0.47,0.037,0.913,0.161,1.289,0.483
				c0.439,0.377,0.649,0.868,0.676,1.457c0.019,0.405-0.024,0.807-0.073,1.207c-0.009,0.06,0.011,0.085,0.051,0.113
				c0.183,0.122,0.387,0.186,0.596,0.229c0.413,0.087,0.787,0.255,1.105,0.544c0.425,0.386,0.659,0.883,0.746,1.458
				c0.049,0.32,0.036,0.641-0.027,0.961c-0.094,0.479-0.376,0.791-0.783,0.994c-0.396,0.199-0.82,0.254-1.251,0.254
				c-1.613,0.001-3.224,0.002-4.835,0.002c-0.951,0.001-1.901,0.001-2.85,0.001C28.043,50.496,28.043,50.497,28.043,50.5z"/>
		</g>
	</g>
</g>
<g>
	<g id="nube_2_">
		<g>
			<path fill="#FFFFFF" stroke="#F1F2F2" stroke-width="0.4488" stroke-miterlimit="10" d="M106.595,35.101
				c2.435,0,4.866,0.002,7.301-0.001c1.818-0.001,3.64-0.009,5.455-0.015c1.045-0.003,2.026-0.751,2.336-1.797
				c0.131-0.443,0.156-0.906,0.145-1.368c-0.027-1.075-0.302-2.074-0.855-2.986c-0.453-0.746-1.08-1.295-1.793-1.747
				c-0.801-0.507-1.677-0.798-2.588-0.969c-0.654-0.125-1.313-0.211-1.972-0.305c-0.101-0.015-0.124-0.06-0.142-0.147
				c-0.389-2.09-1.349-3.839-2.871-5.241c-0.934-0.86-2.006-1.453-3.223-1.738c-0.771-0.183-1.559-0.219-2.347-0.18
				c-0.935,0.047-1.838,0.236-2.696,0.628c-1.229,0.561-2.211,1.444-2.979,2.591c-0.156,0.233-0.31,0.468-0.459,0.706
				c-0.04,0.063-0.079,0.082-0.154,0.071c-0.633-0.087-1.271-0.144-1.905-0.094c-0.771,0.059-1.494,0.263-2.106,0.789
				c-0.718,0.615-1.06,1.418-1.104,2.379c-0.029,0.663,0.039,1.319,0.119,1.974c0.014,0.096-0.02,0.139-0.084,0.183
				c-0.299,0.201-0.632,0.304-0.975,0.375c-0.672,0.14-1.282,0.415-1.805,0.888c-0.693,0.63-1.076,1.44-1.22,2.381
				c-0.079,0.525-0.058,1.048,0.044,1.571c0.153,0.783,0.617,1.293,1.279,1.625c0.646,0.322,1.338,0.412,2.044,0.413
				c2.634,0.001,5.269,0.002,7.899,0.003c1.554,0.002,3.104,0,4.656,0C106.595,35.094,106.595,35.097,106.595,35.101z"/>
		</g>
	</g>
	<g id="nube_1_">
		<g>
			<path fill="#FFFFFF" stroke="#F1F2F2" stroke-width="0.4488" stroke-miterlimit="10" d="M99.601,40.032
				c1.489,0,2.979,0.001,4.472-0.001c1.112,0,2.227-0.005,3.339-0.009c0.641-0.002,1.24-0.459,1.432-1.1
				c0.079-0.271,0.096-0.557,0.088-0.838c-0.019-0.66-0.187-1.271-0.523-1.83c-0.28-0.456-0.662-0.793-1.1-1.068
				c-0.488-0.312-1.025-0.489-1.584-0.595c-0.398-0.075-0.805-0.129-1.207-0.187c-0.062-0.009-0.074-0.036-0.084-0.091
				c-0.238-1.278-0.826-2.349-1.76-3.207c-0.57-0.527-1.229-0.89-1.973-1.064c-0.475-0.111-0.954-0.134-1.438-0.109
				c-0.57,0.029-1.125,0.145-1.649,0.385c-0.755,0.342-1.354,0.883-1.825,1.585c-0.096,0.143-0.188,0.287-0.28,0.432
				c-0.022,0.04-0.049,0.051-0.095,0.045c-0.389-0.054-0.775-0.088-1.167-0.058c-0.474,0.036-0.914,0.16-1.29,0.482
				c-0.438,0.377-0.648,0.868-0.678,1.456c-0.018,0.405,0.025,0.808,0.074,1.208c0.008,0.06-0.013,0.085-0.054,0.112
				c-0.183,0.124-0.386,0.186-0.594,0.229c-0.412,0.087-0.788,0.254-1.106,0.543c-0.424,0.386-0.658,0.883-0.746,1.458
				c-0.049,0.32-0.035,0.642,0.027,0.962c0.094,0.479,0.377,0.791,0.783,0.994c0.395,0.196,0.818,0.253,1.252,0.253
				c1.611,0.001,3.225,0.002,4.836,0.003c0.95,0,1.898,0,2.85,0C99.601,40.027,99.601,40.03,99.601,40.032z"/>
		</g>
	</g>
</g>
<g>
	<path opacity="0.3" fill="#333333" enable-background="new    " d="M24.836,89.611c0.249-0.014,1.281-0.491-1.952-8.473
		c0,0,0.498-0.768-0.359-1.078c0,0-2.709-6.918-5.796-10.412c0,0-1.315-0.442-1.476,0.694c0,0-0.441,4.765,2.341,11.628
		c0,0-0.033,1.646,1.087,1.717c0,0-0.051-0.058-0.091-0.261l15.219,42.979c0,0,0.109-0.125,0.304-0.293
		c-0.191,0.169-0.304,0.293-0.304,0.293c1.797,0.92,3.727-0.857,3.727-0.857L24.836,89.611z"/>
	<g>
		<path fill="#CC3333" d="M26.259,88.979c0,0,1.703,0.438-1.903-8.47c0,0,0.498-0.767-0.36-1.079c0,0-2.708-6.918-5.795-10.412
			c0,0-1.315-0.44-1.477,0.696c0,0-0.439,4.765,2.341,11.625c0,0-0.033,1.647,1.087,1.722c0,0-0.266-0.295-0.063-1.924
			c0,0,1.355-1.008,1.771-0.617c0,0-0.031,0.035,0.48,0.256C22.341,80.773,24.509,88.511,26.259,88.979z"/>
		<path fill="#E6E6E6" d="M39.007,124.919l-15.934-45.09c0,0-2.455-0.533-3.642,1.192l15.848,44.754
			C35.28,125.775,36.926,123.869,39.007,124.919z"/>
		<path fill="#CCCCCC" d="M37.949,124.666L21.933,79.759l-0.935,0.156l16.053,44.774C37.052,124.689,37.409,124.568,37.949,124.666z
			"/>
		<path fill="#D34658" d="M39.007,124.919c0,0-1.929,1.774-3.728,0.856C35.28,125.775,37.194,123.637,39.007,124.919z"/>
	</g>
</g>
<g>
	<path opacity="0.3" fill="#333333" enable-background="new    " d="M33.773,125.979c0,0-0.128-0.002-0.331,0.018
		C33.643,125.977,33.773,125.979,33.773,125.979L12.647,85.891c0.708-0.873-0.524-1.968-0.524-1.968
		c-3.157-6.696-6.955-9.604-6.955-9.604c-0.947-0.653-1.512,0.611-1.512,0.611c0.473,4.641,3.719,11.321,3.719,11.321
		c-0.352,0.842,0.549,0.995,0.549,0.995c3.673,7.795,4.723,7.355,4.901,7.182l17.792,33.709
		C30.617,128.137,33.229,127.922,33.773,125.979z M33.401,125.999c-0.013,0.001-0.027,0.002-0.041,0.003
		C33.375,126.001,33.386,126,33.401,125.999z M12.647,85.891l-0.127-0.244C12.638,85.811,12.647,85.886,12.647,85.891z"/>
	<g>
		<path fill="#FBB03B" d="M31.269,126.514L8.948,84.219c0,0,1.273-2.164,3.345-1.865l22.134,42.002
			C34.427,124.355,31.91,124.271,31.269,126.514z"/>
		<path fill="#F7931E" d="M33.05,124.799L9.97,83.079l-0.897,0.307l23.096,41.582C32.168,124.968,32.501,124.791,33.05,124.799z"/>
		<path d="M13.507,92.768c0,0-0.834,1.549-4.931-7.146c0,0-0.9-0.151-0.549-0.995c0,0-3.246-6.684-3.717-11.32
			c0,0,0.564-1.268,1.511-0.611c0,0,3.8,2.908,6.955,9.604c0,0,1.231,1.093,0.525,1.966c0,0-0.035-0.396-1.37-1.351
			c0,0-1.659,0.312-1.655,0.884c0,0,0.048,0.001-0.138,0.524C10.138,84.323,14.353,91.164,13.507,92.768z"/>
		<path d="M31.269,126.514c0,0,2.613-0.214,3.158-2.158C34.427,124.355,31.557,124.313,31.269,126.514z"/>
	</g>
</g>
<g>
	<path opacity="0.3" fill="#333333" enable-background="new    " d="M122.327,96.327c0,0-4.782,0.051-11.323,3.521
		c0,0-1.643,0.136-1.599,1.259c0,0,0.051-0.06,0.25-0.118l-41.188,19.553c0,0,0.105,0.076,0.256,0.213
		c-0.15-0.137-0.256-0.213-0.256-0.213c-0.729,1.883,1.234,3.619,1.234,3.619l34.444-16.322c0.036,0.246,0.618,1.225,8.227-2.813
		c0,0,0.813,0.418,1.036-0.467c0,0,6.604-3.404,9.762-6.834C123.172,97.723,123.477,96.37,122.327,96.327z M68.785,120.807
		c-0.011-0.011-0.021-0.021-0.031-0.028C68.764,120.788,68.773,120.796,68.785,120.807z"/>
	<g>
		<path fill="#2E3192" d="M103.824,106.829c0,0-0.26,1.737,8.229-2.765c0,0,0.813,0.417,1.037-0.469c0,0,6.604-3.404,9.762-6.834
			c0,0,0.308-1.354-0.844-1.397c0,0-4.783,0.051-11.324,3.522c0,0-1.641,0.138-1.598,1.26c0,0,0.264-0.295,1.904-0.261
			c0,0,1.143,1.244,0.798,1.699c0,0-0.041-0.028-0.207,0.502C111.581,102.087,104.108,105.04,103.824,106.829z"/>
		<path fill="#E6E6E6" d="M69.383,123.2l43.215-20.479c0,0,0.279-2.497-1.56-3.499l-42.891,20.357
			C68.147,119.579,70.213,121.022,69.383,123.2z"/>
		<path fill="#CCCCCC" d="M69.524,122.122l43.024-20.543l-0.25-0.914l-42.891,20.566C69.409,121.231,69.564,121.573,69.524,122.122z
			"/>
		<path fill="#2E3192" d="M69.383,123.2c0,0-1.963-1.738-1.233-3.621C68.147,119.579,70.471,121.264,69.383,123.2z"/>
	</g>
</g>
<path fill="none" d="M51.088,41.379c-0.415,3.245,0.033,7.359,2.402,12.337c0,0,2.666-4.682,5.157-6.119L55.08,34.745
	C55.081,34.745,52.444,36.965,51.088,41.379"/>
<rect x="28.206" y="-0.375" fill="none" width="71.315" height="80.677"/>
<rect x="28.206" y="-0.375" fill="none" width="71.315" height="80.677"/>
<rect x="28.206" y="-0.375" fill="none" width="71.315" height="80.677"/>
<rect x="28.206" y="-0.375" fill="none" width="71.315" height="80.677"/>
<rect x="28.206" y="-0.375" fill="none" width="71.315" height="80.677"/>
<rect x="28.206" y="-0.375" fill="none" width="71.315" height="80.677"/>
<rect x="28.206" y="-0.375" fill="none" width="71.315" height="80.677"/>
<rect x="28.206" y="-0.375" fill="none" width="71.315" height="80.677"/>
<rect x="28.206" y="-0.375" fill="none" width="71.315" height="80.677"/>
<rect x="28.206" y="-0.375" fill="none" width="71.315" height="80.677"/>
<rect x="28.206" y="-0.375" fill="none" width="71.315" height="80.677"/>
<rect x="28.206" y="-0.375" fill="none" width="71.315" height="80.677"/>
<rect x="28.206" y="-0.375" fill="none" width="71.315" height="80.677"/>
<rect x="28.206" y="-0.375" fill="none" width="71.315" height="80.677"/>
<rect x="28.206" y="-0.375" fill="none" width="71.315" height="80.677"/>
<rect x="28.206" y="-0.375" fill="none" width="71.315" height="80.677"/>
<rect x="28.206" y="-0.375" fill="none" width="71.315" height="80.677"/>
<rect x="28.206" y="-0.375" fill="none" width="71.315" height="80.677"/>
<rect x="28.206" y="-0.375" fill="none" width="71.315" height="80.677"/>
<rect x="28.206" y="-0.375" fill="none" width="71.315" height="80.677"/>
<rect x="28.206" y="-0.375" fill="none" width="71.315" height="80.677"/>
<rect x="28.206" y="-0.375" fill="none" width="71.315" height="80.677"/>
<rect x="28.206" y="-0.375" fill="none" width="71.315" height="80.677"/>
<rect x="28.206" y="-0.375" fill="none" width="71.315" height="80.677"/>
<rect x="28.206" y="-0.375" fill="none" width="71.315" height="80.677"/>
<rect x="28.206" y="-0.375" fill="none" width="71.315" height="80.677"/>
<rect x="28.206" y="-0.375" fill="none" width="71.315" height="80.677"/>
<rect x="28.206" y="-0.375" fill="none" width="71.315" height="80.677"/>
<rect x="28.206" y="-0.375" fill="none" width="71.315" height="80.677"/>
<rect x="28.206" y="-0.375" fill="none" width="71.315" height="80.677"/>
<rect x="28.206" y="-0.375" fill="none" width="71.315" height="80.677"/>
<rect x="28.206" y="-0.375" fill="none" width="71.315" height="80.677"/>
<rect x="28.206" y="-0.375" fill="none" width="71.315" height="80.677"/>
<rect x="28.206" y="-0.375" fill="none" width="71.315" height="80.677"/>
<rect x="28.206" y="-0.375" fill="none" width="71.315" height="80.677"/>
<rect x="28.206" y="-0.375" fill="none" width="71.315" height="80.677"/>
<rect x="28.206" y="-0.375" fill="none" width="71.315" height="80.677"/>
<g>
	
		<linearGradient id="SVGID_1_" gradientUnits="userSpaceOnUse" x1="-39.7368" y1="-153.3721" x2="-13.4854" y2="-153.3721" gradientTransform="matrix(0.7134 -0.7007 -0.7007 -0.7134 -10.8821 -88.9942)">
		<stop  offset="0" style="stop-color:#561211"/>
		<stop  offset="1" style="stop-color:#EB2626"/>
	</linearGradient>
	<path fill="url(#SVGID_1_)" d="M70.6,52.273c0.037,0.097,0.072,0.198,0.105,0.298c0.004-0.016,0.006-0.033,0.006-0.048
		C70.713,52.439,70.672,52.354,70.6,52.273 M67.635,51.494c0.15,0.599,0.309,1.292,0.445,2.066c1.266-0.182,2.174-0.454,2.502-0.775
		c0.049-0.049,0.084-0.099,0.107-0.152c-0.709-0.35-1.451-0.651-2.217-0.896C68.197,51.65,67.916,51.567,67.635,51.494
		 M57.297,52.184c-0.061,0.07-0.092,0.144-0.094,0.218c-0.002,0.402,0.884,0.77,2.29,1.029c0.156-0.782,0.329-1.483,0.496-2.079
		l-0.48,0.102c-0.229,0.059-0.458,0.119-0.682,0.188C58.303,51.795,57.793,51.977,57.297,52.184"/>
	
		<linearGradient id="SVGID_2_" gradientUnits="userSpaceOnUse" x1="-478.77" y1="14.623" x2="-477.8181" y2="14.623" gradientTransform="matrix(0.1979 -22.0624 22.0624 0.1979 -164.2487 -10493.8711)">
		<stop  offset="0" style="stop-color:#F48020"/>
		<stop  offset="0.4784" style="stop-color:#EFB226"/>
		<stop  offset="1" style="stop-color:#ECE73B"/>
	</linearGradient>
	<path fill="url(#SVGID_2_)" d="M59.988,51.352c-0.167,0.596-0.339,1.297-0.496,2.079c-0.578,2.917-0.912,7.003,0.219,11.313
		l0.353-3.969c0,0-0.102,5.982,2.019,13.715l-0.168-5.599c0,0,1.633,10.613,1.625,11.441c0.009-0.828,1.832-11.411,1.832-11.411
		l-0.27,5.595c2.26-7.693,2.264-13.676,2.264-13.676l0.281,3.974c1.201-4.263,0.953-8.33,0.434-11.252
		c-0.137-0.775-0.295-1.467-0.445-2.066c-0.484-0.125-0.973-0.23-1.469-0.312c-0.037,0.159-0.07,0.319-0.105,0.473
		c-0.039,0.164-0.078,0.325-0.115,0.486c0.434,1.592,0.982,4.646,0.066,7.898l-0.162-2.292c0,0-0.004,3.452-1.307,7.887l0.154-3.227
		c0,0-1.052,6.104-1.057,6.579c0.005-0.475-0.935-6.597-0.935-6.597l0.094,3.229c-1.222-4.458-1.163-7.909-1.163-7.909l-0.205,2.289
		c-1.125-4.288,0.267-8.188,0.55-8.916c0.001-0.017,0.003-0.035,0.005-0.05c-0.354,0.031-0.704,0.074-1.052,0.13
		c-0.12,0.016-0.239,0.037-0.359,0.059L59.988,51.352"/>
	
		<linearGradient id="SVGID_3_" gradientUnits="userSpaceOnUse" x1="-481.3193" y1="19.3545" x2="-480.367" y2="19.3545" gradientTransform="matrix(0.1495 -16.6686 16.6686 0.1495 -186.9542 -7965.7676)">
		<stop  offset="0" style="stop-color:#F48020"/>
		<stop  offset="0.4784" style="stop-color:#EFB226"/>
		<stop  offset="1" style="stop-color:#ECE73B"/>
	</linearGradient>
	<path fill="url(#SVGID_3_)" d="M61.985,51.083c-0.284,0.728-1.677,4.628-0.55,8.916l0.204-2.289c0,0-0.058,3.45,1.163,7.908
		l-0.094-3.228c0,0,0.939,6.122,0.935,6.598c0.005-0.476,1.057-6.581,1.057-6.581l-0.154,3.228c1.303-4.436,1.307-7.887,1.307-7.887
		l0.162,2.292c0.916-3.252,0.365-6.306-0.066-7.898c-0.086,0.366-0.172,0.725-0.254,1.07c-0.002,0.008-0.004,0.015-0.006,0.021
		c0.582,2.314,0.217,4.331,0.217,4.331c0.033-1.525-0.121-2.888-0.313-3.952c-0.088,0.347-0.172,0.681-0.25,0.994
		c-0.104,0.433-0.223,0.828-0.316,1.18c-0.092,0.35-0.182,0.657-0.258,0.909c-0.006,0.021-0.014,0.044-0.02,0.066
		c-0.109,0.515-0.248,1.065-0.417,1.643l0.042-0.919l-0.152-0.001c-0.211,1.249-0.502,2.993-0.504,3.2
		c0.002-0.324-0.637-4.484-0.637-4.484l0.067,2.194c-0.833-3.031-0.792-5.375-0.792-5.375l-0.138,1.557
		c-0.099-0.383-0.172-0.761-0.218-1.13c-0.221,1.08-0.414,2.49-0.408,4.082c0,0-0.353-2.164,0.359-4.561
		C61.897,52.293,61.921,51.657,61.985,51.083"/>
	
		<linearGradient id="SVGID_4_" gradientUnits="userSpaceOnUse" x1="-430.1294" y1="86.4189" x2="-429.1768" y2="86.4189" gradientTransform="matrix(-0.2221 3.8188 3.8188 0.2221 -363.6667 1675.7622)">
		<stop  offset="0" style="stop-color:#F48020"/>
		<stop  offset="0.4784" style="stop-color:#EFB226"/>
		<stop  offset="1" style="stop-color:#ECE73B"/>
	</linearGradient>
	<path fill="url(#SVGID_4_)" d="M61.949,52.965c-0.713,2.398-0.359,4.562-0.359,4.562c-0.006-1.592,0.187-3.003,0.408-4.082
		C61.977,53.284,61.959,53.125,61.949,52.965"/>
	
		<linearGradient id="SVGID_5_" gradientUnits="userSpaceOnUse" x1="-421.8535" y1="-82.0537" x2="-420.9011" y2="-82.0537" gradientTransform="matrix(0.1536 3.8227 -3.8227 0.1536 -183.1611 1677.6227)">
		<stop  offset="0" style="stop-color:#F48020"/>
		<stop  offset="0.4784" style="stop-color:#EFB226"/>
		<stop  offset="1" style="stop-color:#ECE73B"/>
	</linearGradient>
	<path fill="url(#SVGID_5_)" d="M65.686,53.234c-0.033,0.129-0.064,0.255-0.096,0.379c0.191,1.064,0.344,2.427,0.313,3.952
		C65.902,57.565,66.266,55.549,65.686,53.234"/>
	
		<linearGradient id="SVGID_6_" gradientUnits="userSpaceOnUse" x1="-49.3818" y1="-155.0166" x2="-42.6554" y2="-155.0166" gradientTransform="matrix(0.7134 -0.7007 -0.7007 -0.7134 -10.8821 -88.9942)">
		<stop  offset="0" style="stop-color:#ECE73B"/>
		<stop  offset="0.4804" style="stop-color:#EEED89"/>
		<stop  offset="1" style="stop-color:#F2F5D2"/>
	</linearGradient>
	<path fill="url(#SVGID_6_)" d="M64.746,56.763c-0.141,0.462-0.221,0.724-0.221,0.724l-0.154-0.001l-0.043,0.919
		C64.499,57.828,64.637,57.277,64.746,56.763 M61.989,51.033c-0.001,0.015-0.003,0.033-0.004,0.05
		c-0.063,0.573-0.087,1.21-0.036,1.882c0.011,0.16,0.028,0.319,0.049,0.479c0.046,0.369,0.119,0.747,0.218,1.13l0.138-1.557
		c0,0-0.041,2.344,0.792,5.375L63.078,56.2c0,0,0.639,4.16,0.637,4.484c0.002-0.208,0.292-1.952,0.504-3.2L63.92,57.48
		c0,0-0.084-0.289-0.23-0.795c-0.072-0.253-0.152-0.56-0.241-0.913c-0.087-0.353-0.196-0.751-0.296-1.188
		c-0.099-0.431-0.209-0.901-0.325-1.399c-0.108-0.495-0.221-1.019-0.34-1.562c-0.042-0.205-0.084-0.412-0.126-0.623
		C62.238,51.011,62.113,51.022,61.989,51.033"/>
	
		<linearGradient id="SVGID_7_" gradientUnits="userSpaceOnUse" x1="-418.5645" y1="15.8379" x2="-417.6124" y2="15.8379" gradientTransform="matrix(4.6763 4.7609 4.7609 -4.6763 1955.2656 2113.103)">
		<stop  offset="0" style="stop-color:#561211"/>
		<stop  offset="1" style="stop-color:#EB2626"/>
	</linearGradient>
	<path fill="url(#SVGID_7_)" d="M68.424,51.194c2.791,0.184,6.426,6.964,6.426,6.964c3.232-6.902,3.064-12.249,1.945-16.008
		c-1.297-4.371-3.879-6.585-3.879-6.585l-3.637,12.658L68.424,51.194z"/>
	
		<linearGradient id="SVGID_8_" gradientUnits="userSpaceOnUse" x1="-526.6606" y1="-29.8677" x2="-525.7084" y2="-29.8677" gradientTransform="matrix(-5.7846 -0.0519 0.0519 -5.7846 -2968.2129 -155.1403)">
		<stop  offset="0" style="stop-color:#561211"/>
		<stop  offset="1" style="stop-color:#EB2626"/>
	</linearGradient>
	<path fill="url(#SVGID_8_)" d="M69.279,48.223c2.443,1.444,5.035,6.089,5.035,6.089c2.385-4.895,2.861-8.952,2.48-12.161
		c-1.299-4.37-3.881-6.585-3.881-6.585L69.279,48.223z"/>
	
		<linearGradient id="SVGID_9_" gradientUnits="userSpaceOnUse" x1="-446.7407" y1="12.9844" x2="-445.7889" y2="12.9844" gradientTransform="matrix(13.3104 0.1194 -0.1194 13.3104 6006.2119 -75.738)">
		<stop  offset="0" style="stop-color:#561211"/>
		<stop  offset="1" style="stop-color:#EB2626"/>
	</linearGradient>
	<path fill="url(#SVGID_9_)" d="M72.811,35.565c0,0,6.576,5.64,1.426,16.636c0,0-2.678-4.994-4.73-5.128L72.811,35.565z"/>
	
		<linearGradient id="SVGID_10_" gradientUnits="userSpaceOnUse" x1="-486.936" y1="-52.5293" x2="-485.9838" y2="-52.5293" gradientTransform="matrix(-4.7611 4.6764 -4.6764 -4.7611 -2509.3438 2073.1643)">
		<stop  offset="0" style="stop-color:#561211"/>
		<stop  offset="1" style="stop-color:#EB2626"/>
	</linearGradient>
	<path fill="url(#SVGID_10_)" d="M59.507,51.115c-2.792,0.132-6.548,6.849-6.548,6.849c-3.108-6.96-2.844-12.304-1.658-16.041
		c1.376-4.348,3.998-6.517,3.998-6.517l3.408,12.722L59.507,51.115z"/>
	
		<linearGradient id="SVGID_11_" gradientUnits="userSpaceOnUse" x1="-430.4956" y1="21.6455" x2="-429.5435" y2="21.6455" gradientTransform="matrix(7.9811 0.0716 -0.0716 7.9811 3488.5283 -97.1958)">
		<stop  offset="0" style="stop-color:#F6A8AC"/>
		<stop  offset="0.7773" style="stop-color:#EF4C3C"/>
		<stop  offset="1" style="stop-color:#EB2626"/>
	</linearGradient>
	<path fill="url(#SVGID_11_)" d="M58.706,48.129c-2.471,1.395-5.145,5.995-5.145,5.995c-2.297-4.936-2.702-9.002-2.262-12.199
		c1.375-4.351,3.999-6.519,3.999-6.519L58.706,48.129z"/>
	
		<linearGradient id="SVGID_12_" gradientUnits="userSpaceOnUse" x1="-444.9033" y1="13.9658" x2="-443.9507" y2="13.9658" gradientTransform="matrix(12.3737 0.111 -0.111 12.3737 5565.0718 -79.6778)">
		<stop  offset="0" style="stop-color:#561211"/>
		<stop  offset="1" style="stop-color:#EB2626"/>
	</linearGradient>
	<path fill="url(#SVGID_12_)" d="M55.403,35.409c0,0-6.678,5.52-1.723,16.608c0,0,2.766-4.944,4.821-5.042L55.403,35.409z"/>
	
		<linearGradient id="SVGID_13_" gradientUnits="userSpaceOnUse" x1="-36.2007" y1="-136.0459" x2="-15.7447" y2="-136.0459" gradientTransform="matrix(0.7134 -0.7007 -0.7007 -0.7134 -10.8821 -88.9942)">
		<stop  offset="0" style="stop-color:#561211"/>
		<stop  offset="1" style="stop-color:#EB2626"/>
	</linearGradient>
	<path fill="url(#SVGID_13_)" d="M66.633,49.487C66.633,49.488,66.633,49.488,66.633,49.487c0.631,0.124,1.252,0.282,1.855,0.477
		c0.137,0.042,0.273,0.091,0.408,0.135l0,0c-0.135-0.048-0.271-0.094-0.41-0.138C67.885,49.769,67.266,49.608,66.633,49.487
		 M58.97,49.828L58.97,49.828c0.183-0.054,0.368-0.102,0.552-0.148l0.975-0.211c-0.001,0-0.001,0-0.001,0l-0.973,0.21
		C59.339,49.725,59.155,49.774,58.97,49.828 M63.417,1.946c-2.56,2.517-9.174,10.337-9.298,24.108
		c-0.094,10.629,2.536,18.595,4.542,23.094c0.129-0.247,0.256-0.486,0.387-0.721c0.164-0.294,0.328-0.577,0.493-0.851
		c-1.75-3.764-4.591-11.563-4.493-22.388c0.119-13.233,6.455-20.458,8.382-22.351c0.347-0.34,0.55-0.508,0.55-0.508
		s8.666,7.402,8.527,23.015c0,0.023,0,0.047,0,0.071c0,0.017,0,0.037,0,0.056c-0.012,1.001-0.047,1.971-0.105,2.912
		c-0.514,8.545-2.771,14.878-4.408,18.448c-0.008,0.017-0.018,0.032-0.023,0.048c0.039,0.063,0.078,0.126,0.117,0.189
		c0.404,0.665,0.813,1.397,1.213,2.197c2.088-4.461,4.871-12.387,4.969-23.033c0.152-17.083-9.852-25.19-9.852-25.19
		S64.035,1.341,63.417,1.946"/>
	
		<linearGradient id="SVGID_14_" gradientUnits="userSpaceOnUse" x1="-39.1665" y1="-135.3574" x2="-28.4896" y2="-135.3574" gradientTransform="matrix(0.7134 -0.7007 -0.7007 -0.7134 -10.8821 -88.9942)">
		<stop  offset="0" style="stop-color:#561211"/>
		<stop  offset="1" style="stop-color:#EB2626"/>
	</linearGradient>
	<path fill="url(#SVGID_14_)" d="M66.51,49.464c0,0-0.002,0.001,0,0.001c0.041,0.009,0.082,0.017,0.123,0.023c0,0,0,0,0-0.001
		C66.592,49.481,66.551,49.472,66.51,49.464 M60.497,49.468L60.497,49.468l0.098-0.021c0.118-0.021,0.238-0.041,0.355-0.058
		c0.364-0.057,0.73-0.102,1.1-0.134l0,0c-0.37,0.03-0.735,0.077-1.097,0.133c-0.121,0.019-0.24,0.04-0.358,0.06L60.497,49.468
		 M72.4,28.384c-0.557,8.944-3.186,15.237-4.664,18.131c0.078,0.121,0.156,0.242,0.232,0.366c0.008-0.017,0.018-0.031,0.023-0.048
		C69.631,43.262,71.887,36.929,72.4,28.384 M63.429,2.838c-1.927,1.894-8.264,9.118-8.382,22.352
		c-0.097,10.825,2.743,18.624,4.493,22.388c0.354-0.585,0.706-1.122,1.047-1.613c-1.608-3.452-4.241-10.643-4.151-20.637
		c0.11-12.182,5.942-18.828,7.716-20.571c0.318-0.314,0.504-0.468,0.504-0.468s7.957,6.796,7.85,21.127c0-0.024,0-0.048,0-0.071
		C72.645,9.732,63.979,2.33,63.979,2.33S63.776,2.498,63.429,2.838"/>
	
		<linearGradient id="SVGID_15_" gradientUnits="userSpaceOnUse" x1="-43.0293" y1="-135.6211" x2="-15.8968" y2="-135.6211" gradientTransform="matrix(0.7134 -0.7007 -0.7007 -0.7134 -10.8821 -88.9942)">
		<stop  offset="0" style="stop-color:#561211"/>
		<stop  offset="1" style="stop-color:#EB2626"/>
	</linearGradient>
	<path fill="url(#SVGID_15_)" d="M67.482,30.477c-0.768,0.754-1.82,1.215-2.979,1.206c-1.656-0.017-3.078-0.987-3.75-2.383
		c-0.271-0.563-0.42-1.195-0.416-1.863c0.012-1.162,0.492-2.209,1.261-2.965c0.768-0.753,1.819-1.214,2.981-1.204
		c1.516,0.014,2.836,0.828,3.566,2.04c0.385,0.642,0.605,1.397,0.598,2.204C68.732,28.674,68.252,29.722,67.482,30.477
		 M64.152,4.757c-1.773,1.743-7.607,8.389-7.716,20.57c-0.09,9.995,2.542,17.186,4.151,20.637c0.208-0.296,0.413-0.577,0.614-0.841
		c-0.008-0.098-0.015-0.194-0.017-0.293c-0.005-0.268,0.017-0.53,0.056-0.787c-0.079-0.164-0.161-0.345-0.245-0.548
		c-0.187-0.481-0.46-1.059-0.681-1.746c-0.218-0.688-0.526-1.454-0.732-2.321c-0.114-0.432-0.233-0.882-0.355-1.345
		c-0.059-0.235-0.121-0.472-0.181-0.713c-0.048-0.243-0.094-0.491-0.143-0.741c-0.094-0.505-0.19-1.021-0.292-1.548
		c-0.102-0.529-0.201-1.069-0.25-1.627c-0.112-1.109-0.279-2.254-0.354-3.425c-0.037-1.173-0.075-2.364-0.11-3.555l-0.009-0.446
		c0.001-0.187,0.011-0.306,0.017-0.462l0.037-0.881l0.036-0.877c0.024-0.299,0.051-0.597,0.076-0.891
		c0.054-0.595,0.098-1.186,0.201-1.756c0.095-0.571,0.157-1.138,0.28-1.689c0.122-0.549,0.207-1.097,0.352-1.62
		c0.147-0.522,0.273-1.037,0.425-1.528c0.166-0.489,0.303-0.97,0.474-1.425c0.183-0.451,0.341-0.891,0.524-1.302
		c0.354-0.826,0.724-1.563,1.084-2.195c0.354-0.637,0.703-1.167,1.008-1.589c0.295-0.431,0.569-0.738,0.749-0.95
		c0.177-0.202,0.281-0.304,0.287-0.313c0,0,0,0,0,0s-0.083,0.124-0.217,0.363c-0.136,0.24-0.324,0.598-0.546,1.06
		c-0.226,0.46-0.468,1.034-0.731,1.692c-0.259,0.66-0.514,1.418-0.775,2.248c-0.25,0.834-0.478,1.746-0.703,2.714
		c-0.207,0.972-0.385,2.004-0.542,3.075c-0.15,1.072-0.254,2.192-0.327,3.312c-0.021,0.281-0.043,0.563-0.063,0.845l-0.023,0.878
		l-0.022,0.882c-0.001,0.135-0.009,0.313-0.007,0.42l0.014,0.435c0.017,1.164,0.035,2.327,0.054,3.473
		c0.07,1.141,0.141,2.265,0.208,3.354c0.019,0.546,0.105,1.077,0.156,1.6c0.057,0.521,0.11,1.034,0.165,1.53
		c0.026,0.25,0.055,0.496,0.082,0.738c0.04,0.24,0.076,0.476,0.114,0.707c0.07,0.47,0.138,0.918,0.202,1.353
		c0.033,0.216,0.064,0.429,0.097,0.637c0.04,0.205,0.08,0.406,0.12,0.601c0.073,0.394,0.143,0.766,0.209,1.116
		c0.129,0.705,0.29,1.305,0.395,1.811c0.015,0.056,0.027,0.109,0.042,0.162c0.022-0.095,0.047-0.188,0.074-0.284
		c0.137-0.495,0.32-0.963,0.525-1.396c0.403-0.861,0.918-1.577,1.356-2.079c0.169-0.185,0.314-0.343,0.44-0.466
		c0.044-0.041,0.083-0.08,0.121-0.115c0.144-0.133,0.23-0.206,0.23-0.206l0.605,0.006c0,0,0.09,0.073,0.23,0.208
		c0.145,0.137,0.33,0.337,0.549,0.591c0.43,0.509,0.93,1.235,1.324,2.104c0.17,0.386,0.328,0.799,0.449,1.233
		c0.064-0.182,0.143-0.412,0.246-0.678c0.121-0.375,0.27-0.832,0.436-1.352c0.146-0.529,0.313-1.125,0.494-1.775
		c0.182-0.649,0.314-1.371,0.502-2.117c0.199-0.745,0.299-1.556,0.467-2.379c0.076-0.414,0.152-0.834,0.23-1.259
		c0.057-0.429,0.109-0.864,0.164-1.303c0.059-0.437,0.117-0.877,0.174-1.32c0.064-0.442,0.123-0.885,0.141-1.336
		c0.068-0.892,0.139-1.788,0.203-2.667c0.018-0.214,0.033-0.427,0.047-0.639c0.004-0.22,0.006-0.44,0.01-0.658
		c0.004-0.437,0.008-0.867,0.014-1.29c0.006-0.424,0.008-0.84,0.016-1.248c-0.01-0.403-0.049-0.792-0.07-1.174
		c-0.025-0.381-0.049-0.753-0.072-1.114c-0.021-0.36-0.021-0.712-0.084-1.042c-0.102-0.664-0.178-1.278-0.244-1.823
		c-0.031-0.274-0.07-0.528-0.129-0.757c-0.049-0.233-0.096-0.446-0.137-0.638c-0.162-0.772-0.244-1.221-0.244-1.221
		s0.156,0.423,0.412,1.176c0.059,0.189,0.129,0.398,0.205,0.626c0.084,0.226,0.15,0.475,0.211,0.747
		c0.131,0.538,0.277,1.146,0.422,1.815c0.15,0.668,0.207,1.413,0.314,2.195c0.045,0.391,0.104,0.794,0.137,1.206
		c0.014,0.406,0.021,0.824,0.033,1.247c0.014,0.424,0.021,0.854,0.031,1.29c0.004,0.219,0.01,0.437,0.016,0.658
		c-0.008,0.258-0.025,0.454-0.041,0.686c-0.059,0.894-0.117,1.803-0.176,2.711c-0.023,0.455-0.088,0.907-0.158,1.354
		c-0.063,0.449-0.127,0.898-0.191,1.341c-0.066,0.441-0.133,0.883-0.197,1.315c-0.096,0.43-0.188,0.855-0.281,1.271
		c-0.189,0.834-0.344,1.645-0.59,2.389c-0.225,0.749-0.416,1.464-0.654,2.105c-0.236,0.639-0.453,1.227-0.664,1.738
		c-0.229,0.505-0.422,0.945-0.586,1.308c-0.146,0.298-0.277,0.538-0.373,0.716c0.006,0.022,0.014,0.045,0.018,0.065
		c0.133,0.498,0.215,1.021,0.199,1.563c-0.014,0.332-0.072,0.672-0.152,1.015c0.133,0.197,0.27,0.4,0.402,0.612
		c1.479-2.894,4.107-9.187,4.666-18.13c0.059-0.94,0.094-1.911,0.104-2.912c0-0.019,0-0.039,0-0.057
		c0.107-14.331-7.85-21.126-7.85-21.126S64.47,4.443,64.152,4.757"/>
	
		<linearGradient id="SVGID_16_" gradientUnits="userSpaceOnUse" x1="-448.3428" y1="12.2275" x2="-447.3902" y2="12.2275" gradientTransform="matrix(14.2559 0.1279 -0.1279 14.2559 6449.7764 -89.5608)">
		<stop  offset="0" style="stop-color:#442221"/>
		<stop  offset="1" style="stop-color:#8F2C2C"/>
	</linearGradient>
	<path fill="url(#SVGID_16_)" d="M61.598,24.472c-0.769,0.755-1.248,1.802-1.261,2.965c-0.004,0.668,0.146,1.301,0.416,1.863
		c0.673,1.396,2.095,2.366,3.751,2.383c1.156,0.009,2.211-0.452,2.979-1.206c0.77-0.755,1.25-1.802,1.26-2.965
		c0.008-0.807-0.213-1.563-0.598-2.204c-0.73-1.212-2.051-2.026-3.566-2.04C63.417,23.258,62.366,23.718,61.598,24.472"/>
	
		<radialGradient id="SVGID_17_" cx="-453.5054" cy="9.4087" r="0.9511" gradientTransform="matrix(18.4438 0.1655 -0.1656 18.4641 8429.3984 -72.755)" gradientUnits="userSpaceOnUse">
		<stop  offset="0" style="stop-color:#F6A8AC"/>
		<stop  offset="0.7773" style="stop-color:#EF4C3C"/>
		<stop  offset="1" style="stop-color:#EB2626"/>
	</radialGradient>
	<path fill="url(#SVGID_17_)" d="M63.438,8.551c-0.007,0.008-0.11,0.11-0.287,0.313c-0.18,0.211-0.454,0.519-0.749,0.949
		c-0.305,0.422-0.655,0.953-1.008,1.589c-0.361,0.631-0.731,1.369-1.084,2.195c-0.183,0.41-0.341,0.851-0.524,1.302
		c-0.17,0.455-0.309,0.936-0.474,1.425c-0.152,0.492-0.278,1.006-0.425,1.529c-0.146,0.521-0.23,1.07-0.352,1.619
		c-0.123,0.551-0.183,1.118-0.28,1.689c-0.103,0.57-0.147,1.16-0.201,1.755c-0.025,0.295-0.052,0.593-0.077,0.891l-0.035,0.877
		l-0.037,0.881c-0.005,0.156-0.016,0.275-0.017,0.462l0.009,0.446c0.035,1.192,0.073,2.382,0.109,3.555
		c0.076,1.171,0.243,2.316,0.354,3.425c0.049,0.558,0.148,1.098,0.25,1.627c0.102,0.527,0.198,1.044,0.292,1.548
		c0.049,0.25,0.095,0.499,0.143,0.741c0.06,0.242,0.122,0.478,0.181,0.713c0.123,0.464,0.242,0.915,0.355,1.345
		c0.206,0.867,0.514,1.633,0.732,2.321c0.221,0.687,0.494,1.264,0.681,1.746c0.084,0.204,0.166,0.386,0.245,0.548
		c0.024-0.167,0.055-0.327,0.095-0.486c-0.014-0.053-0.027-0.106-0.042-0.162c-0.104-0.507-0.266-1.106-0.395-1.811
		c-0.066-0.352-0.136-0.724-0.208-1.117c-0.04-0.195-0.08-0.396-0.12-0.601c-0.033-0.208-0.065-0.421-0.097-0.637
		c-0.064-0.435-0.133-0.884-0.203-1.352c-0.037-0.231-0.074-0.469-0.113-0.708c-0.027-0.243-0.056-0.487-0.082-0.738
		c-0.055-0.497-0.108-1.008-0.165-1.531c-0.051-0.522-0.136-1.053-0.156-1.599c-0.067-1.089-0.138-2.214-0.208-3.355
		c-0.018-1.146-0.037-2.309-0.054-3.473l-0.014-0.435c-0.002-0.107,0.006-0.284,0.007-0.42l0.022-0.882l0.023-0.878
		c0.019-0.282,0.042-0.564,0.063-0.845c0.073-1.119,0.177-2.241,0.327-3.312c0.157-1.071,0.335-2.102,0.542-3.075
		c0.225-0.968,0.454-1.88,0.703-2.714c0.262-0.829,0.516-1.587,0.775-2.248c0.263-0.659,0.506-1.231,0.732-1.692
		c0.221-0.461,0.409-0.82,0.545-1.06C63.355,8.673,63.438,8.55,63.438,8.551C63.438,8.55,63.438,8.55,63.438,8.551"/>
	
		<linearGradient id="SVGID_18_" gradientUnits="userSpaceOnUse" x1="-462.2632" y1="-16.1787" x2="-461.311" y2="-16.1787" gradientTransform="matrix(-0.1788 19.9284 -19.9284 -0.1788 -335.7058 9227.1709)">
		<stop  offset="0" style="stop-color:#FBDDDF"/>
		<stop  offset="0.0408" style="stop-color:#FBDBDB"/>
		<stop  offset="0.7607" style="stop-color:#F59BA0"/>
		<stop  offset="1" style="stop-color:#F59BA0"/>
	</linearGradient>
	<path fill="url(#SVGID_18_)" d="M69.4,15.364c0,0,0.084,0.448,0.244,1.221c0.041,0.192,0.088,0.404,0.137,0.638
		c0.057,0.229,0.096,0.482,0.129,0.757c0.066,0.545,0.143,1.159,0.244,1.823c0.063,0.331,0.063,0.682,0.086,1.042
		c0.021,0.359,0.045,0.733,0.07,1.114c0.021,0.383,0.061,0.772,0.07,1.175c-0.006,0.408-0.01,0.823-0.016,1.248
		c-0.006,0.423-0.01,0.852-0.014,1.29c-0.004,0.217-0.006,0.438-0.008,0.658c-0.016,0.212-0.031,0.425-0.047,0.639
		c-0.066,0.882-0.135,1.775-0.205,2.668c-0.018,0.451-0.076,0.893-0.141,1.336c-0.057,0.443-0.115,0.884-0.172,1.321
		c-0.057,0.438-0.107,0.873-0.166,1.303c-0.078,0.425-0.154,0.845-0.23,1.259c-0.168,0.823-0.268,1.634-0.467,2.379
		c-0.188,0.746-0.32,1.468-0.502,2.117c-0.182,0.649-0.348,1.245-0.496,1.774c-0.164,0.521-0.311,0.977-0.434,1.352
		c-0.104,0.267-0.18,0.497-0.246,0.678c0.012,0.037,0.021,0.069,0.027,0.104c0.096-0.179,0.229-0.418,0.375-0.716
		c0.162-0.363,0.357-0.805,0.586-1.308c0.209-0.512,0.428-1.1,0.664-1.738c0.236-0.641,0.43-1.356,0.654-2.105
		c0.246-0.744,0.4-1.555,0.59-2.389c0.094-0.416,0.186-0.843,0.279-1.271c0.064-0.434,0.133-0.874,0.199-1.315
		c0.064-0.442,0.127-0.891,0.191-1.341c0.068-0.447,0.133-0.899,0.156-1.354c0.059-0.909,0.119-1.818,0.178-2.712
		c0.014-0.232,0.031-0.427,0.041-0.686c-0.008-0.221-0.012-0.438-0.016-0.658c-0.012-0.435-0.02-0.865-0.033-1.29
		c-0.008-0.423-0.018-0.84-0.031-1.247c-0.033-0.412-0.092-0.814-0.139-1.206c-0.105-0.782-0.164-1.526-0.313-2.195
		c-0.146-0.669-0.293-1.277-0.422-1.815c-0.061-0.271-0.129-0.52-0.211-0.746c-0.076-0.228-0.145-0.437-0.207-0.626
		C69.557,15.787,69.4,15.364,69.4,15.364"/>
	
		<radialGradient id="SVGID_19_" cx="-453.5049" cy="9.4082" r="0.9519" gradientTransform="matrix(18.4414 0.1654 -0.1656 18.4617 8428.2871 -72.7413)" gradientUnits="userSpaceOnUse">
		<stop  offset="0" style="stop-color:#F6A8AC"/>
		<stop  offset="0.7773" style="stop-color:#EF4C3C"/>
		<stop  offset="1" style="stop-color:#EB2626"/>
	</radialGradient>
	<path fill="url(#SVGID_19_)" d="M68.402,24.472c-0.877-1.227-2.299-2.028-3.919-2.042c-2.694-0.024-4.904,2.143-4.927,4.845
		c-0.024,2.567,1.948,4.704,4.474,4.911c-0.126,0.009-0.241,0.013-0.36,0.012h-0.051l0.106,0.009
		c-0.125,0.008-0.246,0.013-0.371,0.012c-3.023-0.027-5.455-2.505-5.428-5.533c0.026-3.025,2.502-5.46,5.526-5.432
		c2.096,0.018,3.907,1.215,4.811,2.951l-0.033-0.04C68.289,24.261,68.348,24.363,68.402,24.472z"/>
	
		<linearGradient id="SVGID_20_" gradientUnits="userSpaceOnUse" x1="-422.5771" y1="-14.5273" x2="-421.6262" y2="-14.5273" gradientTransform="matrix(5.0811 5.1731 -5.1731 5.0811 2133.6929 2284.4165)">
		<stop  offset="0" style="stop-color:#B5E2EE"/>
		<stop  offset="0.2393" style="stop-color:#B5E2EE"/>
		<stop  offset="1" style="stop-color:#E8F5F7"/>
	</linearGradient>
	<path fill="url(#SVGID_20_)" d="M67.834,27.125c-0.016,2.029-1.676,3.658-3.702,3.641c-1.446-0.014-2.686-0.86-3.272-2.08
		c-0.236-0.492-0.368-1.043-0.361-1.627c0.017-2.026,1.676-3.657,3.701-3.639c1.324,0.012,2.476,0.724,3.113,1.78
		C67.648,25.762,67.84,26.419,67.834,27.125z"/>
	
		<linearGradient id="SVGID_21_" gradientUnits="userSpaceOnUse" x1="-426.8491" y1="23.748" x2="-425.897" y2="23.748" gradientTransform="matrix(7.3107 0.0656 -0.0656 7.3107 3183.0029 -117.677)">
		<stop  offset="0" style="stop-color:#E8F5F7"/>
		<stop  offset="0.7607" style="stop-color:#B5E2EE"/>
		<stop  offset="1" style="stop-color:#B5E2EE"/>
	</linearGradient>
	<path fill="url(#SVGID_21_)" d="M67.834,27.125c-0.016,2.029-1.676,3.658-3.702,3.641c-1.446-0.014-2.686-0.86-3.272-2.08
		c0.284-1.059,1.1-2.638,3.451-2.617c1.207,0.012,2.207-0.327,3.001-0.869C67.648,25.762,67.84,26.419,67.834,27.125z"/>
	
		<linearGradient id="SVGID_22_" gradientUnits="userSpaceOnUse" x1="-413.8364" y1="30.7822" x2="-412.8839" y2="30.7822" gradientTransform="matrix(5.6464 0.0507 -0.0507 5.6464 2399.5867 -128.6051)">
		<stop  offset="0" style="stop-color:#561211"/>
		<stop  offset="1" style="stop-color:#EB2626"/>
	</linearGradient>
	<circle fill="url(#SVGID_22_)" cx="62.135" cy="24.23" r="0.805"/>
	
		<linearGradient id="SVGID_23_" gradientUnits="userSpaceOnUse" x1="-418.5483" y1="15.8477" x2="-417.596" y2="15.8477" gradientTransform="matrix(4.6749 4.7595 4.7595 -4.6749 1953.9304 2113.1255)">
		<stop  offset="0" style="stop-color:#080808"/>
		<stop  offset="0.9613" style="stop-color:#69605E"/>
		<stop  offset="1" style="stop-color:#6C6461"/>
	</linearGradient>
	<path fill="url(#SVGID_23_)" d="M76.795,42.15c0.383,3.206-0.094,7.266-2.479,12.159c0,0-2.328-4.173-4.656-5.836
		c-0.4,0.9-0.783,1.685-1.127,2.345l-0.107,0.377c2.789,0.183,6.424,6.965,6.424,6.965C78.082,51.256,77.914,45.909,76.795,42.15z"
		/>
	
		<linearGradient id="SVGID_24_" gradientUnits="userSpaceOnUse" x1="-418.5659" y1="15.8291" x2="-417.6137" y2="15.8291" gradientTransform="matrix(4.6764 4.7611 4.7611 -4.6764 1956.1797 2112.3464)">
		<stop  offset="0" style="stop-color:#080808"/>
		<stop  offset="0.9613" style="stop-color:#69605E"/>
		<stop  offset="1" style="stop-color:#6C6461"/>
	</linearGradient>
	<path fill="url(#SVGID_24_)" d="M74.236,52.201c0,0-2.143-3.99-4.064-4.931c-0.172,0.42-0.344,0.822-0.514,1.201
		c2.326,1.663,4.656,5.838,4.656,5.838c2.385-4.895,2.861-8.954,2.48-12.159c-0.955-3.216-2.604-5.264-3.412-6.122l-0.018,0.109
		C74.834,37.824,78.439,43.229,74.236,52.201z"/>
	
		<linearGradient id="SVGID_25_" gradientUnits="userSpaceOnUse" x1="-526.6479" y1="-29.8555" x2="-525.6956" y2="-29.8555" gradientTransform="matrix(-5.7859 -0.0519 0.0519 -5.7859 -2968.8125 -154.8806)">
		<stop  offset="0" style="stop-color:#080808"/>
		<stop  offset="0.9613" style="stop-color:#69605E"/>
		<stop  offset="1" style="stop-color:#6C6461"/>
	</linearGradient>
	<path fill="url(#SVGID_25_)" d="M74.236,52.201c0,0-2.143-3.99-4.064-4.931c-0.172,0.42-0.344,0.822-0.514,1.201
		c2.326,1.663,4.656,5.838,4.656,5.838c2.385-4.895,2.861-8.954,2.48-12.159c-0.955-3.216-2.604-5.264-3.412-6.122l-0.018,0.109
		C74.834,37.824,78.439,43.229,74.236,52.201z"/>
	
		<linearGradient id="SVGID_26_" gradientUnits="userSpaceOnUse" x1="-418.5679" y1="15.8232" x2="-417.6156" y2="15.8232" gradientTransform="matrix(4.6766 4.7612 4.7612 -4.6766 1956.7893 2111.9224)">
		<stop  offset="0" style="stop-color:#080808"/>
		<stop  offset="0.9613" style="stop-color:#69605E"/>
		<stop  offset="1" style="stop-color:#6C6461"/>
	</linearGradient>
	<path fill="url(#SVGID_26_)" d="M74.236,52.201c4.201-8.973,0.596-14.376-0.869-16.063c-0.809,4.563-2.031,8.31-3.195,11.134
		C72.094,48.211,74.236,52.201,74.236,52.201z"/>
	
		<linearGradient id="SVGID_27_" gradientUnits="userSpaceOnUse" x1="-526.6504" y1="-29.8672" x2="-525.6979" y2="-29.8672" gradientTransform="matrix(-5.7857 -0.0519 0.0519 -5.7857 -2968.7239 -155.9443)">
		<stop  offset="0" style="stop-color:#080808"/>
		<stop  offset="0.9613" style="stop-color:#69605E"/>
		<stop  offset="1" style="stop-color:#6C6461"/>
	</linearGradient>
	<path fill="url(#SVGID_27_)" d="M74.236,52.201c4.201-8.973,0.596-14.376-0.869-16.063c-0.809,4.563-2.031,8.31-3.195,11.134
		C72.094,48.211,74.236,52.201,74.236,52.201z"/>
	
		<linearGradient id="SVGID_28_" gradientUnits="userSpaceOnUse" x1="-446.7456" y1="12.9814" x2="-445.7931" y2="12.9814" gradientTransform="matrix(13.3132 0.1194 -0.1194 13.3132 6007.5156 -75.4498)">
		<stop  offset="0" style="stop-color:#080808"/>
		<stop  offset="0.9613" style="stop-color:#69605E"/>
		<stop  offset="1" style="stop-color:#6C6461"/>
	</linearGradient>
	<path fill="url(#SVGID_28_)" d="M74.236,52.201c4.201-8.973,0.596-14.376-0.869-16.063c-0.809,4.563-2.031,8.31-3.195,11.134
		C72.094,48.211,74.236,52.201,74.236,52.201z"/>
	
		<linearGradient id="SVGID_29_" gradientUnits="userSpaceOnUse" x1="-486.9399" y1="-52.541" x2="-485.9879" y2="-52.541" gradientTransform="matrix(-4.7597 4.675 -4.675 -4.7597 -2507.9932 2073.1653)">
		<stop  offset="0" style="stop-color:#080808"/>
		<stop  offset="0.9613" style="stop-color:#69605E"/>
		<stop  offset="1" style="stop-color:#6C6461"/>
	</linearGradient>
	<path fill="url(#SVGID_29_)" d="M53.562,54.125c-2.296-4.936-2.703-9.005-2.263-12.199c-1.186,3.734-1.449,9.078,1.659,16.038
		c0,0,3.756-6.715,6.548-6.849l-0.103-0.383c-0.331-0.665-0.7-1.453-1.081-2.362C55.966,49.989,53.562,54.125,53.562,54.125z"/>
	
		<linearGradient id="SVGID_30_" gradientUnits="userSpaceOnUse" x1="-486.9351" y1="-52.541" x2="-485.9829" y2="-52.541" gradientTransform="matrix(-4.761 4.6763 -4.6763 -4.761 -2510.1262 2072.2112)">
		<stop  offset="0" style="stop-color:#080808"/>
		<stop  offset="0.9613" style="stop-color:#69605E"/>
		<stop  offset="1" style="stop-color:#6C6461"/>
	</linearGradient>
	<path fill="url(#SVGID_30_)" d="M53.562,54.125c0,0,2.404-4.137,4.76-5.755c-0.162-0.382-0.326-0.788-0.492-1.211
		c-1.939,0.904-4.151,4.86-4.151,4.86c-4.047-9.057-0.336-14.397,1.161-16.052l-0.017-0.109c-0.818,0.842-2.51,2.859-3.525,6.067
		C50.86,45.12,51.266,49.188,53.562,54.125z"/>
	
		<linearGradient id="SVGID_31_" gradientUnits="userSpaceOnUse" x1="-430.4932" y1="21.6499" x2="-429.5405" y2="21.6499" gradientTransform="matrix(7.9805 0.0716 -0.0716 7.9805 3488.2349 -96.993)">
		<stop  offset="0" style="stop-color:#7C726E"/>
		<stop  offset="1" style="stop-color:#6C6461"/>
	</linearGradient>
	<path fill="url(#SVGID_31_)" d="M53.562,54.125c0,0,2.404-4.137,4.76-5.755c-0.162-0.382-0.326-0.788-0.492-1.211
		c-1.939,0.904-4.151,4.86-4.151,4.86c-4.047-9.057-0.336-14.397,1.161-16.052l-0.017-0.109c-0.818,0.842-2.51,2.859-3.525,6.067
		C50.86,45.12,51.266,49.188,53.562,54.125z"/>
	
		<linearGradient id="SVGID_32_" gradientUnits="userSpaceOnUse" x1="-486.9355" y1="-52.5488" x2="-485.9833" y2="-52.5488" gradientTransform="matrix(-4.7608 4.6762 -4.6762 -4.7608 -2510.5049 2071.6392)">
		<stop  offset="0" style="stop-color:#080808"/>
		<stop  offset="0.9613" style="stop-color:#69605E"/>
		<stop  offset="1" style="stop-color:#6C6461"/>
	</linearGradient>
	<path fill="url(#SVGID_32_)" d="M53.679,52.017c0,0,2.213-3.955,4.151-4.859c-1.109-2.844-2.267-6.612-2.991-11.192
		C53.344,37.621,49.633,42.962,53.679,52.017z"/>
	
		<linearGradient id="SVGID_33_" gradientUnits="userSpaceOnUse" x1="-430.4922" y1="21.6563" x2="-429.5397" y2="21.6563" gradientTransform="matrix(7.9801 0.0716 -0.0716 7.9801 3488.0459 -98.0414)">
		<stop  offset="0" style="stop-color:#7C726E"/>
		<stop  offset="1" style="stop-color:#6C6461"/>
	</linearGradient>
	<path fill="url(#SVGID_33_)" d="M53.679,52.017c0,0,2.213-3.955,4.151-4.859c-1.109-2.844-2.267-6.612-2.991-11.192
		C53.344,37.621,49.633,42.962,53.679,52.017z"/>
	
		<linearGradient id="SVGID_34_" gradientUnits="userSpaceOnUse" x1="-444.9048" y1="13.9624" x2="-443.9527" y2="13.9624" gradientTransform="matrix(12.3742 0.111 -0.111 12.3742 5565.3052 -79.3661)">
		<stop  offset="0" style="stop-color:#080808"/>
		<stop  offset="0.9613" style="stop-color:#69605E"/>
		<stop  offset="1" style="stop-color:#6C6461"/>
	</linearGradient>
	<path fill="url(#SVGID_34_)" d="M53.679,52.017c0,0,2.213-3.955,4.151-4.859c-1.109-2.844-2.267-6.612-2.991-11.192
		C53.344,37.621,49.633,42.962,53.679,52.017z"/>
	
		<linearGradient id="SVGID_35_" gradientUnits="userSpaceOnUse" x1="-442.5684" y1="15.3794" x2="-441.6161" y2="15.3794" gradientTransform="matrix(11.3542 0.1019 -0.1019 11.3542 5086.8135 -121.302)">
		<stop  offset="0" style="stop-color:#080808"/>
		<stop  offset="0.9613" style="stop-color:#69605E"/>
		<stop  offset="1" style="stop-color:#6C6461"/>
	</linearGradient>
	<path fill="url(#SVGID_35_)" d="M63.98,2.33c0,0,4.555,3.892,7.006,11.983c0.682,0.364,1.328,0.782,1.938,1.247
		C70.23,5.754,64.416,1.044,64.416,1.044s-5.878,4.594-8.751,14.325c0.298-0.217,0.606-0.425,0.922-0.619
		C59.143,6.318,63.98,2.33,63.98,2.33z"/>
	
		<linearGradient id="SVGID_36_" gradientUnits="userSpaceOnUse" x1="-442.5664" y1="15.3779" x2="-441.6145" y2="15.3779" gradientTransform="matrix(11.3536 0.1019 -0.1019 11.3536 5086.5317 -120.9587)">
		<stop  offset="0" style="stop-color:#080808"/>
		<stop  offset="0.9613" style="stop-color:#69605E"/>
		<stop  offset="1" style="stop-color:#6C6461"/>
	</linearGradient>
	<path fill="url(#SVGID_36_)" d="M63.98,2.33c0,0-4.837,3.989-7.395,12.42c0.62-0.38,1.267-0.717,1.94-1.001
		c2.437-6.411,6.132-9.46,6.132-9.46s3.766,3.219,6.082,9.895c0.08,0.043,0.162,0.086,0.246,0.13
		C68.533,6.224,63.98,2.33,63.98,2.33z"/>
	
		<linearGradient id="SVGID_37_" gradientUnits="userSpaceOnUse" x1="-482.4517" y1="21.3608" x2="-481.4995" y2="21.3608" gradientTransform="matrix(0.1355 -15.1042 15.1042 0.1355 -193.7181 -7249.0967)">
		<stop  offset="0" style="stop-color:#080808"/>
		<stop  offset="0.9613" style="stop-color:#69605E"/>
		<stop  offset="1" style="stop-color:#6C6461"/>
	</linearGradient>
	<path fill="url(#SVGID_37_)" d="M63.98,2.33c0,0-4.837,3.989-7.395,12.42c0.62-0.38,1.267-0.717,1.94-1.001
		c2.437-6.411,6.132-9.46,6.132-9.46s3.766,3.219,6.082,9.895c0.08,0.043,0.162,0.086,0.246,0.13
		C68.533,6.224,63.98,2.33,63.98,2.33z"/>
	
		<linearGradient id="SVGID_38_" gradientUnits="userSpaceOnUse" x1="-442.564" y1="15.374" x2="-441.6124" y2="15.374" gradientTransform="matrix(11.353 0.1018 -0.1018 11.353 5086.2114 -120.3264)">
		<stop  offset="0" style="stop-color:#080808"/>
		<stop  offset="0.9613" style="stop-color:#69605E"/>
		<stop  offset="1" style="stop-color:#6C6461"/>
	</linearGradient>
	<path fill="url(#SVGID_38_)" d="M61.395,11.402c0.355-0.637,0.702-1.167,1.008-1.589c0.294-0.431,0.568-0.738,0.748-0.949
		c0.186-0.21,0.289-0.314,0.289-0.314s-0.082,0.125-0.217,0.364c-0.137,0.24-0.325,0.599-0.548,1.06
		c-0.224,0.461-0.466,1.032-0.729,1.692c-0.145,0.364-0.287,0.761-0.431,1.183c0.898-0.166,1.828-0.25,2.776-0.242
		c2.322,0.02,4.509,0.588,6.449,1.578c-2.316-6.676-6.082-9.895-6.082-9.895s-3.695,3.048-6.13,9.458
		c0.65-0.276,1.323-0.505,2.021-0.685C60.826,12.451,61.112,11.894,61.395,11.402z"/>
	
		<linearGradient id="SVGID_39_" gradientUnits="userSpaceOnUse" x1="-482.4517" y1="21.3574" x2="-481.4995" y2="21.3574" gradientTransform="matrix(0.1355 -15.1039 15.1039 0.1355 -192.8236 -7248.9521)">
		<stop  offset="0" style="stop-color:#080808"/>
		<stop  offset="0.9613" style="stop-color:#69605E"/>
		<stop  offset="1" style="stop-color:#6C6461"/>
	</linearGradient>
	<path fill="url(#SVGID_39_)" d="M61.395,11.402c0.355-0.637,0.702-1.167,1.008-1.589c0.294-0.431,0.568-0.738,0.748-0.949
		c0.186-0.21,0.289-0.314,0.289-0.314s-0.082,0.125-0.217,0.364c-0.137,0.24-0.325,0.599-0.548,1.06
		c-0.224,0.461-0.466,1.032-0.729,1.692c-0.145,0.364-0.287,0.761-0.431,1.183c0.898-0.166,1.828-0.25,2.776-0.242
		c2.322,0.02,4.509,0.588,6.449,1.578c-2.316-6.676-6.082-9.895-6.082-9.895s-3.695,3.048-6.13,9.458
		c0.65-0.276,1.323-0.505,2.021-0.685C60.826,12.451,61.112,11.894,61.395,11.402z"/>
	
		<linearGradient id="SVGID_40_" gradientUnits="userSpaceOnUse" x1="-448.3408" y1="12.2461" x2="-447.3891" y2="12.2461" gradientTransform="matrix(14.2551 0.1279 -0.1279 14.2551 6449.562 -108.0874)">
		<stop  offset="0" style="stop-color:#080808"/>
		<stop  offset="0.9613" style="stop-color:#69605E"/>
		<stop  offset="1" style="stop-color:#6C6461"/>
	</linearGradient>
	<path fill="url(#SVGID_40_)" d="M61.395,11.402c0.355-0.637,0.702-1.167,1.008-1.589c0.294-0.431,0.568-0.738,0.748-0.949
		c0.186-0.21,0.289-0.314,0.289-0.314s-0.082,0.125-0.217,0.364c-0.137,0.24-0.325,0.599-0.548,1.06
		c-0.224,0.461-0.466,1.032-0.729,1.692c-0.145,0.364-0.287,0.761-0.431,1.183c0.898-0.166,1.828-0.25,2.776-0.242
		c2.322,0.02,4.509,0.588,6.449,1.578c-2.316-6.676-6.082-9.895-6.082-9.895s-3.695,3.048-6.13,9.458
		c0.65-0.276,1.323-0.505,2.021-0.685C60.826,12.451,61.112,11.894,61.395,11.402z"/>
	
		<linearGradient id="SVGID_41_" gradientUnits="userSpaceOnUse" x1="-442.564" y1="15.3682" x2="-441.612" y2="15.3682" gradientTransform="matrix(11.3525 0.1018 -0.1018 11.3525 5085.9702 -118.6224)">
		<stop  offset="0" style="stop-color:#080808"/>
		<stop  offset="0.9613" style="stop-color:#69605E"/>
		<stop  offset="1" style="stop-color:#6C6461"/>
	</linearGradient>
	<path fill="url(#SVGID_41_)" d="M62.675,9.974c0.222-0.462,0.41-0.819,0.548-1.06c0.135-0.24,0.217-0.364,0.217-0.364
		s-0.104,0.103-0.289,0.314c-0.177,0.211-0.454,0.52-0.748,0.95c-0.306,0.423-0.655,0.953-1.008,1.589
		c-0.282,0.493-0.569,1.049-0.848,1.662c0.318-0.083,0.643-0.155,0.969-0.216c0.142-0.422,0.285-0.817,0.43-1.182
		C62.208,11.007,62.451,10.434,62.675,9.974z"/>
	
		<linearGradient id="SVGID_42_" gradientUnits="userSpaceOnUse" x1="-482.457" y1="21.3672" x2="-481.502" y2="21.3672" gradientTransform="matrix(0.1355 -15.1042 15.1042 0.1355 -195.64 -7249.1123)">
		<stop  offset="0" style="stop-color:#080808"/>
		<stop  offset="0.9613" style="stop-color:#69605E"/>
		<stop  offset="1" style="stop-color:#6C6461"/>
	</linearGradient>
	<path fill="url(#SVGID_42_)" d="M62.675,9.974c0.222-0.462,0.41-0.819,0.548-1.06c0.135-0.24,0.217-0.364,0.217-0.364
		s-0.104,0.103-0.289,0.314c-0.177,0.211-0.454,0.52-0.748,0.95c-0.306,0.423-0.655,0.953-1.008,1.589
		c-0.282,0.493-0.569,1.049-0.848,1.662c0.318-0.083,0.643-0.155,0.969-0.216c0.142-0.422,0.285-0.817,0.43-1.182
		C62.208,11.007,62.451,10.434,62.675,9.974z"/>
	
		<linearGradient id="SVGID_43_" gradientUnits="userSpaceOnUse" x1="-448.3408" y1="12.2407" x2="-447.3898" y2="12.2407" gradientTransform="matrix(14.2545 0.1279 -0.1279 14.2545 6449.2803 -106.3846)">
		<stop  offset="0" style="stop-color:#080808"/>
		<stop  offset="0.9613" style="stop-color:#69605E"/>
		<stop  offset="1" style="stop-color:#6C6461"/>
	</linearGradient>
	<path fill="url(#SVGID_43_)" d="M62.675,9.974c0.222-0.462,0.41-0.819,0.548-1.06c0.135-0.24,0.217-0.364,0.217-0.364
		s-0.104,0.103-0.289,0.314c-0.177,0.211-0.454,0.52-0.748,0.95c-0.306,0.423-0.655,0.953-1.008,1.589
		c-0.282,0.493-0.569,1.049-0.848,1.662c0.318-0.083,0.643-0.155,0.969-0.216c0.142-0.422,0.285-0.817,0.43-1.182
		C62.208,11.007,62.451,10.434,62.675,9.974z"/>
	
		<radialGradient id="SVGID_44_" cx="-453.5049" cy="9.4077" r="0.9509" gradientTransform="matrix(18.4429 0.1655 -0.1656 18.4632 8428.9717 -72.7594)" gradientUnits="userSpaceOnUse">
		<stop  offset="0" style="stop-color:#7C726E"/>
		<stop  offset="1" style="stop-color:#6C6461"/>
	</radialGradient>
	<path fill="url(#SVGID_44_)" d="M62.675,9.974c0.222-0.462,0.41-0.819,0.548-1.06c0.135-0.24,0.217-0.364,0.217-0.364
		s-0.104,0.103-0.289,0.314c-0.177,0.211-0.454,0.52-0.748,0.95c-0.306,0.423-0.655,0.953-1.008,1.589
		c-0.282,0.493-0.569,1.049-0.848,1.662c0.318-0.083,0.643-0.155,0.969-0.216c0.142-0.422,0.285-0.817,0.43-1.182
		C62.208,11.007,62.451,10.434,62.675,9.974z"/>
	
		<linearGradient id="SVGID_45_" gradientUnits="userSpaceOnUse" x1="-35.7505" y1="-152.9468" x2="-13.5545" y2="-152.9468" gradientTransform="matrix(0.7134 -0.7007 -0.7007 -0.7134 -10.8821 -88.9942)">
		<stop  offset="0" style="stop-color:#561211"/>
		<stop  offset="1" style="stop-color:#EB2626"/>
	</linearGradient>
	<path fill="url(#SVGID_45_)" d="M66.51,49.465c-0.111,0.582-0.225,1.158-0.344,1.718c0.496,0.081,0.984,0.186,1.469,0.312
		c0.281,0.073,0.563,0.156,0.838,0.244c0.766,0.246,1.508,0.547,2.217,0.896c0.016,0.008,0.033,0.018,0.051,0.026
		c-0.012-0.029-0.021-0.061-0.033-0.09c-0.033-0.1-0.07-0.201-0.107-0.298c-0.232-0.629-0.479-1.229-0.734-1.797
		c-0.318-0.134-0.641-0.261-0.969-0.376c-0.135-0.045-0.271-0.094-0.408-0.135c-0.602-0.195-1.223-0.353-1.854-0.476
		C66.59,49.481,66.551,49.474,66.51,49.465 M58.201,50.074l-0.079,0.164c-0.29,0.614-0.572,1.263-0.839,1.951
		c0.004-0.001,0.009-0.004,0.015-0.005c0.496-0.207,1.006-0.388,1.53-0.542c0.224-0.069,0.452-0.129,0.682-0.188l0.48-0.102
		l0.59-0.129c0.12-0.022,0.239-0.044,0.358-0.059c0.349-0.056,0.699-0.098,1.052-0.13c0.125-0.012,0.249-0.022,0.373-0.031
		c-0.108-0.571-0.212-1.156-0.311-1.749c-0.37,0.033-0.736,0.077-1.1,0.135c-0.118,0.018-0.238,0.037-0.355,0.058l-0.097,0.021
		l-0.975,0.211c-0.184,0.046-0.369,0.094-0.552,0.148c-0.043,0.012-0.087,0.024-0.128,0.038
		C58.625,49.931,58.412,50.001,58.201,50.074"/>
	
		<linearGradient id="SVGID_46_" gradientUnits="userSpaceOnUse" x1="-49.5" y1="-151.1455" x2="-39.0126" y2="-151.1455" gradientTransform="matrix(0.7134 -0.7007 -0.7007 -0.7134 -10.8821 -88.9942)">
		<stop  offset="0" style="stop-color:#561211"/>
		<stop  offset="1" style="stop-color:#EB2626"/>
	</linearGradient>
	<path fill="url(#SVGID_46_)" d="M67.332,45.902c-0.051,0.215-0.113,0.432-0.176,0.651c-0.168,0.565-0.332,1.143-0.434,1.718
		c-0.068,0.397-0.139,0.796-0.213,1.192c0.041,0.009,0.082,0.018,0.123,0.023c0.633,0.121,1.254,0.281,1.855,0.474
		c0.137,0.044,0.273,0.091,0.408,0.138c0.328,0.115,0.652,0.239,0.969,0.375c-0.113-0.262-0.232-0.516-0.352-0.767
		c-0.07-0.149-0.145-0.299-0.215-0.441c-0.398-0.8-0.809-1.532-1.213-2.197c-0.039-0.063-0.078-0.126-0.117-0.189
		c-0.076-0.125-0.154-0.246-0.232-0.366C67.604,46.303,67.467,46.1,67.332,45.902 M61.201,45.124
		c-0.201,0.264-0.405,0.545-0.614,0.841c-0.341,0.491-0.694,1.028-1.047,1.613c-0.165,0.273-0.329,0.556-0.493,0.851
		c-0.131,0.235-0.258,0.473-0.387,0.721c-0.156,0.298-0.311,0.606-0.461,0.925c0.212-0.073,0.425-0.143,0.643-0.208
		c0.041-0.014,0.084-0.027,0.128-0.038c0.184-0.054,0.368-0.103,0.553-0.149l0.973-0.21l0.099-0.022
		c0.118-0.02,0.237-0.042,0.357-0.06c0.362-0.055,0.728-0.102,1.098-0.132c-0.058-0.342-0.112-0.684-0.165-1.026
		c-0.091-0.578-0.246-1.155-0.403-1.726C61.355,46.035,61.242,45.574,61.201,45.124"/>
	
		<linearGradient id="SVGID_47_" gradientUnits="userSpaceOnUse" x1="-47.5605" y1="-147.4482" x2="-32.948" y2="-147.4482" gradientTransform="matrix(0.7134 -0.7007 -0.7007 -0.7134 -10.8821 -88.9942)">
		<stop  offset="0" style="stop-color:#0F8075"/>
		<stop  offset="1" style="stop-color:#1D8277"/>
	</linearGradient>
	<path fill="url(#SVGID_47_)" d="M61.24,44.043c-0.04,0.257-0.061,0.52-0.056,0.787c0.002,0.1,0.009,0.196,0.017,0.293
		c0.117-0.156,0.235-0.306,0.348-0.451c-0.013-0.026-0.026-0.055-0.044-0.085C61.44,44.443,61.346,44.26,61.24,44.043
		 M63.732,39.333c-0.127,0.124-0.272,0.282-0.44,0.467c-0.438,0.502-0.953,1.218-1.356,2.08c-0.206,0.433-0.389,0.9-0.525,1.395
		c-0.026,0.095-0.052,0.188-0.074,0.284c0.103,0.425,0.19,0.761,0.247,1c0.007,0.019,0.012,0.038,0.019,0.057
		c0.688-0.86,1.294-1.501,1.728-1.93c0.44-0.433,0.704-0.645,0.704-0.645s1.526,1.268,3.297,3.866
		c0.082-0.342,0.141-0.683,0.152-1.015c0.018-0.542-0.064-1.065-0.197-1.563c-0.006-0.02-0.012-0.042-0.02-0.064
		c-0.016,0.037-0.033,0.07-0.051,0.101c-0.107,0.185-0.164,0.284-0.164,0.284s0.043-0.105,0.119-0.304
		c0.021-0.056,0.045-0.116,0.068-0.185c-0.123-0.435-0.281-0.848-0.451-1.232c-0.391-0.87-0.893-1.596-1.322-2.104
		c-0.221-0.254-0.406-0.454-0.549-0.591c-0.141-0.135-0.23-0.208-0.23-0.208l-0.606-0.006c0,0-0.086,0.072-0.229,0.206
		C63.815,39.253,63.776,39.292,63.732,39.333"/>
	
		<radialGradient id="SVGID_48_" cx="-453.5034" cy="9.4077" r="0.9536" gradientTransform="matrix(18.4438 0.1655 -0.1656 18.4641 8429.3984 -72.755)" gradientUnits="userSpaceOnUse">
		<stop  offset="0" style="stop-color:#1E8F84"/>
		<stop  offset="0.7773" style="stop-color:#1E8679"/>
		<stop  offset="1" style="stop-color:#1D8277"/>
	</radialGradient>
	<path fill="url(#SVGID_48_)" d="M61.336,43.557c-0.041,0.159-0.071,0.32-0.095,0.486c0.104,0.217,0.2,0.4,0.265,0.545
		c0.018,0.03,0.031,0.058,0.044,0.085c0.019-0.019,0.034-0.042,0.053-0.061c-0.007-0.018-0.012-0.037-0.019-0.056
		C61.526,44.317,61.439,43.982,61.336,43.557"/>
	
		<linearGradient id="SVGID_49_" gradientUnits="userSpaceOnUse" x1="66.6416" y1="-151.3809" x2="239.225" y2="-151.3809" gradientTransform="matrix(0.7134 -0.7007 -0.7007 -0.7134 -10.8821 -88.9942)">
		<stop  offset="0" style="stop-color:#0F8075"/>
		<stop  offset="1" style="stop-color:#1D8277"/>
	</linearGradient>
	<path fill="url(#SVGID_49_)" d="M65.188,49.276c0.141,0.014,0.279,0.03,0.418,0.048c0.305,0.04,0.604,0.085,0.904,0.142
		c-0.002,0,0-0.001,0-0.001c-0.299-0.057-0.6-0.102-0.904-0.141C65.467,49.305,65.328,49.289,65.188,49.276
		C65.188,49.274,65.188,49.274,65.188,49.276 M62.051,49.253L62.051,49.253c0.363-0.033,0.731-0.053,1.102-0.06l0,0
		C62.782,49.2,62.414,49.22,62.051,49.253"/>
	
		<linearGradient id="SVGID_50_" gradientUnits="userSpaceOnUse" x1="-448.3418" y1="13.7529" x2="-447.3906" y2="13.7529" gradientTransform="matrix(14.2559 0.1279 -0.1279 14.2559 6449.7764 -89.5608)">
		<stop  offset="0" style="stop-color:#0F8075"/>
		<stop  offset="1" style="stop-color:#1D8277"/>
	</linearGradient>
	<path fill="url(#SVGID_50_)" d="M63.153,49.193L63.153,49.193c0.165-0.004,0.334-0.004,0.498-0.004
		c0.519,0.004,1.031,0.035,1.537,0.087c0-0.002,0-0.002,0,0c-0.504-0.053-1.018-0.083-1.537-0.087
		C63.484,49.187,63.317,49.188,63.153,49.193"/>
	
		<linearGradient id="SVGID_51_" gradientUnits="userSpaceOnUse" x1="-478.7861" y1="14.7178" x2="-477.8167" y2="14.7178" gradientTransform="matrix(0.1979 -22.0624 22.0624 0.1979 -164.2487 -10493.8711)">
		<stop  offset="0" style="stop-color:#1E8B77"/>
		<stop  offset="0.4784" style="stop-color:#1E9077"/>
		<stop  offset="1" style="stop-color:#1D9579"/>
	</linearGradient>
	<path fill="url(#SVGID_51_)" d="M65.619,51.102c0,0.005,0.002,0.009,0,0.012c0.066,0.171,0.189,0.527,0.324,1.029
		c0.039-0.162,0.076-0.322,0.115-0.486c0.035-0.155,0.07-0.315,0.107-0.473C65.982,51.152,65.803,51.125,65.619,51.102"/>
	
		<linearGradient id="SVGID_52_" gradientUnits="userSpaceOnUse" x1="-51.2427" y1="-155.4063" x2="-37.6648" y2="-155.4063" gradientTransform="matrix(0.7134 -0.7007 -0.7007 -0.7134 -10.8821 -88.9942)">
		<stop  offset="0" style="stop-color:#1E8B77"/>
		<stop  offset="0.4784" style="stop-color:#1E9077"/>
		<stop  offset="1" style="stop-color:#1D9579"/>
	</linearGradient>
	<path fill="url(#SVGID_52_)" d="M64.435,56.212c0,0-0.095,0.554-0.217,1.272l0.152,0.001L64.435,56.212 M65.217,53.043
		c0,0-0.002,1.535-0.471,3.719c0.006-0.022,0.014-0.045,0.02-0.066c0.076-0.251,0.166-0.559,0.258-0.909
		c0.092-0.353,0.211-0.747,0.318-1.18c0.076-0.313,0.16-0.647,0.248-0.994c-0.01-0.044-0.018-0.092-0.025-0.136
		c-0.055,0.366-0.131,0.744-0.238,1.125L65.217,53.043 M65.619,51.114c0.055,0.573,0.066,1.212,0.004,1.885
		c0.021,0.08,0.041,0.157,0.063,0.235c0.002-0.006,0.002-0.014,0.006-0.021c0.082-0.345,0.168-0.704,0.252-1.07
		C65.809,51.641,65.686,51.286,65.619,51.114"/>
	
		<linearGradient id="SVGID_53_" gradientUnits="userSpaceOnUse" x1="-421.8516" y1="-82.0215" x2="-420.9036" y2="-82.0215" gradientTransform="matrix(0.1536 3.8227 -3.8227 0.1536 -183.1611 1677.6227)">
		<stop  offset="0" style="stop-color:#1E8B77"/>
		<stop  offset="0.4784" style="stop-color:#1E9077"/>
		<stop  offset="1" style="stop-color:#1D9579"/>
	</linearGradient>
	<path fill="url(#SVGID_53_)" d="M65.623,52.999c-0.016,0.157-0.033,0.316-0.059,0.478c0.008,0.044,0.018,0.093,0.027,0.136
		c0.029-0.125,0.061-0.25,0.094-0.379C65.664,53.155,65.645,53.078,65.623,52.999"/>
	
		<linearGradient id="SVGID_54_" gradientUnits="userSpaceOnUse" x1="-485.6665" y1="27.501" x2="-484.7143" y2="27.501" gradientTransform="matrix(0.1053 -11.7386 11.7386 0.1053 -207.7203 -5647.0503)">
		<stop  offset="0" style="stop-color:#1D9579"/>
		<stop  offset="0.4804" style="stop-color:#1E9681"/>
		<stop  offset="1" style="stop-color:#1E9688"/>
	</linearGradient>
	<path fill="url(#SVGID_54_)" d="M62.362,51.002c0.042,0.21,0.084,0.417,0.126,0.623c0.12,0.543,0.232,1.067,0.34,1.562
		c0.116,0.499,0.226,0.969,0.325,1.4c0.1,0.435,0.209,0.834,0.296,1.187c0.089,0.353,0.169,0.66,0.241,0.913
		c0.146,0.505,0.23,0.795,0.23,0.795l0.298,0.003c0.123-0.718,0.217-1.271,0.217-1.271l-0.063,1.272l0.154,0.001
		c0,0,0.08-0.263,0.221-0.724c0.471-2.184,0.471-3.719,0.471-3.719l0.111,1.558c0.107-0.38,0.184-0.758,0.238-1.124
		c0.023-0.163,0.043-0.321,0.057-0.479c0.063-0.673,0.051-1.312-0.004-1.884c0.002-0.004,0-0.007,0-0.012
		c-0.01-0.001-0.02-0.002-0.027-0.002c-0.641-0.086-1.292-0.129-1.956-0.136C63.206,50.959,62.784,50.973,62.362,51.002"/>
	
		<linearGradient id="SVGID_55_" gradientUnits="userSpaceOnUse" x1="-462.2769" y1="-16.0801" x2="-461.3146" y2="-16.0801" gradientTransform="matrix(-0.1788 19.9284 -19.9284 -0.1788 -335.7058 9227.1709)">
		<stop  offset="0" style="stop-color:#1F9489"/>
		<stop  offset="0.0408" style="stop-color:#1F9489"/>
		<stop  offset="0.7607" style="stop-color:#1E8D83"/>
		<stop  offset="1" style="stop-color:#1E8D83"/>
	</linearGradient>
	<path fill="url(#SVGID_55_)" d="M67.242,43.156c-0.023,0.069-0.047,0.13-0.068,0.186c-0.076,0.198-0.119,0.304-0.119,0.304
		s0.057-0.099,0.164-0.284c0.018-0.031,0.035-0.063,0.051-0.101C67.264,43.225,67.252,43.192,67.242,43.156"/>
	
		<linearGradient id="SVGID_56_" gradientUnits="userSpaceOnUse" x1="-493.624" y1="42.3154" x2="-492.6725" y2="42.3154" gradientTransform="matrix(0.0684 -7.6297 7.6297 0.0684 -224.7962 -3721.2407)">
		<stop  offset="0" style="stop-color:#0F8075"/>
		<stop  offset="1" style="stop-color:#1D8277"/>
	</linearGradient>
	<path fill="url(#SVGID_56_)" d="M62.051,49.253c0.098,0.592,0.203,1.178,0.311,1.749c0.422-0.029,0.845-0.042,1.273-0.039
		c0.663,0.008,1.314,0.051,1.955,0.136c0.01,0.001,0.02,0.002,0.029,0.002c0.184,0.023,0.363,0.05,0.547,0.082
		c0.119-0.56,0.232-1.137,0.344-1.719c-0.301-0.057-0.6-0.102-0.904-0.142c-0.139-0.018-0.277-0.034-0.418-0.048
		c-0.506-0.053-1.018-0.083-1.537-0.087c-0.164,0-0.333,0-0.498,0.004C62.782,49.2,62.414,49.22,62.051,49.253"/>
	
		<linearGradient id="SVGID_57_" gradientUnits="userSpaceOnUse" x1="-447.2778" y1="12.6455" x2="-446.3253" y2="12.6455" gradientTransform="matrix(13.6157 0.1221 -0.1221 13.6157 6148.1387 -71.8996)">
		<stop  offset="0" style="stop-color:#0F8075"/>
		<stop  offset="1" style="stop-color:#1D8277"/>
	</linearGradient>
	<path fill="url(#SVGID_57_)" d="M63.331,42.682c-0.435,0.429-1.04,1.069-1.728,1.93c-0.019,0.019-0.034,0.042-0.053,0.061
		c-0.113,0.146-0.231,0.295-0.348,0.451c0.041,0.45,0.154,0.912,0.283,1.378c0.157,0.571,0.312,1.148,0.403,1.726
		c0.053,0.342,0.106,0.685,0.164,1.026c0.363-0.033,0.731-0.053,1.102-0.06c0.165-0.004,0.331-0.006,0.498-0.004
		c0.519,0.004,1.033,0.035,1.537,0.087c0.141,0.014,0.281,0.029,0.418,0.047c0.305,0.039,0.605,0.085,0.904,0.141
		c0.074-0.397,0.145-0.794,0.213-1.192c0.102-0.576,0.266-1.153,0.434-1.718c0.063-0.219,0.125-0.436,0.176-0.651
		c-1.77-2.597-3.296-3.866-3.296-3.866S63.771,42.249,63.331,42.682"/>
	<path fill="#006666" d="M64.768,35.854c0,0,0.088,0.073,0.229,0.208c0.145,0.135,0.332,0.336,0.551,0.592
		c0.432,0.508,0.932,1.233,1.322,2.103c0.195,0.435,0.371,0.906,0.496,1.404c0.133,0.498,0.217,1.021,0.199,1.562
		c-0.02,0.541-0.164,1.098-0.328,1.665c-0.17,0.566-0.336,1.144-0.436,1.718c-0.199,1.153-0.418,2.306-0.662,3.387
		c-0.127,0.539-0.252,1.061-0.369,1.556c-0.125,0.493-0.24,0.962-0.352,1.395c-0.102,0.431-0.223,0.827-0.316,1.178
		c-0.094,0.35-0.18,0.658-0.258,0.908c-0.154,0.504-0.242,0.791-0.242,0.791l-0.605-0.004c0,0-0.085-0.29-0.229-0.796
		c-0.072-0.251-0.152-0.559-0.243-0.913c-0.087-0.354-0.195-0.75-0.295-1.184c-0.1-0.435-0.209-0.903-0.324-1.401
		c-0.107-0.496-0.223-1.02-0.34-1.564c-0.224-1.085-0.422-2.241-0.601-3.397c-0.091-0.576-0.246-1.153-0.404-1.724
		c-0.154-0.57-0.289-1.131-0.297-1.671c-0.011-0.542,0.083-1.063,0.225-1.557c0.137-0.496,0.319-0.963,0.524-1.395
		c0.4-0.863,0.919-1.578,1.357-2.081c0.225-0.249,0.414-0.445,0.561-0.581c0.144-0.134,0.23-0.206,0.23-0.206L64.768,35.854z"/>
	
		<linearGradient id="SVGID_58_" gradientUnits="userSpaceOnUse" x1="-453.0239" y1="-33.5039" x2="-452.0714" y2="-33.5039" gradientTransform="matrix(-0.0864 9.6268 -9.6268 -0.0864 -296.4125 4397.2539)">
		<stop  offset="0" style="stop-color:#FBDDDF"/>
		<stop  offset="0.0408" style="stop-color:#FBDBDB"/>
		<stop  offset="0.7607" style="stop-color:#00A79B"/>
		<stop  offset="1" style="stop-color:#00A79B"/>
	</linearGradient>
	<path fill="url(#SVGID_58_)" d="M64.073,51.415c0,0,0.021-0.049,0.066-0.144c0.036-0.097,0.09-0.242,0.167-0.417
		c0.065-0.18,0.144-0.4,0.237-0.655c0.08-0.254,0.17-0.542,0.268-0.855c0.1-0.313,0.174-0.662,0.275-1.024
		c0.109-0.358,0.164-0.752,0.254-1.149c0.041-0.2,0.08-0.401,0.127-0.607c0.029-0.206,0.059-0.417,0.088-0.627
		c0.031-0.212,0.064-0.425,0.094-0.639c0.035-0.214,0.066-0.428,0.076-0.646c0.039-0.431,0.074-0.862,0.109-1.288l0.027-0.309
		l0.002-0.318c0.002-0.21,0.004-0.419,0.008-0.624c0.002-0.206,0.006-0.407,0.008-0.603c-0.006-0.194-0.027-0.382-0.039-0.567
		c-0.014-0.184-0.027-0.364-0.039-0.538c-0.016-0.175-0.016-0.344-0.049-0.505c-0.055-0.32-0.096-0.617-0.133-0.881
		c-0.018-0.131-0.039-0.254-0.07-0.365c-0.027-0.112-0.053-0.215-0.076-0.308c-0.09-0.374-0.133-0.59-0.133-0.59
		s0.086,0.205,0.223,0.567c0.035,0.092,0.072,0.194,0.113,0.302c0.049,0.11,0.084,0.232,0.115,0.36
		c0.072,0.261,0.154,0.554,0.232,0.879c0.086,0.322,0.117,0.683,0.174,1.061c0.023,0.188,0.057,0.384,0.076,0.581
		c0.008,0.198,0.014,0.398,0.02,0.604c0.008,0.206,0.012,0.411,0.018,0.625l0.01,0.318c-0.002,0.123-0.016,0.219-0.021,0.33
		c-0.031,0.433-0.063,0.872-0.094,1.311c-0.016,0.219-0.051,0.438-0.086,0.653c-0.035,0.219-0.068,0.435-0.104,0.65
		c-0.037,0.213-0.074,0.426-0.107,0.635c-0.053,0.206-0.104,0.412-0.154,0.615c-0.102,0.402-0.188,0.793-0.318,1.153
		c-0.125,0.362-0.23,0.705-0.361,1.016c-0.127,0.309-0.244,0.592-0.359,0.837c-0.123,0.245-0.231,0.457-0.323,0.634
		c-0.092,0.173-0.176,0.304-0.228,0.395C64.102,51.369,64.073,51.415,64.073,51.415z"/>
</g>
<g>
	<path opacity="0.3" fill="#333333" enable-background="new    " d="M118.618,89.609l-0.669-0.455l0,0l-1.468-0.912L84.945,66.848
		l0,0c0-0.043,0-0.072-0.448-0.098l0,0l-3.593-1.689l-2.164-1.006l1.839,1.85l3.093,3.105h0.061c0.031,0-0.117-0.268-0.117-0.24
		v0.08l31.492,21.434l1.384,0.934l0,0l0.688,0.465c0.334,0.229,0.74,0.229,0.897,0l0.854-1.246
		C119.09,90.205,118.951,89.836,118.618,89.609z M84.729,67.541L84.729,67.541L84.729,67.541L84.729,67.541L84.729,67.541z
		 M84.258,68.236C84.258,68.236,84.256,68.236,84.258,68.236v-0.002V68.236L84.258,68.236z"/>
	<g>
		
			<linearGradient id="SVGID_59_" gradientUnits="userSpaceOnUse" x1="2592.0693" y1="546.8047" x2="2595.7158" y2="546.8047" gradientTransform="matrix(0.3887 -0.5707 0.8265 0.563 -1342.6387 1261.9604)">
			<stop  offset="0" style="stop-color:#F9AAAA"/>
			<stop  offset="0.3354" style="stop-color:#F7A8AA"/>
			<stop  offset="0.5218" style="stop-color:#EFA2AA"/>
			<stop  offset="0.6712" style="stop-color:#E198AA"/>
			<stop  offset="0.8009" style="stop-color:#CD89AA"/>
			<stop  offset="0.8086" style="stop-color:#CC88AA"/>
		</linearGradient>
		<path fill="url(#SVGID_59_)" d="M118.953,88.916c0.333,0.227,0.479,0.598,0.319,0.826l-0.851,1.248
			c-0.156,0.229-0.555,0.23-0.888,0.006l-1.403-0.957c-0.334-0.229-0.478-0.598-0.319-0.826l0.851-1.25
			c0.156-0.229,0.555-0.23,0.887-0.004L118.953,88.916z"/>
		<g>
			<polygon fill="#F4CEA4" points="81.152,64.871 84.594,67.539 85.065,66.846 81.322,64.621 			"/>
			<polygon fill="#F2DCC7" points="80.979,65.127 84.016,68.15 84.594,67.539 81.152,64.871 			"/>
			<polygon fill="#E8BB8E" points="85.065,66.846 85.346,66.057 81.496,64.367 81.322,64.621 			"/>
			
				<linearGradient id="SVGID_60_" gradientUnits="userSpaceOnUse" x1="2593.2266" y1="501.6494" x2="2594.5566" y2="501.6494" gradientTransform="matrix(0.3887 -0.5707 0.8265 0.563 -1342.6387 1261.9604)">
				<stop  offset="0" style="stop-color:#3C3C3B"/>
				<stop  offset="0.0471" style="stop-color:#444443"/>
				<stop  offset="0.1209" style="stop-color:#5A5A59"/>
				<stop  offset="0.2122" style="stop-color:#7E7E7E"/>
				<stop  offset="0.3164" style="stop-color:#B0B0B0"/>
				<stop  offset="0.3578" style="stop-color:#C6C6C6"/>
				<stop  offset="0.4447" style="stop-color:#9B9B9B"/>
				<stop  offset="0.5946" style="stop-color:#555554"/>
				<stop  offset="1" style="stop-color:#3C3C3B"/>
			</linearGradient>
			<polygon fill="url(#SVGID_60_)" points="79.204,63.361 80.979,65.127 81.152,64.871 81.322,64.621 81.496,64.367 			"/>
		</g>
		
			<linearGradient id="SVGID_61_" gradientUnits="userSpaceOnUse" x1="2592.0693" y1="546.0352" x2="2595.7168" y2="546.0352" gradientTransform="matrix(0.3887 -0.5707 0.8265 0.563 -1342.6387 1261.9604)">
			<stop  offset="0" style="stop-color:#706F6F"/>
			<stop  offset="0.1816" style="stop-color:#FFFFFF"/>
			<stop  offset="0.2491" style="stop-color:#FDFDFD"/>
			<stop  offset="0.2734" style="stop-color:#F6F6F6"/>
			<stop  offset="0.2907" style="stop-color:#EBEBEB"/>
			<stop  offset="0.3047" style="stop-color:#DADADA"/>
			<stop  offset="0.3167" style="stop-color:#C4C4C4"/>
			<stop  offset="0.3272" style="stop-color:#A9A9A9"/>
			<stop  offset="0.3366" style="stop-color:#8A8A8A"/>
			<stop  offset="0.3373" style="stop-color:#878787"/>
			<stop  offset="0.4645" style="stop-color:#7E7E7E"/>
			<stop  offset="0.6714" style="stop-color:#666666"/>
			<stop  offset="0.931" style="stop-color:#40403F"/>
			<stop  offset="0.9532" style="stop-color:#3C3C3B"/>
		</linearGradient>
		<polygon fill="url(#SVGID_61_)" points="118.284,88.461 116.867,90.541 115.528,89.627 116.945,87.547 		"/>
		<path fill="#66FFFF" d="M84.592,67.541c-0.274-0.188-0.604-0.186-0.734,0.006c-0.133,0.189-0.014,0.498,0.266,0.688l-0.001,0.002
			l31.407,21.393l0.475-0.693L84.592,67.541L84.592,67.541z"/>
		<path fill="#00CCCC" d="M85.064,66.848c-0.275-0.188-0.605-0.186-0.736,0.006c-0.13,0.189-0.011,0.498,0.266,0.688v0.002
			l31.408,21.393l0.473-0.691L85.064,66.848L85.064,66.848z"/>
		<path fill="#00A99D" d="M85.537,66.156c-0.275-0.189-0.605-0.188-0.736,0.004c-0.129,0.189-0.012,0.498,0.267,0.688l0,0
			l31.407,21.395l0.473-0.691L85.537,66.156L85.537,66.156z"/>
	</g>
</g>
</svg>
