<?xml version="1.0" encoding="utf-8"?>
<!-- Generator: Adobe Illustrator 16.0.0, SVG Export Plug-In . SVG Version: 6.00 Build 0)  -->
<!DOCTYPE svg PUBLIC "-//W3C//DTD SVG 1.1//EN" "http://www.w3.org/Graphics/SVG/1.1/DTD/svg11.dtd">
<svg version="1.1" id="Layer_1" xmlns="http://www.w3.org/2000/svg" xmlns:xlink="http://www.w3.org/1999/xlink" x="0px" y="0px"
	 width="128px" height="128px" viewBox="0 0 128 128" enable-background="new 0 0 128 128" xml:space="preserve">
<g id="g3021">
	<path id="path2989" fill="none" stroke="#E4A227" stroke-width="2.4203" d="M124.75,64c0,33.551-27.199,60.75-60.75,60.75
		C30.449,124.75,3.25,97.551,3.25,64C3.25,30.449,30.449,3.25,64,3.25C97.551,3.25,124.75,30.449,124.75,64z"/>
</g>
<g>
	<polygon fill="#E4A227" points="40.822,97.58 35.665,39.733 92.335,39.733 87.173,97.571 63.966,104.005 	"/>
	<polygon fill="#F0BF26" points="63.953,99.017 82.706,93.817 87.117,44.392 63.953,44.392 	"/>
	<g>
		<polygon fill="#151515" points="74.087,26.957 69.382,26.957 74.273,32.266 74.273,34.792 64.198,34.792 64.198,31.834 
			69.09,31.834 64.198,26.525 64.198,23.995 74.087,23.995 		"/>
		<path fill="#020202" d="M62.404,24.001v10.786h-8.677v-3.566h5.07v-7.22H62.404L62.404,24.001z"/>
	</g>
	<polygon fill="#EBEBEB" points="63.941,84.277 63.911,84.286 56.01,82.153 55.504,76.493 51.666,76.493 48.383,76.493 
		49.377,87.634 63.909,91.667 63.941,91.659 	"/>
	<polygon fill="#EBEBEB" points="64.897,72.943 64.897,65.849 56.161,65.849 57.186,54.714 64.917,54.508 64.897,47.131 
		50.771,47.131 50.247,52.359 48.58,71.038 48.406,72.943 50.318,72.943 	"/>
	<polygon fill="#FFFFFF" points="64.849,54.518 64.881,54.509 72.63,54.976 73.286,62.3 77.126,62.3 80.408,62.3 79.168,48.593 
		64.883,47.127 64.849,47.136 	"/>
	<polyline fill="#FFFFFF" points="79.677,54.54 79.07,47.131 64.094,47.131 64.094,51.731 64.094,54.521 64.094,54.54 79.677,54.54 
			"/>
	<polygon fill="#FFFFFF" points="63.917,65.851 63.917,72.946 72.653,72.946 71.829,82.146 63.917,84.283 63.917,91.665 
		78.461,87.634 78.568,86.436 80.236,67.756 80.408,65.851 78.497,65.851 	"/>
	<path fill="#FFFFFF" d="M78.765,54.225"/>
</g>
</svg>
