<?xml version="1.0" encoding="utf-8"?>
<!-- Generator: Adobe Illustrator 16.0.0, SVG Export Plug-In . SVG Version: 6.00 Build 0)  -->
<!DOCTYPE svg PUBLIC "-//W3C//DTD SVG 1.1//EN" "http://www.w3.org/Graphics/SVG/1.1/DTD/svg11.dtd">
<svg version="1.1" id="Layer_1" xmlns="http://www.w3.org/2000/svg" xmlns:xlink="http://www.w3.org/1999/xlink" x="0px" y="0px"
	 width="128px" height="128px" viewBox="0 0 128 128" enable-background="new 0 0 128 128" xml:space="preserve">
<g id="g3021">
	<path id="path2989" fill="none" stroke="#1E416F" stroke-width="2.4203" d="M124.75,64c0,33.551-27.199,60.75-60.75,60.75
		S3.25,97.551,3.25,64S30.449,3.25,64,3.25S124.75,30.449,124.75,64z"/>
</g>
<g>
	<path fill="#1E416F" d="M30.195,80.902c-2.754,0-4.758-0.483-6.009-1.448c-1.252-0.963-1.878-2.682-1.878-5.154v-4.343
		c0-2.219-0.876-3.327-2.629-3.327v-3.381c1.753,0,2.629-1.187,2.629-3.557v-4.149c0-2.555,0.619-4.351,1.858-5.388
		c1.238-1.038,3.249-1.556,6.03-1.556v3.381c-2.002,0-3.005,1.086-3.005,3.258v3.991c0,2.996-1,4.889-3.004,5.675v0.07
		c2.004,0.753,3.004,2.608,3.004,5.57v3.715c0,1.185,0.236,2.025,0.705,2.521c0.469,0.493,1.236,0.741,2.3,0.741V80.902"/>
	<path fill="#1E416F" d="M39.209,68.36c0,0.786,0.196,1.383,0.587,1.789c0.391,0.407,0.915,0.612,1.572,0.612
		c0.329,0,0.658-0.031,0.986-0.092c0.328-0.062,0.657-0.123,0.986-0.186v4.15c-0.697,0.184-1.435,0.335-2.213,0.454
		s-1.588,0.179-2.43,0.179c-0.771,0-1.472-0.128-2.104-0.384c-0.632-0.257-1.171-0.625-1.618-1.107
		c-0.446-0.479-0.791-1.061-1.035-1.743c-0.245-0.68-0.367-1.446-0.367-2.299V47.098h5.635V68.36"/>
	<path fill="#1E416F" d="M57.239,63.624c0-2.504-1.07-3.756-3.21-3.756c-0.912,0-1.701,0.358-2.368,1.076
		c-0.667,0.718-1.073,1.611-1.218,2.68H57.239 M62.498,67.005h-12.02c0.196,2.754,1.899,4.131,5.112,4.131
		c2.05,0,3.852-0.532,5.405-1.596v4.296c-1.718,0.955-3.948,1.432-6.69,1.432c-2.997,0-5.324-0.833-6.979-2.5
		c-1.654-1.667-2.482-3.991-2.482-6.973c0-3.094,0.889-5.544,2.665-7.35c1.777-1.806,3.96-2.708,6.551-2.708
		c2.687,0,4.766,0.797,6.235,2.391c1.469,1.595,2.204,3.757,2.204,6.488V67.005L62.498,67.005z"/>
	<path fill="#1E416F" d="M64.75,74.235v-5.072c0.959,0.666,1.916,1.161,2.867,1.485c0.953,0.325,1.854,0.487,2.703,0.487
		c1.033,0,1.848-0.12,2.445-0.363c0.596-0.243,0.895-0.61,0.895-1.104c0-0.363-0.136-0.666-0.406-0.908
		c-0.27-0.243-0.616-0.455-1.041-0.638c-0.424-0.182-0.889-0.346-1.394-0.489c-0.505-0.146-0.989-0.309-1.456-0.494
		c-0.75-0.278-1.412-0.578-1.983-0.9s-1.051-0.695-1.438-1.121c-0.388-0.425-0.683-0.915-0.886-1.474
		c-0.203-0.557-0.307-1.217-0.307-1.979c0-1.041,0.235-1.938,0.701-2.691c0.469-0.753,1.091-1.369,1.867-1.846
		c0.777-0.478,1.667-0.829,2.67-1.054c1.004-0.225,2.048-0.337,3.132-0.337c0.845,0,1.704,0.066,2.575,0.196
		c0.873,0.132,1.732,0.322,2.577,0.573v4.583c-0.759-0.407-1.572-0.712-2.441-0.916c-0.868-0.203-1.72-0.305-2.56-0.305
		c-0.391,0-0.76,0.028-1.107,0.085s-0.656,0.14-0.922,0.249c-0.266,0.11-0.475,0.251-0.627,0.423
		c-0.153,0.173-0.23,0.367-0.23,0.587c0,0.34,0.113,0.632,0.338,0.875s0.518,0.451,0.877,0.627c0.36,0.177,0.762,0.335,1.203,0.473
		c0.443,0.14,0.881,0.281,1.314,0.426c0.787,0.267,1.498,0.557,2.135,0.872c0.635,0.315,1.18,0.684,1.634,1.108
		c0.454,0.426,0.802,0.924,1.045,1.494c0.242,0.57,0.363,1.249,0.363,2.037c0,1.104-0.243,2.044-0.73,2.825
		s-1.135,1.416-1.942,1.907c-0.809,0.49-1.738,0.85-2.794,1.073c-1.054,0.227-2.149,0.338-3.284,0.338
		C68.458,75.268,66.527,74.924,64.75,74.235"/>
	<path fill="#1E416F" d="M81.277,74.235v-5.072c0.958,0.666,1.915,1.161,2.866,1.485c0.954,0.325,1.854,0.487,2.703,0.487
		c1.033,0,1.849-0.12,2.445-0.363c0.596-0.243,0.895-0.61,0.895-1.104c0-0.363-0.135-0.666-0.405-0.908
		c-0.271-0.243-0.616-0.455-1.041-0.638c-0.425-0.182-0.89-0.346-1.395-0.489c-0.505-0.146-0.99-0.309-1.455-0.494
		c-0.751-0.278-1.412-0.578-1.984-0.9c-0.57-0.322-1.051-0.695-1.438-1.121c-0.387-0.425-0.683-0.915-0.886-1.474
		c-0.204-0.557-0.306-1.217-0.306-1.979c0-1.041,0.233-1.938,0.701-2.691c0.468-0.753,1.09-1.369,1.866-1.846
		c0.777-0.478,1.668-0.829,2.67-1.054c1.005-0.225,2.048-0.337,3.132-0.337c0.846,0,1.704,0.066,2.575,0.196
		c0.874,0.132,1.732,0.322,2.578,0.573v4.583c-0.76-0.407-1.573-0.712-2.442-0.916c-0.868-0.203-1.721-0.305-2.558-0.305
		c-0.392,0-0.762,0.028-1.109,0.085c-0.349,0.057-0.655,0.14-0.921,0.249c-0.267,0.11-0.477,0.251-0.629,0.423
		c-0.152,0.173-0.229,0.367-0.229,0.587c0,0.34,0.112,0.632,0.338,0.875c0.225,0.243,0.518,0.451,0.877,0.627
		c0.359,0.177,0.761,0.335,1.203,0.473c0.441,0.14,0.881,0.281,1.314,0.426c0.786,0.267,1.497,0.557,2.134,0.872
		c0.635,0.315,1.18,0.684,1.634,1.108c0.454,0.426,0.803,0.924,1.045,1.494c0.243,0.57,0.363,1.249,0.363,2.037
		c0,1.104-0.243,2.044-0.73,2.825s-1.135,1.416-1.942,1.907c-0.808,0.49-1.739,0.85-2.794,1.073
		c-1.055,0.227-2.149,0.338-3.283,0.338C84.984,75.268,83.054,74.924,81.277,74.235"/>
	<path fill="#1E416F" d="M108.321,66.63c-1.753,0-2.63,1.125-2.63,3.379v4.18c0,2.547-0.589,4.303-1.769,5.266
		c-1.18,0.967-3.095,1.448-5.743,1.448v-3.381c1.053,0,1.816-0.244,2.292-0.734c0.475-0.489,0.713-1.319,0.713-2.493v-3.862
		c0-2.888,0.876-4.693,2.63-5.416v-0.077c-1.754-0.786-2.63-2.74-2.63-5.863v-3.839c0-2.171-1.001-3.257-3.005-3.257v-3.381
		c2.639,0,4.549,0.519,5.734,1.556c1.186,1.036,1.778,2.807,1.778,5.311v4.266c0,2.344,0.876,3.516,2.63,3.516L108.321,66.63"/>
</g>
</svg>
