<?xml version="1.0" encoding="utf-8"?>
<!-- Generator: Adobe Illustrator 16.0.0, SVG Export Plug-In . SVG Version: 6.00 Build 0)  -->
<!DOCTYPE svg PUBLIC "-//W3C//DTD SVG 1.1//EN" "http://www.w3.org/Graphics/SVG/1.1/DTD/svg11.dtd">
<svg version="1.1" id="Layer_1" xmlns="http://www.w3.org/2000/svg" xmlns:xlink="http://www.w3.org/1999/xlink" x="0px" y="0px"
	 width="128px" height="128px" viewBox="0 0 128 128" enable-background="new 0 0 128 128" xml:space="preserve">
<g>
	<path fill-rule="evenodd" clip-rule="evenodd" fill="#84CD2C" d="M42.039,115.428c2.989-1.383,5.646-2.69,8.379-3.813
		c0.498-0.205,1.373,0.211,1.956,0.549c3.321,1.919,6.631,3.865,9.892,5.884c1.191,0.737,2.165,0.778,3.406,0.062
		c14.755-8.525,29.526-17.019,44.317-25.475c1.292-0.739,1.791-1.611,1.786-3.107c-0.046-16.985-0.046-33.971,0.001-50.955
		c0.005-1.496-0.482-2.378-1.77-3.115C95.176,26.94,80.362,18.388,65.563,9.814c-1.091-0.633-1.984-0.649-3.068-0.02
		C47.64,18.401,32.773,26.991,17.891,35.551c-1.159,0.667-1.611,1.477-1.609,2.812c0.035,17.116,0.032,34.229,0.002,51.344
		c-0.002,1.264,0.433,2.023,1.535,2.648c3.733,2.119,7.317,4.524,11.154,6.423c2.008,0.994,4.451,1.679,6.652,1.573
		c3.275-0.156,5.133-2.771,5.144-6.246c0.024-8.914,0.008-17.83,0.009-26.745c0-8.069-0.003-16.139,0.001-24.209
		c0.002-2.427,0.215-2.627,2.708-2.637c1.236-0.005,2.475,0.041,3.708-0.011c1.599-0.071,2.181,0.646,2.166,2.227
		c-0.055,5.728-0.021,11.454-0.021,17.18c0,11.324,0.024,22.646-0.025,33.97c-0.008,1.871-0.124,3.795-0.562,5.606
		c-1.634,6.761-7.493,10.58-15.116,9.417c-3.261-0.495-6.476-1.846-9.487-3.277c-3.632-1.726-7.006-3.986-10.527-5.946
		c-3.844-2.139-5.646-5.38-5.642-9.748c0.019-17.309,0.012-34.62,0.006-51.93c-0.002-4.274,1.787-7.454,5.535-9.607
		C28.52,19.771,43.488,11.1,58.477,2.461c3.626-2.089,7.325-2.143,10.954-0.055c15.108,8.69,30.197,17.412,45.29,26.132
		c3.583,2.071,5.305,5.201,5.3,9.342c-0.015,17.441-0.01,34.882-0.004,52.321c0.003,4.228-1.848,7.309-5.518,9.41
		c-15.066,8.632-30.121,17.285-45.163,25.961c-3.605,2.08-7.123,2.094-10.7-0.035c-4.861-2.895-9.754-5.734-14.62-8.624
		C43.383,116.539,42.829,116.029,42.039,115.428z"/>
	<path fill-rule="evenodd" clip-rule="evenodd" fill="#84CD2C" d="M75.745,90.459c-2.172-0.399-6.537-0.83-10.675-2.043
		c-6.666-1.956-10.62-6.521-11.285-13.637c-0.212-2.286,0.235-2.843,2.478-2.888c0.325-0.006,0.65,0,0.976,0
		c4.42-0.002,4.438-0.009,5.901,4.153c1.086,3.086,3.433,4.705,6.451,5.352c5.532,1.188,11.124,1.313,16.642,0.012
		c1.567-0.368,3.231-1.232,4.367-2.356c2.881-2.848,1.94-7.225-1.892-8.407c-3.391-1.046-6.964-1.524-10.473-2.158
		c-4.468-0.811-9.031-1.223-13.409-2.362c-4.957-1.286-8.604-4.262-9.288-9.816c-0.947-7.681,2.626-13.315,10.551-15.75
		c7.787-2.392,15.683-2.205,23.377,0.567c6.309,2.271,9.309,7.171,10.054,13.635c0.151,1.305-0.501,1.953-1.774,2.011
		c-0.584,0.028-1.181-0.059-1.757,0.022c-3.167,0.444-5.358-0.156-6.153-3.908c-0.57-2.697-3.016-4.17-5.686-4.814
		c-4.815-1.157-9.676-1.191-14.491-0.055c-2.534,0.6-4.594,1.901-4.994,4.807c-0.346,2.509,0.357,3.977,2.809,4.612
		c3.51,0.912,7.109,1.481,10.674,2.176c4.651,0.908,9.369,1.555,13.94,2.757c5.091,1.339,8.661,4.445,9.199,10.095
		c0.587,6.188-1.456,11.157-6.973,14.354C89.249,89.753,83.618,90.259,75.745,90.459z"/>
</g>
</svg>
