<?xml version="1.0" encoding="utf-8"?>
<!-- Generator: Adobe Illustrator 16.0.0, SVG Export Plug-In . SVG Version: 6.00 Build 0)  -->
<!DOCTYPE svg PUBLIC "-//W3C//DTD SVG 1.1//EN" "http://www.w3.org/Graphics/SVG/1.1/DTD/svg11.dtd">
<svg version="1.1" id="Layer_1" xmlns="http://www.w3.org/2000/svg" xmlns:xlink="http://www.w3.org/1999/xlink" x="0px" y="0px"
	 width="128px" height="128px" viewBox="0 0 128 128" enable-background="new 0 0 128 128" xml:space="preserve">
<g>
	<g>
		<rect x="3.468" y="22.383" opacity="0.5" fill="#6D6E71" enable-background="new    " width="122.328" height="88.623"/>
		
			<rect x="2.204" y="20.815" fill="#FFFFFF" stroke="#D1D3D4" stroke-width="0.4404" stroke-miterlimit="10" width="122.328" height="88.625"/>
		<g>
			<g>
				<rect x="58.259" y="102.17" fill="#CCCCCC" width="35.837" height="0.918"/>
				<rect x="58.256" y="82.983" fill="#CC0000" width="6.372" height="19.191"/>
				<rect x="65.629" y="90.218" fill="#D91110" width="6.371" height="11.951"/>
				<rect x="72.991" y="94.268" fill="#E52020" width="6.371" height="7.907"/>
				<rect x="80.36" y="90.544" fill="#F23030" width="6.371" height="11.616"/>
				<rect x="87.728" y="93.852" fill="#FE3F3F" width="6.374" height="8.307"/>
			</g>
			<g>
				<rect x="96.884" y="83.61" fill="#CCCCCC" width="22.548" height="1.497"/>
				<rect x="96.883" y="86.232" fill="#CCCCCC" width="22.549" height="1.501"/>
				<rect x="96.883" y="88.852" fill="#CCCCCC" width="22.55" height="1.497"/>
				<rect x="96.888" y="91.476" fill="#CCCCCC" width="22.551" height="1.499"/>
				<rect x="96.884" y="94.101" fill="#CCCCCC" width="22.549" height="1.498"/>
				<rect x="96.887" y="96.724" fill="#CCCCCC" width="22.547" height="1.498"/>
				<rect x="96.896" y="99.34" fill="#CCCCCC" width="22.548" height="1.499"/>
				<rect x="96.894" y="101.962" fill="#CCCCCC" width="15.868" height="1.498"/>
			</g>
		</g>
		<g>
			<rect x="10.285" y="79.941" fill="#CCCCCC" width="29.23" height="0.749"/>
			<rect x="10.282" y="64.29" fill="#CC0000" width="5.196" height="15.656"/>
			<rect x="16.296" y="70.192" fill="#D91110" width="5.197" height="9.749"/>
			<rect x="22.301" y="73.496" fill="#E52020" width="5.196" height="6.45"/>
			<rect x="28.313" y="70.459" fill="#F23030" width="5.195" height="9.475"/>
			<rect x="34.321" y="73.154" fill="#FE3F3F" width="5.199" height="6.777"/>
			<rect x="10.285" y="83.059" fill="#CCCCCC" width="22.547" height="1.497"/>
			<polygon fill="#CCCCCC" points="10.29,85.688 32.836,85.674 32.841,87.172 10.289,87.185 			"/>
			<rect x="10.288" y="88.301" fill="#CCCCCC" width="22.55" height="1.499"/>
			<rect x="10.292" y="90.922" fill="#CCCCCC" width="22.549" height="1.5"/>
			<rect x="10.298" y="93.544" fill="#CCCCCC" width="22.549" height="1.495"/>
			<rect x="10.301" y="96.167" fill="#CCCCCC" width="22.548" height="1.497"/>
			<rect x="10.299" y="98.788" fill="#CCCCCC" width="22.549" height="1.499"/>
			<rect x="10.301" y="101.412" fill="#CCCCCC" width="11.274" height="1.499"/>
		</g>
		<g>
			<g>
				<path fill="#58BFAC" d="M94.357,66.697c-10.215,0.006-18.498-8.266-18.504-18.482C75.85,37.998,84.129,29.703,94.33,29.703
					c10.225-0.002,18.504,8.272,18.519,18.487C112.854,58.399,104.573,66.695,94.357,66.697z"/>
				<path fill="#ABF1E5" d="M104.521,32.746c2.653,1.761,4.83,4.173,6.3,7.02L94.354,48.2L104.521,32.746z"/>
				<path fill="#97E5D7" d="M110.821,39.766c1.294,2.522,2.033,5.388,2.027,8.424c0.012,5.917-2.767,11.177-7.093,14.57L94.357,48.2
					L110.821,39.766z"/>
				<path fill="#81D8C8" d="M105.756,62.76c-3.129,2.458-7.094,3.929-11.398,3.937L94.354,48.2L105.756,62.76z"/>
				<path fill="#6DCCBB" d="M94.357,66.697L94.354,48.2L81.183,61.183C84.535,64.585,89.202,66.703,94.357,66.697z"/>
			</g>
			<rect x="77.046" y="69.854" fill="#CCCCCC" width="7.616" height="2.164"/>
			<polygon fill="#CCCCCC" points="110.823,72.005 88.199,72.027 88.195,69.854 110.817,69.833 			"/>
		</g>
		<g>
			<rect x="20.257" y="32.025" fill="#CCCCCC" width="29.217" height="1.498"/>
			<rect x="10.302" y="35.77" fill="#CCCCCC" width="49.13" height="1.498"/>
			<rect x="10.303" y="38.392" fill="#CCCCCC" width="49.134" height="1.496"/>
			<rect x="10.306" y="41.014" fill="#CCCCCC" width="49.132" height="1.498"/>
			<rect x="10.307" y="43.633" fill="#CCCCCC" width="49.136" height="1.5"/>
			<rect x="10.308" y="46.256" fill="#CCCCCC" width="49.134" height="1.497"/>
			<rect x="10.311" y="48.877" fill="#CCCCCC" width="49.131" height="1.5"/>
			<rect x="10.31" y="51.499" fill="#CCCCCC" width="49.135" height="1.499"/>
			<rect x="10.312" y="54.121" fill="#CCCCCC" width="49.134" height="1.5"/>
			<rect x="10.315" y="56.748" fill="#CCCCCC" width="24.565" height="1.5"/>
		</g>
	</g>
	<g>
		<g id="line_1_" opacity="0.7">
			<polygon fill="#D3E6F1" points="42.565,78.136 86.554,37.336 90.532,41.291 50.122,85.747 			"/>
			<polygon opacity="0.5" fill="#FFFFFF" enable-background="new    " points="50.471,80.057 48.009,77.593 87.988,38.584 
				89.428,40.024 			"/>
		</g>
		<g id="Megaphone_1_">
			<path fill="#F1F2F2" d="M38.731,76.244c1.741-1.505,1.84-7.84,1.84-7.84s1.72,6.646,3.565,6.669
				c1.847,0.023,6.165-4.979,6.165-4.979s-2.996,6.711-1.815,8.188c1.178,1.479,8.361-1.546,8.361-1.546s-6.374,3.41-5.814,5.848
				c0.437,1.895,7.3,3.65,7.3,3.65s-7.31-0.992-8.117,1.484s3.737,7.071,3.737,7.071s-6.035-4.929-7.46-4.082
				c-1.425,0.848-1.576,6.626-1.576,6.626s-1.275-5.944-3.173-5.883c-1.896,0.058-5.855,6.164-5.855,6.164l1.577-8.357l-8.362,1.549
				l6.188-5.833l-4.661-2.735c0,0,3.736-1.428,5.421-2.009c1.686-0.586-4.053-7.476-4.053-7.476S36.99,77.75,38.731,76.244z"/>
			<g>
				<path fill="#BE1E2D" d="M34.547,120.573c0.258,0.146,0.573,0.193,0.882,0.108c0.309-0.086,0.553-0.289,0.701-0.547l2.097-3.698
					c0.146-0.261,0.194-0.572,0.111-0.883c-0.085-0.31-0.289-0.553-0.546-0.7l-7.212-8.607l-3.244,5.717L34.547,120.573z"/>
				<path fill="#ED1C24" d="M36.503,119.476l-0.375,0.661c-0.076,0.133-0.183,0.254-0.307,0.349l-8.14-9.135l0.601-1.057
					L36.503,119.476z"/>
				<path fill="#20364D" d="M36.133,112.93l0.178-0.147c0.226-0.19,0.38-0.468,0.41-0.784c0.026-0.316-0.078-0.617-0.267-0.846
					l-0.745-0.887c-0.189-0.227-0.466-0.381-0.784-0.409c-0.317-0.027-0.619,0.077-0.845,0.267l-0.178,0.148L36.133,112.93z"/>
			</g>
			<path fill="#50667E" d="M45.683,81.968c2.411,2.418,2.402,6.333-0.015,8.747c-2.416,2.408-6.333,2.404-8.743-0.012
				c-2.41-2.42-2.406-6.338,0.012-8.748S43.271,79.549,45.683,81.968z"/>
			<g>
				<path fill="#BE1E2D" d="M25.187,91.29l-3.1,3.094l11.115,11.145l3.099-3.092c3.84-3.825,9.085-5.383,14.065-4.667L29.892,77.238
					C30.596,82.221,29.026,87.463,25.187,91.29z"/>
				<path fill="#ED1C24" d="M27.019,93.178l-3.101,3.089L22.9,95.198l3.1-3.092c3.839-3.827,5.409-9.068,4.707-14.05l1.017,1.067
					C32.428,84.107,30.856,89.35,27.019,93.178z"/>
				<path fill="#20364D" d="M52.712,95.428c0.299,0.302,0.485,0.718,0.483,1.175c0,0.456-0.187,0.871-0.486,1.17l0,0
					c-0.302,0.3-0.715,0.483-1.173,0.483c-0.459-0.002-0.871-0.186-1.172-0.487l-20.473-20.53c-0.297-0.3-0.483-0.714-0.483-1.173
					c0.002-0.457,0.187-0.87,0.488-1.171l0,0c0.299-0.301,0.715-0.485,1.171-0.485c0.458,0,0.873,0.188,1.171,0.488L52.712,95.428z"
					/>
			</g>
			<g>
				<path fill="#20364D" d="M33.495,105.822l-7.627,7.604c-1.051,1.046-2.501,1.695-4.103,1.693s-3.051-0.656-4.098-1.705
					l-3.509-3.521c-1.049-1.053-1.698-2.5-1.694-4.104c0.002-1.599,0.652-3.049,1.703-4.098l7.626-7.604L33.495,105.822z"/>
				<g>
					<g>
						<g>
							<g>
								<path fill="#00A79D" d="M16.132,108.607c-0.222,0.137-0.517,0.109-0.707-0.081c-0.224-0.225-0.226-0.584,0-0.81L20.138,103
									c0.221-0.223,0.584-0.223,0.806,0c0.225,0.223,0.225,0.584,0.002,0.808l-4.713,4.719
									C16.201,108.557,16.167,108.585,16.132,108.607z"/>
							</g>
						</g>
					</g>
					<g>
						<g>
							<g>
								<path fill="#00A79D" d="M17.669,110.311c-0.221,0.138-0.514,0.111-0.707-0.082c-0.223-0.224-0.223-0.584,0-0.808
									l4.714-4.718c0.221-0.224,0.583-0.224,0.807,0s0.224,0.583,0,0.807l-4.714,4.717
									C17.739,110.26,17.706,110.284,17.669,110.311z"/>
							</g>
						</g>
					</g>
					<g>
						<g>
							<g>
								<path fill="#00A79D" d="M19.405,111.969c-0.219,0.14-0.514,0.112-0.704-0.081c-0.224-0.22-0.224-0.583-0.002-0.807
									l4.713-4.718c0.224-0.224,0.584-0.224,0.809,0c0.222,0.223,0.222,0.583,0,0.81l-4.714,4.715
									C19.476,111.921,19.442,111.946,19.405,111.969z"/>
							</g>
						</g>
					</g>
				</g>
				<path fill="#50667E" d="M15.009,108.15c-0.023,0.026-0.048,0.048-0.077,0.065c-0.262,0.185-0.624,0.121-0.808-0.142
					c-0.56-0.796-0.853-1.733-0.852-2.713c0.001-1.261,0.494-2.445,1.39-3.335l2.637-2.634c0.229-0.227,0.596-0.227,0.822,0.002
					c0.225,0.228,0.223,0.594-0.002,0.82l-2.639,2.631c-0.677,0.672-1.047,1.566-1.047,2.516c-0.002,0.74,0.222,1.445,0.641,2.046
					C15.235,107.645,15.204,107.956,15.009,108.15z"/>
				<path fill="#50667E" d="M17.668,113.415l0.234-0.234c0.15-0.148,0.243-0.357,0.244-0.586c0-0.228-0.094-0.437-0.242-0.585
					l-2.341-2.35c-0.149-0.148-0.357-0.24-0.585-0.241c-0.23,0-0.437,0.09-0.587,0.241l-0.233,0.234L17.668,113.415z"/>
			</g>
		</g>
	</g>
	<g>
		
			<linearGradient id="SVGID_1_" gradientUnits="userSpaceOnUse" x1="-234.7676" y1="239.3027" x2="-233.9018" y2="239.3027" gradientTransform="matrix(4.2805 -4.2805 -4.2805 -4.2805 2117.7383 58.9559)">
			<stop  offset="0" style="stop-color:#561211"/>
			<stop  offset="1" style="stop-color:#EB2626"/>
		</linearGradient>
		<path fill="url(#SVGID_1_)" d="M92.064,44.509c-0.038,0.086-0.079,0.174-0.119,0.262c0.012-0.008,0.023-0.019,0.033-0.028
			C92.033,44.688,92.062,44.609,92.064,44.509 M90.637,42.113c-0.281,0.485-0.623,1.035-1.026,1.626
			c0.936,0.688,1.7,1.089,2.116,1.089c0.063,0,0.119-0.01,0.165-0.029c-0.237-0.68-0.526-1.347-0.865-1.994
			C90.904,42.573,90.773,42.341,90.637,42.113 M83.491,35.971c-0.085,0.008-0.152,0.036-0.201,0.083
			c-0.257,0.258,0.083,1.062,0.829,2.126c0.602-0.41,1.159-0.753,1.648-1.035l-0.377-0.238c-0.186-0.109-0.372-0.215-0.563-0.313
			C84.391,36.362,83.944,36.155,83.491,35.971"/>
		
			<linearGradient id="SVGID_2_" gradientUnits="userSpaceOnUse" x1="-235.167" y1="239.4453" x2="-234.3008" y2="239.4453" gradientTransform="matrix(15.6011 -15.6011 -15.6011 -15.6011 7479.5293 119.4836)">
			<stop  offset="0" style="stop-color:#F48020"/>
			<stop  offset="0.4784" style="stop-color:#EFB226"/>
			<stop  offset="1" style="stop-color:#ECE73B"/>
		</linearGradient>
		<path fill="url(#SVGID_2_)" d="M85.768,37.146c-0.489,0.282-1.047,0.625-1.648,1.035c-2.232,1.525-5.053,3.962-7.064,7.48
			l2.757-2.351c0,0-3.879,3.816-7.43,10.185l3.458-3.739c0,0-5.705,7.928-6.237,8.459c0.532-0.531,8.46-6.237,8.46-6.237
			l-3.74,3.458c6.369-3.549,10.186-7.429,10.186-7.429l-2.351,2.757c3.497-2,5.925-4.797,7.453-7.025
			c0.403-0.591,0.745-1.141,1.026-1.626c-0.232-0.389-0.483-0.768-0.754-1.138c-0.125,0.08-0.248,0.162-0.37,0.241
			c-0.131,0.081-0.258,0.162-0.385,0.241c-0.733,1.31-2.323,3.641-4.991,5.166l1.357-1.59c0,0-2.202,2.238-5.875,4.285l2.158-1.995
			c0,0-4.573,3.289-4.879,3.595c0.306-0.307,3.597-4.878,3.597-4.878l-1.994,2.157c2.047-3.672,4.284-5.873,4.284-5.873
			l-1.591,1.355c2.002-3.5,5.391-5.145,6.038-5.434c0.013-0.011,0.024-0.02,0.037-0.031c-0.25-0.205-0.506-0.4-0.767-0.587
			c-0.088-0.064-0.178-0.126-0.271-0.188L85.768,37.146"/>
		
			<linearGradient id="SVGID_3_" gradientUnits="userSpaceOnUse" x1="-235.1587" y1="239.4277" x2="-234.2926" y2="239.4277" gradientTransform="matrix(11.7869 -11.7869 -11.7869 -11.7869 5676.5615 95.4662)">
			<stop  offset="0" style="stop-color:#F48020"/>
			<stop  offset="0.4784" style="stop-color:#EFB226"/>
			<stop  offset="1" style="stop-color:#ECE73B"/>
		</linearGradient>
		<path fill="url(#SVGID_3_)" d="M87.232,38.247c-0.647,0.289-4.036,1.935-6.038,5.434l1.591-1.355c0,0-2.237,2.201-4.284,5.873
			l1.994-2.157c0,0-3.291,4.571-3.597,4.878c0.306-0.307,4.879-3.595,4.879-3.595l-2.158,1.995c3.673-2.047,5.875-4.285,5.875-4.285
			l-1.357,1.59c2.668-1.525,4.258-3.856,4.991-5.166c-0.29,0.184-0.574,0.361-0.847,0.533c-0.006,0.004-0.012,0.007-0.019,0.01
			c-1.096,1.871-2.617,2.947-2.617,2.947c0.992-0.969,1.761-1.951,2.315-2.761c-0.279,0.169-0.545,0.332-0.795,0.486
			c-0.344,0.213-0.673,0.394-0.958,0.562c-0.283,0.168-0.536,0.31-0.747,0.425c-0.019,0.01-0.036,0.021-0.055,0.03
			c-0.4,0.263-0.841,0.534-1.317,0.8l0.614-0.569l-0.1-0.1c-0.932,0.676-2.233,1.625-2.366,1.757
			c0.209-0.208,2.445-3.316,2.445-3.316l-1.355,1.467c1.392-2.498,2.912-3.994,2.912-3.994l-1.08,0.922
			c0.178-0.311,0.373-0.602,0.577-0.871c-0.832,0.558-1.855,1.351-2.866,2.386c0,0,1.149-1.627,3.141-2.73
			C86.406,38.975,86.827,38.578,87.232,38.247"/>
		
			<linearGradient id="SVGID_4_" gradientUnits="userSpaceOnUse" x1="-236.7231" y1="239.2285" x2="-235.8573" y2="239.2285" gradientTransform="matrix(-2.8344 2.5688 -2.5688 -2.8344 29.9044 1325.1938)">
			<stop  offset="0" style="stop-color:#F48020"/>
			<stop  offset="0.4784" style="stop-color:#EFB226"/>
			<stop  offset="1" style="stop-color:#ECE73B"/>
		</linearGradient>
		<path fill="url(#SVGID_4_)" d="M86.011,39.443c-1.991,1.103-3.141,2.73-3.141,2.73c1.011-1.036,2.034-1.828,2.866-2.386
			C85.825,39.668,85.917,39.554,86.011,39.443"/>
		
			<linearGradient id="SVGID_5_" gradientUnits="userSpaceOnUse" x1="-236.6919" y1="239.8672" x2="-235.8261" y2="239.8672" gradientTransform="matrix(-2.5692 2.8348 2.8348 2.5692 -1199.267 96.2004)">
			<stop  offset="0" style="stop-color:#F48020"/>
			<stop  offset="0.4784" style="stop-color:#EFB226"/>
			<stop  offset="1" style="stop-color:#ECE73B"/>
		</linearGradient>
		<path fill="url(#SVGID_5_)" d="M88.263,42c-0.102,0.063-0.203,0.125-0.302,0.186c-0.555,0.811-1.323,1.792-2.315,2.761
			C85.646,44.948,87.167,43.871,88.263,42"/>
		
			<linearGradient id="SVGID_6_" gradientUnits="userSpaceOnUse" x1="-235.0532" y1="239.4316" x2="-234.187" y2="239.4316" gradientTransform="matrix(8.3008 -8.3008 -8.3008 -8.3008 4022.9902 79.1837)">
			<stop  offset="0" style="stop-color:#ECE73B"/>
			<stop  offset="0.4804" style="stop-color:#EEED89"/>
			<stop  offset="1" style="stop-color:#F2F5D2"/>
		</linearGradient>
		<path fill="url(#SVGID_6_)" d="M85.406,43.69c-0.386,0.209-0.606,0.329-0.606,0.329l-0.097-0.098l-0.614,0.569
			C84.565,44.224,85.006,43.953,85.406,43.69 M87.27,38.216c-0.013,0.011-0.024,0.02-0.037,0.031
			c-0.405,0.331-0.826,0.729-1.222,1.196c-0.094,0.111-0.186,0.225-0.274,0.344c-0.204,0.269-0.399,0.56-0.577,0.871l1.08-0.922
			c0,0-1.521,1.496-2.912,3.994l1.355-1.467c0,0-2.236,3.107-2.445,3.316c0.133-0.132,1.435-1.082,2.366-1.757l-0.191-0.191
			c0,0,0.13-0.24,0.358-0.662c0.114-0.209,0.258-0.461,0.426-0.746c0.168-0.285,0.35-0.614,0.562-0.958
			c0.211-0.346,0.44-0.719,0.682-1.116c0.247-0.391,0.508-0.803,0.775-1.231c0.104-0.16,0.209-0.322,0.316-0.484
			C87.444,38.36,87.357,38.288,87.27,38.216"/>
		
			<linearGradient id="SVGID_7_" gradientUnits="userSpaceOnUse" x1="-235.9092" y1="239.1172" x2="-235.0432" y2="239.1172" gradientTransform="matrix(3.346993e-005 6.6733 -6.6733 3.346993e-005 1693.3582 1616.6742)">
			<stop  offset="0" style="stop-color:#561211"/>
			<stop  offset="1" style="stop-color:#EB2626"/>
		</linearGradient>
		<path fill="url(#SVGID_7_)" d="M91.341,42.423c1.694,1.897-0.27,8.612-0.27,8.612c6.497-2.417,9.795-5.996,11.465-9.145
			c1.945-3.663,1.68-6.748,1.68-6.748l-10.427,5.896L91.341,42.423z"/>
		
			<linearGradient id="SVGID_8_" gradientUnits="userSpaceOnUse" x1="-235.3965" y1="238.8867" x2="-234.5303" y2="238.8867" gradientTransform="matrix(-4.0905 -4.0905 -4.0905 4.0905 115.0018 -1896.3672)">
			<stop  offset="0" style="stop-color:#561211"/>
			<stop  offset="1" style="stop-color:#EB2626"/>
		</linearGradient>
		<path fill="url(#SVGID_8_)" d="M93.789,41.039c0.668,2.495-0.611,7.16-0.611,7.16c4.666-1.657,7.563-3.984,9.358-6.308
			c1.945-3.664,1.679-6.749,1.679-6.749L93.789,41.039z"/>
		
			<linearGradient id="SVGID_9_" gradientUnits="userSpaceOnUse" x1="-235.3501" y1="239.7559" x2="-234.4845" y2="239.7559" gradientTransform="matrix(9.4122 9.4122 9.4122 -9.4122 48.1027 4502.9912)">
			<stop  offset="0" style="stop-color:#561211"/>
			<stop  offset="1" style="stop-color:#EB2626"/>
		</linearGradient>
		<path fill="url(#SVGID_9_)" d="M104.147,35.076c0,0,0.673,7.85-9.678,11.703c0,0,1.446-4.946,0.2-6.341L104.147,35.076z"/>
		
			<linearGradient id="SVGID_10_" gradientUnits="userSpaceOnUse" x1="-236.1631" y1="239.3691" x2="-235.297" y2="239.3691" gradientTransform="matrix(-6.6735 -2.390777e-005 -2.390777e-005 6.6735 -1490.428 -1567.0623)">
			<stop  offset="0" style="stop-color:#561211"/>
			<stop  offset="1" style="stop-color:#EB2626"/>
		</linearGradient>
		<path fill="url(#SVGID_10_)" d="M85.604,36.687c-1.895-1.693-8.611,0.27-8.611,0.27c2.419-6.497,5.995-9.796,9.146-11.464
			c3.665-1.944,6.748-1.68,6.748-1.68L86.991,34.24L85.604,36.687z"/>
		
			<linearGradient id="SVGID_11_" gradientUnits="userSpaceOnUse" x1="-235.1235" y1="239.9443" x2="-234.2573" y2="239.9443" gradientTransform="matrix(5.6437 5.6437 5.6437 -5.6437 57.0286 2708.3721)">
			<stop  offset="0" style="stop-color:#F6A8AC"/>
			<stop  offset="0.7773" style="stop-color:#EF4C3C"/>
			<stop  offset="1" style="stop-color:#EB2626"/>
		</linearGradient>
		<path fill="url(#SVGID_11_)" d="M86.99,34.24c-2.494-0.668-7.161,0.611-7.161,0.611c1.656-4.666,3.985-7.563,6.309-9.359
			c3.665-1.943,6.748-1.678,6.748-1.678L86.99,34.24z"/>
		
			<linearGradient id="SVGID_12_" gradientUnits="userSpaceOnUse" x1="-235.3394" y1="239.7754" x2="-234.473" y2="239.7754" gradientTransform="matrix(8.7499 8.7499 8.7499 -8.7499 50.7774 4188.4111)">
			<stop  offset="0" style="stop-color:#561211"/>
			<stop  offset="1" style="stop-color:#EB2626"/>
		</linearGradient>
		<path fill="url(#SVGID_12_)" d="M92.951,23.88c0,0-7.85-0.672-11.701,9.679c0,0,4.945-1.446,6.341-0.199L92.951,23.88z"/>
		
			<linearGradient id="SVGID_13_" gradientUnits="userSpaceOnUse" x1="-235.3438" y1="239.623" x2="-234.4776" y2="239.623" gradientTransform="matrix(8.0286 8.0286 8.0286 -8.0286 67.9244 3833.7363)">
			<stop  offset="0" style="stop-color:#561211"/>
			<stop  offset="1" style="stop-color:#EB2626"/>
		</linearGradient>
		<path fill="url(#SVGID_13_)" d="M91.268,40.174C91.267,40.174,91.267,40.174,91.268,40.174c0.331,0.482,0.632,0.98,0.9,1.489
			c0.061,0.116,0.118,0.233,0.178,0.35l0,0c-0.058-0.117-0.117-0.234-0.178-0.351C91.899,41.153,91.601,40.657,91.268,40.174
			 M86.078,35.51L86.078,35.51c0.153,0.083,0.304,0.168,0.453,0.257l0.767,0.483c0-0.001,0-0.001,0-0.001l-0.765-0.483
			C86.382,35.677,86.231,35.592,86.078,35.51 M119.479,7.276c-3.267,0.001-12.541,0.859-21.397,9.715
			c-6.835,6.836-10.204,13.683-11.771,17.88c0.241-0.078,0.479-0.152,0.712-0.22c0.293-0.086,0.58-0.165,0.861-0.237
			c1.264-3.557,4.39-10.43,11.351-17.392c8.512-8.51,17.228-9.16,19.685-9.16c0.441,0,0.681,0.021,0.681,0.021
			s0.906,10.326-9.135,20.367c-0.016,0.014-0.031,0.03-0.046,0.045c-0.012,0.011-0.023,0.024-0.036,0.036
			c-0.642,0.643-1.285,1.25-1.924,1.824c-5.778,5.218-11.279,7.887-14.617,9.159c-0.016,0.006-0.03,0.012-0.046,0.019
			c-0.015,0.065-0.03,0.13-0.045,0.197c-0.161,0.689-0.361,1.424-0.612,2.196c4.196-1.563,11.055-4.931,17.902-11.777
			c10.986-10.987,9.662-22.624,9.662-22.624S120.266,7.276,119.479,7.276"/>
		
			<linearGradient id="SVGID_14_" gradientUnits="userSpaceOnUse" x1="-235.3047" y1="239.416" x2="-234.4389" y2="239.416" gradientTransform="matrix(10.5245 -10.5245 -10.5245 -10.5245 5091.3818 75.565)">
			<stop  offset="0" style="stop-color:#561211"/>
			<stop  offset="1" style="stop-color:#EB2626"/>
		</linearGradient>
		<path fill="url(#SVGID_14_)" d="M91.201,40.078C91.201,40.078,91.2,40.078,91.201,40.078c0.021,0.033,0.044,0.064,0.065,0.097
			c0,0,0,0,0.001,0C91.246,40.142,91.224,40.11,91.201,40.078 M87.298,36.249C87.298,36.249,87.298,36.249,87.298,36.249
			l0.078,0.049c0.09,0.062,0.18,0.125,0.269,0.189c0.272,0.194,0.537,0.398,0.799,0.612l0,0c-0.261-0.215-0.525-0.419-0.797-0.612
			c-0.09-0.065-0.18-0.127-0.271-0.189L87.298,36.249 M108.458,30.156c-6.06,5.448-11.776,7.855-14.579,8.792
			c-0.026,0.126-0.056,0.255-0.084,0.386c0.016-0.007,0.03-0.013,0.046-0.019C97.179,38.043,102.68,35.374,108.458,30.156
			 M118.918,7.863c-2.457,0-11.173,0.649-19.685,9.16c-6.961,6.962-10.087,13.834-11.351,17.392c0.602-0.155,1.172-0.28,1.706-0.379
			c1.155-3.265,4.031-9.609,10.46-16.037c7.832-7.834,15.854-8.43,18.115-8.43c0.406,0,0.626,0.019,0.626,0.019
			s0.831,9.48-8.372,18.709c0.015-0.015,0.03-0.031,0.046-0.045c10.041-10.041,9.135-20.367,9.135-20.367
			S119.359,7.863,118.918,7.863"/>
		
			<linearGradient id="SVGID_15_" gradientUnits="userSpaceOnUse" x1="-235.3423" y1="239.665" x2="-234.4763" y2="239.665" gradientTransform="matrix(10.0808 10.0808 10.0808 -10.0808 56.6522 4806.626)">
			<stop  offset="0" style="stop-color:#561211"/>
			<stop  offset="1" style="stop-color:#EB2626"/>
		</linearGradient>
		<path fill="url(#SVGID_15_)" d="M103.935,28.38c-0.979,0-1.956-0.372-2.702-1.119c-1.064-1.064-1.369-2.6-0.914-3.935
			c0.184-0.537,0.487-1.043,0.918-1.473c0.746-0.747,1.727-1.121,2.705-1.121c0.978,0,1.956,0.374,2.701,1.118
			c0.976,0.976,1.313,2.346,1.015,3.597c-0.159,0.663-0.497,1.292-1.015,1.812C105.894,28.006,104.914,28.38,103.935,28.38
			 M118.164,9.568c-2.262,0-10.283,0.596-18.115,8.43c-6.429,6.427-9.305,12.771-10.46,16.037c0.325-0.06,0.638-0.112,0.935-0.155
			c0.057-0.069,0.114-0.136,0.176-0.2c0.167-0.177,0.35-0.335,0.54-0.477c0.052-0.154,0.112-0.327,0.189-0.511
			c0.186-0.432,0.375-0.979,0.67-1.566c0.297-0.586,0.585-1.279,1.004-1.973c0.202-0.352,0.411-0.72,0.629-1.1
			c0.11-0.189,0.223-0.382,0.337-0.577c0.124-0.188,0.251-0.379,0.379-0.572c0.26-0.388,0.526-0.785,0.798-1.191
			c0.271-0.408,0.55-0.822,0.874-1.215c0.634-0.791,1.256-1.642,1.952-2.448c0.725-0.784,1.459-1.582,2.195-2.378l0.278-0.294
			c0.121-0.122,0.202-0.191,0.306-0.29l0.584-0.548l0.582-0.545c0.207-0.177,0.414-0.354,0.619-0.529
			c0.413-0.352,0.818-0.708,1.248-1.011c0.427-0.31,0.829-0.639,1.259-0.918c0.429-0.28,0.834-0.58,1.261-0.827
			c0.427-0.245,0.836-0.5,1.249-0.721c0.418-0.212,0.815-0.438,1.217-0.622c0.403-0.177,0.788-0.361,1.167-0.511
			c0.757-0.311,1.466-0.552,2.104-0.733c0.636-0.187,1.2-0.309,1.666-0.389c0.466-0.09,0.84-0.116,1.091-0.138
			c0.243-0.019,0.376-0.019,0.387-0.019l0,0c0,0-0.132,0.027-0.373,0.097c-0.242,0.068-0.591,0.181-1.029,0.34
			c-0.439,0.154-0.962,0.371-1.553,0.631c-0.59,0.263-1.237,0.593-1.937,0.964c-0.693,0.382-1.423,0.827-2.186,1.313
			c-0.754,0.499-1.526,1.056-2.312,1.65c-0.78,0.6-1.562,1.26-2.323,1.939c-0.193,0.169-0.388,0.339-0.579,0.509l-0.574,0.555
			l-0.576,0.557c-0.088,0.088-0.207,0.197-0.273,0.268l-0.27,0.291c-0.729,0.767-1.459,1.533-2.178,2.287
			c-0.681,0.787-1.352,1.562-2.002,2.311c-0.336,0.366-0.617,0.765-0.918,1.136c-0.296,0.375-0.587,0.742-0.868,1.099
			c-0.143,0.18-0.281,0.357-0.417,0.531c-0.128,0.18-0.255,0.357-0.378,0.532c-0.253,0.348-0.497,0.683-0.73,1.005
			c-0.117,0.162-0.232,0.32-0.344,0.476c-0.104,0.159-0.206,0.314-0.306,0.466c-0.203,0.303-0.395,0.589-0.576,0.858
			c-0.365,0.54-0.642,1.032-0.897,1.426c-0.026,0.045-0.052,0.089-0.077,0.131c0.076-0.047,0.152-0.093,0.229-0.137
			c0.404-0.233,0.821-0.42,1.229-0.569c0.812-0.303,1.603-0.439,2.206-0.484c0.228-0.015,0.423-0.022,0.583-0.022
			c0.056,0,0.105,0.001,0.151,0.002c0.178,0.005,0.281,0.016,0.281,0.016l0.389,0.389c0,0,0.011,0.103,0.016,0.281
			c0.006,0.18,0,0.43-0.021,0.734c-0.045,0.604-0.181,1.395-0.483,2.207c-0.134,0.361-0.295,0.729-0.492,1.089
			c0.157-0.079,0.354-0.177,0.592-0.285c0.316-0.165,0.703-0.369,1.145-0.6c0.433-0.249,0.919-0.53,1.45-0.837
			c0.531-0.305,1.077-0.688,1.675-1.054c0.604-0.357,1.187-0.818,1.819-1.246c0.313-0.22,0.631-0.443,0.952-0.669
			c0.31-0.244,0.622-0.491,0.937-0.74c0.315-0.247,0.636-0.496,0.955-0.746c0.322-0.247,0.644-0.498,0.942-0.777
			c0.613-0.537,1.228-1.073,1.832-1.603c0.147-0.128,0.293-0.257,0.438-0.384c0.142-0.142,0.283-0.284,0.423-0.422
			c0.281-0.28,0.559-0.557,0.831-0.829c0.274-0.271,0.542-0.538,0.806-0.798c0.251-0.269,0.473-0.545,0.702-0.808
			c0.229-0.263,0.45-0.52,0.665-0.768c0.214-0.249,0.438-0.477,0.608-0.731c0.358-0.494,0.699-0.941,1.003-1.338
			c0.155-0.196,0.291-0.386,0.4-0.572c0.117-0.183,0.222-0.35,0.317-0.5c0.387-0.606,0.62-0.949,0.62-0.949
			s-0.169,0.374-0.483,1.024c-0.081,0.162-0.169,0.341-0.266,0.538c-0.09,0.2-0.204,0.405-0.34,0.619
			c-0.257,0.432-0.55,0.92-0.883,1.447c-0.328,0.529-0.765,1.049-1.194,1.623c-0.22,0.282-0.438,0.583-0.68,0.871
			c-0.253,0.271-0.509,0.549-0.771,0.831c-0.264,0.282-0.532,0.568-0.803,0.858c-0.137,0.144-0.273,0.289-0.409,0.436
			c-0.17,0.162-0.308,0.277-0.464,0.42c-0.608,0.543-1.226,1.094-1.843,1.646c-0.306,0.279-0.636,0.531-0.965,0.778
			c-0.328,0.25-0.654,0.501-0.979,0.749c-0.325,0.243-0.647,0.486-0.968,0.727c-0.335,0.218-0.666,0.435-0.991,0.646
			c-0.654,0.421-1.271,0.847-1.905,1.175c-0.624,0.342-1.203,0.684-1.767,0.948c-0.56,0.265-1.074,0.508-1.538,0.705
			c-0.468,0.183-0.876,0.343-1.213,0.476c-0.287,0.101-0.523,0.172-0.701,0.229c-0.009,0.018-0.019,0.036-0.028,0.052
			c-0.231,0.408-0.51,0.8-0.868,1.139c-0.219,0.209-0.474,0.393-0.746,0.562c-0.038,0.213-0.08,0.433-0.126,0.656
			c2.803-0.937,8.52-3.344,14.579-8.792c0.639-0.573,1.282-1.181,1.924-1.824c0.013-0.012,0.024-0.025,0.036-0.036
			c9.203-9.229,8.372-18.709,8.372-18.709S118.57,9.568,118.164,9.568"/>
		
			<linearGradient id="SVGID_16_" gradientUnits="userSpaceOnUse" x1="-235.3428" y1="239.5322" x2="-234.4761" y2="239.5322" gradientTransform="matrix(10.0808 10.0808 10.0808 -10.0808 56.6522 4806.626)">
			<stop  offset="0" style="stop-color:#442221"/>
			<stop  offset="1" style="stop-color:#8F2C2C"/>
		</linearGradient>
		<path fill="url(#SVGID_16_)" d="M103.941,20.732c-0.979,0-1.959,0.375-2.705,1.121c-0.431,0.43-0.734,0.936-0.918,1.473
			c-0.455,1.335-0.15,2.871,0.914,3.935c0.746,0.747,1.723,1.119,2.702,1.119s1.959-0.374,2.708-1.121
			c0.518-0.52,0.855-1.149,1.015-1.812c0.299-1.251-0.039-2.622-1.015-3.597C105.897,21.106,104.919,20.732,103.941,20.732"/>
		
			<radialGradient id="SVGID_17_" cx="-235.4302" cy="239.5479" r="0.8666" gradientTransform="matrix(13.0422 13.0422 13.0566 -13.0566 47.0862 6221.0845)" gradientUnits="userSpaceOnUse">
			<stop  offset="0" style="stop-color:#F6A8AC"/>
			<stop  offset="0.7773" style="stop-color:#EF4C3C"/>
			<stop  offset="1" style="stop-color:#EB2626"/>
		</radialGradient>
		<path fill="url(#SVGID_17_)" d="M115.284,11.576c-0.011,0-0.144,0-0.387,0.019c-0.251,0.022-0.625,0.048-1.091,0.138
			c-0.466,0.08-1.03,0.202-1.666,0.389c-0.639,0.181-1.348,0.422-2.104,0.733c-0.379,0.15-0.764,0.334-1.167,0.511
			c-0.401,0.185-0.799,0.41-1.217,0.622c-0.413,0.221-0.822,0.476-1.249,0.721c-0.427,0.247-0.832,0.547-1.261,0.827
			c-0.43,0.279-0.832,0.608-1.259,0.918c-0.43,0.303-0.835,0.659-1.248,1.011c-0.205,0.176-0.412,0.352-0.619,0.529l-0.582,0.545
			l-0.584,0.548c-0.104,0.099-0.185,0.168-0.306,0.29l-0.278,0.294c-0.736,0.796-1.471,1.594-2.195,2.378
			c-0.696,0.807-1.318,1.658-1.952,2.448c-0.324,0.393-0.604,0.807-0.874,1.215c-0.271,0.406-0.538,0.803-0.798,1.191
			c-0.128,0.193-0.255,0.385-0.379,0.572c-0.114,0.195-0.227,0.388-0.337,0.577c-0.218,0.38-0.427,0.748-0.629,1.1
			c-0.419,0.694-0.707,1.387-1.004,1.973c-0.295,0.586-0.484,1.134-0.67,1.566c-0.077,0.185-0.138,0.357-0.189,0.511
			c0.12-0.092,0.243-0.175,0.369-0.255c0.025-0.042,0.051-0.086,0.077-0.131c0.256-0.395,0.532-0.887,0.897-1.426
			c0.182-0.269,0.373-0.555,0.576-0.858c0.1-0.152,0.201-0.307,0.306-0.466c0.111-0.156,0.227-0.314,0.344-0.476
			c0.233-0.322,0.478-0.657,0.73-1.005c0.123-0.175,0.25-0.352,0.378-0.532c0.136-0.174,0.274-0.351,0.417-0.531
			c0.281-0.357,0.572-0.724,0.868-1.099c0.301-0.372,0.582-0.77,0.918-1.136c0.65-0.75,1.321-1.524,2.002-2.311
			c0.719-0.754,1.449-1.52,2.178-2.287l0.27-0.291c0.066-0.071,0.186-0.18,0.273-0.268l0.576-0.557l0.574-0.555
			c0.191-0.17,0.386-0.34,0.579-0.509c0.762-0.679,1.543-1.339,2.323-1.939c0.785-0.595,1.558-1.152,2.312-1.65
			c0.763-0.485,1.492-0.93,2.186-1.313c0.699-0.371,1.347-0.701,1.937-0.964c0.591-0.26,1.113-0.478,1.553-0.631
			c0.438-0.159,0.787-0.272,1.029-0.34C115.152,11.604,115.284,11.576,115.284,11.576L115.284,11.576"/>
		
			<linearGradient id="SVGID_18_" gradientUnits="userSpaceOnUse" x1="-235.4873" y1="239.5293" x2="-234.6214" y2="239.5293" gradientTransform="matrix(-14.092 14.092 14.092 14.092 -6580.7725 -35.5377)">
			<stop  offset="0" style="stop-color:#FBDDDF"/>
			<stop  offset="0.0408" style="stop-color:#FBDBDB"/>
			<stop  offset="0.7607" style="stop-color:#F59BA0"/>
			<stop  offset="1" style="stop-color:#F59BA0"/>
		</linearGradient>
		<path fill="url(#SVGID_18_)" d="M114.811,19.796c0,0-0.233,0.343-0.62,0.949c-0.096,0.15-0.2,0.318-0.317,0.5
			c-0.109,0.187-0.245,0.376-0.4,0.572c-0.304,0.397-0.645,0.844-1.003,1.338c-0.171,0.254-0.395,0.482-0.608,0.731
			c-0.215,0.248-0.437,0.504-0.665,0.768c-0.229,0.262-0.451,0.539-0.702,0.808c-0.264,0.261-0.531,0.527-0.806,0.798
			c-0.272,0.272-0.55,0.549-0.831,0.829c-0.14,0.138-0.281,0.28-0.423,0.422c-0.146,0.127-0.291,0.256-0.438,0.384
			c-0.604,0.53-1.219,1.066-1.832,1.603c-0.299,0.28-0.62,0.53-0.942,0.777c-0.319,0.25-0.64,0.499-0.955,0.746
			c-0.314,0.249-0.627,0.496-0.937,0.74c-0.321,0.226-0.639,0.449-0.952,0.669c-0.633,0.428-1.215,0.889-1.819,1.246
			c-0.598,0.366-1.144,0.749-1.675,1.054c-0.531,0.307-1.018,0.588-1.45,0.837c-0.441,0.231-0.828,0.436-1.145,0.6
			c-0.237,0.108-0.435,0.207-0.592,0.285c-0.016,0.028-0.032,0.058-0.05,0.086c0.178-0.056,0.414-0.128,0.701-0.229
			c0.337-0.132,0.745-0.293,1.213-0.476c0.464-0.196,0.979-0.439,1.538-0.705c0.563-0.264,1.143-0.606,1.767-0.948
			c0.634-0.328,1.251-0.754,1.905-1.175c0.325-0.211,0.656-0.428,0.991-0.646c0.32-0.24,0.643-0.483,0.968-0.727
			c0.325-0.247,0.651-0.498,0.979-0.749c0.329-0.247,0.659-0.499,0.965-0.778c0.617-0.552,1.234-1.104,1.843-1.646
			c0.156-0.143,0.294-0.258,0.464-0.42c0.136-0.146,0.272-0.292,0.409-0.436c0.271-0.29,0.539-0.576,0.803-0.858
			c0.263-0.281,0.519-0.559,0.771-0.831c0.241-0.288,0.46-0.589,0.68-0.871c0.43-0.574,0.866-1.093,1.194-1.623
			c0.333-0.527,0.626-1.016,0.883-1.447c0.136-0.213,0.25-0.418,0.34-0.619c0.097-0.196,0.185-0.376,0.266-0.538
			C114.642,20.17,114.811,19.796,114.811,19.796"/>
		
			<radialGradient id="SVGID_19_" cx="-235.4297" cy="239.5488" r="0.8648" gradientTransform="matrix(13.0406 13.0406 13.0549 -13.0549 47.0878 6220.3032)" gradientUnits="userSpaceOnUse">
			<stop  offset="0" style="stop-color:#F6A8AC"/>
			<stop  offset="0.7773" style="stop-color:#EF4C3C"/>
			<stop  offset="1" style="stop-color:#EB2626"/>
		</radialGradient>
		<path fill="url(#SVGID_19_)" d="M108.358,25.069c0.212-1.354-0.2-2.782-1.241-3.823c-1.733-1.733-4.549-1.734-6.287,0.003
			c-1.65,1.651-1.733,4.294-0.226,6.039c-0.086-0.075-0.164-0.146-0.241-0.224l-0.033-0.033l0.063,0.075
			c-0.087-0.075-0.167-0.149-0.247-0.229c-1.943-1.944-1.943-5.102,0.003-7.048c1.947-1.946,5.104-1.948,7.049-0.004
			c1.348,1.348,1.759,3.278,1.24,4.982l0.004-0.047C108.419,24.861,108.392,24.965,108.358,25.069z"/>
		
			<linearGradient id="SVGID_20_" gradientUnits="userSpaceOnUse" x1="-235.417" y1="239.7188" x2="-234.5515" y2="239.7188" gradientTransform="matrix(-2.506009e-005 7.2511 7.2511 2.506009e-005 -1634.2938 1727.8792)">
			<stop  offset="0" style="stop-color:#B5E2EE"/>
			<stop  offset="0.2393" style="stop-color:#B5E2EE"/>
			<stop  offset="1" style="stop-color:#E8F5F7"/>
		</linearGradient>
		<path fill="url(#SVGID_20_)" d="M106.298,26.429c-1.304,1.306-3.418,1.306-4.723,0.002c-0.929-0.929-1.193-2.269-0.797-3.435
			c0.16-0.469,0.426-0.912,0.802-1.286c1.303-1.305,3.417-1.306,4.72-0.003c0.852,0.851,1.146,2.047,0.886,3.141
			C107.047,25.426,106.751,25.976,106.298,26.429z"/>
		
			<linearGradient id="SVGID_21_" gradientUnits="userSpaceOnUse" x1="-235.2729" y1="239.6602" x2="-234.4072" y2="239.6602" gradientTransform="matrix(5.1697 5.1697 5.1697 -5.1697 78.5797 2477.7705)">
			<stop  offset="0" style="stop-color:#E8F5F7"/>
			<stop  offset="0.7607" style="stop-color:#B5E2EE"/>
			<stop  offset="1" style="stop-color:#B5E2EE"/>
		</linearGradient>
		<path fill="url(#SVGID_21_)" d="M106.298,26.429c-1.304,1.306-3.418,1.306-4.723,0.002c-0.929-0.929-1.193-2.269-0.797-3.435
			c0.859-0.505,2.396-1.01,3.907,0.503c0.775,0.775,1.641,1.193,2.5,1.348C107.047,25.426,106.751,25.976,106.298,26.429z"/>
		
			<linearGradient id="SVGID_22_" gradientUnits="userSpaceOnUse" x1="-235.2168" y1="239.6152" x2="-234.3503" y2="239.6152" gradientTransform="matrix(3.9928 3.9928 3.9928 -3.9928 86.3634 1916.29)">
			<stop  offset="0" style="stop-color:#561211"/>
			<stop  offset="1" style="stop-color:#EB2626"/>
		</linearGradient>
		<circle fill="url(#SVGID_22_)" cx="104.445" cy="20.918" r="0.733"/>
		
			<linearGradient id="SVGID_23_" gradientUnits="userSpaceOnUse" x1="-235.9097" y1="239.0967" x2="-235.0435" y2="239.0967" gradientTransform="matrix(2.390021e-005 6.6714 -6.6714 2.390021e-005 1691.9182 1616.2281)">
			<stop  offset="0" style="stop-color:#080808"/>
			<stop  offset="0.9613" style="stop-color:#69605E"/>
			<stop  offset="1" style="stop-color:#6C6461"/>
		</linearGradient>
		<path fill="url(#SVGID_23_)" d="M102.536,41.891c-1.795,2.323-4.692,4.651-9.358,6.307c0,0,1.148-4.193,0.699-6.753
			c-0.834,0.33-1.583,0.594-2.226,0.803l-0.311,0.176c1.694,1.896-0.271,8.612-0.271,8.612
			C97.568,48.618,100.866,45.039,102.536,41.891z"/>
		
			<linearGradient id="SVGID_24_" gradientUnits="userSpaceOnUse" x1="-235.9092" y1="239.1406" x2="-235.0433" y2="239.1406" gradientTransform="matrix(-3.487733e-005 6.6735 -6.6735 -3.487733e-005 1694.6053 1616.7418)">
			<stop  offset="0" style="stop-color:#080808"/>
			<stop  offset="0.9613" style="stop-color:#69605E"/>
			<stop  offset="1" style="stop-color:#6C6461"/>
		</linearGradient>
		<path fill="url(#SVGID_24_)" d="M94.47,46.779c0,0,1.155-3.952,0.507-5.788c-0.38,0.163-0.748,0.313-1.101,0.452
			c0.451,2.562-0.698,6.755-0.698,6.755c4.666-1.657,7.563-3.985,9.358-6.308c1.43-2.696,1.664-5.076,1.688-6.146l-0.081,0.059
			C104.022,37.832,102.915,43.636,94.47,46.779z"/>
		
			<linearGradient id="SVGID_25_" gradientUnits="userSpaceOnUse" x1="-235.397" y1="238.8809" x2="-234.5305" y2="238.8809" gradientTransform="matrix(-4.0914 -4.0914 -4.0914 4.0914 114.8289 -1896.6113)">
			<stop  offset="0" style="stop-color:#080808"/>
			<stop  offset="0.9613" style="stop-color:#69605E"/>
			<stop  offset="1" style="stop-color:#6C6461"/>
		</linearGradient>
		<path fill="url(#SVGID_25_)" d="M94.47,46.779c0,0,1.155-3.952,0.507-5.788c-0.38,0.163-0.748,0.313-1.101,0.452
			c0.451,2.562-0.698,6.755-0.698,6.755c4.666-1.657,7.563-3.985,9.358-6.308c1.43-2.696,1.664-5.076,1.688-6.146l-0.081,0.059
			C104.022,37.832,102.915,43.636,94.47,46.779z"/>
		
			<linearGradient id="SVGID_26_" gradientUnits="userSpaceOnUse" x1="-235.9092" y1="239.1553" x2="-235.0434" y2="239.1553" gradientTransform="matrix(0 6.6738 -6.6738 0 1695.3737 1616.7943)">
			<stop  offset="0" style="stop-color:#080808"/>
			<stop  offset="0.9613" style="stop-color:#69605E"/>
			<stop  offset="1" style="stop-color:#6C6461"/>
		</linearGradient>
		<path fill="url(#SVGID_26_)" d="M94.47,46.779c8.445-3.143,9.552-8.947,9.674-10.977c-3.431,2.448-6.615,4.098-9.167,5.189
			C95.625,42.827,94.47,46.779,94.47,46.779z"/>
		
			<linearGradient id="SVGID_27_" gradientUnits="userSpaceOnUse" x1="-235.397" y1="238.9063" x2="-234.5305" y2="238.9063" gradientTransform="matrix(-4.0913 -4.0913 -4.0913 4.0913 115.5745 -1897.3076)">
			<stop  offset="0" style="stop-color:#080808"/>
			<stop  offset="0.9613" style="stop-color:#69605E"/>
			<stop  offset="1" style="stop-color:#6C6461"/>
		</linearGradient>
		<path fill="url(#SVGID_27_)" d="M94.47,46.779c8.445-3.143,9.552-8.947,9.674-10.977c-3.431,2.448-6.615,4.098-9.167,5.189
			C95.625,42.827,94.47,46.779,94.47,46.779z"/>
		
			<linearGradient id="SVGID_28_" gradientUnits="userSpaceOnUse" x1="-235.3506" y1="239.7578" x2="-234.4846" y2="239.7578" gradientTransform="matrix(9.4142 9.4142 9.4142 -9.4142 47.8801 4504.1338)">
			<stop  offset="0" style="stop-color:#080808"/>
			<stop  offset="0.9613" style="stop-color:#69605E"/>
			<stop  offset="1" style="stop-color:#6C6461"/>
		</linearGradient>
		<path fill="url(#SVGID_28_)" d="M94.47,46.779c8.445-3.143,9.552-8.947,9.674-10.977c-3.431,2.448-6.615,4.098-9.167,5.189
			C95.625,42.827,94.47,46.779,94.47,46.779z"/>
		
			<linearGradient id="SVGID_29_" gradientUnits="userSpaceOnUse" x1="-236.1626" y1="239.3506" x2="-235.2967" y2="239.3506" gradientTransform="matrix(-6.6716 0 0 6.6716 -1489.9427 -1565.6237)">
			<stop  offset="0" style="stop-color:#080808"/>
			<stop  offset="0.9613" style="stop-color:#69605E"/>
			<stop  offset="1" style="stop-color:#6C6461"/>
		</linearGradient>
		<path fill="url(#SVGID_29_)" d="M79.83,34.851c1.657-4.666,3.985-7.563,6.308-9.359c-3.149,1.669-6.726,4.969-9.145,11.465
			c0,0,6.717-1.963,8.611-0.269l0.179-0.315c0.209-0.642,0.473-1.389,0.803-2.221C84.025,33.702,79.83,34.851,79.83,34.851z"/>
		
			<linearGradient id="SVGID_30_" gradientUnits="userSpaceOnUse" x1="-236.1621" y1="239.3926" x2="-235.296" y2="239.3926" gradientTransform="matrix(-6.6734 0 0 6.6734 -1490.365 -1568.2483)">
			<stop  offset="0" style="stop-color:#080808"/>
			<stop  offset="0.9613" style="stop-color:#69605E"/>
			<stop  offset="1" style="stop-color:#6C6461"/>
		</linearGradient>
		<path fill="url(#SVGID_30_)" d="M79.83,34.851c0,0,4.195-1.149,6.756-0.7c0.139-0.35,0.291-0.719,0.453-1.1
			c-1.834-0.648-5.789,0.507-5.789,0.507c3.146-8.453,8.957-9.555,10.981-9.674l0.059-0.081c-1.066,0.024-3.451,0.255-6.152,1.688
			C83.815,27.289,81.487,30.185,79.83,34.851z"/>
		
			<linearGradient id="SVGID_31_" gradientUnits="userSpaceOnUse" x1="-235.123" y1="239.9492" x2="-234.2568" y2="239.9492" gradientTransform="matrix(5.6433 5.6433 5.6433 -5.6433 56.8614 2708.3232)">
			<stop  offset="0" style="stop-color:#7C726E"/>
			<stop  offset="1" style="stop-color:#6C6461"/>
		</linearGradient>
		<path fill="url(#SVGID_31_)" d="M79.83,34.851c0,0,4.195-1.149,6.756-0.7c0.139-0.35,0.291-0.719,0.453-1.1
			c-1.834-0.648-5.789,0.507-5.789,0.507c3.146-8.453,8.957-9.555,10.981-9.674l0.059-0.081c-1.066,0.024-3.451,0.255-6.152,1.688
			C83.815,27.289,81.487,30.185,79.83,34.851z"/>
		
			<linearGradient id="SVGID_32_" gradientUnits="userSpaceOnUse" x1="-236.1621" y1="239.4082" x2="-235.2962" y2="239.4082" gradientTransform="matrix(-6.6732 2.221914e-005 2.221914e-005 6.6732 -1490.2839 -1568.894)">
			<stop  offset="0" style="stop-color:#080808"/>
			<stop  offset="0.9613" style="stop-color:#69605E"/>
			<stop  offset="1" style="stop-color:#6C6461"/>
		</linearGradient>
		<path fill="url(#SVGID_32_)" d="M81.25,33.559c0,0,3.957-1.156,5.789-0.507c1.093-2.552,2.743-5.735,5.192-9.168
			C90.207,24.003,84.396,25.106,81.25,33.559z"/>
		
			<linearGradient id="SVGID_33_" gradientUnits="userSpaceOnUse" x1="-235.1226" y1="239.9316" x2="-234.2566" y2="239.9316" gradientTransform="matrix(5.643 5.643 5.643 -5.643 57.6031 2707.4375)">
			<stop  offset="0" style="stop-color:#7C726E"/>
			<stop  offset="1" style="stop-color:#6C6461"/>
		</linearGradient>
		<path fill="url(#SVGID_33_)" d="M81.25,33.559c0,0,3.957-1.156,5.789-0.507c1.093-2.552,2.743-5.735,5.192-9.168
			C90.207,24.003,84.396,25.106,81.25,33.559z"/>
		
			<linearGradient id="SVGID_34_" gradientUnits="userSpaceOnUse" x1="-235.3394" y1="239.7783" x2="-234.4734" y2="239.7783" gradientTransform="matrix(8.7503 8.7503 8.7503 -8.7503 50.5592 4188.791)">
			<stop  offset="0" style="stop-color:#080808"/>
			<stop  offset="0.9613" style="stop-color:#69605E"/>
			<stop  offset="1" style="stop-color:#6C6461"/>
		</linearGradient>
		<path fill="url(#SVGID_34_)" d="M81.25,33.559c0,0,3.957-1.156,5.789-0.507c1.093-2.552,2.743-5.735,5.192-9.168
			C90.207,24.003,84.396,25.106,81.25,33.559z"/>
		
			<linearGradient id="SVGID_35_" gradientUnits="userSpaceOnUse" x1="-235.3438" y1="239.3584" x2="-234.4777" y2="239.3584" gradientTransform="matrix(8.0289 8.0289 8.0289 -8.0289 81.1656 3820.6719)">
			<stop  offset="0" style="stop-color:#080808"/>
			<stop  offset="0.9613" style="stop-color:#69605E"/>
			<stop  offset="1" style="stop-color:#6C6461"/>
		</linearGradient>
		<path fill="url(#SVGID_35_)" d="M119.599,7.884c0,0,0.476,5.429-3.091,12.241c0.21,0.671,0.364,1.354,0.465,2.044
			c4.499-8.082,3.729-14.842,3.729-14.842s-6.743-0.766-14.809,3.717c0.332,0.05,0.664,0.112,0.994,0.187
			C113.919,7.389,119.599,7.884,119.599,7.884z"/>
		
			<linearGradient id="SVGID_36_" gradientUnits="userSpaceOnUse" x1="-235.3433" y1="239.3623" x2="-234.4775" y2="239.3623" gradientTransform="matrix(8.0286 8.0286 8.0286 -8.0286 80.9338 3820.7227)">
			<stop  offset="0" style="stop-color:#080808"/>
			<stop  offset="0.9613" style="stop-color:#69605E"/>
			<stop  offset="1" style="stop-color:#6C6461"/>
		</linearGradient>
		<path fill="url(#SVGID_36_)" d="M119.599,7.884c0,0-5.68-0.495-12.711,3.346c0.642,0.147,1.276,0.342,1.895,0.586
			c5.668-2.606,10.008-2.229,10.008-2.229s0.394,4.489-2.36,10.297c0.026,0.08,0.053,0.16,0.077,0.241
			C120.073,13.313,119.599,7.884,119.599,7.884z"/>
		
			<linearGradient id="SVGID_37_" gradientUnits="userSpaceOnUse" x1="-235.3018" y1="239.416" x2="-234.4362" y2="239.416" gradientTransform="matrix(10.6807 -10.6807 -10.6807 -10.6807 5165.1025 76.5295)">
			<stop  offset="0" style="stop-color:#080808"/>
			<stop  offset="0.9613" style="stop-color:#69605E"/>
			<stop  offset="1" style="stop-color:#6C6461"/>
		</linearGradient>
		<path fill="url(#SVGID_37_)" d="M119.599,7.884c0,0-5.68-0.495-12.711,3.346c0.642,0.147,1.276,0.342,1.895,0.586
			c5.668-2.606,10.008-2.229,10.008-2.229s0.394,4.489-2.36,10.297c0.026,0.08,0.053,0.16,0.077,0.241
			C120.073,13.313,119.599,7.884,119.599,7.884z"/>
		
			<linearGradient id="SVGID_38_" gradientUnits="userSpaceOnUse" x1="-235.3438" y1="239.3701" x2="-234.4777" y2="239.3701" gradientTransform="matrix(8.0281 8.0281 8.0281 -8.0281 80.465 3820.9893)">
			<stop  offset="0" style="stop-color:#080808"/>
			<stop  offset="0.9613" style="stop-color:#69605E"/>
			<stop  offset="1" style="stop-color:#6C6461"/>
		</linearGradient>
		<path fill="url(#SVGID_38_)" d="M112.141,12.123c0.636-0.187,1.2-0.309,1.667-0.389c0.466-0.091,0.84-0.117,1.091-0.139
			c0.253-0.019,0.388-0.019,0.388-0.019s-0.133,0.027-0.374,0.097c-0.241,0.069-0.591,0.182-1.03,0.34
			c-0.439,0.155-0.961,0.372-1.552,0.631c-0.327,0.146-0.672,0.312-1.033,0.495c0.689,0.464,1.345,1.001,1.954,1.611
			c1.495,1.494,2.554,3.257,3.179,5.134c2.754-5.808,2.36-10.297,2.36-10.297s-4.34-0.377-10.006,2.229
			c0.598,0.235,1.182,0.517,1.746,0.843C111.102,12.44,111.643,12.262,112.141,12.123z"/>
		
			<linearGradient id="SVGID_39_" gradientUnits="userSpaceOnUse" x1="-235.3022" y1="239.4238" x2="-234.4363" y2="239.4238" gradientTransform="matrix(10.6805 -10.6805 -10.6805 -10.6805 5165.6436 77.1628)">
			<stop  offset="0" style="stop-color:#080808"/>
			<stop  offset="0.9613" style="stop-color:#69605E"/>
			<stop  offset="1" style="stop-color:#6C6461"/>
		</linearGradient>
		<path fill="url(#SVGID_39_)" d="M112.141,12.123c0.636-0.187,1.2-0.309,1.667-0.389c0.466-0.091,0.84-0.117,1.091-0.139
			c0.253-0.019,0.388-0.019,0.388-0.019s-0.133,0.027-0.374,0.097c-0.241,0.069-0.591,0.182-1.03,0.34
			c-0.439,0.155-0.961,0.372-1.552,0.631c-0.327,0.146-0.672,0.312-1.033,0.495c0.689,0.464,1.345,1.001,1.954,1.611
			c1.495,1.494,2.554,3.257,3.179,5.134c2.754-5.808,2.36-10.297,2.36-10.297s-4.34-0.377-10.006,2.229
			c0.598,0.235,1.182,0.517,1.746,0.843C111.102,12.44,111.643,12.262,112.141,12.123z"/>
		
			<linearGradient id="SVGID_40_" gradientUnits="userSpaceOnUse" x1="-235.3418" y1="239.3965" x2="-234.4758" y2="239.3965" gradientTransform="matrix(10.0803 10.0803 10.0803 -10.0803 69.757 4793.2471)">
			<stop  offset="0" style="stop-color:#080808"/>
			<stop  offset="0.9613" style="stop-color:#69605E"/>
			<stop  offset="1" style="stop-color:#6C6461"/>
		</linearGradient>
		<path fill="url(#SVGID_40_)" d="M112.141,12.123c0.636-0.187,1.2-0.309,1.667-0.389c0.466-0.091,0.84-0.117,1.091-0.139
			c0.253-0.019,0.388-0.019,0.388-0.019s-0.133,0.027-0.374,0.097c-0.241,0.069-0.591,0.182-1.03,0.34
			c-0.439,0.155-0.961,0.372-1.552,0.631c-0.327,0.146-0.672,0.312-1.033,0.495c0.689,0.464,1.345,1.001,1.954,1.611
			c1.495,1.494,2.554,3.257,3.179,5.134c2.754-5.808,2.36-10.297,2.36-10.297s-4.34-0.377-10.006,2.229
			c0.598,0.235,1.182,0.517,1.746,0.843C111.102,12.44,111.643,12.262,112.141,12.123z"/>
		
			<linearGradient id="SVGID_41_" gradientUnits="userSpaceOnUse" x1="-235.3438" y1="239.3906" x2="-234.4768" y2="239.3906" gradientTransform="matrix(8.0278 8.0278 8.0278 -8.0278 79.2672 3822.0293)">
			<stop  offset="0" style="stop-color:#080808"/>
			<stop  offset="0.9613" style="stop-color:#69605E"/>
			<stop  offset="1" style="stop-color:#6C6461"/>
		</linearGradient>
		<path fill="url(#SVGID_41_)" d="M113.882,12.014c0.439-0.159,0.787-0.272,1.03-0.341c0.241-0.069,0.374-0.097,0.374-0.097
			s-0.135,0-0.388,0.019c-0.251,0.023-0.625,0.049-1.091,0.139c-0.467,0.08-1.031,0.202-1.667,0.389
			c-0.498,0.14-1.039,0.318-1.61,0.537c0.26,0.15,0.516,0.31,0.767,0.479c0.361-0.182,0.706-0.349,1.033-0.494
			C112.92,12.385,113.442,12.167,113.882,12.014z"/>
		
			<linearGradient id="SVGID_42_" gradientUnits="userSpaceOnUse" x1="-235.3042" y1="239.3984" x2="-234.4373" y2="239.3984" gradientTransform="matrix(10.6807 -10.6807 -10.6807 -10.6807 5163.7422 75.1846)">
			<stop  offset="0" style="stop-color:#080808"/>
			<stop  offset="0.9613" style="stop-color:#69605E"/>
			<stop  offset="1" style="stop-color:#6C6461"/>
		</linearGradient>
		<path fill="url(#SVGID_42_)" d="M113.882,12.014c0.439-0.159,0.787-0.272,1.03-0.341c0.241-0.069,0.374-0.097,0.374-0.097
			s-0.135,0-0.388,0.019c-0.251,0.023-0.625,0.049-1.091,0.139c-0.467,0.08-1.031,0.202-1.667,0.389
			c-0.498,0.14-1.039,0.318-1.61,0.537c0.26,0.15,0.516,0.31,0.767,0.479c0.361-0.182,0.706-0.349,1.033-0.494
			C112.92,12.385,113.442,12.167,113.882,12.014z"/>
		
			<linearGradient id="SVGID_43_" gradientUnits="userSpaceOnUse" x1="-235.3418" y1="239.4121" x2="-234.4764" y2="239.4121" gradientTransform="matrix(10.0798 10.0798 10.0798 -10.0798 68.5594 4794.2578)">
			<stop  offset="0" style="stop-color:#080808"/>
			<stop  offset="0.9613" style="stop-color:#69605E"/>
			<stop  offset="1" style="stop-color:#6C6461"/>
		</linearGradient>
		<path fill="url(#SVGID_43_)" d="M113.882,12.014c0.439-0.159,0.787-0.272,1.03-0.341c0.241-0.069,0.374-0.097,0.374-0.097
			s-0.135,0-0.388,0.019c-0.251,0.023-0.625,0.049-1.091,0.139c-0.467,0.08-1.031,0.202-1.667,0.389
			c-0.498,0.14-1.039,0.318-1.61,0.537c0.26,0.15,0.516,0.31,0.767,0.479c0.361-0.182,0.706-0.349,1.033-0.494
			C112.92,12.385,113.442,12.167,113.882,12.014z"/>
		
			<radialGradient id="SVGID_44_" cx="-235.4297" cy="239.5488" r="0.8646" gradientTransform="matrix(13.0416 13.0416 13.056 -13.056 47.0821 6220.7837)" gradientUnits="userSpaceOnUse">
			<stop  offset="0" style="stop-color:#7C726E"/>
			<stop  offset="1" style="stop-color:#6C6461"/>
		</radialGradient>
		<path fill="url(#SVGID_44_)" d="M113.882,12.014c0.439-0.159,0.787-0.272,1.03-0.341c0.241-0.069,0.374-0.097,0.374-0.097
			s-0.135,0-0.388,0.019c-0.251,0.023-0.625,0.049-1.091,0.139c-0.467,0.08-1.031,0.202-1.667,0.389
			c-0.498,0.14-1.039,0.318-1.61,0.537c0.26,0.15,0.516,0.31,0.767,0.479c0.361-0.182,0.706-0.349,1.033-0.494
			C112.92,12.385,113.442,12.167,113.882,12.014z"/>
		
			<linearGradient id="SVGID_45_" gradientUnits="userSpaceOnUse" x1="-234.9795" y1="239.3438" x2="-234.1137" y2="239.3438" gradientTransform="matrix(5.3952 -5.3952 -5.3952 -5.3952 2649.7178 61.0046)">
			<stop  offset="0" style="stop-color:#561211"/>
			<stop  offset="1" style="stop-color:#EB2626"/>
		</linearGradient>
		<path fill="url(#SVGID_45_)" d="M91.2,40.079c-0.441,0.309-0.883,0.61-1.317,0.896c0.271,0.37,0.521,0.75,0.754,1.138
			c0.137,0.229,0.268,0.46,0.39,0.693c0.339,0.647,0.628,1.314,0.865,1.994c0.006,0.017,0.012,0.033,0.018,0.05
			c0.012-0.027,0.024-0.053,0.036-0.078c0.04-0.088,0.081-0.176,0.119-0.262c0.251-0.558,0.473-1.103,0.67-1.635
			c-0.121-0.29-0.251-0.578-0.389-0.861c-0.06-0.117-0.117-0.234-0.178-0.35c-0.269-0.509-0.569-1.007-0.901-1.489
			C91.245,40.142,91.222,40.11,91.2,40.079 M85.421,35.178l-0.154,0.057c-0.58,0.213-1.177,0.457-1.788,0.732
			c0.004,0.002,0.009,0.003,0.013,0.005c0.453,0.184,0.899,0.391,1.337,0.624c0.19,0.098,0.377,0.204,0.563,0.313l0.377,0.238
			l0.465,0.294c0.093,0.063,0.183,0.125,0.271,0.188c0.261,0.187,0.517,0.382,0.767,0.587c0.088,0.072,0.175,0.145,0.262,0.217
			c0.293-0.439,0.599-0.886,0.912-1.333c-0.262-0.214-0.526-0.418-0.799-0.612c-0.089-0.064-0.179-0.127-0.269-0.189l-0.078-0.048
			l-0.767-0.483c-0.149-0.088-0.3-0.174-0.453-0.257c-0.036-0.019-0.072-0.038-0.107-0.057
			C85.788,35.356,85.606,35.265,85.421,35.178"/>
		
			<linearGradient id="SVGID_46_" gradientUnits="userSpaceOnUse" x1="-235.3354" y1="239.6709" x2="-234.4695" y2="239.6709" gradientTransform="matrix(9.6282 9.6282 9.6282 -9.6282 44.1234 4606.0576)">
			<stop  offset="0" style="stop-color:#561211"/>
			<stop  offset="1" style="stop-color:#EB2626"/>
		</linearGradient>
		<path fill="url(#SVGID_46_)" d="M94.005,38.292c-0.171,0.106-0.348,0.208-0.528,0.31c-0.471,0.26-0.943,0.529-1.376,0.838
			c-0.299,0.213-0.6,0.427-0.899,0.637c0.022,0.033,0.045,0.064,0.066,0.097c0.333,0.482,0.632,0.979,0.9,1.488
			c0.061,0.117,0.12,0.234,0.178,0.351c0.14,0.283,0.27,0.57,0.39,0.86c0.093-0.243,0.179-0.483,0.261-0.722
			c0.049-0.143,0.096-0.285,0.142-0.425c0.251-0.771,0.451-1.507,0.612-2.196c0.015-0.067,0.03-0.132,0.045-0.197
			c0.028-0.13,0.058-0.26,0.084-0.386C93.925,38.725,93.967,38.506,94.005,38.292 M90.523,33.88
			c-0.297,0.043-0.609,0.095-0.935,0.155c-0.534,0.1-1.104,0.224-1.706,0.379c-0.281,0.073-0.568,0.151-0.861,0.237
			c-0.233,0.068-0.471,0.143-0.712,0.22c-0.291,0.095-0.587,0.196-0.887,0.306c0.184,0.087,0.366,0.179,0.548,0.275
			c0.035,0.019,0.071,0.038,0.107,0.057c0.153,0.083,0.304,0.167,0.455,0.256l0.765,0.483l0.078,0.049
			c0.091,0.062,0.181,0.124,0.271,0.189c0.271,0.193,0.536,0.397,0.797,0.612c0.181-0.257,0.362-0.514,0.546-0.77
			c0.311-0.433,0.578-0.906,0.839-1.376C90.043,34.569,90.265,34.197,90.523,33.88"/>
		
			<linearGradient id="SVGID_47_" gradientUnits="userSpaceOnUse" x1="-235.3423" y1="238.5771" x2="-234.4769" y2="238.5771" gradientTransform="matrix(10.0808 10.0808 10.0808 -10.0808 56.6522 4806.626)">
			<stop  offset="0" style="stop-color:#0F8075"/>
			<stop  offset="1" style="stop-color:#1D8277"/>
		</linearGradient>
		<path fill="url(#SVGID_47_)" d="M91.239,33.203c-0.19,0.142-0.373,0.299-0.54,0.477c-0.062,0.064-0.119,0.131-0.176,0.2
			c0.176-0.026,0.348-0.048,0.514-0.069c0.009-0.027,0.017-0.055,0.025-0.084C91.112,33.59,91.167,33.412,91.239,33.203
			 M95.856,31.735c-0.16,0-0.355,0.008-0.583,0.022c-0.604,0.045-1.395,0.182-2.206,0.484c-0.408,0.149-0.825,0.336-1.229,0.569
			c-0.077,0.044-0.153,0.09-0.229,0.137c-0.202,0.342-0.36,0.616-0.475,0.807c-0.008,0.016-0.017,0.032-0.024,0.047
			c0.995-0.12,1.798-0.149,2.353-0.149c0.561,0,0.868,0.03,0.868,0.03s0.182,1.796-0.325,4.61c0.272-0.169,0.527-0.353,0.746-0.562
			c0.358-0.339,0.637-0.731,0.868-1.139c0.01-0.016,0.02-0.034,0.028-0.052c-0.034,0.012-0.065,0.022-0.098,0.032
			c-0.186,0.051-0.285,0.08-0.285,0.08s0.094-0.042,0.272-0.12c0.048-0.023,0.102-0.05,0.16-0.078
			c0.197-0.361,0.358-0.729,0.492-1.089c0.303-0.813,0.438-1.603,0.483-2.207c0.021-0.305,0.026-0.554,0.021-0.734
			c-0.005-0.178-0.016-0.281-0.016-0.281l-0.389-0.389c0,0-0.104-0.011-0.281-0.016C95.962,31.736,95.912,31.735,95.856,31.735"/>
		
			<radialGradient id="SVGID_48_" cx="-235.4277" cy="239.543" r="0.8611" gradientTransform="matrix(13.0422 13.0422 13.0566 -13.0566 47.0862 6221.0845)" gradientUnits="userSpaceOnUse">
			<stop  offset="0" style="stop-color:#1E8F84"/>
			<stop  offset="0.7773" style="stop-color:#1E8679"/>
			<stop  offset="1" style="stop-color:#1D8277"/>
		</radialGradient>
		<path fill="url(#SVGID_48_)" d="M91.608,32.948c-0.126,0.08-0.249,0.163-0.369,0.255c-0.072,0.208-0.127,0.387-0.177,0.523
			c-0.009,0.03-0.017,0.058-0.025,0.084c0.023-0.003,0.048-0.006,0.072-0.009c0.008-0.015,0.017-0.031,0.024-0.047
			C91.248,33.564,91.406,33.29,91.608,32.948"/>
		
			<linearGradient id="SVGID_49_" gradientUnits="userSpaceOnUse" x1="-235.3252" y1="239.373" x2="-234.4919" y2="239.373" gradientTransform="matrix(10.5245 -10.5245 -10.5245 -10.5245 5091.3818 75.565)">
			<stop  offset="0" style="stop-color:#0F8075"/>
			<stop  offset="1" style="stop-color:#1D8277"/>
		</linearGradient>
		<path fill="url(#SVGID_49_)" d="M90.465,39.114c0.081,0.098,0.161,0.198,0.24,0.298c0.172,0.218,0.337,0.44,0.495,0.667
			c0-0.001,0.001-0.001,0.001-0.001c-0.158-0.226-0.323-0.448-0.496-0.667C90.627,39.312,90.548,39.212,90.465,39.114
			C90.466,39.114,90.466,39.114,90.465,39.114 M88.443,37.1L88.443,37.1c0.255,0.212,0.508,0.433,0.753,0.664
			c0-0.001,0-0.001,0-0.001C88.951,37.53,88.698,37.312,88.443,37.1"/>
		
			<linearGradient id="SVGID_50_" gradientUnits="userSpaceOnUse" x1="-235.3442" y1="238.1445" x2="-234.4745" y2="238.1445" gradientTransform="matrix(10.0808 10.0808 10.0808 -10.0808 56.6522 4806.626)">
			<stop  offset="0" style="stop-color:#0F8075"/>
			<stop  offset="1" style="stop-color:#1D8277"/>
		</linearGradient>
		<path fill="url(#SVGID_50_)" d="M89.196,37.762C89.196,37.762,89.196,37.762,89.196,37.762c0.111,0.104,0.219,0.209,0.325,0.316
			c0.334,0.334,0.647,0.68,0.943,1.036c0.001,0,0.001,0,0.001,0.001c-0.295-0.356-0.61-0.703-0.944-1.037
			C89.415,37.97,89.306,37.866,89.196,37.762"/>
		
			<linearGradient id="SVGID_51_" gradientUnits="userSpaceOnUse" x1="-235.1626" y1="239.3594" x2="-234.3012" y2="239.3594" gradientTransform="matrix(15.6011 -15.6011 -15.6011 -15.6011 7479.5293 119.4836)">
			<stop  offset="0" style="stop-color:#1E8B77"/>
			<stop  offset="0.4784" style="stop-color:#1E9077"/>
			<stop  offset="1" style="stop-color:#1D9579"/>
		</linearGradient>
		<path fill="url(#SVGID_51_)" d="M89.579,40.575c-0.002,0.002-0.004,0.005-0.006,0.007c-0.068,0.153-0.214,0.463-0.445,0.875
			c0.127-0.08,0.254-0.16,0.385-0.241c0.122-0.08,0.245-0.161,0.37-0.241C89.784,40.839,89.683,40.707,89.579,40.575"/>
		
			<linearGradient id="SVGID_52_" gradientUnits="userSpaceOnUse" x1="-235.1587" y1="239.3555" x2="-234.2934" y2="239.3555" gradientTransform="matrix(11.7869 -11.7869 -11.7869 -11.7869 5676.5615 95.4662)">
			<stop  offset="0" style="stop-color:#1E8B77"/>
			<stop  offset="0.4784" style="stop-color:#1E9077"/>
			<stop  offset="1" style="stop-color:#1D9579"/>
		</linearGradient>
		<path fill="url(#SVGID_52_)" d="M85.554,43.135c0,0-0.414,0.299-0.95,0.687l0.1,0.1L85.554,43.135 M88.081,41.578
			c0,0-0.979,0.996-2.675,2.112c0.019-0.009,0.036-0.02,0.055-0.03c0.211-0.115,0.464-0.257,0.747-0.425
			c0.285-0.168,0.614-0.349,0.958-0.562c0.25-0.154,0.516-0.316,0.795-0.486c0.023-0.036,0.047-0.071,0.07-0.105
			c-0.27,0.205-0.56,0.399-0.872,0.577L88.081,41.578 M89.573,40.582c-0.331,0.406-0.729,0.827-1.199,1.224
			c-0.037,0.066-0.073,0.13-0.111,0.194c0.007-0.003,0.013-0.006,0.019-0.01c0.272-0.172,0.557-0.35,0.847-0.533
			C89.359,41.045,89.505,40.735,89.573,40.582"/>
		
			<linearGradient id="SVGID_53_" gradientUnits="userSpaceOnUse" x1="-236.6919" y1="239.8379" x2="-235.8248" y2="239.8379" gradientTransform="matrix(-2.5692 2.8348 2.8348 2.5692 -1199.267 96.2004)">
			<stop  offset="0" style="stop-color:#1E8B77"/>
			<stop  offset="0.4784" style="stop-color:#1E9077"/>
			<stop  offset="1" style="stop-color:#1D9579"/>
		</linearGradient>
		<path fill="url(#SVGID_53_)" d="M88.374,41.806c-0.11,0.093-0.224,0.185-0.343,0.275c-0.023,0.034-0.047,0.07-0.07,0.105
			c0.099-0.062,0.2-0.124,0.302-0.186C88.301,41.937,88.337,41.873,88.374,41.806"/>
		
			<linearGradient id="SVGID_54_" gradientUnits="userSpaceOnUse" x1="-235.0532" y1="239.3809" x2="-234.1881" y2="239.3809" gradientTransform="matrix(8.3008 -8.3008 -8.3008 -8.3008 4022.9902 79.1837)">
			<stop  offset="0" style="stop-color:#1D9579"/>
			<stop  offset="0.4804" style="stop-color:#1E9681"/>
			<stop  offset="1" style="stop-color:#1E9688"/>
		</linearGradient>
		<path fill="url(#SVGID_54_)" d="M87.531,38.433c-0.107,0.163-0.213,0.325-0.316,0.484c-0.268,0.428-0.528,0.84-0.775,1.231
			c-0.241,0.397-0.471,0.771-0.682,1.116c-0.212,0.344-0.394,0.673-0.562,0.958c-0.168,0.284-0.312,0.536-0.426,0.746
			c-0.229,0.421-0.358,0.662-0.358,0.662l0.191,0.191c0.536-0.388,0.95-0.687,0.95-0.687l-0.851,0.786l0.097,0.098
			c0,0,0.221-0.12,0.606-0.329c1.695-1.117,2.675-2.112,2.675-2.112l-0.922,1.081c0.313-0.178,0.603-0.373,0.872-0.577
			c0.119-0.09,0.232-0.182,0.343-0.275c0.47-0.397,0.868-0.818,1.199-1.224c0.002-0.002,0.004-0.005,0.006-0.007
			c-0.006-0.006-0.011-0.014-0.016-0.021c-0.362-0.463-0.758-0.907-1.183-1.334C88.105,38.944,87.822,38.683,87.531,38.433"/>
		
			<linearGradient id="SVGID_55_" gradientUnits="userSpaceOnUse" x1="-235.4902" y1="239.4385" x2="-234.6223" y2="239.4385" gradientTransform="matrix(-14.092 14.092 14.092 14.092 -6580.7725 -35.5377)">
			<stop  offset="0" style="stop-color:#1F9489"/>
			<stop  offset="0.0408" style="stop-color:#1F9489"/>
			<stop  offset="0.7607" style="stop-color:#1E8D83"/>
			<stop  offset="1" style="stop-color:#1E8D83"/>
		</linearGradient>
		<path fill="url(#SVGID_55_)" d="M95.697,36.454c-0.059,0.028-0.112,0.055-0.16,0.078c-0.179,0.078-0.272,0.12-0.272,0.12
			s0.1-0.029,0.285-0.08c0.032-0.009,0.063-0.02,0.098-0.032C95.665,36.511,95.682,36.481,95.697,36.454"/>
		
			<linearGradient id="SVGID_56_" gradientUnits="userSpaceOnUse" x1="-234.9805" y1="239.3154" x2="-234.1154" y2="239.3154" gradientTransform="matrix(5.3952 -5.3952 -5.3952 -5.3952 2649.7178 61.0046)">
			<stop  offset="0" style="stop-color:#0F8075"/>
			<stop  offset="1" style="stop-color:#1D8277"/>
		</linearGradient>
		<path fill="url(#SVGID_56_)" d="M88.443,37.1c-0.313,0.447-0.619,0.894-0.912,1.333c0.291,0.25,0.574,0.511,0.85,0.787
			c0.425,0.427,0.82,0.871,1.183,1.334c0.005,0.007,0.01,0.015,0.016,0.021c0.104,0.131,0.205,0.264,0.304,0.399
			c0.435-0.286,0.876-0.587,1.317-0.896c-0.158-0.226-0.323-0.448-0.495-0.667c-0.079-0.1-0.159-0.201-0.24-0.298
			c-0.296-0.356-0.609-0.702-0.943-1.036c-0.106-0.106-0.214-0.212-0.325-0.315C88.951,37.532,88.698,37.312,88.443,37.1"/>
		
			<linearGradient id="SVGID_57_" gradientUnits="userSpaceOnUse" x1="-235.3359" y1="239.8076" x2="-234.4691" y2="239.8076" gradientTransform="matrix(9.6282 9.6282 9.6282 -9.6282 44.1234 4606.0576)">
			<stop  offset="0" style="stop-color:#0F8075"/>
			<stop  offset="1" style="stop-color:#1D8277"/>
		</linearGradient>
		<path fill="url(#SVGID_57_)" d="M93.462,33.653c-0.555,0-1.357,0.03-2.353,0.149c-0.024,0.003-0.049,0.006-0.072,0.009
			c-0.166,0.021-0.338,0.043-0.514,0.069c-0.259,0.317-0.48,0.689-0.695,1.074c-0.261,0.47-0.528,0.944-0.839,1.376
			c-0.184,0.256-0.365,0.512-0.546,0.77c0.255,0.212,0.508,0.431,0.753,0.663c0.109,0.104,0.219,0.208,0.325,0.316
			c0.334,0.334,0.649,0.681,0.944,1.037c0.082,0.098,0.161,0.197,0.239,0.296c0.173,0.218,0.338,0.44,0.496,0.667
			c0.3-0.209,0.601-0.423,0.899-0.637c0.433-0.309,0.905-0.578,1.376-0.838c0.181-0.102,0.357-0.204,0.528-0.31
			c0.507-2.813,0.325-4.61,0.325-4.61S94.022,33.653,93.462,33.653"/>
		<path fill="#006666" d="M98.745,30.138c0,0,0.011,0.104,0.016,0.281c0.007,0.18,0,0.43-0.021,0.734
			c-0.044,0.605-0.18,1.396-0.483,2.207c-0.147,0.408-0.336,0.824-0.569,1.229c-0.231,0.406-0.511,0.799-0.868,1.138
			c-0.356,0.34-0.807,0.609-1.273,0.87c-0.472,0.261-0.945,0.53-1.377,0.839c-0.865,0.621-1.74,1.229-2.588,1.774
			c-0.427,0.27-0.841,0.53-1.231,0.775c-0.396,0.241-0.771,0.472-1.116,0.683c-0.344,0.213-0.672,0.393-0.957,0.561
			c-0.283,0.167-0.536,0.311-0.745,0.425c-0.421,0.228-0.662,0.36-0.662,0.36l-0.389-0.389c0,0,0.131-0.241,0.358-0.662
			c0.115-0.21,0.259-0.461,0.425-0.748c0.169-0.284,0.351-0.613,0.563-0.956c0.213-0.346,0.44-0.72,0.682-1.116
			c0.247-0.392,0.506-0.804,0.775-1.231c0.546-0.847,1.154-1.724,1.775-2.588c0.308-0.433,0.578-0.905,0.838-1.376
			c0.263-0.468,0.532-0.918,0.871-1.273c0.339-0.359,0.731-0.638,1.14-0.868c0.404-0.233,0.821-0.421,1.229-0.571
			c0.812-0.303,1.603-0.439,2.206-0.485c0.306-0.019,0.554-0.025,0.734-0.019c0.178,0.004,0.281,0.014,0.281,0.014L98.745,30.138z"
			/>
		
			<linearGradient id="SVGID_58_" gradientUnits="userSpaceOnUse" x1="-235.7827" y1="239.6064" x2="-234.9166" y2="239.6064" gradientTransform="matrix(-6.8074 6.8074 6.8074 6.8074 -3139.0986 6.4546)">
			<stop  offset="0" style="stop-color:#FBDDDF"/>
			<stop  offset="0.0408" style="stop-color:#FBDBDB"/>
			<stop  offset="0.7607" style="stop-color:#00A79B"/>
			<stop  offset="1" style="stop-color:#00A79B"/>
		</linearGradient>
		<path fill="url(#SVGID_58_)" d="M88.375,39.792c0,0,0.047-0.018,0.136-0.052c0.088-0.038,0.213-0.097,0.376-0.163
			c0.157-0.075,0.35-0.167,0.57-0.272c0.214-0.116,0.457-0.246,0.72-0.386c0.265-0.141,0.534-0.32,0.831-0.489
			c0.298-0.164,0.583-0.384,0.896-0.584c0.155-0.103,0.311-0.208,0.47-0.314c0.151-0.115,0.304-0.233,0.458-0.351
			c0.156-0.118,0.311-0.235,0.468-0.354c0.159-0.117,0.316-0.236,0.461-0.371c0.299-0.256,0.598-0.513,0.893-0.766l0.213-0.185
			l0.204-0.204c0.137-0.135,0.271-0.269,0.403-0.399c0.131-0.133,0.262-0.261,0.389-0.387c0.12-0.13,0.227-0.265,0.336-0.392
			c0.109-0.129,0.216-0.255,0.317-0.375c0.103-0.122,0.211-0.231,0.291-0.357c0.169-0.243,0.33-0.462,0.475-0.658
			c0.073-0.095,0.137-0.189,0.187-0.281c0.054-0.091,0.104-0.173,0.147-0.248c0.18-0.3,0.289-0.468,0.289-0.468
			s-0.075,0.187-0.217,0.511c-0.036,0.081-0.075,0.171-0.118,0.268c-0.04,0.101-0.094,0.203-0.155,0.308
			c-0.119,0.215-0.254,0.457-0.408,0.718c-0.152,0.262-0.361,0.516-0.564,0.797c-0.104,0.139-0.207,0.286-0.321,0.427
			c-0.122,0.132-0.245,0.267-0.372,0.404c-0.126,0.137-0.255,0.274-0.387,0.415l-0.196,0.212c-0.081,0.078-0.148,0.134-0.225,0.201
			c-0.297,0.26-0.596,0.524-0.896,0.79c-0.149,0.134-0.312,0.253-0.473,0.37c-0.161,0.12-0.322,0.237-0.481,0.355
			c-0.16,0.115-0.318,0.23-0.475,0.343c-0.165,0.102-0.329,0.203-0.49,0.301c-0.323,0.196-0.628,0.396-0.943,0.545
			c-0.313,0.156-0.6,0.313-0.88,0.432s-0.537,0.228-0.769,0.313c-0.236,0.081-0.442,0.15-0.611,0.208
			c-0.173,0.051-0.311,0.083-0.402,0.108C88.425,39.782,88.375,39.792,88.375,39.792z"/>
	</g>
</g>
</svg>
