<?xml version="1.0" encoding="utf-8"?>
<!-- Generator: Adobe Illustrator 16.0.0, SVG Export Plug-In . SVG Version: 6.00 Build 0)  -->
<!DOCTYPE svg PUBLIC "-//W3C//DTD SVG 1.1//EN" "http://www.w3.org/Graphics/SVG/1.1/DTD/svg11.dtd">
<svg version="1.1" id="Layer_1" xmlns="http://www.w3.org/2000/svg" xmlns:xlink="http://www.w3.org/1999/xlink" x="0px" y="0px"
	 width="172px" height="128px" viewBox="0 0 172 128" enable-background="new 0 0 172 128" xml:space="preserve">
<g>
	<polyline fill="#D1D3D4" points="86.723,8.704 86.395,121.572 6.591,121.342 6.917,8.474 	"/>
	<polyline fill="#BCBEC0" points="166.677,8.937 166.352,121.805 86.546,121.572 86.874,8.705 	"/>
	<polyline fill="#FFFFFF" stroke="#D1D3D4" stroke-width="0.4377" stroke-miterlimit="10" points="85.454,6.428 85.127,119.296 
		5.323,119.064 5.648,6.195 	"/>
	<polyline fill="#F1F2F2" points="165.411,6.66 165.082,119.527 85.278,119.294 85.606,6.428 	"/>
	
		<rect x="13.711" y="40.995" transform="matrix(-1 -0.0062 0.0062 -1 90.675 84.2094)" fill="#CCCCCC" width="63.515" height="1.938"/>
	
		<rect x="13.688" y="44.386" transform="matrix(-1 -0.0062 0.0062 -1 90.6122 90.9877)" fill="#CCCCCC" width="63.518" height="1.935"/>
	
		<rect x="13.669" y="47.774" transform="matrix(-1 -0.0062 0.0062 -1 90.5518 97.7666)" fill="#CCCCCC" width="63.517" height="1.937"/>
	
		<rect x="13.649" y="51.163" transform="matrix(-1 -0.0062 0.0062 -1 90.4922 104.5437)" fill="#CCCCCC" width="63.519" height="1.937"/>
	
		<rect x="13.627" y="54.553" transform="matrix(-1 -0.0062 0.0062 -1 90.4295 111.3221)" fill="#CCCCCC" width="63.52" height="1.936"/>
	
		<rect x="13.605" y="57.94" transform="matrix(-1 -0.0062 0.0062 -1 90.3587 118.0993)" fill="#CCCCCC" width="63.514" height="1.939"/>
	
		<rect x="13.58" y="61.33" transform="matrix(-1 -0.0062 0.0062 -1 90.2924 124.879)" fill="#CCCCCC" width="63.52" height="1.939"/>
	
		<rect x="13.56" y="64.718" transform="matrix(-1 -0.0062 0.0062 -1 90.2323 131.6565)" fill="#CCCCCC" width="63.519" height="1.94"/>
	
		<rect x="13.54" y="68.007" transform="matrix(-1 -0.0063 0.0063 -1 58.403 138.1382)" fill="#CCCCCC" width="31.758" height="1.939"/>
	
		<rect x="13.509" y="79.189" transform="matrix(-1 -0.0064 0.0064 -1 55.6523 160.4915)" fill="#CCCCCC" width="29.151" height="1.934"/>
	<polygon fill="#CCCCCC" points="13.501,82.486 42.649,82.668 42.641,84.605 13.488,84.42 	"/>
	
		<rect x="13.468" y="85.965" transform="matrix(-1 -0.0062 0.0062 -1 55.553 174.0374)" fill="#CCCCCC" width="29.153" height="1.937"/>
	
		<rect x="13.451" y="89.355" transform="matrix(-1 -0.0063 0.0063 -1 55.4823 180.8232)" fill="#CCCCCC" width="29.15" height="1.938"/>
	
		<rect x="13.431" y="92.742" transform="matrix(-1 -0.0063 0.0063 -1 55.4254 187.5925)" fill="#CCCCCC" width="29.154" height="1.934"/>
	
		<rect x="13.411" y="96.131" transform="matrix(-1 -0.0062 0.0062 -1 55.3741 194.3709)" fill="#CCCCCC" width="29.15" height="1.939"/>
	
		<rect x="13.391" y="99.523" transform="matrix(-1 -0.0063 0.0063 -1 55.2982 201.1585)" fill="#CCCCCC" width="29.15" height="1.938"/>
	
		<rect x="13.366" y="102.865" transform="matrix(-1 -0.0062 0.0062 -1 40.6587 207.7937)" fill="#CCCCCC" width="14.575" height="1.938"/>
	
		<rect x="47.886" y="79.396" transform="matrix(-1 -0.0062 0.0062 -1 124.4253 161.114)" fill="#CCCCCC" width="29.149" height="1.938"/>
	
		<rect x="47.865" y="82.788" transform="matrix(-1 -0.0062 0.0062 -1 124.3591 167.901)" fill="#CCCCCC" width="29.15" height="1.94"/>
	
		<rect x="47.84" y="86.174" transform="matrix(-1 -0.0063 0.0063 -1 124.2835 174.6745)" fill="#CCCCCC" width="29.154" height="1.936"/>
	
		<rect x="47.818" y="89.566" transform="matrix(-1 -0.0063 0.0063 -1 124.2147 181.4634)" fill="#CCCCCC" width="29.15" height="1.939"/>
	
		<rect x="47.797" y="92.958" transform="matrix(-1 -0.0061 0.0061 -1 124.1708 188.234)" fill="#CCCCCC" width="29.15" height="1.939"/>
	
		<rect x="47.77" y="96.352" transform="matrix(-1 -0.0063 0.0063 -1 124.0742 195.0333)" fill="#CCCCCC" width="29.149" height="1.939"/>
	
		<rect x="47.764" y="99.731" transform="matrix(-1 -0.0061 0.0061 -1 124.062 201.7806)" fill="#CCCCCC" width="29.148" height="1.939"/>
	
		<rect x="47.733" y="103.094" transform="matrix(-1 -0.0064 0.0064 -1 115.318 208.4957)" fill="#CCCCCC" width="20.516" height="1.94"/>
	<g opacity="0.8">
		<path fill="#B5BCB5" d="M114.367,118.66l-14.794-15.067c-13.13-5.631-17.121,13.759-4.2,14.896L114.367,118.66z"/>
		<path fill="#CCCECC" d="M156.499,119.037c4.661,1.402,5.946-7.311-0.037-9.48c3.713-1.127,7.108-4.748,4.993-9.601
			c-2.559-5.868-7.73-3.228-11.546-2.367l-13.097,21.271L156.499,119.037z"/>
		<path fill="#E0E3E0" d="M143.223,118.917c-0.293-1.112-0.771-2.176-1.35-3.041c2.533,1.885,7.502,1.413,9.329-1.504
			c2.062-3.297-0.246-7.519-2.55-9.742c0,0-12.604-3.864-16.616-3.374c-3.949,0.484-9.693,10.518-9.905,17.473L143.223,118.917z"/>
		<path fill="#FDFDFD" d="M110.391,79.327c1.576-5.078,5.963-5.617,9.008-4.218c-3.153-2.147-2.041-8.352,0.781-10.444
			c2.322-1.725,5.666-1.063,7.814-0.214l0.008-0.926c2.568-2.105,7.825,1.957,8.525,4.709c0.672,2.627-0.773,5.314-2.444,6.957
			c9.155-6.443,17.472,3.814,11.248,12.273c3.053-1.469,7.058,2.234,7.955,5.186c1.257,4.137,0.642,9.35-2.297,12.463
			c-3.507,3.722-10.95,4.066-13.796-1.264c-1.146,11.998-19.231,8.135-15.102-2.127c-4.729,3.783-8.627,0.279-9.969-3.482
			c-1.281-3.6,0.65-8.821,4.451-8.928C111.771,88.596,108.686,84.807,110.391,79.327z"/>
		<path fill="#FDFDFD" d="M101.637,113.797c-1.508,1.563-2.242,3.193-2.41,4.729l27.575,0.246c0.027-1.301-0.235-2.74-0.887-4.299
			c4.058,6.248,13.715,0.555,9.825-7.965c-0.305,0.15-18.129-19.419-18.129-19.419c-1.981-3.263-7.834-4.69-11.111-2.667
			c-3.973,2.453-3.257,9.16-1.797,12.924c-4.623-3.018-9.891,0.635-11.032,5.711C92.396,108.73,96.637,113.482,101.637,113.797z"/>
		<path fill="#E0E3E0" d="M153.286,92.65c1.257,4.137,0.642,9.35-2.298,12.463c-3.506,3.722-10.949,4.066-13.795-1.264
			c-1.146,11.998-19.231,8.135-15.102-2.127c-4.729,3.783-8.627,0.279-9.969-3.482c-1.281-3.6,0.65-8.821,4.451-8.928
			c-4.805-0.717-7.891-4.508-6.186-9.985c1.107-3.567,3.602-4.894,6.039-4.882c-1.335,4.871,0.918,11.83,6.506,11.229
			c-5.898,1.998,0.537,7.981,4.174,6.38c-2.969,3.512-3.834,11.654,3.799,12.879c4.982,0.801,7.437-6.213,8.109-10.065
			c0.006,5.748,4.99,9.721,8.945,6.981c5.021-3.476,6.232-11.582-2.49-14.354l0.512-0.261
			C148.928,86.518,152.451,89.904,153.286,92.65z"/>
		<path fill="#E0E3E0" d="M112.223,118.641l4.358,0.039c-0.375-1.613-0.317-3.638,0.358-6.139
			C115.368,114.523,113.839,116.877,112.223,118.641z"/>
		<path fill="#E0E3E0" d="M101.889,113.65c-1.617,1.613-2.42,3.287-2.619,4.873l4,0.035c-1.644-2.588,0.192-5.436,3.172-7.274
			c-4.084-0.32-8.155-3.085-8.26-7.634c-0.099-4.325,4.104-6.461,7.676-7.012c-0.271-0.311-0.564-0.601-0.869-0.875
			c0.08,0.225,0.16,0.442,0.242,0.65c-5.047-3.164-10.799,0.66-12.045,5.979C91.794,108.341,96.425,113.326,101.889,113.65z"/>
	</g>
	<g>
		<path fill="#00A79D" d="M106.85,87.506c0.27,0.061,0.402,0.194,0.402,0.393l-0.004,0.271l0.016,0.085h-0.017l0.017,0.016v0.121
			l-0.018,0.017l0.018,0.016l-0.002,0.017l0.01,0.83l0.016,0.086l-0.016-0.004l0.016,0.02l-0.002,0.271l0.018,0.082h-0.019
			l0.019,0.02v0.017l0.027,0.56h-0.018l0.018,0.016v0.018l0.059,1.049h-0.017l0.017,0.017v0.019l0.116,2.217l-0.019,0.016
			l0.018,0.085l-0.004,0.333c-0.081,0.35-0.229,0.523-0.445,0.521c-0.326-0.004-0.628-0.276-0.906-0.82
			c-0.369-0.587-0.935-1.686-1.695-3.295h-0.016l-0.041,0.861h-0.019l0.019,0.019l-0.02,0.083l-0.001,0.221l-0.019,0.018
			l0.019,0.016l-0.062,0.997h-0.018l0.018,0.019l-0.019,0.1c-0.039,1.175-0.077,1.76-0.114,1.76
			c-0.113,0.146-0.228,0.219-0.344,0.216l-0.084-0.002c-0.219,0-0.348-0.153-0.385-0.459l0.001-0.065l0.017-0.02l-0.017-0.017
			l0.021-0.253l0.002-0.137l0.019-0.101l-0.019-0.019l0.02-0.066l0.063-1.438h0.018l-0.018-0.017l0.019-0.118l0.002-0.186
			l0.019-0.018l-0.019-0.018l0.019-0.068l0.104-2.396h0.019l-0.019-0.02l0.021-0.287l0.006-0.541
			c0.002-0.226,0.094-0.377,0.274-0.453l0.169-0.032c0.258,0.002,0.4,0.185,0.436,0.544c0.494,1.129,1.181,2.543,2.059,4.247h0.018
			l0.002-0.136l-0.017-0.086h0.015l-0.017-0.017v-0.019l-0.028-0.475h0.016l-0.016-0.015V92.1l-0.014-0.474l-0.018-0.05l0.018-0.018
			c-0.042-0.475-0.084-1.287-0.131-2.437h0.018l-0.018-0.017l-0.01-1.016l0.004-0.203c0-0.212,0.145-0.341,0.427-0.386h0.019V87.506
			z"/>
		<path fill="#00A79D" d="M108.145,88.244h0.102c0.205,0.003,0.333,0.146,0.385,0.427c-0.188,0.698-0.283,1.396-0.29,2.095
			l-0.002,0.354l0.017,0.119h-0.018l0.018,0.017v0.018c-0.006,0.634,0.144,1.498,0.447,2.591l0.066,0.12
			c0.25-0.135,0.427-0.342,0.529-0.623c0.313-0.854,0.475-1.774,0.482-2.769c0.006-0.499-0.087-1.022-0.273-1.573
			c0.039-0.306,0.188-0.455,0.444-0.453l-0.001,0.019l0.018-0.019c0.27,0.002,0.457,0.338,0.565,1.004
			c0.075,0.315,0.113,0.677,0.107,1.082c-0.009,1.095-0.222,2.178-0.638,3.24c-0.211,0.377-0.496,0.662-0.853,0.854
			c-0.129,0.065-0.247,0.099-0.356,0.099l-0.117-0.003c-0.182-0.015-0.358-0.112-0.539-0.288c-0.143-0.146-0.279-0.473-0.414-0.986
			c-0.237-1.101-0.354-1.926-0.35-2.471h0.018l-0.018-0.018l0.004-0.561l0.019-0.017l-0.017-0.017l0.019-0.084l0.002-0.187
			l0.015-0.019l-0.015-0.018c0.071-0.652,0.162-1.193,0.267-1.621C107.863,88.35,107.988,88.242,108.145,88.244z"/>
		<path fill="#00A79D" d="M111.332,86.964h0.068l0.018,0.019l0.018-0.019h0.032c0.095,0,0.419,0.115,0.978,0.349
			c0.426,0.129,0.75,0.291,0.979,0.494c0.401,0.297,0.602,0.643,0.6,1.041c-0.004,0.313-0.256,0.697-0.756,1.154
			c-0.252,0.195-0.438,0.322-0.561,0.384v0.03c1.066,0.432,1.596,1.014,1.59,1.743v0.131c-0.008,0.719-0.786,1.481-2.338,2.287
			c-0.246,0.149-0.4,0.225-0.459,0.225l-0.137-0.002c-0.172-0.002-0.289-0.127-0.352-0.375v-0.032l0.059-0.643l-0.019-0.1
			l0.003-0.243l0.019-0.019l-0.019-0.013v-0.019l-0.052-1.729l-0.017-0.015v-0.02l0.017-0.017l-0.069-1.472l-0.019-0.045h0.019
			l-0.019-0.019v-0.019c-0.036-0.809-0.054-1.498-0.049-2.067l0.003-0.192C110.874,87.229,111.029,86.96,111.332,86.964z
			 M111.743,87.891l0.008,1.063l0.017,0.05h-0.018l0.018,0.046l0.025,0.925h0.016c0.479-0.271,0.868-0.545,1.176-0.832
			c0.117-0.16,0.193-0.289,0.224-0.388c0.001-0.124-0.188-0.307-0.571-0.549l-0.893-0.334L111.743,87.891L111.743,87.891z
			 M111.852,90.943l-0.002,0.117l0.018,0.078h-0.018l0.017,0.018l-0.001,0.193l0.016,0.162h-0.016l0.016,0.018v0.019l0.025,1.017
			l0.016,0.08h-0.018l0.018,0.02l-0.002,0.24l0.016,0.08l-0.018-0.002l0.018,0.05l0.012,0.536l-0.018,0.046
			c1.03-0.563,1.549-1.054,1.553-1.474v-0.048c0.004-0.446-0.487-0.821-1.479-1.129L111.852,90.943z"/>
		<path fill="#00A79D" d="M115.539,87.956h0.066l0.931,0.042v0.02l0.017-0.02c0.279,0.002,0.617,0.104,1.012,0.297
			c0.371,0.223,0.555,0.484,0.553,0.783c-0.01,0.969-0.803,2.018-2.379,3.141c1.283,1.322,1.925,2.042,1.925,2.164l0.017,0.104
			c-0.002,0.197-0.109,0.336-0.324,0.42l-0.104,0.015c-0.179-0.003-0.326-0.11-0.438-0.325c-0.735-0.785-1.25-1.32-1.539-1.602
			l-0.002,0.016l0.156,1.489c-0.076,0.235-0.162,0.354-0.257,0.354c0,0.021-0.067,0.035-0.202,0.049
			c-0.271-0.079-0.404-0.215-0.402-0.41l-0.217-2.184h0.017l-0.017-0.018v-0.018l-0.028-0.608h0.017l-0.017-0.017l0.003-0.271
			l-0.018-0.085h0.018l-0.018-0.018l0.002-0.187l-0.015-0.373h0.019l-0.019-0.016v-0.017l0.019-0.018l-0.019-0.018l0.001-0.016
			l-0.001-1.845c0.004-0.403,0.097-0.634,0.278-0.69c0.059-0.033,0.128-0.05,0.203-0.05c0.062,0,0.123,0.019,0.185,0.054
			C115.135,88.003,115.327,87.955,115.539,87.956z M115.157,89.085l-0.007,0.592l0.013,0.541h-0.017l0.017,0.017l-0.006,0.643
			l0.016,0.171h-0.019l0.018,0.017l-0.002,0.289l0.016,0.082h-0.016l0.016,0.104h0.018c0.39-0.234,0.879-0.646,1.465-1.239
			c0.377-0.479,0.57-0.858,0.585-1.143c-0.114-0.203-0.515-0.31-1.196-0.315l-0.371-0.021h-0.17
			C115.418,88.816,115.299,88.904,115.157,89.085z"/>
		<path fill="#00A79D" d="M118.445,88.088h0.119c0.166,0.002,0.289,0.145,0.367,0.428l-0.08,3.286l-0.019,0.063l0.019,0.017
			l-0.019,0.101l-0.008,0.763l-0.017,0.021l0.017,0.021v0.023l-0.017,0.015l0.016,0.021v0.043l-0.018,0.02l0.018,0.021l-0.006,0.5
			l0.016,0.199h-0.018l0.018,0.021v0.041l-0.018,0.018l0.018,0.021l-0.004,0.401l0.016,0.321c-0.074,0.32-0.211,0.48-0.412,0.479
			h-0.05c-0.227-0.002-0.358-0.172-0.401-0.507l-0.01-0.843l0.002-0.1l-0.016-0.201l0.016,0.002l-0.016-0.065l0.059-2.546h0.016
			l-0.016-0.02v-0.021l0.017-0.021l-0.017-0.021l0.021-0.397l0.005-0.644l0.018-0.02l-0.017-0.022v-0.08l0.019-0.02l-0.017-0.018
			l0.017-0.145l0.008-0.682C118.128,88.244,118.253,88.085,118.445,88.088z"/>
		<path fill="#00A79D" d="M122.471,87.645c0.27,0.063,0.402,0.194,0.4,0.395l-0.003,0.27l0.019,0.086h-0.019l0.019,0.019v0.116
			l-0.021,0.019l0.018,0.019v0.016l0.011,0.829l0.017,0.085h-0.019l0.018,0.018l-0.002,0.271l0.016,0.085l-0.016-0.002l0.016,0.018
			l-0.001,0.018l0.03,0.559h-0.018l0.018,0.02v0.015l0.059,1.05h-0.018l0.018,0.018v0.019l0.114,2.214l-0.017,0.018l0.016,0.086
			l-0.004,0.336c-0.079,0.35-0.227,0.522-0.443,0.521c-0.326-0.002-0.63-0.276-0.904-0.819c-0.371-0.588-0.937-1.685-1.695-3.295
			h-0.018l-0.043,0.861h-0.019l0.019,0.018l-0.019,0.082l-0.002,0.221l-0.017,0.02l0.017,0.016l-0.06,1h-0.018l0.018,0.015
			l-0.019,0.103c-0.038,1.172-0.077,1.756-0.117,1.756c-0.11,0.147-0.225,0.22-0.339,0.217h-0.085
			c-0.22-0.002-0.349-0.154-0.386-0.461l0.001-0.066l0.019-0.016l-0.019-0.021l0.021-0.251l0.002-0.136l0.018-0.103l-0.016-0.016
			l0.016-0.07l0.064-1.435h0.016l-0.016-0.019l0.018-0.117l0.001-0.187l0.018-0.017l-0.018-0.02l0.019-0.064l0.106-2.4h0.016
			l-0.016-0.017l0.019-0.288l0.006-0.541c0.002-0.227,0.094-0.378,0.274-0.455l0.169-0.03c0.256,0.003,0.4,0.185,0.436,0.544
			c0.494,1.129,1.181,2.545,2.06,4.246h0.017l0.002-0.136l-0.017-0.084h0.019l-0.019-0.019v-0.018l-0.029-0.472h0.017l-0.017-0.019
			v-0.018l-0.013-0.473l-0.018-0.053l0.018-0.017c-0.039-0.474-0.084-1.285-0.129-2.437h0.016l-0.016-0.017l-0.01-1.015l0.002-0.203
			c0.002-0.213,0.145-0.342,0.427-0.387h0.017V87.645z"/>
		<path fill="#00A79D" d="M123.529,87.725h0.052c0.278,0.002,0.438,0.273,0.481,0.814c0.064,0.316,0.109,1.004,0.135,2.064h-0.016
			l0.014,0.1l2.24-2.785c0.101-0.111,0.219-0.166,0.356-0.166c0.269,0.057,0.403,0.182,0.401,0.377l0.019,0.016v0.019h-0.019
			l0.018,0.017v0.02c-0.001,0.109-0.104,0.273-0.311,0.484c-1.09,1.353-1.803,2.254-2.137,2.705
			c-0.058,0.112-0.127,0.215-0.205,0.301c0.539,0.414,1.537,1.097,2.99,2.041c0.078,0.086,0.115,0.179,0.115,0.271l-0.001,0.064
			c-0.001,0.215-0.144,0.344-0.425,0.385h-0.034c-0.106,0-0.673-0.354-1.698-1.063c-0.553-0.357-1-0.666-1.344-0.926l-0.098,1.301
			l0.011,0.778v0.05c-0.002,0.182-0.115,0.311-0.341,0.387l-0.137-0.002c-0.191,0-0.314-0.131-0.367-0.393l-0.027-0.811l0.078-1.149
			h0.019l-0.017-0.019l0.017-0.064l0.024-0.607h0.016l-0.016-0.019v-0.019l0.02-0.422h0.02l-0.02-0.017v-0.019l-0.008-0.981
			l-0.016-0.135l0.017-0.015l-0.015-0.121c0.006-0.717-0.061-1.402-0.202-2.063C123.189,87.854,123.327,87.723,123.529,87.725z"/>
		<path fill="#00A79D" d="M129.979,87.372c0.078,0,0.199,0.065,0.369,0.196c0.397,0.16,0.93,0.488,1.6,0.99
			c0.972,0.877,1.453,1.832,1.445,2.867l-0.004,0.193c-0.01,1.105-0.5,1.986-1.477,2.632c-0.74,0.524-1.238,0.799-1.496,0.819
			l-0.169-0.002c-0.222-0.002-0.354-0.142-0.401-0.42l0.002-0.254l-0.016-0.069l0.016-0.011l-0.26-4.929l-0.015-0.047l0.015,0.002
			l-0.015-0.018v-0.019c-0.041-0.908-0.083-1.361-0.123-1.363l0.001-0.193c0.001-0.143,0.119-0.271,0.355-0.38L129.979,87.372z
			 M130.477,88.555l-0.067,0.096l-0.002,0.189l0.015,0.084l-0.016-0.002l0.016,0.018v0.018l0.118,1.97h-0.017l0.016,0.019v0.018
			l0.029,0.48h-0.017l0.017,0.018v0.014l0.129,2.565c0.369-0.168,0.828-0.517,1.381-1.043c0.307-0.424,0.464-0.931,0.469-1.517
			c0.01-1.164-0.68-2.144-2.07-2.941V88.555L130.477,88.555z"/>
		<path fill="#00A79D" d="M136.204,87.584l0.187,0.002c0.164,0,0.279,0.139,0.351,0.408c-0.003,0.262-0.161,0.406-0.478,0.436
			c-0.279-0.003-0.834,0.211-1.662,0.643l-0.289,2.027c0.896-0.447,1.647-0.701,2.256-0.758h0.018
			c0.258,0.059,0.389,0.189,0.385,0.395v0.065c-0.002,0.261-0.242,0.41-0.715,0.45c-0.878,0.244-1.552,0.555-2.02,0.93l-0.002,0.117
			l0.016,0.204h-0.02l0.02,0.017v0.018c-0.008,0.797,0.096,1.329,0.307,1.591c0.084,0.06,0.156,0.088,0.219,0.088
			c0.32-0.018,0.936-0.354,1.836-1.016c0.158-0.167,0.302-0.25,0.425-0.25l0.069,0.002c0.256,0.059,0.385,0.2,0.383,0.426
			c-0.002,0.192-0.2,0.415-0.598,0.673c-0.869,0.626-1.551,0.969-2.039,1.029l0.002-0.018l-0.019,0.015h-0.187l-0.016-0.017
			l-0.02,0.015c-0.286-0.002-0.555-0.161-0.807-0.48c-0.267-0.46-0.396-0.991-0.392-1.592l-0.045-0.592
			c-0.101-0.081-0.151-0.193-0.149-0.339c0-0.08,0.053-0.188,0.156-0.32c0.072-0.668,0.174-1.434,0.307-2.297
			c-0.188-0.098-0.283-0.234-0.283-0.408c0.002-0.244,0.281-0.492,0.836-0.734C135.152,87.822,135.811,87.579,136.204,87.584z"/>
		<path fill="#00A79D" d="M140.242,88.295l0.135,0.003c0.219,0,0.361,0.115,0.438,0.343v0.084c-0.004,0.197-0.102,0.33-0.293,0.401
			c-0.021,0.021-0.192,0.035-0.508,0.046c-0.242,0.063-0.673,0.369-1.295,0.919c-0.568,0.624-0.854,1.118-0.855,1.479
			c-0.002,0.216,0.063,0.322,0.199,0.324c0.713,0.008,1.49-0.094,2.336-0.302h0.067c0.438,0.063,0.656,0.286,0.652,0.666
			l0.017,0.103c-0.004,0.428-0.242,0.875-0.722,1.347c-0.919,0.938-1.433,1.405-1.536,1.405l-0.134-0.002
			c-0.216,0-0.345-0.147-0.386-0.44c0.002-0.131,0.1-0.3,0.293-0.506c0.088,0.002,0.318-0.199,0.697-0.603
			c0.592-0.562,0.889-0.914,0.891-1.058h-0.018c-0.351,0.086-0.803,0.161-1.354,0.226v-0.018l-0.017,0.016l-0.457,0.016
			l-0.438-0.004c-0.46-0.006-0.763-0.27-0.907-0.788L137,91.563c0.005-0.605,0.406-1.324,1.203-2.153
			C138.996,88.661,139.676,88.291,140.242,88.295z"/>
		<path fill="#00A79D" d="M141.616,88.295h0.118c0.166,0.003,0.289,0.145,0.367,0.428l-0.078,3.288l-0.021,0.063l0.019,0.018
			l-0.02,0.1l-0.006,0.763l-0.018,0.021l0.018,0.021v0.021l-0.018,0.016l0.017,0.021v0.041l-0.017,0.018l0.017,0.023l-0.005,0.5
			l0.014,0.2l-0.016-0.002l0.016,0.022V93.9l-0.016,0.016l0.016,0.021l-0.003,0.4l0.015,0.32c-0.074,0.32-0.209,0.48-0.41,0.479
			h-0.051c-0.227-0.002-0.359-0.17-0.402-0.506l-0.008-0.84v-0.104l-0.015-0.198h0.017l-0.017-0.063l0.058-2.548h0.018l-0.018-0.019
			v-0.02l0.019-0.021l-0.019-0.021l0.021-0.397l0.004-0.643l0.018-0.021l-0.018-0.021l0.001-0.081l0.019-0.02l-0.019-0.018
			l0.021-0.145l0.006-0.682C141.3,88.452,141.425,88.293,141.616,88.295z"/>
		<path fill="#00A79D" d="M145.189,88.08c0.233,0.001,0.369,0.159,0.406,0.475c-0.004,0.309-0.262,0.486-0.775,0.538
			c-0.575,0.226-1.092,0.726-1.543,1.495c-0.256,0.549-0.387,1.115-0.393,1.704v0.095l-0.018,0.018l0.018,0.021l-0.003,0.238
			c-0.005,0.591,0.197,1.058,0.604,1.401c0.16,0.111,0.322,0.168,0.49,0.17h0.146c0.526,0.007,0.978-0.403,1.349-1.225l0.034-0.164
			v-0.072c0.003-0.314-0.078-0.475-0.241-0.477h-0.113c-0.063-0.002-0.379,0.1-0.948,0.301c-0.213,0.061-0.382,0.096-0.504,0.104
			c-0.261-0.082-0.392-0.229-0.39-0.438v-0.057c0.002-0.255,0.149-0.398,0.442-0.43c0.243-0.063,0.644-0.191,1.196-0.394
			l0.297-0.034c0.434,0.004,0.763,0.25,0.986,0.741c0.041,0.109,0.076,0.313,0.106,0.617l-0.017-0.002l0.017,0.021l-0.001,0.108
			c-0.006,0.601-0.381,1.252-1.124,1.955c-0.38,0.251-0.769,0.373-1.162,0.368c-0.827-0.006-1.434-0.486-1.817-1.436
			c-0.125-0.354-0.188-0.804-0.182-1.347c0.014-1.521,0.557-2.733,1.631-3.642c0.289-0.286,0.685-0.482,1.18-0.59L145.189,88.08z"/>
		<path fill="#00A79D" d="M149.672,87.891c0.271,0.062,0.404,0.192,0.402,0.393l-0.002,0.271l0.016,0.084h-0.018l0.018,0.018v0.119
			l-0.018,0.017l0.017,0.019v0.016l0.009,0.828l0.018,0.086h-0.018l0.018,0.016l-0.004,0.271l0.017,0.084h-0.017l0.017,0.018
			l-0.001,0.018l0.029,0.56l-0.016-0.002l0.016,0.017l-0.002,0.02l0.062,1.049h-0.019l0.019,0.016l-0.002,0.018l0.117,2.217
			l-0.019,0.018l0.017,0.084l-0.003,0.338c-0.078,0.35-0.229,0.523-0.444,0.521c-0.325-0.005-0.629-0.277-0.905-0.82
			c-0.369-0.588-0.936-1.685-1.695-3.295h-0.016l-0.043,0.862h-0.017l0.017,0.017l-0.018,0.082l-0.002,0.223l-0.018,0.018
			l0.018,0.016l-0.061,0.996h-0.018l0.018,0.019l-0.019,0.101c-0.037,1.174-0.077,1.76-0.116,1.76
			c-0.111,0.146-0.227,0.219-0.341,0.215h-0.084c-0.22-0.002-0.349-0.153-0.386-0.461v-0.066l0.018-0.016l-0.018-0.019l0.021-0.253
			l0.001-0.137l0.018-0.102l-0.017-0.017l0.017-0.067l0.064-1.437h0.018l-0.018-0.019l0.02-0.117l0.002-0.187l0.018-0.017
			l-0.018-0.02l0.018-0.064l0.105-2.4h0.018l-0.018-0.018l0.02-0.287l0.006-0.541c0.002-0.227,0.094-0.379,0.273-0.453l0.169-0.033
			c0.257,0.002,0.401,0.184,0.437,0.545c0.494,1.129,1.18,2.545,2.057,4.246h0.02l0.001-0.136l-0.018-0.084h0.019l-0.019-0.019
			v-0.018l-0.028-0.475h0.018l-0.018-0.016V92.49l-0.013-0.475l-0.017-0.052l0.018-0.016c-0.04-0.474-0.085-1.287-0.129-2.438
			l0.016,0.002l-0.016-0.019l-0.008-1.013v-0.203c0.002-0.213,0.145-0.342,0.426-0.387H149.672L149.672,87.891z"/>
		<path fill="#00A79D" d="M106.102,96.775c0.119,0.002,0.196,0.086,0.233,0.248h-0.009l0.009,0.013
			c-0.03,0.164-0.125,0.243-0.288,0.243c-0.111-0.002-0.55,0.104-1.314,0.313c0.078,0.899,0.141,1.723,0.186,2.469h-0.009
			l0.009,0.012l-0.001,0.177c0.063,0.065,0.097,0.133,0.097,0.207c-0.096,0.276-0.203,0.415-0.328,0.413h-0.051
			c-0.07,0-0.14-0.079-0.203-0.229l-0.011-0.1l0.001-0.05l0.01-0.009l-0.01-0.03c0.004-0.396-0.059-1.3-0.184-2.716
			c-0.178,0.047-0.397,0.109-0.651,0.193c-0.056,0.071-0.116,0.105-0.188,0.105l-0.078-0.002c-0.127,0-0.213-0.063-0.256-0.188v-0.1
			c0.002-0.137,0.185-0.25,0.547-0.34l0.642-0.202c0.05-0.072,0.108-0.106,0.181-0.104h0.06l0.099,0.02
			C105.359,96.896,105.863,96.783,106.102,96.775z"/>
		<path fill="#00A79D" d="M107.283,96.877c0.158,0.027,0.234,0.107,0.234,0.229v0.051c0,0.029-0.033,0.098-0.093,0.205v0.101
			l-0.012,0.009l0.011,0.012v0.039c-0.003,0.303,0.071,0.552,0.221,0.75c0.076,0.078,0.141,0.127,0.195,0.141l0.108-0.029h0.028
			l0.158,0.051c0.248-0.131,0.438-0.382,0.569-0.754l0.021-0.187v-0.011l0.01-0.01c-0.004-0.039-0.023-0.074-0.059-0.108
			c-0.023-0.041-0.039-0.091-0.049-0.148c0.002-0.13,0.089-0.212,0.26-0.243c0.092,0,0.19,0.066,0.295,0.197
			c0.031,0.1,0.047,0.178,0.047,0.237v0.052c-0.006,0.521-0.267,0.98-0.781,1.383c-0.131,0.047-0.197,0.075-0.198,0.085l0.044,0.573
			h-0.01l0.01,0.012l-0.001,0.137l0.009,0.07h-0.009l0.009,0.01l-0.001,0.194l-0.013,0.493h-0.012l0.012,0.012
			c-0.004,0.316-0.094,0.473-0.271,0.471c-0.17-0.035-0.256-0.115-0.254-0.239c0.021-0.179,0.033-0.408,0.036-0.679l0.001-0.082
			c-0.01-0.662-0.033-0.996-0.07-0.996c-0.256-0.079-0.467-0.262-0.627-0.549c-0.121-0.285-0.183-0.596-0.179-0.927v-0.021
			C106.964,97.052,107.082,96.874,107.283,96.877z"/>
		<path fill="#00A79D" d="M110.445,96.746l0.455,0.004c0.268,0.005,0.602,0.082,0.992,0.236c0.445,0.224,0.668,0.445,0.666,0.658
			v0.039c-0.004,0.44-0.502,0.937-1.494,1.485l-0.138,0.067l0.019,1.064l0.011,0.051h-0.011l0.011,0.008v0.078l0.038,0.142
			c-0.029,0.229-0.12,0.345-0.27,0.342h-0.021c-0.128-0.002-0.206-0.084-0.233-0.248c-0.019-0.229-0.025-0.442-0.023-0.643
			l-0.01-0.03h0.01l-0.01-0.009l0.002-0.257l-0.008-0.067h0.01l-0.01-0.013v-0.01l-0.007-0.592l-0.009-0.078h0.01l-0.01-0.012
			l0.002-0.195l-0.008-0.07h0.009l-0.009-0.008l0.001-0.198l-0.009-0.146h0.01l-0.01-0.013v-0.009l-0.014-0.641h0.01l-0.01-0.012
			v-0.139l-0.008-0.217l-0.099,0.039h-0.091c-0.09,0-0.157-0.072-0.203-0.211V97.1C109.992,96.938,110.145,96.822,110.445,96.746z
			 M110.885,97.254l-0.001,0.157l0.009,0.147h-0.009l0.009,0.012v0.01l0.016,0.633h-0.01l0.01,0.01l-0.002,0.188l0.009,0.107
			l-0.011,0.01v0.012l0.011,0.059l-0.001,0.088h0.009c0.755-0.453,1.132-0.787,1.134-1.004c-0.263-0.221-0.597-0.357-1.002-0.414
			L110.885,97.254z"/>
		<path fill="#00A79D" d="M114.381,96.779h0.059c0.146,0.039,0.217,0.111,0.215,0.215v0.099c0.273,0.074,0.479,0.208,0.619,0.394
			c0.213,0.248,0.351,0.543,0.414,0.884c0.026,0.092,0.047,0.272,0.064,0.544h-0.01l0.01,0.008l-0.003,0.196l-0.008,0.01
			l0.008,0.011c-0.002,0.355-0.146,0.76-0.425,1.217c-0.305,0.404-0.62,0.604-0.951,0.602l-0.119-0.002
			c-0.333-0.003-0.588-0.244-0.763-0.725c-0.076-0.231-0.112-0.517-0.11-0.852v-0.05c0.008-0.757,0.211-1.486,0.611-2.193
			C114.159,96.896,114.289,96.777,114.381,96.779z M114.335,97.545c-0.295,0.596-0.444,1.167-0.45,1.711h-0.009l0.009,0.01
			l-0.001,0.243c-0.005,0.386,0.081,0.681,0.257,0.882c0.045,0.037,0.102,0.063,0.168,0.08c0.323,0.002,0.609-0.294,0.855-0.895
			c0.054-0.184,0.082-0.365,0.084-0.553l0.001-0.025c0.005-0.631-0.169-1.08-0.521-1.344
			C114.609,97.582,114.479,97.545,114.335,97.545z"/>
		<path fill="#00A79D" d="M118.477,96.854c0.139,0.002,0.215,0.095,0.238,0.278c-0.003,0.179-0.154,0.284-0.453,0.313
			c-0.336,0.132-0.637,0.425-0.9,0.871c-0.147,0.32-0.225,0.649-0.228,0.994l-0.001,0.056l-0.011,0.012l0.011,0.011l-0.002,0.137
			c-0.003,0.346,0.114,0.621,0.354,0.82c0.094,0.065,0.188,0.1,0.285,0.1l0.086,0.002c0.308,0.002,0.568-0.237,0.785-0.715
			l0.021-0.098l0.001-0.041c0.002-0.186-0.045-0.277-0.141-0.279h-0.067c-0.036,0-0.22,0.06-0.556,0.175
			c-0.121,0.034-0.219,0.056-0.291,0.063c-0.151-0.048-0.229-0.133-0.229-0.257v-0.029c0.001-0.151,0.088-0.236,0.26-0.254
			c0.141-0.035,0.375-0.111,0.697-0.228l0.172-0.022c0.254,0.002,0.445,0.146,0.576,0.434c0.023,0.063,0.045,0.186,0.063,0.359
			h-0.012l0.012,0.012v0.063c-0.004,0.352-0.223,0.73-0.656,1.143c-0.221,0.146-0.448,0.218-0.678,0.215
			c-0.483-0.004-0.836-0.282-1.061-0.836c-0.074-0.207-0.109-0.471-0.107-0.787c0.01-0.887,0.326-1.594,0.951-2.122
			c0.17-0.168,0.399-0.283,0.688-0.345L118.477,96.854z"/>
		<path fill="#00A79D" d="M120.827,96.959h0.039l0.542,0.025v0.008l0.011-0.008c0.162,0.002,0.358,0.059,0.59,0.172
			c0.216,0.131,0.323,0.281,0.321,0.455c-0.005,0.565-0.469,1.179-1.389,1.834c0.75,0.771,1.125,1.19,1.125,1.264l0.009,0.059
			c-0.001,0.115-0.063,0.196-0.188,0.244l-0.061,0.012c-0.105-0.002-0.189-0.065-0.256-0.189c-0.428-0.461-0.729-0.773-0.897-0.938
			v0.012l0.093,0.869c-0.047,0.137-0.097,0.203-0.15,0.203c0,0.013-0.04,0.021-0.119,0.028c-0.158-0.045-0.234-0.126-0.232-0.239
			l-0.129-1.271h0.01l-0.01-0.012l0.002-0.008l-0.019-0.355h0.01l-0.01-0.012l0.002-0.156l-0.011-0.051h0.011l-0.011-0.01
			l0.002-0.107l-0.008-0.217h0.01l-0.01-0.01v-0.01l0.01-0.012l-0.01-0.008V98.52v-1.072c0.002-0.236,0.056-0.371,0.162-0.403
			c0.033-0.021,0.072-0.028,0.118-0.028c0.036,0,0.072,0.01,0.107,0.03C120.592,96.986,120.704,96.958,120.827,96.959z
			 M120.604,97.619l-0.002,0.345l0.006,0.313h-0.01l0.01,0.011l-0.004,0.374l0.012,0.1h-0.012l0.012,0.01l-0.002,0.168l0.008,0.05
			h-0.01l0.01,0.06h0.01c0.229-0.137,0.514-0.38,0.855-0.723c0.22-0.279,0.332-0.502,0.34-0.668
			c-0.067-0.117-0.299-0.182-0.698-0.184l-0.217-0.013h-0.099C120.758,97.462,120.688,97.514,120.604,97.619z"/>
		<path fill="#00A79D" d="M124.148,96.604c0.244,0.002,0.461,0.565,0.649,1.696c0.274,1.282,0.446,2.121,0.517,2.519v0.016
			c-0.035,0.146-0.106,0.221-0.217,0.218l-0.08-0.002c-0.131-0.042-0.194-0.108-0.192-0.2c-0.05-0.3-0.119-0.64-0.208-1.027
			l-0.922,0.162l-0.012,0.236l-0.004,0.399c-0.023,0.165-0.104,0.246-0.236,0.246h-0.02c-0.134-0.002-0.211-0.084-0.232-0.25
			l0.007-0.57c-0.079-0.06-0.118-0.119-0.117-0.181v-0.059c0.001-0.089,0.052-0.152,0.149-0.19c0.11-1.138,0.268-1.946,0.471-2.429
			c0.131-0.391,0.257-0.588,0.379-0.584H124.148z M124.104,97.289c-0.108,0.336-0.209,0.802-0.299,1.398l-0.084,0.689h0.008
			l0.78-0.134v-0.009l-0.387-1.946L124.104,97.289L124.104,97.289z"/>
		<path fill="#00A79D" d="M126.539,96.893l0.454,0.002c0.269,0.004,0.601,0.084,0.993,0.235c0.445,0.228,0.668,0.443,0.664,0.659
			v0.039c-0.004,0.439-0.5,0.936-1.493,1.486l-0.138,0.066l0.02,1.064l0.011,0.05h-0.011l0.011,0.009l-0.002,0.079l0.039,0.14
			c-0.028,0.229-0.121,0.342-0.271,0.342h-0.019c-0.129,0-0.208-0.084-0.235-0.248c-0.018-0.229-0.026-0.442-0.023-0.641
			l-0.01-0.031h0.011l-0.011-0.008l0.003-0.259l-0.011-0.067h0.011l-0.011-0.011v-0.01l-0.004-0.591l-0.008-0.079h0.01l-0.01-0.011
			l0.002-0.196l-0.011-0.067h0.011l-0.011-0.012l0.003-0.195l-0.01-0.148h0.011l-0.011-0.01v-0.01l-0.012-0.643h0.009l-0.009-0.01
			V97.68l-0.008-0.218l-0.1,0.04l-0.089-0.002c-0.091,0-0.158-0.068-0.206-0.21l0.001-0.048
			C126.083,97.082,126.234,96.966,126.539,96.893z M126.979,97.398v0.156l0.008,0.148h-0.01l0.01,0.011v0.009l0.015,0.633h-0.01
			l0.009,0.01l-0.003,0.188l0.011,0.109l-0.012,0.008v0.012l0.01,0.06l-0.001,0.089h0.011c0.754-0.453,1.133-0.79,1.135-1.006
			c-0.264-0.221-0.598-0.357-1.004-0.414L126.979,97.398z"/>
		<path fill="#00A79D" d="M129.771,97.068h0.049c0.13,0.002,0.203,0.095,0.226,0.279l-0.002,0.166l-0.01,0.012l0.01,0.027
			l0.005,1.657c0.518-0.151,0.907-0.26,1.167-0.315l-0.01-0.01l0.012-1.451c0.003-0.194,0.093-0.293,0.269-0.291
			c0.158,0.035,0.238,0.113,0.236,0.237l-0.015,1.411h0.069c0.179,0.051,0.267,0.141,0.265,0.27
			c-0.001,0.152-0.103,0.234-0.308,0.254h-0.03l-0.011,1.231c-0.002,0.127-0.067,0.212-0.199,0.256h-0.078
			c-0.116-0.003-0.189-0.085-0.225-0.249h0.009l-0.009-0.011l0.008-1.058l0.011-0.008l-0.011-0.012v-0.009l0.012-0.039l-0.01-0.011
			l-1.146,0.316l-0.002,0.207l0.002,0.877l-0.011,0.03l0.011,0.008v0.013c-0.041,0.156-0.119,0.234-0.229,0.234l-0.07-0.002
			c-0.091,0-0.158-0.07-0.206-0.21v-0.021v-1.146c-0.077-0.062-0.116-0.131-0.116-0.207c0.002-0.073,0.039-0.146,0.112-0.206v-0.019
			h0.009l-0.009-0.013v-0.009l0.009-0.01l-0.009-0.01l0.004-0.492l-0.01-0.051h0.01l-0.01-0.011l0.001-0.099l0.011-0.01
			l-0.011-0.011v-0.008l0.001-1.265C129.575,97.146,129.65,97.066,129.771,97.068z"/>
		<path fill="#00A79D" d="M133.049,97.107c0.156,0.028,0.233,0.104,0.233,0.229l-0.001,0.048c0,0.031-0.03,0.102-0.09,0.207
			l-0.004,0.1l-0.008,0.011l0.008,0.01v0.038c-0.002,0.307,0.071,0.555,0.222,0.752c0.073,0.08,0.142,0.126,0.196,0.141l0.107-0.027
			h0.029l0.158,0.05c0.248-0.13,0.438-0.381,0.568-0.755l0.021-0.186v-0.011l0.011-0.009c-0.005-0.04-0.022-0.077-0.058-0.112
			c-0.025-0.038-0.041-0.087-0.051-0.146c0.002-0.131,0.09-0.211,0.26-0.244c0.093,0,0.188,0.064,0.295,0.197
			c0.033,0.099,0.048,0.178,0.048,0.238l-0.002,0.051c-0.005,0.52-0.265,0.98-0.781,1.384c-0.13,0.048-0.196,0.075-0.198,0.085
			l0.045,0.574h-0.011l0.011,0.008l-0.002,0.14l0.012,0.068h-0.012l0.012,0.011l-0.004,0.195l-0.016,0.494h-0.01l0.01,0.008
			c-0.002,0.316-0.093,0.476-0.27,0.474c-0.17-0.034-0.256-0.114-0.256-0.239c0.022-0.181,0.035-0.408,0.037-0.679v-0.081
			c-0.008-0.663-0.03-0.996-0.068-0.996c-0.258-0.078-0.467-0.263-0.626-0.549c-0.122-0.285-0.183-0.595-0.181-0.928v-0.02
			C132.727,97.282,132.848,97.105,133.049,97.107z"/>
		<path fill="#00A79D" d="M139.37,97.771v0.008l0.008-0.008h0.054c0.31,0.002,0.461,0.291,0.455,0.859
			c-0.003,0.438-0.27,1.064-0.801,1.876h0.007c0.673-0.247,1.056-0.371,1.148-0.371c0.103,0.003,0.166,0.076,0.188,0.224
			c-0.002,0.131-0.104,0.211-0.307,0.242c-0.813,0.264-1.32,0.451-1.525,0.563l-0.062,0.007c-0.11,0-0.172-0.075-0.188-0.229v-0.008
			c0.002-0.08,0.06-0.186,0.174-0.312c0.646-0.913,0.974-1.595,0.978-2.046c0.002-0.248-0.037-0.373-0.118-0.373
			c-0.146-0.002-0.432,0.181-0.852,0.551c-0.072,0.129-0.137,0.194-0.192,0.191h-0.046c-0.116-0.029-0.176-0.094-0.174-0.196v-0.032
			c0.002-0.173,0.279-0.438,0.831-0.797C139.125,97.818,139.266,97.771,139.37,97.771z"/>
		<path fill="#00A79D" d="M142.743,97.607c0.171,0.002,0.272,0.067,0.312,0.197v0.049c-0.002,0.115-0.078,0.184-0.23,0.201
			c0.25,0.23,0.404,0.44,0.469,0.631c0.059,0.198,0.09,0.348,0.089,0.44h-0.01l0.01,0.009v0.034
			c-0.007,0.69-0.239,1.288-0.692,1.792c-0.182,0.164-0.375,0.244-0.586,0.241c-0.461-0.004-0.769-0.276-0.924-0.82
			c-0.043-0.168-0.063-0.36-0.063-0.584v-0.042c0.007-0.613,0.238-1.15,0.699-1.607v-0.051c0.002-0.097,0.08-0.172,0.23-0.234
			c0.094,0.002,0.194-0.043,0.299-0.125C142.514,97.648,142.646,97.607,142.743,97.607z M142.297,98.288
			c-0.494,0.41-0.744,0.886-0.748,1.43l-0.001,0.13c-0.005,0.467,0.123,0.769,0.382,0.898c0.061,0.018,0.109,0.025,0.15,0.027h0.009
			c0.251,0.002,0.483-0.252,0.7-0.767c0.104-0.262,0.156-0.522,0.159-0.782v-0.076c0.002-0.277-0.125-0.523-0.382-0.739
			C142.453,98.328,142.363,98.288,142.297,98.288z"/>
		<path fill="#00A79D" d="M144.427,97.664h0.05c0.131,0.003,0.193,0.113,0.19,0.332h-0.008l0.008,0.009l-0.002,0.245l0.008,0.094
			l-0.009,0.008l0.009,0.061l-0.001,0.102l0.008,0.204l-0.082,1.554h-0.009l0.009,0.009l-0.009,0.086l-0.002,0.126l-0.009,0.008
			l0.009,0.01l-0.003,0.305l0.016,0.094v0.033c-0.021,0.189-0.102,0.285-0.238,0.283c-0.116,0-0.188-0.08-0.211-0.236l0.007-0.609
			l0.01-0.008l-0.01-0.01l0.01-0.041l0.001-0.117l0.008-0.01l-0.008-0.01l0.01-0.084v-0.101l0.008-0.011l-0.008-0.008l0.008-0.043
			l0.013-0.295h0.009l-0.009-0.009l0.03-0.541h0.008l-0.008-0.01l0.02-0.347l-0.007-0.902
			C144.277,97.719,144.341,97.664,144.427,97.664z"/>
		<path fill="#00A79D" d="M147.117,97.688h0.025c0.449,0.004,0.672,0.233,0.67,0.685c-0.019,0.119-0.078,0.36-0.185,0.724
			c0.067,0.055,0.101,0.106,0.101,0.162v0.043c-0.035,0.129-0.101,0.192-0.196,0.192h-0.017c-0.209,0.687-0.315,1.223-0.32,1.612
			c-0.055,0.096-0.117,0.143-0.188,0.143h-0.042c-0.108,0-0.174-0.079-0.19-0.232v-0.031l0.008-0.01l-0.008-0.009
			c0.002-0.267,0.084-0.705,0.248-1.315l-0.814,0.342l-0.034,0.006c-0.146-0.025-0.219-0.102-0.218-0.223
			c0.001-0.123,0.134-0.227,0.402-0.309c0.265-0.121,0.535-0.229,0.813-0.322c0.139-0.477,0.209-0.74,0.209-0.793
			c0.001-0.142-0.035-0.213-0.107-0.213c0-0.01-0.033-0.016-0.102-0.018l-0.117-0.003c-0.307-0.002-0.63,0.101-0.968,0.306
			c-0.075,0.082-0.151,0.124-0.229,0.124c-0.135-0.03-0.201-0.098-0.2-0.196l0.001-0.041c0.001-0.158,0.262-0.332,0.781-0.518
			C146.672,97.721,146.896,97.686,147.117,97.688z"/>
	</g>
	<g>
		
			<linearGradient id="SVGID_1_" gradientUnits="userSpaceOnUse" x1="8.0718" y1="-185.9873" x2="32.5258" y2="-185.9873" gradientTransform="matrix(0.7134 -0.7007 -0.7007 -0.7134 -4.5769 -73.5788)">
			<stop  offset="0" style="stop-color:#561211"/>
			<stop  offset="1" style="stop-color:#EB2626"/>
		</linearGradient>
		<path fill="url(#SVGID_1_)" d="M133.705,57.183c0.033,0.09,0.068,0.186,0.102,0.277c0.004-0.014,0.006-0.03,0.006-0.045
			C133.813,57.336,133.773,57.257,133.705,57.183 M130.943,56.456c0.143,0.557,0.285,1.205,0.414,1.926
			c1.18-0.171,2.026-0.425,2.33-0.722c0.047-0.046,0.08-0.094,0.101-0.141c-0.661-0.327-1.353-0.607-2.063-0.836
			C131.468,56.601,131.206,56.524,130.943,56.456 M121.313,57.098c-0.057,0.065-0.086,0.133-0.088,0.203
			c-0.002,0.374,0.822,0.718,2.135,0.959c0.146-0.73,0.306-1.383,0.461-1.939l-0.447,0.098c-0.213,0.053-0.426,0.108-0.637,0.174
			C122.249,56.736,121.773,56.907,121.313,57.098"/>
		
			<linearGradient id="SVGID_2_" gradientUnits="userSpaceOnUse" x1="-456.915" y1="16.5088" x2="-456.0275" y2="16.5088" gradientTransform="matrix(0.1979 -22.0624 22.0624 0.1979 -146.6025 -10008.498)">
			<stop  offset="0" style="stop-color:#F48020"/>
			<stop  offset="0.4784" style="stop-color:#EFB226"/>
			<stop  offset="1" style="stop-color:#ECE73B"/>
		</linearGradient>
		<path fill="url(#SVGID_2_)" d="M123.82,56.321c-0.156,0.557-0.316,1.21-0.463,1.939c-0.539,2.718-0.85,6.523,0.205,10.538
			l0.328-3.697c0,0-0.096,5.572,1.881,12.776l-0.158-5.214c0,0,1.521,9.889,1.516,10.658c0.008-0.771,1.705-10.631,1.705-10.631
			l-0.251,5.213c2.106-7.166,2.11-12.74,2.11-12.74l0.263,3.701c1.12-3.973,0.886-7.76,0.401-10.483
			c-0.129-0.721-0.271-1.369-0.414-1.926c-0.449-0.116-0.906-0.213-1.369-0.291c-0.032,0.147-0.064,0.297-0.1,0.441
			c-0.035,0.153-0.07,0.303-0.106,0.453c0.403,1.484,0.915,4.328,0.062,7.358l-0.148-2.135c0,0-0.002,3.213-1.217,7.347l0.145-3.007
			c0,0-0.98,5.688-0.984,6.132c0.004-0.444-0.871-6.147-0.871-6.147l0.09,3.008c-1.141-4.154-1.086-7.367-1.086-7.367l-0.189,2.132
			c-1.047-3.997,0.248-7.63,0.514-8.307c0.002-0.018,0.004-0.034,0.006-0.051c-0.332,0.032-0.656,0.071-0.981,0.122
			c-0.11,0.018-0.222,0.035-0.333,0.058L123.82,56.321"/>
		
			<linearGradient id="SVGID_3_" gradientUnits="userSpaceOnUse" x1="-459.5596" y1="21.8511" x2="-458.6722" y2="21.8511" gradientTransform="matrix(0.1495 -16.6686 16.6686 0.1495 -168.2432 -7599.0581)">
			<stop  offset="0" style="stop-color:#F48020"/>
			<stop  offset="0.4784" style="stop-color:#EFB226"/>
			<stop  offset="1" style="stop-color:#ECE73B"/>
		</linearGradient>
		<path fill="url(#SVGID_3_)" d="M125.68,56.074c-0.266,0.677-1.561,4.31-0.514,8.307l0.189-2.132c0,0-0.055,3.212,1.086,7.367
			l-0.09-3.007c0,0,0.875,5.701,0.871,6.146c0.004-0.445,0.984-6.132,0.984-6.132l-0.145,3.007c1.215-4.134,1.217-7.347,1.217-7.347
			l0.148,2.135c0.854-3.03,0.344-5.875-0.062-7.358c-0.079,0.343-0.159,0.675-0.235,0.997c-0.002,0.008-0.004,0.013-0.005,0.021
			c0.542,2.154,0.202,4.032,0.202,4.032c0.029-1.419-0.114-2.689-0.291-3.681c-0.081,0.324-0.159,0.634-0.23,0.927
			c-0.101,0.401-0.209,0.771-0.297,1.099c-0.087,0.327-0.168,0.61-0.24,0.847c-0.006,0.021-0.013,0.042-0.019,0.063
			c-0.104,0.479-0.231,0.992-0.39,1.53l0.039-0.857l-0.144-0.001c-0.194,1.164-0.466,2.79-0.468,2.981
			c0.003-0.305-0.594-4.179-0.594-4.179l0.063,2.046c-0.775-2.825-0.738-5.009-0.738-5.009l-0.129,1.449
			c-0.093-0.356-0.16-0.708-0.203-1.052c-0.207,1.003-0.385,2.319-0.381,3.802c0,0-0.328-2.016,0.334-4.25
			C125.6,57.2,125.621,56.605,125.68,56.074"/>
		
			<linearGradient id="SVGID_4_" gradientUnits="userSpaceOnUse" x1="-407.4834" y1="97.377" x2="-406.5966" y2="97.377" gradientTransform="matrix(-0.2221 3.8188 3.8188 0.2221 -336.7805 1591.7487)">
			<stop  offset="0" style="stop-color:#F48020"/>
			<stop  offset="0.4784" style="stop-color:#EFB226"/>
			<stop  offset="1" style="stop-color:#ECE73B"/>
		</linearGradient>
		<path fill="url(#SVGID_4_)" d="M125.645,57.826c-0.662,2.234-0.334,4.25-0.334,4.25c-0.004-1.482,0.174-2.799,0.381-3.802
			C125.672,58.123,125.656,57.975,125.645,57.826"/>
		
			<linearGradient id="SVGID_5_" gradientUnits="userSpaceOnUse" x1="-398.1387" y1="-92.8262" x2="-397.2515" y2="-92.8262" gradientTransform="matrix(0.1536 3.8227 -3.8227 0.1536 -164.5403 1593.5233)">
			<stop  offset="0" style="stop-color:#F48020"/>
			<stop  offset="0.4784" style="stop-color:#EFB226"/>
			<stop  offset="1" style="stop-color:#ECE73B"/>
		</linearGradient>
		<path fill="url(#SVGID_5_)" d="M129.128,58.078c-0.03,0.12-0.062,0.236-0.089,0.353c0.177,0.99,0.32,2.261,0.291,3.681
			C129.33,62.11,129.67,60.231,129.128,58.078"/>
		
			<linearGradient id="SVGID_6_" gradientUnits="userSpaceOnUse" x1="-0.9116" y1="-187.5205" x2="5.3542" y2="-187.5205" gradientTransform="matrix(0.7134 -0.7007 -0.7007 -0.7134 -4.5769 -73.5788)">
			<stop  offset="0" style="stop-color:#ECE73B"/>
			<stop  offset="0.4804" style="stop-color:#EEED89"/>
			<stop  offset="1" style="stop-color:#F2F5D2"/>
		</linearGradient>
		<path fill="url(#SVGID_6_)" d="M128.253,61.364c-0.132,0.431-0.208,0.675-0.208,0.675l-0.143-0.001l-0.039,0.857
			C128.021,62.356,128.148,61.843,128.253,61.364 M125.686,56.023c-0.002,0.017-0.004,0.033-0.006,0.051
			c-0.059,0.531-0.08,1.125-0.035,1.751c0.013,0.148,0.027,0.297,0.047,0.448c0.043,0.343,0.11,0.695,0.203,1.052l0.129-1.449
			c0,0-0.037,2.185,0.738,5.009l-0.063-2.046c0,0,0.597,3.875,0.594,4.179c0.002-0.191,0.271-1.817,0.469-2.981l-0.277-0.003
			c0,0-0.077-0.27-0.213-0.74c-0.067-0.236-0.145-0.523-0.226-0.851c-0.081-0.33-0.185-0.7-0.274-1.104
			c-0.095-0.405-0.196-0.842-0.306-1.305c-0.101-0.463-0.206-0.95-0.317-1.457c-0.037-0.191-0.078-0.385-0.115-0.58
			C125.916,56.005,125.8,56.016,125.686,56.023"/>
		
			<linearGradient id="SVGID_7_" gradientUnits="userSpaceOnUse" x1="-391.6997" y1="19.6543" x2="-390.8127" y2="19.6543" gradientTransform="matrix(4.6763 4.7609 4.7609 -4.6763 1874.387 2008.363)">
			<stop  offset="0" style="stop-color:#561211"/>
			<stop  offset="1" style="stop-color:#EB2626"/>
		</linearGradient>
		<path fill="url(#SVGID_7_)" d="M131.68,56.178c2.6,0.168,5.985,6.487,5.985,6.487c3.013-6.432,2.854-11.413,1.813-14.915
			c-1.209-4.073-3.615-6.135-3.615-6.135l-3.389,11.792L131.68,56.178z"/>
		
			<linearGradient id="SVGID_8_" gradientUnits="userSpaceOnUse" x1="-511.7012" y1="-30.7393" x2="-510.8141" y2="-30.7393" gradientTransform="matrix(-5.7846 -0.0519 0.0519 -5.7846 -2818.9517 -153.9985)">
			<stop  offset="0" style="stop-color:#561211"/>
			<stop  offset="1" style="stop-color:#EB2626"/>
		</linearGradient>
		<path fill="url(#SVGID_8_)" d="M132.477,53.407c2.277,1.346,4.691,5.674,4.691,5.674c2.221-4.563,2.665-8.342,2.311-11.33
			c-1.209-4.074-3.617-6.135-3.617-6.135L132.477,53.407z"/>
		
			<linearGradient id="SVGID_9_" gradientUnits="userSpaceOnUse" x1="-421.5864" y1="13.3682" x2="-420.6995" y2="13.3682" gradientTransform="matrix(13.3104 0.1194 -0.1194 13.3104 5735.3833 -78.3648)">
			<stop  offset="0" style="stop-color:#561211"/>
			<stop  offset="1" style="stop-color:#EB2626"/>
		</linearGradient>
		<path fill="url(#SVGID_9_)" d="M135.766,41.616c0,0,6.127,5.253,1.327,15.499c0,0-2.491-4.652-4.407-4.777L135.766,41.616z"/>
		
			<linearGradient id="SVGID_10_" gradientUnits="userSpaceOnUse" x1="-468.8872" y1="-57.5293" x2="-468.0004" y2="-57.5293" gradientTransform="matrix(-4.7611 4.6764 -4.6764 -4.7611 -2382.5996 1970.2834)">
			<stop  offset="0" style="stop-color:#561211"/>
			<stop  offset="1" style="stop-color:#EB2626"/>
		</linearGradient>
		<path fill="url(#SVGID_10_)" d="M123.371,56.104c-2.602,0.122-6.102,6.379-6.102,6.379c-2.896-6.483-2.649-11.463-1.545-14.943
			c1.282-4.05,3.726-6.07,3.726-6.07l3.177,11.852L123.371,56.104z"/>
		
			<linearGradient id="SVGID_11_" gradientUnits="userSpaceOnUse" x1="-403.1733" y1="22.2773" x2="-402.2861" y2="22.2773" gradientTransform="matrix(7.9811 0.0716 -0.0716 7.9811 3334.9441 -98.771)">
			<stop  offset="0" style="stop-color:#F6A8AC"/>
			<stop  offset="0.7773" style="stop-color:#EF4C3C"/>
			<stop  offset="1" style="stop-color:#EB2626"/>
		</linearGradient>
		<path fill="url(#SVGID_11_)" d="M122.627,53.319c-2.304,1.303-4.794,5.588-4.794,5.588c-2.142-4.6-2.519-8.389-2.108-11.368
			c1.282-4.053,3.727-6.07,3.727-6.07L122.627,53.319z"/>
		
			<linearGradient id="SVGID_12_" gradientUnits="userSpaceOnUse" x1="-419.5107" y1="14.3794" x2="-418.6237" y2="14.3794" gradientTransform="matrix(12.3737 0.111 -0.111 12.3737 5314.8506 -82.1198)">
			<stop  offset="0" style="stop-color:#561211"/>
			<stop  offset="1" style="stop-color:#EB2626"/>
		</linearGradient>
		<path fill="url(#SVGID_12_)" d="M119.546,41.47c0,0-6.22,5.143-1.604,15.474c0,0,2.578-4.607,4.494-4.697L119.546,41.47z"/>
		
			<linearGradient id="SVGID_13_" gradientUnits="userSpaceOnUse" x1="11.3672" y1="-169.8477" x2="30.4241" y2="-169.8477" gradientTransform="matrix(0.7134 -0.7007 -0.7007 -0.7134 -4.5769 -73.5788)">
			<stop  offset="0" style="stop-color:#561211"/>
			<stop  offset="1" style="stop-color:#EB2626"/>
		</linearGradient>
		<path fill="url(#SVGID_13_)" d="M130.014,54.587c-0.002,0-0.002,0-0.002,0c0.588,0.113,1.164,0.262,1.729,0.441
			c0.126,0.042,0.253,0.084,0.38,0.129l0,0c-0.126-0.045-0.254-0.087-0.382-0.129C131.176,54.848,130.602,54.7,130.014,54.587
			 M122.871,54.901L122.871,54.901c0.171-0.047,0.343-0.094,0.516-0.138l0.908-0.197c-0.002,0-0.002,0-0.002,0l-0.906,0.195
			C123.214,54.808,123.042,54.854,122.871,54.901 M127.016,10.295c-2.388,2.345-8.55,9.63-8.664,22.459
			c-0.088,9.904,2.363,17.324,4.23,21.517c0.12-0.229,0.241-0.454,0.361-0.672c0.152-0.271,0.306-0.537,0.459-0.792
			c-1.629-3.506-4.276-10.771-4.188-20.855c0.111-12.33,6.016-19.061,7.811-20.824c0.322-0.317,0.513-0.474,0.513-0.474
			s8.073,6.896,7.944,21.442c-0.002,0.021-0.002,0.044-0.002,0.066c0,0.016,0,0.033,0,0.051c-0.008,0.932-0.043,1.836-0.097,2.714
			c-0.479,7.961-2.582,13.861-4.108,17.187c-0.008,0.017-0.016,0.031-0.021,0.047c0.037,0.058,0.073,0.115,0.109,0.176
			c0.377,0.619,0.758,1.301,1.129,2.044c1.943-4.155,4.54-11.538,4.629-21.457c0.143-15.916-9.18-23.469-9.18-23.469
			S127.59,9.729,127.016,10.295"/>
		
			<linearGradient id="SVGID_14_" gradientUnits="userSpaceOnUse" x1="8.6035" y1="-169.2056" x2="18.5506" y2="-169.2056" gradientTransform="matrix(0.7134 -0.7007 -0.7007 -0.7134 -4.5769 -73.5788)">
			<stop  offset="0" style="stop-color:#561211"/>
			<stop  offset="1" style="stop-color:#EB2626"/>
		</linearGradient>
		<path fill="url(#SVGID_14_)" d="M129.895,54.563C129.895,54.563,129.895,54.564,129.895,54.563
			c0.039,0.008,0.078,0.016,0.117,0.022c0,0,0,0,0.002,0C129.973,54.579,129.934,54.57,129.895,54.563 M124.293,54.567
			c0,0,0,0,0.002,0l0.09-0.021c0.11-0.02,0.223-0.038,0.332-0.054c0.34-0.054,0.68-0.096,1.024-0.126l0,0
			c-0.345,0.03-0.685,0.071-1.021,0.125c-0.113,0.017-0.224,0.035-0.334,0.055L124.293,54.567 M135.385,34.926
			c-0.521,8.332-2.969,14.194-4.346,16.891c0.07,0.112,0.146,0.227,0.216,0.343c0.007-0.017,0.015-0.03,0.021-0.047
			C132.803,48.787,134.904,42.887,135.385,34.926 M127.025,11.125c-1.795,1.764-7.698,8.495-7.811,20.824
			c-0.09,10.084,2.559,17.35,4.188,20.855c0.328-0.543,0.656-1.045,0.976-1.5c-1.498-3.216-3.95-9.917-3.866-19.228
			c0.102-11.35,5.534-17.541,7.188-19.165c0.296-0.292,0.47-0.438,0.47-0.438s7.413,6.333,7.313,19.685c0-0.022,0-0.045,0-0.066
			c0.131-14.545-7.943-21.442-7.943-21.442S127.348,10.808,127.025,11.125"/>
		
			<linearGradient id="SVGID_15_" gradientUnits="userSpaceOnUse" x1="5.0034" y1="-169.4502" x2="30.2834" y2="-169.4502" gradientTransform="matrix(0.7134 -0.7007 -0.7007 -0.7134 -4.5769 -73.5788)">
			<stop  offset="0" style="stop-color:#561211"/>
			<stop  offset="1" style="stop-color:#EB2626"/>
		</linearGradient>
		<path fill="url(#SVGID_15_)" d="M130.802,36.876c-0.714,0.702-1.694,1.132-2.776,1.122c-1.541-0.015-2.865-0.919-3.492-2.222
			c-0.251-0.523-0.393-1.111-0.387-1.734c0.011-1.082,0.457-2.06,1.174-2.761c0.716-0.702,1.695-1.132,2.775-1.122
			c1.413,0.012,2.645,0.771,3.322,1.898c0.359,0.6,0.564,1.302,0.561,2.053C131.967,35.195,131.52,36.172,130.802,36.876
			 M127.699,12.914c-1.653,1.624-7.086,7.815-7.188,19.165c-0.085,9.311,2.368,16.011,3.866,19.228
			c0.194-0.277,0.386-0.539,0.572-0.784c-0.007-0.092-0.015-0.183-0.015-0.272c-0.006-0.249,0.015-0.495,0.051-0.735
			c-0.072-0.149-0.15-0.321-0.229-0.509c-0.174-0.45-0.428-0.987-0.635-1.627c-0.202-0.642-0.49-1.354-0.682-2.162
			c-0.106-0.402-0.217-0.82-0.332-1.254c-0.055-0.218-0.109-0.438-0.166-0.665c-0.047-0.225-0.088-0.457-0.135-0.69
			c-0.088-0.469-0.179-0.949-0.271-1.441c-0.096-0.493-0.188-0.997-0.232-1.516c-0.105-1.032-0.261-2.102-0.33-3.19
			c-0.033-1.094-0.07-2.202-0.103-3.313l-0.009-0.415c0-0.175,0.01-0.284,0.015-0.431l0.033-0.82l0.034-0.816
			c0.022-0.278,0.049-0.556,0.07-0.831c0.051-0.555,0.092-1.104,0.188-1.635c0.089-0.532,0.146-1.062,0.261-1.574
			c0.113-0.513,0.192-1.023,0.328-1.509c0.137-0.487,0.253-0.966,0.396-1.425c0.152-0.457,0.281-0.904,0.44-1.328
			c0.171-0.42,0.317-0.83,0.488-1.213c0.327-0.769,0.673-1.455,1.011-2.044c0.33-0.592,0.655-1.087,0.939-1.479
			c0.272-0.4,0.529-0.688,0.695-0.885c0.166-0.188,0.262-0.284,0.269-0.29c0.002-0.001,0.002-0.001,0.002-0.001
			s-0.076,0.114-0.203,0.339c-0.127,0.224-0.304,0.557-0.509,0.986c-0.211,0.431-0.437,0.964-0.682,1.577
			c-0.242,0.615-0.479,1.322-0.724,2.095c-0.231,0.776-0.446,1.627-0.655,2.527c-0.191,0.905-0.357,1.868-0.504,2.866
			c-0.14,0.998-0.236,2.042-0.305,3.085c-0.021,0.261-0.04,0.524-0.061,0.788l-0.021,0.818l-0.02,0.821
			c0,0.126-0.009,0.292-0.008,0.393l0.012,0.405c0.018,1.083,0.035,2.166,0.051,3.233c0.066,1.064,0.133,2.112,0.195,3.126
			c0.018,0.51,0.099,1.002,0.146,1.49c0.053,0.486,0.103,0.962,0.153,1.426c0.023,0.234,0.051,0.461,0.076,0.688
			c0.037,0.223,0.069,0.443,0.104,0.659c0.065,0.437,0.129,0.855,0.188,1.262c0.03,0.2,0.061,0.398,0.09,0.593
			c0.037,0.19,0.074,0.377,0.111,0.561c0.067,0.365,0.135,0.712,0.195,1.038c0.118,0.658,0.271,1.217,0.367,1.688
			c0.013,0.051,0.025,0.102,0.037,0.149c0.021-0.088,0.045-0.178,0.07-0.265c0.127-0.461,0.297-0.897,0.488-1.299
			c0.376-0.804,0.855-1.47,1.266-1.938c0.154-0.174,0.291-0.319,0.41-0.435c0.038-0.039,0.076-0.075,0.111-0.107
			c0.134-0.124,0.215-0.19,0.215-0.19l0.563,0.006c0,0,0.084,0.066,0.216,0.195c0.134,0.126,0.309,0.313,0.512,0.549
			c0.401,0.475,0.869,1.149,1.231,1.961c0.16,0.358,0.308,0.744,0.422,1.148c0.06-0.171,0.133-0.384,0.228-0.633
			c0.113-0.349,0.25-0.773,0.406-1.261c0.138-0.492,0.291-1.047,0.459-1.652c0.169-0.605,0.293-1.277,0.468-1.973
			c0.186-0.694,0.279-1.45,0.436-2.216c0.072-0.386,0.144-0.777,0.216-1.173c0.051-0.401,0.103-0.807,0.153-1.214
			c0.055-0.407,0.107-0.817,0.162-1.23c0.06-0.412,0.114-0.825,0.131-1.243c0.063-0.833,0.129-1.667,0.188-2.486
			c0.016-0.2,0.029-0.397,0.045-0.597c0.003-0.205,0.004-0.41,0.006-0.613c0.004-0.406,0.008-0.807,0.014-1.201
			c0.006-0.396,0.01-0.782,0.016-1.162c-0.01-0.376-0.046-0.737-0.064-1.095c-0.022-0.355-0.045-0.702-0.066-1.038
			s-0.021-0.662-0.081-0.972c-0.093-0.618-0.164-1.189-0.228-1.698c-0.027-0.255-0.063-0.49-0.117-0.705
			c-0.047-0.218-0.09-0.416-0.127-0.595c-0.152-0.72-0.229-1.138-0.229-1.138s0.146,0.394,0.382,1.096
			c0.059,0.176,0.122,0.371,0.193,0.582c0.078,0.213,0.143,0.444,0.195,0.696c0.121,0.5,0.259,1.066,0.395,1.691
			c0.139,0.623,0.193,1.316,0.29,2.045c0.043,0.363,0.099,0.739,0.13,1.122c0.012,0.381,0.021,0.77,0.031,1.162
			c0.01,0.397,0.02,0.797,0.029,1.204c0.004,0.202,0.009,0.407,0.015,0.611c-0.011,0.242-0.024,0.424-0.039,0.64
			c-0.054,0.834-0.108,1.681-0.165,2.527c-0.02,0.424-0.081,0.844-0.145,1.261c-0.062,0.419-0.119,0.837-0.181,1.249
			c-0.063,0.412-0.123,0.823-0.185,1.229c-0.09,0.397-0.176,0.794-0.262,1.183c-0.176,0.776-0.319,1.533-0.549,2.227
			c-0.209,0.698-0.39,1.364-0.611,1.961c-0.219,0.595-0.42,1.141-0.617,1.617c-0.211,0.472-0.395,0.881-0.545,1.22
			c-0.137,0.278-0.26,0.501-0.35,0.67c0.008,0.02,0.014,0.039,0.018,0.059c0.124,0.464,0.201,0.95,0.184,1.455
			c-0.011,0.311-0.064,0.626-0.143,0.946c0.126,0.183,0.252,0.374,0.378,0.569c1.377-2.695,3.825-8.559,4.346-16.891
			c0.054-0.878,0.089-1.782,0.097-2.714c0-0.018,0-0.035,0-0.051c0.102-13.352-7.313-19.685-7.313-19.685
			S127.995,12.622,127.699,12.914"/>
		
			<linearGradient id="SVGID_16_" gradientUnits="userSpaceOnUse" x1="-423.3882" y1="12.6646" x2="-422.501" y2="12.6646" gradientTransform="matrix(14.2559 0.1279 -0.1279 14.2559 6158.1465 -92.3745)">
			<stop  offset="0" style="stop-color:#442221"/>
			<stop  offset="1" style="stop-color:#8F2C2C"/>
		</linearGradient>
		<path fill="url(#SVGID_16_)" d="M125.318,31.282c-0.717,0.701-1.162,1.679-1.172,2.761c-0.006,0.624,0.135,1.211,0.386,1.734
			c0.627,1.303,1.95,2.207,3.493,2.222c1.082,0.01,2.063-0.42,2.775-1.122c0.717-0.704,1.165-1.681,1.176-2.765
			c0.006-0.751-0.199-1.453-0.56-2.053c-0.679-1.129-1.909-1.887-3.321-1.898C127.016,30.149,126.035,30.58,125.318,31.282"/>
		
			<radialGradient id="SVGID_17_" cx="-429.2476" cy="9.751" r="0.8864" gradientTransform="matrix(18.4438 0.1655 -0.1656 18.4641 8045.6348 -76.396)" gradientUnits="userSpaceOnUse">
			<stop  offset="0" style="stop-color:#F6A8AC"/>
			<stop  offset="0.7773" style="stop-color:#EF4C3C"/>
			<stop  offset="1" style="stop-color:#EB2626"/>
		</radialGradient>
		<path fill="url(#SVGID_17_)" d="M127.033,16.448c-0.008,0.006-0.102,0.104-0.268,0.289c-0.166,0.198-0.424,0.485-0.697,0.886
			c-0.283,0.394-0.608,0.888-0.938,1.479c-0.338,0.59-0.683,1.276-1.011,2.044c-0.171,0.383-0.317,0.793-0.488,1.213
			c-0.16,0.424-0.288,0.871-0.441,1.328c-0.143,0.459-0.258,0.938-0.396,1.424c-0.136,0.486-0.215,0.997-0.328,1.51
			c-0.114,0.513-0.172,1.042-0.261,1.573c-0.096,0.531-0.137,1.081-0.188,1.636c-0.022,0.275-0.049,0.553-0.072,0.831l-0.033,0.816
			l-0.033,0.82c-0.005,0.146-0.014,0.255-0.016,0.431l0.01,0.415c0.031,1.111,0.068,2.219,0.102,3.313
			c0.07,1.089,0.226,2.159,0.33,3.19c0.047,0.52,0.139,1.022,0.233,1.516c0.094,0.491,0.185,0.973,0.271,1.441
			c0.047,0.234,0.09,0.466,0.135,0.69c0.058,0.226,0.113,0.446,0.168,0.665c0.115,0.434,0.225,0.852,0.33,1.254
			c0.191,0.808,0.479,1.521,0.683,2.162c0.207,0.641,0.461,1.178,0.635,1.627c0.077,0.188,0.155,0.358,0.228,0.509
			c0.022-0.155,0.053-0.304,0.09-0.452c-0.014-0.049-0.025-0.1-0.038-0.149c-0.097-0.472-0.249-1.031-0.367-1.688
			c-0.062-0.326-0.128-0.673-0.194-1.038c-0.039-0.183-0.074-0.37-0.113-0.561c-0.028-0.194-0.059-0.393-0.088-0.594
			c-0.062-0.405-0.125-0.824-0.189-1.261c-0.035-0.216-0.068-0.438-0.104-0.66c-0.026-0.226-0.053-0.452-0.078-0.687
			c-0.051-0.463-0.1-0.939-0.152-1.426c-0.047-0.487-0.128-0.98-0.145-1.49c-0.063-1.015-0.129-2.063-0.196-3.126
			c-0.017-1.067-0.033-2.15-0.05-3.233l-0.012-0.405c-0.002-0.102,0.006-0.267,0.008-0.393l0.019-0.822l0.021-0.817
			c0.021-0.264,0.041-0.527,0.062-0.788c0.067-1.043,0.165-2.087,0.306-3.085c0.146-0.998,0.313-1.96,0.504-2.866
			c0.209-0.901,0.422-1.75,0.654-2.528c0.243-0.771,0.48-1.479,0.725-2.094c0.244-0.614,0.47-1.146,0.682-1.577
			c0.205-0.431,0.381-0.764,0.508-0.986c0.127-0.225,0.203-0.34,0.203-0.34S127.035,16.446,127.033,16.448"/>
		
			<linearGradient id="SVGID_18_" gradientUnits="userSpaceOnUse" x1="-439.917" y1="-18.249" x2="-439.0302" y2="-18.249" gradientTransform="matrix(-0.1788 19.9284 -19.9284 -0.1788 -309.7722 8788.7461)">
			<stop  offset="0" style="stop-color:#FBDDDF"/>
			<stop  offset="0.0408" style="stop-color:#FBDBDB"/>
			<stop  offset="0.7607" style="stop-color:#F59BA0"/>
			<stop  offset="1" style="stop-color:#F59BA0"/>
		</linearGradient>
		<path fill="url(#SVGID_18_)" d="M132.589,22.795c0,0,0.077,0.418,0.229,1.138c0.037,0.179,0.08,0.376,0.127,0.595
			c0.054,0.215,0.09,0.45,0.117,0.705c0.063,0.509,0.135,1.08,0.228,1.698c0.06,0.31,0.06,0.635,0.081,0.972
			c0.021,0.334,0.044,0.683,0.066,1.038c0.02,0.357,0.056,0.718,0.064,1.095c-0.006,0.38-0.01,0.767-0.016,1.161
			c-0.006,0.396-0.01,0.796-0.014,1.202c-0.002,0.203-0.002,0.408-0.006,0.613c-0.016,0.199-0.029,0.396-0.045,0.597
			c-0.061,0.819-0.125,1.653-0.188,2.486c-0.017,0.418-0.071,0.832-0.131,1.243c-0.055,0.414-0.107,0.824-0.162,1.23
			c-0.051,0.407-0.104,0.813-0.153,1.214c-0.072,0.396-0.144,0.787-0.215,1.173c-0.156,0.766-0.25,1.521-0.437,2.216
			c-0.175,0.695-0.299,1.367-0.468,1.973c-0.168,0.604-0.321,1.16-0.459,1.652c-0.155,0.487-0.293,0.912-0.405,1.261
			c-0.096,0.249-0.168,0.462-0.229,0.633c0.01,0.033,0.02,0.064,0.025,0.099c0.088-0.168,0.211-0.392,0.349-0.67
			c0.149-0.339,0.334-0.748,0.545-1.22c0.198-0.477,0.399-1.022,0.618-1.617c0.222-0.598,0.4-1.263,0.611-1.961
			c0.229-0.693,0.373-1.449,0.547-2.227c0.086-0.389,0.174-0.785,0.263-1.183c0.062-0.405,0.122-0.816,0.185-1.229
			c0.061-0.412,0.119-0.83,0.18-1.249c0.063-0.417,0.125-0.837,0.146-1.261c0.058-0.847,0.112-1.693,0.165-2.527
			c0.014-0.216,0.029-0.397,0.039-0.64c-0.006-0.205-0.012-0.409-0.014-0.611c-0.012-0.407-0.021-0.807-0.03-1.204
			c-0.011-0.393-0.021-0.781-0.031-1.162c-0.03-0.383-0.087-0.759-0.13-1.122c-0.098-0.729-0.15-1.422-0.29-2.045
			c-0.136-0.625-0.272-1.19-0.396-1.691c-0.053-0.252-0.116-0.483-0.194-0.696c-0.071-0.211-0.136-0.405-0.192-0.582
			C132.734,23.188,132.589,22.795,132.589,22.795"/>
		
			<radialGradient id="SVGID_19_" cx="-429.2456" cy="9.751" r="0.8846" gradientTransform="matrix(18.4414 0.1654 -0.1656 18.4617 8044.5762 -76.3801)" gradientUnits="userSpaceOnUse">
			<stop  offset="0" style="stop-color:#F6A8AC"/>
			<stop  offset="0.7773" style="stop-color:#EF4C3C"/>
			<stop  offset="1" style="stop-color:#EB2626"/>
		</radialGradient>
		<path fill="url(#SVGID_19_)" d="M131.66,31.278c-0.818-1.142-2.143-1.888-3.653-1.902c-2.51-0.021-4.567,1.998-4.591,4.515
			c-0.021,2.392,1.814,4.382,4.169,4.575c-0.116,0.008-0.226,0.011-0.337,0.01h-0.047l0.099,0.01
			c-0.116,0.008-0.229,0.011-0.346,0.009c-2.815-0.025-5.081-2.333-5.058-5.153c0.025-2.818,2.332-5.086,5.149-5.06
			c1.952,0.017,3.638,1.132,4.481,2.75l-0.03-0.039C131.555,31.084,131.607,31.18,131.66,31.278z"/>
		
			<linearGradient id="SVGID_20_" gradientUnits="userSpaceOnUse" x1="-395.877" y1="-17.9741" x2="-394.9903" y2="-17.9741" gradientTransform="matrix(5.0811 5.1731 -5.1731 5.0811 2043.9087 2170.6084)">
			<stop  offset="0" style="stop-color:#B5E2EE"/>
			<stop  offset="0.2393" style="stop-color:#B5E2EE"/>
			<stop  offset="1" style="stop-color:#E8F5F7"/>
		</linearGradient>
		<path fill="url(#SVGID_20_)" d="M131.13,33.752c-0.017,1.892-1.562,3.409-3.45,3.392c-1.346-0.012-2.5-0.801-3.049-1.938
			c-0.22-0.458-0.342-0.973-0.336-1.516c0.016-1.888,1.561-3.406,3.447-3.389c1.232,0.01,2.308,0.673,2.9,1.659
			C130.957,32.482,131.137,33.095,131.13,33.752z"/>
		
			<linearGradient id="SVGID_21_" gradientUnits="userSpaceOnUse" x1="-399.1279" y1="24.5957" x2="-398.2407" y2="24.5957" gradientTransform="matrix(7.3107 0.0656 -0.0656 7.3107 3044.1675 -119.1202)">
			<stop  offset="0" style="stop-color:#E8F5F7"/>
			<stop  offset="0.7607" style="stop-color:#B5E2EE"/>
			<stop  offset="1" style="stop-color:#B5E2EE"/>
		</linearGradient>
		<path fill="url(#SVGID_21_)" d="M131.13,33.752c-0.017,1.892-1.562,3.409-3.45,3.392c-1.346-0.012-2.5-0.801-3.049-1.938
			c0.266-0.985,1.025-2.457,3.219-2.437c1.123,0.01,2.053-0.307,2.793-0.809C130.957,32.482,131.137,33.095,131.13,33.752z"/>
		
			<linearGradient id="SVGID_22_" gradientUnits="userSpaceOnUse" x1="-384.4336" y1="31.9248" x2="-383.5476" y2="31.9248" gradientTransform="matrix(5.6464 0.0507 -0.0507 5.6464 2297.3657 -129.7205)">
			<stop  offset="0" style="stop-color:#561211"/>
			<stop  offset="1" style="stop-color:#EB2626"/>
		</linearGradient>
		<circle fill="url(#SVGID_22_)" cx="125.82" cy="31.056" r="0.751"/>
		
			<linearGradient id="SVGID_23_" gradientUnits="userSpaceOnUse" x1="-391.6821" y1="19.6743" x2="-390.7951" y2="19.6743" gradientTransform="matrix(4.6749 4.7595 4.7595 -4.6749 1873.0825 2008.4164)">
			<stop  offset="0" style="stop-color:#080808"/>
			<stop  offset="0.9613" style="stop-color:#69605E"/>
			<stop  offset="1" style="stop-color:#6C6461"/>
		</linearGradient>
		<path fill="url(#SVGID_23_)" d="M139.479,47.751c0.357,2.988-0.09,6.768-2.311,11.329c0,0-2.171-3.891-4.337-5.438
			c-0.373,0.838-0.729,1.569-1.05,2.185l-0.102,0.352c2.6,0.169,5.984,6.487,5.984,6.487
			C140.678,56.234,140.52,51.252,139.479,47.751z"/>
		
			<linearGradient id="SVGID_24_" gradientUnits="userSpaceOnUse" x1="-391.7007" y1="19.6338" x2="-390.8133" y2="19.6338" gradientTransform="matrix(4.6764 4.7611 4.7611 -4.6764 1875.2988 2007.6023)">
			<stop  offset="0" style="stop-color:#080808"/>
			<stop  offset="0.9613" style="stop-color:#69605E"/>
			<stop  offset="1" style="stop-color:#6C6461"/>
		</linearGradient>
		<path fill="url(#SVGID_24_)" d="M137.093,57.115c0,0-1.993-3.719-3.782-4.595c-0.162,0.394-0.322,0.768-0.48,1.121
			c2.168,1.548,4.339,5.439,4.339,5.439c2.22-4.562,2.665-8.341,2.31-11.33c-0.89-2.997-2.427-4.903-3.178-5.703l-0.016,0.102
			C137.652,43.721,141.009,48.757,137.093,57.115z"/>
		
			<linearGradient id="SVGID_25_" gradientUnits="userSpaceOnUse" x1="-511.688" y1="-30.7246" x2="-510.801" y2="-30.7246" gradientTransform="matrix(-5.7859 -0.0519 0.0519 -5.7859 -2819.5227 -153.7388)">
			<stop  offset="0" style="stop-color:#080808"/>
			<stop  offset="0.9613" style="stop-color:#69605E"/>
			<stop  offset="1" style="stop-color:#6C6461"/>
		</linearGradient>
		<path fill="url(#SVGID_25_)" d="M137.093,57.115c0,0-1.993-3.719-3.782-4.595c-0.162,0.394-0.322,0.768-0.48,1.121
			c2.168,1.548,4.339,5.439,4.339,5.439c2.22-4.562,2.665-8.341,2.31-11.33c-0.89-2.997-2.427-4.903-3.178-5.703l-0.016,0.102
			C137.652,43.721,141.009,48.757,137.093,57.115z"/>
		
			<linearGradient id="SVGID_26_" gradientUnits="userSpaceOnUse" x1="-391.7031" y1="19.6206" x2="-390.8162" y2="19.6206" gradientTransform="matrix(4.6766 4.7612 4.7612 -4.6766 1875.9041 2007.1758)">
			<stop  offset="0" style="stop-color:#080808"/>
			<stop  offset="0.9613" style="stop-color:#69605E"/>
			<stop  offset="1" style="stop-color:#6C6461"/>
		</linearGradient>
		<path fill="url(#SVGID_26_)" d="M137.093,57.115c3.916-8.357,0.56-13.395-0.809-14.967c-0.752,4.251-1.896,7.743-2.976,10.372
			C135.1,53.396,137.093,57.115,137.093,57.115z"/>
		
			<linearGradient id="SVGID_27_" gradientUnits="userSpaceOnUse" x1="-511.6904" y1="-30.748" x2="-510.8028" y2="-30.748" gradientTransform="matrix(-5.7857 -0.0519 0.0519 -5.7857 -2819.4385 -154.8025)">
			<stop  offset="0" style="stop-color:#080808"/>
			<stop  offset="0.9613" style="stop-color:#69605E"/>
			<stop  offset="1" style="stop-color:#6C6461"/>
		</linearGradient>
		<path fill="url(#SVGID_27_)" d="M137.093,57.115c3.916-8.357,0.56-13.395-0.809-14.967c-0.752,4.251-1.896,7.743-2.976,10.372
			C135.1,53.396,137.093,57.115,137.093,57.115z"/>
		
			<linearGradient id="SVGID_28_" gradientUnits="userSpaceOnUse" x1="-421.5908" y1="13.3643" x2="-420.7042" y2="13.3643" gradientTransform="matrix(13.3132 0.1194 -0.1194 13.3132 5736.6255 -78.0766)">
			<stop  offset="0" style="stop-color:#080808"/>
			<stop  offset="0.9613" style="stop-color:#69605E"/>
			<stop  offset="1" style="stop-color:#6C6461"/>
		</linearGradient>
		<path fill="url(#SVGID_28_)" d="M137.093,57.115c3.916-8.357,0.56-13.395-0.809-14.967c-0.752,4.251-1.896,7.743-2.976,10.372
			C135.1,53.396,137.093,57.115,137.093,57.115z"/>
		
			<linearGradient id="SVGID_29_" gradientUnits="userSpaceOnUse" x1="-468.8916" y1="-57.5332" x2="-468.0048" y2="-57.5332" gradientTransform="matrix(-4.7597 4.675 -4.675 -4.7597 -2381.2798 1970.3153)">
			<stop  offset="0" style="stop-color:#080808"/>
			<stop  offset="0.9613" style="stop-color:#69605E"/>
			<stop  offset="1" style="stop-color:#6C6461"/>
		</linearGradient>
		<path fill="url(#SVGID_29_)" d="M117.834,58.907c-2.143-4.602-2.52-8.389-2.109-11.368c-1.104,3.479-1.35,8.459,1.547,14.942
			c0,0,3.498-6.257,6.101-6.379l-0.097-0.356c-0.309-0.621-0.65-1.355-1.008-2.2C120.074,55.054,117.834,58.907,117.834,58.907z"/>
		
			<linearGradient id="SVGID_30_" gradientUnits="userSpaceOnUse" x1="-468.8867" y1="-57.5527" x2="-467.9995" y2="-57.5527" gradientTransform="matrix(-4.761 4.6763 -4.6763 -4.761 -2383.3843 1969.3326)">
			<stop  offset="0" style="stop-color:#080808"/>
			<stop  offset="0.9613" style="stop-color:#69605E"/>
			<stop  offset="1" style="stop-color:#6C6461"/>
		</linearGradient>
		<path fill="url(#SVGID_30_)" d="M117.834,58.907c0,0,2.24-3.854,4.434-5.362c-0.148-0.356-0.303-0.735-0.457-1.128
			c-1.807,0.843-3.867,4.526-3.867,4.526c-3.771-8.437-0.313-13.412,1.082-14.953l-0.018-0.103c-0.763,0.783-2.338,2.665-3.283,5.65
			C115.314,50.519,115.691,54.307,117.834,58.907z"/>
		
			<linearGradient id="SVGID_31_" gradientUnits="userSpaceOnUse" x1="-403.1699" y1="22.2798" x2="-402.282" y2="22.2798" gradientTransform="matrix(7.9805 0.0716 -0.0716 7.9805 3334.6641 -98.5682)">
			<stop  offset="0" style="stop-color:#7C726E"/>
			<stop  offset="1" style="stop-color:#6C6461"/>
		</linearGradient>
		<path fill="url(#SVGID_31_)" d="M117.834,58.907c0,0,2.24-3.854,4.434-5.362c-0.148-0.356-0.303-0.735-0.457-1.128
			c-1.807,0.843-3.867,4.526-3.867,4.526c-3.771-8.437-0.313-13.412,1.082-14.953l-0.018-0.103c-0.763,0.783-2.338,2.665-3.283,5.65
			C115.314,50.519,115.691,54.307,117.834,58.907z"/>
		
			<linearGradient id="SVGID_32_" gradientUnits="userSpaceOnUse" x1="-468.8867" y1="-57.5684" x2="-467.9995" y2="-57.5684" gradientTransform="matrix(-4.7608 4.6762 -4.6762 -4.7608 -2383.7673 1968.7629)">
			<stop  offset="0" style="stop-color:#080808"/>
			<stop  offset="0.9613" style="stop-color:#69605E"/>
			<stop  offset="1" style="stop-color:#6C6461"/>
		</linearGradient>
		<path fill="url(#SVGID_32_)" d="M117.941,56.942c0,0,2.063-3.685,3.867-4.525c-1.033-2.649-2.111-6.161-2.785-10.428
			C117.63,43.531,114.173,48.506,117.941,56.942z"/>
		
			<linearGradient id="SVGID_33_" gradientUnits="userSpaceOnUse" x1="-403.1689" y1="22.2949" x2="-402.2813" y2="22.2949" gradientTransform="matrix(7.9801 0.0716 -0.0716 7.9801 3334.4839 -99.6166)">
			<stop  offset="0" style="stop-color:#7C726E"/>
			<stop  offset="1" style="stop-color:#6C6461"/>
		</linearGradient>
		<path fill="url(#SVGID_33_)" d="M117.941,56.942c0,0,2.063-3.685,3.867-4.525c-1.033-2.649-2.111-6.161-2.785-10.428
			C117.63,43.531,114.173,48.506,117.941,56.942z"/>
		
			<linearGradient id="SVGID_34_" gradientUnits="userSpaceOnUse" x1="-419.5122" y1="14.374" x2="-418.6243" y2="14.374" gradientTransform="matrix(12.3742 0.111 -0.111 12.3742 5315.0728 -81.8081)">
			<stop  offset="0" style="stop-color:#080808"/>
			<stop  offset="0.9613" style="stop-color:#69605E"/>
			<stop  offset="1" style="stop-color:#6C6461"/>
		</linearGradient>
		<path fill="url(#SVGID_34_)" d="M117.941,56.942c0,0,2.063-3.685,3.867-4.525c-1.033-2.649-2.111-6.161-2.785-10.428
			C117.63,43.531,114.173,48.506,117.941,56.942z"/>
		
			<linearGradient id="SVGID_35_" gradientUnits="userSpaceOnUse" x1="-416.8794" y1="16.0439" x2="-415.9922" y2="16.0439" gradientTransform="matrix(11.3542 0.1019 -0.1019 11.3542 4859.021 -123.5439)">
			<stop  offset="0" style="stop-color:#080808"/>
			<stop  offset="0.9613" style="stop-color:#69605E"/>
			<stop  offset="1" style="stop-color:#6C6461"/>
		</linearGradient>
		<path fill="url(#SVGID_35_)" d="M127.538,10.651c0,0,4.244,3.627,6.528,11.165c0.635,0.341,1.235,0.729,1.807,1.162
			c-2.514-9.136-7.93-13.523-7.93-13.523s-5.478,4.278-8.152,13.345c0.277-0.202,0.566-0.396,0.859-0.578
			C123.032,14.368,127.538,10.651,127.538,10.651z"/>
		
			<linearGradient id="SVGID_36_" gradientUnits="userSpaceOnUse" x1="-416.877" y1="16.0405" x2="-415.9903" y2="16.0405" gradientTransform="matrix(11.3536 0.1019 -0.1019 11.3536 4858.7524 -123.2005)">
			<stop  offset="0" style="stop-color:#080808"/>
			<stop  offset="0.9613" style="stop-color:#69605E"/>
			<stop  offset="1" style="stop-color:#6C6461"/>
		</linearGradient>
		<path fill="url(#SVGID_36_)" d="M127.538,10.651c0,0-4.506,3.717-6.888,11.57c0.576-0.353,1.18-0.667,1.807-0.932
			c2.27-5.974,5.712-8.813,5.712-8.813s3.511,2.999,5.666,9.22c0.078,0.04,0.153,0.079,0.231,0.12
			C131.781,14.281,127.538,10.651,127.538,10.651z"/>
		
			<linearGradient id="SVGID_37_" gradientUnits="userSpaceOnUse" x1="-460.8027" y1="24.1172" x2="-459.9157" y2="24.1172" gradientTransform="matrix(0.1355 -15.1042 15.1042 0.1355 -174.6991 -6916.8042)">
			<stop  offset="0" style="stop-color:#080808"/>
			<stop  offset="0.9613" style="stop-color:#69605E"/>
			<stop  offset="1" style="stop-color:#6C6461"/>
		</linearGradient>
		<path fill="url(#SVGID_37_)" d="M127.538,10.651c0,0-4.506,3.717-6.888,11.57c0.576-0.353,1.18-0.667,1.807-0.932
			c2.27-5.974,5.712-8.813,5.712-8.813s3.511,2.999,5.666,9.22c0.078,0.04,0.153,0.079,0.231,0.12
			C131.781,14.281,127.538,10.651,127.538,10.651z"/>
		
			<linearGradient id="SVGID_38_" gradientUnits="userSpaceOnUse" x1="-416.875" y1="16.0332" x2="-415.9882" y2="16.0332" gradientTransform="matrix(11.353 0.1018 -0.1018 11.353 4858.4453 -122.5659)">
			<stop  offset="0" style="stop-color:#080808"/>
			<stop  offset="0.9613" style="stop-color:#69605E"/>
			<stop  offset="1" style="stop-color:#6C6461"/>
		</linearGradient>
		<path fill="url(#SVGID_38_)" d="M125.131,19.104c0.33-0.592,0.654-1.087,0.938-1.479c0.275-0.4,0.531-0.688,0.697-0.885
			c0.172-0.195,0.271-0.293,0.271-0.293s-0.076,0.115-0.202,0.34c-0.128,0.224-0.305,0.557-0.51,0.986
			c-0.211,0.429-0.436,0.962-0.682,1.575c-0.133,0.341-0.267,0.711-0.4,1.104c0.839-0.157,1.703-0.234,2.586-0.227
			c2.165,0.021,4.203,0.548,6.007,1.47c-2.155-6.221-5.666-9.22-5.666-9.22s-3.442,2.84-5.712,8.813
			c0.605-0.256,1.234-0.471,1.883-0.638C124.6,20.081,124.867,19.563,125.131,19.104z"/>
		
			<linearGradient id="SVGID_39_" gradientUnits="userSpaceOnUse" x1="-460.8022" y1="24.1104" x2="-459.9156" y2="24.1104" gradientTransform="matrix(0.1355 -15.1039 15.1039 0.1355 -173.8046 -6916.666)">
			<stop  offset="0" style="stop-color:#080808"/>
			<stop  offset="0.9613" style="stop-color:#69605E"/>
			<stop  offset="1" style="stop-color:#6C6461"/>
		</linearGradient>
		<path fill="url(#SVGID_39_)" d="M125.131,19.104c0.33-0.592,0.654-1.087,0.938-1.479c0.275-0.4,0.531-0.688,0.697-0.885
			c0.172-0.195,0.271-0.293,0.271-0.293s-0.076,0.115-0.202,0.34c-0.128,0.224-0.305,0.557-0.51,0.986
			c-0.211,0.429-0.436,0.962-0.682,1.575c-0.133,0.341-0.267,0.711-0.4,1.104c0.839-0.157,1.703-0.234,2.586-0.227
			c2.165,0.021,4.203,0.548,6.007,1.47c-2.155-6.221-5.666-9.22-5.666-9.22s-3.442,2.84-5.712,8.813
			c0.605-0.256,1.234-0.471,1.883-0.638C124.6,20.081,124.867,19.563,125.131,19.104z"/>
		
			<linearGradient id="SVGID_40_" gradientUnits="userSpaceOnUse" x1="-423.3872" y1="12.7705" x2="-422.5" y2="12.7705" gradientTransform="matrix(14.2551 0.1279 -0.1279 14.2551 6157.9502 -110.9012)">
			<stop  offset="0" style="stop-color:#080808"/>
			<stop  offset="0.9613" style="stop-color:#69605E"/>
			<stop  offset="1" style="stop-color:#6C6461"/>
		</linearGradient>
		<path fill="url(#SVGID_40_)" d="M125.131,19.104c0.33-0.592,0.654-1.087,0.938-1.479c0.275-0.4,0.531-0.688,0.697-0.885
			c0.172-0.195,0.271-0.293,0.271-0.293s-0.076,0.115-0.202,0.34c-0.128,0.224-0.305,0.557-0.51,0.986
			c-0.211,0.429-0.436,0.962-0.682,1.575c-0.133,0.341-0.267,0.711-0.4,1.104c0.839-0.157,1.703-0.234,2.586-0.227
			c2.165,0.021,4.203,0.548,6.007,1.47c-2.155-6.221-5.666-9.22-5.666-9.22s-3.442,2.84-5.712,8.813
			c0.605-0.256,1.234-0.471,1.883-0.638C124.6,20.081,124.867,19.563,125.131,19.104z"/>
		
			<linearGradient id="SVGID_41_" gradientUnits="userSpaceOnUse" x1="-416.875" y1="16.0176" x2="-415.9877" y2="16.0176" gradientTransform="matrix(11.3525 0.1018 -0.1018 11.3525 4858.2153 -120.8621)">
			<stop  offset="0" style="stop-color:#080808"/>
			<stop  offset="0.9613" style="stop-color:#69605E"/>
			<stop  offset="1" style="stop-color:#6C6461"/>
		</linearGradient>
		<path fill="url(#SVGID_41_)" d="M126.324,17.772c0.205-0.431,0.382-0.764,0.51-0.986c0.126-0.225,0.202-0.34,0.202-0.34
			s-0.099,0.097-0.271,0.293c-0.166,0.197-0.422,0.484-0.697,0.885c-0.283,0.395-0.608,0.888-0.938,1.479
			c-0.264,0.46-0.531,0.979-0.791,1.548c0.297-0.075,0.6-0.144,0.904-0.198c0.133-0.394,0.268-0.764,0.398-1.104
			C125.889,18.735,126.113,18.202,126.324,17.772z"/>
		
			<linearGradient id="SVGID_42_" gradientUnits="userSpaceOnUse" x1="-460.8066" y1="24.1318" x2="-459.9181" y2="24.1318" gradientTransform="matrix(0.1355 -15.1042 15.1042 0.1355 -176.621 -6916.8198)">
			<stop  offset="0" style="stop-color:#080808"/>
			<stop  offset="0.9613" style="stop-color:#69605E"/>
			<stop  offset="1" style="stop-color:#6C6461"/>
		</linearGradient>
		<path fill="url(#SVGID_42_)" d="M126.324,17.772c0.205-0.431,0.382-0.764,0.51-0.986c0.126-0.225,0.202-0.34,0.202-0.34
			s-0.099,0.097-0.271,0.293c-0.166,0.197-0.422,0.484-0.697,0.885c-0.283,0.395-0.608,0.888-0.938,1.479
			c-0.264,0.46-0.531,0.979-0.791,1.548c0.297-0.075,0.6-0.144,0.904-0.198c0.133-0.394,0.268-0.764,0.398-1.104
			C125.889,18.735,126.113,18.202,126.324,17.772z"/>
		
			<linearGradient id="SVGID_43_" gradientUnits="userSpaceOnUse" x1="-423.3872" y1="12.7578" x2="-422.5009" y2="12.7578" gradientTransform="matrix(14.2545 0.1279 -0.1279 14.2545 6157.6816 -109.1984)">
			<stop  offset="0" style="stop-color:#080808"/>
			<stop  offset="0.9613" style="stop-color:#69605E"/>
			<stop  offset="1" style="stop-color:#6C6461"/>
		</linearGradient>
		<path fill="url(#SVGID_43_)" d="M126.324,17.772c0.205-0.431,0.382-0.764,0.51-0.986c0.126-0.225,0.202-0.34,0.202-0.34
			s-0.099,0.097-0.271,0.293c-0.166,0.197-0.422,0.484-0.697,0.885c-0.283,0.395-0.608,0.888-0.938,1.479
			c-0.264,0.46-0.531,0.979-0.791,1.548c0.297-0.075,0.6-0.144,0.904-0.198c0.133-0.394,0.268-0.764,0.398-1.104
			C125.889,18.735,126.113,18.202,126.324,17.772z"/>
		
			<radialGradient id="SVGID_44_" cx="-429.2461" cy="9.748" r="0.8827" gradientTransform="matrix(18.4429 0.1655 -0.1656 18.4632 8045.2285 -76.4004)" gradientUnits="userSpaceOnUse">
			<stop  offset="0" style="stop-color:#7C726E"/>
			<stop  offset="1" style="stop-color:#6C6461"/>
		</radialGradient>
		<path fill="url(#SVGID_44_)" d="M126.324,17.772c0.205-0.431,0.382-0.764,0.51-0.986c0.126-0.225,0.202-0.34,0.202-0.34
			s-0.099,0.097-0.271,0.293c-0.166,0.197-0.422,0.484-0.697,0.885c-0.283,0.395-0.608,0.888-0.938,1.479
			c-0.264,0.46-0.531,0.979-0.791,1.548c0.297-0.075,0.6-0.144,0.904-0.198c0.133-0.394,0.268-0.764,0.398-1.104
			C125.889,18.735,126.113,18.202,126.324,17.772z"/>
		
			<linearGradient id="SVGID_45_" gradientUnits="userSpaceOnUse" x1="11.7871" y1="-185.5898" x2="32.4655" y2="-185.5898" gradientTransform="matrix(0.7134 -0.7007 -0.7007 -0.7134 -4.5769 -73.5788)">
			<stop  offset="0" style="stop-color:#561211"/>
			<stop  offset="1" style="stop-color:#EB2626"/>
		</linearGradient>
		<path fill="url(#SVGID_45_)" d="M129.895,54.564c-0.103,0.542-0.209,1.08-0.319,1.601c0.463,0.077,0.92,0.174,1.368,0.291
			c0.264,0.068,0.524,0.145,0.781,0.227c0.713,0.229,1.402,0.51,2.063,0.836c0.017,0.007,0.03,0.017,0.048,0.022
			c-0.011-0.027-0.02-0.056-0.029-0.083c-0.033-0.092-0.066-0.188-0.102-0.277c-0.217-0.587-0.445-1.146-0.684-1.676
			c-0.297-0.125-0.598-0.242-0.902-0.351c-0.127-0.044-0.254-0.086-0.381-0.128c-0.563-0.18-1.139-0.328-1.729-0.441
			C129.973,54.579,129.934,54.571,129.895,54.564 M122.152,55.132l-0.071,0.152c-0.271,0.571-0.533,1.178-0.782,1.817
			c0.006-0.002,0.01-0.003,0.014-0.004c0.463-0.19,0.938-0.361,1.424-0.505c0.211-0.064,0.424-0.121,0.637-0.174l0.447-0.098
			l0.551-0.118c0.111-0.021,0.222-0.04,0.333-0.058c0.325-0.051,0.649-0.09,0.981-0.122c0.114-0.009,0.23-0.019,0.347-0.026
			c-0.101-0.532-0.199-1.078-0.29-1.631c-0.346,0.031-0.686,0.073-1.024,0.126c-0.11,0.016-0.222,0.034-0.331,0.054l-0.091,0.021
			l-0.907,0.197c-0.174,0.044-0.346,0.09-0.517,0.138c-0.04,0.015-0.079,0.024-0.119,0.036C122.55,55,122.352,55.063,122.152,55.132
			"/>
		
			<linearGradient id="SVGID_46_" gradientUnits="userSpaceOnUse" x1="-1.022" y1="-183.9136" x2="8.7463" y2="-183.9136" gradientTransform="matrix(0.7134 -0.7007 -0.7007 -0.7134 -4.5769 -73.5788)">
			<stop  offset="0" style="stop-color:#561211"/>
			<stop  offset="1" style="stop-color:#EB2626"/>
		</linearGradient>
		<path fill="url(#SVGID_46_)" d="M130.661,51.247c-0.048,0.199-0.104,0.401-0.163,0.605c-0.155,0.528-0.311,1.064-0.404,1.602
			c-0.064,0.37-0.13,0.74-0.199,1.11c0.039,0.007,0.078,0.016,0.119,0.022c0.588,0.113,1.162,0.261,1.725,0.441
			c0.128,0.042,0.256,0.084,0.382,0.129c0.307,0.107,0.606,0.224,0.901,0.349c-0.105-0.243-0.215-0.481-0.326-0.714
			c-0.066-0.141-0.135-0.278-0.201-0.412c-0.371-0.744-0.752-1.425-1.129-2.044c-0.036-0.061-0.072-0.119-0.109-0.176
			c-0.07-0.116-0.145-0.23-0.216-0.343C130.913,51.621,130.787,51.43,130.661,51.247 M124.95,50.521
			c-0.187,0.245-0.378,0.507-0.572,0.784c-0.317,0.455-0.646,0.957-0.976,1.5c-0.153,0.255-0.307,0.521-0.459,0.792
			c-0.12,0.218-0.241,0.442-0.361,0.672c-0.145,0.277-0.289,0.565-0.428,0.861c0.195-0.069,0.396-0.132,0.598-0.193
			c0.04-0.012,0.079-0.021,0.119-0.036c0.171-0.048,0.343-0.095,0.516-0.139l0.906-0.195l0.094-0.021
			c0.11-0.02,0.221-0.039,0.334-0.055c0.338-0.053,0.676-0.095,1.021-0.125c-0.054-0.317-0.104-0.637-0.153-0.954
			c-0.083-0.539-0.229-1.077-0.375-1.608C125.096,51.37,124.988,50.938,124.95,50.521"/>
		
			<linearGradient id="SVGID_47_" gradientUnits="userSpaceOnUse" x1="0.7817" y1="-180.4692" x2="14.3989" y2="-180.4692" gradientTransform="matrix(0.7134 -0.7007 -0.7007 -0.7134 -4.5769 -73.5788)">
			<stop  offset="0" style="stop-color:#0F8075"/>
			<stop  offset="1" style="stop-color:#1D8277"/>
		</linearGradient>
		<path fill="url(#SVGID_47_)" d="M124.986,49.513c-0.036,0.24-0.057,0.486-0.051,0.735c0,0.09,0.008,0.182,0.015,0.272
			c0.11-0.146,0.218-0.285,0.325-0.42c-0.014-0.023-0.026-0.051-0.043-0.079C125.173,49.886,125.084,49.717,124.986,49.513
			 M127.311,45.125c-0.119,0.115-0.256,0.261-0.412,0.435c-0.408,0.467-0.889,1.133-1.265,1.938
			c-0.19,0.401-0.362,0.838-0.489,1.299c-0.024,0.087-0.047,0.176-0.068,0.265c0.096,0.395,0.178,0.708,0.23,0.931
			c0.006,0.018,0.012,0.034,0.018,0.052c0.642-0.801,1.205-1.399,1.611-1.797c0.407-0.403,0.655-0.602,0.655-0.602
			s1.423,1.182,3.07,3.602c0.077-0.32,0.132-0.636,0.144-0.946c0.018-0.505-0.061-0.991-0.185-1.455
			c-0.003-0.021-0.011-0.04-0.017-0.059c-0.016,0.032-0.033,0.063-0.047,0.093c-0.102,0.17-0.154,0.263-0.154,0.263
			s0.039-0.099,0.113-0.282c0.019-0.051,0.039-0.107,0.063-0.172c-0.114-0.405-0.262-0.79-0.421-1.148
			c-0.363-0.812-0.831-1.487-1.232-1.961c-0.202-0.235-0.378-0.424-0.512-0.55c-0.131-0.128-0.215-0.194-0.215-0.194l-0.563-0.006
			c0,0-0.08,0.066-0.215,0.19C127.387,45.051,127.348,45.087,127.311,45.125"/>
		
			<radialGradient id="SVGID_48_" cx="-429.2456" cy="9.7627" r="0.8767" gradientTransform="matrix(18.4438 0.1655 -0.1656 18.4641 8045.6348 -76.396)" gradientUnits="userSpaceOnUse">
			<stop  offset="0" style="stop-color:#1E8F84"/>
			<stop  offset="0.7773" style="stop-color:#1E8679"/>
			<stop  offset="1" style="stop-color:#1D8277"/>
		</radialGradient>
		<path fill="url(#SVGID_48_)" d="M125.075,49.062c-0.037,0.148-0.066,0.297-0.089,0.452c0.098,0.204,0.187,0.373,0.246,0.509
			c0.017,0.028,0.029,0.056,0.043,0.079c0.016-0.018,0.031-0.039,0.048-0.058c-0.005-0.018-0.011-0.034-0.017-0.052
			C125.253,49.77,125.171,49.456,125.075,49.062"/>
		
			<linearGradient id="SVGID_49_" gradientUnits="userSpaceOnUse" x1="107.1025" y1="-184.1318" x2="267.7693" y2="-184.1318" gradientTransform="matrix(0.7134 -0.7007 -0.7007 -0.7134 -4.5769 -73.5788)">
			<stop  offset="0" style="stop-color:#0F8075"/>
			<stop  offset="1" style="stop-color:#1D8277"/>
		</linearGradient>
		<path fill="url(#SVGID_49_)" d="M128.664,54.388c0.13,0.014,0.259,0.028,0.389,0.046c0.282,0.036,0.564,0.079,0.842,0.131v-0.001
			c-0.276-0.052-0.56-0.096-0.842-0.131C128.924,54.416,128.795,54.4,128.664,54.388C128.664,54.387,128.664,54.387,128.664,54.388
			 M125.741,54.367L125.741,54.367c0.339-0.029,0.683-0.049,1.028-0.056l0,0C126.422,54.317,126.08,54.337,125.741,54.367"/>
		
			<linearGradient id="SVGID_50_" gradientUnits="userSpaceOnUse" x1="-423.3877" y1="14.0859" x2="-422.5016" y2="14.0859" gradientTransform="matrix(14.2559 0.1279 -0.1279 14.2559 6158.1465 -92.3745)">
			<stop  offset="0" style="stop-color:#0F8075"/>
			<stop  offset="1" style="stop-color:#1D8277"/>
		</linearGradient>
		<path fill="url(#SVGID_50_)" d="M126.77,54.312L126.77,54.312c0.153-0.003,0.31-0.005,0.463-0.003
			c0.482,0.004,0.961,0.033,1.433,0.08c0-0.001,0-0.001,0.001-0.001c-0.471-0.047-0.95-0.075-1.434-0.079
			C127.076,54.306,126.922,54.308,126.77,54.312"/>
		
			<linearGradient id="SVGID_51_" gradientUnits="userSpaceOnUse" x1="-456.9189" y1="16.5967" x2="-456.0278" y2="16.5967" gradientTransform="matrix(0.1979 -22.0624 22.0624 0.1979 -146.6025 -10008.498)">
			<stop  offset="0" style="stop-color:#1E8B77"/>
			<stop  offset="0.4784" style="stop-color:#1E9077"/>
			<stop  offset="1" style="stop-color:#1D9579"/>
		</linearGradient>
		<path fill="url(#SVGID_51_)" d="M129.064,56.091c0.002,0.003,0.002,0.007,0.002,0.01c0.06,0.16,0.175,0.491,0.302,0.959
			c0.036-0.15,0.071-0.3,0.106-0.453c0.034-0.145,0.066-0.293,0.1-0.441C129.404,56.138,129.236,56.114,129.064,56.091"/>
		
			<linearGradient id="SVGID_52_" gradientUnits="userSpaceOnUse" x1="-2.6484" y1="-187.8838" x2="10.0057" y2="-187.8838" gradientTransform="matrix(0.7134 -0.7007 -0.7007 -0.7134 -4.5769 -73.5788)">
			<stop  offset="0" style="stop-color:#1E8B77"/>
			<stop  offset="0.4784" style="stop-color:#1E9077"/>
			<stop  offset="1" style="stop-color:#1D9579"/>
		</linearGradient>
		<path fill="url(#SVGID_52_)" d="M127.961,60.853c0,0-0.088,0.515-0.201,1.184l0.145,0.001L127.961,60.853 M128.691,57.898
			c0,0-0.002,1.431-0.438,3.464c0.006-0.021,0.013-0.041,0.019-0.062c0.072-0.235,0.153-0.52,0.24-0.847
			c0.088-0.328,0.196-0.697,0.297-1.099c0.071-0.292,0.149-0.603,0.23-0.927c-0.008-0.041-0.016-0.084-0.023-0.127
			c-0.051,0.343-0.121,0.692-0.222,1.048L128.691,57.898 M129.066,56.102c0.049,0.533,0.062,1.127,0.004,1.755
			c0.02,0.074,0.037,0.148,0.058,0.222c0.001-0.008,0.003-0.013,0.005-0.021c0.076-0.322,0.156-0.654,0.235-0.997
			C129.241,56.593,129.126,56.262,129.066,56.102"/>
		
			<linearGradient id="SVGID_53_" gradientUnits="userSpaceOnUse" x1="-398.1387" y1="-92.7959" x2="-397.2514" y2="-92.7959" gradientTransform="matrix(0.1536 3.8227 -3.8227 0.1536 -164.5403 1593.5233)">
			<stop  offset="0" style="stop-color:#1E8B77"/>
			<stop  offset="0.4784" style="stop-color:#1E9077"/>
			<stop  offset="1" style="stop-color:#1D9579"/>
		</linearGradient>
		<path fill="url(#SVGID_53_)" d="M129.07,57.855c-0.016,0.146-0.032,0.296-0.055,0.446c0.008,0.043,0.016,0.087,0.022,0.127
			c0.028-0.115,0.058-0.233,0.089-0.353C129.107,58.004,129.09,57.931,129.07,57.855"/>
		
			<linearGradient id="SVGID_54_" gradientUnits="userSpaceOnUse" x1="-464.0254" y1="31.0449" x2="-463.1384" y2="31.0449" gradientTransform="matrix(0.1053 -11.7386 11.7386 0.1053 -188.0369 -5388.8013)">
			<stop  offset="0" style="stop-color:#1D9579"/>
			<stop  offset="0.4804" style="stop-color:#1E9681"/>
			<stop  offset="1" style="stop-color:#1E9688"/>
		</linearGradient>
		<path fill="url(#SVGID_54_)" d="M126.031,55.998c0.037,0.194,0.078,0.389,0.115,0.58c0.111,0.506,0.217,0.993,0.317,1.457
			c0.108,0.463,0.211,0.899,0.306,1.305c0.09,0.403,0.193,0.774,0.274,1.104c0.081,0.327,0.157,0.614,0.226,0.851
			c0.135,0.471,0.213,0.74,0.213,0.74l0.276,0.003c0.113-0.669,0.201-1.184,0.201-1.184l-0.058,1.185l0.142,0.001
			c0,0,0.076-0.244,0.208-0.675c0.438-2.034,0.438-3.465,0.438-3.465l0.104,1.452c0.1-0.355,0.171-0.705,0.223-1.048
			c0.021-0.15,0.039-0.3,0.055-0.446c0.058-0.627,0.045-1.222-0.004-1.755c0-0.003,0-0.007-0.002-0.01
			c-0.008-0.001-0.017-0.002-0.025-0.003c-0.598-0.078-1.205-0.12-1.822-0.126C126.816,55.959,126.425,55.97,126.031,55.998"/>
		
			<linearGradient id="SVGID_55_" gradientUnits="userSpaceOnUse" x1="-439.8921" y1="-18.1567" x2="-439.0243" y2="-18.1567" gradientTransform="matrix(-0.1788 19.9284 -19.9284 -0.1788 -309.7722 8788.7461)">
			<stop  offset="0" style="stop-color:#1F9489"/>
			<stop  offset="0.0408" style="stop-color:#1F9489"/>
			<stop  offset="0.7607" style="stop-color:#1E8D83"/>
			<stop  offset="1" style="stop-color:#1E8D83"/>
		</linearGradient>
		<path fill="url(#SVGID_55_)" d="M130.578,48.688c-0.021,0.063-0.044,0.121-0.063,0.172c-0.074,0.184-0.113,0.282-0.113,0.282
			s0.054-0.093,0.154-0.263c0.014-0.029,0.031-0.061,0.047-0.093C130.598,48.753,130.588,48.721,130.578,48.688"/>
		
			<linearGradient id="SVGID_56_" gradientUnits="userSpaceOnUse" x1="-472.2583" y1="47.7651" x2="-471.3716" y2="47.7651" gradientTransform="matrix(0.0684 -7.6297 7.6297 0.0684 -204.301 -3553.3872)">
			<stop  offset="0" style="stop-color:#0F8075"/>
			<stop  offset="1" style="stop-color:#1D8277"/>
		</linearGradient>
		<path fill="url(#SVGID_56_)" d="M125.741,54.367c0.091,0.553,0.188,1.099,0.29,1.631c0.394-0.027,0.785-0.039,1.186-0.036
			c0.617,0.006,1.227,0.048,1.822,0.126c0.01,0.001,0.018,0.002,0.025,0.003c0.172,0.021,0.34,0.046,0.51,0.074
			c0.111-0.521,0.218-1.059,0.32-1.601c-0.277-0.052-0.561-0.095-0.843-0.131c-0.13-0.018-0.259-0.033-0.389-0.046
			c-0.472-0.047-0.949-0.076-1.433-0.08c-0.153-0.001-0.31,0-0.463,0.003C126.424,54.317,126.08,54.337,125.741,54.367"/>
		
			<linearGradient id="SVGID_57_" gradientUnits="userSpaceOnUse" x1="-422.1851" y1="13.0117" x2="-421.2986" y2="13.0117" gradientTransform="matrix(13.6157 0.1221 -0.1221 13.6157 5870.5933 -74.5858)">
			<stop  offset="0" style="stop-color:#0F8075"/>
			<stop  offset="1" style="stop-color:#1D8277"/>
		</linearGradient>
		<path fill="url(#SVGID_57_)" d="M126.936,48.247c-0.406,0.397-0.971,0.996-1.611,1.797c-0.018,0.019-0.032,0.04-0.049,0.058
			c-0.106,0.135-0.215,0.274-0.324,0.42c0.037,0.417,0.145,0.85,0.263,1.284c0.146,0.531,0.292,1.069,0.375,1.608
			c0.05,0.316,0.101,0.636,0.153,0.954c0.339-0.029,0.681-0.049,1.027-0.056c0.152-0.003,0.308-0.006,0.463-0.003
			c0.482,0.004,0.963,0.032,1.434,0.079c0.13,0.014,0.259,0.028,0.389,0.046c0.281,0.035,0.563,0.079,0.842,0.131
			c0.068-0.37,0.133-0.74,0.199-1.11c0.094-0.537,0.248-1.073,0.403-1.602c0.06-0.204,0.114-0.405,0.163-0.605
			c-1.646-2.42-3.07-3.602-3.07-3.602S127.343,47.843,126.936,48.247"/>
		<path fill="#006666" d="M128.271,41.885c0,0,0.082,0.069,0.213,0.194c0.136,0.126,0.31,0.313,0.514,0.551
			c0.4,0.474,0.87,1.149,1.23,1.96c0.184,0.405,0.347,0.844,0.465,1.308c0.125,0.463,0.201,0.95,0.185,1.454
			s-0.153,1.025-0.308,1.552c-0.157,0.528-0.312,1.064-0.402,1.602c-0.188,1.074-0.393,2.146-0.618,3.153
			c-0.118,0.504-0.233,0.99-0.345,1.45c-0.116,0.461-0.225,0.897-0.324,1.3c-0.099,0.402-0.21,0.771-0.297,1.098
			s-0.167,0.611-0.238,0.846c-0.146,0.47-0.227,0.738-0.227,0.738l-0.563-0.004c0,0-0.08-0.271-0.215-0.742
			c-0.066-0.235-0.142-0.522-0.226-0.851c-0.081-0.33-0.185-0.7-0.276-1.104c-0.091-0.403-0.193-0.842-0.301-1.305
			c-0.102-0.462-0.208-0.95-0.318-1.456c-0.207-1.011-0.394-2.089-0.56-3.166c-0.086-0.537-0.229-1.076-0.377-1.607
			c-0.146-0.529-0.269-1.053-0.277-1.556c-0.01-0.504,0.078-0.991,0.211-1.451c0.128-0.462,0.296-0.896,0.487-1.299
			c0.375-0.805,0.855-1.471,1.266-1.939c0.209-0.232,0.385-0.415,0.523-0.54c0.132-0.125,0.213-0.191,0.213-0.191L128.271,41.885z"
			/>
		
			<linearGradient id="SVGID_58_" gradientUnits="userSpaceOnUse" x1="-430.458" y1="-37.8174" x2="-429.5709" y2="-37.8174" gradientTransform="matrix(-0.0864 9.6268 -9.6268 -0.0864 -272.5117 4185.4639)">
			<stop  offset="0" style="stop-color:#FBDDDF"/>
			<stop  offset="0.0408" style="stop-color:#FBDBDB"/>
			<stop  offset="0.7607" style="stop-color:#00A79B"/>
			<stop  offset="1" style="stop-color:#00A79B"/>
		</linearGradient>
		<path fill="url(#SVGID_58_)" d="M127.625,56.383c0,0,0.02-0.046,0.061-0.136c0.037-0.09,0.086-0.224,0.158-0.389
			c0.063-0.168,0.135-0.373,0.223-0.608c0.072-0.237,0.158-0.506,0.25-0.799c0.091-0.292,0.16-0.616,0.254-0.953
			c0.101-0.334,0.152-0.7,0.236-1.071c0.037-0.186,0.077-0.374,0.117-0.566c0.028-0.191,0.055-0.387,0.083-0.584
			s0.06-0.396,0.087-0.594c0.032-0.2,0.063-0.398,0.071-0.602c0.035-0.402,0.067-0.805,0.103-1.201l0.022-0.287l0.004-0.297
			c0.003-0.197,0.005-0.392,0.008-0.581c0.001-0.189,0.003-0.378,0.007-0.563c-0.006-0.181-0.024-0.355-0.035-0.527
			c-0.015-0.173-0.026-0.34-0.037-0.501c-0.014-0.163-0.014-0.321-0.045-0.47c-0.053-0.299-0.09-0.574-0.127-0.82
			c-0.015-0.122-0.035-0.237-0.063-0.34c-0.024-0.104-0.048-0.2-0.071-0.286c-0.082-0.35-0.123-0.552-0.123-0.552
			s0.079,0.19,0.209,0.528c0.031,0.085,0.066,0.182,0.104,0.281c0.044,0.103,0.077,0.216,0.108,0.336
			c0.066,0.242,0.142,0.516,0.215,0.818c0.078,0.301,0.107,0.636,0.162,0.988c0.022,0.176,0.054,0.357,0.071,0.542
			c0.005,0.185,0.013,0.372,0.017,0.563c0.008,0.19,0.013,0.383,0.019,0.581l0.009,0.295c-0.005,0.115-0.014,0.206-0.021,0.308
			c-0.029,0.404-0.06,0.813-0.089,1.222c-0.014,0.206-0.047,0.407-0.079,0.608c-0.032,0.205-0.066,0.405-0.099,0.604
			c-0.033,0.2-0.066,0.396-0.1,0.592c-0.049,0.192-0.096,0.384-0.143,0.572c-0.096,0.374-0.176,0.739-0.299,1.075
			c-0.115,0.338-0.215,0.658-0.334,0.946s-0.229,0.554-0.336,0.782c-0.115,0.228-0.217,0.426-0.3,0.591
			c-0.088,0.161-0.166,0.283-0.216,0.367C127.652,56.34,127.625,56.383,127.625,56.383z"/>
	</g>
	<rect x="13.589" y="12.477" fill="#00A79D" width="63.866" height="14.052"/>
	<rect x="13.589" y="30.119" fill="#E94C3B" width="63.866" height="4.433"/>
</g>
</svg>
