<?xml version="1.0" encoding="utf-8"?>
<!-- Generator: Adobe Illustrator 16.0.0, SVG Export Plug-In . SVG Version: 6.00 Build 0)  -->
<!DOCTYPE svg PUBLIC "-//W3C//DTD SVG 1.1//EN" "http://www.w3.org/Graphics/SVG/1.1/DTD/svg11.dtd">
<svg version="1.1" id="Layer_1" xmlns="http://www.w3.org/2000/svg" xmlns:xlink="http://www.w3.org/1999/xlink" x="0px" y="0px"
	 width="224.5px" height="128px" viewBox="6 0 224.5 128" enable-background="new 6 0 224.5 128" xml:space="preserve">
<g>
	<g id="Destop">
		<g>
			<g>
				<g>
					<g>
						
							<linearGradient id="SVGID_1_" gradientUnits="userSpaceOnUse" x1="244.6309" y1="-242.0039" x2="285.4357" y2="-242.0039" gradientTransform="matrix(1 0 0 -1 -156 -117)">
							<stop  offset="0.0061" style="stop-color:#58595B"/>
							<stop  offset="0.2803" style="stop-color:#757679"/>
							<stop  offset="0.5091" style="stop-color:#88898D"/>
							<stop  offset="1" style="stop-color:#58595B"/>
						</linearGradient>
						<path fill="url(#SVGID_1_)" d="M88.879,124.33v-0.08c0,0.014,0,0.025,0,0.039v0.014c0,0.748,0.965,1.455,4.144,1.455
							c6.15,0,12.813,0,15.249,0c0.617,0,0.964,0,0.964,0c2.438,0,9.1,0,15.25,0c3.178,0,4.289-0.287,4.299-1.428h-0.296l0,0H88.879
							L88.879,124.33z"/>
						
							<linearGradient id="SVGID_2_" gradientUnits="userSpaceOnUse" x1="264.5391" y1="-226.8618" x2="264.5391" y2="-244.563" gradientTransform="matrix(1 0 0 -1 -156 -117)">
							<stop  offset="0.0848" style="stop-color:#6D6F73"/>
							<stop  offset="0.127" style="stop-color:#97999C"/>
							<stop  offset="0.1841" style="stop-color:#CCCDCE"/>
							<stop  offset="0.2121" style="stop-color:#E0E1E2"/>
							<stop  offset="0.3152" style="stop-color:#A7A9AC"/>
							<stop  offset="0.3893" style="stop-color:#868789"/>
							<stop  offset="0.4606" style="stop-color:#636363"/>
							<stop  offset="0.5264" style="stop-color:#6E6F6F"/>
							<stop  offset="0.6452" style="stop-color:#8B8D8F"/>
							<stop  offset="0.7394" style="stop-color:#A6AAAD"/>
						</linearGradient>
						<path fill="url(#SVGID_2_)" d="M124.699,120.061c-2.836-2.891-2.943-9.158-2.943-9.158h-12.734h-0.963H95.323
							c0,0-0.106,6.268-2.942,9.158c-2.837,2.889-7.278,5.41,0.428,5.41c6.15,0,12.812,0,15.249,0c0.616,0,0.964,0,0.964,0
							c2.438,0,9.1,0,15.249,0C131.977,125.471,127.535,122.949,124.699,120.061z"/>
						
							<radialGradient id="SVGID_3_" cx="284.0703" cy="-249.457" r="15.3062" gradientTransform="matrix(1 0 0 -1 -156 -117)" gradientUnits="userSpaceOnUse">
							<stop  offset="0" style="stop-color:#FFFFFF"/>
							<stop  offset="1" style="stop-color:#FFFFFF;stop-opacity:0"/>
						</radialGradient>
						<path fill="url(#SVGID_3_)" d="M111.073,125.471c1.573-3.428,6.599-6.459,12.85-7.072c0.287,0.488,0.614,1.004,0.99,1.389
							c2.787,2.838,7.121,5.684-0.033,5.684H111.073L111.073,125.471z"/>
						
							<radialGradient id="SVGID_4_" cx="450.4883" cy="-249.457" r="15.3062" gradientTransform="matrix(-1 0 0 -1 539.9258 -117)" gradientUnits="userSpaceOnUse">
							<stop  offset="0" style="stop-color:#FFFFFF"/>
							<stop  offset="1" style="stop-color:#FFFFFF;stop-opacity:0"/>
						</radialGradient>
						<path fill="url(#SVGID_4_)" d="M106.436,125.471c-1.573-3.428-6.6-6.459-12.852-7.072c-0.286,0.488-0.614,1.004-0.99,1.389
							c-2.786,2.838-7.12,5.684,0.035,5.684H106.436L106.436,125.471z"/>
						
							<linearGradient id="SVGID_5_" gradientUnits="userSpaceOnUse" x1="248.6289" y1="-242.1953" x2="280.4854" y2="-242.1953" gradientTransform="matrix(1 0 0 -1 -156 -117)">
							<stop  offset="0.0061" style="stop-color:#FFFFFF;stop-opacity:0"/>
							<stop  offset="0.5091" style="stop-color:#FFFFFF"/>
							<stop  offset="1" style="stop-color:#FFFFFF;stop-opacity:0"/>
						</linearGradient>
						<path fill="url(#SVGID_5_)" d="M92.629,125.195c2.653-0.045,5.309-0.066,7.964-0.084l7.964-0.023l7.964,0.023l3.982,0.029
							l3.982,0.055l-3.982,0.051l-3.982,0.029l-7.964,0.027l-7.964-0.027C97.938,125.26,95.282,125.238,92.629,125.195z"/>
						
							<linearGradient id="SVGID_6_" gradientUnits="userSpaceOnUse" x1="197.1875" y1="-226.3115" x2="338.1967" y2="-217.0685" gradientTransform="matrix(1 0 0 -1 -156 -117)">
							<stop  offset="0" style="stop-color:#78797D"/>
							<stop  offset="0.3173" style="stop-color:#737478"/>
							<stop  offset="0.4909" style="stop-color:#6D6F73"/>
							<stop  offset="1" style="stop-color:#6D6F73"/>
						</linearGradient>
						<path fill="url(#SVGID_6_)" d="M43.457,106.787c0,2.127,1.903,4.115,4.03,4.115h59.715h2.033h59.715
							c2.127,0,4.201-1.988,4.201-4.115v-7.598H43.457V106.787z"/>
						<path fill="#231F20" d="M168.95,22.344h-59.715h-2.033H47.487c-2.127,0-4.03,1.198-4.03,3.325v73.52h129.695v-73.52
							C173.151,23.542,171.077,22.344,168.95,22.344z M167.152,93.762H48.884V27.201h118.268V93.762z"/>
						
							<linearGradient id="SVGID_7_" gradientUnits="userSpaceOnUse" x1="197.2168" y1="-226.3086" x2="338.1954" y2="-217.0676" gradientTransform="matrix(1 0 0 -1 -156 -117)">
							<stop  offset="0" style="stop-color:#898A8F"/>
							<stop  offset="0.0499" style="stop-color:#909196"/>
							<stop  offset="0.3137" style="stop-color:#B1B2B6"/>
							<stop  offset="0.5663" style="stop-color:#C8CACD"/>
							<stop  offset="0.801" style="stop-color:#D6D8DB"/>
							<stop  offset="1" style="stop-color:#DBDDE0"/>
						</linearGradient>
						<path fill="url(#SVGID_7_)" d="M43.457,106.359c0,2.127,1.903,4.543,4.03,4.543h59.715h2.033h59.715
							c2.127,0,4.201-2.416,4.201-4.543v-7.17H43.457V106.359z"/>
					</g>
				</g>
				<rect x="48.884" y="34.628" fill="#00A79D" width="118.268" height="22.568"/>
				<g>
					<circle fill="#FFFFFF" cx="67.702" cy="45.633" r="6.787"/>
					<circle fill="none" stroke="#FFFFFF" stroke-width="0.2693" cx="67.742" cy="45.701" r="7.959"/>
				</g>
				<g>
					<rect x="87.735" y="39.199" fill="#FFFFFF" width="10.284" height="3.143"/>
					<rect x="99.163" y="39.199" fill="#FFFFFF" width="61.419" height="3.143"/>
				</g>
				<rect x="87.735" y="45.483" fill="#D6F99D" width="72.847" height="1.143"/>
				<rect x="87.735" y="49.769" fill="#D6F99D" width="72.847" height="0.857"/>
				<rect x="70.31" y="59.481" fill="#4D4D4D" width="15.427" height="30.853"/>
				<rect x="52.313" y="59.481" fill="#4D4D4D" width="15.426" height="30.853"/>
				<rect x="90.592" y="61.196" fill="#D34658" width="23.141" height="13.998"/>
				<rect x="115.445" y="61.196" fill="#008B83" width="23.426" height="13.998"/>
				<rect x="140.871" y="61.196" fill="#D34658" width="23.139" height="13.998"/>
				<g>
					<rect x="90.592" y="76.908" fill="#666666" width="23.141" height="1.143"/>
					<rect x="90.592" y="78.908" fill="#999999" width="15.713" height="0.855"/>
					<rect x="90.592" y="80.621" fill="#999999" width="18.855" height="1.143"/>
				</g>
				<g>
					<rect x="115.445" y="78.908" fill="#999999" width="20.283" height="0.855"/>
					<rect x="115.445" y="80.621" fill="#999999" width="15.998" height="1.143"/>
					<rect x="115.445" y="76.908" fill="#666666" width="23.426" height="1.143"/>
				</g>
				<g>
					<rect x="140.871" y="78.908" fill="#999999" width="15.711" height="0.855"/>
					<rect x="140.871" y="80.621" fill="#999999" width="18.568" height="1.143"/>
					<rect x="140.871" y="76.908" fill="#666666" width="23.139" height="1.143"/>
				</g>
				<rect x="90.592" y="83.479" fill="#999999" width="15.427" height="0.57"/>
				<rect x="90.592" y="84.906" fill="#999999" width="22.854" height="0.857"/>
				<rect x="90.592" y="88.049" fill="#999999" width="22.854" height="0.857"/>
				<rect x="90.592" y="89.477" fill="#999999" width="15.427" height="0.857"/>
				<rect x="90.592" y="90.906" fill="#999999" width="22.854" height="0.855"/>
				<rect x="115.445" y="83.479" fill="#999999" width="15.713" height="0.57"/>
				<rect x="115.445" y="84.906" fill="#999999" width="22.854" height="0.857"/>
				<rect x="115.445" y="88.049" fill="#999999" width="22.854" height="0.857"/>
				<rect x="115.445" y="89.477" fill="#999999" width="15.713" height="0.857"/>
				<rect x="115.445" y="90.906" fill="#999999" width="22.854" height="0.855"/>
				<rect x="140.871" y="83.764" fill="#999999" width="15.426" height="0.572"/>
				<rect x="140.871" y="85.479" fill="#999999" width="22.281" height="0.57"/>
				<rect x="140.871" y="88.334" fill="#999999" width="22.281" height="0.857"/>
				<rect x="140.871" y="89.764" fill="#999999" width="15.426" height="0.855"/>
				<rect x="140.871" y="91.191" fill="#999999" width="22.281" height="0.857"/>
				<polygon opacity="0.3" fill="#FFFFFF" enable-background="new    " points="49.386,26.915 167.152,26.915 167.152,93.754 				
					"/>
			</g>
		</g>
	</g>
	<g id="Ipad">
		<g>
			<rect x="13.461" y="68.052" fill="#FFFFFF" width="38.28" height="51.136"/>
			<g>
				<path fill="#231F20" d="M56.622,65.154c0-1.376-1.114-2.492-2.491-2.492h-42.58c-1.376,0-2.492,1.116-2.492,2.492v56.742
					c0,1.377,1.115,2.492,2.492,2.492h42.58c1.375,0,2.491-1.115,2.491-2.492V65.154z M51.727,119.145H13.782V68.083h37.945V119.145
					z"/>
				
					<linearGradient id="SVGID_8_" gradientUnits="userSpaceOnUse" x1="168.1602" y1="-210.3247" x2="212.6885" y2="-210.3247" gradientTransform="matrix(1 0 0 -1 -156 -117)">
					<stop  offset="0" style="stop-color:#FFFFFF;stop-opacity:0"/>
					<stop  offset="1" style="stop-color:#FFFFFF"/>
				</linearGradient>
				<path opacity="0.6" fill="url(#SVGID_8_)" enable-background="new    " d="M40.521,62.481h13.792c0,0,2.643,0.026,2.355,3.524
					l-0.08,55.795c0,0,0.158,2.09-2.546,2.367c-2.786-0.154-41.882,0-41.882,0"/>
			</g>
			<g>
				<rect x="14.032" y="72.051" fill="#00A79D" width="37.709" height="17.998"/>
				<g>
					<ellipse fill="#FFFFFF" cx="21.27" cy="79.95" rx="5.223" ry="5.308"/>
					<path fill="none" stroke="#FFFFFF" stroke-width="0.2089" d="M27.426,80.004c0,3.438-2.744,6.225-6.125,6.225
						c-3.384,0-6.126-2.787-6.126-6.225s2.742-6.225,6.126-6.225C24.683,73.779,27.426,76.566,27.426,80.004z"/>
				</g>
				<g>
					<rect x="30.601" y="76.621" fill="#FFFFFF" width="2.286" height="2"/>
					<rect x="33.458" y="76.621" fill="#FFFFFF" width="13.712" height="2"/>
				</g>
				<polygon fill="#D6F99D" points="30.36,80.906 46.9,80.906 46.9,80.906 				"/>
				<rect x="30.601" y="82.906" fill="#D6F99D" width="16.569" height="0.857"/>
			</g>
			<rect x="15.746" y="92.049" fill="#D34658" width="15.998" height="9.998"/>
			<rect x="15.746" y="110.902" fill="#D34658" width="15.998" height="8.285"/>
			<g>
				<rect x="15.746" y="103.189" fill="#666666" width="15.998" height="1.143"/>
				<rect x="15.746" y="104.902" fill="#999999" width="11.142" height="0.572"/>
				<rect x="15.746" y="106.047" fill="#999999" width="12.569" height="0.57"/>
			</g>
			<rect x="15.746" y="107.76" fill="#999999" width="11.142" height="0.572"/>
			<rect x="15.746" y="108.902" fill="#999999" width="15.712" height="0.285"/>
			<polygon fill="#999999" points="15.85,112.617 26.789,112.617 26.789,112.617 			"/>
			<rect x="33.458" y="92.334" fill="#008B83" width="15.711" height="10.283"/>
			<g>
				<rect x="33.458" y="105.189" fill="#999999" width="13.712" height="0.857"/>
				<rect x="33.458" y="106.332" fill="#999999" width="10.855" height="0.572"/>
				<rect x="33.458" y="104.047" fill="#666666" width="15.711" height="0.57"/>
			</g>
			<rect x="33.458" y="108.332" fill="#999999" width="10.855" height="0.57"/>
			<rect x="33.458" y="109.188" fill="#999999" width="15.426" height="0.287"/>
			<rect x="33.458" y="111.189" fill="#999999" width="15.426" height="1.428"/>
			<polygon fill="#999999" points="33.247,112.902 44.186,112.902 44.186,112.902 			"/>
			<rect x="33.458" y="113.188" fill="#999999" width="15.426" height="0.285"/>
			<g>
				<rect x="33.458" y="117.188" fill="#999999" width="13.712" height="0.57"/>
				<rect x="33.458" y="118.043" fill="#999999" width="10.855" height="1.145"/>
				<rect x="33.458" y="115.473" fill="#666666" width="15.711" height="0.572"/>
			</g>
			<polygon opacity="0.3" fill="#FFFFFF" enable-background="new    " points="51.741,119.164 51.741,68.052 22.59,68.052 			"/>
		</g>
	</g>
	<g id="Laptop">
		<g>
			<g>
				<path d="M213.449,119.967c0,1.393-0.841,2.523-1.878,2.523h-78.112c-1.037,0-1.878-1.131-1.878-2.523V69.854
					c0-1.393,0.841-2.521,1.878-2.521h78.112c1.037,0,1.878,1.129,1.878,2.521V119.967z"/>
				<rect x="134.845" y="70.359" fill="#FFFFFF" width="75.564" height="46.584"/>
				<g>
					<g>
						<path fill="#5F6767" d="M117.638,123.25c0,0-0.682,1.268,4.159,2.326h101.313c0,0,3.39-0.217,4.282-1.814l0.006-0.875
							L117.638,123.25z"/>
						
							<linearGradient id="SVGID_9_" gradientUnits="userSpaceOnUse" x1="273.5908" y1="-239.2705" x2="383.4404" y2="-239.2705" gradientTransform="matrix(1 0 0 -1 -156 -117)">
							<stop  offset="0" style="stop-color:#999C9D"/>
							<stop  offset="9.591131e-004" style="stop-color:#A5A7A9"/>
							<stop  offset="0.0037" style="stop-color:#C2C3C5"/>
							<stop  offset="0.0067" style="stop-color:#D9D8DA"/>
							<stop  offset="0.0099" style="stop-color:#E9E7EA"/>
							<stop  offset="0.0134" style="stop-color:#F2F0F3"/>
							<stop  offset="0.0183" style="stop-color:#F5F3F6"/>
							<stop  offset="0.0488" style="stop-color:#DFE1E3"/>
							<stop  offset="0.189" style="stop-color:#D1D1D1"/>
							<stop  offset="0.5061" style="stop-color:#E3E5E7"/>
							<stop  offset="0.872" style="stop-color:#D1D1D1"/>
							<stop  offset="0.9512" style="stop-color:#DFE1E3"/>
							<stop  offset="0.9878" style="stop-color:#F5F3F6"/>
							<stop  offset="1" style="stop-color:#999C9D"/>
						</linearGradient>
						<path fill="url(#SVGID_9_)" d="M117.661,120.689h109.772v2.818c0,0,0.164,0.377-1.128,0.283h-107.61
							c0,0-1.011,0.283-1.104-0.377L117.661,120.689z"/>
						<path fill="#5F6767" d="M222.334,122.336c0,0.107-0.073,0.197-0.162,0.197h-3.735c-0.09,0-0.162-0.09-0.162-0.197l0,0
							c0-0.111,0.072-0.199,0.162-0.199h3.735C222.261,122.137,222.334,122.225,222.334,122.336L222.334,122.336z"/>
					</g>
					
						<linearGradient id="SVGID_10_" gradientUnits="userSpaceOnUse" x1="328.5176" y1="-239.269" x2="328.5176" y2="-237.7109" gradientTransform="matrix(1 0 0 -1 -156 -117)">
						<stop  offset="0.3415" style="stop-color:#676B6C"/>
						<stop  offset="0.3611" style="stop-color:#707475"/>
						<stop  offset="0.4574" style="stop-color:#989B9C"/>
						<stop  offset="0.5524" style="stop-color:#B7B9BB"/>
						<stop  offset="0.6444" style="stop-color:#CDCFD1"/>
						<stop  offset="0.7321" style="stop-color:#DADDDE"/>
						<stop  offset="0.811" style="stop-color:#DFE1E3"/>
						<stop  offset="0.9817" style="stop-color:#E3E5E7"/>
					</linearGradient>
					<path fill="url(#SVGID_10_)" d="M165.092,120.711c0,0-0.424,1.41,0.986,1.553h12.735c0,0,1.354,0.176,1.174-1.504
						L165.092,120.711z"/>
					<g>
						
							<linearGradient id="SVGID_11_" gradientUnits="userSpaceOnUse" x1="321.3926" y1="-239.1309" x2="321.3926" y2="-237.6758" gradientTransform="matrix(1 0 0 -1 -156 -117)">
							<stop  offset="0.0244" style="stop-color:#5F6767"/>
							<stop  offset="0.4756" style="stop-color:#676B6C"/>
							<stop  offset="0.5137" style="stop-color:#717576"/>
							<stop  offset="0.6192" style="stop-color:#878A8B"/>
							<stop  offset="0.7202" style="stop-color:#949899"/>
							<stop  offset="0.811" style="stop-color:#999C9D"/>
						</linearGradient>
						<path fill="url(#SVGID_11_)" d="M165.162,120.711h0.009l0.005-0.033l-0.155-0.002c0,0-0.383,1.225,0.804,1.455
							C164.81,121.836,165.162,120.711,165.162,120.711z"/>
						
							<linearGradient id="SVGID_12_" gradientUnits="userSpaceOnUse" x1="328.9463" y1="-239.2026" x2="328.9463" y2="-237.7559" gradientTransform="matrix(1 0 0 -1 -156 -117)">
							<stop  offset="0.0244" style="stop-color:#5F6767"/>
							<stop  offset="0.4756" style="stop-color:#676B6C"/>
							<stop  offset="0.5137" style="stop-color:#717576"/>
							<stop  offset="0.6192" style="stop-color:#878A8B"/>
							<stop  offset="0.7202" style="stop-color:#949899"/>
							<stop  offset="0.811" style="stop-color:#999C9D"/>
						</linearGradient>
						<path fill="url(#SVGID_12_)" d="M180.058,120.756h-0.137v0.033c0.1,1.586-1.179,1.371-1.179,1.371h-12.734
							c-0.065-0.008-0.125-0.018-0.184-0.029c0.096,0.029,0.202,0.049,0.324,0.061h12.735
							C178.884,122.193,180.199,122.418,180.058,120.756z"/>
						<g>
							<g>
								
									<linearGradient id="SVGID_13_" gradientUnits="userSpaceOnUse" x1="335.9199" y1="-237.7891" x2="335.9199" y2="-237.7559" gradientTransform="matrix(1 0 0 -1 -156 -117)">
									<stop  offset="0.0244" style="stop-color:#5F6767"/>
									<stop  offset="0.4756" style="stop-color:#676B6C"/>
									<stop  offset="0.5137" style="stop-color:#717576"/>
									<stop  offset="0.6192" style="stop-color:#878A8B"/>
									<stop  offset="0.7202" style="stop-color:#949899"/>
									<stop  offset="0.811" style="stop-color:#999C9D"/>
								</linearGradient>
								<path fill="url(#SVGID_13_)" d="M179.921,120.789v-0.033h-0.001C179.92,120.766,179.92,120.777,179.921,120.789z"/>
							</g>
						</g>
					</g>
				</g>
			</g>
			<g>
				<g>
					<rect x="134.872" y="74.051" fill="#00A79D" width="75.131" height="14.57"/>
				</g>
			</g>
			<g>
				<g>
					<g>
						<circle fill="#FFFFFF" cx="146.79" cy="81.179" r="4.349"/>
					</g>
				</g>
				<g>
					<g>
						<path fill="#FFFFFF" d="M146.816,86.408c-2.86,0-5.188-2.326-5.188-5.186c0-2.86,2.327-5.188,5.188-5.188
							s5.187,2.327,5.187,5.188C152.003,84.082,149.677,86.408,146.816,86.408z M146.816,76.207c-2.766,0-5.016,2.25-5.016,5.016
							c0,2.765,2.25,5.014,5.016,5.014c2.765,0,5.015-2.249,5.015-5.014C151.831,78.457,149.581,76.207,146.816,76.207z"/>
					</g>
				</g>
			</g>
			<g>
				<g>
					<g>
						<rect x="159.439" y="76.908" fill="#FFFFFF" width="6.57" height="2"/>
					</g>
				</g>
				<g>
					<g>
						<rect x="167.152" y="76.908" fill="#FFFFFF" width="39.137" height="2"/>
					</g>
				</g>
			</g>
			<g>
				<g>
					<rect x="159.439" y="81.193" fill="#D6F99D" width="46.85" height="0.285"/>
				</g>
			</g>
			<g>
				<g>
					<rect x="159.439" y="83.764" fill="#D6F99D" width="46.85" height="0.857"/>
				</g>
			</g>
			<g>
				<g>
					<rect x="136.3" y="90.334" fill="#4D4D4D" width="10.284" height="19.426"/>
				</g>
			</g>
			<g>
				<g>
					<rect x="148.298" y="90.334" fill="#4D4D4D" width="9.999" height="19.426"/>
				</g>
			</g>
			<g>
				<g>
					<rect x="161.153" y="90.906" fill="#D34658" width="15.427" height="9.426"/>
				</g>
			</g>
			<g>
				<g>
					<rect x="177.437" y="90.906" fill="#008B83" width="15.141" height="9.426"/>
				</g>
			</g>
			<g>
				<g>
					<rect x="193.435" y="90.906" fill="#D34658" width="14.854" height="9.426"/>
				</g>
			</g>
			<g>
				<g>
					<g>
						<rect x="161.153" y="101.189" fill="#666666" width="15.427" height="0.572"/>
					</g>
				</g>
				<g>
					<g>
						<rect x="161.153" y="102.617" fill="#999999" width="10.57" height="0.572"/>
					</g>
				</g>
				<g>
					<g>
						<rect x="161.153" y="103.475" fill="#999999" width="11.998" height="0.857"/>
					</g>
				</g>
			</g>
			<g>
				<g>
					<g>
						<rect x="177.437" y="102.617" fill="#999999" width="12.855" height="0.572"/>
					</g>
				</g>
				<g>
					<g>
						<rect x="177.437" y="103.475" fill="#999999" width="10.284" height="0.857"/>
					</g>
				</g>
				<g>
					<g>
						<rect x="177.437" y="101.189" fill="#666666" width="15.141" height="0.572"/>
					</g>
				</g>
			</g>
			<g>
				<g>
					<g>
						<rect x="193.435" y="102.617" fill="#999999" width="10.284" height="0.572"/>
					</g>
				</g>
				<g>
					<g>
						<rect x="193.435" y="103.475" fill="#999999" width="11.998" height="0.857"/>
					</g>
				</g>
				<g>
					<g>
						<rect x="193.435" y="101.189" fill="#666666" width="14.854" height="0.572"/>
					</g>
				</g>
			</g>
			<g>
				<g>
					<rect x="161.153" y="105.475" fill="#999999" width="10.57" height="0.285"/>
				</g>
			</g>
			<g>
				<g>
					<rect x="161.153" y="106.332" fill="#999999" width="14.855" height="0.285"/>
				</g>
			</g>
			<g>
				<g>
					<g>
						<rect x="161.153" y="111.189" fill="#666666" width="15.427" height="0.57"/>
					</g>
				</g>
				<g>
					<g>
						<rect x="161.153" y="112.617" fill="#999999" width="10.57" height="0.57"/>
					</g>
				</g>
				<g>
					<g>
						<rect x="161.153" y="113.473" fill="#999999" width="11.998" height="1.145"/>
					</g>
				</g>
			</g>
			<g>
				<g>
					<rect x="161.153" y="115.473" fill="#999999" width="10.57" height="0.287"/>
				</g>
			</g>
			<g>
				<g>
					<rect x="161.153" y="116.33" fill="#999999" width="14.855" height="0.285"/>
				</g>
			</g>
			<g>
				<g>
					<g>
						<rect x="177.437" y="111.189" fill="#666666" width="15.141" height="0.57"/>
					</g>
				</g>
				<g>
					<g>
						<rect x="177.437" y="112.617" fill="#999999" width="10.284" height="0.57"/>
					</g>
				</g>
				<g>
					<g>
						<rect x="177.437" y="113.473" fill="#999999" width="11.713" height="1.145"/>
					</g>
				</g>
			</g>
			<g>
				<g>
					<rect x="177.437" y="115.473" fill="#999999" width="10.284" height="0.287"/>
				</g>
			</g>
			<g>
				<g>
					<rect x="177.437" y="116.33" fill="#999999" width="14.569" height="0.285"/>
				</g>
			</g>
			<g>
				<g>
					<g>
						<rect x="193.435" y="111.189" fill="#666666" width="14.854" height="0.57"/>
					</g>
				</g>
				<g>
					<g>
						<rect x="193.435" y="112.617" fill="#999999" width="10.284" height="0.57"/>
					</g>
				</g>
				<g>
					<g>
						<rect x="193.435" y="113.473" fill="#999999" width="11.712" height="1.145"/>
					</g>
				</g>
			</g>
			<g>
				<g>
					<rect x="193.435" y="115.473" fill="#999999" width="10.284" height="0.287"/>
				</g>
			</g>
			<g>
				<g>
					<rect x="193.435" y="116.33" fill="#999999" width="14.568" height="0.285"/>
				</g>
			</g>
			<g>
				<g>
					<rect x="161.153" y="108.332" fill="#999999" width="14.855" height="0.855"/>
				</g>
			</g>
			<g>
				<g>
					<polygon fill="#999999" points="161.492,109.76 171.72,109.76 171.72,109.76 					"/>
				</g>
			</g>
			<g>
				<g>
					<rect x="161.153" y="110.332" fill="#999999" width="14.855" height="0.285"/>
				</g>
			</g>
			<g>
				<g>
					<rect x="177.437" y="105.475" fill="#999999" width="10.284" height="0.285"/>
				</g>
			</g>
			<g>
				<g>
					<rect x="177.437" y="106.332" fill="#999999" width="14.569" height="0.285"/>
				</g>
			</g>
			<g>
				<g>
					<rect x="177.437" y="108.332" fill="#999999" width="14.569" height="0.855"/>
				</g>
			</g>
			<g>
				<g>
					<rect x="193.435" y="108.332" fill="#999999" width="14.568" height="0.855"/>
				</g>
			</g>
			<g>
				<g>
					<polygon fill="#999999" points="177.4,109.76 187.628,109.76 187.628,109.76 					"/>
				</g>
			</g>
			<g>
				<g>
					<rect x="177.437" y="110.332" fill="#999999" width="14.569" height="0.285"/>
				</g>
			</g>
			<g>
				<g>
					<rect x="193.435" y="105.76" fill="#999999" width="9.998" height="0.572"/>
				</g>
			</g>
			<g>
				<g>
					<rect x="193.435" y="106.617" fill="#999999" width="14.854" height="0.287"/>
				</g>
			</g>
			<g>
				<g>
					<rect x="193.435" y="110.332" fill="#999999" width="14.854" height="0.285"/>
				</g>
			</g>
			<g opacity="0.3" enable-background="new    ">
				<g>
					<polygon fill="#FFFFFF" points="134.443,70.051 210.003,70.051 210.003,113.299 					"/>
				</g>
			</g>
			<g>
				<g>
					<rect x="136.3" y="110.902" fill="#D34658" width="21.997" height="5.713"/>
				</g>
			</g>
		</g>
	</g>
	<g id="iPhone">
		<g>
			<g>
				<g>
					<g>
						<path fill="#231F20" d="M81.249,85.652c0-1.607-1.304-2.912-2.912-2.912H63.72c-1.608,0-2.912,1.305-2.912,2.912v37.436
							c0,1.607,1.303,2.912,2.912,2.912h14.617c1.608,0,2.912-1.305,2.912-2.912V85.652z M73.167,86.559
							c0,0.254-0.206,0.461-0.46,0.461h-3.12c-0.254,0-0.46-0.207-0.46-0.461v-0.029c0-0.254,0.206-0.461,0.46-0.461h3.12
							c0.254,0,0.46,0.207,0.46,0.461V86.559z M79.822,119.818H62.472V88.92h17.351V119.818z"/>
					</g>
				</g>
			</g>
			<g>
				<g>
					<rect x="62.597" y="88.906" fill="#FFFFFF" width="17.14" height="30.852"/>
				</g>
			</g>
			<g>
				<g>
					<g>
						<rect x="62.597" y="91.762" fill="#00A79D" width="17.14" height="11.428"/>
					</g>
				</g>
				<g>
					<g>
						<g>
							<ellipse fill="#FFFFFF" cx="67.674" cy="97.225" rx="3.424" ry="3.514"/>
						</g>
					</g>
					<g>
						<g>
							<path fill="#FFFFFF" d="M67.693,101.449c-2.253,0-4.086-1.878-4.086-4.188c0-2.311,1.833-4.189,4.086-4.189
								s4.086,1.879,4.086,4.189C71.779,99.571,69.946,101.449,67.693,101.449z M67.693,93.209c-2.177,0-3.948,1.818-3.948,4.053
								c0,2.233,1.771,4.051,3.948,4.051c2.178,0,3.949-1.817,3.949-4.051C71.643,95.027,69.871,93.209,67.693,93.209z"/>
						</g>
					</g>
				</g>
			</g>
			<g>
				<g>
					<rect x="63.739" y="104.617" fill="#D34658" width="14.856" height="8.57"/>
				</g>
			</g>
			<g>
				<g>
					<g>
						<rect x="63.739" y="114.33" fill="#666666" width="14.856" height="0.572"/>
					</g>
				</g>
				<g>
					<g>
						<rect x="63.739" y="115.76" fill="#999999" width="10.285" height="0.285"/>
					</g>
				</g>
				<g>
					<g>
						<rect x="63.739" y="116.615" fill="#999999" width="11.427" height="0.857"/>
					</g>
				</g>
			</g>
			<g>
				<g>
					<rect x="63.739" y="118.33" fill="#999999" width="10.285" height="0.285"/>
				</g>
			</g>
			<g>
				<g>
					<polygon fill="#999999" points="63.909,119.188 78.025,119.188 78.025,119.188 					"/>
				</g>
			</g>
			<g>
				<g>
					<g>
						<rect x="72.595" y="95.477" fill="#FFFFFF" width="6" height="0.857"/>
					</g>
				</g>
				<g>
					<g>
						<rect x="72.595" y="96.904" fill="#FFFFFF" width="4" height="0.285"/>
					</g>
				</g>
				<g>
					<g>
						<rect x="72.595" y="98.047" fill="#FFFFFF" width="4.571" height="0.572"/>
					</g>
				</g>
			</g>
			<g opacity="0.3" enable-background="new    ">
				<g>
					<polygon fill="#FFFFFF" points="79.736,119.867 79.736,88.906 62.583,88.906 					"/>
				</g>
			</g>
		</g>
	</g>
</g>
</svg>
