<?xml version="1.0" encoding="utf-8"?>
<!-- Generator: Adobe Illustrator 16.0.0, SVG Export Plug-In . SVG Version: 6.00 Build 0)  -->
<!DOCTYPE svg PUBLIC "-//W3C//DTD SVG 1.1//EN" "http://www.w3.org/Graphics/SVG/1.1/DTD/svg11.dtd">
<svg version="1.1" id="Layer_1" xmlns="http://www.w3.org/2000/svg" xmlns:xlink="http://www.w3.org/1999/xlink" x="0px" y="0px"
	 width="128px" height="128px" viewBox="0 0 128 128" enable-background="new 0 0 128 128" xml:space="preserve">
<g>
	<g>
		<rect x="55.296" y="60.697" fill="#666666" width="3.585" height="4.311"/>
		<rect x="61.654" y="60.697" fill="#666666" width="3.584" height="4.311"/>
		<g>
			<path fill="#E3E3E3" d="M65.189,55.424c0.401-0.769,0.631-1.641,0.631-2.567c0-3.069-2.487-5.559-5.556-5.559
				c-0.17,0-0.336,0.011-0.501,0.027l0.185-0.152v-9.829l-0.687-0.488l0.405-0.288l-0.742-0.529l0.536-0.381l-0.774-0.438
				l0.774-0.435l-0.536-0.384l0.742-0.528l-0.405-0.288l0.687-0.489v-6.215h-1.352c-4.881,16.896-4.544,23.175-4.544,23.175h1.417
				c-0.481,0.823-0.762,1.777-0.762,2.801c0,3.07,2.489,5.558,5.558,5.558c0.256,0,0.509-0.023,0.757-0.058v0.744v2.623l1.172,0.9
				l3.828-1.877v-5.171L65.189,55.424z"/>
		</g>
		<g>
			<path fill="#E3E3E3" d="M61.94,26.881h-1.352v6.215l0.686,0.489l-0.405,0.288l0.744,0.528l-0.538,0.384l0.775,0.435l-0.775,0.438
				l0.538,0.381l-0.744,0.529l0.405,0.288l-0.686,0.488v9.395c2.24,0.117,4.16,1.43,5.133,3.317h0.764
				C66.484,50.057,66.822,43.777,61.94,26.881z"/>
		</g>
		<path fill="#028E80" d="M72.07,88.06c-2.234-14.623-5.789-24.08-5.789-24.08h-5.279c8.123,34.53,4.57,55.964,4.57,58.909
			c0,2.941,3.553,5.074,5.078,0.912C72.172,119.637,74.305,102.683,72.07,88.06z"/>
		<path opacity="0.6" fill="#00A79D" enable-background="new    " d="M65.572,122.889c0,1.414,0.822,2.64,1.842,3.07
			c0.645-0.287,1.248-0.963,1.686-2.158c1.525-4.164,3.656-21.118,1.424-35.741c-2.233-14.623-5.789-24.08-5.789-24.08h-3.731
			C69.125,98.51,65.572,119.943,65.572,122.889z"/>
		<path fill="#028E80" d="M48.466,88.06c2.233-14.623,5.789-24.08,5.789-24.08h5.278c-8.124,34.53-4.568,55.964-4.568,58.909
			c0,2.941-3.556,5.074-5.078,0.912C48.365,119.637,46.231,102.683,48.466,88.06z"/>
		<path opacity="0.6" fill="#00A79D" enable-background="new    " d="M49.887,123.801c0.437,1.191,1.04,1.865,1.678,2.154
			c1.018-0.434,1.834-1.658,1.834-3.066c0-2.945-3.553-24.379,4.569-58.909h-3.713c0,0-3.556,9.457-5.789,24.08
			C46.231,102.683,48.365,119.637,49.887,123.801z"/>
		<path fill="#E3E3E3" d="M54.602,55.561l-0.087,0.017v5.171l3.83,1.877l1.171-0.9v-2.624V59.09
			C57.34,58.833,55.511,57.46,54.602,55.561z"/>
		<path fill="#666666" d="M60.264,48.64c-2.33,0-4.22,1.888-4.22,4.218c0,2.329,1.89,4.219,4.22,4.219
			c2.331,0,4.217-1.89,4.217-4.219C64.481,50.527,62.595,48.64,60.264,48.64z M60.264,55.532c-1.478,0-2.676-1.197-2.676-2.675
			s1.198-2.675,2.676-2.675s2.676,1.197,2.676,2.675S61.742,55.532,60.264,55.532z"/>
	</g>
	<g>
		<path fill="#E3E3E3" d="M36.326,11.964c-2.208,0-10.955,0-12.057,0c-1.104,0-1.698,2.804-6.963,2.804
			c-3.652,0-5.69-2.038-5.69-2.038v9.681c0,0,1.868-0.936,5.69-0.936c2.143,0,3.617,0.616,4.5,1.154v7.797
			c0,1.2,0.974,2.174,2.173,2.174h8.901c1.199,0,2.157-0.974,2.157-2.174c0,0,0-8.814,0-9.069c0.706-1.027,2.07-2.004,5.024-2.004
			c6.455,0,10.7,6.454,10.7,8.491h1.444C52.205,14.599,38.534,11.964,36.326,11.964z"/>
		<rect x="24.55" y="31.411" fill="#666666" width="7.598" height="34.306"/>
		<path fill="#028E80" d="M35.522,123.092c0,1.201-0.973,2.175-2.173,2.175h-10c-1.199,0-2.173-0.974-2.173-2.175L21.9,66.168
			c0-1.201,0.973-2.174,2.174-2.174h8.551c1.199,0,2.172,0.973,2.172,2.174L35.522,123.092z"/>
		<path fill="#C9C9C9" d="M17.306,21.476c2.143,0,3.617,0.616,4.5,1.154v7.797c0,1.2,0.974,2.174,2.173,2.174h8.901
			c1.199,0,2.157-0.974,2.157-2.174c0,0,0-8.814,0-9.069c0.706-1.027,2.07-2.004,5.024-2.004c6.455,0,10.7,6.454,10.7,8.491h0.824
			c-0.152-2.792-1.768-10.748-15.224-10.748c0,0-3.521,3.998-9.514,3.998c-5.994,0-7.53-2.972-15.23-2.972v4.288
			C11.616,22.411,13.484,21.476,17.306,21.476z"/>
		<path fill="#E3E3E3" d="M13.314,22.19c0,1.199-0.973,2.174-2.174,2.174H5.213c-1.201,0-2.174-0.975-2.174-2.174v-8.136
			c0-1.2,0.973-2.173,2.174-2.173h5.927c1.201,0,2.174,0.973,2.174,2.173V22.19z"/>
		<path fill="#C9C9C9" d="M3.04,17.806v4.385c0,1.199,0.973,2.174,2.174,2.174h5.927c1.201,0,2.174-0.975,2.174-2.174v-4.951
			C8.597,18.521,5.229,18.326,3.04,17.806z"/>
		<rect x="25.581" y="63.996" opacity="0.6" fill="#00A79D" enable-background="new    " width="5.535" height="61.271"/>
	</g>
	<g>
		<path fill="#C9C9C9" d="M79.633,49.53l3.742,7.873l4.678,0.234l-10.523,5.769C77.529,63.406,73.865,55.065,79.633,49.53z"/>
		<path fill="#C9C9C9" d="M96.24,56.702c0-4.131-5.146-8.263-10.605-9.432l3.199,8.106l-5.068,3.976l-9.512,3.82l1.871,4.287
			l1.248-0.39c0,0,2.572,4.287,3.119,5.847c0.545,1.561,0.391,8.217,0.391,11.905v37.729l0.014-0.002
			c0.142,2.479,2.193,4.451,4.711,4.451c2.609,0,4.726-2.115,4.726-4.726l-2.099-43.347c0-3.75,0.287-7.024,3.326-11.703
			C94.602,62.549,96.24,60.834,96.24,56.702z M88.66,122.276c0,1.687-1.367,3.054-3.053,3.054c-1.687,0-3.053-1.367-3.053-3.054
			s1.366-3.05,3.053-3.05C87.293,119.227,88.66,120.59,88.66,122.276z"/>
		<path fill="#E3E3E3" d="M85.607,119.227c1.578,0,2.877,1.197,3.037,2.734l-2.431-46.736c0-0.896-0.728-1.62-1.621-1.62
			s-1.62,0.726-1.62,1.62l-0.418,47.052C82.555,120.59,83.922,119.227,85.607,119.227z"/>
		<path fill="#E3E3E3" d="M96.24,56.702c0-4.131-5.146-8.263-10.605-9.432l3.199,8.106l-5.068,3.976l-9.512,3.82l1.871,4.287
			l19.438-6.848C96.01,59.46,96.24,58.25,96.24,56.702z"/>
		<path fill="#666666" d="M86.012,67.84c0.096,0.254-0.031,0.537-0.285,0.633l-3.412,1.289c-0.256,0.096-0.537-0.031-0.635-0.287
			l-1.287-3.411c-0.096-0.254,0.033-0.539,0.287-0.634l3.412-1.289c0.252-0.096,0.537,0.031,0.633,0.285L86.012,67.84z"/>
		<g>
			<path fill="#E3E3E3" d="M82.816,68.455c0.088,0.232-0.029,0.492-0.262,0.582l0,0c-0.234,0.088-0.496-0.031-0.582-0.264
				l-0.898-2.377c-0.088-0.232,0.029-0.492,0.264-0.58l0,0c0.232-0.087,0.492,0.029,0.58,0.262L82.816,68.455z"/>
			<path fill="#E3E3E3" d="M84.074,67.979c0.088,0.233-0.029,0.493-0.264,0.581l0,0c-0.232,0.088-0.494-0.028-0.58-0.262
				l-0.898-2.377c-0.088-0.232,0.031-0.494,0.262-0.582l0,0c0.232-0.088,0.494,0.031,0.582,0.264L84.074,67.979z"/>
			<path fill="#E3E3E3" d="M85.33,67.504c0.09,0.234-0.029,0.494-0.262,0.582l0,0c-0.232,0.088-0.494-0.029-0.582-0.262
				l-0.896-2.378c-0.088-0.231,0.029-0.491,0.262-0.58l0,0c0.234-0.089,0.492,0.029,0.582,0.263L85.33,67.504z"/>
		</g>
	</g>
	<polygon fill="#666666" points="104.131,38.515 104.01,60.579 104.01,38.515 	"/>
	<g>
		<path fill="#028E80" d="M102.6,79.789c0.351,1.264,0.771,1.896,2.248,2.316c1.478,0.424,3.863,3.794,2.879,7.659
			c-0.981,3.862-2.19,9.132-2.19,13.276c0,4.146,0,17.225,0,17.225c0,3.72,3.014,6.734,6.733,6.734c3.719,0,6.734-3.016,6.734-6.734
			c0,0,0-13.079,0-17.225s-1.209-9.414-2.193-13.276c-0.983-3.865,1.406-7.235,2.881-7.659c1.476-0.421,1.896-1.053,2.248-2.316
			c0.353-1.267,1.195-7.097,1.195-7.097H112.27h-10.865C101.404,72.692,102.248,78.522,102.6,79.789z M112.27,117.644
			c1.451,0,2.625,1.175,2.625,2.622c0,1.451-1.174,2.625-2.625,2.625c-1.449,0-2.623-1.174-2.623-2.625
			C109.646,118.818,110.82,117.644,112.27,117.644z"/>
		<path opacity="0.6" fill="#00A79D" enable-background="new    " d="M104.568,78.404c0.281,1.283,0.615,1.924,1.791,2.354
			c1.174,0.428,3.076,3.85,2.293,7.771c-0.781,3.924-1.746,9.271-1.746,13.478s0,17.48,0,17.48c0,3.775,2.4,6.836,5.363,6.836
			c2.961,0,5.36-3.061,5.36-6.836c0,0,0-13.273,0-17.48c0-4.205-0.961-9.554-1.743-13.478c-0.783-3.922,1.116-7.344,2.293-7.771
			c1.174-0.43,1.51-1.069,1.791-2.354c0.276-1.286,0.948-7.202,0.948-7.202h-8.649h-8.652
			C103.617,71.202,104.289,77.118,104.568,78.404z M112.27,117.644c1.451,0,2.625,1.175,2.625,2.622
			c0,1.451-1.174,2.625-2.625,2.625c-1.449,0-2.623-1.174-2.623-2.625C109.646,118.818,110.82,117.644,112.27,117.644z"/>
		<path fill="#383838" d="M103.086,73.664h9.184h9.183c0,0,3.51-5.977,3.51-13.254c0-7.277,0-21.896,0-21.896l-0.188,0.344
			l-0.28-0.344l-0.252,0.322l-0.488-0.322l-0.387,0.643l-0.289-0.643h-0.679l-0.676,0.521l-0.207-0.521h-0.322l-0.409,0.511
			l-0.32-0.511h-0.42l-0.387,0.378l-0.277-0.378h-0.36l-0.293,0.233l-0.254-0.233h-0.234l-0.211,0.41l-0.426-0.41l-0.381,0.621
			l-0.302-0.621l-0.508,0.511l-0.443-0.511h-0.231l-0.451,0.511l-0.393-0.511h-0.242l-0.301,0.3l-0.343-0.3l-0.43,0.4l-0.244-0.4
			h-0.271l-0.328,0.499l-0.463-0.499l-0.322,0.588l-0.455-0.588l-0.445,0.443l-0.396-0.443h-0.358l-0.319,2.434l-0.261-2.434h-0.291
			l-0.166,0.41l-0.153-0.41h-0.299l-0.378,0.543l-0.579-0.543h-0.263l-0.317,0.354l-0.412-0.354h-0.328l-0.326,0.698l-0.41-0.698
			h-0.293l-0.289,3.271l-0.453-3.271h-0.316l-0.293,0.477l-0.358-0.477h-0.254l-0.269,0.489l-0.473-0.489h-0.236l-0.568,0.4
			l-0.315-0.4l-0.424,0.389l-0.252-0.389h-0.265l-0.346,0.6l-0.234-0.6l-0.258,0.489l-0.313-0.489c0,0,0,14.618,0,21.896
			C99.582,67.688,103.086,73.664,103.086,73.664z"/>
		<polygon fill="#666666" points="119.379,38.515 119.258,58.987 119.258,38.515 		"/>
		<polygon fill="#666666" points="123.096,38.515 122.975,60.579 122.975,38.515 		"/>
		<polygon fill="#666666" points="122.594,38.515 122.473,58.987 122.473,38.515 		"/>
		<polygon fill="#666666" points="120.42,38.515 120.299,60.579 120.299,38.515 		"/>
		<polygon fill="#666666" points="118.432,38.515 118.313,59.975 118.313,38.515 		"/>
		<polygon fill="#666666" points="115.953,38.515 115.834,59.575 115.834,38.515 		"/>
		<polygon fill="#666666" points="114.84,38.515 114.719,61.47 114.719,38.515 		"/>
		<polygon fill="#666666" points="113.313,38.515 113.193,58.292 113.193,38.515 		"/>
		<polygon fill="#666666" points="110.627,38.515 110.508,59.975 110.508,38.515 		"/>
		<polygon fill="#666666" points="109.01,38.515 108.889,59.975 108.889,38.515 		"/>
		<polygon fill="#666666" points="107.832,38.515 107.711,58.987 107.711,38.515 		"/>
		<polygon fill="#666666" points="106.764,38.515 106.645,61.024 106.645,38.515 		"/>
		<polygon fill="#666666" points="105.719,38.515 105.598,58.987 105.598,38.515 		"/>
		<polygon fill="#666666" points="104.631,38.515 104.512,61.47 104.512,38.515 		"/>
		<polygon fill="#666666" points="103.721,38.515 103.602,58.987 103.602,38.515 		"/>
		<polygon fill="#666666" points="102.77,38.515 102.65,59.975 102.65,38.515 		"/>
		<polygon fill="#666666" points="109.652,38.515 109.531,58.987 109.531,38.515 		"/>
		<polygon fill="#C9C9C9" points="122.828,74.75 123.893,67.652 100.646,67.652 101.713,74.75 		"/>
		<polygon fill="#E3E3E3" points="123.377,71.082 101.162,71.082 101.371,72.477 123.168,72.477 		"/>
		<polygon fill="#E3E3E3" points="101.549,73.664 101.713,74.75 122.828,74.75 122.99,73.664 		"/>
		<g>
			<circle fill="#E3E3E3" cx="120.369" cy="69.203" r="0.582"/>
			<circle fill="#E3E3E3" cx="114.971" cy="69.202" r="0.581"/>
			<circle fill="#E3E3E3" cx="109.568" cy="69.203" r="0.582"/>
			<circle fill="#E3E3E3" cx="104.168" cy="69.203" r="0.582"/>
		</g>
	</g>
</g>
</svg>
