<?xml version="1.0" encoding="utf-8"?>
<!-- Generator: Adobe Illustrator 16.0.0, SVG Export Plug-In . SVG Version: 6.00 Build 0)  -->
<!DOCTYPE svg PUBLIC "-//W3C//DTD SVG 1.1//EN" "http://www.w3.org/Graphics/SVG/1.1/DTD/svg11.dtd">
<svg version="1.1" id="Layer_1" xmlns="http://www.w3.org/2000/svg" xmlns:xlink="http://www.w3.org/1999/xlink" x="0px" y="0px"
	 width="128px" height="128px" viewBox="0 0 128 128" enable-background="new 0 0 128 128" xml:space="preserve">
<g>
	<g>
		<g>
			<g>
				<g>
					<path fill="#01122C" d="M118.852,50.082c0-1.598-1.297-2.893-2.897-2.893H14.047c-1.599,0-2.898,1.295-2.898,2.893v56.423
						h107.703V50.082z"/>
				</g>
			</g>
		</g>
		<g>
			<g>
				<path fill="#D8D8D8" d="M11.149,106.505v8.359c0,1.598,1.299,2.893,2.898,2.893h101.906c1.602,0,2.898-1.295,2.898-2.893v-8.359
					H11.149z"/>
			</g>
		</g>
		<g>
			<g>
				<rect x="14.003" y="50.122" fill="#00A79D" width="101.996" height="53.53"/>
			</g>
		</g>
		<g>
			<g>
				<rect x="54.291" y="117.816" fill="#C6C5C6" width="21.419" height="6.55"/>
			</g>
		</g>
		<g>
			<g>
				<rect x="46.112" y="123.945" fill="#D8D8D8" width="37.775" height="2.814"/>
			</g>
		</g>
		<g>
			<g>
				<rect x="54.291" y="117.757" fill="#AAABB0" width="21.419" height="2.086"/>
			</g>
		</g>
	</g>
	<polygon fill="#029183" points="14.003,103.65 115.999,50.122 115.999,103.65 	"/>
</g>
<g>
	<path fill="#B5BCB5" d="M52.232,103.503L36.836,88.105c-13.587-5.686-17.523,14.345-4.191,15.396L52.232,103.503L52.232,103.503z"
		/>
	<path fill="#CCCECC" d="M95.673,103.503c4.819,1.404,6.065-7.59-0.126-9.772c3.818-1.193,7.286-4.963,5.061-9.945
		c-2.691-6.025-8-3.254-11.926-2.332l-13.309,22.051L95.673,103.503L95.673,103.503z"/>
	<path fill="#E0E3E0" d="M81.982,103.503c-0.313-1.146-0.813-2.233-1.42-3.123c2.631,1.92,7.75,1.388,9.604-1.637
		c2.095-3.418-0.321-7.75-2.718-10.021c0,0-13.029-3.869-17.163-3.326c-4.067,0.535-9.897,10.935-10.051,18.105L81.982,103.503
		L81.982,103.503z"/>
	<path fill="#FDFDFD" d="M47.766,62.987c1.58-5.25,6.097-5.845,9.25-4.431c-3.272-2.184-2.183-8.592,0.71-10.777
		c2.377-1.797,5.829-1.148,8.053-0.292v-0.954c2.629-2.196,8.086,1.946,8.832,4.773c0.717,2.706-0.746,5.488-2.455,7.2
		c9.381-6.729,18.047,3.769,11.71,12.549c3.135-1.541,7.296,2.235,8.25,5.272c1.336,4.254,0.749,9.633-2.253,12.868
		c-3.58,3.867-11.254,4.294-14.235-1.174c-1.069,12.377-19.752,8.566-15.587-2.055c-4.841,3.945-8.892,0.369-10.31-3.498
		c-1.356-3.699,0.588-9.102,4.507-9.242C49.278,72.532,46.06,68.65,47.766,62.987z"/>
	<path fill="#FDFDFD" d="M39.06,98.605c-1.54,1.629-2.282,3.314-2.441,4.896h28.433c0.015-1.34-0.268-2.822-0.954-4.422
		c4.242,6.404,14.146,0.445,10.054-8.303c-0.313,0.16-18.869-19.855-18.869-19.855c-2.072-3.346-8.121-4.76-11.479-2.645
		c-4.075,2.563-3.273,9.473-1.735,13.34c-4.793-3.068-10.191,0.746-11.322,5.99C29.485,93.473,33.9,98.335,39.06,98.605z"/>
	<path fill="#E0E3E0" d="M92.116,76.329c1.336,4.254,0.749,9.633-2.253,12.869c-3.58,3.866-11.254,4.293-14.235-1.175
		c-1.069,12.377-19.752,8.566-15.587-2.055c-4.841,3.945-8.892,0.369-10.31-3.498c-1.356-3.699,0.588-9.102,4.507-9.242
		c-4.959-0.696-8.177-4.578-6.471-10.242c1.11-3.687,3.667-5.076,6.183-5.087c-1.331,5.034,1.055,12.187,6.812,11.515
		c-6.064,2.117,0.626,8.226,4.361,6.541c-3.026,3.646-3.843,12.051,4.034,13.242c5.146,0.78,7.61-6.476,8.27-10.453
		c0.06,5.928,5.235,9.979,9.289,7.116c5.142-3.631,6.318-12-2.702-14.776l0.529-0.272C87.568,70.042,91.229,73.507,92.116,76.329z"
		/>
	<path fill="#E0E3E0" d="M50.019,103.503h4.496c-0.402-1.657-0.362-3.746,0.313-6.33C53.226,99.232,51.67,101.669,50.019,103.503z"
		/>
	<path fill="#E0E3E0" d="M39.319,98.458c-1.654,1.676-2.465,3.412-2.655,5.045h4.123c-1.718-2.651,0.15-5.604,3.203-7.528
		c-4.21-0.293-8.435-3.105-8.585-7.795c-0.142-4.457,4.17-6.697,7.849-7.302c-0.282-0.315-0.586-0.61-0.904-0.894
		c0.083,0.23,0.168,0.455,0.258,0.67c-5.235-3.217-11.132,0.779-12.366,6.273C28.861,93.075,33.683,98.173,39.319,98.458z"/>
</g>
<g>
	<g id="nube_7_">
		<g>
			<path fill="#FFFFFF" stroke="#F1F2F2" stroke-width="0.4275" stroke-miterlimit="10" d="M15.283,71.221
				c-2.319,0-4.637,0.002-6.955,0c-1.731-0.005-3.466-0.013-5.197-0.017c-0.996-0.004-1.93-0.718-2.224-1.713
				C0.781,69.07,0.759,68.63,0.77,68.188c0.027-1.022,0.288-1.975,0.816-2.842c0.433-0.714,1.03-1.236,1.709-1.667
				c0.762-0.482,1.595-0.76,2.464-0.923c0.622-0.116,1.25-0.2,1.876-0.29c0.094-0.014,0.117-0.056,0.133-0.141
				c0.371-1.99,1.285-3.656,2.736-4.992c0.888-0.818,1.908-1.383,3.067-1.656c0.737-0.173,1.486-0.208,2.235-0.171
				c0.889,0.045,1.752,0.226,2.57,0.598c1.17,0.535,2.105,1.376,2.838,2.468c0.148,0.223,0.293,0.446,0.437,0.672
				c0.039,0.061,0.075,0.079,0.147,0.069c0.603-0.083,1.208-0.137,1.816-0.09c0.734,0.057,1.422,0.25,2.005,0.753
				c0.684,0.585,1.011,1.349,1.053,2.265c0.028,0.631-0.039,1.255-0.115,1.879c-0.011,0.092,0.018,0.134,0.082,0.175
				c0.283,0.191,0.602,0.29,0.927,0.355c0.641,0.136,1.223,0.396,1.719,0.849c0.662,0.599,1.024,1.372,1.161,2.267
				c0.076,0.502,0.056,0.998-0.042,1.496c-0.146,0.746-0.586,1.232-1.218,1.549c-0.615,0.308-1.275,0.394-1.947,0.394
				c-2.51,0.002-5.018,0.004-7.525,0.004c-1.478,0-2.956,0-4.433,0C15.283,71.212,15.283,71.216,15.283,71.221z"/>
		</g>
	</g>
	<g id="nube_6_">
		<g>
			<path fill="#FFFFFF" stroke="#F1F2F2" stroke-width="0.4275" stroke-miterlimit="10" d="M21.943,75.915
				c-1.419,0-2.837,0.002-4.257,0c-1.06,0-2.12-0.006-3.181-0.008c-0.609-0.005-1.182-0.438-1.361-1.048
				c-0.076-0.262-0.091-0.528-0.083-0.799c0.016-0.627,0.176-1.209,0.5-1.742c0.266-0.434,0.63-0.754,1.045-1.02
				c0.466-0.293,0.977-0.465,1.509-0.564c0.381-0.071,0.766-0.12,1.148-0.178c0.058-0.008,0.072-0.033,0.082-0.084
				c0.227-1.219,0.787-2.238,1.675-3.057c0.544-0.502,1.168-0.848,1.878-1.014c0.452-0.104,0.909-0.129,1.369-0.104
				c0.543,0.027,1.072,0.138,1.572,0.365c0.716,0.326,1.288,0.84,1.736,1.51c0.092,0.138,0.181,0.272,0.269,0.412
				c0.023,0.037,0.046,0.047,0.09,0.043c0.369-0.053,0.738-0.084,1.112-0.058c0.448,0.035,0.869,0.154,1.227,0.462
				c0.419,0.358,0.618,0.825,0.644,1.387c0.019,0.388-0.023,0.771-0.069,1.149c-0.007,0.058,0.01,0.08,0.049,0.105
				c0.173,0.119,0.368,0.178,0.566,0.221c0.394,0.08,0.75,0.24,1.054,0.517c0.404,0.369,0.627,0.84,0.711,1.391
				c0.047,0.306,0.034,0.611-0.027,0.914c-0.088,0.457-0.358,0.755-0.745,0.949c-0.376,0.188-0.781,0.239-1.192,0.239
				c-1.536,0-3.071,0.003-4.606,0.003c-0.905,0-1.81,0-2.714,0C21.943,75.913,21.943,75.913,21.943,75.915z"/>
		</g>
	</g>
</g>
<g>
	<g id="nube_4_">
		<g>
			<path fill="#FFFFFF" stroke="#F1F2F2" stroke-width="0.4275" stroke-miterlimit="10" d="M112.718,54.338
				c2.318,0,4.638,0.002,6.954-0.001c1.732-0.001,3.467-0.008,5.196-0.014c0.995-0.002,1.931-0.714,2.224-1.712
				c0.126-0.421,0.146-0.863,0.137-1.302c-0.026-1.025-0.287-1.977-0.814-2.844c-0.434-0.711-1.03-1.234-1.71-1.665
				c-0.763-0.483-1.595-0.761-2.463-0.923c-0.623-0.118-1.25-0.201-1.876-0.291c-0.096-0.013-0.117-0.056-0.135-0.14
				c-0.371-1.991-1.283-3.656-2.733-4.992c-0.89-0.818-1.911-1.383-3.069-1.655c-0.736-0.173-1.484-0.209-2.234-0.171
				c-0.889,0.044-1.752,0.225-2.569,0.598c-1.171,0.533-2.104,1.375-2.839,2.468c-0.146,0.222-0.294,0.445-0.438,0.672
				c-0.037,0.061-0.074,0.078-0.147,0.068c-0.601-0.083-1.206-0.137-1.815-0.091c-0.732,0.057-1.42,0.251-2.005,0.752
				c-0.687,0.586-1.011,1.351-1.054,2.266c-0.028,0.631,0.037,1.256,0.115,1.88c0.012,0.09-0.021,0.131-0.082,0.173
				c-0.282,0.192-0.603,0.29-0.926,0.357c-0.642,0.134-1.225,0.396-1.72,0.846c-0.661,0.599-1.024,1.373-1.162,2.268
				c-0.075,0.5-0.056,0.998,0.044,1.497c0.146,0.745,0.586,1.231,1.217,1.547c0.615,0.308,1.274,0.393,1.949,0.394
				c2.508,0.002,5.016,0.003,7.523,0.004c1.479,0,2.955,0,4.434,0C112.718,54.332,112.718,54.335,112.718,54.338z"/>
		</g>
	</g>
	<g id="nube_3_">
		<g>
			<path fill="#FFFFFF" stroke="#F1F2F2" stroke-width="0.4275" stroke-miterlimit="10" d="M106.059,59.035
				c1.418,0,2.838,0.001,4.258,0c1.059-0.001,2.119-0.005,3.18-0.008c0.609-0.002,1.184-0.438,1.361-1.047
				c0.074-0.258,0.093-0.528,0.084-0.798c-0.018-0.626-0.176-1.209-0.5-1.741c-0.266-0.436-0.631-0.755-1.047-1.019
				c-0.465-0.296-0.977-0.466-1.508-0.565c-0.382-0.072-0.767-0.124-1.148-0.178c-0.057-0.008-0.071-0.035-0.081-0.086
				c-0.228-1.218-0.786-2.238-1.675-3.056c-0.545-0.501-1.17-0.846-1.879-1.012c-0.451-0.107-0.908-0.128-1.367-0.105
				c-0.545,0.027-1.072,0.138-1.574,0.365c-0.717,0.328-1.288,0.842-1.735,1.511c-0.094,0.136-0.18,0.273-0.269,0.412
				c-0.021,0.037-0.047,0.047-0.09,0.042c-0.369-0.05-0.738-0.083-1.111-0.055c-0.448,0.035-0.87,0.153-1.229,0.46
				c-0.418,0.359-0.619,0.826-0.645,1.387c-0.02,0.386,0.023,0.768,0.068,1.15c0.009,0.055-0.01,0.081-0.049,0.106
				c-0.174,0.118-0.367,0.178-0.566,0.219c-0.395,0.082-0.75,0.242-1.053,0.518c-0.405,0.367-0.629,0.839-0.713,1.389
				c-0.045,0.305-0.033,0.61,0.026,0.915c0.091,0.458,0.359,0.755,0.746,0.947c0.375,0.189,0.781,0.242,1.192,0.242
				c1.535,0.001,3.07,0.002,4.604,0.002c0.904,0,1.81,0,2.716,0C106.059,59.032,106.059,59.033,106.059,59.035z"/>
		</g>
	</g>
</g>
<path fill="none" d="M53.674,37.661c-0.365,2.846,0.028,6.455,2.107,10.822c0,0,2.338-4.106,4.523-5.369L57.175,31.84
	C57.176,31.841,54.863,33.788,53.674,37.661"/>
<rect x="33.599" y="1.03" fill="none" width="62.563" height="70.775"/>
<rect x="33.599" y="1.03" fill="none" width="62.563" height="70.775"/>
<rect x="33.599" y="1.03" fill="none" width="62.563" height="70.775"/>
<rect x="33.599" y="1.03" fill="none" width="62.563" height="70.775"/>
<rect x="33.599" y="1.03" fill="none" width="62.563" height="70.775"/>
<rect x="33.599" y="1.03" fill="none" width="62.563" height="70.775"/>
<rect x="33.599" y="1.03" fill="none" width="62.563" height="70.775"/>
<rect x="33.599" y="1.03" fill="none" width="62.563" height="70.775"/>
<rect x="33.599" y="1.03" fill="none" width="62.563" height="70.775"/>
<rect x="33.599" y="1.03" fill="none" width="62.563" height="70.775"/>
<rect x="33.599" y="1.03" fill="none" width="62.563" height="70.775"/>
<rect x="33.599" y="1.03" fill="none" width="62.563" height="70.775"/>
<rect x="33.599" y="1.03" fill="none" width="62.563" height="70.775"/>
<rect x="33.599" y="1.03" fill="none" width="62.563" height="70.775"/>
<rect x="33.599" y="1.03" fill="none" width="62.563" height="70.775"/>
<rect x="33.599" y="1.03" fill="none" width="62.563" height="70.775"/>
<rect x="33.599" y="1.03" fill="none" width="62.563" height="70.775"/>
<rect x="33.599" y="1.03" fill="none" width="62.563" height="70.775"/>
<rect x="33.599" y="1.03" fill="none" width="62.563" height="70.775"/>
<rect x="33.599" y="1.03" fill="none" width="62.563" height="70.775"/>
<rect x="33.599" y="1.03" fill="none" width="62.563" height="70.775"/>
<rect x="33.599" y="1.03" fill="none" width="62.563" height="70.775"/>
<rect x="33.599" y="1.03" fill="none" width="62.563" height="70.775"/>
<rect x="33.599" y="1.03" fill="none" width="62.563" height="70.775"/>
<rect x="33.599" y="1.03" fill="none" width="62.563" height="70.775"/>
<rect x="33.599" y="1.03" fill="none" width="62.563" height="70.775"/>
<rect x="33.599" y="1.03" fill="none" width="62.563" height="70.775"/>
<rect x="33.599" y="1.03" fill="none" width="62.563" height="70.775"/>
<rect x="33.599" y="1.03" fill="none" width="62.563" height="70.775"/>
<rect x="33.599" y="1.03" fill="none" width="62.563" height="70.775"/>
<rect x="33.599" y="1.03" fill="none" width="62.563" height="70.775"/>
<rect x="33.599" y="1.03" fill="none" width="62.563" height="70.775"/>
<rect x="33.599" y="1.03" fill="none" width="62.563" height="70.775"/>
<rect x="33.599" y="1.03" fill="none" width="62.563" height="70.775"/>
<rect x="33.599" y="1.03" fill="none" width="62.563" height="70.775"/>
<rect x="33.599" y="1.03" fill="none" width="62.563" height="70.775"/>
<rect x="33.599" y="1.03" fill="none" width="62.563" height="70.775"/>
<g>
	
		<linearGradient id="SVGID_1_" gradientUnits="userSpaceOnUse" x1="132.4609" y1="-15.0557" x2="155.6478" y2="-15.0557" gradientTransform="matrix(0.7134 -0.7007 0.7007 0.7134 -15.2058 146.6617)">
		<stop  offset="0" style="stop-color:#561211"/>
		<stop  offset="1" style="stop-color:#EB2626"/>
	</linearGradient>
	<path fill="url(#SVGID_1_)" d="M70.829,46.645c0.032,0.086,0.064,0.175,0.095,0.263c0.003-0.013,0.004-0.028,0.004-0.042
		C70.929,46.791,70.894,46.716,70.829,46.645 M68.21,45.956c0.134,0.529,0.272,1.142,0.394,1.826c1.118-0.161,1.92-0.402,2.21-0.685
		c0.043-0.043,0.074-0.088,0.095-0.133c-0.627-0.31-1.282-0.576-1.958-0.792C68.707,46.093,68.459,46.022,68.21,45.956
		 M59.08,46.565c-0.054,0.062-0.082,0.127-0.083,0.192c-0.001,0.356,0.78,0.681,2.023,0.91c0.138-0.691,0.291-1.311,0.438-1.837
		l-0.424,0.091c-0.203,0.052-0.404,0.105-0.603,0.166C59.968,46.223,59.518,46.383,59.08,46.565"/>
	
		<linearGradient id="SVGID_2_" gradientUnits="userSpaceOnUse" x1="-232.1006" y1="239.9561" x2="-231.2596" y2="239.9561" gradientTransform="matrix(0.1979 -22.0624 -22.0624 -0.1979 5404.5928 -5009.2827)">
		<stop  offset="0" style="stop-color:#F48020"/>
		<stop  offset="0.4784" style="stop-color:#EFB226"/>
		<stop  offset="1" style="stop-color:#ECE73B"/>
	</linearGradient>
	<path fill="url(#SVGID_2_)" d="M61.457,45.83c-0.147,0.527-0.3,1.146-0.438,1.837c-0.511,2.576-0.806,6.185,0.194,9.992
		l0.311-3.506c0,0-0.09,5.283,1.783,12.114l-0.148-4.945c0,0,1.443,9.376,1.435,10.106c0.008-0.73,1.617-10.079,1.617-10.079
		l-0.238,4.942c1.997-6.794,2-12.08,2-12.08l0.249,3.509c1.061-3.765,0.842-7.357,0.382-9.938c-0.121-0.684-0.26-1.297-0.394-1.826
		c-0.427-0.111-0.859-0.203-1.298-0.275c-0.031,0.14-0.062,0.281-0.093,0.419c-0.034,0.144-0.068,0.287-0.102,0.429
		c0.382,1.407,0.867,4.104,0.058,6.977l-0.143-2.026c0,0-0.003,3.049-1.152,6.967l0.136-2.85c0,0-0.929,5.391-0.933,5.812
		c0.004-0.421-0.827-5.828-0.827-5.828l0.085,2.852c-1.08-3.938-1.028-6.985-1.028-6.985l-0.181,2.021
		c-0.994-3.787,0.235-7.233,0.486-7.874c0.001-0.015,0.003-0.032,0.004-0.046c-0.313,0.029-0.622,0.067-0.929,0.115
		c-0.106,0.015-0.211,0.034-0.317,0.053L61.457,45.83"/>
	
		<linearGradient id="SVGID_3_" gradientUnits="userSpaceOnUse" x1="-231.1182" y1="240.1016" x2="-230.2772" y2="240.1016" gradientTransform="matrix(0.1495 -16.6686 -16.6686 -0.1495 4101.4736 -3763.0112)">
		<stop  offset="0" style="stop-color:#F48020"/>
		<stop  offset="0.4784" style="stop-color:#EFB226"/>
		<stop  offset="1" style="stop-color:#ECE73B"/>
	</linearGradient>
	<path fill="url(#SVGID_3_)" d="M63.22,45.594c-0.251,0.641-1.48,4.087-0.486,7.874l0.181-2.021c0,0-0.052,3.046,1.028,6.985
		l-0.085-2.852c0,0,0.831,5.407,0.827,5.828c0.004-0.421,0.933-5.812,0.933-5.812l-0.136,2.85c1.149-3.918,1.152-6.967,1.152-6.967
		l0.143,2.026c0.81-2.873,0.324-5.57-0.058-6.977c-0.076,0.323-0.151,0.641-0.225,0.945c-0.002,0.007-0.003,0.013-0.005,0.019
		c0.514,2.044,0.192,3.825,0.192,3.825c0.027-1.346-0.107-2.551-0.275-3.49c-0.078,0.307-0.152,0.602-0.221,0.878
		c-0.094,0.381-0.198,0.731-0.28,1.042c-0.082,0.309-0.16,0.58-0.229,0.803c-0.005,0.02-0.012,0.039-0.018,0.058
		c-0.097,0.455-0.219,0.942-0.367,1.452l0.037-0.813l-0.135-0.001c-0.188,1.103-0.443,2.645-0.445,2.827
		c0.002-0.287-0.562-3.96-0.562-3.96l0.059,1.938c-0.735-2.677-0.699-4.748-0.699-4.748l-0.122,1.375
		c-0.088-0.338-0.152-0.673-0.193-0.998c-0.196,0.952-0.366,2.199-0.361,3.604c0,0-0.311-1.911,0.318-4.029
		C63.143,46.662,63.164,46.1,63.22,45.594"/>
	
		<linearGradient id="SVGID_4_" gradientUnits="userSpaceOnUse" x1="-254.1152" y1="243.0176" x2="-253.2743" y2="243.0176" gradientTransform="matrix(-0.2221 3.8188 -3.8188 -0.2221 934.7404 1071.1277)">
		<stop  offset="0" style="stop-color:#F48020"/>
		<stop  offset="0.4784" style="stop-color:#EFB226"/>
		<stop  offset="1" style="stop-color:#ECE73B"/>
	</linearGradient>
	<path fill="url(#SVGID_4_)" d="M63.188,47.255c-0.629,2.119-0.318,4.029-0.318,4.029c-0.004-1.406,0.166-2.652,0.361-3.604
		C63.213,47.537,63.198,47.396,63.188,47.255"/>
	
		<linearGradient id="SVGID_5_" gradientUnits="userSpaceOnUse" x1="-254.3711" y1="237.7764" x2="-253.5299" y2="237.7764" gradientTransform="matrix(0.1536 3.8227 3.8227 -0.1536 -803.3726 1055.6631)">
		<stop  offset="0" style="stop-color:#F48020"/>
		<stop  offset="0.4784" style="stop-color:#EFB226"/>
		<stop  offset="1" style="stop-color:#ECE73B"/>
	</linearGradient>
	<path fill="url(#SVGID_5_)" d="M66.488,47.493c-0.029,0.113-0.057,0.226-0.083,0.335c0.168,0.939,0.303,2.144,0.275,3.49
		C66.681,51.318,67.002,49.537,66.488,47.493"/>
	
		<linearGradient id="SVGID_6_" gradientUnits="userSpaceOnUse" x1="123.9424" y1="-13.6025" x2="129.8826" y2="-13.6025" gradientTransform="matrix(0.7134 -0.7007 0.7007 0.7134 -15.2058 146.6617)">
		<stop  offset="0" style="stop-color:#ECE73B"/>
		<stop  offset="0.4804" style="stop-color:#EEED89"/>
		<stop  offset="1" style="stop-color:#F2F5D2"/>
	</linearGradient>
	<path fill="url(#SVGID_6_)" d="M65.658,50.609c-0.124,0.408-0.195,0.64-0.195,0.64l-0.135-0.001l-0.037,0.813
		C65.439,51.551,65.562,51.064,65.658,50.609 M63.224,45.548c-0.001,0.014-0.003,0.031-0.004,0.046
		c-0.056,0.506-0.077,1.068-0.032,1.661c0.01,0.141,0.025,0.282,0.043,0.425c0.041,0.325,0.105,0.66,0.193,0.998l0.122-1.375
		c0,0-0.036,2.071,0.699,4.748l-0.059-1.938c0,0,0.564,3.673,0.562,3.96c0.002-0.182,0.258-1.724,0.445-2.827l-0.264-0.002
		c0,0-0.074-0.256-0.203-0.703c-0.064-0.224-0.135-0.496-0.213-0.807c-0.077-0.312-0.173-0.664-0.261-1.047
		c-0.088-0.381-0.185-0.797-0.287-1.237c-0.096-0.437-0.196-0.9-0.301-1.38c-0.037-0.181-0.074-0.364-0.111-0.55
		C63.444,45.529,63.334,45.539,63.224,45.548"/>
	
		<linearGradient id="SVGID_7_" gradientUnits="userSpaceOnUse" x1="-244.2285" y1="233.2363" x2="-243.3874" y2="233.2363" gradientTransform="matrix(4.6763 4.7609 -4.7609 4.6763 2325.7349 113.4375)">
		<stop  offset="0" style="stop-color:#561211"/>
		<stop  offset="1" style="stop-color:#EB2626"/>
	</linearGradient>
	<path fill="url(#SVGID_7_)" d="M68.907,45.692c2.466,0.162,5.676,6.151,5.676,6.151c2.854-6.096,2.706-10.82,1.719-14.139
		c-1.146-3.861-3.428-5.817-3.428-5.817l-3.212,11.18L68.907,45.692z"/>
	
		<linearGradient id="SVGID_8_" gradientUnits="userSpaceOnUse" x1="-233.3906" y1="227.3105" x2="-232.5496" y2="227.3105" gradientTransform="matrix(-5.7846 -0.0519 -0.0519 5.7846 -1262.0098 -1286.8302)">
		<stop  offset="0" style="stop-color:#561211"/>
		<stop  offset="1" style="stop-color:#EB2626"/>
	</linearGradient>
	<path fill="url(#SVGID_8_)" d="M69.662,43.067c2.16,1.275,4.449,5.377,4.449,5.377c2.105-4.323,2.527-7.908,2.19-10.741
		c-1.146-3.861-3.429-5.817-3.429-5.817L69.662,43.067z"/>
	
		<linearGradient id="SVGID_9_" gradientUnits="userSpaceOnUse" x1="-236.1851" y1="244.7832" x2="-235.3445" y2="244.7832" gradientTransform="matrix(13.3104 0.1194 0.1194 -13.3104 3174.5166 3325.4849)">
		<stop  offset="0" style="stop-color:#561211"/>
		<stop  offset="1" style="stop-color:#EB2626"/>
	</linearGradient>
	<path fill="url(#SVGID_9_)" d="M72.782,31.886c0,0,5.809,4.981,1.259,14.695c0,0-2.364-4.411-4.179-4.53L72.782,31.886z"/>
	
		<linearGradient id="SVGID_10_" gradientUnits="userSpaceOnUse" x1="-242.0952" y1="231.1016" x2="-241.2543" y2="231.1016" gradientTransform="matrix(-4.7611 4.6764 4.6764 4.7611 -2176.6021 73.0882)">
		<stop  offset="0" style="stop-color:#561211"/>
		<stop  offset="1" style="stop-color:#EB2626"/>
	</linearGradient>
	<path fill="url(#SVGID_10_)" d="M61.032,45.622c-2.467,0.117-5.784,6.048-5.784,6.048c-2.745-6.147-2.512-10.867-1.464-14.168
		c1.215-3.84,3.531-5.755,3.531-5.755l3.01,11.236L61.032,45.622z"/>
	
		<linearGradient id="SVGID_11_" gradientUnits="userSpaceOnUse" x1="-236.4917" y1="248.3359" x2="-235.6504" y2="248.3359" gradientTransform="matrix(7.9811 0.0716 0.0716 -7.9811 1923.3296 2038.9139)">
		<stop  offset="0" style="stop-color:#F6A8AC"/>
		<stop  offset="0.7773" style="stop-color:#EF4C3C"/>
		<stop  offset="1" style="stop-color:#EB2626"/>
	</linearGradient>
	<path fill="url(#SVGID_11_)" d="M60.325,42.984c-2.183,1.233-4.544,5.296-4.544,5.296c-2.029-4.361-2.386-7.952-1.998-10.777
		c1.215-3.842,3.532-5.756,3.532-5.756L60.325,42.984z"/>
	
		<linearGradient id="SVGID_12_" gradientUnits="userSpaceOnUse" x1="-236.2368" y1="245.1855" x2="-235.3954" y2="245.1855" gradientTransform="matrix(12.3737 0.111 0.111 -12.3737 2955.9817 3099.1865)">
		<stop  offset="0" style="stop-color:#561211"/>
		<stop  offset="1" style="stop-color:#EB2626"/>
	</linearGradient>
	<path fill="url(#SVGID_12_)" d="M57.406,31.749c0,0-5.897,4.876-1.522,14.669c0,0,2.443-4.367,4.259-4.453L57.406,31.749z"/>
	
		<linearGradient id="SVGID_13_" gradientUnits="userSpaceOnUse" x1="135.584" y1="-30.3579" x2="153.6521" y2="-30.3579" gradientTransform="matrix(0.7134 -0.7007 0.7007 0.7134 -15.2058 146.6617)">
		<stop  offset="0" style="stop-color:#561211"/>
		<stop  offset="1" style="stop-color:#EB2626"/>
	</linearGradient>
	<path fill="url(#SVGID_13_)" d="M67.326,44.184C67.326,44.185,67.326,44.185,67.326,44.184c0.558,0.109,1.105,0.249,1.638,0.421
		c0.12,0.037,0.241,0.08,0.361,0.12l0,0c-0.119-0.042-0.241-0.083-0.362-0.122C68.432,44.432,67.885,44.292,67.326,44.184
		 M60.558,44.484L60.558,44.484c0.162-0.047,0.325-0.09,0.488-0.131l0.861-0.187c0,0,0,0,0,0l-0.859,0.186
		C60.883,44.394,60.72,44.438,60.558,44.484 M64.485,2.192c-2.262,2.223-8.104,9.13-8.212,21.293
		c-0.084,9.389,2.241,16.425,4.012,20.399c0.114-0.219,0.227-0.43,0.342-0.636c0.145-0.26,0.29-0.511,0.436-0.751
		c-1.545-3.325-4.055-10.214-3.969-19.775c0.105-11.689,5.702-18.07,7.404-19.742c0.306-0.301,0.486-0.449,0.486-0.449
		s7.654,6.539,7.53,20.329c0,0.021,0,0.042,0,0.063c0,0.015,0,0.033,0,0.049c-0.009,0.884-0.04,1.741-0.092,2.572
		c-0.455,7.548-2.448,13.141-3.896,16.295c-0.006,0.015-0.014,0.028-0.02,0.042c0.034,0.056,0.068,0.111,0.103,0.168
		c0.357,0.586,0.72,1.233,1.071,1.938c1.844-3.94,4.304-10.939,4.389-20.344c0.135-15.089-8.701-22.25-8.701-22.25
		S65.031,1.657,64.485,2.192"/>
	
		<linearGradient id="SVGID_14_" gradientUnits="userSpaceOnUse" x1="132.9648" y1="-30.9658" x2="142.3951" y2="-30.9658" gradientTransform="matrix(0.7134 -0.7007 0.7007 0.7134 -15.2058 146.6617)">
		<stop  offset="0" style="stop-color:#561211"/>
		<stop  offset="1" style="stop-color:#EB2626"/>
	</linearGradient>
	<path fill="url(#SVGID_14_)" d="M67.216,44.163C67.216,44.163,67.215,44.164,67.216,44.163c0.036,0.009,0.073,0.015,0.11,0.022
		c0,0,0,0,0-0.001C67.29,44.177,67.252,44.169,67.216,44.163 M61.906,44.167C61.906,44.167,61.906,44.167,61.906,44.167l0.087-0.019
		c0.104-0.018,0.209-0.037,0.314-0.052c0.322-0.05,0.644-0.089,0.972-0.119l0,0c-0.328,0.028-0.649,0.068-0.97,0.117
		c-0.106,0.017-0.211,0.035-0.315,0.053L61.906,44.167 M72.421,25.543c-0.493,7.9-2.815,13.458-4.121,16.014
		c0.069,0.107,0.138,0.214,0.206,0.324c0.006-0.014,0.014-0.028,0.02-0.042C69.973,38.685,71.966,33.092,72.421,25.543 M64.497,2.98
		c-1.702,1.672-7.299,8.053-7.404,19.742c-0.086,9.561,2.424,16.45,3.969,19.775c0.312-0.517,0.623-0.992,0.925-1.424
		c-1.421-3.049-3.746-9.401-3.667-18.229c0.096-10.759,5.248-16.63,6.815-18.169c0.281-0.277,0.445-0.414,0.445-0.414
		s7.027,6.003,6.933,18.661c0-0.021,0-0.042,0-0.063c0.124-13.79-7.53-20.329-7.53-20.329S64.803,2.679,64.497,2.98"/>
	
		<linearGradient id="SVGID_15_" gradientUnits="userSpaceOnUse" x1="129.5518" y1="-30.7334" x2="153.5179" y2="-30.7334" gradientTransform="matrix(0.7134 -0.7007 0.7007 0.7134 -15.2058 146.6617)">
		<stop  offset="0" style="stop-color:#561211"/>
		<stop  offset="1" style="stop-color:#EB2626"/>
	</linearGradient>
	<path fill="url(#SVGID_15_)" d="M68.076,27.393c-0.678,0.666-1.608,1.073-2.631,1.065c-1.463-0.014-2.719-0.872-3.313-2.105
		c-0.239-0.497-0.371-1.056-0.367-1.646c0.01-1.026,0.434-1.952,1.113-2.618c0.678-0.666,1.607-1.073,2.632-1.063
		c1.339,0.012,2.505,0.731,3.15,1.801c0.34,0.567,0.534,1.234,0.529,1.947C69.181,25.801,68.756,26.726,68.076,27.393 M65.135,4.675
		c-1.567,1.539-6.719,7.41-6.815,18.169c-0.079,8.828,2.245,15.18,3.667,18.229c0.184-0.262,0.365-0.51,0.542-0.743
		c-0.007-0.086-0.013-0.172-0.015-0.259c-0.005-0.236,0.014-0.469,0.05-0.696c-0.07-0.144-0.143-0.305-0.216-0.485
		c-0.166-0.424-0.406-0.934-0.602-1.541c-0.193-0.608-0.465-1.284-0.647-2.05c-0.1-0.381-0.205-0.778-0.313-1.189
		c-0.053-0.207-0.106-0.416-0.16-0.629c-0.042-0.214-0.084-0.434-0.126-0.655c-0.084-0.445-0.169-0.901-0.258-1.368
		c-0.09-0.467-0.178-0.944-0.221-1.437c-0.099-0.979-0.246-1.991-0.313-3.025c-0.032-1.036-0.066-2.088-0.097-3.14l-0.008-0.394
		c0.001-0.166,0.01-0.27,0.014-0.408l0.033-0.778l0.032-0.774c0.021-0.264,0.045-0.527,0.067-0.788
		c0.048-0.525,0.086-1.047,0.178-1.55c0.084-0.505,0.139-1.006,0.247-1.493c0.107-0.485,0.183-0.969,0.311-1.43
		c0.13-0.461,0.241-0.916,0.375-1.35c0.146-0.432,0.268-0.857,0.419-1.259c0.161-0.398,0.301-0.787,0.462-1.149
		c0.312-0.73,0.639-1.38,0.958-1.939c0.312-0.562,0.621-1.031,0.89-1.404c0.261-0.379,0.503-0.651,0.662-0.838
		c0.156-0.178,0.248-0.269,0.253-0.276c0,0,0,0,0,0s-0.072,0.108-0.191,0.321c-0.121,0.211-0.287,0.528-0.481,0.936
		c-0.2,0.407-0.414,0.913-0.646,1.495c-0.229,0.583-0.455,1.252-0.685,1.984c-0.221,0.737-0.423,1.542-0.622,2.397
		c-0.182,0.859-0.339,1.771-0.478,2.716c-0.133,0.946-0.225,1.937-0.29,2.925c-0.019,0.249-0.038,0.498-0.055,0.746l-0.021,0.776
		l-0.02,0.779c-0.001,0.12-0.008,0.276-0.006,0.371l0.011,0.384c0.016,1.028,0.032,2.056,0.047,3.067
		c0.063,1.008,0.125,2.001,0.185,2.963c0.017,0.483,0.093,0.951,0.137,1.413c0.05,0.461,0.098,0.913,0.146,1.352
		c0.023,0.222,0.048,0.438,0.072,0.652c0.035,0.211,0.067,0.42,0.1,0.625c0.062,0.414,0.122,0.811,0.178,1.194
		c0.029,0.191,0.057,0.379,0.086,0.563c0.036,0.181,0.071,0.358,0.106,0.531c0.064,0.348,0.126,0.676,0.185,0.986
		c0.114,0.623,0.256,1.152,0.349,1.599c0.012,0.049,0.024,0.097,0.037,0.143c0.02-0.084,0.042-0.167,0.065-0.251
		c0.122-0.437,0.283-0.85,0.464-1.232c0.356-0.761,0.811-1.394,1.198-1.837c0.149-0.164,0.278-0.303,0.389-0.412
		c0.039-0.037,0.074-0.071,0.107-0.102c0.127-0.118,0.203-0.181,0.203-0.181l0.534,0.005c0,0,0.079,0.064,0.203,0.185
		c0.127,0.121,0.291,0.298,0.484,0.522c0.38,0.45,0.823,1.09,1.169,1.859c0.151,0.34,0.291,0.705,0.398,1.088
		c0.058-0.16,0.126-0.363,0.217-0.599c0.107-0.331,0.237-0.734,0.384-1.195c0.13-0.467,0.276-0.993,0.437-1.567
		s0.277-1.21,0.443-1.87c0.176-0.658,0.264-1.374,0.412-2.101c0.067-0.366,0.135-0.737,0.204-1.112
		c0.05-0.379,0.096-0.763,0.145-1.15c0.053-0.386,0.104-0.775,0.154-1.167c0.057-0.39,0.108-0.781,0.124-1.179
		c0.061-0.789,0.122-1.579,0.179-2.357c0.015-0.189,0.028-0.377,0.042-0.564c0.003-0.194,0.004-0.39,0.007-0.581
		c0.004-0.386,0.007-0.766,0.012-1.139c0.006-0.375,0.009-0.742,0.014-1.103c-0.008-0.356-0.043-0.699-0.062-1.037
		c-0.022-0.337-0.043-0.666-0.063-0.984c-0.021-0.318-0.021-0.628-0.075-0.921c-0.089-0.586-0.156-1.128-0.216-1.61
		c-0.026-0.242-0.062-0.466-0.112-0.669c-0.044-0.206-0.084-0.394-0.12-0.563c-0.144-0.682-0.218-1.078-0.218-1.078
		s0.139,0.373,0.364,1.038c0.054,0.167,0.114,0.352,0.182,0.553c0.073,0.2,0.133,0.419,0.187,0.659
		c0.114,0.475,0.244,1.012,0.372,1.604c0.133,0.591,0.184,1.248,0.276,1.938c0.041,0.346,0.093,0.702,0.123,1.065
		c0.011,0.36,0.02,0.729,0.028,1.102c0.012,0.375,0.019,0.755,0.029,1.14c0.003,0.193,0.007,0.386,0.013,0.581
		c-0.008,0.229-0.023,0.401-0.036,0.606c-0.052,0.79-0.104,1.592-0.156,2.395c-0.021,0.402-0.077,0.801-0.139,1.196
		c-0.057,0.397-0.112,0.793-0.17,1.185c-0.059,0.39-0.117,0.779-0.175,1.162c-0.083,0.379-0.165,0.755-0.247,1.123
		c-0.167,0.737-0.304,1.453-0.521,2.11c-0.199,0.662-0.369,1.293-0.579,1.859c-0.208,0.564-0.399,1.083-0.586,1.535
		c-0.201,0.446-0.374,0.834-0.518,1.155c-0.129,0.264-0.245,0.475-0.33,0.634c0.006,0.02,0.012,0.039,0.016,0.057
		c0.118,0.44,0.19,0.902,0.175,1.38c-0.01,0.294-0.063,0.594-0.135,0.897c0.118,0.174,0.238,0.354,0.356,0.54
		c1.306-2.556,3.628-8.114,4.121-16.014c0.052-0.831,0.083-1.688,0.092-2.572c0-0.017,0-0.034,0-0.049
		C72.607,10.264,65.58,4.261,65.58,4.261S65.416,4.398,65.135,4.675"/>
	
		<linearGradient id="SVGID_16_" gradientUnits="userSpaceOnUse" x1="-236.1172" y1="244.1973" x2="-235.2765" y2="244.1973" gradientTransform="matrix(14.2559 0.1279 0.1279 -14.2559 3393.376 3536.1084)">
		<stop  offset="0" style="stop-color:#442221"/>
		<stop  offset="1" style="stop-color:#8F2C2C"/>
	</linearGradient>
	<path fill="url(#SVGID_16_)" d="M62.878,22.089c-0.679,0.667-1.103,1.592-1.113,2.618c-0.004,0.59,0.128,1.148,0.367,1.646
		c0.594,1.233,1.85,2.091,3.313,2.105c1.022,0.008,1.953-0.399,2.631-1.065c0.68-0.667,1.104-1.592,1.114-2.619
		c0.005-0.713-0.189-1.379-0.529-1.947c-0.646-1.07-1.812-1.79-3.15-1.801C64.486,21.016,63.556,21.423,62.878,22.089"/>
	
		<radialGradient id="SVGID_17_" cx="-236.0396" cy="243.1465" r="0.8419" gradientTransform="matrix(18.4438 0.1655 0.1656 -18.4641 4377.7168 4551.9165)" gradientUnits="userSpaceOnUse">
		<stop  offset="0" style="stop-color:#F6A8AC"/>
		<stop  offset="0.7773" style="stop-color:#EF4C3C"/>
		<stop  offset="1" style="stop-color:#EB2626"/>
	</radialGradient>
	<path fill="url(#SVGID_17_)" d="M64.504,8.026c-0.005,0.007-0.098,0.098-0.253,0.276c-0.158,0.187-0.4,0.458-0.662,0.838
		c-0.269,0.373-0.578,0.842-0.89,1.404c-0.319,0.559-0.646,1.209-0.958,1.939c-0.162,0.363-0.301,0.751-0.462,1.149
		c-0.151,0.401-0.273,0.827-0.419,1.259c-0.134,0.435-0.246,0.889-0.375,1.35c-0.128,0.461-0.203,0.945-0.311,1.43
		c-0.108,0.487-0.162,0.988-0.247,1.493c-0.091,0.503-0.13,1.025-0.178,1.55c-0.022,0.261-0.046,0.524-0.067,0.788l-0.032,0.774
		l-0.033,0.778c-0.004,0.138-0.013,0.243-0.014,0.408l0.008,0.394c0.031,1.052,0.065,2.104,0.097,3.14
		c0.067,1.034,0.214,2.046,0.313,3.025c0.043,0.493,0.131,0.97,0.221,1.437c0.089,0.466,0.174,0.922,0.258,1.368
		c0.042,0.221,0.084,0.44,0.126,0.655c0.054,0.213,0.107,0.422,0.16,0.629c0.107,0.411,0.212,0.808,0.313,1.189
		c0.182,0.766,0.454,1.442,0.647,2.05c0.195,0.607,0.436,1.117,0.602,1.541c0.073,0.18,0.146,0.341,0.216,0.485
		c0.021-0.146,0.048-0.289,0.084-0.429c-0.013-0.046-0.024-0.094-0.037-0.143c-0.092-0.447-0.235-0.976-0.349-1.599
		c-0.058-0.31-0.121-0.639-0.185-0.986c-0.035-0.173-0.07-0.35-0.106-0.531c-0.029-0.185-0.057-0.372-0.086-0.563
		c-0.057-0.383-0.117-0.781-0.178-1.194c-0.033-0.205-0.065-0.414-0.1-0.625c-0.024-0.214-0.049-0.431-0.072-0.652
		c-0.048-0.438-0.096-0.89-0.146-1.352c-0.044-0.462-0.12-0.93-0.137-1.413c-0.06-0.962-0.123-1.956-0.185-2.963
		c-0.016-1.012-0.032-2.04-0.047-3.067l-0.011-0.384c-0.002-0.095,0.005-0.251,0.006-0.371l0.02-0.779l0.021-0.776
		c0.018-0.249,0.037-0.498,0.055-0.746c0.065-0.988,0.157-1.979,0.29-2.925c0.139-0.946,0.296-1.857,0.478-2.716
		c0.199-0.855,0.401-1.661,0.622-2.397c0.23-0.732,0.456-1.402,0.685-1.984c0.232-0.582,0.446-1.088,0.646-1.495
		c0.194-0.408,0.36-0.725,0.481-0.936C64.432,8.134,64.504,8.025,64.504,8.026C64.504,8.025,64.504,8.025,64.504,8.026"/>
	
		<linearGradient id="SVGID_18_" gradientUnits="userSpaceOnUse" x1="-238.8125" y1="238.9561" x2="-237.9715" y2="238.9561" gradientTransform="matrix(-0.1788 19.9284 19.9284 0.1788 -4734.9512 4732.709)">
		<stop  offset="0" style="stop-color:#FBDDDF"/>
		<stop  offset="0.0408" style="stop-color:#FBDBDB"/>
		<stop  offset="0.7607" style="stop-color:#F59BA0"/>
		<stop  offset="1" style="stop-color:#F59BA0"/>
	</linearGradient>
	<path fill="url(#SVGID_18_)" d="M69.77,14.044c0,0,0.074,0.396,0.218,1.078c0.036,0.17,0.076,0.357,0.12,0.563
		c0.051,0.203,0.086,0.427,0.112,0.669c0.06,0.481,0.127,1.024,0.216,1.61c0.055,0.292,0.055,0.603,0.075,0.921
		c0.021,0.318,0.041,0.647,0.063,0.984c0.019,0.338,0.054,0.681,0.062,1.037c-0.005,0.36-0.008,0.728-0.014,1.103
		c-0.005,0.374-0.008,0.753-0.012,1.139c-0.003,0.191-0.004,0.387-0.007,0.581c-0.014,0.188-0.027,0.375-0.042,0.564
		c-0.057,0.778-0.118,1.568-0.179,2.357c-0.016,0.398-0.067,0.789-0.124,1.179c-0.051,0.392-0.102,0.781-0.154,1.167
		c-0.049,0.387-0.095,0.771-0.145,1.15c-0.069,0.375-0.137,0.747-0.204,1.112c-0.148,0.727-0.236,1.443-0.412,2.101
		c-0.166,0.66-0.283,1.296-0.443,1.87s-0.307,1.1-0.437,1.567c-0.146,0.461-0.276,0.864-0.384,1.195
		c-0.091,0.236-0.159,0.439-0.217,0.599c0.009,0.032,0.019,0.062,0.024,0.093c0.085-0.159,0.201-0.37,0.33-0.634
		c0.144-0.321,0.316-0.709,0.518-1.155c0.187-0.453,0.378-0.971,0.586-1.535c0.21-0.566,0.38-1.198,0.579-1.859
		c0.217-0.658,0.354-1.374,0.521-2.11c0.082-0.367,0.164-0.744,0.247-1.123c0.058-0.383,0.116-0.772,0.175-1.162
		c0.058-0.392,0.113-0.788,0.17-1.185c0.062-0.395,0.118-0.794,0.139-1.196c0.052-0.803,0.104-1.605,0.156-2.395
		c0.013-0.205,0.028-0.378,0.036-0.606c-0.006-0.195-0.01-0.388-0.013-0.581c-0.011-0.385-0.018-0.765-0.029-1.14
		c-0.009-0.373-0.018-0.742-0.028-1.102c-0.03-0.363-0.082-0.719-0.123-1.065c-0.093-0.691-0.144-1.348-0.276-1.938
		c-0.128-0.591-0.258-1.128-0.372-1.604c-0.054-0.24-0.113-0.459-0.187-0.659c-0.067-0.201-0.128-0.386-0.182-0.553
		C69.908,14.417,69.77,14.044,69.77,14.044"/>
	
		<radialGradient id="SVGID_19_" cx="-236.04" cy="243.1484" r="0.8415" gradientTransform="matrix(18.4414 0.1654 0.1656 -18.4617 4377.1812 4551.3774)" gradientUnits="userSpaceOnUse">
		<stop  offset="0" style="stop-color:#F6A8AC"/>
		<stop  offset="0.7773" style="stop-color:#EF4C3C"/>
		<stop  offset="1" style="stop-color:#EB2626"/>
	</radialGradient>
	<path fill="url(#SVGID_19_)" d="M68.889,22.087c-0.775-1.083-2.031-1.792-3.463-1.804c-2.379-0.021-4.331,1.893-4.352,4.28
		c-0.022,2.267,1.72,4.154,3.951,4.338c-0.111,0.007-0.213,0.01-0.318,0.01h-0.045l0.094,0.008c-0.109,0.007-0.217,0.011-0.328,0.01
		c-2.67-0.024-4.818-2.212-4.793-4.886c0.024-2.672,2.21-4.823,4.881-4.798c1.852,0.016,3.45,1.074,4.25,2.606l-0.029-0.035
		C68.789,21.902,68.84,21.992,68.889,22.087z"/>
	
		<linearGradient id="SVGID_20_" gradientUnits="userSpaceOnUse" x1="-242.9873" y1="245.1055" x2="-242.1465" y2="245.1055" gradientTransform="matrix(5.0811 5.1731 5.1731 -5.0811 29.6364 2524.5762)">
		<stop  offset="0" style="stop-color:#B5E2EE"/>
		<stop  offset="0.2393" style="stop-color:#B5E2EE"/>
		<stop  offset="1" style="stop-color:#E8F5F7"/>
	</linearGradient>
	<path fill="url(#SVGID_20_)" d="M68.386,24.432c-0.014,1.792-1.479,3.231-3.269,3.216c-1.277-0.012-2.372-0.76-2.891-1.837
		c-0.209-0.435-0.325-0.922-0.319-1.438c0.015-1.79,1.48-3.23,3.269-3.213c1.168,0.01,2.187,0.639,2.749,1.572
		C68.224,23.228,68.393,23.809,68.386,24.432z"/>
	
		<linearGradient id="SVGID_21_" gradientUnits="userSpaceOnUse" x1="-236.8027" y1="248.7578" x2="-235.9619" y2="248.7578" gradientTransform="matrix(7.3107 0.0656 0.0656 -7.3107 1777.1202 1859.2878)">
		<stop  offset="0" style="stop-color:#E8F5F7"/>
		<stop  offset="0.7607" style="stop-color:#B5E2EE"/>
		<stop  offset="1" style="stop-color:#B5E2EE"/>
	</linearGradient>
	<path fill="url(#SVGID_21_)" d="M68.386,24.432c-0.014,1.792-1.479,3.231-3.269,3.216c-1.277-0.012-2.372-0.76-2.891-1.837
		c0.251-0.935,0.972-2.33,3.049-2.311c1.065,0.01,1.948-0.29,2.649-0.768C68.224,23.228,68.393,23.809,68.386,24.432z"/>
	
		<linearGradient id="SVGID_22_" gradientUnits="userSpaceOnUse" x1="-237.1968" y1="251.3799" x2="-236.3564" y2="251.3799" gradientTransform="matrix(5.6464 0.0507 0.0507 -5.6464 1389.218 1453.2665)">
		<stop  offset="0" style="stop-color:#561211"/>
		<stop  offset="1" style="stop-color:#EB2626"/>
	</linearGradient>
	<circle fill="url(#SVGID_22_)" cx="63.352" cy="21.875" r="0.711"/>
	
		<linearGradient id="SVGID_23_" gradientUnits="userSpaceOnUse" x1="-244.2305" y1="233.2109" x2="-243.3893" y2="233.2109" gradientTransform="matrix(4.6749 4.7595 -4.7595 4.6749 2324.3953 114.1245)">
		<stop  offset="0" style="stop-color:#080808"/>
		<stop  offset="0.9613" style="stop-color:#69605E"/>
		<stop  offset="1" style="stop-color:#6C6461"/>
	</linearGradient>
	<path fill="url(#SVGID_23_)" d="M76.302,37.704c0.338,2.832-0.085,6.418-2.19,10.74c0,0-2.058-3.686-4.112-5.155
		c-0.354,0.795-0.691,1.489-0.995,2.072l-0.097,0.333c2.465,0.162,5.676,6.152,5.676,6.152
		C77.438,45.747,77.289,41.022,76.302,37.704z"/>
	
		<linearGradient id="SVGID_24_" gradientUnits="userSpaceOnUse" x1="-244.2275" y1="233.2646" x2="-243.3866" y2="233.2646" gradientTransform="matrix(4.6764 4.7611 -4.7611 4.6764 2326.6689 112.6098)">
		<stop  offset="0" style="stop-color:#080808"/>
		<stop  offset="0.9613" style="stop-color:#69605E"/>
		<stop  offset="1" style="stop-color:#6C6461"/>
	</linearGradient>
	<path fill="url(#SVGID_24_)" d="M74.041,46.581c0,0-1.892-3.525-3.589-4.354c-0.152,0.371-0.305,0.726-0.454,1.061
		c2.056,1.469,4.113,5.156,4.113,5.156c2.105-4.323,2.527-7.908,2.19-10.74c-0.844-2.841-2.301-4.65-3.013-5.408l-0.016,0.096
		C74.57,33.882,77.753,38.657,74.041,46.581z"/>
	
		<linearGradient id="SVGID_25_" gradientUnits="userSpaceOnUse" x1="-233.3916" y1="227.3047" x2="-232.5508" y2="227.3047" gradientTransform="matrix(-5.7859 -0.0519 -0.0519 5.7859 -1262.3014 -1286.8821)">
		<stop  offset="0" style="stop-color:#080808"/>
		<stop  offset="0.9613" style="stop-color:#69605E"/>
		<stop  offset="1" style="stop-color:#6C6461"/>
	</linearGradient>
	<path fill="url(#SVGID_25_)" d="M74.041,46.581c0,0-1.892-3.525-3.589-4.354c-0.152,0.371-0.305,0.726-0.454,1.061
		c2.056,1.469,4.113,5.156,4.113,5.156c2.105-4.323,2.527-7.908,2.19-10.74c-0.844-2.841-2.301-4.65-3.013-5.408l-0.016,0.096
		C74.57,33.882,77.753,38.657,74.041,46.581z"/>
	
		<linearGradient id="SVGID_26_" gradientUnits="userSpaceOnUse" x1="-244.2275" y1="233.2813" x2="-243.3864" y2="233.2813" gradientTransform="matrix(4.6766 4.7612 -4.7612 4.6766 2327.2539 112.1142)">
		<stop  offset="0" style="stop-color:#080808"/>
		<stop  offset="0.9613" style="stop-color:#69605E"/>
		<stop  offset="1" style="stop-color:#6C6461"/>
	</linearGradient>
	<path fill="url(#SVGID_26_)" d="M74.041,46.581c3.711-7.924,0.528-12.698-0.768-14.189c-0.714,4.031-1.794,7.34-2.821,9.834
		C72.149,43.056,74.041,46.581,74.041,46.581z"/>
	
		<linearGradient id="SVGID_27_" gradientUnits="userSpaceOnUse" x1="-233.3916" y1="227.334" x2="-232.5507" y2="227.334" gradientTransform="matrix(-5.7857 -0.0519 -0.0519 5.7857 -1262.2612 -1287.8987)">
		<stop  offset="0" style="stop-color:#080808"/>
		<stop  offset="0.9613" style="stop-color:#69605E"/>
		<stop  offset="1" style="stop-color:#6C6461"/>
	</linearGradient>
	<path fill="url(#SVGID_27_)" d="M74.041,46.581c3.711-7.924,0.528-12.698-0.768-14.189c-0.714,4.031-1.794,7.34-2.821,9.834
		C72.149,43.056,74.041,46.581,74.041,46.581z"/>
	
		<linearGradient id="SVGID_28_" gradientUnits="userSpaceOnUse" x1="-236.1846" y1="244.7861" x2="-235.3433" y2="244.7861" gradientTransform="matrix(13.3132 0.1194 0.1194 -13.3132 3175.1572 3326.4456)">
		<stop  offset="0" style="stop-color:#080808"/>
		<stop  offset="0.9613" style="stop-color:#69605E"/>
		<stop  offset="1" style="stop-color:#6C6461"/>
	</linearGradient>
	<path fill="url(#SVGID_28_)" d="M74.041,46.581c3.711-7.924,0.528-12.698-0.768-14.189c-0.714,4.031-1.794,7.34-2.821,9.834
		C72.149,43.056,74.041,46.581,74.041,46.581z"/>
	
		<linearGradient id="SVGID_29_" gradientUnits="userSpaceOnUse" x1="-242.0947" y1="231.0781" x2="-241.2538" y2="231.0781" gradientTransform="matrix(-4.7597 4.675 4.675 4.7597 -2175.2466 73.7546)">
		<stop  offset="0" style="stop-color:#080808"/>
		<stop  offset="0.9613" style="stop-color:#69605E"/>
		<stop  offset="1" style="stop-color:#6C6461"/>
	</linearGradient>
	<path fill="url(#SVGID_29_)" d="M55.781,48.28c-2.029-4.361-2.387-7.954-1.999-10.777c-1.047,3.299-1.28,8.019,1.465,14.166
		c0,0,3.317-5.931,5.784-6.048l-0.091-0.338c-0.292-0.588-0.618-1.284-0.955-2.086C57.905,44.627,55.781,48.28,55.781,48.28z"/>
	
		<linearGradient id="SVGID_30_" gradientUnits="userSpaceOnUse" x1="-242.0938" y1="231.1318" x2="-241.2525" y2="231.1318" gradientTransform="matrix(-4.761 4.6763 4.6763 4.761 -2177.387 72.1832)">
		<stop  offset="0" style="stop-color:#080808"/>
		<stop  offset="0.9613" style="stop-color:#69605E"/>
		<stop  offset="1" style="stop-color:#6C6461"/>
	</linearGradient>
	<path fill="url(#SVGID_30_)" d="M55.781,48.28c0,0,2.124-3.653,4.205-5.084c-0.143-0.337-0.289-0.696-0.435-1.07
		c-1.712,0.8-3.666,4.293-3.666,4.293c-3.574-7.999-0.297-12.716,1.025-14.177l-0.015-0.096c-0.723,0.743-2.217,2.525-3.113,5.357
		C53.394,40.327,53.752,43.919,55.781,48.28z"/>
	
		<linearGradient id="SVGID_31_" gradientUnits="userSpaceOnUse" x1="-236.4922" y1="248.3379" x2="-235.6506" y2="248.3379" gradientTransform="matrix(7.9805 0.0716 0.0716 -7.9805 1923.1794 2038.9808)">
		<stop  offset="0" style="stop-color:#7C726E"/>
		<stop  offset="1" style="stop-color:#6C6461"/>
	</linearGradient>
	<path fill="url(#SVGID_31_)" d="M55.781,48.28c0,0,2.124-3.653,4.205-5.084c-0.143-0.337-0.289-0.696-0.435-1.07
		c-1.712,0.8-3.666,4.293-3.666,4.293c-3.574-7.999-0.297-12.716,1.025-14.177l-0.015-0.096c-0.723,0.743-2.217,2.525-3.113,5.357
		C53.394,40.327,53.752,43.919,55.781,48.28z"/>
	
		<linearGradient id="SVGID_32_" gradientUnits="userSpaceOnUse" x1="-242.0938" y1="231.1465" x2="-241.2528" y2="231.1465" gradientTransform="matrix(-4.7608 4.6762 4.6762 4.7608 -2177.7827 71.6827)">
		<stop  offset="0" style="stop-color:#080808"/>
		<stop  offset="0.9613" style="stop-color:#69605E"/>
		<stop  offset="1" style="stop-color:#6C6461"/>
	</linearGradient>
	<path fill="url(#SVGID_32_)" d="M55.884,46.417c0,0,1.956-3.493,3.667-4.291c-0.979-2.511-2.001-5.84-2.642-9.885
		C55.587,33.702,52.311,38.42,55.884,46.417z"/>
	
		<linearGradient id="SVGID_33_" gradientUnits="userSpaceOnUse" x1="-236.4932" y1="248.3184" x2="-235.6519" y2="248.3184" gradientTransform="matrix(7.9801 0.0716 0.0716 -7.9801 1923.0862 2037.8329)">
		<stop  offset="0" style="stop-color:#7C726E"/>
		<stop  offset="1" style="stop-color:#6C6461"/>
	</linearGradient>
	<path fill="url(#SVGID_33_)" d="M55.884,46.417c0,0,1.956-3.493,3.667-4.291c-0.979-2.511-2.001-5.84-2.642-9.885
		C55.587,33.702,52.311,38.42,55.884,46.417z"/>
	
		<linearGradient id="SVGID_34_" gradientUnits="userSpaceOnUse" x1="-236.2373" y1="245.1895" x2="-235.3954" y2="245.1895" gradientTransform="matrix(12.3742 0.111 0.111 -12.3742 2956.0955 3099.6157)">
		<stop  offset="0" style="stop-color:#080808"/>
		<stop  offset="0.9613" style="stop-color:#69605E"/>
		<stop  offset="1" style="stop-color:#6C6461"/>
	</linearGradient>
	<path fill="url(#SVGID_34_)" d="M55.884,46.417c0,0,1.956-3.493,3.667-4.291c-0.979-2.511-2.001-5.84-2.642-9.885
		C55.587,33.702,52.311,38.42,55.884,46.417z"/>
	
		<linearGradient id="SVGID_35_" gradientUnits="userSpaceOnUse" x1="-236.3262" y1="245.1719" x2="-235.4852" y2="245.1719" gradientTransform="matrix(11.3542 0.1019 0.1019 -11.3542 2719.9915 2815.5315)">
		<stop  offset="0" style="stop-color:#080808"/>
		<stop  offset="0.9613" style="stop-color:#69605E"/>
		<stop  offset="1" style="stop-color:#6C6461"/>
	</linearGradient>
	<path fill="url(#SVGID_35_)" d="M64.982,2.531c0,0,4.023,3.438,6.188,10.584c0.602,0.322,1.174,0.691,1.712,1.101
		c-2.381-8.661-7.516-12.822-7.516-12.822s-5.192,4.057-7.73,12.652c0.263-0.191,0.536-0.375,0.814-0.546
		C60.71,6.054,64.982,2.531,64.982,2.531z"/>
	
		<linearGradient id="SVGID_36_" gradientUnits="userSpaceOnUse" x1="-236.3262" y1="245.1768" x2="-235.485" y2="245.1768" gradientTransform="matrix(11.3536 0.1019 0.1019 -11.3536 2719.854 2815.7305)">
		<stop  offset="0" style="stop-color:#080808"/>
		<stop  offset="0.9613" style="stop-color:#69605E"/>
		<stop  offset="1" style="stop-color:#6C6461"/>
	</linearGradient>
	<path fill="url(#SVGID_36_)" d="M64.982,2.531c0,0-4.272,3.523-6.531,10.97c0.546-0.335,1.118-0.633,1.713-0.884
		c2.152-5.663,5.416-8.355,5.416-8.355s3.326,2.843,5.371,8.74c0.073,0.038,0.146,0.076,0.219,0.115
		C69.004,5.971,64.982,2.531,64.982,2.531z"/>
	
		<linearGradient id="SVGID_37_" gradientUnits="userSpaceOnUse" x1="-230.8765" y1="240.1611" x2="-230.0351" y2="240.1611" gradientTransform="matrix(0.1355 -15.1042 -15.1042 -0.1355 3723.3237 -3418.1023)">
		<stop  offset="0" style="stop-color:#080808"/>
		<stop  offset="0.9613" style="stop-color:#69605E"/>
		<stop  offset="1" style="stop-color:#6C6461"/>
	</linearGradient>
	<path fill="url(#SVGID_37_)" d="M64.982,2.531c0,0-4.272,3.523-6.531,10.97c0.546-0.335,1.118-0.633,1.713-0.884
		c2.152-5.663,5.416-8.355,5.416-8.355s3.326,2.843,5.371,8.74c0.073,0.038,0.146,0.076,0.219,0.115
		C69.004,5.971,64.982,2.531,64.982,2.531z"/>
	
		<linearGradient id="SVGID_38_" gradientUnits="userSpaceOnUse" x1="-236.3257" y1="245.1855" x2="-235.4846" y2="245.1855" gradientTransform="matrix(11.353 0.1018 0.1018 -11.353 2719.7007 2816.2419)">
		<stop  offset="0" style="stop-color:#080808"/>
		<stop  offset="0.9613" style="stop-color:#69605E"/>
		<stop  offset="1" style="stop-color:#6C6461"/>
	</linearGradient>
	<path fill="url(#SVGID_38_)" d="M62.7,10.543c0.313-0.562,0.62-1.03,0.89-1.403c0.26-0.38,0.502-0.652,0.661-0.838
		c0.163-0.186,0.255-0.277,0.255-0.277s-0.072,0.109-0.192,0.322c-0.12,0.211-0.287,0.528-0.482,0.936
		c-0.198,0.406-0.412,0.912-0.645,1.495c-0.127,0.322-0.253,0.672-0.38,1.045c0.794-0.147,1.615-0.221,2.452-0.214
		c2.051,0.018,3.983,0.52,5.694,1.394c-2.045-5.897-5.371-8.74-5.371-8.74s-3.264,2.692-5.416,8.354
		c0.575-0.243,1.169-0.445,1.784-0.604C62.196,11.471,62.45,10.979,62.7,10.543z"/>
	
		<linearGradient id="SVGID_39_" gradientUnits="userSpaceOnUse" x1="-230.875" y1="240.1699" x2="-230.0341" y2="240.1699" gradientTransform="matrix(0.1355 -15.1039 -15.1039 -0.1355 3724.1484 -3418.0298)">
		<stop  offset="0" style="stop-color:#080808"/>
		<stop  offset="0.9613" style="stop-color:#69605E"/>
		<stop  offset="1" style="stop-color:#6C6461"/>
	</linearGradient>
	<path fill="url(#SVGID_39_)" d="M62.7,10.543c0.313-0.562,0.62-1.03,0.89-1.403c0.26-0.38,0.502-0.652,0.661-0.838
		c0.163-0.186,0.255-0.277,0.255-0.277s-0.072,0.109-0.192,0.322c-0.12,0.211-0.287,0.528-0.482,0.936
		c-0.198,0.406-0.412,0.912-0.645,1.495c-0.127,0.322-0.253,0.672-0.38,1.045c0.794-0.147,1.615-0.221,2.452-0.214
		c2.051,0.018,3.983,0.52,5.694,1.394c-2.045-5.897-5.371-8.74-5.371-8.74s-3.264,2.692-5.416,8.354
		c0.575-0.243,1.169-0.445,1.784-0.604C62.196,11.471,62.45,10.979,62.7,10.543z"/>
	
		<linearGradient id="SVGID_40_" gradientUnits="userSpaceOnUse" x1="-236.1182" y1="244.0293" x2="-235.2771" y2="244.0293" gradientTransform="matrix(14.2551 0.1279 0.1279 -14.2551 3393.3535 3517.3879)">
		<stop  offset="0" style="stop-color:#080808"/>
		<stop  offset="0.9613" style="stop-color:#69605E"/>
		<stop  offset="1" style="stop-color:#6C6461"/>
	</linearGradient>
	<path fill="url(#SVGID_40_)" d="M62.7,10.543c0.313-0.562,0.62-1.03,0.89-1.403c0.26-0.38,0.502-0.652,0.661-0.838
		c0.163-0.186,0.255-0.277,0.255-0.277s-0.072,0.109-0.192,0.322c-0.12,0.211-0.287,0.528-0.482,0.936
		c-0.198,0.406-0.412,0.912-0.645,1.495c-0.127,0.322-0.253,0.672-0.38,1.045c0.794-0.147,1.615-0.221,2.452-0.214
		c2.051,0.018,3.983,0.52,5.694,1.394c-2.045-5.897-5.371-8.74-5.371-8.74s-3.264,2.692-5.416,8.354
		c0.575-0.243,1.169-0.445,1.784-0.604C62.196,11.471,62.45,10.979,62.7,10.543z"/>
	
		<linearGradient id="SVGID_41_" gradientUnits="userSpaceOnUse" x1="-236.3267" y1="245.21" x2="-235.4856" y2="245.21" gradientTransform="matrix(11.3525 0.1018 0.1018 -11.3525 2719.5793 2817.8311)">
		<stop  offset="0" style="stop-color:#080808"/>
		<stop  offset="0.9613" style="stop-color:#69605E"/>
		<stop  offset="1" style="stop-color:#6C6461"/>
	</linearGradient>
	<path fill="url(#SVGID_41_)" d="M63.831,9.283c0.195-0.408,0.361-0.725,0.482-0.937c0.12-0.212,0.192-0.322,0.192-0.322
		s-0.092,0.092-0.255,0.277c-0.157,0.187-0.4,0.459-0.661,0.838c-0.27,0.373-0.578,0.842-0.89,1.403
		c-0.25,0.436-0.503,0.927-0.75,1.468c0.282-0.073,0.568-0.137,0.857-0.19c0.126-0.373,0.252-0.723,0.379-1.045
		C63.418,10.194,63.633,9.688,63.831,9.283z"/>
	
		<linearGradient id="SVGID_42_" gradientUnits="userSpaceOnUse" x1="-230.8745" y1="240.1406" x2="-230.034" y2="240.1406" gradientTransform="matrix(0.1355 -15.1042 -15.1042 -0.1355 3721.408 -3418.1179)">
		<stop  offset="0" style="stop-color:#080808"/>
		<stop  offset="0.9613" style="stop-color:#69605E"/>
		<stop  offset="1" style="stop-color:#6C6461"/>
	</linearGradient>
	<path fill="url(#SVGID_42_)" d="M63.831,9.283c0.195-0.408,0.361-0.725,0.482-0.937c0.12-0.212,0.192-0.322,0.192-0.322
		s-0.092,0.092-0.255,0.277c-0.157,0.187-0.4,0.459-0.661,0.838c-0.27,0.373-0.578,0.842-0.89,1.403
		c-0.25,0.436-0.503,0.927-0.75,1.468c0.282-0.073,0.568-0.137,0.857-0.19c0.126-0.373,0.252-0.723,0.379-1.045
		C63.418,10.194,63.633,9.688,63.831,9.283z"/>
	
		<linearGradient id="SVGID_43_" gradientUnits="userSpaceOnUse" x1="-236.1187" y1="244.0488" x2="-235.2787" y2="244.0488" gradientTransform="matrix(14.2545 0.1279 0.1279 -14.2545 3393.2158 3518.95)">
		<stop  offset="0" style="stop-color:#080808"/>
		<stop  offset="0.9613" style="stop-color:#69605E"/>
		<stop  offset="1" style="stop-color:#6C6461"/>
	</linearGradient>
	<path fill="url(#SVGID_43_)" d="M63.831,9.283c0.195-0.408,0.361-0.725,0.482-0.937c0.12-0.212,0.192-0.322,0.192-0.322
		s-0.092,0.092-0.255,0.277c-0.157,0.187-0.4,0.459-0.661,0.838c-0.27,0.373-0.578,0.842-0.89,1.403
		c-0.25,0.436-0.503,0.927-0.75,1.468c0.282-0.073,0.568-0.137,0.857-0.19c0.126-0.373,0.252-0.723,0.379-1.045
		C63.418,10.194,63.633,9.688,63.831,9.283z"/>
	
		<radialGradient id="SVGID_44_" cx="-236.0386" cy="243.1504" r="0.8379" gradientTransform="matrix(18.4429 0.1655 0.1656 -18.4632 4377.5059 4551.6992)" gradientUnits="userSpaceOnUse">
		<stop  offset="0" style="stop-color:#7C726E"/>
		<stop  offset="1" style="stop-color:#6C6461"/>
	</radialGradient>
	<path fill="url(#SVGID_44_)" d="M63.831,9.283c0.195-0.408,0.361-0.725,0.482-0.937c0.12-0.212,0.192-0.322,0.192-0.322
		s-0.092,0.092-0.255,0.277c-0.157,0.187-0.4,0.459-0.661,0.838c-0.27,0.373-0.578,0.842-0.89,1.403
		c-0.25,0.436-0.503,0.927-0.75,1.468c0.282-0.073,0.568-0.137,0.857-0.19c0.126-0.373,0.252-0.723,0.379-1.045
		C63.418,10.194,63.633,9.688,63.831,9.283z"/>
	
		<linearGradient id="SVGID_45_" gradientUnits="userSpaceOnUse" x1="135.9814" y1="-15.4316" x2="155.5853" y2="-15.4316" gradientTransform="matrix(0.7134 -0.7007 0.7007 0.7134 -15.2058 146.6617)">
		<stop  offset="0" style="stop-color:#561211"/>
		<stop  offset="1" style="stop-color:#EB2626"/>
	</linearGradient>
	<path fill="url(#SVGID_45_)" d="M67.216,44.164c-0.097,0.515-0.197,1.024-0.304,1.518c0.438,0.072,0.871,0.164,1.298,0.275
		c0.249,0.066,0.497,0.137,0.74,0.216c0.676,0.216,1.331,0.482,1.958,0.792c0.015,0.006,0.029,0.016,0.045,0.022
		c-0.01-0.025-0.02-0.053-0.029-0.079c-0.03-0.088-0.063-0.177-0.095-0.263c-0.206-0.556-0.423-1.085-0.649-1.588
		c-0.28-0.118-0.565-0.229-0.854-0.332c-0.12-0.04-0.241-0.083-0.361-0.12c-0.532-0.172-1.08-0.312-1.638-0.42
		C67.289,44.177,67.252,44.171,67.216,44.164 M59.877,44.701l-0.07,0.145c-0.256,0.542-0.505,1.116-0.741,1.724
		c0.004-0.002,0.008-0.003,0.013-0.004c0.438-0.182,0.889-0.343,1.351-0.479c0.198-0.061,0.399-0.114,0.603-0.166l0.424-0.091
		l0.521-0.113c0.106-0.019,0.21-0.038,0.317-0.053c0.307-0.048,0.617-0.086,0.929-0.115c0.11-0.01,0.22-0.019,0.329-0.027
		c-0.096-0.504-0.188-1.022-0.274-1.545c-0.328,0.03-0.65,0.069-0.972,0.119c-0.104,0.016-0.21,0.034-0.314,0.052l-0.086,0.019
		l-0.861,0.187c-0.163,0.041-0.327,0.084-0.488,0.131c-0.038,0.01-0.077,0.021-0.113,0.033
		C60.253,44.576,60.064,44.636,59.877,44.701"/>
	
		<linearGradient id="SVGID_46_" gradientUnits="userSpaceOnUse" x1="123.8379" y1="-17.022" x2="133.1" y2="-17.022" gradientTransform="matrix(0.7134 -0.7007 0.7007 0.7134 -15.2058 146.6617)">
		<stop  offset="0" style="stop-color:#561211"/>
		<stop  offset="1" style="stop-color:#EB2626"/>
	</linearGradient>
	<path fill="url(#SVGID_46_)" d="M67.943,41.018c-0.046,0.19-0.1,0.381-0.155,0.574c-0.149,0.5-0.294,1.009-0.384,1.518
		c-0.061,0.351-0.123,0.703-0.188,1.053c0.036,0.007,0.074,0.015,0.11,0.021c0.559,0.108,1.105,0.248,1.637,0.419
		c0.121,0.039,0.243,0.08,0.362,0.122c0.29,0.102,0.574,0.211,0.854,0.331c-0.1-0.231-0.204-0.456-0.31-0.677
		c-0.063-0.132-0.127-0.264-0.19-0.391c-0.352-0.706-0.714-1.352-1.071-1.938c-0.034-0.057-0.068-0.112-0.103-0.168
		c-0.068-0.11-0.137-0.217-0.206-0.324C68.182,41.371,68.062,41.191,67.943,41.018 M62.528,40.33
		c-0.177,0.233-0.358,0.481-0.542,0.743c-0.302,0.433-0.613,0.908-0.925,1.424c-0.146,0.241-0.291,0.491-0.436,0.751
		c-0.115,0.206-0.228,0.417-0.342,0.636c-0.138,0.263-0.274,0.535-0.407,0.816c0.187-0.064,0.375-0.125,0.567-0.183
		c0.036-0.012,0.075-0.023,0.113-0.033c0.162-0.047,0.325-0.091,0.489-0.132l0.859-0.186l0.087-0.02
		c0.104-0.018,0.209-0.036,0.315-0.053c0.32-0.049,0.642-0.089,0.97-0.117c-0.051-0.301-0.099-0.603-0.145-0.905
		c-0.081-0.511-0.217-1.021-0.356-1.524C62.665,41.135,62.565,40.727,62.528,40.33"/>
	
		<linearGradient id="SVGID_47_" gradientUnits="userSpaceOnUse" x1="125.5498" y1="-20.2871" x2="138.4583" y2="-20.2871" gradientTransform="matrix(0.7134 -0.7007 0.7007 0.7134 -15.2058 146.6617)">
		<stop  offset="0" style="stop-color:#0F8075"/>
		<stop  offset="1" style="stop-color:#1D8277"/>
	</linearGradient>
	<path fill="url(#SVGID_47_)" d="M62.563,39.375c-0.036,0.227-0.055,0.46-0.05,0.696c0.001,0.087,0.008,0.172,0.015,0.259
		c0.104-0.137,0.207-0.27,0.308-0.398c-0.012-0.023-0.023-0.049-0.039-0.075C62.739,39.729,62.656,39.567,62.563,39.375
		 M64.764,35.214c-0.111,0.109-0.24,0.248-0.389,0.412c-0.387,0.443-0.841,1.076-1.198,1.837c-0.181,0.382-0.343,0.795-0.464,1.232
		c-0.023,0.084-0.045,0.167-0.065,0.251c0.091,0.375,0.167,0.672,0.219,0.883c0.006,0.016,0.01,0.033,0.016,0.048
		c0.607-0.759,1.143-1.326,1.527-1.704c0.39-0.381,0.622-0.57,0.622-0.57s1.348,1.121,2.912,3.415
		c0.072-0.303,0.125-0.603,0.135-0.897c0.016-0.478-0.057-0.94-0.175-1.38c-0.004-0.018-0.01-0.037-0.016-0.057
		c-0.015,0.032-0.03,0.061-0.045,0.088c-0.095,0.163-0.145,0.251-0.145,0.251s0.037-0.094,0.105-0.269
		c0.019-0.049,0.039-0.103,0.06-0.164c-0.107-0.383-0.247-0.748-0.398-1.088c-0.346-0.769-0.789-1.41-1.169-1.859
		c-0.193-0.224-0.357-0.401-0.484-0.522c-0.124-0.12-0.203-0.185-0.203-0.185l-0.534-0.005c0,0-0.076,0.063-0.203,0.181
		C64.838,35.144,64.803,35.178,64.764,35.214"/>
	
		<radialGradient id="SVGID_48_" cx="-236.0371" cy="243.1533" r="0.8464" gradientTransform="matrix(18.4438 0.1655 0.1656 -18.4641 4377.7168 4551.9165)" gradientUnits="userSpaceOnUse">
		<stop  offset="0" style="stop-color:#1E8F84"/>
		<stop  offset="0.7773" style="stop-color:#1E8679"/>
		<stop  offset="1" style="stop-color:#1D8277"/>
	</radialGradient>
	<path fill="url(#SVGID_48_)" d="M62.647,38.946c-0.036,0.14-0.063,0.283-0.084,0.429c0.092,0.193,0.176,0.354,0.234,0.482
		c0.015,0.026,0.027,0.052,0.039,0.075c0.016-0.018,0.03-0.037,0.046-0.055c-0.006-0.015-0.01-0.032-0.016-0.048
		C62.815,39.618,62.739,39.32,62.647,38.946"/>
	
		<linearGradient id="SVGID_49_" gradientUnits="userSpaceOnUse" x1="226.3555" y1="-16.8149" x2="378.6888" y2="-16.8149" gradientTransform="matrix(0.7134 -0.7007 0.7007 0.7134 -15.2058 146.6617)">
		<stop  offset="0" style="stop-color:#0F8075"/>
		<stop  offset="1" style="stop-color:#1D8277"/>
	</linearGradient>
	<path fill="url(#SVGID_49_)" d="M66.049,43.996c0.124,0.013,0.245,0.027,0.369,0.042c0.269,0.036,0.533,0.076,0.798,0.125
		c-0.001,0,0-0.001,0-0.001c-0.264-0.049-0.529-0.091-0.798-0.125C66.296,44.022,66.173,44.009,66.049,43.996
		C66.049,43.995,66.049,43.995,66.049,43.996 M63.279,43.976L63.279,43.976c0.321-0.028,0.646-0.046,0.974-0.053l0,0
		C63.923,43.929,63.6,43.948,63.279,43.976"/>
	
		<linearGradient id="SVGID_50_" gradientUnits="userSpaceOnUse" x1="-236.1172" y1="242.8496" x2="-235.2768" y2="242.8496" gradientTransform="matrix(14.2559 0.1279 0.1279 -14.2559 3393.376 3536.1084)">
		<stop  offset="0" style="stop-color:#0F8075"/>
		<stop  offset="1" style="stop-color:#1D8277"/>
	</linearGradient>
	<path fill="url(#SVGID_50_)" d="M64.252,43.923L64.252,43.923c0.145-0.004,0.294-0.004,0.439-0.004
		c0.459,0.005,0.91,0.031,1.357,0.077c0-0.001,0-0.001,0.001,0c-0.446-0.046-0.899-0.072-1.358-0.077
		C64.545,43.918,64.397,43.919,64.252,43.923"/>
	
		<linearGradient id="SVGID_51_" gradientUnits="userSpaceOnUse" x1="-232.1011" y1="239.873" x2="-231.2595" y2="239.873" gradientTransform="matrix(0.1979 -22.0624 -22.0624 -0.1979 5404.5928 -5009.2827)">
		<stop  offset="0" style="stop-color:#1E8B77"/>
		<stop  offset="0.4784" style="stop-color:#1E9077"/>
		<stop  offset="1" style="stop-color:#1D9579"/>
	</linearGradient>
	<path fill="url(#SVGID_51_)" d="M66.43,45.61c0,0.004,0.001,0.007,0,0.01c0.059,0.152,0.168,0.466,0.288,0.909
		c0.033-0.143,0.067-0.285,0.102-0.429c0.031-0.138,0.062-0.279,0.093-0.419C66.751,45.654,66.592,45.631,66.43,45.61"/>
	
		<linearGradient id="SVGID_52_" gradientUnits="userSpaceOnUse" x1="122.2979" y1="-13.2588" x2="134.2906" y2="-13.2588" gradientTransform="matrix(0.7134 -0.7007 0.7007 0.7134 -15.2058 146.6617)">
		<stop  offset="0" style="stop-color:#1E8B77"/>
		<stop  offset="0.4784" style="stop-color:#1E9077"/>
		<stop  offset="1" style="stop-color:#1D9579"/>
	</linearGradient>
	<path fill="url(#SVGID_52_)" d="M65.385,50.124c0,0-0.084,0.49-0.191,1.123l0.135,0.001L65.385,50.124 M66.074,47.325
		c0,0-0.001,1.355-0.416,3.284c0.006-0.019,0.013-0.038,0.018-0.058c0.068-0.223,0.146-0.494,0.229-0.803
		c0.082-0.311,0.187-0.661,0.28-1.042c0.068-0.276,0.143-0.571,0.221-0.878c-0.009-0.039-0.016-0.081-0.023-0.12
		c-0.048,0.324-0.114,0.657-0.209,0.993L66.074,47.325 M66.43,45.62c0.048,0.506,0.059,1.07,0.004,1.665
		c0.02,0.07,0.036,0.139,0.055,0.208c0.002-0.006,0.003-0.012,0.005-0.019c0.073-0.304,0.148-0.622,0.225-0.945
		C66.598,46.086,66.488,45.772,66.43,45.62"/>
	
		<linearGradient id="SVGID_53_" gradientUnits="userSpaceOnUse" x1="-254.3706" y1="237.748" x2="-253.5325" y2="237.748" gradientTransform="matrix(0.1536 3.8227 3.8227 -0.1536 -803.3726 1055.6631)">
		<stop  offset="0" style="stop-color:#1E8B77"/>
		<stop  offset="0.4784" style="stop-color:#1E9077"/>
		<stop  offset="1" style="stop-color:#1D9579"/>
	</linearGradient>
	<path fill="url(#SVGID_53_)" d="M66.434,47.285c-0.014,0.138-0.03,0.279-0.052,0.423c0.008,0.039,0.015,0.081,0.023,0.12
		c0.026-0.109,0.054-0.222,0.083-0.335C66.47,47.424,66.453,47.355,66.434,47.285"/>
	
		<linearGradient id="SVGID_54_" gradientUnits="userSpaceOnUse" x1="-229.3223" y1="240.3398" x2="-228.4814" y2="240.3398" gradientTransform="matrix(0.1053 -11.7386 -11.7386 -0.1053 2910.3748 -2615.8916)">
		<stop  offset="0" style="stop-color:#1D9579"/>
		<stop  offset="0.4804" style="stop-color:#1E9681"/>
		<stop  offset="1" style="stop-color:#1E9688"/>
	</linearGradient>
	<path fill="url(#SVGID_54_)" d="M63.553,45.521c0.037,0.186,0.074,0.369,0.111,0.55c0.105,0.479,0.205,0.943,0.301,1.38
		c0.102,0.44,0.199,0.856,0.287,1.237c0.088,0.384,0.184,0.736,0.261,1.047c0.078,0.311,0.148,0.583,0.213,0.807
		c0.129,0.446,0.203,0.703,0.203,0.703l0.264,0.002c0.107-0.633,0.191-1.123,0.191-1.123l-0.057,1.124l0.135,0.001
		c0,0,0.071-0.232,0.195-0.64c0.415-1.928,0.416-3.284,0.416-3.284l0.099,1.376c0.095-0.336,0.161-0.669,0.209-0.993
		c0.021-0.144,0.038-0.285,0.052-0.423c0.055-0.595,0.044-1.159-0.004-1.665c0.001-0.003,0-0.006,0-0.01
		c-0.009-0.001-0.017-0.002-0.025-0.003c-0.565-0.075-1.141-0.113-1.727-0.12C64.299,45.484,63.926,45.497,63.553,45.521"/>
	
		<linearGradient id="SVGID_55_" gradientUnits="userSpaceOnUse" x1="-238.8232" y1="238.8682" x2="-237.9742" y2="238.8682" gradientTransform="matrix(-0.1788 19.9284 19.9284 0.1788 -4734.9512 4732.709)">
		<stop  offset="0" style="stop-color:#1F9489"/>
		<stop  offset="0.0408" style="stop-color:#1F9489"/>
		<stop  offset="0.7607" style="stop-color:#1E8D83"/>
		<stop  offset="1" style="stop-color:#1E8D83"/>
	</linearGradient>
	<path fill="url(#SVGID_55_)" d="M67.863,38.591c-0.021,0.061-0.041,0.115-0.06,0.164c-0.068,0.175-0.105,0.269-0.105,0.269
		s0.05-0.088,0.145-0.251c0.015-0.027,0.03-0.057,0.045-0.088C67.882,38.653,67.872,38.623,67.863,38.591"/>
	
		<linearGradient id="SVGID_56_" gradientUnits="userSpaceOnUse" x1="-226.1929" y1="240.793" x2="-225.3529" y2="240.793" gradientTransform="matrix(0.0684 -7.6297 -7.6297 -0.0684 1917.9106 -1666.5669)">
		<stop  offset="0" style="stop-color:#0F8075"/>
		<stop  offset="1" style="stop-color:#1D8277"/>
	</linearGradient>
	<path fill="url(#SVGID_56_)" d="M63.279,43.976c0.087,0.523,0.178,1.041,0.274,1.545c0.373-0.025,0.746-0.037,1.125-0.034
		c0.586,0.007,1.161,0.045,1.727,0.12c0.009,0.001,0.017,0.001,0.025,0.003c0.162,0.021,0.321,0.044,0.482,0.071
		c0.106-0.494,0.207-1.003,0.304-1.518c-0.265-0.049-0.529-0.089-0.798-0.125c-0.124-0.015-0.245-0.03-0.369-0.042
		c-0.447-0.046-0.898-0.072-1.357-0.077c-0.145,0-0.294,0-0.439,0.004C63.924,43.93,63.6,43.948,63.279,43.976"/>
	
		<linearGradient id="SVGID_57_" gradientUnits="userSpaceOnUse" x1="-236.1479" y1="244.7275" x2="-235.3069" y2="244.7275" gradientTransform="matrix(13.6157 0.1221 0.1221 -13.6157 3243.8977 3401.803)">
		<stop  offset="0" style="stop-color:#0F8075"/>
		<stop  offset="1" style="stop-color:#1D8277"/>
	</linearGradient>
	<path fill="url(#SVGID_57_)" d="M64.409,38.173c-0.384,0.378-0.919,0.944-1.527,1.704c-0.016,0.018-0.03,0.038-0.046,0.055
		c-0.101,0.128-0.204,0.261-0.308,0.398c0.037,0.397,0.136,0.805,0.249,1.217c0.139,0.503,0.276,1.014,0.356,1.524
		c0.046,0.302,0.094,0.604,0.145,0.905c0.321-0.028,0.645-0.047,0.974-0.053c0.145-0.004,0.292-0.005,0.439-0.004
		c0.459,0.005,0.912,0.031,1.358,0.077c0.123,0.013,0.246,0.026,0.368,0.042c0.269,0.034,0.534,0.075,0.798,0.125
		c0.065-0.35,0.128-0.702,0.188-1.053c0.09-0.508,0.234-1.017,0.384-1.518c0.056-0.193,0.109-0.384,0.155-0.574
		c-1.564-2.294-2.912-3.415-2.912-3.415S64.799,37.792,64.409,38.173"/>
	<path fill="#006666" d="M65.678,32.142c0,0,0.077,0.065,0.201,0.184c0.128,0.12,0.294,0.297,0.487,0.523
		c0.381,0.449,0.823,1.09,1.167,1.858c0.173,0.383,0.328,0.8,0.439,1.239c0.117,0.44,0.191,0.902,0.175,1.38
		c-0.016,0.477-0.144,0.97-0.29,1.47c-0.149,0.5-0.296,1.01-0.384,1.518c-0.176,1.018-0.369,2.036-0.584,2.991
		c-0.113,0.476-0.224,0.938-0.327,1.374c-0.109,0.437-0.212,0.851-0.309,1.232c-0.092,0.382-0.198,0.73-0.28,1.041
		c-0.083,0.31-0.159,0.581-0.228,0.802c-0.136,0.445-0.214,0.699-0.214,0.699l-0.534-0.004c0,0-0.074-0.255-0.201-0.703
		c-0.064-0.223-0.135-0.494-0.215-0.806c-0.076-0.313-0.173-0.663-0.261-1.045c-0.088-0.384-0.185-0.798-0.286-1.237
		c-0.095-0.439-0.197-0.901-0.301-1.381c-0.198-0.959-0.372-1.979-0.531-3c-0.08-0.509-0.217-1.02-0.357-1.524
		c-0.136-0.502-0.255-0.999-0.262-1.475c-0.01-0.479,0.074-0.939,0.199-1.376c0.121-0.438,0.281-0.85,0.463-1.231
		c0.354-0.763,0.812-1.394,1.199-1.838c0.198-0.22,0.366-0.393,0.495-0.512c0.127-0.119,0.203-0.182,0.203-0.182L65.678,32.142z"/>
	
		<linearGradient id="SVGID_58_" gradientUnits="userSpaceOnUse" x1="-242.7231" y1="238.4326" x2="-241.882" y2="238.4326" gradientTransform="matrix(-0.0864 9.6268 9.6268 0.0864 -2250.1826 2350.946)">
		<stop  offset="0" style="stop-color:#FBDDDF"/>
		<stop  offset="0.0408" style="stop-color:#FBDBDB"/>
		<stop  offset="0.7607" style="stop-color:#00A79B"/>
		<stop  offset="1" style="stop-color:#00A79B"/>
	</linearGradient>
	<path fill="url(#SVGID_58_)" d="M65.064,45.887c0,0,0.02-0.044,0.059-0.128c0.033-0.086,0.08-0.212,0.148-0.368
		c0.059-0.16,0.127-0.354,0.209-0.578c0.07-0.225,0.149-0.479,0.236-0.756c0.087-0.277,0.153-0.584,0.242-0.905
		c0.097-0.317,0.146-0.664,0.225-1.015c0.036-0.177,0.072-0.354,0.112-0.536c0.026-0.182,0.051-0.368,0.077-0.555
		c0.027-0.187,0.057-0.375,0.084-0.563c0.03-0.189,0.059-0.378,0.066-0.57c0.034-0.381,0.065-0.763,0.097-1.138l0.023-0.273
		l0.003-0.281c0.002-0.186,0.004-0.37,0.007-0.551c0.001-0.181,0.004-0.358,0.006-0.532c-0.005-0.171-0.023-0.337-0.034-0.501
		c-0.012-0.163-0.023-0.322-0.035-0.476c-0.012-0.155-0.012-0.304-0.042-0.445c-0.049-0.283-0.086-0.545-0.118-0.778
		c-0.015-0.116-0.034-0.225-0.062-0.323c-0.024-0.099-0.046-0.19-0.067-0.271c-0.079-0.33-0.118-0.521-0.118-0.521
		s0.075,0.181,0.197,0.501c0.031,0.081,0.064,0.171,0.101,0.267c0.041,0.097,0.073,0.205,0.102,0.319
		c0.064,0.23,0.136,0.489,0.205,0.776c0.074,0.285,0.103,0.603,0.153,0.937c0.021,0.166,0.051,0.339,0.067,0.513
		c0.006,0.175,0.012,0.352,0.017,0.534c0.006,0.181,0.011,0.363,0.015,0.55l0.009,0.28c-0.002,0.109-0.013,0.195-0.019,0.292
		c-0.027,0.382-0.056,0.77-0.084,1.157c-0.013,0.194-0.044,0.387-0.074,0.577c-0.031,0.193-0.063,0.384-0.093,0.574
		c-0.032,0.188-0.064,0.376-0.095,0.561c-0.046,0.182-0.092,0.364-0.136,0.542c-0.091,0.355-0.166,0.701-0.282,1.02
		c-0.109,0.32-0.203,0.623-0.317,0.897c-0.113,0.273-0.216,0.523-0.318,0.74c-0.109,0.216-0.204,0.404-0.284,0.559
		c-0.082,0.153-0.156,0.269-0.203,0.349C65.09,45.846,65.064,45.887,65.064,45.887z"/>
</g>
</svg>
