<?xml version="1.0" encoding="utf-8"?>
<!-- Generator: Adobe Illustrator 16.0.0, SVG Export Plug-In . SVG Version: 6.00 Build 0)  -->
<!DOCTYPE svg PUBLIC "-//W3C//DTD SVG 1.1//EN" "http://www.w3.org/Graphics/SVG/1.1/DTD/svg11.dtd">
<svg version="1.1" id="Layer_1" xmlns="http://www.w3.org/2000/svg" xmlns:xlink="http://www.w3.org/1999/xlink" x="0px" y="0px"
	 width="128px" height="128px" viewBox="0 0 128 128" enable-background="new 0 0 128 128" xml:space="preserve">
<path fill="#293438" d="M64,3.294c-33.47,0-60.704,27.232-60.704,60.704S30.53,124.706,64,124.706
	c33.473,0,60.704-27.236,60.704-60.708S97.473,3.294,64,3.294z M9.424,63.998c0-7.915,1.695-15.422,4.726-22.21l26.031,71.325
	C21.977,104.271,9.424,85.599,9.424,63.998z M64,118.577c-5.357,0-10.528-0.781-15.415-2.219L64.96,68.773l16.776,45.962
	c0.111,0.267,0.241,0.515,0.389,0.748C76.453,117.484,70.357,118.577,64,118.577z M71.521,38.407
	c3.283-0.17,6.243-0.515,6.243-0.515c2.938-0.351,2.597-4.67-0.348-4.5c0,0-8.838,0.695-14.546,0.695
	c-5.366,0-14.376-0.695-14.376-0.695c-2.94-0.173-3.287,4.322-0.347,4.5c0,0,2.787,0.345,5.727,0.515l8.501,23.303L50.432,97.528
	L30.563,38.407c3.29-0.17,6.245-0.515,6.245-0.515c2.932-0.351,2.595-4.67-0.348-4.5c0,0-8.84,0.695-14.552,0.695
	c-1.022,0-2.23-0.024-3.512-0.068C28.163,19.202,44.936,9.422,64,9.422c14.208,0,27.144,5.428,36.857,14.329
	c-0.237-0.018-0.466-0.05-0.711-0.05c-5.357,0-9.166,4.67-9.166,9.69c0,4.5,2.597,8.302,5.364,12.801
	c2.076,3.63,4.502,8.302,4.502,15.054c0,4.666-1.797,10.087-4.153,17.642l-5.446,18.186L71.521,38.407z M111.892,37.816
	c4.26,7.777,6.684,16.693,6.684,26.182c0,20.141-10.911,37.71-27.137,47.181l16.674-48.202c3.113-7.784,4.149-14.01,4.149-19.542
	C112.262,41.419,112.13,39.557,111.892,37.816z"/>
</svg>
