<?xml version="1.0" encoding="utf-8"?>
<!-- Generator: Adobe Illustrator 16.0.0, SVG Export Plug-In . SVG Version: 6.00 Build 0)  -->
<!DOCTYPE svg PUBLIC "-//W3C//DTD SVG 1.1//EN" "http://www.w3.org/Graphics/SVG/1.1/DTD/svg11.dtd">
<svg version="1.1" id="Layer_1" xmlns="http://www.w3.org/2000/svg" xmlns:xlink="http://www.w3.org/1999/xlink" x="0px" y="0px"
	 width="65px" height="25px" viewBox="0 0 65 25" enable-background="new 0 0 65 25" xml:space="preserve">
<g>
	<path fill="#231F20" d="M63.07,19.797c0,1.493-1.209,2.703-2.702,2.703H4.633c-1.493,0-2.703-1.21-2.703-2.703V5.203
		C1.93,3.71,3.14,2.5,4.633,2.5h55.735c1.493,0,2.702,1.21,2.702,2.703V19.797z"/>
	<path fill="#FFFFFF" d="M12.489,5.921h-4.98c-0.597,0-1.081,0.483-1.081,1.08v11.034c0,0.597,0.484,1.081,1.081,1.081h4.98
		c0.597,0,1.081-0.484,1.081-1.081V7.001C13.57,6.404,13.086,5.921,12.489,5.921z M9.999,18.322c-0.397,0-0.72-0.322-0.72-0.72
		s0.322-0.72,0.72-0.72c0.398,0,0.72,0.322,0.72,0.72S10.397,18.322,9.999,18.322z M12.722,16.532H7.277V8.394h5.444V16.532z"/>
	<g>
		<path fill="#FFFFFF" d="M17.649,7.887l-0.303,0.917h-0.389l0.989-2.915h0.455l0.994,2.915h-0.402l-0.312-0.917H17.649z
			 M18.605,7.593l-0.29-0.839c-0.061-0.19-0.104-0.363-0.147-0.532h-0.013c-0.039,0.169-0.086,0.351-0.143,0.527l-0.285,0.844
			H18.605z"/>
		<path fill="#FFFFFF" d="M19.786,6.71l0.41,1.173c0.069,0.194,0.126,0.367,0.169,0.54h0.014c0.047-0.173,0.107-0.346,0.177-0.54
			l0.407-1.173h0.397l-0.822,2.094h-0.363L19.38,6.71H19.786z"/>
		<path fill="#FFFFFF" d="M23.111,8.302c0,0.182,0.009,0.359,0.031,0.502h-0.342L22.766,8.54h-0.013
			c-0.112,0.164-0.342,0.312-0.641,0.312c-0.424,0-0.64-0.299-0.64-0.602c0-0.506,0.45-0.782,1.259-0.778V7.429
			c0-0.173-0.048-0.489-0.476-0.484c-0.199,0-0.402,0.056-0.55,0.155l-0.087-0.255c0.174-0.108,0.429-0.182,0.692-0.182
			c0.645,0,0.8,0.437,0.8,0.856V8.302z M22.739,7.735c-0.415-0.009-0.886,0.064-0.886,0.472c0,0.251,0.164,0.363,0.354,0.363
			c0.276,0,0.454-0.173,0.515-0.351c0.013-0.039,0.017-0.082,0.017-0.121V7.735z"/>
		<path fill="#FFFFFF" d="M23.881,6.325c-0.143,0-0.237-0.111-0.237-0.246c0-0.134,0.1-0.242,0.246-0.242
			c0.147,0,0.242,0.108,0.242,0.242c0,0.135-0.095,0.246-0.246,0.246H23.881z M23.7,8.804V6.71h0.38v2.094H23.7z"/>
		<path fill="#FFFFFF" d="M24.689,5.733h0.381v3.07h-0.381V5.733z"/>
		<path fill="#FFFFFF" d="M27.155,8.302c0,0.182,0.009,0.359,0.03,0.502h-0.343L26.809,8.54h-0.013
			c-0.112,0.164-0.342,0.312-0.641,0.312c-0.423,0-0.64-0.299-0.64-0.602c0-0.506,0.45-0.782,1.259-0.778V7.429
			c0-0.173-0.048-0.489-0.476-0.484C26.1,6.944,25.896,7,25.75,7.1l-0.087-0.255c0.173-0.108,0.429-0.182,0.691-0.182
			c0.645,0,0.801,0.437,0.801,0.856V8.302z M26.783,7.735c-0.415-0.009-0.887,0.064-0.887,0.472c0,0.251,0.164,0.363,0.354,0.363
			c0.277,0,0.454-0.173,0.515-0.351c0.014-0.039,0.018-0.082,0.018-0.121V7.735z"/>
		<path fill="#FFFFFF" d="M27.742,5.733h0.381v1.311h0.009c0.135-0.233,0.376-0.381,0.714-0.381c0.519,0,0.882,0.433,0.882,1.063
			c0,0.753-0.476,1.125-0.942,1.125c-0.303,0-0.541-0.117-0.7-0.394h-0.01l-0.021,0.346h-0.328c0.014-0.143,0.017-0.354,0.017-0.54
			V5.733z M28.123,7.965c0,0.047,0.005,0.095,0.014,0.139c0.073,0.263,0.298,0.445,0.57,0.445c0.402,0,0.636-0.324,0.636-0.805
			c0-0.424-0.216-0.782-0.622-0.782c-0.26,0-0.502,0.182-0.575,0.467c-0.014,0.048-0.022,0.1-0.022,0.16V7.965z"/>
		<path fill="#FFFFFF" d="M30.182,5.733h0.381v3.07h-0.381V5.733z"/>
		<path fill="#FFFFFF" d="M31.389,7.822c0.008,0.515,0.332,0.727,0.713,0.727c0.273,0,0.441-0.048,0.58-0.104l0.068,0.269
			c-0.134,0.061-0.367,0.134-0.7,0.134c-0.64,0-1.029-0.428-1.029-1.055c0-0.636,0.376-1.134,0.986-1.134
			c0.683,0,0.86,0.602,0.86,0.986c0,0.078-0.004,0.139-0.013,0.182L31.389,7.822z M32.5,7.55c0.004-0.238-0.101-0.619-0.523-0.619
			c-0.39,0-0.554,0.354-0.584,0.619H32.5z"/>
		<path fill="#FFFFFF" d="M35.064,8.852c-0.563,0-1.004-0.415-1.004-1.077c0-0.701,0.463-1.111,1.038-1.111
			c0.601,0,1.007,0.437,1.007,1.072c0,0.778-0.54,1.116-1.037,1.116H35.064z M35.077,8.566c0.363,0,0.635-0.342,0.635-0.818
			c0-0.354-0.177-0.8-0.626-0.8c-0.446,0-0.641,0.415-0.641,0.813c0,0.458,0.26,0.805,0.627,0.805H35.077z"/>
		<path fill="#FFFFFF" d="M36.564,7.277c0-0.221-0.005-0.394-0.018-0.567h0.338l0.021,0.342h0.008
			c0.104-0.194,0.347-0.389,0.692-0.389c0.29,0,0.74,0.173,0.74,0.891v1.25h-0.382V7.597c0-0.337-0.125-0.622-0.484-0.622
			c-0.246,0-0.44,0.177-0.51,0.389c-0.018,0.048-0.025,0.117-0.025,0.178v1.263h-0.381V7.277z"/>
		<path fill="#FFFFFF" d="M40.296,6.209V6.71h0.545V7h-0.545v1.129c0,0.26,0.074,0.407,0.285,0.407c0.104,0,0.165-0.009,0.222-0.026
			l0.017,0.29c-0.073,0.025-0.19,0.052-0.337,0.052c-0.178,0-0.32-0.061-0.411-0.16c-0.104-0.117-0.147-0.303-0.147-0.55V7H39.6
			V6.71h0.324V6.325L40.296,6.209z"/>
		<path fill="#FFFFFF" d="M41.247,5.733h0.381v1.306h0.009c0.061-0.108,0.155-0.207,0.272-0.268c0.112-0.069,0.246-0.108,0.39-0.108
			c0.28,0,0.73,0.173,0.73,0.896v1.245h-0.381V7.602c0-0.342-0.125-0.623-0.484-0.623c-0.246,0-0.437,0.173-0.51,0.381
			c-0.021,0.052-0.026,0.108-0.026,0.182v1.263h-0.381V5.733z"/>
		<path fill="#FFFFFF" d="M43.842,7.822c0.009,0.515,0.333,0.727,0.714,0.727c0.272,0,0.441-0.048,0.58-0.104l0.068,0.269
			c-0.134,0.061-0.367,0.134-0.7,0.134c-0.641,0-1.029-0.428-1.029-1.055c0-0.636,0.376-1.134,0.986-1.134
			c0.683,0,0.86,0.602,0.86,0.986c0,0.078-0.005,0.139-0.013,0.182L43.842,7.822z M44.953,7.55c0.004-0.238-0.1-0.619-0.523-0.619
			c-0.389,0-0.554,0.354-0.583,0.619H44.953z"/>
		<path fill="#FFFFFF" d="M46.848,6.325c-0.143,0-0.238-0.111-0.238-0.246c0-0.134,0.1-0.242,0.247-0.242
			c0.146,0,0.242,0.108,0.242,0.242c0,0.135-0.096,0.246-0.247,0.246H46.848z M46.666,8.804V6.71h0.38v2.094H46.666z"/>
		<path fill="#FFFFFF" d="M47.669,5.928c0.182-0.034,0.42-0.061,0.723-0.061c0.371,0,0.644,0.086,0.816,0.242
			c0.16,0.139,0.26,0.351,0.26,0.609c0,0.265-0.078,0.472-0.229,0.623c-0.198,0.212-0.523,0.32-0.891,0.32
			c-0.112,0-0.216-0.005-0.303-0.025v1.167h-0.376V5.928z M48.045,7.329c0.082,0.021,0.19,0.03,0.312,0.03
			c0.459,0,0.731-0.225,0.731-0.618c0-0.39-0.272-0.575-0.688-0.575c-0.164,0-0.289,0.017-0.354,0.03V7.329z"/>
		<path fill="#FFFFFF" d="M49.913,5.733h0.381v1.306h0.009c0.061-0.108,0.156-0.207,0.272-0.268c0.112-0.069,0.247-0.108,0.39-0.108
			c0.281,0,0.73,0.173,0.73,0.896v1.245h-0.38V7.602c0-0.342-0.126-0.623-0.485-0.623c-0.246,0-0.437,0.173-0.51,0.381
			c-0.021,0.052-0.026,0.108-0.026,0.182v1.263h-0.381V5.733z"/>
		<path fill="#FFFFFF" d="M53.145,8.852c-0.563,0-1.004-0.415-1.004-1.077c0-0.701,0.463-1.111,1.038-1.111
			c0.601,0,1.007,0.437,1.007,1.072c0,0.778-0.54,1.116-1.037,1.116H53.145z M53.157,8.566c0.362,0,0.636-0.342,0.636-0.818
			c0-0.354-0.178-0.8-0.628-0.8c-0.444,0-0.64,0.415-0.64,0.813c0,0.458,0.26,0.805,0.627,0.805H53.157z"/>
		<path fill="#FFFFFF" d="M54.645,7.277c0-0.221-0.005-0.394-0.018-0.567h0.338l0.021,0.342h0.009
			c0.104-0.194,0.346-0.389,0.691-0.389c0.29,0,0.739,0.173,0.739,0.891v1.25h-0.38V7.597c0-0.337-0.126-0.622-0.484-0.622
			c-0.247,0-0.441,0.177-0.511,0.389c-0.017,0.048-0.026,0.117-0.026,0.178v1.263h-0.38V7.277z"/>
		<path fill="#FFFFFF" d="M57.239,7.822c0.009,0.515,0.333,0.727,0.714,0.727c0.271,0,0.44-0.048,0.579-0.104l0.069,0.269
			c-0.135,0.061-0.368,0.134-0.701,0.134c-0.64,0-1.029-0.428-1.029-1.055c0-0.636,0.377-1.134,0.986-1.134
			c0.684,0,0.86,0.602,0.86,0.986c0,0.078-0.004,0.139-0.013,0.182L57.239,7.822z M58.351,7.55c0.004-0.238-0.1-0.619-0.523-0.619
			c-0.39,0-0.554,0.354-0.584,0.619H58.351z"/>
	</g>
	<g>
		<path fill="#FFFFFF" d="M19.441,10.778l-2.564,7.548h1.174l0.766-2.317H21.3l0.787,2.317h1.207l-2.576-7.548H19.441z M20.05,12.02
			c0.086,0.337,0.18,0.687,0.3,1.064l0.691,2.001h-1.967l0.682-2.014C19.859,12.744,19.958,12.392,20.05,12.02z"/>
		<path fill="#FFFFFF" d="M26.611,12.735c-0.777,0-1.4,0.3-1.815,0.87l-0.045-0.751h-1.045l0.006,0.097
			c0.031,0.468,0.044,0.982,0.044,1.722v5.817h1.142v-2.715c0.354,0.424,0.921,0.671,1.562,0.671c0.667,0,1.282-0.262,1.73-0.736
			c0.5-0.528,0.764-1.288,0.764-2.196c0-0.802-0.229-1.496-0.663-2.006C27.864,13.01,27.269,12.735,26.611,12.735z M26.327,13.681
			c1.018,0,1.474,0.942,1.474,1.877c0,1.205-0.581,1.954-1.517,1.954c-0.64,0-1.191-0.435-1.346-1.06
			c-0.026-0.097-0.041-0.226-0.041-0.37v-0.918c0-0.083,0.019-0.185,0.037-0.282c0.005-0.031,0.012-0.063,0.017-0.093
			C25.121,14.136,25.687,13.681,26.327,13.681z"/>
		<path fill="#FFFFFF" d="M32.492,12.735c-0.777,0-1.4,0.3-1.815,0.87l-0.046-0.751h-1.044l0.006,0.097
			c0.031,0.468,0.044,0.982,0.044,1.722v5.817h1.143v-2.715c0.354,0.424,0.919,0.671,1.561,0.671c0.667,0,1.282-0.262,1.73-0.736
			c0.5-0.528,0.764-1.288,0.764-2.196c0-0.802-0.229-1.496-0.663-2.006C33.745,13.01,33.149,12.735,32.492,12.735z M32.208,13.681
			c1.018,0,1.474,0.942,1.474,1.877c0,1.205-0.582,1.954-1.518,1.954c-0.638,0-1.191-0.435-1.345-1.06
			c-0.026-0.097-0.04-0.226-0.04-0.37v-0.918c0-0.084,0.018-0.185,0.036-0.283c0.006-0.03,0.011-0.062,0.017-0.092
			C31.002,14.136,31.567,13.681,32.208,13.681z"/>
		<path fill="#FFFFFF" d="M39.859,13.977c-1.065-0.413-1.407-0.737-1.407-1.337c0-0.506,0.401-1.015,1.298-1.015
			c0.74,0,1.214,0.257,1.341,0.337l0.097,0.06l0.322-0.953l-0.063-0.037c-0.191-0.112-0.736-0.373-1.663-0.373
			c-1.456,0-2.474,0.859-2.474,2.09c0,0.993,0.637,1.687,2.005,2.184c0.969,0.362,1.329,0.733,1.329,1.369
			c0,0.72-0.556,1.167-1.451,1.167c-0.583,0-1.183-0.17-1.646-0.467l-0.1-0.063l-0.307,0.976l0.057,0.037
			c0.431,0.288,1.242,0.496,1.93,0.496c1.963,0,2.659-1.197,2.659-2.222C41.786,15.168,41.228,14.517,39.859,13.977z"/>
		<path fill="#FFFFFF" d="M43.842,11.555l-1.12,0.352v0.948h-0.82v0.913h0.82v2.796c0,0.676,0.129,1.149,0.396,1.449
			c0.255,0.279,0.647,0.434,1.104,0.434c0.432,0,0.738-0.085,0.883-0.137l0.063-0.022l-0.055-0.914l-0.109,0.033
			c-0.144,0.045-0.292,0.062-0.531,0.062c-0.442,0-0.631-0.28-0.631-0.938v-2.763h1.377v-0.913h-1.377V11.555z"/>
		<path fill="#FFFFFF" d="M48.049,12.735c-1.598,0-2.713,1.192-2.713,2.898c0,1.656,1.079,2.813,2.626,2.813h0.011
			c1.307,0,2.713-0.911,2.713-2.91c0-0.813-0.251-1.512-0.728-2.021C49.479,13.005,48.819,12.735,48.049,12.735z M48.017,13.637
			c1.027,0,1.494,1.001,1.494,1.933c0,1.145-0.638,1.976-1.517,1.976h-0.011c-0.866,0-1.495-0.817-1.495-1.943
			C46.488,14.624,46.961,13.637,48.017,13.637z"/>
		<path fill="#FFFFFF" d="M54.184,12.788l-0.068-0.018c-0.101-0.025-0.183-0.035-0.284-0.035c-0.597,0-1.133,0.352-1.432,0.919
			l-0.033-0.8h-1.025l0.007,0.097c0.03,0.452,0.043,0.959,0.043,1.645l-0.011,3.73h1.143v-2.911c0-0.158,0.011-0.308,0.031-0.442
			c0.129-0.699,0.601-1.15,1.201-1.15c0.117,0,0.209,0.009,0.307,0.019l0.122,0.013V12.788z"/>
		<path fill="#FFFFFF" d="M56.752,12.724c-1.521,0-2.583,1.215-2.583,2.954c0,1.675,1.057,2.758,2.691,2.758
			c0.86,0,1.458-0.189,1.809-0.347l0.068-0.031l-0.219-0.852l-0.096,0.039c-0.312,0.126-0.725,0.256-1.431,0.256
			c-0.496,0-1.641-0.164-1.711-1.656l3.687,0.012l0.015-0.073c0.023-0.116,0.034-0.272,0.034-0.477
			C59.017,14.115,58.424,12.724,56.752,12.724z M56.676,13.593c0.348,0,0.63,0.107,0.838,0.32c0.328,0.334,0.386,0.826,0.394,1.063
			h-2.604C55.408,14.316,55.821,13.593,56.676,13.593z"/>
	</g>
</g>
</svg>
