<?xml version="1.0" encoding="utf-8"?>
<!-- Generator: Adobe Illustrator 16.0.0, SVG Export Plug-In . SVG Version: 6.00 Build 0)  -->
<!DOCTYPE svg PUBLIC "-//W3C//DTD SVG 1.1//EN" "http://www.w3.org/Graphics/SVG/1.1/DTD/svg11.dtd">
<svg version="1.1" id="Layer_1" xmlns="http://www.w3.org/2000/svg" xmlns:xlink="http://www.w3.org/1999/xlink" x="0px" y="0px"
	 width="30px" height="30px" viewBox="35 0 30 30" enable-background="new 35 0 30 30" xml:space="preserve">
<g transform="translate(0.000000,542.000000) scale(0.100000,-0.100000)">
	<path fill="#FFFFFF" d="M477.808,5399.521c-7.676-11.797-14.854-23.311-17.988-28.965c-0.791-1.406-2.783-4.902-4.424-7.832
		c-3.662-6.553-12.803-25.293-15.234-31.387c-1.025-2.48-2.139-5.244-2.549-6.211c-4.395-10.273-12.129-36.357-13.594-45.723
		c-0.176-1.24-0.469-2.432-0.498-2.588c-0.117-0.176-0.732-3.457-1.436-7.344c-0.615-3.838-1.289-7.617-1.406-8.408
		c-1.465-8.086-1.465-38.555-0.059-42.979c0.176-0.439,0.41-1.904,0.586-3.311c0.615-5.479,2.52-13.447,4.951-20.596
		c9.258-27.451,27.393-46.143,52.939-54.658c3.281-1.055,7.471-2.256,9.316-2.578c1.875-0.352,3.955-0.732,4.629-0.85
		c2.842-0.557,9.375-1.025,15.415-1.084c35.625-0.322,62.373,15.166,69.961,40.654c2.578,8.613,2.695,20.186,0.264,30.645
		c-0.439,2.021-0.938,4.277-1.113,5.01c-1.523,7.119-6.563,18.691-11.748,27.041c-7.559,12.207-14.854,20.85-35.566,42.178
		c-7.852,8.066-14.883,15.352-15.615,16.143c-0.762,0.85-2.285,2.49-3.34,3.662c-17.583,19.199-27.515,36.016-31.616,53.398
		c-1.641,7.002-1.934,9.775-1.992,19.365c0,8.809,0.293,12.031,1.699,20.039c0.498,2.656,1.025,5.703,1.201,6.768
		c0.146,1.074,0.439,2.158,0.615,2.373c0.322,0.615,0.732,2.715,0.439,2.715C481.528,5405,479.8,5402.519,477.808,5399.521z"/>
</g>
</svg>
