<?xml version="1.0" encoding="utf-8"?>
<!-- Generator: Adobe Illustrator 16.0.0, SVG Export Plug-In . SVG Version: 6.00 Build 0)  -->
<!DOCTYPE svg PUBLIC "-//W3C//DTD SVG 1.1//EN" "http://www.w3.org/Graphics/SVG/1.1/DTD/svg11.dtd">
<svg version="1.1" id="Layer_1" xmlns="http://www.w3.org/2000/svg" xmlns:xlink="http://www.w3.org/1999/xlink" x="0px" y="0px"
	 width="30px" height="30px" viewBox="0 0 30 30" enable-background="new 0 0 30 30" xml:space="preserve">
<g transform="translate(0.000000,542.000000) scale(0.100000,-0.100000)">
	<path fill="#7C1F8C" d="M127.808,5399.521c-7.676-11.797-14.863-23.311-17.988-28.965c-0.801-1.406-2.793-4.902-4.434-7.832
		c-3.652-6.553-12.793-25.293-15.234-31.387c-1.016-2.48-2.129-5.244-2.539-6.211c-4.395-10.273-12.129-36.357-13.594-45.723
		c-0.176-1.24-0.469-2.432-0.508-2.588c-0.117-0.176-0.723-3.457-1.426-7.344c-0.625-3.838-1.289-7.617-1.406-8.408
		c-1.465-8.086-1.465-38.564-0.059-42.979c0.176-0.439,0.41-1.904,0.586-3.32c0.605-5.469,2.52-13.438,4.941-20.586
		c9.258-27.461,27.402-46.152,52.949-54.668c3.281-1.055,7.461-2.246,9.316-2.578c1.875-0.352,3.945-0.723,4.629-0.84
		c2.832-0.566,9.375-1.035,15.415-1.094c35.625-0.313,62.373,15.176,69.961,40.664c2.578,8.613,2.695,20.176,0.264,30.645
		c-0.439,2.012-0.938,4.277-1.113,5c-1.523,7.129-6.563,18.691-11.748,27.051c-7.559,12.207-14.854,20.84-35.566,42.173
		c-7.852,8.066-14.883,15.352-15.615,16.143c-0.762,0.85-2.285,2.49-3.34,3.662c-17.593,19.199-27.515,36.016-31.616,53.398
		c-1.641,7.002-1.934,9.775-1.992,19.365c0,8.809,0.293,12.031,1.699,20.039c0.488,2.656,1.016,5.703,1.191,6.768
		c0.156,1.074,0.449,2.158,0.625,2.373c0.313,0.615,0.723,2.715,0.43,2.715C131.519,5405,129.8,5402.519,127.808,5399.521z"/>
</g>
</svg>
