<?xml version="1.0" encoding="utf-8"?>
<!-- Generator: Adobe Illustrator 16.0.0, SVG Export Plug-In . SVG Version: 6.00 Build 0)  -->
<!DOCTYPE svg PUBLIC "-//W3C//DTD SVG 1.1//EN" "http://www.w3.org/Graphics/SVG/1.1/DTD/svg11.dtd">
<svg version="1.1" id="Layer_1" xmlns="http://www.w3.org/2000/svg" xmlns:xlink="http://www.w3.org/1999/xlink" x="0px" y="0px"
	 width="200px" height="50px" viewBox="0 0 200 50" enable-background="new 0 0 200 50" xml:space="preserve">
<g id="Page-1">
	<g id="Artboard-24" transform="translate(-623.000000, -2372.000000)">
		<g id="Group" transform="translate(622.000000, 2372.000000)">
			<path id="Fill-1-Copy" fill="#FFFFFF" d="M17.503,21.931l3.672-5.125c0.694-0.965,1.589-1.447,2.688-1.447
				c0.896,0,1.672,0.306,2.327,0.918c0.656,0.614,0.983,1.348,0.983,2.2c0,0.631-0.173,1.19-0.52,1.672l-3.31,4.636l4.046,4.941
				c0.406,0.492,0.608,1.068,0.608,1.728c0,0.873-0.318,1.623-0.954,2.247c-0.637,0.628-1.408,0.939-2.313,0.939
				c-0.992,0-1.749-0.311-2.269-0.933l-4.958-5.96v3.287c0,0.938-0.168,1.666-0.505,2.188c-0.617,0.945-1.513,1.418-2.688,1.418
				c-1.07,0-1.899-0.348-2.486-1.043c-0.55-0.64-0.824-1.49-0.824-2.547V18.868c0-1.004,0.279-1.829,0.838-2.479
				c0.588-0.685,1.397-1.03,2.428-1.03c0.983,0,1.801,0.345,2.457,1.03c0.366,0.381,0.597,0.766,0.694,1.155
				c0.058,0.243,0.086,0.693,0.086,1.352V21.931"/>
			<path id="Fill-2-Copy" fill="#FFFFFF" d="M35.737,19.244v11.792c0,1.021-0.274,1.862-0.824,2.521
				c-0.587,0.725-1.402,1.086-2.442,1.086c-0.954,0-1.759-0.338-2.414-1.017c-0.55-0.565-0.825-1.429-0.825-2.59V19.244
				c0-1.319,0.275-2.275,0.825-2.868c0.626-0.679,1.431-1.017,2.414-1.017c0.983,0,1.787,0.333,2.413,1.001
				C35.453,16.972,35.737,17.935,35.737,19.244"/>
			<path id="Fill-3-Copy" fill="#FFFFFF" d="M47.738,14.982c2.399-0.008,4.605,0.766,6.62,2.326c1.579,1.224,2.37,2.493,2.37,3.801
				c0,1.115-0.482,1.978-1.445,2.59c-0.55,0.354-1.147,0.529-1.792,0.529c-0.53,0-1.037-0.12-1.518-0.363
				c-0.203-0.101-0.703-0.571-1.504-1.406c-0.742-0.78-1.672-1.169-2.789-1.169c-1.079,0-1.983,0.359-2.71,1.08
				c-0.727,0.717-1.091,1.597-1.091,2.638c0,1.029,0.364,1.904,1.091,2.624c0.728,0.72,1.626,1.081,2.696,1.081
				c0.885,0,1.71-0.289,2.471-0.863c0.472-0.438,0.94-0.873,1.402-1.31c0.5-0.418,1.137-0.628,1.908-0.628
				c0.887,0,1.655,0.3,2.305,0.898s0.976,1.326,0.976,2.178c0,1.162-0.708,2.334-2.125,3.523c-1.984,1.672-4.278,2.506-6.879,2.506
				c-1.61,0-3.128-0.328-4.553-0.988c-1.803-0.834-3.236-2.063-4.3-3.684c-1.065-1.617-1.597-3.39-1.597-5.31
				c0-2.879,1.108-5.329,3.323-7.354C42.554,15.902,44.934,15.002,47.738,14.982"/>
			<path id="Fill-4-Copy" fill="#FFFFFF" d="M64.729,21.931l3.671-5.125c0.694-0.965,1.59-1.447,2.688-1.447
				c0.896,0,1.671,0.306,2.327,0.918c0.654,0.614,0.983,1.348,0.983,2.2c0,0.631-0.173,1.19-0.521,1.672l-3.31,4.636l4.046,4.941
				c0.406,0.492,0.608,1.068,0.608,1.728c0,0.873-0.318,1.623-0.955,2.247c-0.635,0.628-1.406,0.939-2.312,0.939
				c-0.993,0-1.749-0.311-2.27-0.933l-4.957-5.96v3.287c0,0.938-0.169,1.666-0.507,2.188c-0.616,0.945-1.513,1.418-2.688,1.418
				c-1.07,0-1.899-0.348-2.486-1.043c-0.549-0.641-0.824-1.49-0.824-2.548V18.868c0-1.004,0.279-1.829,0.838-2.479
				c0.588-0.685,1.396-1.03,2.428-1.03c0.983,0,1.801,0.345,2.457,1.03c0.367,0.381,0.598,0.766,0.694,1.155
				c0.058,0.243,0.087,0.693,0.087,1.352v3.035"/>
			<path id="Fill-5-Copy" fill="#2ADE73" d="M79.302,27.318c0.723,0,1.493,0.308,2.313,0.92c1.021,0.77,1.72,1.154,2.096,1.154
				c0.559,0,0.839-0.279,0.839-0.834c0-0.31-0.164-0.567-0.492-0.781c-0.174-0.11-1.147-0.469-2.92-1.071
				c-2.9-0.983-4.35-2.804-4.35-5.458c0-2.004,0.766-3.587,2.298-4.748c1.339-1.011,2.997-1.517,4.972-1.517
				c1.705,0,3.189,0.393,4.452,1.177c1.263,0.784,1.893,1.793,1.893,3.029c0,0.742-0.238,1.362-0.715,1.856
				c-0.477,0.499-1.097,0.746-1.857,0.746c-0.799,0-1.686-0.365-2.66-1.099c-0.606-0.456-1.064-0.682-1.372-0.682
				c-0.531,0-0.796,0.249-0.796,0.751c0,0.474,0.656,0.904,1.965,1.295c1.812,0.547,3.214,1.215,4.207,2.004
				c1.321,1.058,1.98,2.543,1.98,4.456c0,2.082-0.742,3.705-2.225,4.873c-1.379,1.086-3.171,1.629-5.378,1.629
				c-2.206,0-4.033-0.564-5.477-1.697c-1.157-0.898-1.735-1.952-1.735-3.16c0-0.807,0.284-1.479,0.853-2.018
				C77.76,27.604,78.463,27.328,79.302,27.318"/>
			<path id="Fill-6-Copy" fill="#2ADE73" d="M96.967,21.333h-1.719c-0.956,0-1.745-0.251-2.371-0.754
				c-0.665-0.537-0.998-1.256-0.998-2.156c0-0.539,0.158-1.058,0.471-1.552c0.313-0.499,0.717-0.851,1.214-1.06
				c0.496-0.208,1.672-0.314,3.532-0.314h6.563c1.608,0,2.647,0.093,3.123,0.279c0.519,0.203,0.94,0.555,1.265,1.05
				c0.322,0.499,0.482,1.021,0.482,1.568c0,0.863-0.357,1.615-1.068,2.255c-0.511,0.456-1.343,0.683-2.501,0.683h-1.487V30.8
				c0,1.029-0.184,1.827-0.551,2.396c-0.615,0.945-1.507,1.42-2.672,1.42c-1.167,0-2.063-0.432-2.691-1.295
				c-0.393-0.539-0.591-1.354-0.591-2.451L96.967,21.333"/>
			<path id="Fill-7-Copy" fill="#2ADE73" d="M112.841,32.039c-0.31,0.706-0.628,1.229-0.956,1.572
				c-0.654,0.688-1.451,1.029-2.383,1.029c-1.146,0-2.038-0.445-2.675-1.336c-0.377-0.527-0.563-1.123-0.563-1.779
				c0-0.551,0.135-1.104,0.405-1.658l6.172-12.656c0.597-1.236,1.593-1.852,2.99-1.852c1.417,0,2.433,0.636,3.05,1.907l6.229,12.753
				c0.252,0.512,0.375,1.018,0.375,1.519c0,0.741-0.25,1.401-0.75,1.978c-0.655,0.752-1.494,1.127-2.517,1.127
				c-0.837,0-1.536-0.25-2.096-0.75c-0.413-0.373-0.829-0.988-1.242-1.853L112.841,32.039"/>
			<path id="Fill-8-Copy" fill="#2ADE73" d="M140.008,27.182l1.533,2.365c0.422,0.659,0.635,1.337,0.635,2.031
				c0,0.883-0.316,1.613-0.945,2.193c-0.633,0.582-1.406,0.869-2.32,0.869c-1.176,0-2.066-0.481-2.672-1.445l-2.721-4.289v2.574
				c0,0.883-0.301,1.629-0.902,2.242c-0.602,0.614-1.36,0.918-2.276,0.918c-1.116,0-1.965-0.385-2.543-1.156
				c-0.521-0.676-0.782-1.566-0.782-2.672V19.104c0-2.403,1.346-3.607,4.032-3.607h4.136c1.359,0,2.62,0.378,3.789,1.134
				c1.163,0.758,2.018,1.739,2.557,2.946c0.404,0.908,0.607,1.824,0.607,2.744C142.134,24.038,141.424,25.656,140.008,27.182"/>
			<path id="Fill-9-Copy" fill="#2ADE73" d="M148.18,21.333h-1.719c-0.954,0-1.744-0.251-2.37-0.754
				c-0.664-0.537-0.997-1.256-0.997-2.156c0-0.539,0.158-1.058,0.471-1.552c0.313-0.499,0.717-0.851,1.213-1.06
				c0.496-0.208,1.675-0.314,3.535-0.314h6.561c1.611,0,2.65,0.093,3.123,0.279c0.52,0.203,0.939,0.555,1.266,1.05
				c0.322,0.499,0.483,1.021,0.483,1.568c0,0.863-0.356,1.615-1.067,2.255c-0.514,0.456-1.346,0.683-2.504,0.683h-1.488V30.8
				c0,1.029-0.183,1.827-0.547,2.396c-0.619,0.945-1.508,1.42-2.676,1.42c-1.167,0-2.063-0.432-2.688-1.295
				c-0.396-0.539-0.594-1.354-0.594-2.451v-9.536"/>
			<path id="Fill-10-Copy" fill="#2ADE73" d="M167.758,28.627h2.959c1.221,0,2.127,0.244,2.725,0.727
				c0.701,0.574,1.053,1.316,1.053,2.226c0,0.93-0.354,1.681-1.053,2.257c-0.553,0.445-1.451,0.669-2.705,0.669h-5.072
				c-1.195,0-2.016-0.09-2.457-0.267c-0.866-0.342-1.441-0.905-1.723-1.684c-0.172-0.502-0.258-1.324-0.258-2.465V19.758
				c0-0.863,0.027-1.443,0.086-1.741c0.105-0.604,0.36-1.114,0.767-1.532c0.462-0.475,1.049-0.774,1.763-0.904
				c0.338-0.057,1.021-0.085,2.053-0.085h3.888c1.062,0,1.678,0.01,1.852,0.028c0.694,0.065,1.261,0.259,1.706,0.586
				c0.79,0.576,1.184,1.327,1.184,2.255c0,1.001-0.344,1.767-1.037,2.298c-0.615,0.474-1.457,0.709-2.523,0.709h-3.202v1.295h2.552
				c0.75,0,1.369,0.19,1.859,0.571c0.52,0.407,0.778,0.971,0.778,1.684c0,1.514-0.956,2.27-2.867,2.27h-2.322v1.436"/>
			<path id="Fill-11-Copy" fill="#2ADE73" d="M188.831,27.182l1.532,2.365c0.426,0.659,0.637,1.337,0.637,2.031
				c0,0.883-0.316,1.613-0.947,2.193c-0.63,0.582-1.402,0.869-2.318,0.869c-1.176,0-2.066-0.481-2.676-1.445l-2.715-4.289v2.574
				c0,0.883-0.303,1.629-0.904,2.242c-0.604,0.614-1.361,0.918-2.276,0.918c-1.116,0-1.966-0.385-2.543-1.156
				c-0.521-0.676-0.78-1.566-0.78-2.672V19.104c0-2.403,1.344-3.607,4.032-3.607h4.134c1.357,0,2.622,0.378,3.787,1.134
				c1.165,0.758,2.018,1.739,2.561,2.946c0.402,0.908,0.605,1.824,0.605,2.744C190.958,24.038,190.25,25.656,188.831,27.182"/>
		</g>
	</g>
</g>
</svg>
