<?xml version="1.0" encoding="utf-8"?>
<!-- Generator: Adobe Illustrator 16.0.0, SVG Export Plug-In . SVG Version: 6.00 Build 0)  -->
<!DOCTYPE svg PUBLIC "-//W3C//DTD SVG 1.1//EN" "http://www.w3.org/Graphics/SVG/1.1/DTD/svg11.dtd">
<svg version="1.1" id="Layer_1" xmlns="http://www.w3.org/2000/svg" xmlns:xlink="http://www.w3.org/1999/xlink" x="0px" y="0px"
	 width="200px" height="80px" viewBox="0 0 200 80" enable-background="new 0 0 200 80" xml:space="preserve">
<g>
	<polygon fill="#FFFFFF" points="13.85,30.71 11.807,30.71 4.602,50.283 6.59,50.283 12.83,33.175 19.039,50.283 21.025,50.283 	"/>
	<path fill="#FFFFFF" d="M30.325,50.283V30.71H40.88v1.616h-8.566v7.316h6.837v1.593h-6.837v9.048H30.325z"/>
	<path fill="#FFFFFF" d="M48.541,32.326V30.71h12.224v1.616h-5.136v17.957H53.67V32.326H48.541z"/>
	<path fill="#FFFFFF" d="M79.911,30.71v1.616h-7.97v7.316h7.119v1.593H71.94v7.458h7.97v1.589h-9.956V30.71H79.911z"/>
	<path fill="#FFFFFF" d="M91.425,42.08v8.203h-1.988V30.71h5.988c2.194,0,3.856,0.526,4.993,1.575
		c1.136,1.047,1.701,2.375,1.701,3.987c0,1.603-0.444,2.905-1.336,3.897c-0.884,0.992-2.208,1.606-3.968,1.827l5.557,8.287h-2.579
		l-5.306-8.203H91.425z M91.425,32.326v8.142h4c3.125,0,4.679-1.357,4.679-4.071c0-2.718-1.553-4.071-4.679-4.071H91.425z"/>
	<path fill="#FFFFFF" d="M158.126,43.702V30.71h1.989v12.992c0,1.74,0.464,3.027,1.398,3.871c0.935,0.846,2.219,1.258,3.848,1.258
		c1.623,0,2.9-0.412,3.825-1.258c0.928-0.844,1.391-2.13,1.391-3.871V30.71h1.985v12.992c0,2.229-0.67,3.917-2.012,5.063
		c-1.345,1.146-3.071,1.718-5.189,1.718c-2.117,0-3.855-0.572-5.207-1.718C158.804,47.619,158.126,45.931,158.126,43.702z"/>
	<path fill="#FFFFFF" d="M184.446,42.08v8.203h-1.98V30.71h5.982c2.19,0,3.856,0.526,4.991,1.575
		c1.134,1.047,1.701,2.375,1.701,3.987c0,1.603-0.446,2.905-1.334,3.897s-2.211,1.606-3.97,1.827l5.561,8.287h-2.579l-5.306-8.203
		H184.446z M184.446,32.326v8.142h4.002c3.12,0,4.679-1.357,4.679-4.071c0-2.718-1.559-4.071-4.679-4.071H184.446z"/>
	<g>
		<rect x="112.218" y="30.71" fill="#FFFFFF" width="1.984" height="19.573"/>
		<rect x="124.696" y="30.71" fill="#FFFFFF" width="1.993" height="19.573"/>
		<rect x="116.864" y="39.649" fill="#FFFFFF" width="5.264" height="1.589"/>
	</g>
	<g>
		<path fill="#FFFFFF" d="M148.877,44.682c-0.925-3.828-5.408-5.943-6.859-9.501c-0.661-1.602-0.507-3.145-0.124-4.698
			c-2.283,3.406-3.891,6.427-4.491,10.765c-0.395,3.828,0.792,7.916,5.013,8.835C145.977,50.747,150.064,49.03,148.877,44.682z"/>
	</g>
</g>
</svg>
