<?xml version="1.0" encoding="utf-8"?>
<!-- Generator: Adobe Illustrator 16.0.0, SVG Export Plug-In . SVG Version: 6.00 Build 0)  -->
<!DOCTYPE svg PUBLIC "-//W3C//DTD SVG 1.1//EN" "http://www.w3.org/Graphics/SVG/1.1/DTD/svg11.dtd">
<svg version="1.1" id="Layer_1" xmlns="http://www.w3.org/2000/svg" xmlns:xlink="http://www.w3.org/1999/xlink" x="0px" y="0px"
	 width="600px" height="350px" viewBox="0 0 600 350" enable-background="new 0 0 600 350" xml:space="preserve">
<g>
	<g>
		<path opacity="0.3" fill="#010101" enable-background="new    " d="M373.152,185.099h0.73v-7.156c0-0.296,0.246-0.537,0.539-0.537
			h0.74h0.783h1.756c0.293,0,0.535,0.241,0.535,0.537v7.156h0.734c0.092,0,0.186,0.011,0.277,0.044
			c0.18,0.051,0.344,0.163,0.463,0.301c1.84-0.011,3.855,0.199,4.662,3.396c0.359,1.432,0.51,8.214,0.514,15.469
			c0.016,8.879-0.182,18.506-0.469,19.81c-0.188,0.864-0.373,1.415-0.594,1.784c-0.371,0.611-0.799,0.807-1.354,0.822
			c-0.979,0.036-1.613-0.94-1.92-2.071c-0.092-0.344-0.156-0.704-0.199-1.05c-0.033-0.353-0.043-0.699-0.016-0.987
			c0.064-0.758,0.408-1.282,1.064-1.366c0.518-0.055,0.984,0.31,1.037,0.83c0.033,0.287-0.059,0.549-0.24,0.745
			c-0.006,0.153,0,0.344,0.021,0.569c0.031,0.251,0.08,0.52,0.15,0.769c0.029,0.103,0.041,0.194,0.041,0.284
			c0.051-0.188,0.113-0.431,0.174-0.729c0.258-1.208,0.447-10.654,0.436-19.414c-0.004-7.113-0.141-13.731-0.467-15.018
			c-0.426-1.677-1.533-1.937-2.621-1.963v65.429v1.965v1.479v1.965v26.295c0,2.071-1.27,24.723-2.465,24.723h-1.006h-0.791h-1
			c-1.033,0-2.469-22.651-2.469-24.723v-26.295v-1.965v-1.479v-1.965v-66.7C372.193,185.524,372.625,185.099,373.152,185.099z"/>
		<path fill="#E94E3C" d="M378.404,173.422h3.27c0.297,0,0.539,0.243,0.539,0.542v19.284c0,0.299-0.242,0.536-0.539,0.536h-3.27
			c-0.297,0-0.539-0.237-0.539-0.536v-19.284C377.865,173.666,378.107,173.422,378.404,173.422z"/>
		<path fill="#EE7C70" d="M379.135,173.422h0.791c0.07,0,0.123,0.06,0.123,0.129v20.108c0,0.072-0.053,0.129-0.123,0.129h-0.791
			c-0.068,0-0.129-0.057-0.129-0.129v-20.108C379.006,173.485,379.064,173.422,379.135,173.422z"/>
		<g>
			<path fill="#E94E3C" d="M382.75,183.36c-0.516,0-0.941-0.419-0.941-0.941c0-0.523,0.426-0.94,0.941-0.94
				c0.33,0,0.404-0.006,0.475-0.006h0.004c1.953-0.035,4.246-0.069,5.117,3.379c0.367,1.437,0.512,8.227,0.521,15.48
				c0.014,8.867-0.186,18.5-0.475,19.804c-0.186,0.863-0.371,1.418-0.598,1.785c-0.369,0.609-0.795,0.809-1.355,0.824
				c-0.977,0.033-1.609-0.937-1.908-2.071c-0.098-0.339-0.164-0.713-0.203-1.05c-0.039-0.357-0.051-0.696-0.018-0.99
				c0.063-0.756,0.408-1.29,1.066-1.357c0.512-0.064,0.979,0.31,1.039,0.828c0.037,0.279-0.066,0.549-0.244,0.742
				c-0.01,0.15-0.004,0.35,0.023,0.575c0.031,0.243,0.08,0.512,0.145,0.771c0.027,0.097,0.037,0.188,0.037,0.279
				c0.061-0.192,0.113-0.43,0.178-0.727c0.264-1.21,0.447-10.654,0.436-19.413c-0.006-7.113-0.133-13.731-0.467-15.018
				c-0.506-2.018-1.992-1.99-3.266-1.964l0,0L382.75,183.36L382.75,183.36z M383.225,181.473h0.004H383.225z"/>
		</g>
		<g>
			<path fill="#EE7C70" d="M387.416,218.448c-0.07,1.111-0.248,2.218-1.039,2.021c0.125-0.283,0.227-0.987,0.299-2.021H387.416
				L387.416,218.448z M384.332,218.448h0.373c-0.162,0.275-0.297,0.655-0.377,1.178c-0.039-0.354-0.051-0.692-0.018-0.989
				C384.316,218.572,384.322,218.508,384.332,218.448z M386.646,186.153c0.51,2.33,1.168,8.437,1.174,12.979
				c0,7.254-0.168,15.013-0.35,18.315c-0.018,0.307-0.027,0.657-0.055,1.001h-0.74c0.289-3.647,0.324-11.302,0.311-18.116
				C386.984,195.038,386.857,189.285,386.646,186.153L386.646,186.153z M384.705,218.448h-0.373
				c0.102-0.641,0.426-1.089,1.008-1.167c0.586-0.097,1.027,0.393,1.076,0.823C386.346,217.831,385.318,217.399,384.705,218.448
				L384.705,218.448z M387.82,183.442c-0.873-1.395-3.654-1.33-5.602-1.3h-0.006l-0.361,0.014c0.109-0.396,0.469-0.678,0.898-0.678
				c0.33,0,0.404-0.006,0.475-0.006h0.004C385.684,181.521,386.906,181.617,387.82,183.442L387.82,183.442z M383.225,181.473h0.004
				H383.225z"/>
		</g>
		<path fill="#37485C" d="M377.127,181.117h5.818c0.529,0,0.963,0.431,0.963,0.958v98.411c0,2.072-1.27,24.722-2.465,24.722h-2.807
			c-1.027,0-2.467-22.649-2.467-24.722v-98.411C376.17,181.548,376.607,181.117,377.127,181.117z"/>
		<path fill="#637486" d="M378.102,181.316h1.631c0.148,0,0.271,0.43,0.271,0.958v98.407c0,2.075,0.768,24.521,0.436,24.521h-0.793
			c-0.285,0-1.814-22.446-1.814-24.521v-98.407C377.832,181.746,377.951,181.316,378.102,181.316z"/>
		<g>
			<rect x="376.17" y="252.219" fill="#E94E3C" width="7.738" height="1.969"/>
			<rect x="376.17" y="248.774" fill="#E94E3C" width="7.738" height="1.97"/>
		</g>
		<g>
			<rect x="377.832" y="252.219" fill="#EE7C70" width="2.207" height="1.969"/>
			<rect x="377.832" y="248.774" fill="#EE7C70" width="2.207" height="1.97"/>
		</g>
	</g>
	<path opacity="0.3" fill="#010101" enable-background="new    " d="M413.486,266.795l-1.508,13.398l-1.506-13.398h-5.086
		c0.254-2.211,1.588-4.085,3.465-5.091l0.727-7.842h-2.555v-1.999h9.91v1.999h-2.555l0.73,7.842c1.871,1.004,3.203,2.88,3.463,5.091
		h-1.855h-1.418H413.486z"/>
	<g>
		<polygon fill="#E7E7E7" points="408.799,262.766 411.926,262.766 410.359,276.673 		"/>
		<path fill="#37485C" d="M405.41,248.349h9.904v1.991h-2.549l0.725,7.854c1.877,0.997,3.213,2.874,3.463,5.08h-13.176
			c0.254-2.206,1.586-4.075,3.457-5.08l0.73-7.854h-2.551v-1.991H405.41z"/>
		<polygon fill="#637486" points="411.688,250.34 412.227,258.19 411.396,258.19 411.059,250.34 		"/>
		<polygon fill="#0E1722" points="412.766,250.34 412.873,251.536 407.852,251.536 407.959,250.34 		"/>
		<circle fill="#909FAF" cx="408.863" cy="260.387" r="0.684"/>
		<path fill="#909FAF" d="M415.1,263.27h-1.414c-0.119-0.499-0.262-0.989-0.426-1.474c-0.426-1.205,0.742-1.507,1.232-0.366
			C414.744,262.027,414.943,262.641,415.1,263.27z"/>
	</g>
	<path opacity="0.3" fill="#010101" enable-background="new    " d="M435.246,266.795l-1.512,13.398l-1.508-13.398h-5.084
		c0.252-2.211,1.594-4.085,3.465-5.091l0.727-7.842h-2.557v-1.999h9.912v1.999h-2.557l0.732,7.842
		c1.867,1.004,3.207,2.88,3.459,5.091h-1.855h-1.41H435.246z"/>
	<g>
		<polygon fill="#E7E7E7" points="430.555,262.766 433.686,262.766 432.119,276.673 		"/>
		<path fill="#E94E3C" d="M427.158,248.349h9.922v1.991h-2.563l0.732,7.854c1.867,0.997,3.203,2.874,3.461,5.08h-13.184
			c0.256-2.206,1.588-4.075,3.467-5.08l0.723-7.854h-2.557v-1.991H427.158z"/>
		<polygon fill="#EE7C70" points="433.443,250.34 433.982,258.19 433.152,258.19 432.818,250.34 		"/>
		<polygon fill="#BB3E2F" points="434.518,250.34 434.631,251.536 429.607,251.536 429.713,250.34 		"/>
		<circle fill="#F3ADA5" cx="430.619" cy="260.387" r="0.684"/>
		<path fill="#F3ADA5" d="M436.848,263.27h-1.41c-0.117-0.499-0.258-0.989-0.43-1.474c-0.412-1.205,0.754-1.507,1.244-0.366
			C436.504,262.027,436.703,262.641,436.848,263.27z"/>
	</g>
	<g>
		<path opacity="0.3" fill="#010101" enable-background="new    " d="M363.424,285.406v32.673l1.549,7.412l0.996,4.737l0.994-4.737
			l1.553-7.412v-32.673v-32.122v-64.982v-5.591v-2.481c0-1.264-1.145-2.298-2.553-2.298l0,0c-1.398,0-2.545,1.034-2.545,2.298v2.481
			v5.591v64.982v32.122H363.424z"/>
		<polygon fill="#F9DDDA" points="359.457,249.323 359.457,314.112 362.008,326.262 364.553,314.112 364.553,249.323 		"/>
		<path fill="#E94E3C" d="M364.553,176.264c0-1.264-1.145-2.297-2.545-2.297l0,0c-1.404,0-2.551,1.034-2.551,2.297v73.06h5.096
			V176.264z"/>
		<path fill="#EE7C70" d="M362.857,314.112V178.749h-1.705v135.363C361.686,314.958,362.289,314.958,362.857,314.112z"/>
		<path fill="#E94E3C" d="M362.857,314.112c0.518,0.866,1.195,0.841,1.695,0V178.749h-1.695V314.112z"/>
		<path fill="#F3ADA5" d="M359.457,314.112c0.592,0.861,1.152,0.851,1.695,0V178.749h-1.695V314.112z"/>
		<path fill="#0E1722" d="M361.012,321.528l0.994,4.736l0.994-4.736c-0.328-0.067-0.654-0.103-0.994-0.103
			C361.664,321.426,361.336,321.458,361.012,321.528z"/>
		<rect x="361.152" y="178.749" fill="#637486" width="1.705" height="5.592"/>
		<rect x="362.857" y="178.749" fill="#37485C" width="1.695" height="5.592"/>
		<rect x="359.457" y="178.749" fill="#BDCAD9" width="1.695" height="5.592"/>
	</g>
	<g>
		<path opacity="0.3" fill="#010101" enable-background="new    " d="M411.172,181.439c2.949-0.08,5.895-0.155,8.84-0.23
			c2.441-0.064,4.174,1.68,7.289,1.614c2.586-0.054,4.408-1.916,6.928-1.979c1.496-0.039,3.008-0.082,4.504-0.119
			c1.502-0.038,3.006-0.075,4.508-0.113c0.91-0.021,1.652,0.699,1.652,1.604c0,2.928,0,5.865,0,8.792c0,2.93,0,5.859,0,8.795
			c0,0.904-0.742,1.62-1.658,1.588c-1.506-0.057-3.018-0.107-4.52-0.165c-1.5-0.054-3.016-0.107-4.521-0.161
			c-2.518-0.091-4.344-1.974-6.938-2.05c-3.117-0.097-4.871,1.625-7.313,1.539c-2.953-0.102-5.902-0.202-8.863-0.31
			c-0.906-0.04-1.551-0.729-1.551-1.542v-15.754C409.529,182.141,410.262,181.457,411.172,181.439z"/>
		<path fill="#E94E3C" d="M406.355,176.952c2.947-0.075,5.898-0.15,8.842-0.22c2.436-0.069,4.176,1.668,7.285,1.608
			c2.588-0.054,4.412-1.91,6.924-1.975c1.502-0.043,3.008-0.08,4.504-0.116c1.502-0.04,3.012-0.083,4.512-0.118
			c0.916-0.023,1.662,0.696,1.662,1.606c0,2.927,0,5.859,0,8.787c0,2.93,0,5.864,0,8.794c0,0.905-0.746,1.625-1.662,1.588
			c-1.506-0.057-3.02-0.103-4.527-0.159c-1.502-0.054-3.014-0.113-4.514-0.161c-2.525-0.091-4.348-1.979-6.943-2.055
			c-3.121-0.092-4.863,1.63-7.311,1.538c-2.953-0.097-5.908-0.207-8.861-0.31c-0.91-0.034-1.553-0.729-1.553-1.541v-15.749
			C404.715,177.658,405.451,176.979,406.355,176.952z"/>
		<path fill="#C03D2E" d="M404.715,192.578v-12.091h27.432c3.324,0,6.047,2.718,6.047,6.043l0,0c0,3.325-2.723,6.045-6.047,6.045
			h-27.432V192.578z"/>
		<path fill="#D7DFEA" d="M404.715,192.578v-9.308h32.516c0.611,0.946,0.967,2.065,0.967,3.26l0,0c0,3.325-2.723,6.048-6.049,6.048
			H404.715z"/>
		<path fill="#E4EAF2" d="M404.715,184.921v-1.65h32.516c0.328,0.505,0.576,1.06,0.746,1.65H404.715z"/>
		<path fill="#909FAF" d="M421.455,185.986c1.07,0,1.936,0.866,1.936,1.937c0,1.069-0.865,1.939-1.936,1.939
			c-1.072,0-1.938-0.87-1.938-1.939C419.518,186.853,420.383,185.986,421.455,185.986z"/>
		<path fill="#637486" d="M423.182,187.058c-0.135-0.274-0.338-0.517-0.592-0.7l-2.867,2.433c0.139,0.28,0.344,0.517,0.59,0.7
			L423.182,187.058z"/>
	</g>
	<rect x="132.195" y="20.572" opacity="0.3" fill="#010101" enable-background="new    " width="206.063" height="291.426"/>
	<rect x="128.247" y="15.521" fill="#E94E3C" width="206.062" height="291.43"/>
	<g>
		<rect x="146.3" y="43.046" opacity="0.3" fill="#010101" enable-background="new    " width="206.067" height="291.432"/>
		<rect x="140.028" y="36.776" fill="#FFFFFF" width="206.064" height="291.429"/>
	</g>
	<g opacity="0.3">
		<path fill="#010101" d="M414.781,214.715c-5.1,0-9.232,4.132-9.232,9.233c0,5.099,4.133,9.235,9.232,9.235h10.676v-18.466h-10.676
			V214.715z"/>
		<path fill="#010101" d="M436.051,214.715h-10.572v18.466h10.572c5.098,0,9.23-4.137,9.23-9.232
			C445.281,218.847,441.148,214.715,436.051,214.715z"/>
	</g>
	<g>
		<path fill="#FFFFFF" d="M413.049,211.643c-5.094,0-9.232,4.133-9.232,9.232c0,5.099,4.139,9.231,9.232,9.231h10.682v-18.462
			h-10.682V211.643z"/>
		<path fill="#E94E3C" d="M434.32,211.643h-10.574v18.461h10.574c5.094,0,9.227-4.133,9.227-9.229
			C443.547,215.775,439.414,211.643,434.32,211.643z"/>
	</g>
	<g>
		<rect x="363.283" y="95.553" opacity="0.3" fill="#010101" enable-background="new    " width="108.471" height="62.987"/>
		<rect x="357.02" y="89.282" fill="#E94E3C" width="108.465" height="62.989"/>
		<g>
			<rect x="393.959" y="103.713" fill="#CDCCCC" width="7.791" height="4.625"/>
			<rect x="404.225" y="103.713" fill="#CDCCCC" width="14.051" height="4.625"/>
			<rect x="420.502" y="103.713" fill="#CDCCCC" width="7.873" height="4.625"/>
			<rect x="418.953" y="127.253" fill="#CDCCCC" width="2.646" height="2.739"/>
			<rect x="423.301" y="127.253" fill="#CDCCCC" width="6.234" height="2.739"/>
			<rect x="431.135" y="127.253" fill="#CDCCCC" width="2.648" height="2.739"/>
			<rect x="435.486" y="127.253" fill="#CDCCCC" width="6.236" height="2.739"/>
			<rect x="394.594" y="119.085" fill="#CDCCCC" width="7.021" height="2.739"/>
			<rect x="403.363" y="119.085" fill="#CDCCCC" width="2.938" height="2.739"/>
			<rect x="407.529" y="119.085" fill="#CDCCCC" width="2.932" height="2.739"/>
			<rect x="411.867" y="119.085" fill="#CDCCCC" width="7.02" height="2.739"/>
			<rect x="420.631" y="119.085" fill="#CDCCCC" width="2.943" height="2.739"/>
			<rect x="424.801" y="119.085" fill="#CDCCCC" width="2.939" height="2.739"/>
			<rect x="380.609" y="127.253" fill="#CDCCCC" width="7.834" height="2.739"/>
			<rect x="390.402" y="127.253" fill="#CDCCCC" width="3.273" height="2.739"/>
			<rect x="395.051" y="127.253" fill="#CDCCCC" width="3.283" height="2.739"/>
			<rect x="399.898" y="127.253" fill="#CDCCCC" width="7.836" height="2.739"/>
			<rect x="409.688" y="127.253" fill="#CDCCCC" width="3.279" height="2.739"/>
			<rect x="414.336" y="127.253" fill="#CDCCCC" width="3.281" height="2.739"/>
			<rect x="385.35" y="132.454" fill="#CDCCCC" width="3.336" height="2.739"/>
			<rect x="427.115" y="132.454" fill="#CDCCCC" width="9.879" height="2.739"/>
			<rect x="420.523" y="132.454" fill="#CDCCCC" width="4.133" height="2.739"/>
			<rect x="414.658" y="132.454" fill="#CDCCCC" width="4.139" height="2.739"/>
			<rect x="402.811" y="132.454" fill="#CDCCCC" width="9.879" height="2.739"/>
			<rect x="396.219" y="132.454" fill="#CDCCCC" width="4.137" height="2.739"/>
			<rect x="390.359" y="132.454" fill="#CDCCCC" width="4.133" height="2.739"/>
		</g>
	</g>
	<g>
		<rect x="363.213" y="23.176" opacity="0.3" fill="#010101" enable-background="new    " width="107.16" height="62.229"/>
		<rect x="357.02" y="16.98" fill="#FFFFFF" width="107.164" height="62.232"/>
		<g>
			<rect x="393.512" y="32.167" fill="#CDCCCC" width="7.701" height="4.568"/>
			<rect x="403.654" y="32.167" fill="#CDCCCC" width="13.883" height="4.568"/>
			<rect x="419.738" y="32.167" fill="#CDCCCC" width="7.785" height="4.568"/>
			<rect x="418.205" y="55.422" fill="#CDCCCC" width="2.619" height="2.706"/>
			<rect x="422.51" y="55.422" fill="#CDCCCC" width="6.154" height="2.706"/>
			<rect x="430.248" y="55.422" fill="#CDCCCC" width="2.613" height="2.706"/>
			<rect x="434.547" y="55.422" fill="#CDCCCC" width="6.16" height="2.706"/>
			<rect x="394.143" y="47.355" fill="#CDCCCC" width="6.936" height="2.708"/>
			<rect x="402.805" y="47.355" fill="#CDCCCC" width="2.904" height="2.708"/>
			<rect x="406.926" y="47.355" fill="#CDCCCC" width="2.904" height="2.708"/>
			<rect x="411.215" y="47.355" fill="#CDCCCC" width="6.93" height="2.708"/>
			<rect x="419.873" y="47.355" fill="#CDCCCC" width="2.9" height="2.708"/>
			<rect x="423.988" y="47.355" fill="#CDCCCC" width="2.906" height="2.708"/>
			<rect x="380.33" y="55.422" fill="#CDCCCC" width="7.742" height="2.706"/>
			<rect x="390.004" y="55.422" fill="#CDCCCC" width="3.24" height="2.706"/>
			<rect x="394.594" y="55.422" fill="#CDCCCC" width="3.244" height="2.706"/>
			<rect x="399.383" y="55.422" fill="#CDCCCC" width="7.744" height="2.706"/>
			<rect x="409.053" y="55.422" fill="#CDCCCC" width="3.244" height="2.706"/>
			<rect x="413.652" y="55.422" fill="#CDCCCC" width="3.24" height="2.706"/>
			<rect x="385.006" y="60.563" fill="#CDCCCC" width="3.297" height="2.705"/>
			<rect x="426.275" y="60.563" fill="#CDCCCC" width="9.756" height="2.705"/>
			<rect x="419.758" y="60.563" fill="#CDCCCC" width="4.086" height="2.705"/>
			<rect x="413.971" y="60.563" fill="#CDCCCC" width="4.084" height="2.705"/>
			<rect x="402.268" y="60.563" fill="#CDCCCC" width="9.754" height="2.705"/>
			<rect x="395.75" y="60.563" fill="#CDCCCC" width="4.086" height="2.705"/>
			<rect x="389.961" y="60.563" fill="#CDCCCC" width="4.084" height="2.705"/>
		</g>
	</g>
</g>
</svg>
