<?xml version="1.0" encoding="utf-8"?>
<!-- Generator: Adobe Illustrator 16.0.0, SVG Export Plug-In . SVG Version: 6.00 Build 0)  -->
<!DOCTYPE svg PUBLIC "-//W3C//DTD SVG 1.1//EN" "http://www.w3.org/Graphics/SVG/1.1/DTD/svg11.dtd">
<svg version="1.1" id="Layer_1" xmlns="http://www.w3.org/2000/svg" xmlns:xlink="http://www.w3.org/1999/xlink" x="0px" y="0px"
	 width="600px" height="350px" viewBox="0 0 600 350" enable-background="new 0 0 600 350" xml:space="preserve">
<g>
	<path opacity="0.3" fill="#010101" enable-background="new    " d="M444.881,93.212h-1.074l1.29-2.492v-1.47
		c0-1.312-2.548-2.457-3.869-2.457l-177.705-0.278c-1.315-0.002-2.753,1.04-2.755,2.356l-0.201,10.803l-7.091-0.018
		c-0.325,0-0.645,0.269-0.642,0.593c0,0.328-0.194,0.593,0.13,0.596l6.533,0.01v1.638l-6.555-0.007
		c-0.33-0.002-0.379,0.263-0.379,0.593c0,0.328,0.376,0.595,0.707,0.595l7.045,0.01l0.012,12.495l-6.982-0.012
		c-0.33,0.004-0.588,0.266-0.591,0.596c0.002,0.331-0.154,0.594,0.171,0.594l6.573,0.01v1.636l-6.568-0.01
		c-0.33,0.002-0.381,0.268-0.385,0.595c0.004,0.333,0.374,0.595,0.702,0.595l7.047,0.011l0.013,12.499l-6.983-0.007
		c-0.333-0.002-0.585,0.261-0.587,0.593c0,0.325-0.153,0.593,0.174,0.593l6.587,0.01v1.638l-6.579-0.008
		c-0.33-0.002-0.389,0.266-0.389,0.591c0,0.332,0.369,0.595,0.698,0.6l7.045,0.008l0.011,12.497l-6.98-0.009
		c-0.332-0.002-0.59,0.266-0.588,0.597c-0.002,0.328-0.142,0.591,0.185,0.591l6.597,0.012v1.636l-6.592-0.01
		c-0.327,0-0.391,0.266-0.394,0.595c0,0.33,0.369,0.593,0.693,0.593l7.05,0.01l0.007,12.5l-6.986-0.01
		c-0.324,0-0.588,0.263-0.588,0.592c0,0.33-0.121,0.593,0.209,0.593l6.602,0.013v1.64l-6.602-0.011c-0.325,0-0.399,0.266-0.399,0.59
		c-0.002,0.333,0.363,0.601,0.69,0.603l7.046,0.008l0.01,12.492l-6.985-0.007c-0.328,0-0.587,0.267-0.587,0.594
		c-0.002,0.328-0.116,0.594,0.21,0.594l6.617,0.011v1.636l-6.615-0.007c-0.324,0-0.408,0.264-0.408,0.59
		c0,0.328,0.367,0.593,0.691,0.596l7.046,0.01l0.007,12.497l-6.985-0.011c-0.325,0.005-0.59,0.267-0.588,0.597
		c0,0.324-0.105,0.596,0.223,0.591l6.629,0.011v1.641l-6.626-0.013c-0.325,0-0.413,0.271-0.413,0.598
		c0.005,0.327,0.015,0.588,0.342,0.591l6.697,0.016v12.498l-6.638-0.012c-0.325-0.003-0.409,0.268-0.411,0.596
		c0,0.327-0.002,0.59,0.325,0.59l6.722,0.014v1.638l-6.636-0.011c-0.327,0-0.419,0.262-0.419,0.592s0.355,0.597,0.685,0.597
		l7.04,0.013l0.006,12.493l-6.989-0.01c-0.322,0-0.582,0.267-0.584,0.593c-0.006,0.334-0.083,0.601,0.242,0.601l6.653,0.01v1.637
		l-6.646-0.016c-0.332,0-0.425,0.27-0.422,0.594c-0.008,0.324,0.024,0.595,0.351,0.595l6.715,0.01v12.504l-6.658-0.014
		c-0.325-0.005-0.429,0.269-0.426,0.593c0,0.334,0.013,0.593,0.34,0.593l6.742,0.014v1.634l-6.659-0.008
		c-0.33,0-0.433,0.267-0.431,0.594c0,0.332,0.353,0.597,0.68,0.592l7.034,0.01l0.007,12.503l-6.99-0.015
		c-0.327,0-0.59,0.268-0.586,0.596c0,0.327-0.061,0.598,0.268,0.598l6.673,0.011v1.634l-6.671-0.01c-0.328,0-0.437,0.264-0.437,0.59
		c0,0.334,0.047,0.598,0.372,0.598l6.736,0.01v12.841l-6.68-0.005c-0.327,0-0.438,0.267-0.44,0.592
		c0.002,0.33,0.029,0.592,0.361,0.592l6.759,0.01v1.637l-6.68-0.011c-0.327,0-0.442,0.267-0.448,0.595
		c0.002,0.332,0.057,0.597,0.384,0.597l6.744,0.01v12.493l-6.695-0.007c-0.322,0-0.44,0.27-0.44,0.597
		c-0.002,0.327,0.042,0.591,0.366,0.594l6.769,0.01v1.637l-6.692-0.01c-0.325,0-0.446,0.267-0.446,0.591
		c0,0.329,0.056,0.598,0.387,0.593l6.751,0.014v12.496l-6.709-0.008c-0.325-0.002-0.443,0.271-0.446,0.598
		c0.002,0.327,0.047,0.591,0.378,0.591l6.777,0.01v1.64l-6.709-0.013c-0.325,0-0.449,0.265-0.449,0.594
		c0,0.327,0.341,0.589,0.668,0.597l7.035,0.005l0.007,9.115c-0.007,1.322,1.075,2.535,2.393,2.535h1.503l3.283,1.913v1.38
		c0,1.313,0.055,2.183,1.374,2.183l176.445,0.141c1.311,0.005,2.118-1.107,2.123-2.425l0.206-238.401
		C447.382,93.839,446.193,93.212,444.881,93.212z"/>
	<path opacity="0.3" fill="#010101" enable-background="new    " d="M236.928,118.99c-0.049,0,0.079-0.556,0.018-1.759
		c-1.343-31.502-4.114-58.277-6.54-74.27c-2.846-0.007-5.655,0.447-8.506,0.436c-1.034,6.625-2.13,15.507-3.189,25.587l0.019-0.4
		c-0.165,0.644-0.322,1.392-0.482,2.101c-0.05,0.223-0.099,0.479-0.145,0.708c-0.153,0.706-0.298,1.446-0.445,2.208
		c-0.024,0.132-0.05,0.278-0.07,0.412c-0.129,0.7-0.258,1.421-0.378,2.163c-0.04,0.245-0.083,0.492-0.12,0.743
		c-0.136,0.854,0.523,1.731,0.39,2.646c-0.008,0.037,0.775,0.072,0.775,0.114v0.013c-2.578,18.315-4.558,47.69-3.519,80.549
		c0.122,3.901-0.124,7.738,0.054,11.512l0.843,0.016l0,0l1.828,0.023l0.235-21.351l1.708,181.159l0.354-0.005
		c0.008,0.503,0.002,1.006,0.002,1.51c5.306,1.847,11.077,1.794,16.333-0.159c-0.002-0.502-0.007-1.005-0.013-1.513l0.37-0.006
		l-1.982-206.699l3.938-1.106l-0.291-2.054h-0.91l1.672,1.699v-0.178l0,0v-4.099H236.928z"/>
	<polygon opacity="0.3" fill="#010101" enable-background="new    " points="190.97,139.612 184.744,139.612 184.744,139.233 
		181.788,139.612 178.998,139.612 167.021,139.612 165.143,188.922 166.7,189.241 166.7,196.998 167.533,330.366 178.998,330.366 
		190.461,330.366 195.055,196.998 195.055,189.241 194.733,188.917 	"/>
	<g>
		<path fill="#56C3BA" d="M436.104,332.302c-0.007,1.312-1.067,2.377-2.384,2.375l-176.947-0.244c-1.316,0-2.384-1.07-2.381-2.38
			l0.328-238.845c0.002-1.315,1.069-2.376,2.384-2.374l176.952,0.239c1.313,0,2.376,1.067,2.376,2.381L436.104,332.302z"/>
		<polygon fill="#E6E8EB" points="434.118,332.297 434.448,92.664 429.695,87.499 251.623,87.258 251.296,326.887 256.047,332.053 
					"/>
		<polygon fill="#CED6D7" points="434.118,332.297 434.118,332.297 429.363,327.137 251.623,87.258 251.296,326.887 
			256.047,332.053 		"/>
		
			<rect x="220.671" y="118.156" transform="matrix(0.0014 -1 1 0.0014 132.8189 547.391)" fill="#E6E8EB" width="239.638" height="178.074"/>
		<path fill="#01A79D" d="M430.954,326.738c0,1.316-1.067,2.379-2.385,2.379l-176.949-0.244c-1.317-0.003-2.381-1.07-2.374-2.386
			l0.322-238.843c0-1.314,1.067-2.376,2.381-2.371l176.952,0.24c1.316,0.002,2.379,1.072,2.379,2.381L430.954,326.738z"/>
		<g>
			<circle fill="#49505A" cx="260.086" cy="100.505" r="3.222"/>
			<circle fill="#49505A" cx="260.066" cy="117.062" r="3.222"/>
			<circle fill="#49505A" cx="260.037" cy="133.618" r="3.225"/>
			<circle fill="#49505A" cx="260.02" cy="150.168" r="3.222"/>
			<circle fill="#49505A" cx="259.996" cy="166.725" r="3.225"/>
			<circle fill="#49505A" cx="259.971" cy="183.276" r="3.225"/>
			<circle fill="#49505A" cx="259.949" cy="199.833" r="3.222"/>
			<path fill="#49505A" d="M256.702,216.384c0.008-1.79,1.451-3.229,3.228-3.225c1.78,0,3.222,1.448,3.222,3.23
				c0,1.78-1.449,3.229-3.23,3.225C258.141,219.611,256.699,218.164,256.702,216.384z"/>
			<circle fill="#49505A" cx="259.904" cy="232.94" r="3.223"/>
			<path fill="#49505A" d="M256.657,249.495c0-1.788,1.447-3.226,3.225-3.222c1.784,0,3.223,1.439,3.223,3.226
				c0,1.782-1.449,3.223-3.232,3.221C258.099,252.716,256.652,251.271,256.657,249.495z"/>
			<circle fill="#49505A" cx="259.859" cy="266.049" r="3.225"/>
		</g>
		<g>
			<g>
				<path fill="#FFFFFF" d="M242.561,99.642c-0.331-0.002-0.593-0.269-0.593-0.602l0,0c-0.006-0.323,0.269-0.589,0.593-0.589
					l16.66,0.025c0.329,0.002,0.595,0.263,0.595,0.595l0,0c0,0.327-0.269,0.593-0.593,0.596L242.561,99.642z"/>
				<path fill="#FFFFFF" d="M242.555,102.467c-0.328,0-0.596-0.268-0.593-0.596l0,0c0-0.33,0.269-0.595,0.593-0.593l16.666,0.021
					c0.327,0,0.593,0.268,0.59,0.595l0,0c0.002,0.33-0.269,0.595-0.596,0.595L242.555,102.467z"/>
			</g>
			<g>
				<path fill="#FFFFFF" d="M242.534,116.152c-0.324,0-0.593-0.263-0.596-0.593l0,0c0.002-0.329,0.269-0.593,0.596-0.595
					l16.671,0.023c0.325,0,0.593,0.268,0.59,0.597l0,0c0,0.327-0.268,0.595-0.594,0.595L242.534,116.152z"/>
				<path fill="#FFFFFF" d="M242.532,118.982c-0.33,0-0.593-0.263-0.593-0.595l0,0c0-0.327,0.269-0.593,0.593-0.595l16.667,0.025
					c0.325-0.002,0.596,0.268,0.593,0.595l0,0c-0.002,0.327-0.264,0.593-0.593,0.59L242.532,118.982z"/>
			</g>
			<g>
				<path fill="#FFFFFF" d="M242.509,132.67c-0.325,0-0.587-0.268-0.587-0.592l0,0c0-0.333,0.263-0.595,0.598-0.593l16.662,0.02
					c0.33,0.002,0.59,0.266,0.593,0.593l0,0c-0.002,0.328-0.268,0.593-0.595,0.593L242.509,132.67z"/>
				<path fill="#FFFFFF" d="M242.512,135.498c-0.333-0.005-0.593-0.268-0.593-0.601l0,0c0-0.325,0.263-0.593,0.59-0.59l16.67,0.021
					c0.327,0.002,0.59,0.268,0.59,0.593l0,0c0,0.331-0.263,0.598-0.595,0.596L242.512,135.498z"/>
			</g>
			<g>
				<path fill="#FFFFFF" d="M242.488,149.181c-0.328,0-0.59-0.263-0.59-0.591l0,0c0-0.33,0.265-0.598,0.596-0.595l16.666,0.021
					c0.325,0.002,0.595,0.265,0.593,0.597l0,0c0,0.327-0.266,0.598-0.593,0.595L242.488,149.181z"/>
				<path fill="#FFFFFF" d="M242.485,152.011c-0.325,0-0.593-0.266-0.593-0.593l0,0c0.002-0.33,0.265-0.595,0.595-0.595
					l16.668,0.023c0.328,0,0.591,0.268,0.594,0.595l0,0c0,0.329-0.269,0.592-0.596,0.59L242.485,152.011z"/>
			</g>
			<g>
				<path fill="#FFFFFF" d="M242.47,165.697c-0.328,0-0.596-0.263-0.596-0.593l0,0c0-0.331,0.268-0.593,0.593-0.593l16.67,0.02
					c0.328,0,0.593,0.268,0.593,0.593l0,0c0,0.33-0.271,0.595-0.596,0.595L242.47,165.697z"/>
				<path fill="#FFFFFF" d="M242.462,168.529c-0.324-0.002-0.593-0.271-0.59-0.603l0,0c0.002-0.322,0.271-0.59,0.595-0.59
					l16.667,0.021c0.323,0,0.591,0.268,0.591,0.59l0,0c0,0.333-0.268,0.601-0.591,0.596L242.462,168.529z"/>
			</g>
			<g>
				<path fill="#FFFFFF" d="M242.443,182.212c-0.327,0-0.593-0.271-0.59-0.596l0,0c0.002-0.329,0.268-0.594,0.592-0.594
					l16.667,0.022c0.327,0,0.59,0.268,0.59,0.598l0,0c0,0.327-0.268,0.593-0.595,0.591L242.443,182.212z"/>
				<path fill="#FFFFFF" d="M242.441,185.039c-0.327-0.006-0.593-0.271-0.593-0.593l0,0c0-0.332,0.268-0.594,0.595-0.594
					l16.669,0.021c0.322,0.005,0.59,0.266,0.59,0.6l0,0c0,0.321-0.27,0.591-0.598,0.591L242.441,185.039z"/>
			</g>
			<g>
				<path fill="#FFFFFF" d="M242.421,198.725c-0.328,0.005-0.591-0.267-0.591-0.592l0,0c-0.002-0.332,0.268-0.591,0.593-0.596
					l16.665,0.024c0.327,0.005,0.593,0.268,0.59,0.595l0,0c0.002,0.327-0.266,0.595-0.593,0.59L242.421,198.725z"/>
				<path fill="#FFFFFF" d="M242.419,201.55c-0.325,0-0.591-0.268-0.593-0.592l0,0c0-0.329,0.268-0.598,0.593-0.598l16.667,0.026
					c0.322,0,0.59,0.271,0.59,0.599l0,0c0,0.328-0.268,0.592-0.592,0.592L242.419,201.55z"/>
			</g>
			<g>
				<path fill="#FFFFFF" d="M242.403,215.238c-0.333,0-0.595-0.261-0.595-0.588l0,0c0.002-0.328,0.268-0.6,0.59-0.598l16.665,0.021
					c0.33-0.004,0.595,0.271,0.595,0.602l0,0c0,0.326-0.268,0.584-0.593,0.584L242.403,215.238z"/>
				<path fill="#FFFFFF" d="M242.396,218.073c-0.331,0-0.594-0.269-0.594-0.599l0,0c0-0.333,0.268-0.595,0.594-0.595l16.665,0.025
					c0.33,0.005,0.593,0.262,0.59,0.594l0,0c0,0.327-0.266,0.595-0.593,0.595L242.396,218.073z"/>
			</g>
			<g>
				<path fill="#FFFFFF" d="M242.375,231.761c-0.325,0-0.59-0.27-0.59-0.603l0,0c0.002-0.322,0.268-0.592,0.595-0.592l16.664,0.023
					c0.327,0,0.593,0.266,0.589,0.594l0,0c0.004,0.328-0.264,0.599-0.593,0.594L242.375,231.761z"/>
				<path fill="#FFFFFF" d="M242.372,234.582c-0.327,0-0.593-0.271-0.59-0.594l0,0c-0.003-0.327,0.26-0.595,0.593-0.595
					l16.662,0.025c0.331,0,0.593,0.262,0.593,0.594l0,0c-0.005,0.327-0.268,0.59-0.596,0.59L242.372,234.582z"/>
			</g>
			<g>
				<path fill="#FFFFFF" d="M242.354,248.266c-0.324,0-0.592-0.262-0.592-0.591l0,0c-0.003-0.327,0.268-0.598,0.592-0.592
					l16.668,0.022c0.324,0,0.595,0.27,0.593,0.602l0,0c0.002,0.328-0.269,0.587-0.593,0.587L242.354,248.266z"/>
				<path fill="#FFFFFF" d="M242.354,251.095c-0.327,0.006-0.598-0.261-0.598-0.593l0,0c-0.002-0.322,0.271-0.593,0.598-0.593
					l16.663,0.021c0.324,0.005,0.592,0.269,0.598,0.596l0,0c-0.005,0.333-0.273,0.595-0.595,0.595L242.354,251.095z"/>
			</g>
			<g>
				<path fill="#FFFFFF" d="M242.331,264.789c-0.327,0-0.593-0.271-0.593-0.599l0,0c-0.002-0.33,0.269-0.594,0.593-0.594
					l16.668,0.025c0.327,0,0.593,0.267,0.595,0.594l0,0c-0.002,0.324-0.271,0.594-0.595,0.594L242.331,264.789z"/>
				<path fill="#FFFFFF" d="M242.325,267.609c-0.327,0-0.593-0.265-0.593-0.594l0,0c0-0.33,0.266-0.595,0.596-0.595l16.671,0.024
					c0.322,0.004,0.59,0.269,0.585,0.601l0,0c0.007,0.326-0.266,0.593-0.593,0.59L242.325,267.609z"/>
			</g>
			<g>
				<circle fill="#49505A" cx="259.836" cy="282.552" r="3.225"/>
				<path fill="#49505A" d="M256.586,299.104c0.007-1.78,1.451-3.225,3.23-3.22c1.776,0,3.222,1.45,3.222,3.235
					c-0.002,1.773-1.451,3.214-3.232,3.219C258.027,302.328,256.586,300.883,256.586,299.104z"/>
				<circle fill="#49505A" cx="259.79" cy="315.665" r="3.225"/>
			</g>
			<g>
				<path fill="#FFFFFF" d="M242.311,281.646c-0.33,0-0.593-0.265-0.596-0.592l0,0c0.002-0.326,0.269-0.591,0.596-0.591l16.667,0.02
					c0.328,0,0.595,0.27,0.59,0.592l0,0c0,0.33-0.263,0.597-0.59,0.597L242.311,281.646z"/>
				<path fill="#FFFFFF" d="M242.305,284.47c-0.328,0-0.593-0.266-0.598-0.593l0,0c0.005-0.327,0.276-0.596,0.601-0.596
					l16.667,0.024c0.325,0,0.59,0.269,0.59,0.595l0,0c0.002,0.333-0.271,0.596-0.593,0.596L242.305,284.47z"/>
			</g>
			<g>
				<path fill="#FFFFFF" d="M242.284,298.162c-0.325-0.003-0.59-0.27-0.59-0.598l0,0c0-0.327,0.268-0.593,0.594-0.593l16.662,0.024
					c0.331,0.005,0.596,0.268,0.593,0.597l0,0c-0.002,0.327-0.268,0.592-0.595,0.592L242.284,298.162z"/>
				<path fill="#FFFFFF" d="M242.281,300.984c-0.327,0.005-0.59-0.265-0.593-0.593l0,0c0.002-0.327,0.268-0.591,0.593-0.591
					l16.666,0.02c0.33,0,0.593,0.269,0.59,0.598l0,0c0.002,0.329-0.266,0.596-0.593,0.599L242.281,300.984z"/>
			</g>
			<g>
				<path fill="#FFFFFF" d="M242.264,314.676c-0.328,0-0.59-0.27-0.593-0.592l0,0c0.002-0.327,0.268-0.599,0.59-0.597l16.667,0.023
					c0.331,0.002,0.596,0.266,0.593,0.594l0,0c-0.002,0.327-0.268,0.594-0.595,0.594L242.264,314.676z"/>
				<path fill="#FFFFFF" d="M242.258,317.503c-0.327-0.006-0.592-0.268-0.592-0.595l0,0c0-0.332,0.268-0.593,0.595-0.593
					l16.663,0.023c0.327,0,0.595,0.265,0.593,0.596l0,0c0,0.331-0.268,0.594-0.59,0.594L242.258,317.503z"/>
			</g>
		</g>
	</g>
	<g>
		<path fill="#28292C" d="M208.918,329.651c0.007,0.755,0.015,1.501,0.021,2.251c5.304,1.848,11.076,1.794,16.332-0.159
			c-0.005-0.75-0.013-1.496-0.019-2.248L208.918,329.651z"/>
		<path fill="#28292C" d="M222.694,330.258c-3.733,0.038-7.465,0.073-11.196,0.105c-0.025-2.384-0.046-4.77-0.066-7.161
			c3.606-1.334,7.565-1.37,11.192-0.101C222.647,325.482,222.67,327.871,222.694,330.258z"/>
		<g>
			<path fill="#B7BEC0" d="M213.207,69.634c-0.01-0.76,0.625-2.489,1.424-2.498l0,0c0.795-0.005,1.461,1.707,1.468,2.472l0.033,3.5
				c0.009,0.765-0.631,1.389-1.43,1.397l0,0c-0.799,0.005-1.451-0.606-1.459-1.367L213.207,69.634z"/>
			<path fill="#CED6D7" d="M212.784,70.493c-1.128,3.028-1.855,8.909-1.795,15.668c0.098,9.829,1.834,17.786,3.889,17.769
				c2.055-0.022,3.643-8.01,3.547-17.839c-0.065-6.755-0.908-12.626-2.093-15.628L212.784,70.493z"/>
			<path fill="#B7BEC0" d="M216.68,75.914c0.133,14.242-1.424,25.805-3.471,25.829c-0.053,0-0.098-0.013-0.149-0.029
				c0.546,1.416,1.17,2.22,1.819,2.215c2.055-0.022,3.643-8.01,3.547-17.839c-0.06-6.307-0.797-11.841-1.864-14.997
				C216.615,72.655,216.664,74.263,216.68,75.914z"/>
			<path fill="#969B9D" d="M217.105,80.892c0.124,1.644,0.203,3.385,0.216,5.21c0.09,8.944-1.222,16.345-3.003,17.616
				c0.185,0.136,0.369,0.209,0.559,0.209c2.055-0.022,3.643-8.01,3.547-17.839c-0.015-1.774-0.094-3.466-0.207-5.075L217.105,80.892
				z"/>
			
				<rect x="212.622" y="93.545" transform="matrix(-0.9999 0.0102 -0.0102 -0.9999 433.1123 356.6762)" fill="#28292C" width="6.057" height="171.786"/>
			
				<rect x="207.423" y="93.555" transform="matrix(-1 0.0094 -0.0094 -1 433.9067 421.8425)" opacity="0.3" fill="#E6E8EB" enable-background="new    " width="17.069" height="236.781"/>
			<g>
				<path opacity="0.3" fill="#D4DBDD" enable-background="new    " d="M210.467,80.926c-1.354,4.236-2.717,8.471-4.073,12.705
					c5.643-0.055,11.285-0.111,16.937-0.165c-1.441-4.205-2.883-8.412-4.324-12.621C216.427,79.981,213.038,80.014,210.467,80.926z"
					/>
				<path opacity="0.3" fill="#E6E8EB" enable-background="new    " d="M211.409,80.821c-0.083,0.034-0.171,0.062-0.251,0.101
					c-1.034,4.231-2.068,8.464-3.096,12.69c2.312-0.021,2.914-0.025,5.231-0.049c-0.108-4.765-0.406-8.617-0.777-12.656
					C212.439,80.873,211.496,80.855,211.409,80.821z"/>
				<path opacity="0.3" fill="#E6E8EB" enable-background="new    " d="M219.669,93.504c0.57-0.006,1.197-0.013,2.068-0.021
					c-1.112-4.209-2.226-8.422-3.339-12.628c-0.08-0.039-0.169-0.064-0.25-0.098c-0.087,0.037-1.025,0.072-1.111,0.108
					c-0.046,0.709-0.092,1.418-0.141,2.123C217.819,86.493,218.752,89.996,219.669,93.504z"/>
				<path opacity="0.3" fill="#969B9D" enable-background="new    " d="M210.478,81.827c2.567-0.915,5.957-0.949,8.54-0.083
					c1.335,3.908,4.208,11.725,4.313,11.725c-1.441-4.205-2.883-8.412-4.324-12.621c-2.58-0.863-5.97-0.83-8.54,0.083
					C209.114,85.16,209.217,85.755,210.478,81.827z"/>
			</g>
			
				<rect x="220.909" y="93.491" transform="matrix(-1 0.0091 -0.0091 -1 447.3238 421.713)" opacity="0.3" fill="#E6E8EB" enable-background="new    " width="3.579" height="236.775"/>
			
				<rect x="210.175" y="93.585" transform="matrix(1 -0.0089 0.0089 1 -1.873 1.8811)" opacity="0.3" fill="#E6E8EB" enable-background="new    " width="1.65" height="236.778"/>
		</g>
		<g>
			<path fill="#E6E6E5" d="M207.918,67.494c-4.03,15.681-6.084,50.955-4.803,91.544c0.121,3.899,0.273,7.738,0.454,11.512
				l2.969,0.042L207.918,67.494z"/>
			<path fill="#28292C" d="M205.843,78.476l-1.229,92.089l1.928,0.024l1.377-103.095C207.146,70.478,206.456,74.174,205.843,78.476z
				"/>
			<g>
				<path fill="#28292C" d="M226.49,122.158c-0.059-1.426-0.118-2.861-0.189-4.302c-1.343-31.498-4.202-59.19-6.626-75.185
					c-2.848-0.008-5.704-0.011-8.553-0.021c-2.492,15.985-5.478,43.666-6.961,75.155c-0.076,1.443-0.142,2.874-0.209,4.299
					L226.49,122.158z"/>
				<path fill="#28292C" d="M216.435,64.138c0.018-7.555-0.005-14.786-0.067-21.475c-1.144,0-2.292-0.002-3.438-0.007
					c-0.096,6.687-0.147,13.917-0.165,21.474c-0.062,26.685,0.392,49.408,1.081,57.999h1.249
					C215.821,113.544,216.375,90.824,216.435,64.138z"/>
				
					<rect x="203.369" y="121.857" transform="matrix(-1 -0.0021 0.0021 -1 430.7083 245.8105)" fill="#28292C" width="24.224" height="1.653"/>
				
					<rect x="213.558" y="121.438" transform="matrix(-1 -0.0024 0.0024 -1 440.8613 244.5388)" fill="#28292C" width="14.038" height="1.134"/>
			</g>
		</g>
	</g>
	<g>
		<g>
			<polygon fill="#BE202E" points="179.638,330.215 156.711,330.215 152.635,195.793 183.716,195.793 			"/>
			<rect x="152.635" y="188.035" fill="#28292C" width="31.081" height="7.758"/>
			<polygon fill="#28292C" points="173.525,170.331 173.525,151.719 162.829,151.719 162.829,170.331 152.635,188.035 
				183.716,188.035 			"/>
			<polygon fill="#E8435E" points="164.267,143.577 164.267,151.719 172.084,151.719 172.084,138.026 			"/>
			<polygon opacity="0.3" fill="#FFFFFF" enable-background="new    " points="164.267,143.577 170.213,146.485 172.084,138.026 			
				"/>
			<polygon fill="#181919" points="168.177,151.719 168.177,188.035 183.716,188.035 173.525,170.331 173.525,151.719 			"/>
			<polygon opacity="0.05" fill="#010101" enable-background="new    " points="168.177,330.215 179.638,330.215 183.716,195.793 
				168.177,195.793 			"/>
		</g>
		<g>
			<polygon fill="#28292C" points="183.716,128.93 152.635,128.93 156.2,78.925 180.147,78.925 			"/>
			<polygon fill="#181919" points="168.174,128.93 183.716,128.93 180.147,78.925 168.174,78.925 			"/>
		</g>
	</g>
	<g>
		<g>
			<path fill="#28292C" d="M255.996,18.729c0,0,102.374-2.751,110.444-1.591c8.061,1.161,13.871,2.846,28.149,18.022
				c14.273,15.183,25.964,25.104,25.964,25.104s4.844,5.004-2.135,5.75c-5.463,0.582-10.578-1.006-11.927-3.249
				c-1.35-2.253-16.701-23.394-19.56-25.997c-2.865-2.607-10.353-12.894-20.003-14.856c-9.642-1.958-108.586,8.864-108.586,8.864
				L255.996,18.729z"/>
			<path fill="#28292C" d="M256.743,17.964c0,0,102.371-2.753,110.438-1.594c8.07,1.166,13.877,2.856,28.144,18.031
				c14.277,15.172,25.978,25.094,25.978,25.094s4.839,5.012-2.133,5.753c-5.474,0.587-10.579-1.004-11.929-3.252
				c-1.347-2.248-16.701-23.391-19.563-25.992c-2.865-2.617-10.352-12.898-19.995-14.858c-9.649-1.958-108.596,8.867-108.596,8.867
				L256.743,17.964z"/>
		</g>
		<g>
			<path fill="#28292C" d="M433.89,16.574c0,0-102.413-0.271-110.445,1.083c-8.036,1.361-13.808,3.188-27.707,18.704
				c-13.903,15.521-25.35,25.724-25.35,25.724s-4.72,5.123,2.268,5.694c5.48,0.449,10.557-1.263,11.848-3.545
				c1.291-2.278,16.127-23.781,18.925-26.457c2.796-2.676,10.026-13.146,19.631-15.338c9.595-2.191,108.771,6.23,108.771,6.23
				L433.89,16.574z"/>
			<path fill="#28292C" d="M433.125,15.827c0,0-102.416-0.269-110.451,1.082c-8.035,1.355-13.8,3.192-27.703,18.71
				c-13.904,15.515-25.35,25.717-25.35,25.717s-4.719,5.123,2.269,5.694c5.48,0.46,10.553-1.257,11.847-3.535
				c1.296-2.282,16.132-23.785,18.927-26.461c2.804-2.678,10.036-13.145,19.633-15.336c9.595-2.196,108.769,6.231,108.769,6.231
				L433.125,15.827z"/>
		</g>
		<path fill="#28292C" d="M434.212,16.254c0,0-23.563-3.238-43.047-1.869c-14.368,1.01-17.708,2.735-23.837,5.447
			c-4.84,2.145-11.743,6.934-17.264,8.011c-2.065,0.399-3.511,0.546-4.549,0.591c-1.039-0.015-2.475-0.135-4.551-0.482
			c-5.549-0.942-12.566-5.566-17.457-7.588c-6.196-2.566-9.568-4.208-23.959-4.868c-19.514-0.9-42.992,2.913-42.992,2.913
			c-1.255,0.265-0.842,2.9-0.842,2.9s0.136,5.973,0.153,7.485c0.019,1.506,1.892,2.307,6.422,5.586
			c4.437,3.214,4.732,17.111,10.636,26.352c5.898,9.239,19.407,13.221,30.228,13.093c10.812-0.135,20.451-4.274,25.027-10.742
			c3.956-5.586,8.732-17.415,10.819-20.642c1.49-2.292,4.472-3.339,6.651-3.37c2.175-0.024,5.186,0.96,6.726,3.209
			c2.166,3.168,7.23,14.882,11.318,20.369c4.731,6.359,14.461,10.265,25.283,10.137c10.817-0.133,24.225-4.442,29.901-13.826
			c5.669-9.374,5.634-23.279,9.996-26.602c4.454-3.387,6.306-4.23,6.281-5.738c-0.01-1.51-0.021-7.485-0.021-7.485
			S435.48,16.491,434.212,16.254z M320.277,64.938c-8.453,7.047-26.887,5.255-35.457,1.314
			c-10.124-4.661-13.178-17.961-14.922-26.868c-1.741-8.914,1.917-15.395,9.096-17.225c7.78-1.982,18.599-1.864,18.599-1.864
			c4.65,0.073,9.938,0.255,17.766,2.305C330.991,26.681,331.514,37,331.56,40.897C331.605,44.797,329.621,57.149,320.277,64.938z
			 M421.388,37.541c-1.526,8.956-4.259,22.324-14.263,27.224c-8.473,4.153-26.864,6.391-35.481-0.448
			c-9.528-7.561-11.819-19.864-11.869-23.763c-0.048-3.896,0.227-14.222,15.752-18.685c7.774-2.232,13.054-2.552,17.708-2.73
			c0,0,10.813-0.381,18.64,1.408C419.1,22.206,422.914,28.594,421.388,37.541z"/>
		<path opacity="0.3" fill="#E6E8EB" enable-background="new    " d="M319.958,64.314c-8.448,7.047-26.895,5.253-35.464,1.312
			c-10.122-4.66-13.177-17.959-14.919-26.868c-1.741-8.914,1.917-15.392,9.099-17.223c7.772-1.982,18.598-1.86,18.598-1.86
			c4.656,0.067,9.938,0.256,17.766,2.304c15.631,4.081,16.154,14.395,16.202,18.291C331.294,44.174,329.296,56.524,319.958,64.314z"
			/>
		<path opacity="0.3" fill="#E6E8EB" enable-background="new    " d="M421.07,36.92c-1.53,8.952-4.264,22.317-14.267,27.224
			c-8.474,4.147-26.865,6.385-35.481-0.457c-9.529-7.554-11.817-19.854-11.87-23.756c-0.043-3.901,0.227-14.224,15.758-18.686
			c7.769-2.233,13.053-2.55,17.705-2.73c0,0,10.814-0.384,18.636,1.408C418.777,21.577,422.592,27.968,421.07,36.92z"/>
	</g>
</g>
</svg>
