<?xml version="1.0" encoding="utf-8"?>
<!-- Generator: Adobe Illustrator 16.0.0, SVG Export Plug-In . SVG Version: 6.00 Build 0)  -->
<!DOCTYPE svg PUBLIC "-//W3C//DTD SVG 1.1//EN" "http://www.w3.org/Graphics/SVG/1.1/DTD/svg11.dtd">
<svg version="1.1" id="Layer_1" xmlns="http://www.w3.org/2000/svg" xmlns:xlink="http://www.w3.org/1999/xlink" x="0px" y="0px"
	 width="600px" height="350px" viewBox="0 0 600 350" enable-background="new 0 0 600 350" xml:space="preserve">
<g>
	<polyline fill-rule="evenodd" clip-rule="evenodd" fill="#D2D3D4" points="301.986,22.826 301.086,333.438 81.468,332.804 
		82.363,22.192 	"/>
	<polyline fill-rule="evenodd" clip-rule="evenodd" fill="#BDBEC0" points="522.021,23.468 521.126,334.075 301.505,333.438 
		302.405,22.83 	"/>
	
		<polyline fill-rule="evenodd" clip-rule="evenodd" fill="#FFFFFF" stroke="#D2D3D4" stroke-width="1.2047" stroke-miterlimit="10" points="
		298.495,16.563 297.597,327.174 77.979,326.539 78.873,15.925 	"/>
	<polyline fill-rule="evenodd" clip-rule="evenodd" fill="#F2F2F2" points="518.539,17.2 517.633,327.813 298.014,327.169 
		298.917,16.563 	"/>
	<polygon fill="#CDCCCC" points="275.829,117.568 101.042,116.48 101.078,111.146 275.866,112.231 	"/>
	<polygon fill="#CDCCCC" points="275.776,126.889 100.982,125.8 101.013,120.479 275.814,121.567 	"/>
	<polygon fill="#CDCCCC" points="275.72,136.22 100.928,135.134 100.963,129.802 275.757,130.888 	"/>
	<polygon fill="#CDCCCC" points="275.667,145.548 100.869,144.457 100.904,139.128 275.703,140.208 	"/>
	
		<rect x="100.826" y="149.001" transform="matrix(1 0.0062 -0.0062 1 0.9501 -1.1716)" fill="#CDCCCC" width="174.805" height="5.324"/>
	
		<rect x="100.769" y="158.322" transform="matrix(1 0.0062 -0.0062 1 1.0038 -1.1659)" fill="#CDCCCC" width="174.788" height="5.337"/>
	<polygon fill="#CDCCCC" points="275.49,173.527 100.689,172.444 100.72,167.11 275.519,168.201 	"/>
	<polygon fill="#CDCCCC" points="275.431,182.855 100.633,181.771 100.661,176.43 275.469,177.519 	"/>
	<polygon fill="#CDCCCC" points="187.975,191.636 100.577,191.085 100.608,185.75 188.012,186.304 	"/>
	<rect x="100.513" y="216.8" transform="matrix(1 0.0064 -0.0064 1 1.4028 -0.8926)" fill="#CDCCCC" width="80.221" height="5.32"/>
	<polygon fill="#CDCCCC" points="100.483,225.876 180.698,226.375 180.675,231.706 100.447,231.195 	"/>
	<polygon fill="#CDCCCC" points="180.607,241.019 100.381,240.521 100.412,235.194 180.642,235.7 	"/>
	
		<rect x="100.346" y="244.773" transform="matrix(1 0.0063 -0.0063 1 1.5631 -0.8808)" fill="#CDCCCC" width="80.222" height="5.331"/>
	
		<rect x="100.301" y="254.092" transform="matrix(1 0.0063 -0.0063 1 1.6123 -0.8752)" fill="#CDCCCC" width="80.229" height="5.32"/>
	<polygon fill="#CDCCCC" points="180.453,268.997 100.232,268.503 100.266,263.171 180.48,263.677 	"/>
	<polygon fill="#CDCCCC" points="180.381,278.34 100.164,277.834 100.197,272.502 180.417,273.002 	"/>
	<polygon fill="#CDCCCC" points="140.214,287.407 100.107,287.16 100.138,281.827 140.252,282.067 	"/>
	<polygon fill="#CDCCCC" points="275.313,222.944 195.097,222.447 195.128,217.118 275.344,217.621 	"/>
	
		<rect x="195.044" y="226.702" transform="matrix(1 0.0062 -0.0062 1 1.4343 -1.4613)" fill="#CDCCCC" width="80.218" height="5.343"/>
	<polygon fill="#CDCCCC" points="275.189,241.602 194.962,241.094 194.993,235.768 275.223,236.282 	"/>
	<polygon fill="#CDCCCC" points="275.132,250.938 194.915,250.436 194.95,245.1 275.173,245.604 	"/>
	<polygon fill="#CDCCCC" points="275.061,260.271 194.841,259.78 194.875,254.445 275.092,254.944 	"/>
	<polygon fill="#CDCCCC" points="274.999,269.61 194.785,269.108 194.816,263.773 275.036,264.276 	"/>
	
		<rect x="194.767" y="273.331" transform="matrix(1 0.0061 -0.0061 1 1.6979 -1.436)" fill="#CDCCCC" width="80.215" height="5.338"/>
	<polygon fill="#CDCCCC" points="251.138,288.098 194.68,287.737 194.713,282.397 251.175,282.771 	"/>
	<g opacity="0.8">
		<path fill="#B6BCB5" d="M378.066,325.425l-40.713-41.466c-36.134-15.496-47.117,37.861-11.559,40.995L378.066,325.425z"/>
		<path fill="#CDCECC" d="M494.012,326.461c12.828,3.86,16.367-20.115-0.101-26.09c10.217-3.102,19.564-13.066,13.741-26.42
			c-7.042-16.149-21.275-8.882-31.775-6.516l-36.041,58.539L494.012,326.461z"/>
		<path fill="#E0E3E0" d="M457.476,326.131c-0.809-3.061-2.123-5.988-3.714-8.369c6.972,5.188,20.646,3.89,25.674-4.138
			c5.671-9.073-0.678-20.689-7.018-26.812c0,0-34.681-10.637-45.728-9.285c-10.867,1.334-26.676,28.945-27.259,48.085
			L457.476,326.131z"/>
		<path fill="#FFFFFF" d="M367.12,217.181c4.341-13.976,16.412-15.459,24.792-11.607c-8.681-5.91-5.62-22.981,2.149-28.743
			c6.392-4.743,15.591-2.926,21.506-0.588l0.021-2.548c7.068-5.794,21.534,5.386,23.465,12.959
			c1.846,7.229-2.132,14.628-6.729,19.146c25.198-17.732,48.079,10.5,30.954,33.778c8.401-4.041,19.42,6.15,21.893,14.269
			c3.458,11.384,1.766,25.729-6.321,34.297c-9.651,10.243-30.136,11.192-37.966-3.478c-3.152,33.019-52.925,22.39-41.557-5.85
			c-13.013,10.412-23.741,0.769-27.435-9.587c-3.525-9.906,1.793-24.275,12.25-24.565
			C370.923,242.688,362.431,232.257,367.12,217.181z"/>
		<path fill="#FFFFFF" d="M343.029,312.04c-4.146,4.304-6.17,8.789-6.63,13.011l75.887,0.677c0.075-3.58-0.65-7.541-2.44-11.827
			c11.164,17.194,37.743,1.526,27.039-21.919c-0.839,0.414-49.891-53.44-49.891-53.44c-5.453-8.979-21.557-12.906-30.578-7.341
			c-10.934,6.752-8.963,25.21-4.945,35.567c-12.723-8.306-27.219,1.746-30.36,15.714
			C317.601,298.101,329.271,311.178,343.029,312.04z"/>
		<path fill="#E0E3E0" d="M485.171,253.846c3.458,11.384,1.766,25.729-6.321,34.297c-9.651,10.243-30.136,11.192-37.966-3.478
			c-3.152,33.019-52.925,22.39-41.557-5.85c-13.013,10.412-23.741,0.769-27.435-9.587c-3.525-9.906,1.793-24.275,12.25-24.565
			c-13.22-1.976-21.712-12.406-17.022-27.482c3.051-9.817,9.911-13.465,16.622-13.433c-3.674,13.402,2.523,32.554,17.901,30.901
			c-16.232,5.498,1.479,21.964,11.489,17.557c-8.17,9.664-10.551,32.073,10.451,35.44c13.712,2.203,20.465-17.095,22.32-27.7
			c0.016,15.818,13.732,26.751,24.617,19.216c13.816-9.565,17.151-31.874-6.856-39.507l1.412-0.714
			C473.177,236.966,482.873,246.291,485.171,253.846z"/>
		<path fill="#E0E3E0" d="M372.165,325.367l11.994,0.111c-1.032-4.44-0.874-10.012,0.986-16.894
			C380.821,314.043,376.612,320.517,372.165,325.367z"/>
		<path fill="#E0E3E0" d="M343.723,311.64c-4.45,4.439-6.656,9.044-7.205,13.411l11.008,0.098
			c-4.522-7.122,0.529-14.96,8.727-20.023c-11.236-0.88-22.443-8.489-22.73-21.008c-0.27-11.903,11.295-17.777,21.126-19.293
			c-0.747-0.855-1.556-1.653-2.393-2.41c0.219,0.617,0.441,1.219,0.667,1.791c-13.891-8.706-29.721,1.817-33.146,16.457
			C315.945,297.025,328.689,310.745,343.723,311.64z"/>
	</g>
	<g>
		<path fill="#01A79D" d="M357.375,239.688c0.742,0.167,1.11,0.534,1.11,1.078l-0.012,0.746l0.044,0.234h-0.046l0.046,0.042
			l-0.003,0.332l-0.045,0.045l0.045,0.042l-0.003,0.047l0.027,2.283l0.04,0.234l-0.043-0.008l0.043,0.052l-0.005,0.749l0.048,0.226
			h-0.051l0.051,0.051v0.046l0.075,1.54h-0.045l0.045,0.04v0.049l0.161,2.887h-0.046l0.046,0.043v0.049l0.32,6.1l-0.051,0.043
			l0.048,0.233l-0.008,0.931c-0.223,0.963-0.629,1.442-1.226,1.438c-0.897-0.014-1.729-0.764-2.494-2.26
			c-1.016-1.615-2.571-4.636-4.668-9.068h-0.043l-0.11,2.374h-0.051l0.051,0.048l-0.054,0.229l-0.003,0.606l-0.049,0.047
			l0.049,0.043l-0.169,2.744h-0.046l0.046,0.049l-0.049,0.273c-0.107,3.233-0.212,4.844-0.316,4.844
			c-0.313,0.399-0.624,0.599-0.943,0.593l-0.231-0.005c-0.602,0-0.957-0.423-1.059-1.263l0.002-0.184l0.046-0.051l-0.046-0.046
			l0.054-0.696l0.006-0.373l0.051-0.277l-0.048-0.048l0.051-0.186l0.169-3.954h0.049l-0.049-0.045l0.052-0.325l0.005-0.511
			l0.048-0.049l-0.048-0.046l0.048-0.188l0.291-6.599h0.051l-0.051-0.05l0.057-0.793l0.014-1.489
			c0.005-0.618,0.257-1.037,0.757-1.246l0.466-0.089c0.706,0.005,1.104,0.508,1.195,1.497c1.36,3.105,3.249,6.997,5.665,11.688
			h0.046l0.006-0.374l-0.044-0.234h0.046l-0.046-0.045v-0.051l-0.08-1.304h0.046l-0.046-0.04v-0.049l-0.034-1.304l-0.049-0.136
			l0.049-0.049c-0.116-1.304-0.231-3.542-0.361-6.703h0.049l-0.049-0.045l-0.023-2.793l0.008-0.56
			c0.003-0.582,0.397-0.938,1.175-1.061H357.375z"/>
		<path fill="#01A79D" d="M360.938,241.72h0.28c0.563,0.008,0.916,0.401,1.059,1.175c-0.517,1.922-0.779,3.843-0.798,5.765
			l-0.006,0.976l0.043,0.328h-0.045l0.045,0.045v0.049c-0.017,1.741,0.395,4.119,1.233,7.127l0.183,0.333
			c0.688-0.373,1.175-0.943,1.46-1.715c0.862-2.349,1.303-4.886,1.327-7.619c0.014-1.372-0.239-2.815-0.755-4.329
			c0.11-0.841,0.516-1.256,1.226-1.249l-0.003,0.051l0.046-0.051c0.741,0.005,1.258,0.929,1.559,2.763
			c0.207,0.87,0.312,1.862,0.296,2.978c-0.024,3.013-0.61,5.993-1.755,8.919c-0.581,1.038-1.366,1.82-2.344,2.353
			c-0.354,0.18-0.68,0.269-0.98,0.269l-0.325-0.006c-0.498-0.04-0.987-0.312-1.484-0.795c-0.392-0.397-0.769-1.299-1.14-2.715
			c-0.652-3.026-0.972-5.297-0.962-6.799h0.049l-0.049-0.046l0.014-1.54l0.049-0.046l-0.044-0.046l0.049-0.23l0.005-0.511
			l0.04-0.052l-0.04-0.046c0.199-1.794,0.446-3.284,0.734-4.463C360.167,242.01,360.512,241.714,360.938,241.72z"/>
		<path fill="#01A79D" d="M369.713,238.196h0.191l0.046,0.049l0.046-0.049h0.091c0.258,0,1.153,0.317,2.69,0.957
			c1.169,0.354,2.064,0.804,2.69,1.359c1.104,0.82,1.655,1.769,1.647,2.865c-0.008,0.859-0.702,1.922-2.078,3.179
			c-0.693,0.539-1.209,0.887-1.542,1.057v0.084c2.935,1.188,4.391,2.787,4.375,4.797v0.36c-0.021,1.978-2.163,4.077-6.434,6.294
			c-0.678,0.414-1.102,0.618-1.264,0.618l-0.374-0.006c-0.47-0.005-0.795-0.35-0.965-1.031v-0.092l0.159-1.767l-0.049-0.271
			l0.008-0.671l0.049-0.049l-0.049-0.035v-0.048l-0.142-4.763l-0.046-0.04v-0.051l0.046-0.045l-0.193-4.048l-0.048-0.127h0.048
			l-0.048-0.049v-0.047c-0.101-2.226-0.148-4.126-0.135-5.692l0.008-0.532C368.453,238.922,368.88,238.187,369.713,238.196z
			 M370.845,240.744l0.021,2.93l0.046,0.137h-0.049l0.049,0.126l0.069,2.542h0.044c1.313-0.741,2.389-1.497,3.232-2.288
			c0.325-0.438,0.535-0.793,0.616-1.064c0.002-0.342-0.52-0.845-1.573-1.511l-2.456-0.92V240.744z M371.141,249.15l-0.003,0.317
			l0.046,0.219h-0.046l0.043,0.045l-0.003,0.534l0.044,0.446h-0.044l0.044,0.046v0.052l0.069,2.798l0.043,0.219h-0.046l0.046,0.052
			l-0.006,0.663l0.041,0.221l-0.046-0.005l0.046,0.134l0.032,1.479l-0.049,0.123c2.838-1.548,4.263-2.898,4.273-4.052v-0.132
			c0.011-1.231-1.341-2.264-4.066-3.107L371.141,249.15z"/>
		<path fill="#01A79D" d="M381.291,240.927h0.186l2.559,0.116v0.051l0.046-0.051c0.769,0.005,1.698,0.282,2.784,0.817
			c1.019,0.612,1.523,1.332,1.518,2.154c-0.023,2.666-2.205,5.55-6.546,8.644c3.531,3.639,5.297,5.619,5.297,5.955l0.045,0.282
			c-0.004,0.542-0.303,0.925-0.895,1.155l-0.281,0.04c-0.492-0.007-0.898-0.304-1.202-0.896c-2.026-2.161-3.439-3.631-4.238-4.405
			l-0.002,0.043l0.43,4.098c-0.21,0.65-0.446,0.974-0.707,0.974c0,0.056-0.186,0.096-0.559,0.134
			c-0.745-0.217-1.112-0.591-1.107-1.128l-0.597-6.008h0.046l-0.046-0.047v-0.047l-0.078-1.676h0.046l-0.046-0.046l0.008-0.742
			l-0.045-0.233h0.045l-0.045-0.049l0.003-0.511l-0.038-1.026h0.048l-0.048-0.046v-0.042l0.051-0.049l-0.051-0.049l0.002-0.04
			l-0.002-5.077c0.011-1.109,0.266-1.74,0.767-1.902c0.16-0.089,0.352-0.134,0.558-0.134c0.17,0,0.339,0.051,0.509,0.147
			C380.179,241.056,380.708,240.925,381.291,240.927z M380.24,244.034l-0.019,1.629l0.034,1.488h-0.042l0.042,0.045l-0.016,1.767
			l0.043,0.47h-0.048l0.045,0.046l-0.005,0.796l0.043,0.226h-0.043l0.043,0.282h0.046c1.072-0.646,2.418-1.782,4.031-3.41
			c1.037-1.317,1.571-2.363,1.609-3.146c-0.317-0.559-1.416-0.849-3.292-0.867l-1.024-0.06h-0.465
			C380.958,243.295,380.63,243.54,380.24,244.034z"/>
		<path fill="#01A79D" d="M389.289,241.29h0.328c0.457,0.005,0.795,0.396,1.013,1.177l-0.22,9.044l-0.051,0.174l0.048,0.047
			l-0.048,0.276l-0.022,2.097l-0.046,0.058l0.046,0.058v0.064l-0.046,0.04l0.044,0.057v0.118l-0.046,0.051l0.046,0.06l-0.017,1.378
			l0.043,0.548h-0.046l0.046,0.06v0.116l-0.048,0.045l0.048,0.063l-0.011,1.104l0.041,0.884c-0.202,0.882-0.578,1.322-1.132,1.314
			h-0.137c-0.624-0.006-0.989-0.47-1.105-1.392l-0.026-2.319l0.002-0.274l-0.04-0.555l0.043,0.007l-0.043-0.181l0.159-7.006h0.043
			l-0.043-0.052v-0.06l0.046-0.054l-0.046-0.059l0.056-1.094l0.014-1.771l0.049-0.054l-0.046-0.063v-0.221l0.048-0.053l-0.042-0.049
			l0.046-0.395l0.018-1.876C388.415,241.72,388.76,241.281,389.289,241.29z"/>
		<path fill="#01A79D" d="M400.366,240.069c0.74,0.176,1.108,0.535,1.103,1.083l-0.008,0.742l0.051,0.236h-0.051l0.048,0.048v0.323
			l-0.053,0.049l0.048,0.047v0.044l0.026,2.282l0.046,0.233h-0.048l0.046,0.045l-0.006,0.748l0.043,0.234l-0.043-0.007l0.043,0.049
			l-0.003,0.045l0.084,1.537h-0.049l0.049,0.052v0.04l0.158,2.89h-0.046l0.046,0.046v0.051l0.317,6.093l-0.046,0.048l0.043,0.236
			l-0.011,0.922c-0.218,0.963-0.624,1.441-1.22,1.436c-0.901-0.005-1.734-0.763-2.492-2.258c-1.018-1.615-2.574-4.633-4.665-9.064
			h-0.046l-0.118,2.37h-0.048l0.048,0.049l-0.048,0.226l-0.006,0.607l-0.046,0.052l0.046,0.04l-0.164,2.751h-0.048l0.048,0.041
			l-0.051,0.282c-0.105,3.225-0.212,4.832-0.322,4.832c-0.307,0.405-0.618,0.602-0.934,0.593h-0.232
			c-0.605-0.005-0.96-0.424-1.063-1.266l0.003-0.185l0.048-0.04l-0.048-0.057l0.054-0.69l0.005-0.374l0.049-0.28l-0.043-0.042
			l0.043-0.194l0.178-3.947h0.046l-0.046-0.052l0.048-0.322l0.003-0.511l0.048-0.045l-0.048-0.051l0.051-0.181l0.293-6.605h0.043
			l-0.043-0.046l0.051-0.793l0.017-1.489c0.003-0.621,0.256-1.04,0.756-1.252l0.464-0.084c0.704,0.009,1.103,0.506,1.196,1.497
			c1.362,3.104,3.249,7.004,5.668,11.687h0.046l0.002-0.374l-0.042-0.231h0.048l-0.048-0.052v-0.045l-0.081-1.298h0.045
			l-0.045-0.049v-0.048l-0.035-1.301l-0.046-0.143l0.046-0.046c-0.107-1.304-0.23-3.536-0.354-6.702h0.043l-0.043-0.046
			l-0.024-2.792l0.006-0.56c0.005-0.583,0.395-0.938,1.172-1.064H400.366z"/>
		<path fill="#01A79D" d="M403.28,240.287h0.143c0.766,0.005,1.209,0.756,1.328,2.244c0.177,0.871,0.301,2.763,0.367,5.685h-0.042
			l0.04,0.271l6.162-7.664c0.277-0.31,0.604-0.457,0.983-0.457c0.739,0.156,1.11,0.497,1.107,1.038l0.049,0.04v0.051h-0.049
			l0.046,0.046v0.051c-0.003,0.304-0.285,0.755-0.853,1.336c-2.999,3.719-4.964,6.2-5.883,7.441
			c-0.155,0.312-0.347,0.595-0.564,0.827c1.483,1.143,4.23,3.019,8.231,5.617c0.216,0.239,0.317,0.491,0.317,0.75l-0.002,0.18
			c-0.003,0.589-0.396,0.944-1.17,1.057h-0.094c-0.293,0-1.852-0.973-4.674-2.921c-1.521-0.987-2.752-1.834-3.697-2.549l-0.269,3.58
			l0.029,2.143v0.137c-0.005,0.5-0.317,0.854-0.938,1.064l-0.373-0.009c-0.529,0-0.868-0.359-1.014-1.076l-0.075-2.232l0.215-3.163
			h0.046l-0.046-0.047l0.046-0.181l0.067-1.675h0.043l-0.043-0.048v-0.049l0.054-1.164h0.051l-0.051-0.043v-0.049l-0.021-2.702
			l-0.043-0.372l0.046-0.04l-0.041-0.33c0.017-1.974-0.166-3.862-0.556-5.681C402.348,240.648,402.724,240.281,403.28,240.287z"/>
		<path fill="#01A79D" d="M421.031,239.32c0.212,0,0.548,0.179,1.016,0.54c1.094,0.44,2.559,1.343,4.399,2.725
			c2.674,2.416,4.002,5.045,3.978,7.893l-0.009,0.532c-0.026,3.046-1.377,5.467-4.063,7.243c-2.036,1.443-3.407,2.198-4.117,2.258
			l-0.464-0.006c-0.61-0.007-0.979-0.39-1.104-1.158l0.005-0.695l-0.043-0.194l0.043-0.029l-0.715-13.561l-0.041-0.129l0.041,0.005
			l-0.041-0.049v-0.048c-0.111-2.499-0.228-3.746-0.338-3.751l0.002-0.536c0.004-0.393,0.329-0.744,0.982-1.045L421.031,239.32z
			 M422.396,242.571l-0.187,0.267l-0.005,0.521l0.041,0.231l-0.043-0.006l0.043,0.046v0.048l0.325,5.422h-0.043l0.04,0.05v0.046
			l0.083,1.321h-0.045l0.042,0.049v0.035l0.354,7.063c1.02-0.461,2.279-1.419,3.801-2.869c0.844-1.167,1.276-2.56,1.29-4.175
			c0.026-3.199-1.87-5.896-5.697-8.094V242.571z"/>
		<path fill="#01A79D" d="M438.161,239.902l0.51,0.006c0.452,0,0.772,0.379,0.965,1.123c-0.005,0.721-0.443,1.121-1.311,1.196
			c-0.769-0.006-2.296,0.58-4.573,1.769l-0.797,5.579c2.462-1.23,4.535-1.927,6.206-2.083h0.049
			c0.709,0.162,1.069,0.521,1.059,1.083v0.183c-0.005,0.715-0.667,1.129-1.968,1.239c-2.416,0.672-4.271,1.527-5.558,2.559
			l-0.005,0.323l0.042,0.562h-0.051l0.051,0.045v0.046c-0.021,2.192,0.261,3.658,0.842,4.378c0.234,0.164,0.433,0.242,0.604,0.242
			c0.882-0.049,2.572-0.979,5.053-2.795c0.435-0.46,0.828-0.688,1.167-0.688l0.189,0.005c0.707,0.162,1.059,0.555,1.057,1.172
			c-0.005,0.53-0.554,1.143-1.645,1.853c-2.395,1.723-4.269,2.663-5.611,2.832l0.006-0.049l-0.052,0.042h-0.514l-0.04-0.047
			l-0.054,0.04c-0.787-0.005-1.526-0.443-2.217-1.321c-0.734-1.267-1.094-2.73-1.078-4.382l-0.123-1.628
			c-0.277-0.223-0.417-0.532-0.412-0.93c0-0.223,0.143-0.517,0.431-0.884c0.198-1.839,0.479-3.943,0.844-6.321
			c-0.521-0.267-0.782-0.646-0.779-1.124c0.005-0.671,0.771-1.354,2.297-2.023C435.267,240.559,437.075,239.889,438.161,239.902z"/>
		<path fill="#01A79D" d="M449.273,241.86l0.371,0.007c0.6,0,0.997,0.318,1.206,0.94l-0.002,0.233
			c-0.008,0.544-0.276,0.909-0.803,1.105c-0.063,0.057-0.532,0.098-1.401,0.127c-0.663,0.174-1.849,1.016-3.56,2.528
			c-1.564,1.718-2.351,3.077-2.357,4.072c-0.006,0.593,0.174,0.889,0.548,0.894c1.965,0.02,4.104-0.257,6.432-0.829h0.186
			c1.203,0.174,1.806,0.787,1.795,1.832l0.045,0.282c-0.011,1.174-0.668,2.408-1.985,3.703c-2.528,2.586-3.94,3.871-4.228,3.871
			l-0.368-0.009c-0.592,0-0.946-0.405-1.059-1.212c0.005-0.36,0.271-0.824,0.806-1.393c0.239,0.005,0.877-0.548,1.917-1.657
			c1.631-1.544,2.448-2.516,2.451-2.909h-0.049c-0.963,0.237-2.206,0.443-3.728,0.619v-0.047l-0.047,0.041l-1.254,0.044l-1.21-0.012
			c-1.266-0.013-2.096-0.739-2.497-2.169l-0.129-1.069c0.015-1.669,1.118-3.645,3.312-5.929
			C445.845,242.867,447.716,241.849,449.273,241.86z"/>
		<path fill="#01A79D" d="M453.056,241.86h0.325c0.457,0.007,0.795,0.395,1.012,1.177l-0.217,9.049l-0.054,0.174l0.052,0.049
			l-0.055,0.274l-0.016,2.096l-0.046,0.057l0.046,0.06v0.059l-0.046,0.043l0.043,0.059v0.116l-0.046,0.046l0.046,0.063l-0.014,1.379
			l0.038,0.552l-0.043-0.006l0.043,0.062v0.118l-0.043,0.043l0.043,0.06l-0.009,1.105l0.038,0.88
			c-0.201,0.885-0.575,1.323-1.129,1.317h-0.137c-0.624-0.005-0.989-0.467-1.107-1.392l-0.021-2.312v-0.282l-0.04-0.549h0.046
			l-0.046-0.174l0.155-7.012h0.049l-0.049-0.049v-0.053l0.052-0.061l-0.049-0.058l0.06-1.097l0.011-1.767l0.048-0.06l-0.048-0.059
			l0.003-0.223l0.048-0.054l-0.048-0.049l0.053-0.395l0.017-1.873C452.185,242.292,452.528,241.854,453.056,241.86z"/>
		<path fill="#01A79D" d="M462.892,241.268c0.642,0.003,1.014,0.438,1.118,1.304c-0.011,0.849-0.722,1.341-2.134,1.483
			c-1.586,0.621-3.006,1.998-4.249,4.115c-0.704,1.51-1.063,3.069-1.078,4.689v0.258l-0.049,0.052l0.049,0.053l-0.009,0.656
			c-0.013,1.626,0.544,2.911,1.664,3.859c0.443,0.306,0.887,0.462,1.35,0.468h0.403c1.451,0.016,2.688-1.113,3.708-3.37l0.098-0.454
			v-0.199c0.007-0.865-0.216-1.303-0.664-1.31h-0.312c-0.172-0.005-1.043,0.272-2.613,0.826c-0.586,0.166-1.048,0.264-1.386,0.29
			c-0.718-0.226-1.078-0.632-1.072-1.207l0.003-0.156c0.005-0.701,0.41-1.096,1.217-1.183c0.67-0.169,1.769-0.526,3.292-1.079
			l0.817-0.098c1.192,0.014,2.099,0.69,2.714,2.043c0.113,0.301,0.212,0.865,0.296,1.698l-0.044-0.005l0.044,0.054l-0.002,0.301
			c-0.018,1.65-1.049,3.445-3.095,5.38c-1.045,0.69-2.111,1.027-3.197,1.014c-2.278-0.016-3.945-1.339-5.005-3.95
			c-0.344-0.974-0.513-2.21-0.497-3.704c0.035-4.185,1.53-7.524,4.486-10.021c0.798-0.788,1.883-1.327,3.249-1.623L462.892,241.268z
			"/>
		<path fill="#01A79D" d="M475.225,240.744c0.744,0.169,1.112,0.532,1.107,1.08l-0.007,0.745l0.044,0.233h-0.046l0.046,0.046v0.328
			l-0.049,0.045l0.047,0.049v0.043l0.022,2.281l0.049,0.233h-0.051l0.049,0.044l-0.009,0.749l0.044,0.229h-0.044l0.044,0.049
			l-0.004,0.045l0.082,1.539l-0.044-0.005l0.044,0.046l-0.004,0.051l0.167,2.887h-0.049l0.049,0.043l-0.005,0.046l0.323,6.101
			l-0.049,0.046l0.042,0.23l-0.007,0.931c-0.216,0.962-0.63,1.443-1.223,1.438c-0.898-0.014-1.731-0.767-2.492-2.258
			c-1.019-1.617-2.574-4.636-4.668-9.067h-0.043l-0.115,2.373h-0.047l0.044,0.045l-0.046,0.227l-0.005,0.609l-0.049,0.049
			l0.049,0.04l-0.167,2.744h-0.046l0.046,0.049l-0.049,0.276c-0.103,3.23-0.212,4.841-0.319,4.841
			c-0.307,0.403-0.621,0.602-0.938,0.593h-0.231c-0.605-0.005-0.96-0.424-1.063-1.268l0.003-0.186l0.046-0.041l-0.046-0.05
			l0.055-0.697l0.002-0.376l0.049-0.276l-0.046-0.047l0.046-0.188l0.177-3.95h0.049l-0.049-0.049l0.052-0.325l0.004-0.51
			l0.049-0.047l-0.049-0.051l0.049-0.179l0.29-6.607h0.049l-0.049-0.045l0.055-0.793l0.017-1.488
			c0.005-0.621,0.254-1.04,0.752-1.247l0.465-0.092c0.707,0.005,1.106,0.502,1.198,1.5c1.363,3.106,3.25,7.004,5.663,11.685h0.051
			l0.003-0.373l-0.048-0.231h0.05l-0.05-0.051v-0.046l-0.078-1.304h0.048l-0.048-0.043v-0.049l-0.035-1.303l-0.046-0.143
			l0.048-0.043c-0.109-1.304-0.233-3.542-0.354-6.708l0.043,0.005l-0.043-0.051l-0.021-2.787l0.003-0.56
			c0.006-0.582,0.396-0.938,1.169-1.061H475.225z"/>
		<path fill="#01A79D" d="M355.319,265.2c0.325,0.005,0.54,0.236,0.643,0.683h-0.024l0.024,0.033
			c-0.084,0.45-0.344,0.671-0.793,0.671c-0.307-0.005-1.514,0.282-3.62,0.857c0.215,2.476,0.387,4.741,0.511,6.791h-0.024
			l0.024,0.032l-0.003,0.486c0.178,0.181,0.267,0.365,0.263,0.57c-0.26,0.764-0.558,1.143-0.899,1.137h-0.14
			c-0.196,0-0.385-0.217-0.563-0.632l-0.026-0.271l0.003-0.138l0.026-0.022l-0.026-0.084c0.011-1.088-0.159-3.574-0.503-7.471
			c-0.491,0.125-1.097,0.297-1.795,0.528c-0.153,0.2-0.322,0.294-0.52,0.294l-0.217-0.006c-0.35,0-0.584-0.175-0.704-0.52
			l0.003-0.271c0.002-0.374,0.505-0.688,1.505-0.936l1.763-0.557c0.137-0.198,0.301-0.296,0.494-0.287h0.164l0.271,0.051
			C353.279,265.528,354.666,265.219,355.319,265.2z"/>
		<path fill="#01A79D" d="M358.571,265.478c0.436,0.077,0.647,0.296,0.645,0.631v0.138c0,0.082-0.088,0.269-0.252,0.563v0.278
			l-0.032,0.021l0.029,0.032v0.107c-0.008,0.833,0.196,1.52,0.604,2.067c0.21,0.214,0.387,0.346,0.54,0.384l0.299-0.081h0.08
			l0.436,0.141c0.683-0.36,1.201-1.052,1.567-2.078l0.059-0.511v-0.029l0.024-0.024c-0.009-0.11-0.065-0.204-0.159-0.301
			c-0.064-0.113-0.106-0.247-0.134-0.409c0.005-0.356,0.244-0.582,0.712-0.671c0.253,0,0.527,0.186,0.812,0.546
			c0.089,0.271,0.132,0.486,0.132,0.652v0.143c-0.017,1.433-0.733,2.701-2.152,3.806c-0.36,0.129-0.543,0.207-0.546,0.233
			l0.121,1.578h-0.026l0.026,0.032l-0.003,0.375l0.024,0.194h-0.024l0.024,0.024l-0.008,0.541l-0.035,1.356h-0.029l0.029,0.031
			c-0.011,0.871-0.256,1.302-0.747,1.297c-0.468-0.098-0.704-0.32-0.701-0.662c0.059-0.492,0.094-1.123,0.102-1.867l0.003-0.224
			c-0.027-1.825-0.094-2.743-0.196-2.743c-0.704-0.219-1.282-0.722-1.723-1.508c-0.336-0.787-0.503-1.64-0.492-2.551v-0.057
			C357.692,265.958,358.018,265.469,358.571,265.478z"/>
		<path fill="#01A79D" d="M367.276,265.116l1.249,0.012c0.736,0.013,1.655,0.225,2.733,0.65c1.226,0.615,1.835,1.225,1.83,1.813
			v0.108c-0.011,1.212-1.379,2.573-4.109,4.087l-0.379,0.186l0.051,2.933l0.027,0.136h-0.027l0.027,0.024v0.216l0.104,0.387
			c-0.08,0.632-0.33,0.948-0.738,0.941h-0.06c-0.352-0.007-0.567-0.231-0.643-0.684c-0.051-0.631-0.072-1.22-0.066-1.769
			l-0.024-0.083h0.024l-0.024-0.024l0.005-0.706l-0.024-0.186h0.027l-0.027-0.033v-0.029l-0.016-1.626l-0.024-0.214h0.027
			l-0.027-0.033l0.006-0.539l-0.021-0.194h0.023l-0.023-0.021l0.002-0.548l-0.021-0.401h0.024l-0.024-0.031v-0.024l-0.041-1.763
			h0.027l-0.027-0.03l0.003-0.382l-0.021-0.594l-0.271,0.105h-0.247c-0.25,0-0.436-0.199-0.562-0.581v-0.129
			C366.026,265.644,366.442,265.326,367.276,265.116z M368.482,266.515l-0.003,0.433l0.024,0.408h-0.024l0.024,0.029v0.028
			l0.041,1.74h-0.027l0.027,0.024l-0.006,0.517l0.024,0.298l-0.03,0.024v0.032l0.03,0.16l-0.003,0.24h0.024
			c2.075-1.245,3.112-2.167,3.12-2.763c-0.724-0.605-1.643-0.984-2.761-1.14L368.482,266.515z"/>
		<path fill="#01A79D" d="M378.104,265.212h0.161c0.398,0.104,0.595,0.303,0.592,0.588l-0.003,0.271
			c0.755,0.204,1.322,0.573,1.704,1.081c0.589,0.685,0.965,1.495,1.143,2.431c0.072,0.254,0.129,0.751,0.177,1.497h-0.026
			l0.026,0.022l-0.008,0.539l-0.021,0.027l0.021,0.03c-0.006,0.978-0.397,2.088-1.17,3.349c-0.835,1.111-1.706,1.657-2.617,1.652
			l-0.328-0.006c-0.916-0.007-1.617-0.671-2.099-1.994c-0.209-0.637-0.309-1.419-0.304-2.341v-0.137
			c0.019-2.083,0.581-4.09,1.683-6.036C377.494,265.528,377.852,265.205,378.104,265.212z M377.978,267.315
			c-0.812,1.637-1.226,3.212-1.239,4.709h-0.024l0.024,0.026l-0.002,0.669c-0.014,1.063,0.223,1.871,0.706,2.424
			c0.124,0.104,0.277,0.176,0.463,0.221c0.89,0.009,1.677-0.807,2.354-2.459c0.146-0.505,0.225-1.005,0.23-1.521l0.003-0.07
			c0.014-1.736-0.465-2.973-1.436-3.696C378.732,267.418,378.37,267.315,377.978,267.315z"/>
		<path fill="#01A79D" d="M389.372,265.41c0.382,0.007,0.594,0.261,0.658,0.769c-0.008,0.492-0.424,0.782-1.246,0.865
			c-0.925,0.36-1.752,1.167-2.48,2.395c-0.406,0.884-0.618,1.79-0.624,2.738l-0.002,0.15l-0.03,0.032l0.03,0.03l-0.006,0.376
			c-0.008,0.948,0.314,1.707,0.976,2.258c0.255,0.18,0.516,0.271,0.784,0.271l0.234,0.005c0.847,0.006,1.566-0.653,2.161-1.968
			l0.057-0.265l0.002-0.113c0.006-0.511-0.124-0.765-0.387-0.769h-0.186c-0.1,0-0.605,0.16-1.526,0.479
			c-0.336,0.096-0.604,0.153-0.804,0.174c-0.417-0.132-0.629-0.365-0.626-0.706v-0.083c0.003-0.417,0.241-0.65,0.715-0.697
			c0.387-0.096,1.029-0.309,1.919-0.626l0.473-0.062c0.696,0.006,1.226,0.402,1.586,1.19c0.064,0.175,0.123,0.511,0.175,0.989
			h-0.032l0.032,0.032l-0.003,0.172c-0.012,0.968-0.61,2.013-1.806,3.141c-0.607,0.401-1.234,0.601-1.866,0.595
			c-1.33-0.014-2.3-0.779-2.915-2.304c-0.205-0.566-0.302-1.294-0.296-2.165c0.024-2.44,0.896-4.387,2.617-5.84
			c0.468-0.463,1.1-0.779,1.895-0.949L389.372,265.41z"/>
		<path fill="#01A79D" d="M395.844,265.702h0.107l1.492,0.071v0.021l0.029-0.021c0.446,0.005,0.989,0.16,1.623,0.473
			c0.594,0.36,0.89,0.773,0.884,1.254c-0.013,1.557-1.287,3.241-3.818,5.046c2.064,2.123,3.096,3.277,3.094,3.478l0.023,0.16
			c-0.003,0.317-0.174,0.541-0.521,0.673l-0.164,0.029c-0.289-0.005-0.521-0.181-0.701-0.521c-1.18-1.268-2.005-2.129-2.473-2.577
			v0.029l0.253,2.392c-0.126,0.377-0.264,0.562-0.414,0.562c0,0.033-0.11,0.057-0.327,0.078c-0.436-0.123-0.646-0.347-0.643-0.659
			l-0.353-3.5h0.024l-0.024-0.031l0.003-0.021l-0.048-0.981h0.026l-0.026-0.032l0.005-0.43l-0.029-0.138h0.029l-0.029-0.026
			l0.005-0.299l-0.019-0.596h0.024l-0.024-0.026v-0.024l0.024-0.033l-0.024-0.021v-0.033v-2.953c0.005-0.65,0.15-1.021,0.443-1.11
			c0.095-0.056,0.201-0.078,0.328-0.078c0.1,0,0.198,0.027,0.295,0.083C395.196,265.778,395.505,265.7,395.844,265.702z
			 M395.231,267.52l-0.008,0.949l0.019,0.865h-0.027l0.027,0.026l-0.011,1.029l0.029,0.274h-0.029l0.029,0.024l-0.005,0.465
			l0.021,0.134h-0.027l0.027,0.165h0.026c0.629-0.377,1.411-1.047,2.354-1.989c0.605-0.769,0.915-1.382,0.936-1.838
			c-0.185-0.323-0.822-0.497-1.921-0.504l-0.597-0.033h-0.271C395.653,267.088,395.457,267.229,395.231,267.52z"/>
		<path fill="#01A79D" d="M404.984,264.722c0.672,0.005,1.268,1.56,1.789,4.672c0.756,3.528,1.229,5.837,1.419,6.928v0.043
			c-0.094,0.4-0.293,0.607-0.596,0.6l-0.218-0.005c-0.36-0.116-0.538-0.303-0.532-0.555c-0.138-0.822-0.328-1.758-0.572-2.827
			l-2.535,0.446l-0.034,0.652l-0.012,1.101c-0.063,0.454-0.281,0.677-0.649,0.677h-0.051c-0.369-0.006-0.581-0.231-0.64-0.688
			l0.016-1.569c-0.218-0.161-0.325-0.328-0.323-0.497v-0.159c0.004-0.244,0.143-0.419,0.415-0.525
			c0.304-3.132,0.733-5.357,1.292-6.686c0.36-1.071,0.707-1.614,1.043-1.606H404.984z M404.857,266.611
			c-0.298,0.925-0.574,2.206-0.822,3.852l-0.231,1.896h0.024l2.147-0.368v-0.024l-1.064-5.355H404.857z"/>
		<path fill="#01A79D" d="M411.563,265.52l1.249,0.006c0.739,0.012,1.653,0.229,2.733,0.647c1.226,0.627,1.839,1.221,1.83,1.814
			v0.107c-0.011,1.212-1.379,2.575-4.111,4.091l-0.377,0.185l0.051,2.93l0.03,0.138h-0.03l0.03,0.024l-0.006,0.217l0.107,0.385
			c-0.08,0.631-0.333,0.94-0.741,0.94h-0.051c-0.355-0.003-0.572-0.234-0.65-0.683c-0.046-0.63-0.072-1.22-0.064-1.764l-0.027-0.085
			h0.029l-0.029-0.024l0.008-0.71l-0.029-0.186h0.029l-0.029-0.029v-0.029l-0.008-1.626l-0.024-0.218h0.027l-0.027-0.027
			l0.005-0.543l-0.029-0.185h0.029l-0.029-0.032l0.008-0.541l-0.026-0.407h0.029l-0.029-0.024v-0.029l-0.032-1.767h0.024
			l-0.024-0.024l0.002-0.384l-0.023-0.597l-0.271,0.109l-0.245-0.005c-0.247,0-0.436-0.191-0.566-0.578l0.003-0.132
			C410.308,266.041,410.727,265.722,411.563,265.52z M412.772,266.912l-0.003,0.433l0.024,0.409h-0.029l0.029,0.029l-0.003,0.021
			l0.041,1.741h-0.027l0.024,0.026l-0.008,0.517l0.029,0.301l-0.032,0.021v0.032l0.026,0.162l-0.003,0.243h0.03
			c2.074-1.246,3.115-2.173,3.122-2.768c-0.729-0.604-1.647-0.983-2.763-1.14L412.772,266.912z"/>
		<path fill="#01A79D" d="M420.459,266.003h0.134c0.358,0.009,0.562,0.261,0.621,0.769l-0.006,0.458l-0.027,0.032l0.027,0.078
			l0.015,4.561c1.424-0.419,2.496-0.716,3.211-0.871l-0.027-0.024l0.033-3.993c0.007-0.537,0.252-0.807,0.738-0.802
			c0.436,0.098,0.652,0.313,0.647,0.653l-0.037,3.885h0.193c0.489,0.139,0.73,0.386,0.726,0.741
			c-0.003,0.419-0.282,0.645-0.846,0.696h-0.085l-0.028,3.391c-0.003,0.35-0.186,0.583-0.549,0.705h-0.216
			c-0.318-0.009-0.523-0.233-0.617-0.686h0.024l-0.024-0.029l0.022-2.909l0.028-0.021l-0.028-0.032v-0.024l0.031-0.107l-0.026-0.029
			l-3.157,0.871l-0.004,0.568l0.004,2.417l-0.028,0.083l0.028,0.021v0.032c-0.113,0.43-0.325,0.647-0.628,0.647l-0.192-0.005
			c-0.251,0-0.438-0.193-0.567-0.578v-0.054v-3.152c-0.212-0.17-0.323-0.359-0.319-0.569c0.003-0.204,0.107-0.398,0.309-0.567
			v-0.051h0.024l-0.024-0.032v-0.024l0.024-0.026l-0.024-0.027l0.011-1.354l-0.027-0.14h0.027l-0.027-0.029l0.003-0.27l0.029-0.026
			l-0.029-0.029v-0.021l0.002-3.479C419.918,266.217,420.129,265.998,420.459,266.003z"/>
		<path fill="#01A79D" d="M429.478,266.114c0.43,0.078,0.643,0.285,0.643,0.629l-0.002,0.131c0,0.087-0.084,0.278-0.247,0.57
			l-0.009,0.271l-0.022,0.029l0.022,0.027v0.104c-0.005,0.844,0.196,1.526,0.607,2.069c0.204,0.221,0.39,0.347,0.54,0.388
			l0.298-0.078h0.081l0.436,0.136c0.683-0.356,1.204-1.047,1.566-2.076l0.057-0.511v-0.026l0.029-0.024
			c-0.014-0.111-0.063-0.213-0.158-0.31c-0.07-0.104-0.112-0.238-0.137-0.4c0.002-0.359,0.245-0.58,0.711-0.672
			c0.256,0,0.521,0.181,0.813,0.546c0.092,0.269,0.132,0.486,0.132,0.655l-0.006,0.137c-0.014,1.43-0.725,2.701-2.15,3.809
			c-0.356,0.132-0.539,0.21-0.544,0.234l0.12,1.579h-0.026l0.026,0.022l-0.002,0.384l0.029,0.188h-0.029l0.029,0.029l-0.009,0.537
			l-0.043,1.36h-0.026l0.026,0.021c-0.005,0.87-0.256,1.309-0.741,1.303c-0.468-0.094-0.704-0.316-0.702-0.657
			c0.063-0.497,0.098-1.123,0.103-1.869v-0.223c-0.024-1.824-0.087-2.74-0.191-2.74c-0.709-0.219-1.281-0.724-1.723-1.511
			c-0.336-0.784-0.503-1.637-0.494-2.553v-0.052C428.591,266.593,428.925,266.108,429.478,266.114z"/>
		<path fill="#01A79D" d="M446.874,267.938v0.022l0.021-0.022h0.146c0.852,0.009,1.268,0.801,1.254,2.368
			c-0.007,1.206-0.741,2.93-2.203,5.162h0.019c1.849-0.68,2.906-1.021,3.16-1.021c0.283,0.005,0.457,0.21,0.52,0.612
			c-0.003,0.359-0.283,0.58-0.842,0.667c-2.235,0.726-3.636,1.244-4.197,1.548l-0.17,0.019c-0.303,0-0.473-0.21-0.519-0.631v-0.022
			c0.003-0.223,0.162-0.51,0.479-0.857c1.78-2.513,2.678-4.385,2.688-5.63c0.006-0.683-0.103-1.026-0.325-1.026
			c-0.403-0.005-1.188,0.496-2.344,1.516c-0.198,0.354-0.373,0.535-0.528,0.526h-0.127c-0.319-0.08-0.483-0.258-0.479-0.539v-0.089
			c0.006-0.477,0.771-1.207,2.287-2.194C446.199,268.07,446.584,267.938,446.874,267.938z"/>
		<path fill="#01A79D" d="M456.157,267.487c0.47,0.008,0.752,0.188,0.854,0.543v0.138c-0.003,0.316-0.212,0.502-0.634,0.553
			c0.688,0.635,1.112,1.212,1.29,1.733c0.161,0.548,0.247,0.957,0.245,1.215h-0.027l0.027,0.024v0.094
			c-0.02,1.899-0.659,3.546-1.909,4.932c-0.497,0.452-1.031,0.672-1.612,0.664c-1.269-0.011-2.112-0.761-2.54-2.258
			c-0.12-0.462-0.177-0.995-0.172-1.607v-0.114c0.02-1.688,0.659-3.167,1.928-4.424v-0.141c0.002-0.266,0.218-0.473,0.635-0.647
			c0.258,0.006,0.534-0.115,0.821-0.342C455.524,267.603,455.894,267.487,456.157,267.487z M454.929,269.36
			c-1.36,1.129-2.049,2.438-2.06,3.935l-0.002,0.355c-0.014,1.284,0.338,2.114,1.051,2.476c0.164,0.045,0.301,0.069,0.414,0.077
			h0.024c0.69,0.005,1.33-0.696,1.927-2.109c0.284-0.721,0.431-1.441,0.438-2.156v-0.209c0.006-0.764-0.344-1.441-1.051-2.034
			C455.358,269.471,455.111,269.36,454.929,269.36z"/>
		<path fill="#01A79D" d="M460.79,267.643h0.137c0.358,0.009,0.532,0.314,0.523,0.914h-0.021l0.021,0.024l-0.005,0.675l0.022,0.258
			l-0.024,0.022l0.024,0.163l-0.004,0.28l0.02,0.562l-0.227,4.275h-0.021l0.021,0.021l-0.021,0.236l-0.006,0.346l-0.023,0.022
			l0.023,0.026l-0.008,0.836l0.04,0.258v0.092c-0.056,0.523-0.276,0.788-0.655,0.782c-0.32-0.003-0.514-0.221-0.578-0.653
			l0.016-1.677l0.026-0.021l-0.026-0.024l0.026-0.115l0.004-0.323l0.021-0.024l-0.021-0.026l0.024-0.23v-0.277l0.023-0.029
			l-0.021-0.019l0.021-0.122l0.032-0.809h0.024l-0.024-0.024l0.083-1.488h0.024l-0.024-0.026l0.054-0.954l-0.019-2.483
			C460.379,267.794,460.553,267.643,460.79,267.643z"/>
		<path fill="#01A79D" d="M468.193,267.71h0.073c1.236,0.011,1.85,0.643,1.843,1.882c-0.051,0.328-0.218,0.994-0.508,1.991
			c0.186,0.15,0.276,0.293,0.274,0.446v0.118c-0.094,0.354-0.274,0.529-0.54,0.529h-0.044c-0.574,1.888-0.869,3.364-0.88,4.437
			c-0.154,0.265-0.325,0.394-0.517,0.394h-0.116c-0.301,0-0.478-0.218-0.526-0.641v-0.088l0.022-0.024l-0.022-0.024
			c0.005-0.733,0.234-1.94,0.683-3.622l-2.241,0.94l-0.094,0.016c-0.4-0.072-0.602-0.276-0.6-0.613
			c0.003-0.336,0.368-0.619,1.107-0.846c0.729-0.337,1.475-0.632,2.239-0.89c0.381-1.31,0.574-2.034,0.574-2.179
			c0.003-0.391-0.096-0.59-0.296-0.59c0-0.023-0.094-0.04-0.278-0.045l-0.323-0.009c-0.844-0.005-1.733,0.277-2.663,0.842
			c-0.207,0.226-0.416,0.341-0.632,0.341c-0.37-0.083-0.557-0.269-0.553-0.539l0.002-0.113c0.003-0.438,0.72-0.914,2.152-1.425
			C466.969,267.799,467.59,267.702,468.193,267.71z"/>
	</g>
	<g>
		
			<linearGradient id="SVGID_1_" gradientUnits="userSpaceOnUse" x1="460.624" y1="174.3535" x2="527.9214" y2="174.3535" gradientTransform="matrix(0.7134 -0.7007 0.7007 0.7134 -25.5619 344.3391)">
			<stop  offset="0" style="stop-color:#561514"/>
			<stop  offset="1" style="stop-color:#EA2B29"/>
		</linearGradient>
		<path fill="url(#SVGID_1_)" d="M431.284,156.239c0.094,0.25,0.188,0.508,0.279,0.761c0.008-0.035,0.014-0.081,0.014-0.124
			C431.577,156.661,431.475,156.446,431.284,156.239 M423.685,154.239c0.392,1.535,0.786,3.314,1.141,5.3
			c3.244-0.47,5.576-1.169,6.413-1.986c0.126-0.129,0.217-0.258,0.274-0.387c-1.819-0.897-3.72-1.671-5.679-2.301
			C425.126,154.637,424.406,154.43,423.685,154.239 M397.18,156.005c-0.156,0.183-0.236,0.368-0.242,0.559
			c-0.008,1.032,2.263,1.978,5.873,2.642c0.399-2.008,0.841-3.809,1.271-5.334l-1.233,0.265c-0.586,0.148-1.172,0.302-1.75,0.479
			C399.757,155.013,398.45,155.481,397.18,156.005"/>
		
			<linearGradient id="SVGID_2_" gradientUnits="userSpaceOnUse" x1="3.043" y1="346.3574" x2="5.4839" y2="346.3574" gradientTransform="matrix(0.1979 -22.0624 -22.0624 -0.1979 8054.2378 342.0332)">
			<stop  offset="0" style="stop-color:#F48020"/>
			<stop  offset="0.4784" style="stop-color:#EEB224"/>
			<stop  offset="1" style="stop-color:#ECE73F"/>
		</linearGradient>
		<path fill="url(#SVGID_2_)" d="M404.081,153.872c-0.43,1.526-0.871,3.326-1.271,5.334c-1.484,7.479-2.339,17.952,0.562,29
			l0.902-10.178c0,0-0.26,15.339,5.176,35.164l-0.433-14.349c0,0,4.188,27.213,4.169,29.331c0.019-2.118,4.692-29.253,4.692-29.253
			l-0.69,14.346c5.799-19.724,5.808-35.064,5.808-35.064l0.723,10.186c3.082-10.93,2.437-21.354,1.106-28.85
			c-0.354-1.986-0.749-3.765-1.141-5.3c-1.236-0.32-2.495-0.588-3.77-0.798c-0.089,0.408-0.176,0.817-0.271,1.214
			c-0.096,0.419-0.196,0.831-0.295,1.248c1.112,4.084,2.519,11.911,0.17,20.249l-0.412-5.876c0,0-0.005,8.844-3.346,20.22
			l0.396-8.274c0,0-2.698,15.648-2.709,16.874c0.011-1.226-2.4-16.918-2.4-16.918l0.248,8.275
			c-3.137-11.433-2.986-20.274-2.986-20.274l-0.523,5.87c-2.882-10.998,0.682-20.998,1.41-22.86
			c0.006-0.048,0.011-0.091,0.017-0.137c-0.911,0.088-1.807,0.196-2.701,0.335c-0.307,0.049-0.607,0.097-0.917,0.156
			L404.081,153.872"/>
		
			<linearGradient id="SVGID_3_" gradientUnits="userSpaceOnUse" x1="4.7754" y1="344.8535" x2="7.2173" y2="344.8535" gradientTransform="matrix(0.1495 -16.6686 -16.6686 -0.1495 6161.1533 307.2751)">
			<stop  offset="0" style="stop-color:#F48020"/>
			<stop  offset="0.4784" style="stop-color:#EEB224"/>
			<stop  offset="1" style="stop-color:#ECE73F"/>
		</linearGradient>
		<path fill="url(#SVGID_3_)" d="M409.195,153.188c-0.729,1.863-4.292,11.862-1.41,22.86l0.523-5.87c0,0-0.15,8.842,2.986,20.274
			l-0.248-8.275c0,0,2.411,15.692,2.4,16.918c0.011-1.226,2.709-16.874,2.709-16.874l-0.396,8.274
			c3.341-11.376,3.346-20.22,3.346-20.22l0.412,5.876c2.349-8.338,0.942-16.165-0.17-20.249c-0.218,0.942-0.438,1.857-0.647,2.744
			c-0.005,0.021-0.011,0.035-0.014,0.057c1.491,5.928,0.557,11.099,0.557,11.099c0.083-3.908-0.314-7.407-0.802-10.132
			c-0.223,0.893-0.437,1.747-0.637,2.553c-0.274,1.102-0.575,2.118-0.813,3.021c-0.24,0.897-0.463,1.682-0.664,2.33
			c-0.016,0.059-0.033,0.116-0.049,0.169c-0.285,1.32-0.64,2.736-1.071,4.214l0.109-2.359l-0.395-0.003
			c-0.538,3.204-1.282,7.678-1.288,8.208c0.008-0.839-1.634-11.5-1.634-11.5l0.175,5.63c-2.137-7.775-2.031-13.784-2.031-13.784
			l-0.355,3.985c-0.255-0.981-0.44-1.949-0.559-2.892c-0.57,2.76-1.062,6.383-1.048,10.462c0,0-0.906-5.547,0.919-11.696
			C408.975,156.284,409.037,154.653,409.195,153.188"/>
		
			<linearGradient id="SVGID_4_" gradientUnits="userSpaceOnUse" x1="-19.729" y1="326.0195" x2="-17.2877" y2="326.0195" gradientTransform="matrix(-0.2221 3.8188 -3.8188 -0.2221 1649.5643 304.235)">
			<stop  offset="0" style="stop-color:#F48020"/>
			<stop  offset="0.4784" style="stop-color:#EEB224"/>
			<stop  offset="1" style="stop-color:#ECE73F"/>
		</linearGradient>
		<path fill="url(#SVGID_4_)" d="M409.102,158.01c-1.825,6.149-0.919,11.696-0.919,11.696c-0.014-4.079,0.478-7.702,1.048-10.462
			C409.177,158.827,409.134,158.418,409.102,158.01"/>
		
			<linearGradient id="SVGID_5_" gradientUnits="userSpaceOnUse" x1="-17.0957" y1="379.5225" x2="-14.6546" y2="379.5225" gradientTransform="matrix(0.1536 3.8227 3.8227 -0.1536 -1029.4213 280.2145)">
			<stop  offset="0" style="stop-color:#F48020"/>
			<stop  offset="0.4784" style="stop-color:#EEB224"/>
			<stop  offset="1" style="stop-color:#ECE73F"/>
		</linearGradient>
		<path fill="url(#SVGID_5_)" d="M418.688,158.704c-0.086,0.328-0.167,0.65-0.245,0.967c0.487,2.726,0.885,6.225,0.802,10.132
			C419.244,169.803,420.179,164.632,418.688,158.704"/>
		
			<linearGradient id="SVGID_6_" gradientUnits="userSpaceOnUse" x1="435.8984" y1="178.5723" x2="453.1434" y2="178.5723" gradientTransform="matrix(0.7134 -0.7007 0.7007 0.7134 -25.5619 344.3391)">
			<stop  offset="0" style="stop-color:#ECE73F"/>
			<stop  offset="0.4804" style="stop-color:#EEED8A"/>
			<stop  offset="1" style="stop-color:#F2F5D4"/>
		</linearGradient>
		<path fill="url(#SVGID_6_)" d="M416.279,167.744c-0.362,1.188-0.572,1.86-0.572,1.86l-0.39-0.005l-0.109,2.359
			C415.64,170.48,415.994,169.064,416.279,167.744 M409.212,153.052c-0.006,0.045-0.011,0.088-0.017,0.137
			c-0.158,1.465-0.221,3.096-0.094,4.821c0.032,0.409,0.075,0.817,0.129,1.234c0.118,0.943,0.304,1.911,0.559,2.892l0.355-3.985
			c0,0-0.105,6.009,2.031,13.784l-0.175-5.63c0,0,1.642,10.661,1.634,11.5c0.006-0.53,0.75-5.005,1.288-8.208l-0.764-0.008
			c0,0-0.212-0.742-0.586-2.037c-0.186-0.65-0.395-1.44-0.618-2.338c-0.224-0.908-0.508-1.93-0.755-3.04
			c-0.261-1.115-0.543-2.316-0.842-3.593c-0.276-1.271-0.566-2.612-0.873-4.007c-0.104-0.523-0.215-1.056-0.32-1.593
			C409.848,153,409.528,153.027,409.212,153.052"/>
		
			<linearGradient id="SVGID_7_" gradientUnits="userSpaceOnUse" x1="4.4946" y1="329.7383" x2="6.936" y2="329.7383" gradientTransform="matrix(4.6763 4.7609 -4.7609 4.6763 1987.1365 -1422.4126)">
			<stop  offset="0" style="stop-color:#561514"/>
			<stop  offset="1" style="stop-color:#EA2B29"/>
		</linearGradient>
		<path fill="url(#SVGID_7_)" d="M425.707,153.473c7.156,0.465,16.475,17.855,16.475,17.855c8.29-17.7,7.855-31.411,4.988-41.048
			c-3.324-11.207-9.947-16.883-9.947-16.883l-9.325,32.452L425.707,153.473z"/>
		
			<linearGradient id="SVGID_8_" gradientUnits="userSpaceOnUse" x1="-20.0884" y1="336.1504" x2="-17.6473" y2="336.1504" gradientTransform="matrix(-5.7846 -0.0519 -0.0519 5.7846 348.3441 -1808.0448)">
			<stop  offset="0" style="stop-color:#561514"/>
			<stop  offset="1" style="stop-color:#EA2B29"/>
		</linearGradient>
		<path fill="url(#SVGID_8_)" d="M427.9,145.849c6.271,3.706,12.913,15.614,12.913,15.614c6.109-12.553,7.334-22.956,6.358-31.177
			c-3.326-11.212-9.954-16.883-9.954-16.883L427.9,145.849z"/>
		
			<linearGradient id="SVGID_9_" gradientUnits="userSpaceOnUse" x1="8.0723" y1="357.5723" x2="10.5125" y2="357.5723" gradientTransform="matrix(13.3104 0.1194 0.1194 -13.3104 249.7985 4892.8521)">
			<stop  offset="0" style="stop-color:#561514"/>
			<stop  offset="1" style="stop-color:#EA2B29"/>
		</linearGradient>
		<path fill="url(#SVGID_9_)" d="M436.954,113.397c0,0,16.861,14.459,3.652,42.656c0,0-6.858-12.803-12.128-13.147L436.954,113.397z
			"/>
		
			<linearGradient id="SVGID_10_" gradientUnits="userSpaceOnUse" x1="-17.2593" y1="351.502" x2="-14.8179" y2="351.502" gradientTransform="matrix(-4.7611 4.6764 4.6764 4.7611 -1335.5271 -1452.2268)">
			<stop  offset="0" style="stop-color:#561514"/>
			<stop  offset="1" style="stop-color:#EA2B29"/>
		</linearGradient>
		<path fill="url(#SVGID_10_)" d="M402.845,153.269c-7.159,0.336-16.789,17.555-16.789,17.555
			c-7.968-17.845-7.293-31.545-4.251-41.127c3.528-11.145,10.25-16.705,10.25-16.705l8.742,32.616L402.845,153.269z"/>
		
			<linearGradient id="SVGID_11_" gradientUnits="userSpaceOnUse" x1="11.4238" y1="361.7646" x2="13.8657" y2="361.7646" gradientTransform="matrix(7.9811 0.0716 0.0716 -7.9811 264.3106 3023.3762)">
			<stop  offset="0" style="stop-color:#F7A9AD"/>
			<stop  offset="0.7773" style="stop-color:#F04E3D"/>
			<stop  offset="1" style="stop-color:#EA2B29"/>
		</linearGradient>
		<path fill="url(#SVGID_11_)" d="M400.797,145.61c-6.34,3.583-13.192,15.375-13.192,15.375
			c-5.892-12.655-6.929-23.083-5.803-31.285c3.529-11.153,10.253-16.706,10.253-16.706L400.797,145.61z"/>
		
			<linearGradient id="SVGID_12_" gradientUnits="userSpaceOnUse" x1="8.6128" y1="358.0723" x2="11.055" y2="358.0723" gradientTransform="matrix(12.3737 0.111 0.111 -12.3737 253.7152 4564.106)">
			<stop  offset="0" style="stop-color:#561514"/>
			<stop  offset="1" style="stop-color:#EA2B29"/>
		</linearGradient>
		<path fill="url(#SVGID_12_)" d="M392.317,112.997c0,0-17.116,14.155-4.415,42.583c0,0,7.095-12.682,12.365-12.927L392.317,112.997
			z"/>
		
			<linearGradient id="SVGID_13_" gradientUnits="userSpaceOnUse" x1="469.6924" y1="129.9355" x2="522.1367" y2="129.9355" gradientTransform="matrix(0.7134 -0.7007 0.7007 0.7134 -25.5619 344.3391)">
			<stop  offset="0" style="stop-color:#561514"/>
			<stop  offset="1" style="stop-color:#EA2B29"/>
		</linearGradient>
		<path fill="url(#SVGID_13_)" d="M421.123,149.095c-0.007,0-0.007,0-0.007,0c1.621,0.312,3.207,0.723,4.758,1.218
			c0.346,0.113,0.695,0.231,1.045,0.349l0,0c-0.347-0.118-0.699-0.236-1.049-0.349C424.323,149.813,422.74,149.407,421.123,149.095
			 M401.469,149.964L401.469,149.964c0.471-0.129,0.943-0.258,1.419-0.379l2.499-0.541c-0.005,0-0.005,0-0.005,0l-2.494,0.538
			C402.412,149.703,401.939,149.829,401.469,149.964 M412.872,27.204c-6.568,6.453-23.526,26.503-23.841,61.808
			c-0.242,27.256,6.503,47.676,11.643,59.213c0.33-0.635,0.664-1.25,0.997-1.852c0.419-0.748,0.838-1.475,1.263-2.177
			c-4.485-9.651-11.771-29.648-11.524-57.399c0.307-33.93,16.553-52.452,21.495-57.307c0.884-0.873,1.408-1.302,1.408-1.302
			s22.22,18.979,21.863,59.007c-0.004,0.059-0.004,0.124-0.004,0.183c0,0.046,0,0.097,0,0.143c-0.023,2.566-0.118,5.052-0.266,7.468
			c-1.319,21.909-7.106,38.146-11.309,47.297c-0.02,0.045-0.04,0.083-0.058,0.126c0.103,0.162,0.203,0.322,0.302,0.487
			c1.037,1.704,2.086,3.579,3.106,5.625c5.352-11.432,12.494-31.75,12.739-59.049c0.392-43.799-25.26-64.585-25.26-64.585
			S414.455,25.65,412.872,27.204"/>
		
			<linearGradient id="SVGID_14_" gradientUnits="userSpaceOnUse" x1="462.0859" y1="128.1729" x2="489.4604" y2="128.1729" gradientTransform="matrix(0.7134 -0.7007 0.7007 0.7134 -25.5619 344.3391)">
			<stop  offset="0" style="stop-color:#561514"/>
			<stop  offset="1" style="stop-color:#EA2B29"/>
		</linearGradient>
		<path fill="url(#SVGID_14_)" d="M420.798,149.034c0,0-0.003,0.002,0,0.002c0.106,0.019,0.212,0.038,0.318,0.059c0,0,0,0,0.007,0
			C421.012,149.074,420.904,149.053,420.798,149.034 M405.382,149.044c0,0,0,0,0.005,0l0.247-0.059
			c0.305-0.051,0.61-0.102,0.914-0.147c0.933-0.146,1.871-0.261,2.819-0.347l0,0c-0.948,0.083-1.881,0.199-2.811,0.341
			c-0.313,0.046-0.613,0.1-0.919,0.153L405.382,149.044 M435.906,94.988c-1.433,22.93-8.17,39.063-11.959,46.483
			c0.196,0.307,0.4,0.624,0.593,0.941c0.018-0.043,0.038-0.081,0.058-0.126C428.8,133.134,434.587,116.897,435.906,94.988
			 M412.904,29.49c-4.942,4.855-21.188,23.377-21.495,57.307c-0.247,27.751,7.039,47.749,11.524,57.399
			c0.902-1.497,1.806-2.878,2.682-4.13c-4.122-8.85-10.873-27.292-10.643-52.915c0.283-31.231,15.233-48.272,19.783-52.741
			c0.814-0.803,1.292-1.201,1.292-1.201s20.401,17.427,20.124,54.167c0-0.059,0-0.124,0.004-0.183
			c0.356-40.028-21.863-59.007-21.863-59.007S413.788,28.617,412.904,29.49"/>
		
			<linearGradient id="SVGID_15_" gradientUnits="userSpaceOnUse" x1="452.1797" y1="128.8467" x2="521.7484" y2="128.8467" gradientTransform="matrix(0.7134 -0.7007 0.7007 0.7134 -25.5619 344.3391)">
			<stop  offset="0" style="stop-color:#561514"/>
			<stop  offset="1" style="stop-color:#EA2B29"/>
		</linearGradient>
		<path fill="url(#SVGID_15_)" d="M423.294,100.358c-1.964,1.929-4.662,3.115-7.641,3.085c-4.244-0.038-7.888-2.526-9.613-6.112
			c-0.69-1.44-1.077-3.058-1.062-4.773c0.027-2.978,1.255-5.668,3.228-7.6c1.971-1.93,4.668-3.112,7.641-3.085
			c3.889,0.032,7.274,2.118,9.144,5.225c0.991,1.65,1.556,3.584,1.539,5.652C426.5,95.733,425.267,98.417,423.294,100.358
			 M414.756,34.411c-4.55,4.468-19.5,21.51-19.783,52.741c-0.23,25.623,6.521,44.064,10.643,52.915
			c0.535-0.761,1.063-1.484,1.575-2.159c-0.019-0.252-0.037-0.505-0.04-0.752c-0.014-0.686,0.04-1.363,0.14-2.021
			c-0.199-0.414-0.414-0.884-0.626-1.403c-0.479-1.236-1.177-2.714-1.747-4.478c-0.557-1.762-1.35-3.725-1.876-5.95
			c-0.293-1.107-0.594-2.257-0.911-3.451c-0.15-0.602-0.304-1.209-0.459-1.83c-0.127-0.618-0.242-1.255-0.371-1.9
			c-0.242-1.29-0.489-2.615-0.747-3.966c-0.261-1.358-0.517-2.745-0.643-4.171c-0.29-2.843-0.715-5.784-0.908-8.782
			c-0.092-3.011-0.19-6.061-0.279-9.116l-0.024-1.143c0.003-0.481,0.026-0.784,0.04-1.185l0.091-2.257l0.095-2.25
			c0.064-0.766,0.135-1.526,0.196-2.287c0.14-1.521,0.253-3.037,0.516-4.499c0.245-1.461,0.4-2.918,0.718-4.331
			c0.312-1.408,0.529-2.815,0.903-4.152c0.376-1.339,0.695-2.655,1.088-3.918c0.422-1.256,0.774-2.491,1.215-3.654
			c0.471-1.157,0.874-2.286,1.344-3.339c0.903-2.115,1.853-4.003,2.781-5.626c0.909-1.63,1.804-2.991,2.586-4.075
			c0.752-1.101,1.459-1.891,1.916-2.435c0.457-0.513,0.718-0.78,0.736-0.798c0.005-0.004,0.005-0.004,0.005-0.004
			s-0.209,0.317-0.559,0.934c-0.35,0.615-0.833,1.532-1.397,2.717c-0.583,1.182-1.201,2.65-1.876,4.339
			c-0.666,1.692-1.322,3.638-1.991,5.762c-0.64,2.139-1.228,4.478-1.804,6.957c-0.526,2.491-0.985,5.14-1.387,7.886
			c-0.384,2.746-0.652,5.618-0.839,8.489c-0.056,0.72-0.109,1.446-0.166,2.168l-0.059,2.25l-0.052,2.263
			c-0.002,0.349-0.024,0.801-0.021,1.08l0.033,1.115c0.045,2.981,0.094,5.961,0.137,8.898c0.185,2.93,0.365,5.811,0.54,8.603
			c0.046,1.403,0.269,2.76,0.397,4.099c0.146,1.341,0.282,2.65,0.422,3.923c0.067,0.645,0.14,1.271,0.212,1.892
			c0.1,0.613,0.191,1.223,0.288,1.817c0.18,1.199,0.354,2.354,0.521,3.472c0.083,0.554,0.164,1.096,0.244,1.631
			c0.105,0.524,0.204,1.041,0.31,1.543c0.186,1.002,0.368,1.959,0.537,2.857c0.325,1.811,0.744,3.349,1.011,4.647
			c0.034,0.139,0.07,0.279,0.104,0.414c0.06-0.244,0.121-0.489,0.19-0.729c0.35-1.268,0.82-2.467,1.347-3.574
			c1.035-2.215,2.354-4.047,3.48-5.332c0.428-0.479,0.804-0.882,1.132-1.199c0.104-0.105,0.21-0.205,0.306-0.296
			c0.369-0.339,0.592-0.524,0.592-0.524l1.548,0.016c0,0,0.231,0.186,0.592,0.538c0.367,0.347,0.849,0.862,1.408,1.513
			c1.104,1.307,2.392,3.166,3.391,5.397c0.441,0.989,0.845,2.047,1.158,3.163c0.165-0.471,0.366-1.057,0.626-1.742
			c0.313-0.959,0.688-2.131,1.118-3.47c0.379-1.354,0.802-2.884,1.264-4.547c0.465-1.666,0.807-3.518,1.287-5.429
			c0.511-1.911,0.769-3.99,1.199-6.1c0.196-1.059,0.392-2.14,0.592-3.226c0.139-1.107,0.281-2.22,0.421-3.337
			c0.15-1.124,0.299-2.252,0.448-3.392c0.162-1.132,0.315-2.268,0.358-3.418c0.174-2.295,0.354-4.587,0.52-6.843
			c0.042-0.554,0.08-1.096,0.122-1.642c0.009-0.562,0.012-1.128,0.017-1.685c0.011-1.121,0.021-2.22,0.035-3.311
			c0.016-1.086,0.026-2.15,0.043-3.196c-0.027-1.035-0.126-2.029-0.18-3.01c-0.062-0.981-0.124-1.935-0.183-2.857
			c-0.063-0.924-0.063-1.822-0.224-2.672c-0.253-1.701-0.451-3.275-0.627-4.674c-0.074-0.703-0.174-1.35-0.318-1.94
			c-0.132-0.601-0.248-1.145-0.353-1.637c-0.419-1.98-0.632-3.131-0.632-3.131s0.4,1.085,1.051,3.017
			c0.161,0.485,0.336,1.02,0.532,1.601c0.215,0.586,0.39,1.223,0.537,1.916c0.337,1.377,0.713,2.936,1.086,4.656
			c0.382,1.715,0.532,3.623,0.799,5.625c0.118,1.002,0.271,2.037,0.356,3.091c0.029,1.045,0.061,2.115,0.087,3.195
			c0.026,1.094,0.051,2.193,0.083,3.314c0.009,0.557,0.021,1.121,0.037,1.683c-0.026,0.664-0.069,1.167-0.106,1.76
			c-0.146,2.295-0.299,4.623-0.455,6.955c-0.053,1.167-0.223,2.322-0.397,3.47c-0.166,1.153-0.328,2.303-0.495,3.438
			c-0.172,1.134-0.339,2.262-0.508,3.377c-0.243,1.094-0.483,2.186-0.72,3.255c-0.481,2.14-0.878,4.219-1.508,6.127
			c-0.577,1.924-1.072,3.755-1.683,5.396c-0.602,1.64-1.155,3.139-1.7,4.454c-0.581,1.298-1.087,2.426-1.501,3.356
			c-0.375,0.769-0.714,1.378-0.958,1.843c0.018,0.054,0.037,0.105,0.045,0.162c0.341,1.279,0.554,2.615,0.505,4.004
			c-0.028,0.854-0.178,1.722-0.392,2.601c0.347,0.505,0.693,1.032,1.04,1.569c3.789-7.42,10.526-23.553,11.959-46.483
			c0.147-2.416,0.242-4.901,0.266-7.468c0-0.046,0-0.097,0-0.143c0.277-36.741-20.124-54.167-20.124-54.167
			S415.57,33.607,414.756,34.411"/>
		
			<linearGradient id="SVGID_16_" gradientUnits="userSpaceOnUse" x1="7.4097" y1="358.8262" x2="9.8513" y2="358.8262" gradientTransform="matrix(14.2559 0.1279 0.1279 -14.2559 244.1055 5206.8911)">
			<stop  offset="0" style="stop-color:#442321"/>
			<stop  offset="1" style="stop-color:#902D2D"/>
		</linearGradient>
		<path fill="url(#SVGID_16_)" d="M408.206,84.958c-1.973,1.932-3.2,4.623-3.228,7.6c-0.016,1.715,0.371,3.333,1.062,4.773
			c1.726,3.585,5.369,6.074,9.613,6.112c2.979,0.029,5.677-1.156,7.641-3.085c1.973-1.94,3.206-4.625,3.235-7.608
			c0.017-2.067-0.548-4.002-1.539-5.652c-1.869-3.107-5.255-5.193-9.144-5.225C412.874,81.846,410.177,83.029,408.206,84.958"/>
		
			<radialGradient id="SVGID_17_" cx="6.5088" cy="357.2031" r="2.4417" gradientTransform="matrix(18.4438 0.1655 0.1656 -18.4641 233.7977 6683.0298)" gradientUnits="userSpaceOnUse">
			<stop  offset="0" style="stop-color:#F7A9AD"/>
			<stop  offset="0.7773" style="stop-color:#F04E3D"/>
			<stop  offset="1" style="stop-color:#EA2B29"/>
		</radialGradient>
		<path fill="url(#SVGID_17_)" d="M412.923,44.138c-0.019,0.018-0.279,0.285-0.736,0.798c-0.457,0.544-1.164,1.334-1.916,2.435
			c-0.782,1.083-1.677,2.445-2.586,4.075c-0.929,1.623-1.878,3.511-2.781,5.626c-0.47,1.054-0.873,2.182-1.344,3.339
			c-0.44,1.163-0.793,2.397-1.215,3.654c-0.393,1.263-0.712,2.579-1.088,3.918c-0.374,1.337-0.592,2.744-0.903,4.152
			c-0.317,1.412-0.473,2.869-0.718,4.331c-0.263,1.462-0.376,2.978-0.516,4.499c-0.062,0.761-0.132,1.521-0.196,2.287l-0.095,2.25
			l-0.091,2.257c-0.014,0.401-0.037,0.704-0.04,1.185l0.024,1.143c0.089,3.056,0.188,6.105,0.279,9.116
			c0.193,2.999,0.618,5.939,0.908,8.782c0.126,1.427,0.382,2.813,0.643,4.171c0.258,1.351,0.505,2.677,0.747,3.966
			c0.129,0.645,0.244,1.282,0.371,1.9c0.155,0.621,0.309,1.228,0.459,1.83c0.317,1.193,0.618,2.344,0.911,3.451
			c0.526,2.225,1.319,4.188,1.876,5.95c0.57,1.763,1.269,3.241,1.747,4.478c0.212,0.519,0.427,0.989,0.626,1.403
			c0.062-0.427,0.143-0.838,0.244-1.244c-0.034-0.134-0.07-0.274-0.104-0.414c-0.267-1.298-0.686-2.836-1.011-4.647
			c-0.169-0.898-0.352-1.854-0.537-2.857c-0.105-0.502-0.204-1.019-0.31-1.543c-0.08-0.535-0.161-1.077-0.244-1.631
			c-0.167-1.118-0.342-2.273-0.521-3.472c-0.097-0.594-0.188-1.204-0.288-1.817c-0.072-0.621-0.145-1.247-0.212-1.892
			c-0.14-1.273-0.276-2.582-0.422-3.923c-0.129-1.339-0.352-2.696-0.397-4.099c-0.175-2.792-0.355-5.673-0.54-8.603
			c-0.043-2.937-0.092-5.917-0.137-8.898l-0.033-1.115c-0.003-0.279,0.02-0.731,0.021-1.08l0.052-2.263l0.059-2.25
			c0.057-0.723,0.11-1.449,0.166-2.168c0.187-2.871,0.455-5.743,0.839-8.489c0.401-2.746,0.86-5.395,1.387-7.886
			c0.576-2.479,1.164-4.818,1.804-6.957c0.669-2.125,1.325-4.07,1.991-5.762c0.675-1.689,1.293-3.157,1.876-4.339
			c0.564-1.185,1.048-2.102,1.397-2.717c0.35-0.617,0.559-0.934,0.559-0.934S412.928,44.134,412.923,44.138"/>
		
			<linearGradient id="SVGID_18_" gradientUnits="userSpaceOnUse" x1="-5.3613" y1="356.5449" x2="-2.9199" y2="356.5449" gradientTransform="matrix(-0.1788 19.9284 19.9284 0.1788 -6678.1821 111.2183)">
			<stop  offset="0" style="stop-color:#FCDEDF"/>
			<stop  offset="0.0408" style="stop-color:#FBDBDB"/>
			<stop  offset="0.7607" style="stop-color:#F49BA1"/>
			<stop  offset="1" style="stop-color:#F49BA1"/>
		</linearGradient>
		<path fill="url(#SVGID_18_)" d="M428.212,61.605c0,0,0.213,1.15,0.632,3.131c0.104,0.492,0.221,1.036,0.353,1.637
			c0.145,0.59,0.244,1.238,0.318,1.94c0.176,1.399,0.374,2.973,0.627,4.674c0.161,0.851,0.161,1.748,0.224,2.672
			c0.059,0.922,0.121,1.876,0.183,2.857c0.054,0.981,0.152,1.975,0.18,3.01c-0.017,1.046-0.027,2.11-0.043,3.196
			c-0.014,1.091-0.024,2.19-0.035,3.311c-0.005,0.557-0.008,1.124-0.017,1.685c-0.042,0.546-0.08,1.088-0.122,1.642
			c-0.165,2.255-0.346,4.548-0.52,6.843c-0.043,1.15-0.196,2.287-0.358,3.418c-0.149,1.139-0.298,2.268-0.448,3.392
			c-0.14,1.118-0.282,2.23-0.421,3.337c-0.2,1.086-0.396,2.167-0.592,3.226c-0.431,2.11-0.688,4.189-1.199,6.1
			c-0.48,1.911-0.822,3.763-1.287,5.429c-0.462,1.664-0.885,3.193-1.264,4.547c-0.43,1.338-0.806,2.51-1.118,3.47
			c-0.26,0.685-0.461,1.271-0.626,1.742c0.027,0.088,0.052,0.177,0.071,0.271c0.244-0.465,0.583-1.075,0.958-1.843
			c0.414-0.93,0.92-2.059,1.501-3.356c0.545-1.314,1.099-2.814,1.7-4.454c0.61-1.642,1.105-3.472,1.683-5.396
			c0.63-1.908,1.026-3.988,1.508-6.127c0.236-1.069,0.477-2.161,0.72-3.255c0.169-1.115,0.336-2.244,0.508-3.377
			c0.167-1.135,0.329-2.285,0.495-3.438c0.175-1.147,0.345-2.303,0.397-3.47c0.156-2.333,0.31-4.66,0.455-6.955
			c0.037-0.594,0.08-1.096,0.106-1.76c-0.016-0.562-0.028-1.126-0.037-1.683c-0.032-1.121-0.057-2.22-0.083-3.314
			c-0.026-1.08-0.058-2.15-0.087-3.195c-0.085-1.054-0.238-2.088-0.356-3.091c-0.267-2.002-0.417-3.91-0.799-5.625
			c-0.373-1.72-0.749-3.279-1.086-4.656c-0.147-0.693-0.322-1.33-0.537-1.916c-0.196-0.581-0.371-1.115-0.532-1.601
			C428.612,62.69,428.212,61.605,428.212,61.605"/>
		
			<radialGradient id="SVGID_19_" cx="6.5098" cy="357.207" r="2.4379" gradientTransform="matrix(18.4414 0.1654 0.1656 -18.4617 233.8153 6682.2358)" gradientUnits="userSpaceOnUse">
			<stop  offset="0" style="stop-color:#F7A9AD"/>
			<stop  offset="0.7773" style="stop-color:#F04E3D"/>
			<stop  offset="1" style="stop-color:#EA2B29"/>
		</radialGradient>
		<path fill="url(#SVGID_19_)" d="M425.656,84.953c-2.252-3.144-5.896-5.198-10.054-5.235c-6.906-0.059-12.569,5.499-12.634,12.422
			c-0.063,6.582,4.993,12.061,11.473,12.594c-0.319,0.021-0.618,0.029-0.928,0.026h-0.128l0.271,0.027
			c-0.319,0.021-0.628,0.03-0.951,0.021c-7.748-0.067-13.982-6.417-13.916-14.179c0.07-7.756,6.415-13.996,14.171-13.927
			c5.373,0.049,10.012,3.118,12.333,7.571l-0.083-0.105C425.366,84.416,425.514,84.679,425.656,84.953z"/>
		
			<linearGradient id="SVGID_20_" gradientUnits="userSpaceOnUse" x1="-0.7231" y1="372.0117" x2="1.717" y2="372.0117" gradientTransform="matrix(5.0811 5.1731 5.1731 -5.0811 -1512.34 1979.1771)">
			<stop  offset="0" style="stop-color:#B7E3EF"/>
			<stop  offset="0.2393" style="stop-color:#B7E3EF"/>
			<stop  offset="1" style="stop-color:#E9F6F7"/>
		</linearGradient>
		<path fill="url(#SVGID_20_)" d="M424.197,91.758c-0.043,5.206-4.295,9.382-9.495,9.336c-3.703-0.035-6.88-2.204-8.391-5.338
			c-0.604-1.257-0.94-2.673-0.925-4.17c0.044-5.195,4.295-9.375,9.487-9.326c3.393,0.027,6.351,1.854,7.981,4.566
			C423.721,88.264,424.213,89.952,424.197,91.758z"/>
		
			<linearGradient id="SVGID_21_" gradientUnits="userSpaceOnUse" x1="14.3613" y1="366.2441" x2="16.8027" y2="366.2441" gradientTransform="matrix(7.3107 0.0656 0.0656 -7.3107 277.3174 2770.4248)">
			<stop  offset="0" style="stop-color:#E9F6F7"/>
			<stop  offset="0.7607" style="stop-color:#B7E3EF"/>
			<stop  offset="1" style="stop-color:#B7E3EF"/>
		</linearGradient>
		<path fill="url(#SVGID_21_)" d="M424.197,91.758c-0.043,5.206-4.295,9.382-9.495,9.336c-3.703-0.035-6.88-2.204-8.391-5.338
			c0.731-2.711,2.822-6.761,8.855-6.702c3.093,0.027,5.652-0.844,7.688-2.228C423.721,88.264,424.213,89.952,424.197,91.758z"/>
		
			<linearGradient id="SVGID_22_" gradientUnits="userSpaceOnUse" x1="18.418" y1="371.7383" x2="20.8593" y2="371.7383" gradientTransform="matrix(5.6464 0.0507 0.0507 -5.6464 284.6987 2182.3594)">
			<stop  offset="0" style="stop-color:#561514"/>
			<stop  offset="1" style="stop-color:#EA2B29"/>
		</linearGradient>
		<path fill="url(#SVGID_22_)" d="M409.604,82.271c1.138,0.01,2.054,0.946,2.046,2.085c-0.014,1.145-0.946,2.056-2.086,2.048
			c-1.143-0.014-2.056-0.943-2.048-2.085C407.524,83.174,408.462,82.26,409.604,82.271z"/>
		
			<linearGradient id="SVGID_23_" gradientUnits="userSpaceOnUse" x1="4.4976" y1="329.9434" x2="6.9387" y2="329.9434" gradientTransform="matrix(4.6749 4.7595 -4.7595 4.6749 1985.9648 -1421.2521)">
			<stop  offset="0" style="stop-color:#0A0A0A"/>
			<stop  offset="0.9613" style="stop-color:#6A615F"/>
			<stop  offset="1" style="stop-color:#6D6562"/>
		</linearGradient>
		<path fill="url(#SVGID_23_)" d="M447.172,130.286c0.984,8.221-0.249,18.625-6.358,31.175c0,0-5.975-10.704-11.936-14.964
			c-1.025,2.306-2.01,4.319-2.888,6.009l-0.278,0.967c7.151,0.468,16.47,17.855,16.47,17.855
			C450.472,153.629,450.037,139.918,447.172,130.286z"/>
		
			<linearGradient id="SVGID_24_" gradientUnits="userSpaceOnUse" x1="4.4951" y1="329.4756" x2="6.9364" y2="329.4756" gradientTransform="matrix(4.6764 4.7611 -4.7611 4.6764 1988.0695 -1423.298)">
			<stop  offset="0" style="stop-color:#0A0A0A"/>
			<stop  offset="0.9613" style="stop-color:#6A615F"/>
			<stop  offset="1" style="stop-color:#6D6562"/>
		</linearGradient>
		<path fill="url(#SVGID_24_)" d="M440.606,156.054c0,0-5.484-10.234-10.41-12.645c-0.445,1.083-0.889,2.11-1.323,3.083
			c5.966,4.263,11.94,14.969,11.94,14.969c6.109-12.55,7.334-22.954,6.356-31.18c-2.448-8.245-6.679-13.491-8.746-15.695
			l-0.042,0.28C442.146,119.192,451.383,133.054,440.606,156.054z"/>
		
			<linearGradient id="SVGID_25_" gradientUnits="userSpaceOnUse" x1="-20.083" y1="336.2119" x2="-17.6415" y2="336.2119" gradientTransform="matrix(-5.7859 -0.0519 -0.0519 5.7859 348.3448 -1808.2313)">
			<stop  offset="0" style="stop-color:#0A0A0A"/>
			<stop  offset="0.9613" style="stop-color:#6A615F"/>
			<stop  offset="1" style="stop-color:#6D6562"/>
		</linearGradient>
		<path fill="url(#SVGID_25_)" d="M440.606,156.054c0,0-5.484-10.234-10.41-12.645c-0.445,1.083-0.889,2.11-1.323,3.083
			c5.966,4.263,11.94,14.969,11.94,14.969c6.109-12.55,7.334-22.954,6.356-31.18c-2.448-8.245-6.679-13.491-8.746-15.695
			l-0.042,0.28C442.146,119.192,451.383,133.054,440.606,156.054z"/>
		
			<linearGradient id="SVGID_26_" gradientUnits="userSpaceOnUse" x1="4.4961" y1="329.3242" x2="6.9372" y2="329.3242" gradientTransform="matrix(4.6766 4.7612 -4.7612 4.6766 1988.6241 -1423.8525)">
			<stop  offset="0" style="stop-color:#0A0A0A"/>
			<stop  offset="0.9613" style="stop-color:#6A615F"/>
			<stop  offset="1" style="stop-color:#6D6562"/>
		</linearGradient>
		<path fill="url(#SVGID_26_)" d="M440.606,156.054c10.776-23,1.537-36.862-2.225-41.188c-2.07,11.701-5.214,21.311-8.186,28.543
			C435.122,145.819,440.606,156.054,440.606,156.054z"/>
		
			<linearGradient id="SVGID_27_" gradientUnits="userSpaceOnUse" x1="-20.0845" y1="335.9502" x2="-17.6432" y2="335.9502" gradientTransform="matrix(-5.7857 -0.0519 -0.0519 5.7857 348.3531 -1809.2333)">
			<stop  offset="0" style="stop-color:#0A0A0A"/>
			<stop  offset="0.9613" style="stop-color:#6A615F"/>
			<stop  offset="1" style="stop-color:#6D6562"/>
		</linearGradient>
		<path fill="url(#SVGID_27_)" d="M440.606,156.054c10.776-23,1.537-36.862-2.225-41.188c-2.07,11.701-5.214,21.311-8.186,28.543
			C435.122,145.819,440.606,156.054,440.606,156.054z"/>
		
			<linearGradient id="SVGID_28_" gradientUnits="userSpaceOnUse" x1="8.0708" y1="357.5391" x2="10.512" y2="357.5391" gradientTransform="matrix(13.3132 0.1194 0.1194 -13.3132 249.7782 4894.1172)">
			<stop  offset="0" style="stop-color:#0A0A0A"/>
			<stop  offset="0.9613" style="stop-color:#6A615F"/>
			<stop  offset="1" style="stop-color:#6D6562"/>
		</linearGradient>
		<path fill="url(#SVGID_28_)" d="M440.606,156.054c10.776-23,1.537-36.862-2.225-41.188c-2.07,11.701-5.214,21.311-8.186,28.543
			C435.122,145.819,440.606,156.054,440.606,156.054z"/>
		
			<linearGradient id="SVGID_29_" gradientUnits="userSpaceOnUse" x1="-17.2725" y1="351.7148" x2="-14.8314" y2="351.7148" gradientTransform="matrix(-4.7597 4.675 4.675 4.7597 -1334.3505 -1451.0939)">
			<stop  offset="0" style="stop-color:#0A0A0A"/>
			<stop  offset="0.9613" style="stop-color:#6A615F"/>
			<stop  offset="1" style="stop-color:#6D6562"/>
		</linearGradient>
		<path fill="url(#SVGID_29_)" d="M387.606,160.985c-5.894-12.661-6.931-23.083-5.805-31.285
			c-3.039,9.578-3.714,23.279,4.254,41.124c0,0,9.63-17.218,16.789-17.555l-0.263-0.983c-0.85-1.707-1.793-3.728-2.773-6.052
			C393.772,150.38,387.606,160.985,387.606,160.985z"/>
		
			<linearGradient id="SVGID_30_" gradientUnits="userSpaceOnUse" x1="-17.2686" y1="351.2402" x2="-14.8271" y2="351.2402" gradientTransform="matrix(-4.761 4.6763 4.6763 4.761 -1336.327 -1453.1094)">
			<stop  offset="0" style="stop-color:#0A0A0A"/>
			<stop  offset="0.9613" style="stop-color:#6A615F"/>
			<stop  offset="1" style="stop-color:#6D6562"/>
		</linearGradient>
		<path fill="url(#SVGID_30_)" d="M387.606,160.985c0,0,6.166-10.604,12.202-14.757c-0.411-0.978-0.834-2.021-1.261-3.101
			c-4.97,2.316-10.643,12.456-10.643,12.456c-10.374-23.217-0.86-36.913,2.978-41.153l-0.046-0.28
			c-2.099,2.156-6.434,7.334-9.035,15.55C380.676,137.902,381.713,148.324,387.606,160.985z"/>
		
			<linearGradient id="SVGID_31_" gradientUnits="userSpaceOnUse" x1="11.4243" y1="361.7188" x2="13.8672" y2="361.7188" gradientTransform="matrix(7.9805 0.0716 0.0716 -7.9805 264.3151 3023.3721)">
			<stop  offset="0" style="stop-color:#7D736F"/>
			<stop  offset="1" style="stop-color:#6D6562"/>
		</linearGradient>
		<path fill="url(#SVGID_31_)" d="M387.606,160.985c0,0,6.166-10.604,12.202-14.757c-0.411-0.978-0.834-2.021-1.261-3.101
			c-4.97,2.316-10.643,12.456-10.643,12.456c-10.374-23.217-0.86-36.913,2.978-41.153l-0.046-0.28
			c-2.099,2.156-6.434,7.334-9.035,15.55C380.676,137.902,381.713,148.324,387.606,160.985z"/>
		
			<linearGradient id="SVGID_32_" gradientUnits="userSpaceOnUse" x1="-17.2764" y1="351.0879" x2="-14.8347" y2="351.0879" gradientTransform="matrix(-4.7608 4.6762 4.6762 4.7608 -1336.7471 -1453.5607)">
			<stop  offset="0" style="stop-color:#0A0A0A"/>
			<stop  offset="0.9613" style="stop-color:#6A615F"/>
			<stop  offset="1" style="stop-color:#6D6562"/>
		</linearGradient>
		<path fill="url(#SVGID_32_)" d="M387.902,155.58c0,0,5.679-10.142,10.646-12.453c-2.844-7.292-5.813-16.956-7.665-28.697
			C387.045,118.67,377.531,132.36,387.902,155.58z"/>
		
			<linearGradient id="SVGID_33_" gradientUnits="userSpaceOnUse" x1="11.4238" y1="361.9102" x2="13.8661" y2="361.9102" gradientTransform="matrix(7.9801 0.0716 0.0716 -7.9801 264.3221 3022.1777)">
			<stop  offset="0" style="stop-color:#7D736F"/>
			<stop  offset="1" style="stop-color:#6D6562"/>
		</linearGradient>
		<path fill="url(#SVGID_33_)" d="M387.902,155.58c0,0,5.679-10.142,10.646-12.453c-2.844-7.292-5.813-16.956-7.665-28.697
			C387.045,118.67,377.531,132.36,387.902,155.58z"/>
		
			<linearGradient id="SVGID_34_" gradientUnits="userSpaceOnUse" x1="8.6108" y1="358.0371" x2="11.0524" y2="358.0371" gradientTransform="matrix(12.3742 0.111 0.111 -12.3742 253.7081 4564.5908)">
			<stop  offset="0" style="stop-color:#0A0A0A"/>
			<stop  offset="0.9613" style="stop-color:#6A615F"/>
			<stop  offset="1" style="stop-color:#6D6562"/>
		</linearGradient>
		<path fill="url(#SVGID_34_)" d="M387.902,155.58c0,0,5.679-10.142,10.646-12.453c-2.844-7.292-5.813-16.956-7.665-28.697
			C387.045,118.67,377.531,132.36,387.902,155.58z"/>
		
			<linearGradient id="SVGID_35_" gradientUnits="userSpaceOnUse" x1="9.4946" y1="363.4434" x2="11.9359" y2="363.4434" gradientTransform="matrix(11.3542 0.1019 0.1019 -11.3542 259.8722 4168.9321)">
			<stop  offset="0" style="stop-color:#0A0A0A"/>
			<stop  offset="0.9613" style="stop-color:#6A615F"/>
			<stop  offset="1" style="stop-color:#6D6562"/>
		</linearGradient>
		<path fill="url(#SVGID_35_)" d="M414.313,28.188c0,0,11.68,9.982,17.965,30.726c1.748,0.935,3.403,2.004,4.973,3.197
			c-6.915-25.143-21.819-37.218-21.819-37.218s-15.074,11.777-22.438,36.726c0.767-0.556,1.559-1.088,2.365-1.589
			C401.912,38.413,414.313,28.188,414.313,28.188z"/>
		
			<linearGradient id="SVGID_36_" gradientUnits="userSpaceOnUse" x1="9.4951" y1="363.4023" x2="11.9363" y2="363.4023" gradientTransform="matrix(11.3536 0.1019 0.1019 -11.3536 259.8635 4169.0723)">
			<stop  offset="0" style="stop-color:#0A0A0A"/>
			<stop  offset="0.9613" style="stop-color:#6A615F"/>
			<stop  offset="1" style="stop-color:#6D6562"/>
		</linearGradient>
		<path fill="url(#SVGID_36_)" d="M414.313,28.188c0,0-12.4,10.228-18.955,31.841c1.586-0.97,3.247-1.834,4.972-2.565
			c6.246-16.438,15.719-24.253,15.719-24.253s9.659,8.253,15.594,25.372c0.215,0.109,0.424,0.218,0.636,0.331
			C425.99,38.173,414.313,28.188,414.313,28.188z"/>
		
			<linearGradient id="SVGID_37_" gradientUnits="userSpaceOnUse" x1="7.0908" y1="344.252" x2="9.5318" y2="344.252" gradientTransform="matrix(0.1355 -15.1042 -15.1042 -0.1355 5611.8955 280.6459)">
			<stop  offset="0" style="stop-color:#0A0A0A"/>
			<stop  offset="0.9613" style="stop-color:#6A615F"/>
			<stop  offset="1" style="stop-color:#6D6562"/>
		</linearGradient>
		<path fill="url(#SVGID_37_)" d="M414.313,28.188c0,0-12.4,10.228-18.955,31.841c1.586-0.97,3.247-1.834,4.972-2.565
			c6.246-16.438,15.719-24.253,15.719-24.253s9.659,8.253,15.594,25.372c0.215,0.109,0.424,0.218,0.636,0.331
			C425.99,38.173,414.313,28.188,414.313,28.188z"/>
		
			<linearGradient id="SVGID_38_" gradientUnits="userSpaceOnUse" x1="9.4966" y1="363.3184" x2="11.9372" y2="363.3184" gradientTransform="matrix(11.353 0.1018 0.1018 -11.353 259.8522 4169.5181)">
			<stop  offset="0" style="stop-color:#0A0A0A"/>
			<stop  offset="0.9613" style="stop-color:#6A615F"/>
			<stop  offset="1" style="stop-color:#6D6562"/>
		</linearGradient>
		<path fill="url(#SVGID_38_)" d="M407.688,51.446c0.908-1.63,1.801-2.991,2.583-4.075c0.758-1.101,1.459-1.893,1.919-2.435
			c0.47-0.537,0.741-0.802,0.741-0.802s-0.209,0.317-0.557,0.934c-0.352,0.615-0.835,1.532-1.402,2.717
			c-0.578,1.179-1.196,2.647-1.873,4.335c-0.365,0.939-0.733,1.956-1.104,3.038c2.309-0.431,4.688-0.644,7.116-0.622
			c5.959,0.053,11.566,1.508,16.531,4.045c-5.935-17.119-15.594-25.372-15.594-25.372s-9.473,7.815-15.719,24.25
			c1.669-0.706,3.396-1.294,5.182-1.754C406.226,54.136,406.962,52.708,407.688,51.446z"/>
		
			<linearGradient id="SVGID_39_" gradientUnits="userSpaceOnUse" x1="7.0928" y1="344.168" x2="9.5329" y2="344.168" gradientTransform="matrix(0.1355 -15.1039 -15.1039 -0.1355 5612.6924 280.6586)">
			<stop  offset="0" style="stop-color:#0A0A0A"/>
			<stop  offset="0.9613" style="stop-color:#6A615F"/>
			<stop  offset="1" style="stop-color:#6D6562"/>
		</linearGradient>
		<path fill="url(#SVGID_39_)" d="M407.688,51.446c0.908-1.63,1.801-2.991,2.583-4.075c0.758-1.101,1.459-1.893,1.919-2.435
			c0.47-0.537,0.741-0.802,0.741-0.802s-0.209,0.317-0.557,0.934c-0.352,0.615-0.835,1.532-1.402,2.717
			c-0.578,1.179-1.196,2.647-1.873,4.335c-0.365,0.939-0.733,1.956-1.104,3.038c2.309-0.431,4.688-0.644,7.116-0.622
			c5.959,0.053,11.566,1.508,16.531,4.045c-5.935-17.119-15.594-25.372-15.594-25.372s-9.473,7.815-15.719,24.25
			c1.669-0.706,3.396-1.294,5.182-1.754C406.226,54.136,406.962,52.708,407.688,51.446z"/>
		
			<linearGradient id="SVGID_40_" gradientUnits="userSpaceOnUse" x1="7.4092" y1="360.8115" x2="9.8509" y2="360.8115" gradientTransform="matrix(14.2551 0.1279 0.1279 -14.2551 244.2747 5188.0825)">
			<stop  offset="0" style="stop-color:#0A0A0A"/>
			<stop  offset="0.9613" style="stop-color:#6A615F"/>
			<stop  offset="1" style="stop-color:#6D6562"/>
		</linearGradient>
		<path fill="url(#SVGID_40_)" d="M407.688,51.446c0.908-1.63,1.801-2.991,2.583-4.075c0.758-1.101,1.459-1.893,1.919-2.435
			c0.47-0.537,0.741-0.802,0.741-0.802s-0.209,0.317-0.557,0.934c-0.352,0.615-0.835,1.532-1.402,2.717
			c-0.578,1.179-1.196,2.647-1.873,4.335c-0.365,0.939-0.733,1.956-1.104,3.038c2.309-0.431,4.688-0.644,7.116-0.622
			c5.959,0.053,11.566,1.508,16.531,4.045c-5.935-17.119-15.594-25.372-15.594-25.372s-9.473,7.815-15.719,24.25
			c1.669-0.706,3.396-1.294,5.182-1.754C406.226,54.136,406.962,52.708,407.688,51.446z"/>
		
			<linearGradient id="SVGID_41_" gradientUnits="userSpaceOnUse" x1="9.4961" y1="363.1025" x2="11.9342" y2="363.1025" gradientTransform="matrix(11.3525 0.1018 0.1018 -11.3525 259.8467 4171.0542)">
			<stop  offset="0" style="stop-color:#0A0A0A"/>
			<stop  offset="0.9613" style="stop-color:#6A615F"/>
			<stop  offset="1" style="stop-color:#6D6562"/>
		</linearGradient>
		<path fill="url(#SVGID_41_)" d="M410.972,47.785c0.567-1.185,1.051-2.102,1.402-2.717c0.348-0.617,0.557-0.934,0.557-0.934
			s-0.271,0.265-0.741,0.802c-0.457,0.544-1.161,1.334-1.919,2.435c-0.782,1.086-1.677,2.445-2.583,4.075
			c-0.726,1.265-1.462,2.69-2.177,4.261c0.817-0.208,1.65-0.395,2.489-0.548c0.365-1.082,0.733-2.099,1.099-3.038
			C409.773,50.435,410.394,48.964,410.972,47.785z"/>
		
			<linearGradient id="SVGID_42_" gradientUnits="userSpaceOnUse" x1="7.0869" y1="344.4355" x2="9.5296" y2="344.4355" gradientTransform="matrix(0.1355 -15.1042 -15.1042 -0.1355 5609.978 280.6274)">
			<stop  offset="0" style="stop-color:#0A0A0A"/>
			<stop  offset="0.9613" style="stop-color:#6A615F"/>
			<stop  offset="1" style="stop-color:#6D6562"/>
		</linearGradient>
		<path fill="url(#SVGID_42_)" d="M410.972,47.785c0.567-1.185,1.051-2.102,1.402-2.717c0.348-0.617,0.557-0.934,0.557-0.934
			s-0.271,0.265-0.741,0.802c-0.457,0.544-1.161,1.334-1.919,2.435c-0.782,1.086-1.677,2.445-2.583,4.075
			c-0.726,1.265-1.462,2.69-2.177,4.261c0.817-0.208,1.65-0.395,2.489-0.548c0.365-1.082,0.733-2.099,1.099-3.038
			C409.773,50.435,410.394,48.964,410.972,47.785z"/>
		
			<linearGradient id="SVGID_43_" gradientUnits="userSpaceOnUse" x1="7.4092" y1="360.6396" x2="9.8477" y2="360.6396" gradientTransform="matrix(14.2545 0.1279 0.1279 -14.2545 244.2735 5189.5815)">
			<stop  offset="0" style="stop-color:#0A0A0A"/>
			<stop  offset="0.9613" style="stop-color:#6A615F"/>
			<stop  offset="1" style="stop-color:#6D6562"/>
		</linearGradient>
		<path fill="url(#SVGID_43_)" d="M410.972,47.785c0.567-1.185,1.051-2.102,1.402-2.717c0.348-0.617,0.557-0.934,0.557-0.934
			s-0.271,0.265-0.741,0.802c-0.457,0.544-1.161,1.334-1.919,2.435c-0.782,1.086-1.677,2.445-2.583,4.075
			c-0.726,1.265-1.462,2.69-2.177,4.261c0.817-0.208,1.65-0.395,2.489-0.548c0.365-1.082,0.733-2.099,1.099-3.038
			C409.773,50.435,410.394,48.964,410.972,47.785z"/>
		
			<radialGradient id="SVGID_44_" cx="6.5122" cy="357.209" r="2.4358" gradientTransform="matrix(18.4429 0.1655 0.1656 -18.4632 233.7999 6682.7144)" gradientUnits="userSpaceOnUse">
			<stop  offset="0" style="stop-color:#7D736F"/>
			<stop  offset="1" style="stop-color:#6D6562"/>
		</radialGradient>
		<path fill="url(#SVGID_44_)" d="M410.972,47.785c0.567-1.185,1.051-2.102,1.402-2.717c0.348-0.617,0.557-0.934,0.557-0.934
			s-0.271,0.265-0.741,0.802c-0.457,0.544-1.161,1.334-1.919,2.435c-0.782,1.086-1.677,2.445-2.583,4.075
			c-0.726,1.265-1.462,2.69-2.177,4.261c0.817-0.208,1.65-0.395,2.489-0.548c0.365-1.082,0.733-2.099,1.099-3.038
			C409.773,50.435,410.394,48.964,410.972,47.785z"/>
		
			<linearGradient id="SVGID_45_" gradientUnits="userSpaceOnUse" x1="470.8516" y1="173.2607" x2="527.7653" y2="173.2607" gradientTransform="matrix(0.7134 -0.7007 0.7007 0.7134 -25.5619 344.3391)">
			<stop  offset="0" style="stop-color:#561514"/>
			<stop  offset="1" style="stop-color:#EA2B29"/>
		</linearGradient>
		<path fill="url(#SVGID_45_)" d="M420.798,149.036c-0.283,1.492-0.575,2.97-0.883,4.405c1.274,0.209,2.533,0.478,3.77,0.798
			c0.722,0.19,1.441,0.397,2.149,0.626c1.959,0.629,3.859,1.403,5.679,2.301c0.045,0.019,0.085,0.043,0.132,0.062
			c-0.03-0.072-0.052-0.153-0.081-0.228c-0.091-0.253-0.186-0.511-0.279-0.761c-0.595-1.615-1.226-3.152-1.879-4.612
			c-0.817-0.346-1.645-0.664-2.486-0.965c-0.35-0.118-0.699-0.236-1.045-0.349c-1.551-0.495-3.137-0.906-4.758-1.218
			C421.01,149.074,420.904,149.055,420.798,149.036 M399.493,150.595l-0.198,0.419c-0.744,1.572-1.468,3.242-2.153,5.004
			c0.017-0.008,0.024-0.008,0.038-0.013c1.271-0.524,2.577-0.992,3.918-1.389c0.578-0.177,1.164-0.331,1.75-0.479l1.233-0.265
			l1.513-0.329c0.31-0.059,0.61-0.107,0.917-0.156c0.895-0.14,1.79-0.247,2.701-0.335c0.316-0.024,0.636-0.051,0.953-0.073
			c-0.276-1.468-0.548-2.967-0.798-4.488c-0.948,0.086-1.887,0.201-2.819,0.347c-0.304,0.045-0.609,0.096-0.914,0.147l-0.247,0.059
			l-2.499,0.541c-0.476,0.121-0.948,0.25-1.419,0.379c-0.11,0.037-0.218,0.064-0.328,0.099
			C400.585,150.232,400.036,150.404,399.493,150.595"/>
		
			<linearGradient id="SVGID_46_" gradientUnits="userSpaceOnUse" x1="435.5957" y1="168.6475" x2="462.4823" y2="168.6475" gradientTransform="matrix(0.7134 -0.7007 0.7007 0.7134 -25.5619 344.3391)">
			<stop  offset="0" style="stop-color:#561514"/>
			<stop  offset="1" style="stop-color:#EA2B29"/>
		</linearGradient>
		<path fill="url(#SVGID_46_)" d="M422.907,139.901c-0.132,0.554-0.288,1.107-0.449,1.669c-0.427,1.454-0.854,2.929-1.112,4.404
			c-0.181,1.019-0.357,2.043-0.548,3.059c0.106,0.019,0.214,0.041,0.325,0.062c1.617,0.312,3.2,0.718,4.747,1.218
			c0.35,0.113,0.702,0.231,1.049,0.349c0.845,0.301,1.669,0.619,2.484,0.962c-0.294-0.669-0.595-1.325-0.898-1.968
			c-0.186-0.384-0.371-0.763-0.557-1.134c-1.021-2.045-2.069-3.921-3.106-5.625c-0.099-0.165-0.199-0.325-0.302-0.487
			c-0.192-0.317-0.396-0.634-0.593-0.941C423.601,140.934,423.254,140.407,422.907,139.901 M407.19,137.907
			c-0.513,0.675-1.04,1.398-1.575,2.159c-0.876,1.252-1.779,2.633-2.682,4.13c-0.425,0.702-0.844,1.429-1.263,2.177
			c-0.333,0.602-0.667,1.217-0.997,1.852c-0.398,0.76-0.796,1.555-1.178,2.37c0.54-0.191,1.089-0.363,1.645-0.532
			c0.11-0.035,0.218-0.062,0.328-0.099c0.471-0.135,0.943-0.261,1.419-0.382l2.494-0.538l0.256-0.059
			c0.306-0.053,0.606-0.107,0.919-0.153c0.93-0.143,1.862-0.258,2.811-0.341c-0.146-0.876-0.288-1.752-0.422-2.625
			c-0.229-1.484-0.629-2.964-1.032-4.427C407.588,140.243,407.295,139.055,407.19,137.907"/>
		
			<linearGradient id="SVGID_47_" gradientUnits="userSpaceOnUse" x1="440.5635" y1="159.167" x2="478.0335" y2="159.167" gradientTransform="matrix(0.7134 -0.7007 0.7007 0.7134 -25.5619 344.3391)">
			<stop  offset="0" style="stop-color:#128176"/>
			<stop  offset="1" style="stop-color:#208378"/>
		</linearGradient>
		<path fill="url(#SVGID_47_)" d="M407.29,135.134c-0.1,0.658-0.153,1.335-0.14,2.021c0.003,0.247,0.021,0.5,0.04,0.752
			c0.304-0.403,0.6-0.784,0.896-1.155c-0.038-0.067-0.073-0.14-0.116-0.22C407.803,136.161,407.559,135.693,407.29,135.134
			 M413.684,123.057c-0.328,0.317-0.704,0.72-1.132,1.199c-1.126,1.284-2.445,3.117-3.48,5.332
			c-0.526,1.107-0.997,2.306-1.347,3.574c-0.069,0.239-0.131,0.484-0.19,0.729c0.264,1.083,0.489,1.948,0.638,2.559
			c0.016,0.051,0.032,0.097,0.045,0.143c1.766-2.204,3.319-3.849,4.435-4.945c1.123-1.107,1.806-1.653,1.806-1.653
			s3.916,3.25,8.45,9.909c0.214-0.879,0.363-1.747,0.392-2.601c0.049-1.389-0.164-2.726-0.505-4.004
			c-0.008-0.057-0.027-0.108-0.045-0.162c-0.041,0.089-0.092,0.172-0.13,0.253c-0.276,0.47-0.422,0.725-0.422,0.725
			s0.104-0.274,0.312-0.776c0.049-0.14,0.108-0.298,0.169-0.473c-0.313-1.116-0.717-2.174-1.158-3.163
			c-0.999-2.231-2.286-4.09-3.391-5.397c-0.56-0.65-1.041-1.166-1.408-1.513c-0.36-0.352-0.592-0.538-0.592-0.538l-1.548-0.016
			c0,0-0.223,0.185-0.592,0.524C413.894,122.852,413.788,122.952,413.684,123.057"/>
		
			<radialGradient id="SVGID_48_" cx="6.5132" cy="357.208" r="2.4458" gradientTransform="matrix(18.4438 0.1655 0.1656 -18.4641 233.7977 6683.0298)" gradientUnits="userSpaceOnUse">
			<stop  offset="0" style="stop-color:#208F84"/>
			<stop  offset="0.7773" style="stop-color:#1F877A"/>
			<stop  offset="1" style="stop-color:#208378"/>
		</radialGradient>
		<path fill="url(#SVGID_48_)" d="M407.534,133.89c-0.102,0.406-0.183,0.817-0.244,1.244c0.269,0.559,0.513,1.027,0.68,1.398
			c0.043,0.08,0.078,0.153,0.116,0.22c0.042-0.051,0.086-0.108,0.131-0.161c-0.013-0.046-0.029-0.092-0.045-0.143
			C408.023,135.838,407.798,134.973,407.534,133.89"/>
		
			<linearGradient id="SVGID_49_" gradientUnits="userSpaceOnUse" x1="733.2354" y1="169.2471" x2="1175.5132" y2="169.2471" gradientTransform="matrix(0.7134 -0.7007 0.7007 0.7134 -25.5619 344.3391)">
			<stop  offset="0" style="stop-color:#128176"/>
			<stop  offset="1" style="stop-color:#208378"/>
		</linearGradient>
		<path fill="url(#SVGID_49_)" d="M417.411,148.55c0.356,0.038,0.713,0.075,1.069,0.126c0.777,0.099,1.553,0.217,2.317,0.36
			c-0.003,0,0-0.002,0-0.002c-0.765-0.143-1.54-0.264-2.317-0.36c-0.354-0.048-0.709-0.091-1.067-0.128
			C417.411,148.545,417.411,148.545,417.411,148.55 M409.367,148.491L409.367,148.491c0.933-0.081,1.879-0.134,2.83-0.153l0,0
			C411.24,148.356,410.3,148.41,409.367,148.491"/>
		
			<linearGradient id="SVGID_50_" gradientUnits="userSpaceOnUse" x1="7.4092" y1="354.9121" x2="9.8522" y2="354.9121" gradientTransform="matrix(14.2559 0.1279 0.1279 -14.2559 244.1055 5206.8911)">
			<stop  offset="0" style="stop-color:#128176"/>
			<stop  offset="1" style="stop-color:#208378"/>
		</linearGradient>
		<path fill="url(#SVGID_50_)" d="M412.197,148.338L412.197,148.338c0.422-0.008,0.85-0.014,1.274-0.008
			c1.327,0.011,2.641,0.088,3.939,0.22c0-0.005,0-0.005,0.002-0.005c-1.294-0.129-2.614-0.205-3.941-0.215
			C413.041,148.321,412.617,148.33,412.197,148.338"/>
		
			<linearGradient id="SVGID_51_" gradientUnits="userSpaceOnUse" x1="3.0391" y1="346.1152" x2="5.4846" y2="346.1152" gradientTransform="matrix(0.1979 -22.0624 -22.0624 -0.1979 8054.2378 342.0332)">
			<stop  offset="0" style="stop-color:#218C78"/>
			<stop  offset="0.4784" style="stop-color:#209178"/>
			<stop  offset="1" style="stop-color:#1E9679"/>
		</linearGradient>
		<path fill="url(#SVGID_51_)" d="M418.516,153.237c0.003,0.008,0.003,0.017,0.003,0.027c0.164,0.441,0.48,1.352,0.83,2.64
			c0.099-0.417,0.199-0.829,0.295-1.248c0.096-0.397,0.183-0.806,0.271-1.214C419.447,153.363,418.988,153.296,418.516,153.237"/>
		
			<linearGradient id="SVGID_52_" gradientUnits="userSpaceOnUse" x1="431.123" y1="179.5713" x2="465.9434" y2="179.5713" gradientTransform="matrix(0.7134 -0.7007 0.7007 0.7134 -25.5619 344.3391)">
			<stop  offset="0" style="stop-color:#218C78"/>
			<stop  offset="0.4784" style="stop-color:#209178"/>
			<stop  offset="1" style="stop-color:#1E9679"/>
		</linearGradient>
		<path fill="url(#SVGID_52_)" d="M415.476,166.341c0,0-0.241,1.414-0.553,3.254l0.395,0.003L415.476,166.341 M417.486,158.211
			c0,0-0.006,3.938-1.207,9.533c0.016-0.054,0.033-0.11,0.049-0.169c0.201-0.648,0.424-1.433,0.664-2.33
			c0.238-0.903,0.539-1.919,0.813-3.021c0.2-0.806,0.414-1.661,0.637-2.553c-0.021-0.11-0.042-0.23-0.064-0.349
			c-0.14,0.946-0.336,1.905-0.61,2.886L417.486,158.211 M418.519,153.264c0.134,1.468,0.169,3.102,0.011,4.83
			c0.054,0.204,0.104,0.406,0.158,0.61c0.003-0.022,0.009-0.036,0.014-0.057c0.209-0.887,0.43-1.801,0.647-2.744
			C418.999,154.616,418.683,153.705,418.519,153.264"/>
		
			<linearGradient id="SVGID_53_" gradientUnits="userSpaceOnUse" x1="-17.0947" y1="379.4395" x2="-14.6612" y2="379.4395" gradientTransform="matrix(0.1536 3.8227 3.8227 -0.1536 -1029.4213 280.2145)">
			<stop  offset="0" style="stop-color:#218C78"/>
			<stop  offset="0.4784" style="stop-color:#209178"/>
			<stop  offset="1" style="stop-color:#1E9679"/>
		</linearGradient>
		<path fill="url(#SVGID_53_)" d="M418.529,158.093c-0.04,0.403-0.089,0.814-0.151,1.229c0.022,0.118,0.043,0.239,0.064,0.349
			c0.078-0.317,0.159-0.639,0.245-0.967C418.634,158.499,418.583,158.297,418.529,158.093"/>
		
			<linearGradient id="SVGID_54_" gradientUnits="userSpaceOnUse" x1="6.7671" y1="342.2266" x2="9.2076" y2="342.2266" gradientTransform="matrix(0.1053 -11.7386 -11.7386 -0.1053 4430.8242 283.5301)">
			<stop  offset="0" style="stop-color:#1E9679"/>
			<stop  offset="0.4804" style="stop-color:#209782"/>
			<stop  offset="1" style="stop-color:#209789"/>
		</linearGradient>
		<path fill="url(#SVGID_54_)" d="M410.165,152.979c0.105,0.537,0.216,1.07,0.32,1.593c0.307,1.396,0.597,2.736,0.873,4.007
			c0.299,1.277,0.581,2.478,0.842,3.593c0.247,1.11,0.531,2.132,0.755,3.04c0.224,0.897,0.433,1.688,0.618,2.338
			c0.374,1.295,0.586,2.037,0.586,2.037l0.764,0.008c0.312-1.84,0.553-3.254,0.553-3.254l-0.158,3.258l0.39,0.005
			c0,0,0.21-0.672,0.572-1.86c1.201-5.595,1.207-9.533,1.207-9.533l0.281,3.997c0.274-0.981,0.471-1.94,0.61-2.886
			c0.063-0.414,0.111-0.825,0.151-1.229c0.158-1.728,0.123-3.362-0.011-4.83c0-0.01,0-0.019-0.003-0.027
			c-0.024-0.005-0.046-0.008-0.073-0.01c-1.642-0.215-3.315-0.331-5.015-0.35C412.329,152.871,411.249,152.904,410.165,152.979"/>
		
			<linearGradient id="SVGID_55_" gradientUnits="userSpaceOnUse" x1="-5.3521" y1="356.291" x2="-2.9181" y2="356.291" gradientTransform="matrix(-0.1788 19.9284 19.9284 0.1788 -6678.1821 111.2183)">
			<stop  offset="0" style="stop-color:#20958A"/>
			<stop  offset="0.0408" style="stop-color:#20958A"/>
			<stop  offset="0.7607" style="stop-color:#1F8E84"/>
			<stop  offset="1" style="stop-color:#1F8E84"/>
		</linearGradient>
		<path fill="url(#SVGID_55_)" d="M422.678,132.863c-0.061,0.174-0.12,0.333-0.169,0.473c-0.207,0.502-0.312,0.776-0.312,0.776
			s0.146-0.255,0.422-0.725c0.038-0.081,0.089-0.164,0.13-0.253C422.729,133.041,422.705,132.952,422.678,132.863"/>
		
			<linearGradient id="SVGID_56_" gradientUnits="userSpaceOnUse" x1="11.6665" y1="337.4473" x2="14.1054" y2="337.4473" gradientTransform="matrix(0.0684 -7.6297 -7.6297 -0.0684 2988.9307 256.9797)">
			<stop  offset="0" style="stop-color:#128176"/>
			<stop  offset="1" style="stop-color:#208378"/>
		</linearGradient>
		<path fill="url(#SVGID_56_)" d="M409.367,148.491c0.25,1.521,0.521,3.021,0.798,4.488c1.084-0.075,2.164-0.108,3.263-0.102
			c1.699,0.019,3.373,0.134,5.015,0.35c0.027,0.002,0.049,0.005,0.073,0.01c0.473,0.059,0.932,0.126,1.399,0.205
			c0.308-1.436,0.6-2.914,0.883-4.405c-0.765-0.143-1.54-0.261-2.317-0.36c-0.356-0.051-0.713-0.089-1.069-0.126
			c-1.299-0.132-2.612-0.209-3.939-0.22c-0.425-0.005-0.853,0-1.274,0.008C411.246,148.356,410.3,148.41,409.367,148.491"/>
		
			<linearGradient id="SVGID_57_" gradientUnits="userSpaceOnUse" x1="7.7178" y1="357.249" x2="10.1595" y2="357.249" gradientTransform="matrix(13.6157 0.1221 0.1221 -13.6157 246.6588 5002.5688)">
			<stop  offset="0" style="stop-color:#128176"/>
			<stop  offset="1" style="stop-color:#208378"/>
		</linearGradient>
		<path fill="url(#SVGID_57_)" d="M412.651,131.646c-1.115,1.096-2.669,2.741-4.435,4.945c-0.045,0.053-0.089,0.11-0.131,0.161
			c-0.296,0.371-0.592,0.752-0.896,1.155c0.104,1.147,0.397,2.336,0.723,3.531c0.403,1.462,0.804,2.943,1.032,4.427
			c0.134,0.873,0.276,1.75,0.422,2.625c0.933-0.081,1.873-0.134,2.83-0.153c0.42-0.008,0.844-0.017,1.274-0.008
			c1.327,0.011,2.647,0.086,3.941,0.215c0.358,0.037,0.713,0.08,1.067,0.128c0.777,0.097,1.553,0.218,2.317,0.36
			c0.19-1.016,0.367-2.04,0.548-3.059c0.258-1.475,0.686-2.951,1.112-4.404c0.161-0.563,0.317-1.116,0.449-1.669
			c-4.534-6.659-8.45-9.909-8.45-9.909S413.774,130.539,412.651,131.646"/>
		<path fill="#036667" d="M416.333,114.139c0,0,0.227,0.188,0.584,0.535c0.373,0.347,0.851,0.863,1.414,1.519
			c1.101,1.3,2.394,3.166,3.386,5.394c0.505,1.115,0.954,2.325,1.279,3.598c0.344,1.274,0.553,2.615,0.508,4.002
			c-0.046,1.389-0.423,2.822-0.847,4.271c-0.434,1.451-0.855,2.93-1.107,4.408c-0.517,2.953-1.078,5.907-1.701,8.675
			c-0.328,1.387-0.645,2.728-0.949,3.993c-0.319,1.269-0.615,2.467-0.892,3.575c-0.271,1.112-0.578,2.123-0.817,3.023
			c-0.238,0.9-0.459,1.683-0.659,2.328c-0.396,1.292-0.619,2.029-0.619,2.029l-1.549-0.01c0,0-0.218-0.745-0.589-2.043
			c-0.183-0.645-0.389-1.435-0.62-2.338c-0.224-0.909-0.508-1.927-0.761-3.037c-0.252-1.11-0.532-2.316-0.828-3.59
			c-0.279-1.273-0.572-2.618-0.879-4.007c-0.569-2.782-1.08-5.749-1.537-8.713c-0.236-1.478-0.632-2.962-1.037-4.421
			c-0.397-1.462-0.739-2.9-0.763-4.284c-0.027-1.387,0.215-2.728,0.58-3.993c0.35-1.271,0.814-2.467,1.341-3.575
			c1.032-2.214,2.357-4.05,3.48-5.337c0.578-0.64,1.062-1.142,1.443-1.486c0.363-0.346,0.586-0.529,0.586-0.529L416.333,114.139z"/>
		
			<linearGradient id="SVGID_58_" gradientUnits="userSpaceOnUse" x1="-8.8496" y1="361.8555" x2="-6.4082" y2="361.8555" gradientTransform="matrix(-0.0864 9.6268 9.6268 0.0864 -3066.6431 176.0846)">
			<stop  offset="0" style="stop-color:#FCDEDF"/>
			<stop  offset="0.0408" style="stop-color:#FBDBDB"/>
			<stop  offset="0.7607" style="stop-color:#01A89C"/>
			<stop  offset="1" style="stop-color:#01A89C"/>
		</linearGradient>
		<path fill="url(#SVGID_58_)" d="M414.552,154.038c0,0,0.054-0.129,0.166-0.374c0.103-0.25,0.237-0.612,0.436-1.067
			c0.17-0.462,0.371-1.027,0.609-1.677c0.202-0.65,0.437-1.392,0.688-2.198c0.25-0.801,0.441-1.693,0.702-2.621
			c0.273-0.921,0.416-1.926,0.647-2.948c0.104-0.511,0.215-1.029,0.325-1.559c0.078-0.526,0.15-1.064,0.228-1.606
			c0.078-0.543,0.162-1.089,0.24-1.634c0.089-0.553,0.172-1.099,0.196-1.656c0.096-1.107,0.188-2.214,0.281-3.305l0.063-0.79
			l0.011-0.817c0.009-0.542,0.014-1.077,0.021-1.602c0.003-0.521,0.008-1.04,0.019-1.543c-0.016-0.5-0.069-0.98-0.1-1.454
			c-0.037-0.476-0.072-0.936-0.102-1.379c-0.035-0.449-0.035-0.884-0.124-1.292c-0.143-0.825-0.247-1.583-0.346-2.26
			c-0.042-0.336-0.098-0.654-0.178-0.936c-0.069-0.288-0.132-0.551-0.196-0.788c-0.229-0.959-0.341-1.518-0.341-1.518
			s0.22,0.526,0.577,1.457c0.086,0.236,0.183,0.497,0.285,0.773c0.12,0.283,0.214,0.595,0.298,0.925
			c0.186,0.667,0.39,1.419,0.594,2.252c0.216,0.828,0.296,1.752,0.443,2.723c0.064,0.481,0.148,0.981,0.199,1.491
			c0.012,0.505,0.034,1.021,0.045,1.548c0.02,0.524,0.033,1.054,0.049,1.596l0.022,0.812c-0.011,0.317-0.035,0.567-0.055,0.849
			c-0.081,1.113-0.163,2.233-0.241,3.36c-0.038,0.564-0.13,1.124-0.221,1.677c-0.089,0.562-0.183,1.112-0.27,1.661
			c-0.094,0.554-0.185,1.094-0.273,1.631c-0.135,0.53-0.264,1.056-0.393,1.573c-0.261,1.032-0.481,2.037-0.822,2.961
			c-0.316,0.928-0.588,1.812-0.92,2.602c-0.325,0.795-0.626,1.526-0.924,2.155c-0.317,0.626-0.594,1.172-0.822,1.623
			c-0.242,0.443-0.457,0.78-0.594,1.01C414.63,153.919,414.552,154.038,414.552,154.038z"/>
	</g>
	<rect x="100.727" y="33.21" fill="#01A79D" width="175.759" height="38.67"/>
	<rect x="100.727" y="81.76" fill="#E94E3C" width="175.759" height="12.198"/>
</g>
</svg>
