<?xml version="1.0" encoding="utf-8"?>
<!-- Generator: Adobe Illustrator 16.0.0, SVG Export Plug-In . SVG Version: 6.00 Build 0)  -->
<!DOCTYPE svg PUBLIC "-//W3C//DTD SVG 1.1//EN" "http://www.w3.org/Graphics/SVG/1.1/DTD/svg11.dtd">
<svg version="1.1" id="Layer_1" xmlns="http://www.w3.org/2000/svg" xmlns:xlink="http://www.w3.org/1999/xlink" x="0px" y="0px"
	 width="600px" height="350px" viewBox="0 0 600 350" enable-background="new 0 0 600 350" xml:space="preserve">
<g>
	<g id="Destop">
		<g>
			<g>
				<g>
					<g>
						
							<linearGradient id="SVGID_1_" gradientUnits="userSpaceOnUse" x1="476.96" y1="901.7832" x2="580.339" y2="901.7832" gradientTransform="matrix(1 0 0 1 -252 -598)">
							<stop  offset="0.0061" style="stop-color:#595A5C"/>
							<stop  offset="0.2803" style="stop-color:#76777A"/>
							<stop  offset="0.5091" style="stop-color:#88898D"/>
							<stop  offset="1" style="stop-color:#595A5C"/>
						</linearGradient>
						<path fill="url(#SVGID_1_)" d="M225.589,302.076v-0.203c0,0.035,0,0.064,0,0.1v0.035c0,1.895,2.444,3.686,10.499,3.686
							c15.581,0,32.462,0,38.634,0c1.563,0,2.442,0,2.442,0c6.177,0,23.055,0,38.637,0c8.051,0,10.867-0.727,10.891-3.617h-0.752
							l0,0H225.589L225.589,302.076z"/>
						
							<linearGradient id="SVGID_2_" gradientUnits="userSpaceOnUse" x1="527.4004" y1="863.4189" x2="527.4004" y2="908.2664" gradientTransform="matrix(1 0 0 1 -252 -598)">
							<stop  offset="0.0848" style="stop-color:#6E7074"/>
							<stop  offset="0.127" style="stop-color:#97999C"/>
							<stop  offset="0.1841" style="stop-color:#CDCDCE"/>
							<stop  offset="0.2121" style="stop-color:#E0E1E2"/>
							<stop  offset="0.3152" style="stop-color:#A8AAAD"/>
							<stop  offset="0.3893" style="stop-color:#868789"/>
							<stop  offset="0.4606" style="stop-color:#636464"/>
							<stop  offset="0.5264" style="stop-color:#6F7070"/>
							<stop  offset="0.6452" style="stop-color:#8B8D8F"/>
							<stop  offset="0.7394" style="stop-color:#A7ABAE"/>
						</linearGradient>
						<path fill="url(#SVGID_2_)" d="M316.34,291.26c-7.185-7.324-7.457-23.203-7.457-23.203h-32.261h-2.439h-32.267
							c0,0-0.27,15.883-7.455,23.203c-7.187,7.32-18.438,13.707,1.085,13.707c15.581,0,32.459,0,38.634,0c1.56,0,2.442,0,2.442,0
							c6.177,0,23.055,0,38.634,0C334.777,304.967,323.525,298.578,316.34,291.26z"/>
						
							<radialGradient id="SVGID_3_" cx="576.8818" cy="920.665" r="38.7769" gradientTransform="matrix(1 0 0 1 -252 -598)" gradientUnits="userSpaceOnUse">
							<stop  offset="0" style="stop-color:#FFFFFF"/>
							<stop  offset="1" style="stop-color:#FFFFFF;stop-opacity:0"/>
						</radialGradient>
						<path fill="url(#SVGID_3_)" d="M281.818,304.967c3.985-8.684,16.718-16.365,32.555-17.918c0.728,1.236,1.557,2.543,2.51,3.521
							c7.061,7.189,18.041,14.4-0.086,14.4h-34.979V304.967z"/>
						
							<radialGradient id="SVGID_4_" cx="218.9238" cy="920.665" r="38.7768" gradientTransform="matrix(-1 0 0 1 445.9258 -598)" gradientUnits="userSpaceOnUse">
							<stop  offset="0" style="stop-color:#FFFFFF"/>
							<stop  offset="1" style="stop-color:#FFFFFF;stop-opacity:0"/>
						</radialGradient>
						<path fill="url(#SVGID_4_)" d="M270.07,304.967c-3.986-8.684-16.722-16.365-32.561-17.918
							c-0.725,1.236-1.555,2.543-2.507,3.521c-7.059,7.189-18.039,14.4,0.087,14.4h34.981V304.967z"/>
						
							<linearGradient id="SVGID_5_" gradientUnits="userSpaceOnUse" x1="487.0898" y1="902.2676" x2="567.7949" y2="902.2676" gradientTransform="matrix(1 0 0 1 -252 -598)">
							<stop  offset="0.0061" style="stop-color:#FFFFFF;stop-opacity:0"/>
							<stop  offset="0.5091" style="stop-color:#FFFFFF"/>
							<stop  offset="1" style="stop-color:#FFFFFF;stop-opacity:0"/>
						</linearGradient>
						<path fill="url(#SVGID_5_)" d="M235.089,304.27c6.723-0.115,13.451-0.17,20.177-0.213l20.178-0.061l20.178,0.061l10.087,0.074
							l10.086,0.139l-10.086,0.127l-10.087,0.074l-20.178,0.068l-20.178-0.068C248.54,304.432,241.812,304.377,235.089,304.27z"/>
						
							<linearGradient id="SVGID_6_" gradientUnits="userSpaceOnUse" x1="356.7627" y1="862.0264" x2="714.0103" y2="838.6092" gradientTransform="matrix(1 0 0 1 -252 -598)">
							<stop  offset="0" style="stop-color:#797A7E"/>
							<stop  offset="0.3173" style="stop-color:#747579"/>
							<stop  offset="0.4909" style="stop-color:#6E7074"/>
							<stop  offset="1" style="stop-color:#6E7074"/>
						</linearGradient>
						<path fill="url(#SVGID_6_)" d="M110.512,257.631c0,5.389,4.821,10.426,10.21,10.426h151.29h5.15h151.29
							c5.389,0,10.641-5.037,10.641-10.426v-19.248h-328.58V257.631z"/>
						<path fill="#231F20" d="M428.451,43.693h-151.29h-5.15h-151.29c-5.389,0-10.21,3.036-10.21,8.424v186.266h328.586V52.117
							C439.092,46.729,433.84,43.693,428.451,43.693z M423.896,224.631H124.261V55.999h299.636V224.631z"/>
						
							<linearGradient id="SVGID_7_" gradientUnits="userSpaceOnUse" x1="356.8369" y1="862.0195" x2="714.0061" y2="838.6075" gradientTransform="matrix(1 0 0 1 -252 -598)">
							<stop  offset="0" style="stop-color:#898B8F"/>
							<stop  offset="0.0499" style="stop-color:#919297"/>
							<stop  offset="0.3137" style="stop-color:#B2B3B6"/>
							<stop  offset="0.5663" style="stop-color:#C8CACD"/>
							<stop  offset="0.801" style="stop-color:#D6D8DB"/>
							<stop  offset="1" style="stop-color:#DBDDE0"/>
						</linearGradient>
						<path fill="url(#SVGID_7_)" d="M110.512,256.547c0,5.389,4.821,11.51,10.21,11.51h151.29h5.15h151.29
							c5.389,0,10.641-6.121,10.641-11.51v-18.164h-328.58V256.547z"/>
					</g>
				</g>
				<rect x="124.261" y="74.815" fill="#01A79D" width="299.636" height="57.176"/>
				<g>
					<circle fill="#FFFFFF" cx="171.938" cy="102.697" r="17.195"/>
					<circle fill="none" stroke="#FFFFFF" stroke-width="0.6823" cx="172.039" cy="102.869" r="20.164"/>
				</g>
				<g>
					<rect x="222.69" y="86.396" fill="#FFFFFF" width="26.055" height="7.962"/>
					<rect x="251.644" y="86.396" fill="#FFFFFF" width="155.606" height="7.962"/>
				</g>
				<rect x="222.69" y="102.316" fill="#D7E69C" width="184.56" height="2.896"/>
				<rect x="222.69" y="113.175" fill="#D7E69C" width="184.56" height="2.171"/>
				<rect x="178.544" y="137.78" fill="#4E4E4E" width="39.084" height="78.167"/>
				<rect x="132.949" y="137.78" fill="#4E4E4E" width="39.082" height="78.167"/>
				<rect x="229.929" y="142.125" fill="#D34758" width="58.627" height="35.463"/>
				<rect x="292.895" y="142.125" fill="#008C84" width="59.349" height="35.463"/>
				<rect x="357.313" y="142.125" fill="#D34758" width="58.621" height="35.463"/>
				<g>
					<rect x="229.929" y="181.933" fill="#676767" width="58.627" height="2.896"/>
					<rect x="229.929" y="187" fill="#989898" width="39.81" height="2.167"/>
					<rect x="229.929" y="191.34" fill="#989898" width="47.769" height="2.895"/>
				</g>
				<g>
					<rect x="292.895" y="187" fill="#989898" width="51.388" height="2.167"/>
					<rect x="292.895" y="191.34" fill="#989898" width="40.531" height="2.895"/>
					<rect x="292.895" y="181.933" fill="#676767" width="59.349" height="2.896"/>
				</g>
				<g>
					<rect x="357.313" y="187" fill="#989898" width="39.803" height="2.167"/>
					<rect x="357.313" y="191.34" fill="#989898" width="47.043" height="2.895"/>
					<rect x="357.313" y="181.933" fill="#676767" width="58.621" height="2.896"/>
				</g>
				<rect x="229.929" y="198.578" fill="#989898" width="39.085" height="1.445"/>
				<rect x="229.929" y="202.195" fill="#989898" width="57.899" height="2.172"/>
				<rect x="229.929" y="210.158" fill="#989898" width="57.899" height="2.172"/>
				<rect x="229.929" y="213.775" fill="#989898" width="39.085" height="2.172"/>
				<rect x="229.929" y="217.396" fill="#989898" width="57.899" height="2.166"/>
				<rect x="292.895" y="198.578" fill="#989898" width="39.808" height="1.445"/>
				<rect x="292.895" y="202.195" fill="#989898" width="57.9" height="2.172"/>
				<rect x="292.895" y="210.158" fill="#989898" width="57.9" height="2.172"/>
				<rect x="292.895" y="213.775" fill="#989898" width="39.808" height="2.172"/>
				<rect x="292.895" y="217.396" fill="#989898" width="57.9" height="2.166"/>
				<rect x="357.313" y="199.301" fill="#989898" width="39.08" height="1.449"/>
				<rect x="357.313" y="203.646" fill="#989898" width="56.449" height="1.443"/>
				<rect x="357.313" y="210.881" fill="#989898" width="56.449" height="2.172"/>
				<rect x="357.313" y="214.502" fill="#989898" width="39.08" height="2.168"/>
				<rect x="357.313" y="218.119" fill="#989898" width="56.449" height="2.17"/>
				<polygon opacity="0.3" fill="#FFFFFF" enable-background="new    " points="125.534,55.274 423.896,55.274 423.896,224.611 				
					"/>
			</g>
		</g>
	</g>
	<g id="Ipad">
		<g>
			<rect x="34.517" y="159.495" fill="#FFFFFF" width="96.983" height="129.554"/>
			<g>
				<path fill="#231F20" d="M143.866,152.154c0-3.487-2.823-6.314-6.312-6.314H29.677c-3.486,0-6.313,2.827-6.313,6.314V295.91
					c0,3.49,2.824,6.314,6.313,6.314h107.877c3.483,0,6.312-2.824,6.312-6.314V152.154z M131.464,288.939H35.331V159.574h96.134
					V288.939z"/>
				
					<linearGradient id="SVGID_8_" gradientUnits="userSpaceOnUse" x1="283.2207" y1="821.5225" x2="396.0381" y2="821.5225" gradientTransform="matrix(1 0 0 1 -252 -598)">
					<stop  offset="0" style="stop-color:#FFFFFF;stop-opacity:0"/>
					<stop  offset="1" style="stop-color:#FFFFFF"/>
				</linearGradient>
				<path opacity="0.6" fill="url(#SVGID_8_)" enable-background="new    " d="M103.073,145.381h34.942c0,0,6.696,0.066,5.966,8.928
					l-0.203,141.357c0,0,0.401,5.297-6.45,5.998c-7.059-0.389-106.108,0-106.108,0"/>
			</g>
			<g>
				<rect x="35.964" y="169.626" fill="#01A79D" width="95.536" height="45.598"/>
				<g>
					<ellipse fill="#FFFFFF" cx="54.301" cy="189.64" rx="13.233" ry="13.446"/>
					<path fill="none" stroke="#FFFFFF" stroke-width="0.5293" d="M69.896,189.775c0,8.709-6.951,15.77-15.518,15.77
						c-8.573,0-15.521-7.061-15.521-15.77s6.947-15.77,15.521-15.77C62.948,174.005,69.896,181.066,69.896,189.775z"/>
				</g>
				<g>
					<rect x="77.941" y="181.205" fill="#FFFFFF" width="5.792" height="5.067"/>
					<rect x="85.179" y="181.205" fill="#FFFFFF" width="34.739" height="5.067"/>
				</g>
				<polygon fill="#D7E69C" points="77.33,192.063 119.234,192.063 119.234,192.063 				"/>
				<rect x="77.941" y="197.129" fill="#D7E69C" width="41.977" height="2.172"/>
			</g>
			<rect x="40.306" y="220.291" fill="#D34758" width="40.532" height="25.33"/>
			<rect x="40.306" y="268.057" fill="#D34758" width="40.532" height="20.992"/>
			<g>
				<rect x="40.306" y="248.516" fill="#676767" width="40.532" height="2.896"/>
				<rect x="40.306" y="252.855" fill="#989898" width="28.229" height="1.451"/>
				<rect x="40.306" y="255.756" fill="#989898" width="31.844" height="1.445"/>
			</g>
			<rect x="40.306" y="260.096" fill="#989898" width="28.229" height="1.449"/>
			<rect x="40.306" y="262.99" fill="#989898" width="39.807" height="0.723"/>
			<polygon fill="#989898" points="40.569,272.402 68.283,272.402 68.283,272.402 			"/>
			<rect x="85.179" y="221.014" fill="#008C84" width="39.804" height="26.053"/>
			<g>
				<rect x="85.179" y="253.584" fill="#989898" width="34.739" height="2.17"/>
				<rect x="85.179" y="256.479" fill="#989898" width="27.501" height="1.449"/>
				<rect x="85.179" y="250.689" fill="#676767" width="39.804" height="1.443"/>
			</g>
			<rect x="85.179" y="261.545" fill="#989898" width="27.501" height="1.445"/>
			<rect x="85.179" y="263.713" fill="#989898" width="39.082" height="0.727"/>
			<rect x="85.179" y="268.785" fill="#989898" width="39.082" height="3.617"/>
			<polygon fill="#989898" points="84.645,273.125 112.359,273.125 112.359,273.125 			"/>
			<rect x="85.179" y="273.848" fill="#989898" width="39.082" height="0.721"/>
			<g>
				<rect x="85.179" y="283.98" fill="#989898" width="34.739" height="1.445"/>
				<rect x="85.179" y="286.148" fill="#989898" width="27.501" height="2.9"/>
				<rect x="85.179" y="279.637" fill="#676767" width="39.804" height="1.449"/>
			</g>
			<polygon opacity="0.3" fill="#FFFFFF" enable-background="new    " points="131.5,288.988 131.5,159.495 57.645,159.495 			"/>
		</g>
	</g>
	<g id="Laptop">
		<g>
			<g>
				<path fill="#010101" d="M541.189,291.021c0,3.529-2.133,6.395-4.76,6.395H338.533c-2.627,0-4.758-2.865-4.758-6.395V164.06
					c0-3.528,2.131-6.386,4.758-6.386H536.43c2.627,0,4.76,2.86,4.76,6.386V291.021z"/>
				<rect x="342.047" y="165.341" fill="#FFFFFF" width="191.441" height="118.02"/>
				<g>
					<g>
						<path fill="#5F6868" d="M298.452,299.34c0,0-1.729,3.211,10.534,5.895h256.678c0,0,8.59-0.551,10.852-4.598l0.014-2.217
							L298.452,299.34z"/>
						
							<linearGradient id="SVGID_9_" gradientUnits="userSpaceOnUse" x1="550.3311" y1="894.8574" x2="828.6357" y2="894.8574" gradientTransform="matrix(1 0 0 1 -252 -598)">
							<stop  offset="0" style="stop-color:#999B9D"/>
							<stop  offset="9.591131e-004" style="stop-color:#A6A7A9"/>
							<stop  offset="0.0037" style="stop-color:#C3C3C5"/>
							<stop  offset="0.0067" style="stop-color:#D9D8DA"/>
							<stop  offset="0.0099" style="stop-color:#E9E7E9"/>
							<stop  offset="0.0134" style="stop-color:#F2F1F3"/>
							<stop  offset="0.0183" style="stop-color:#F5F3F5"/>
							<stop  offset="0.0488" style="stop-color:#E0E1E3"/>
							<stop  offset="0.189" style="stop-color:#D1D2D2"/>
							<stop  offset="0.5061" style="stop-color:#E4E5E7"/>
							<stop  offset="0.872" style="stop-color:#D1D2D2"/>
							<stop  offset="0.9512" style="stop-color:#E0E1E3"/>
							<stop  offset="0.9878" style="stop-color:#F5F3F5"/>
							<stop  offset="1" style="stop-color:#999B9D"/>
						</linearGradient>
						<path fill="url(#SVGID_9_)" d="M298.509,292.854h278.11v7.137c0,0,0.416,0.955-2.859,0.719H301.129
							c0,0-2.563,0.717-2.798-0.955L298.509,292.854z"/>
						<path fill="#5F6868" d="M563.699,297.025c0,0.271-0.184,0.498-0.41,0.498h-9.461c-0.229,0-0.412-0.227-0.412-0.498l0,0
							c0-0.283,0.184-0.506,0.412-0.506h9.461C563.516,296.52,563.699,296.742,563.699,297.025L563.699,297.025z"/>
					</g>
					
						<linearGradient id="SVGID_10_" gradientUnits="userSpaceOnUse" x1="689.4883" y1="894.8555" x2="689.4883" y2="890.9082" gradientTransform="matrix(1 0 0 1 -252 -598)">
						<stop  offset="0.3415" style="stop-color:#686C6C"/>
						<stop  offset="0.3611" style="stop-color:#717576"/>
						<stop  offset="0.4574" style="stop-color:#989B9C"/>
						<stop  offset="0.5524" style="stop-color:#B8B9BB"/>
						<stop  offset="0.6444" style="stop-color:#CED0D2"/>
						<stop  offset="0.7321" style="stop-color:#DADDDE"/>
						<stop  offset="0.811" style="stop-color:#E0E1E3"/>
						<stop  offset="0.9817" style="stop-color:#E4E5E7"/>
					</linearGradient>
					<path fill="url(#SVGID_10_)" d="M418.676,292.908c0,0-1.074,3.572,2.498,3.934h32.264c0,0,3.432,0.445,2.973-3.811
						L418.676,292.908z"/>
					<g>
						
							<linearGradient id="SVGID_11_" gradientUnits="userSpaceOnUse" x1="671.4414" y1="894.5059" x2="671.4414" y2="890.8184" gradientTransform="matrix(1 0 0 1 -252 -598)">
							<stop  offset="0.0244" style="stop-color:#5F6868"/>
							<stop  offset="0.4756" style="stop-color:#686C6C"/>
							<stop  offset="0.5137" style="stop-color:#727677"/>
							<stop  offset="0.6192" style="stop-color:#878A8B"/>
							<stop  offset="0.7202" style="stop-color:#949899"/>
							<stop  offset="0.811" style="stop-color:#999B9D"/>
						</linearGradient>
						<path fill="url(#SVGID_11_)" d="M418.854,292.908h0.021l0.014-0.084l-0.391-0.006c0,0-0.971,3.104,2.035,3.688
							C417.963,295.758,418.854,292.908,418.854,292.908z"/>
						
							<linearGradient id="SVGID_12_" gradientUnits="userSpaceOnUse" x1="690.5762" y1="894.6865" x2="690.5762" y2="891.0215" gradientTransform="matrix(1 0 0 1 -252 -598)">
							<stop  offset="0.0244" style="stop-color:#5F6868"/>
							<stop  offset="0.4756" style="stop-color:#686C6C"/>
							<stop  offset="0.5137" style="stop-color:#727677"/>
							<stop  offset="0.6192" style="stop-color:#878A8B"/>
							<stop  offset="0.7202" style="stop-color:#949899"/>
							<stop  offset="0.811" style="stop-color:#999B9D"/>
						</linearGradient>
						<path fill="url(#SVGID_12_)" d="M456.594,293.021h-0.35v0.084c0.256,4.018-2.986,3.475-2.986,3.475h-32.262
							c-0.164-0.021-0.316-0.045-0.465-0.074c0.242,0.074,0.51,0.123,0.82,0.152h32.264
							C453.617,296.664,456.949,297.232,456.594,293.021z"/>
						<g>
							<g>
								
									<linearGradient id="SVGID_13_" gradientUnits="userSpaceOnUse" x1="708.2432" y1="891.1055" x2="708.2432" y2="891.0215" gradientTransform="matrix(1 0 0 1 -252 -598)">
									<stop  offset="0.0244" style="stop-color:#5F6868"/>
									<stop  offset="0.4756" style="stop-color:#686C6C"/>
									<stop  offset="0.5137" style="stop-color:#727677"/>
									<stop  offset="0.6192" style="stop-color:#878A8B"/>
									<stop  offset="0.7202" style="stop-color:#949899"/>
									<stop  offset="0.811" style="stop-color:#999B9D"/>
								</linearGradient>
								<path fill="url(#SVGID_13_)" d="M456.244,293.105v-0.084h-0.002C456.242,293.047,456.242,293.076,456.244,293.105z"/>
							</g>
						</g>
					</g>
				</g>
			</g>
			<g>
				<g>
					<rect x="342.113" y="174.693" fill="#01A79D" width="190.346" height="36.914"/>
				</g>
			</g>
			<g>
				<g>
					<g>
						<circle fill="#FFFFFF" cx="372.307" cy="192.752" r="11.018"/>
					</g>
				</g>
				<g>
					<g>
						<path fill="#FFFFFF" d="M372.375,206.002c-7.248,0-13.146-5.895-13.146-13.139c0-7.249,5.896-13.145,13.146-13.145
							c7.246,0,13.139,5.896,13.139,13.145C385.514,200.107,379.621,206.002,372.375,206.002z M372.375,180.156
							c-7.01,0-12.711,5.7-12.711,12.707c0,7.008,5.701,12.703,12.711,12.703c7.004,0,12.703-5.695,12.703-12.703
							C385.078,185.856,379.379,180.156,372.375,180.156z"/>
					</g>
				</g>
			</g>
			<g>
				<g>
					<g>
						<rect x="404.355" y="181.933" fill="#FFFFFF" width="16.643" height="5.067"/>
					</g>
				</g>
				<g>
					<g>
						<rect x="423.896" y="181.933" fill="#FFFFFF" width="99.152" height="5.067"/>
					</g>
				</g>
			</g>
			<g>
				<g>
					<rect x="404.355" y="192.789" fill="#D7E69C" width="118.693" height="0.723"/>
				</g>
			</g>
			<g>
				<g>
					<rect x="404.355" y="199.301" fill="#D7E69C" width="118.693" height="2.172"/>
				</g>
			</g>
			<g>
				<g>
					<rect x="345.73" y="215.947" fill="#4E4E4E" width="26.055" height="49.215"/>
				</g>
			</g>
			<g>
				<g>
					<rect x="376.127" y="215.947" fill="#4E4E4E" width="25.334" height="49.215"/>
				</g>
			</g>
			<g>
				<g>
					<rect x="408.695" y="217.396" fill="#D34758" width="39.086" height="23.881"/>
				</g>
			</g>
			<g>
				<g>
					<rect x="449.953" y="217.396" fill="#008C84" width="38.359" height="23.881"/>
				</g>
			</g>
			<g>
				<g>
					<rect x="490.484" y="217.396" fill="#D34758" width="37.631" height="23.881"/>
				</g>
			</g>
			<g>
				<g>
					<g>
						<rect x="408.695" y="243.449" fill="#676767" width="39.086" height="1.447"/>
					</g>
				</g>
				<g>
					<g>
						<rect x="408.695" y="247.066" fill="#989898" width="26.779" height="1.449"/>
					</g>
				</g>
				<g>
					<g>
						<rect x="408.695" y="249.238" fill="#989898" width="30.396" height="2.174"/>
					</g>
				</g>
			</g>
			<g>
				<g>
					<g>
						<rect x="449.953" y="247.066" fill="#989898" width="32.566" height="1.449"/>
					</g>
				</g>
				<g>
					<g>
						<rect x="449.953" y="249.238" fill="#989898" width="26.053" height="2.174"/>
					</g>
				</g>
				<g>
					<g>
						<rect x="449.953" y="243.449" fill="#676767" width="38.359" height="1.447"/>
					</g>
				</g>
			</g>
			<g>
				<g>
					<g>
						<rect x="490.484" y="247.066" fill="#989898" width="26.053" height="1.449"/>
					</g>
				</g>
				<g>
					<g>
						<rect x="490.484" y="249.238" fill="#989898" width="30.396" height="2.174"/>
					</g>
				</g>
				<g>
					<g>
						<rect x="490.484" y="243.449" fill="#676767" width="37.631" height="1.447"/>
					</g>
				</g>
			</g>
			<g>
				<g>
					<rect x="408.695" y="254.307" fill="#989898" width="26.779" height="0.723"/>
				</g>
			</g>
			<g>
				<g>
					<rect x="408.695" y="256.479" fill="#989898" width="37.637" height="0.723"/>
				</g>
			</g>
			<g>
				<g>
					<g>
						<rect x="408.695" y="268.785" fill="#676767" width="39.086" height="1.441"/>
					</g>
				</g>
				<g>
					<g>
						<rect x="408.695" y="272.402" fill="#989898" width="26.779" height="1.445"/>
					</g>
				</g>
				<g>
					<g>
						<rect x="408.695" y="274.568" fill="#989898" width="30.396" height="2.902"/>
					</g>
				</g>
			</g>
			<g>
				<g>
					<rect x="408.695" y="279.637" fill="#989898" width="26.779" height="0.727"/>
				</g>
			</g>
			<g>
				<g>
					<rect x="408.695" y="281.809" fill="#989898" width="37.637" height="0.723"/>
				</g>
			</g>
			<g>
				<g>
					<g>
						<rect x="449.953" y="268.785" fill="#676767" width="38.359" height="1.441"/>
					</g>
				</g>
				<g>
					<g>
						<rect x="449.953" y="272.402" fill="#989898" width="26.053" height="1.445"/>
					</g>
				</g>
				<g>
					<g>
						<rect x="449.953" y="274.568" fill="#989898" width="29.676" height="2.902"/>
					</g>
				</g>
			</g>
			<g>
				<g>
					<rect x="449.953" y="279.637" fill="#989898" width="26.053" height="0.727"/>
				</g>
			</g>
			<g>
				<g>
					<rect x="449.953" y="281.809" fill="#989898" width="36.91" height="0.723"/>
				</g>
			</g>
			<g>
				<g>
					<g>
						<rect x="490.484" y="268.785" fill="#676767" width="37.631" height="1.441"/>
					</g>
				</g>
				<g>
					<g>
						<rect x="490.484" y="272.402" fill="#989898" width="26.053" height="1.445"/>
					</g>
				</g>
				<g>
					<g>
						<rect x="490.484" y="274.568" fill="#989898" width="29.67" height="2.902"/>
					</g>
				</g>
			</g>
			<g>
				<g>
					<rect x="490.484" y="279.637" fill="#989898" width="26.053" height="0.727"/>
				</g>
			</g>
			<g>
				<g>
					<rect x="490.484" y="281.809" fill="#989898" width="36.906" height="0.723"/>
				</g>
			</g>
			<g>
				<g>
					<rect x="408.695" y="261.545" fill="#989898" width="37.637" height="2.168"/>
				</g>
			</g>
			<g>
				<g>
					<polygon fill="#989898" points="409.555,265.162 435.469,265.162 435.469,265.162 					"/>
				</g>
			</g>
			<g>
				<g>
					<rect x="408.695" y="266.613" fill="#989898" width="37.637" height="0.721"/>
				</g>
			</g>
			<g>
				<g>
					<rect x="449.953" y="254.307" fill="#989898" width="26.053" height="0.723"/>
				</g>
			</g>
			<g>
				<g>
					<rect x="449.953" y="256.479" fill="#989898" width="36.91" height="0.723"/>
				</g>
			</g>
			<g>
				<g>
					<rect x="449.953" y="261.545" fill="#989898" width="36.91" height="2.168"/>
				</g>
			</g>
			<g>
				<g>
					<rect x="490.484" y="261.545" fill="#989898" width="36.906" height="2.168"/>
				</g>
			</g>
			<g>
				<g>
					<polygon fill="#989898" points="449.859,265.162 475.771,265.162 475.771,265.162 					"/>
				</g>
			</g>
			<g>
				<g>
					<rect x="449.953" y="266.613" fill="#989898" width="36.91" height="0.721"/>
				</g>
			</g>
			<g>
				<g>
					<rect x="490.484" y="255.029" fill="#989898" width="25.33" height="1.449"/>
				</g>
			</g>
			<g>
				<g>
					<rect x="490.484" y="257.201" fill="#989898" width="37.631" height="0.727"/>
				</g>
			</g>
			<g>
				<g>
					<rect x="490.484" y="266.613" fill="#989898" width="37.631" height="0.721"/>
				</g>
			</g>
			<g opacity="0.3" enable-background="new    ">
				<g>
					<polygon fill="#FFFFFF" points="341.027,164.559 532.459,164.559 532.459,274.129 					"/>
				</g>
			</g>
			<g>
				<g>
					<rect x="345.73" y="268.057" fill="#D34758" width="55.73" height="14.475"/>
				</g>
			</g>
		</g>
	</g>
	<g id="iPhone">
		<g>
			<g>
				<g>
					<g>
						<path fill="#231F20" d="M206.258,204.086c0-4.072-3.304-7.378-7.378-7.378h-37.031c-4.075,0-7.378,3.306-7.378,7.378v94.844
							c0,4.072,3.3,7.377,7.378,7.377h37.031c4.074,0,7.378-3.305,7.378-7.377V204.086z M185.783,206.383
							c0,0.643-0.522,1.168-1.166,1.168h-7.905c-0.644,0-1.166-0.525-1.166-1.168v-0.074c0-0.645,0.522-1.168,1.166-1.168h7.905
							c0.643,0,1.166,0.523,1.166,1.168V206.383z M202.643,290.646h-43.956v-78.281h43.959v78.281H202.643z"/>
					</g>
				</g>
			</g>
			<g>
				<g>
					<rect x="159.004" y="212.33" fill="#FFFFFF" width="43.423" height="78.162"/>
				</g>
			</g>
			<g>
				<g>
					<g>
						<rect x="159.004" y="219.564" fill="#01A79D" width="43.423" height="28.951"/>
					</g>
				</g>
				<g>
					<g>
						<g>
							<ellipse fill="#FFFFFF" cx="171.866" cy="233.405" rx="8.675" ry="8.903"/>
						</g>
					</g>
					<g>
						<g>
							<path fill="#FFFFFF" d="M171.914,244.107c-5.708,0-10.352-4.76-10.352-10.611c0-5.854,4.644-10.611,10.352-10.611
								c5.708,0,10.352,4.76,10.352,10.611S177.622,244.107,171.914,244.107z M171.914,223.23c-5.515,0-10.001,4.607-10.001,10.268
								c0,5.658,4.487,10.264,10.001,10.264c5.519,0,10.005-4.602,10.005-10.264C181.922,227.838,177.432,223.23,171.914,223.23z"/>
						</g>
					</g>
				</g>
			</g>
			<g>
				<g>
					<rect x="161.896" y="252.133" fill="#D34758" width="37.639" height="21.715"/>
				</g>
			</g>
			<g>
				<g>
					<g>
						<rect x="161.896" y="276.742" fill="#676767" width="37.639" height="1.449"/>
					</g>
				</g>
				<g>
					<g>
						<rect x="161.896" y="280.363" fill="#989898" width="26.058" height="0.723"/>
					</g>
				</g>
				<g>
					<g>
						<rect x="161.896" y="282.531" fill="#989898" width="28.951" height="2.172"/>
					</g>
				</g>
			</g>
			<g>
				<g>
					<rect x="161.896" y="286.875" fill="#989898" width="26.058" height="0.723"/>
				</g>
			</g>
			<g>
				<g>
					<polygon fill="#989898" points="162.328,289.049 198.09,289.049 198.09,289.049 					"/>
				</g>
			</g>
			<g>
				<g>
					<g>
						<rect x="184.334" y="228.977" fill="#FFFFFF" width="15.201" height="2.172"/>
					</g>
				</g>
				<g>
					<g>
						<rect x="184.334" y="232.594" fill="#FFFFFF" width="10.134" height="0.723"/>
					</g>
				</g>
				<g>
					<g>
						<rect x="184.334" y="235.488" fill="#FFFFFF" width="11.58" height="1.449"/>
					</g>
				</g>
			</g>
			<g opacity="0.3" enable-background="new    ">
				<g>
					<polygon fill="#FFFFFF" points="202.425,290.77 202.425,212.33 158.968,212.33 					"/>
				</g>
			</g>
		</g>
	</g>
</g>
</svg>
