<?xml version="1.0" encoding="utf-8"?>
<!-- Generator: Adobe Illustrator 16.0.0, SVG Export Plug-In . SVG Version: 6.00 Build 0)  -->
<!DOCTYPE svg PUBLIC "-//W3C//DTD SVG 1.1//EN" "http://www.w3.org/Graphics/SVG/1.1/DTD/svg11.dtd">
<svg version="1.1" id="Layer_1" xmlns="http://www.w3.org/2000/svg" xmlns:xlink="http://www.w3.org/1999/xlink" x="0px" y="0px"
	 width="600px" height="350px" viewBox="0 0 600 350" enable-background="new 0 0 600 350" xml:space="preserve">
<g>
	<g>
		<rect x="128.046" y="56.778" opacity="0.5" fill="#6E6F72" enable-background="new    " width="347.497" height="251.75"/>
		
			<rect x="124.457" y="52.324" fill="#FFFFFF" stroke="#D2D3D4" stroke-width="1.2509" stroke-miterlimit="10" width="347.497" height="251.755"/>
		<g>
			<g>
				<polygon fill="#CDCCCC" points="385.498,286.004 283.696,286.069 283.689,283.463 385.504,283.395 				"/>
				<polygon fill="#CB2026" points="301.799,283.44 283.696,283.443 283.672,228.926 301.77,228.909 				"/>
				<polygon fill="#D81F26" points="322.729,283.426 304.631,283.426 304.625,249.477 322.717,249.471 				"/>
				<polygon fill="#E32526" points="343.65,283.435 325.553,283.451 325.531,260.989 343.635,260.967 				"/>
				<polygon fill="#EE3533" points="364.582,283.397 346.484,283.403 346.467,250.405 364.568,250.402 				"/>
				<rect x="367.403" y="259.798" fill="#EF4445" width="18.105" height="23.597"/>
			</g>
			<g>
				<rect x="393.411" y="230.706" fill="#CDCCCC" width="64.053" height="4.253"/>
				<rect x="393.408" y="238.156" fill="#CDCCCC" width="64.057" height="4.263"/>
				<rect x="393.408" y="245.597" fill="#CDCCCC" width="64.059" height="4.253"/>
				<polygon fill="#CDCCCC" points="457.484,257.286 393.424,257.329 393.424,253.072 457.473,253.023 				"/>
				<polygon fill="#CDCCCC" points="457.471,264.742 393.414,264.784 393.408,260.529 457.465,260.484 				"/>
				<polygon fill="#CDCCCC" points="457.471,272.193 393.42,272.235 393.42,267.979 457.471,267.938 				"/>
				<rect x="393.447" y="275.389" fill="#CDCCCC" width="64.051" height="4.259"/>
				<polygon fill="#CDCCCC" points="438.52,287.082 393.443,287.108 393.438,282.852 438.52,282.833 				"/>
			</g>
		</g>
		<g>
			<polygon fill="#CDCCCC" points="230.451,222.382 147.416,222.44 147.408,220.313 230.453,220.257 			"/>
			<polygon fill="#CB2026" points="162.176,220.295 147.416,220.298 147.393,175.823 162.155,175.818 			"/>
			<polygon fill="#D81F26" points="179.254,220.284 164.49,220.284 164.487,192.591 179.246,192.588 			"/>
			<rect x="181.547" y="201.975" fill="#E32526" width="14.76" height="18.322"/>
			<rect x="198.623" y="193.348" fill="#EE3533" width="14.759" height="26.914"/>
			<rect x="215.691" y="201.005" fill="#EF4445" width="14.769" height="19.252"/>
			<polygon fill="#CDCCCC" points="211.464,233.375 147.416,233.411 147.408,229.158 211.464,229.122 			"/>
			<polygon fill="#CDCCCC" points="147.427,236.606 211.473,236.568 211.487,240.824 147.424,240.859 			"/>
			<polygon fill="#CDCCCC" points="211.481,248.27 147.424,248.308 147.416,244.051 211.481,244.011 			"/>
			<polygon fill="#CDCCCC" points="211.487,255.718 147.433,255.757 147.433,251.496 211.487,251.459 			"/>
			<polygon fill="#CDCCCC" points="211.504,263.152 147.45,263.192 147.45,258.944 211.504,258.906 			"/>
			<rect x="147.457" y="266.375" fill="#CDCCCC" width="64.052" height="4.252"/>
			<polygon fill="#CDCCCC" points="211.506,278.059 147.452,278.099 147.452,273.842 211.506,273.799 			"/>
			<rect x="147.458" y="281.277" fill="#CDCCCC" width="32.028" height="4.258"/>
		</g>
		<g>
			<g>
				<path fill="#5BBFAC" d="M386.236,182.662c-29.018,0.018-52.547-23.482-52.564-52.503c-0.01-29.024,23.508-52.587,52.486-52.587
					c29.045-0.006,52.564,23.498,52.605,52.516C438.779,159.09,415.258,182.656,386.236,182.662z"/>
				<path fill="#B3E0DB" d="M415.109,86.215c7.537,5.003,13.721,11.855,17.896,19.942l-46.781,23.959L415.109,86.215z"/>
				<path fill="#9FD8D0" d="M433.006,106.157c3.676,7.164,5.773,15.306,5.758,23.93c0.033,16.807-7.857,31.751-20.148,41.39
					l-32.379-41.361L433.006,106.157z"/>
				<path fill="#87CFC3" d="M418.615,171.478c-8.887,6.982-20.152,11.162-32.379,11.185l-0.012-52.545L418.615,171.478z"/>
				<path fill="#71C9B9" d="M386.236,182.662l-0.012-52.545l-37.414,36.881C358.334,176.661,371.592,182.68,386.236,182.662z"/>
			</g>
			<polygon fill="#CDCCCC" points="358.695,197.771 337.061,197.787 337.061,191.64 358.695,191.619 			"/>
			<polygon fill="#CDCCCC" points="433.01,197.739 368.742,197.803 368.732,191.631 432.994,191.57 			"/>
		</g>
		<g>
			<polygon fill="#CDCCCC" points="258.738,88.398 175.742,88.45 175.736,84.194 258.738,84.14 			"/>
			<polygon fill="#CDCCCC" points="287.025,99.016 147.463,99.107 147.457,94.852 287.025,94.758 			"/>
			<polygon fill="#CDCCCC" points="287.037,106.46 147.463,106.551 147.463,102.301 287.031,102.211 			"/>
			<rect x="147.472" y="109.703" fill="#CDCCCC" width="139.569" height="4.254"/>
			<polygon fill="#CDCCCC" points="287.054,121.356 147.474,121.45 147.474,117.188 287.048,117.099 			"/>
			<polygon fill="#CDCCCC" points="287.054,128.799 147.479,128.894 147.474,124.641 287.054,124.552 			"/>
			<rect x="147.487" y="132.04" fill="#CDCCCC" width="139.565" height="4.261"/>
			<polygon fill="#CDCCCC" points="287.062,143.699 147.485,143.795 147.479,139.536 287.057,139.447 			"/>
			<polygon fill="#CDCCCC" points="287.065,151.153 147.491,151.242 147.485,146.981 287.065,146.893 			"/>
			<rect x="147.499" y="154.399" fill="#CDCCCC" width="69.782" height="4.261"/>
		</g>
	</g>
	<g>
		<g id="line_1_" opacity="0.7">
			<polygon fill="#D3E6F0" points="239.111,215.154 364.068,99.255 375.369,110.489 260.578,236.776 			"/>
			<polygon opacity="0.5" fill="#FFFFFF" enable-background="new    " points="261.567,220.611 254.574,213.612 368.143,102.802 
				372.232,106.891 			"/>
		</g>
		<g id="Megaphone_1_">
			<path fill="#F2F2F2" d="M228.22,209.781c4.945-4.275,5.226-22.271,5.226-22.271s4.886,18.882,10.129,18.945
				c5.246,0.066,17.513-14.146,17.513-14.146s-8.511,19.065-5.157,23.26c3.345,4.199,23.751-4.393,23.751-4.393
				s-18.106,9.688-16.517,16.612c1.24,5.381,20.737,10.369,20.737,10.369s-20.764-2.818-23.059,4.217
				c-2.294,7.034,10.616,20.088,10.616,20.088s-17.144-14.002-21.191-11.597c-4.048,2.409-4.478,18.824-4.478,18.824
				s-3.623-16.888-9.013-16.713c-5.387,0.163-16.633,17.511-16.633,17.511l4.48-23.741l-23.755,4.399l17.58-16.57l-13.241-7.77
				c0,0,10.614-4.056,15.4-5.707c4.788-1.664-11.513-21.235-11.513-21.235S223.273,214.06,228.22,209.781z"/>
			<g>
				<path fill="#BE202E" d="M216.333,335.707c0.731,0.416,1.628,0.55,2.504,0.308c0.877-0.243,1.57-0.82,1.991-1.554l5.957-10.506
					c0.417-0.739,0.552-1.625,0.317-2.508c-0.242-0.879-0.821-1.569-1.551-1.987l-20.487-24.453l-9.215,16.24L216.333,335.707z"/>
				<path fill="#EC2227" d="M221.89,332.59l-1.066,1.877c-0.216,0.378-0.519,0.722-0.87,0.99l-23.123-25.948l1.707-3.001
					L221.89,332.59z"/>
				<path fill="#21374D" d="M220.837,313.994l0.505-0.419c0.641-0.542,1.079-1.33,1.165-2.227c0.075-0.899-0.222-1.755-0.757-2.404
					l-2.116-2.518c-0.539-0.645-1.324-1.082-2.228-1.163c-0.902-0.077-1.759,0.219-2.4,0.757l-0.504,0.422L220.837,313.994z"/>
			</g>
			<path fill="#51677F" d="M247.966,226.041c6.849,6.868,6.824,17.99-0.042,24.848c-6.862,6.842-17.99,6.83-24.836-0.033
				c-6.846-6.875-6.835-18.004,0.034-24.85C229.99,219.158,241.114,219.17,247.966,226.041z"/>
			<g>
				<path fill="#BE202E" d="M189.743,252.522l-8.805,8.789l31.575,31.657l8.802-8.782c10.909-10.866,25.808-15.291,39.956-13.259
					l-58.162-58.321C205.109,226.759,200.65,241.651,189.743,252.522z"/>
				<path fill="#EC2227" d="M194.947,257.885l-8.808,8.775l-2.891-3.036l8.805-8.782c10.905-10.873,15.366-25.761,13.371-39.911
					l2.889,3.032C210.313,232.118,205.85,247.011,194.947,257.885z"/>
				<path fill="#21374D" d="M267.934,264.277c0.85,0.857,1.379,2.038,1.374,3.336c0,1.297-0.53,2.475-1.382,3.324l0,0
					c-0.857,0.852-2.03,1.373-3.331,1.373c-1.305-0.006-2.475-0.527-3.328-1.385l-58.157-58.319
					c-0.844-0.853-1.374-2.028-1.374-3.332c0.006-1.299,0.53-2.473,1.388-3.327l0,0c0.849-0.854,2.03-1.378,3.326-1.378
					c1.301,0,2.479,0.535,3.326,1.387L267.934,264.277z"/>
			</g>
			<g>
				<path fill="#21374D" d="M213.345,293.804l-21.666,21.602c-2.985,2.974-7.104,4.815-11.654,4.811s-8.667-1.863-11.641-4.844
					l-9.967-10c-2.979-2.99-4.824-7.103-4.813-11.658c0.005-4.543,1.853-8.662,4.838-11.641l21.663-21.601L213.345,293.804z"/>
				<g>
					<g>
						<g>
							<g>
								<path fill="#01A79D" d="M164.021,301.715c-0.629,0.39-1.467,0.311-2.008-0.229c-0.636-0.638-0.642-1.658,0-2.3
									l13.388-13.398c0.627-0.633,1.659-0.633,2.288,0c0.638,0.632,0.638,1.659,0.006,2.294l-13.388,13.404
									C164.218,301.572,164.122,301.652,164.021,301.715z"/>
							</g>
						</g>
					</g>
					<g>
						<g>
							<g>
								<path fill="#01A79D" d="M168.388,306.554c-0.626,0.391-1.459,0.315-2.008-0.232c-0.632-0.637-0.632-1.659,0-2.295
									l13.391-13.401c0.626-0.636,1.656-0.636,2.291,0c0.635,0.635,0.635,1.656,0,2.291l-13.391,13.399
									C168.587,306.41,168.494,306.479,168.388,306.554z"/>
							</g>
						</g>
					</g>
					<g>
						<g>
							<g>
								<path fill="#01A79D" d="M173.32,311.265c-0.622,0.397-1.46,0.318-2.001-0.23c-0.635-0.624-0.635-1.657-0.005-2.292
									l13.388-13.402c0.636-0.635,1.658-0.635,2.296,0c0.63,0.634,0.63,1.656,0,2.301l-13.39,13.394
									C173.52,311.129,173.425,311.199,173.32,311.265z"/>
							</g>
						</g>
					</g>
				</g>
				<path fill="#51677F" d="M160.831,300.417c-0.066,0.076-0.135,0.137-0.218,0.188c-0.744,0.523-1.773,0.342-2.294-0.404
					c-1.59-2.261-2.422-4.923-2.419-7.705c0.003-3.583,1.404-6.947,3.948-9.474l7.49-7.482c0.649-0.644,1.692-0.644,2.335,0.006
					c0.639,0.646,0.633,1.688-0.005,2.331l-7.496,7.472c-1.922,1.908-2.974,4.451-2.974,7.147c-0.004,2.103,0.631,4.106,1.821,5.812
					C161.475,298.981,161.386,299.864,160.831,300.417z"/>
				<path fill="#51677F" d="M168.385,315.372l0.667-0.664c0.426-0.422,0.689-1.017,0.692-1.666c0-0.646-0.266-1.239-0.688-1.66
					l-6.649-6.677c-0.424-0.421-1.015-0.682-1.662-0.685c-0.654,0-1.24,0.255-1.667,0.685l-0.664,0.667L168.385,315.372z"/>
			</g>
		</g>
	</g>
	<g>
		
			<linearGradient id="SVGID_1_" gradientUnits="userSpaceOnUse" x1="12.2549" y1="350.9121" x2="14.7141" y2="350.9121" gradientTransform="matrix(4.2805 -4.2805 -4.2805 -4.2805 1819.178 1660.0645)">
			<stop  offset="0" style="stop-color:#561514"/>
			<stop  offset="1" style="stop-color:#EA2B29"/>
		</linearGradient>
		<path fill="url(#SVGID_1_)" d="M379.723,119.633c-0.107,0.245-0.225,0.494-0.338,0.745c0.031-0.023,0.066-0.054,0.094-0.081
			C379.633,120.142,379.715,119.915,379.723,119.633 M375.668,112.825c-0.801,1.376-1.771,2.938-2.918,4.618
			c2.66,1.954,4.83,3.095,6.014,3.095c0.176,0,0.338-0.028,0.469-0.082c-0.674-1.931-1.496-3.826-2.459-5.664
			C376.428,114.133,376.055,113.474,375.668,112.825 M355.369,95.378c-0.242,0.021-0.434,0.101-0.572,0.237
			c-0.73,0.734,0.236,3.015,2.355,6.041c1.709-1.164,3.293-2.139,4.684-2.939l-1.07-0.678c-0.529-0.309-1.059-0.611-1.6-0.889
			C357.924,96.488,356.656,95.9,355.369,95.378"/>
		
			<linearGradient id="SVGID_2_" gradientUnits="userSpaceOnUse" x1="2.6509" y1="350.9883" x2="5.1108" y2="350.9883" gradientTransform="matrix(15.6011 -15.6011 -15.6011 -15.6011 5765.896 5660.1567)">
			<stop  offset="0" style="stop-color:#F48020"/>
			<stop  offset="0.4784" style="stop-color:#EEB224"/>
			<stop  offset="1" style="stop-color:#ECE73F"/>
		</linearGradient>
		<path fill="url(#SVGID_2_)" d="M361.836,98.717c-1.391,0.8-2.975,1.775-4.684,2.939c-6.34,4.332-14.354,11.254-20.068,21.249
			l7.832-6.679c0,0-11.02,10.841-21.105,28.931l9.822-10.621c0,0-16.205,22.52-17.717,24.029
			c1.512-1.51,24.031-17.718,24.031-17.718l-10.625,9.824c18.092-10.082,28.936-21.104,28.936-21.104l-6.678,7.832
			c9.934-5.684,16.83-13.628,21.17-19.956c1.146-1.68,2.117-3.242,2.918-4.618c-0.662-1.104-1.373-2.183-2.143-3.233
			c-0.355,0.227-0.705,0.458-1.051,0.685c-0.373,0.23-0.732,0.459-1.094,0.686c-2.084,3.719-6.6,10.343-14.178,14.674l3.855-4.516
			c0,0-6.256,6.357-16.689,12.173l6.131-5.666c0,0-12.992,9.342-13.859,10.213c0.867-0.871,10.217-13.856,10.217-13.856
			l-5.664,6.128c5.814-10.433,12.17-16.684,12.17-16.684l-4.52,3.85c5.688-9.94,15.313-14.615,17.152-15.437
			c0.035-0.03,0.07-0.056,0.105-0.087c-0.709-0.581-1.438-1.135-2.178-1.667c-0.25-0.181-0.504-0.357-0.768-0.535L361.836,98.717"/>
		
			<linearGradient id="SVGID_3_" gradientUnits="userSpaceOnUse" x1="4.27" y1="350.9844" x2="6.7302" y2="350.9844" gradientTransform="matrix(11.7869 -11.7869 -11.7869 -11.7869 4439.6968 4308.8159)">
			<stop  offset="0" style="stop-color:#F48020"/>
			<stop  offset="0.4784" style="stop-color:#EEB224"/>
			<stop  offset="1" style="stop-color:#ECE73F"/>
		</linearGradient>
		<path fill="url(#SVGID_3_)" d="M365.996,101.842c-1.84,0.822-11.465,5.496-17.152,15.437l4.52-3.85c0,0-6.355,6.251-12.17,16.684
			l5.664-6.128c0,0-9.35,12.985-10.217,13.856c0.867-0.871,13.859-10.213,13.859-10.213l-6.131,5.666
			c10.434-5.815,16.689-12.173,16.689-12.173l-3.855,4.516c7.578-4.332,12.094-10.955,14.178-14.674
			c-0.824,0.521-1.631,1.025-2.406,1.514c-0.016,0.012-0.031,0.021-0.053,0.03c-3.111,5.313-7.434,8.372-7.434,8.372
			c2.818-2.751,5.002-5.542,6.578-7.844c-0.793,0.481-1.549,0.943-2.258,1.38c-0.979,0.604-1.912,1.118-2.723,1.597
			c-0.805,0.479-1.521,0.88-2.121,1.208c-0.053,0.029-0.104,0.06-0.156,0.086c-1.137,0.747-2.389,1.518-3.742,2.273l1.746-1.617
			l-0.283-0.283c-2.646,1.919-6.346,4.616-6.723,4.992c0.594-0.592,6.945-9.419,6.945-9.419l-3.848,4.167
			c3.951-7.096,8.271-11.346,8.271-11.346l-3.07,2.619c0.508-0.884,1.061-1.71,1.641-2.475c-2.363,1.585-5.27,3.836-8.143,6.779
			c0,0,3.266-4.622,8.922-7.755C363.65,103.912,364.846,102.782,365.996,101.842"/>
		
			<linearGradient id="SVGID_4_" gradientUnits="userSpaceOnUse" x1="-16.2549" y1="352.6016" x2="-13.7945" y2="352.6016" gradientTransform="matrix(-2.8344 2.5688 -2.5688 -2.8344 1223.1718 1145.2081)">
			<stop  offset="0" style="stop-color:#F48020"/>
			<stop  offset="0.4784" style="stop-color:#EEB224"/>
			<stop  offset="1" style="stop-color:#ECE73F"/>
		</linearGradient>
		<path fill="url(#SVGID_4_)" d="M362.525,105.24c-5.656,3.133-8.922,7.755-8.922,7.755c2.873-2.943,5.779-5.194,8.143-6.779
			C361.998,105.88,362.26,105.557,362.525,105.24"/>
		
			<linearGradient id="SVGID_5_" gradientUnits="userSpaceOnUse" x1="-16.2437" y1="352.75" x2="-13.7845" y2="352.75" gradientTransform="matrix(-2.5692 2.8348 2.8348 2.5692 -671.243 -749.1919)">
			<stop  offset="0" style="stop-color:#F48020"/>
			<stop  offset="0.4784" style="stop-color:#EEB224"/>
			<stop  offset="1" style="stop-color:#ECE73F"/>
		</linearGradient>
		<path fill="url(#SVGID_5_)" d="M368.922,112.506c-0.287,0.177-0.576,0.353-0.855,0.528c-1.576,2.302-3.76,5.092-6.578,7.844
			C361.488,120.878,365.811,117.819,368.922,112.506"/>
		
			<linearGradient id="SVGID_6_" gradientUnits="userSpaceOnUse" x1="6.0537" y1="351.0742" x2="8.5142" y2="351.0742" gradientTransform="matrix(8.3008 -8.3008 -8.3008 -8.3008 3221.8928 3079.3557)">
			<stop  offset="0" style="stop-color:#ECE73F"/>
			<stop  offset="0.4804" style="stop-color:#EEED8A"/>
			<stop  offset="1" style="stop-color:#F2F5D4"/>
		</linearGradient>
		<path fill="url(#SVGID_6_)" d="M360.809,117.305c-1.096,0.593-1.723,0.933-1.723,0.933l-0.273-0.276l-1.746,1.617
			C358.42,118.823,359.672,118.052,360.809,117.305 M366.102,101.754c-0.035,0.031-0.07,0.057-0.105,0.087
			c-1.15,0.94-2.346,2.07-3.471,3.398c-0.266,0.317-0.527,0.64-0.779,0.977c-0.58,0.764-1.133,1.591-1.641,2.475l3.07-2.619
			c0,0-4.32,4.25-8.271,11.346l3.848-4.167c0,0-6.352,8.827-6.945,9.419c0.377-0.376,4.076-3.073,6.723-4.992l-0.545-0.544
			c0,0,0.369-0.683,1.018-1.879c0.326-0.595,0.732-1.311,1.211-2.118c0.477-0.81,0.992-1.743,1.594-2.721
			c0.6-0.983,1.252-2.042,1.938-3.171c0.701-1.11,1.443-2.282,2.201-3.497c0.295-0.453,0.596-0.914,0.9-1.376
			C366.6,102.165,366.352,101.959,366.102,101.754"/>
		
			<linearGradient id="SVGID_7_" gradientUnits="userSpaceOnUse" x1="-5.4473" y1="341.4102" x2="-2.9874" y2="341.4102" gradientTransform="matrix(3.346993e-005 6.6733 -6.6733 3.346993e-005 2673.9268 149.9275)">
			<stop  offset="0" style="stop-color:#561514"/>
			<stop  offset="1" style="stop-color:#EA2B29"/>
		</linearGradient>
		<path fill="url(#SVGID_7_)" d="M377.668,113.706c4.813,5.389-0.766,24.463-0.766,24.463c18.455-6.865,27.822-17.032,32.566-25.977
			c5.527-10.406,4.771-19.168,4.771-19.168l-29.619,16.747L377.668,113.706z"/>
		
			<linearGradient id="SVGID_8_" gradientUnits="userSpaceOnUse" x1="-2.4702" y1="337.5566" x2="-0.01" y2="337.5566" gradientTransform="matrix(-4.0905 -4.0905 -4.0905 4.0905 1775.0042 -1273.5516)">
			<stop  offset="0" style="stop-color:#561514"/>
			<stop  offset="1" style="stop-color:#EA2B29"/>
		</linearGradient>
		<path fill="url(#SVGID_8_)" d="M384.621,109.773c1.898,7.086-1.736,20.338-1.736,20.338c13.254-4.707,21.484-11.319,26.584-17.918
			c5.527-10.408,4.77-19.17,4.77-19.17L384.621,109.773z"/>
		
			<linearGradient id="SVGID_9_" gradientUnits="userSpaceOnUse" x1="0.3887" y1="356.9648" x2="2.8474" y2="356.9648" gradientTransform="matrix(9.4122 9.4122 9.4122 -9.4122 -2990.856 3437.9617)">
			<stop  offset="0" style="stop-color:#561514"/>
			<stop  offset="1" style="stop-color:#EA2B29"/>
		</linearGradient>
		<path fill="url(#SVGID_9_)" d="M414.047,92.836c0,0,1.912,22.3-27.492,33.243c0,0,4.109-14.049,0.57-18.014L414.047,92.836z"/>
		
			<linearGradient id="SVGID_10_" gradientUnits="userSpaceOnUse" x1="-5.5483" y1="341.5215" x2="-3.0881" y2="341.5215" gradientTransform="matrix(-6.6735 -2.390777e-005 -2.390777e-005 6.6735 324.3627 -2199.6543)">
			<stop  offset="0" style="stop-color:#561514"/>
			<stop  offset="1" style="stop-color:#EA2B29"/>
		</linearGradient>
		<path fill="url(#SVGID_10_)" d="M361.371,97.412c-5.381-4.809-24.461,0.768-24.461,0.768
			c6.871-18.456,17.029-27.828,25.979-32.567c10.412-5.521,19.17-4.771,19.17-4.771l-16.748,29.619L361.371,97.412z"/>
		
			<linearGradient id="SVGID_11_" gradientUnits="userSpaceOnUse" x1="-1.4102" y1="360.7441" x2="1.0498" y2="360.7441" gradientTransform="matrix(5.6437 5.6437 5.6437 -5.6437 -1670.4908 2114.4053)">
			<stop  offset="0" style="stop-color:#F7A9AD"/>
			<stop  offset="0.7773" style="stop-color:#F04E3D"/>
			<stop  offset="1" style="stop-color:#EA2B29"/>
		</linearGradient>
		<path fill="url(#SVGID_11_)" d="M365.309,90.459c-7.086-1.899-20.344,1.737-20.344,1.737
			c4.705-13.254,11.322-21.483,17.922-26.587c10.41-5.519,19.168-4.766,19.168-4.766L365.309,90.459z"/>
		
			<linearGradient id="SVGID_12_" gradientUnits="userSpaceOnUse" x1="0.3457" y1="357.415" x2="2.8069" y2="357.415" gradientTransform="matrix(8.7499 8.7499 8.7499 -8.7499 -2757.6907 3206.1726)">
			<stop  offset="0" style="stop-color:#561514"/>
			<stop  offset="1" style="stop-color:#EA2B29"/>
		</linearGradient>
		<path fill="url(#SVGID_12_)" d="M382.242,61.031c0,0-22.299-1.909-33.24,27.496c0,0,14.047-4.108,18.014-0.565L382.242,61.031z"/>
		
			<linearGradient id="SVGID_13_" gradientUnits="userSpaceOnUse" x1="0.4888" y1="360.5059" x2="2.9488" y2="360.5059" gradientTransform="matrix(8.0286 8.0286 8.0286 -8.0286 -2489.5164 2941.6658)">
			<stop  offset="0" style="stop-color:#561514"/>
			<stop  offset="1" style="stop-color:#EA2B29"/>
		</linearGradient>
		<path fill="url(#SVGID_13_)" d="M377.459,107.318c-0.002,0-0.002,0-0.002,0c0.941,1.37,1.797,2.784,2.559,4.23
			c0.174,0.329,0.336,0.661,0.506,0.993l0,0c-0.164-0.332-0.332-0.664-0.506-0.996C379.254,110.1,378.404,108.688,377.459,107.318
			 M362.717,94.067L362.717,94.067c0.436,0.235,0.863,0.479,1.289,0.73l2.178,1.373c0-0.003,0-0.003,0-0.003l-2.174-1.373
			C363.58,94.543,363.152,94.302,362.717,94.067 M457.598,13.865c-9.279,0.003-35.625,2.441-60.783,27.599
			c-19.416,19.42-28.986,38.869-33.439,50.791c0.686-0.221,1.359-0.433,2.021-0.626c0.832-0.246,1.648-0.467,2.447-0.674
			c3.59-10.104,12.469-29.627,32.242-49.404c24.182-24.175,48.939-26.02,55.918-26.02c1.256,0,1.934,0.062,1.934,0.062
			s2.574,29.333-25.947,57.857c-0.045,0.04-0.09,0.084-0.133,0.128c-0.031,0.031-0.064,0.067-0.102,0.102
			c-1.822,1.826-3.65,3.553-5.465,5.18c-16.414,14.823-32.041,22.405-41.521,26.019c-0.045,0.017-0.086,0.034-0.131,0.054
			c-0.043,0.184-0.086,0.369-0.127,0.56c-0.459,1.958-1.027,4.046-1.74,6.238c11.92-4.441,31.404-14.006,50.855-33.455
			c31.209-31.211,27.445-64.268,27.445-64.268S459.834,13.865,457.598,13.865"/>
		
			<linearGradient id="SVGID_14_" gradientUnits="userSpaceOnUse" x1="6.6953" y1="351.0088" x2="9.155" y2="351.0088" gradientTransform="matrix(10.5245 -10.5245 -10.5245 -10.5245 4012.3215 3849.5864)">
			<stop  offset="0" style="stop-color:#561514"/>
			<stop  offset="1" style="stop-color:#EA2B29"/>
		</linearGradient>
		<path fill="url(#SVGID_14_)" d="M377.27,107.043c0,0-0.002,0-0.002,0.002c0.061,0.091,0.129,0.179,0.189,0.272c0,0,0,0,0.002,0
			C377.398,107.225,377.334,107.137,377.27,107.043 M366.184,96.167c0,0,0,0,0,0.003l0.221,0.137
			c0.254,0.175,0.51,0.354,0.764,0.538c0.773,0.551,1.525,1.13,2.268,1.739l0,0c-0.74-0.611-1.492-1.19-2.262-1.739
			c-0.256-0.186-0.512-0.363-0.77-0.538L366.184,96.167 M426.291,78.859c-17.213,15.477-33.451,22.314-41.414,24.976
			c-0.074,0.358-0.158,0.725-0.238,1.097c0.045-0.02,0.086-0.037,0.131-0.054C394.25,101.265,409.877,93.682,426.291,78.859
			 M456.004,15.531c-6.979,0-31.736,1.845-55.918,26.02c-19.773,19.777-28.652,39.3-32.242,49.404
			c1.709-0.441,3.328-0.794,4.846-1.078c3.281-9.276,11.453-27.297,29.715-45.555c22.248-22.254,45.035-23.948,51.459-23.948
			c1.154,0,1.779,0.054,1.779,0.054s2.359,26.93-23.785,53.148c0.043-0.043,0.088-0.088,0.133-0.128
			c28.521-28.524,25.947-57.857,25.947-57.857S457.26,15.531,456.004,15.531"/>
		
			<linearGradient id="SVGID_15_" gradientUnits="userSpaceOnUse" x1="0.2324" y1="358.6582" x2="2.6914" y2="358.6582" gradientTransform="matrix(10.0808 10.0808 10.0808 -10.0808 -3214.9734 3658.0234)">
			<stop  offset="0" style="stop-color:#561514"/>
			<stop  offset="1" style="stop-color:#EA2B29"/>
		</linearGradient>
		<path fill="url(#SVGID_15_)" d="M413.441,73.815c-2.781,0-5.557-1.057-7.674-3.178c-3.025-3.023-3.891-7.385-2.598-11.178
			c0.521-1.526,1.383-2.964,2.607-4.186c2.119-2.12,4.904-3.185,7.684-3.185c2.775,0,5.557,1.062,7.674,3.176
			c2.771,2.771,3.73,6.665,2.883,10.219c-0.453,1.882-1.412,3.67-2.883,5.147C419.006,72.753,416.225,73.815,413.441,73.815
			 M453.863,20.375c-6.424,0-29.211,1.694-51.459,23.948c-18.262,18.258-26.434,36.279-29.715,45.555
			c0.926-0.171,1.813-0.317,2.656-0.44c0.16-0.195,0.324-0.387,0.498-0.569c0.475-0.503,0.994-0.952,1.535-1.354
			c0.146-0.438,0.318-0.928,0.539-1.452c0.525-1.226,1.064-2.783,1.902-4.448c0.842-1.665,1.662-3.633,2.852-5.606
			c0.572-0.999,1.168-2.044,1.787-3.123c0.313-0.539,0.631-1.085,0.955-1.64c0.354-0.533,0.715-1.076,1.076-1.625
			c0.74-1.102,1.498-2.23,2.27-3.383c0.766-1.159,1.561-2.336,2.48-3.451c1.801-2.246,3.566-4.665,5.547-6.955
			c2.059-2.228,4.145-4.493,6.234-6.755l0.793-0.835c0.344-0.346,0.572-0.543,0.867-0.823l1.658-1.558l1.652-1.549
			c0.59-0.503,1.178-1.005,1.762-1.503c1.172-0.999,2.324-2.01,3.545-2.871c1.211-0.88,2.354-1.814,3.576-2.608
			c1.217-0.794,2.369-1.647,3.58-2.349c1.213-0.696,2.375-1.419,3.547-2.047c1.188-0.604,2.316-1.243,3.457-1.767
			c1.146-0.503,2.24-1.026,3.316-1.452c2.15-0.885,4.164-1.569,5.977-2.084c1.807-0.53,3.41-0.877,4.734-1.104
			c1.324-0.255,2.385-0.329,3.098-0.392c0.691-0.054,1.068-0.054,1.098-0.054l0,0c0,0-0.373,0.078-1.059,0.275
			c-0.689,0.193-1.678,0.513-2.924,0.965c-1.248,0.437-2.732,1.055-4.412,1.794c-1.674,0.748-3.514,1.684-5.5,2.738
			c-1.971,1.086-4.041,2.35-6.207,3.729c-2.143,1.417-4.336,2.999-6.568,4.688c-2.217,1.705-4.434,3.58-6.6,5.508
			c-0.549,0.481-1.102,0.963-1.645,1.447l-1.631,1.577l-1.637,1.583c-0.248,0.251-0.588,0.56-0.777,0.762l-0.766,0.827
			c-2.068,2.177-4.145,4.354-6.186,6.495c-1.934,2.236-3.84,4.436-5.688,6.565c-0.953,1.041-1.754,2.172-2.607,3.228
			c-0.84,1.065-1.666,2.107-2.467,3.121c-0.404,0.512-0.797,1.014-1.184,1.509c-0.363,0.512-0.723,1.014-1.074,1.512
			c-0.717,0.987-1.412,1.939-2.074,2.854c-0.334,0.461-0.66,0.908-0.977,1.352c-0.297,0.452-0.586,0.893-0.869,1.324
			c-0.576,0.859-1.121,1.672-1.637,2.436c-1.037,1.534-1.822,2.931-2.549,4.052c-0.076,0.128-0.146,0.252-0.219,0.371
			c0.217-0.133,0.432-0.263,0.652-0.389c1.146-0.662,2.332-1.193,3.492-1.617c2.305-0.859,4.553-1.248,6.268-1.375
			c0.645-0.041,1.201-0.063,1.654-0.063c0.158,0,0.301,0.003,0.43,0.006c0.506,0.014,0.801,0.044,0.801,0.044l1.104,1.104
			c0,0,0.029,0.292,0.043,0.798c0.018,0.512,0,1.221-0.057,2.086c-0.129,1.715-0.514,3.962-1.373,6.27
			c-0.381,1.025-0.84,2.069-1.398,3.094c0.445-0.223,1.006-0.503,1.682-0.81c0.898-0.467,1.996-1.047,3.25-1.704
			c1.229-0.708,2.611-1.507,4.121-2.378c1.508-0.867,3.059-1.955,4.756-2.993c1.717-1.014,3.371-2.325,5.168-3.541
			c0.891-0.625,1.793-1.259,2.705-1.9c0.879-0.692,1.768-1.394,2.662-2.102c0.895-0.702,1.805-1.407,2.711-2.118
			c0.916-0.702,1.828-1.414,2.678-2.208c1.742-1.526,3.486-3.047,5.205-4.553c0.418-0.366,0.832-0.73,1.246-1.092
			c0.4-0.402,0.803-0.807,1.199-1.198c0.801-0.797,1.588-1.583,2.361-2.355c0.779-0.771,1.539-1.528,2.287-2.269
			c0.715-0.763,1.344-1.549,1.996-2.293c0.65-0.749,1.279-1.478,1.889-2.181c0.607-0.708,1.244-1.356,1.729-2.078
			c1.018-1.404,1.986-2.673,2.85-3.802c0.441-0.557,0.826-1.095,1.137-1.625c0.332-0.519,0.631-0.994,0.902-1.422
			c1.098-1.721,1.762-2.695,1.762-2.695s-0.48,1.061-1.375,2.91c-0.229,0.459-0.479,0.97-0.754,1.527
			c-0.254,0.569-0.58,1.151-0.965,1.757c-0.73,1.226-1.563,2.613-2.508,4.111c-0.934,1.504-2.172,2.979-3.393,4.609
			c-0.623,0.802-1.246,1.658-1.93,2.475c-0.721,0.771-1.447,1.56-2.193,2.359c-0.748,0.802-1.512,1.613-2.279,2.438
			c-0.389,0.408-0.777,0.821-1.164,1.237c-0.482,0.458-0.873,0.788-1.316,1.193c-1.729,1.542-3.48,3.108-5.234,4.677
			c-0.869,0.793-1.805,1.509-2.74,2.211c-0.934,0.711-1.859,1.423-2.785,2.126c-0.922,0.69-1.838,1.382-2.746,2.063
			c-0.953,0.62-1.893,1.234-2.816,1.835c-1.859,1.196-3.611,2.406-5.414,3.339c-1.771,0.971-3.416,1.942-5.018,2.692
			c-1.588,0.753-3.051,1.444-4.369,2.001c-1.328,0.519-2.488,0.975-3.445,1.351c-0.816,0.286-1.486,0.49-1.992,0.649
			c-0.025,0.05-0.053,0.102-0.078,0.147c-0.66,1.159-1.451,2.273-2.467,3.236c-0.623,0.596-1.346,1.116-2.121,1.597
			c-0.109,0.606-0.227,1.229-0.357,1.863c7.963-2.662,24.201-9.499,41.414-24.976c1.814-1.627,3.643-3.354,5.465-5.18
			c0.037-0.035,0.07-0.071,0.102-0.102c26.145-26.219,23.785-53.148,23.785-53.148S455.018,20.375,453.863,20.375"/>
		
			<linearGradient id="SVGID_16_" gradientUnits="userSpaceOnUse" x1="0.2319" y1="358.2793" x2="2.6925" y2="358.2793" gradientTransform="matrix(10.0808 10.0808 10.0808 -10.0808 -3214.9734 3658.0234)">
			<stop  offset="0" style="stop-color:#442321"/>
			<stop  offset="1" style="stop-color:#902D2D"/>
		</linearGradient>
		<path fill="url(#SVGID_16_)" d="M413.461,52.089c-2.779,0-5.564,1.064-7.684,3.185c-1.225,1.222-2.086,2.66-2.607,4.186
			c-1.293,3.793-0.428,8.154,2.598,11.178c2.117,2.121,4.893,3.178,7.674,3.178c2.783,0,5.564-1.062,7.693-3.183
			c1.471-1.477,2.43-3.265,2.883-5.147c0.848-3.554-0.111-7.448-2.883-10.219C419.018,53.151,416.236,52.089,413.461,52.089"/>
		
			<radialGradient id="SVGID_17_" cx="0.9683" cy="356.7832" r="2.4595" gradientTransform="matrix(13.0422 13.0422 13.0566 -13.0566 -4256.7134 4703.9067)" gradientUnits="userSpaceOnUse">
			<stop  offset="0" style="stop-color:#F7A9AD"/>
			<stop  offset="0.7773" style="stop-color:#F04E3D"/>
			<stop  offset="1" style="stop-color:#EA2B29"/>
		</radialGradient>
		<path fill="url(#SVGID_17_)" d="M445.682,26.08c-0.029,0-0.406,0-1.098,0.054c-0.713,0.063-1.773,0.137-3.098,0.392
			c-1.324,0.227-2.928,0.574-4.734,1.104c-1.813,0.515-3.826,1.199-5.977,2.084c-1.076,0.426-2.17,0.948-3.316,1.452
			c-1.141,0.524-2.27,1.164-3.457,1.767c-1.172,0.628-2.334,1.351-3.547,2.047c-1.211,0.702-2.363,1.555-3.58,2.349
			c-1.223,0.794-2.365,1.728-3.576,2.608c-1.221,0.861-2.373,1.873-3.545,2.871c-0.584,0.499-1.172,1-1.762,1.503l-1.652,1.549
			l-1.658,1.558c-0.295,0.28-0.523,0.478-0.867,0.823l-0.793,0.835c-2.09,2.262-4.176,4.528-6.234,6.755
			c-1.98,2.291-3.746,4.709-5.547,6.955c-0.92,1.115-1.715,2.292-2.48,3.451c-0.771,1.152-1.529,2.281-2.27,3.383
			c-0.361,0.549-0.723,1.093-1.076,1.625c-0.324,0.555-0.643,1.101-0.955,1.64c-0.619,1.079-1.215,2.124-1.787,3.123
			c-1.189,1.973-2.01,3.941-2.852,5.606c-0.838,1.665-1.377,3.222-1.902,4.448c-0.221,0.524-0.393,1.014-0.539,1.452
			c0.342-0.261,0.689-0.498,1.049-0.725c0.072-0.119,0.143-0.243,0.219-0.371c0.727-1.121,1.512-2.519,2.549-4.052
			c0.516-0.764,1.061-1.577,1.637-2.436c0.283-0.432,0.572-0.873,0.869-1.324c0.316-0.444,0.643-0.891,0.977-1.352
			c0.662-0.915,1.357-1.867,2.074-2.854c0.352-0.498,0.711-1,1.074-1.512c0.387-0.495,0.779-0.997,1.184-1.509
			c0.801-1.014,1.627-2.056,2.467-3.121c0.854-1.056,1.654-2.188,2.607-3.228c1.848-2.129,3.754-4.329,5.688-6.565
			c2.041-2.141,4.117-4.318,6.186-6.495l0.766-0.827c0.189-0.202,0.529-0.511,0.777-0.762l1.637-1.583l1.631-1.577
			c0.543-0.484,1.096-0.965,1.645-1.447c2.166-1.928,4.383-3.804,6.6-5.508c2.232-1.689,4.426-3.271,6.568-4.688
			c2.166-1.379,4.236-2.642,6.207-3.729c1.986-1.054,3.826-1.99,5.5-2.738c1.68-0.739,3.164-1.357,4.412-1.794
			c1.246-0.452,2.234-0.772,2.924-0.965C445.309,26.157,445.682,26.08,445.682,26.08L445.682,26.08"/>
		
			<linearGradient id="SVGID_18_" gradientUnits="userSpaceOnUse" x1="-4.9795" y1="351.4238" x2="-2.5195" y2="351.4238" gradientTransform="matrix(-14.092 14.092 14.092 14.092 -4582.7661 -4828.0684)">
			<stop  offset="0" style="stop-color:#FCDEDF"/>
			<stop  offset="0.0408" style="stop-color:#FBDBDB"/>
			<stop  offset="0.7607" style="stop-color:#F49BA1"/>
			<stop  offset="1" style="stop-color:#F49BA1"/>
		</linearGradient>
		<path fill="url(#SVGID_18_)" d="M444.338,49.431c0,0-0.664,0.974-1.762,2.695c-0.271,0.428-0.57,0.903-0.902,1.422
			c-0.311,0.531-0.695,1.068-1.137,1.625c-0.863,1.129-1.832,2.398-2.85,3.802c-0.484,0.722-1.121,1.371-1.729,2.078
			c-0.609,0.703-1.238,1.432-1.889,2.181c-0.652,0.744-1.281,1.53-1.996,2.293c-0.748,0.741-1.508,1.498-2.287,2.269
			c-0.773,0.772-1.561,1.558-2.361,2.355c-0.396,0.391-0.799,0.796-1.199,1.198c-0.414,0.362-0.828,0.727-1.246,1.092
			c-1.719,1.506-3.463,3.027-5.205,4.553c-0.85,0.795-1.762,1.506-2.678,2.208c-0.906,0.71-1.816,1.416-2.711,2.118
			c-0.895,0.708-1.783,1.41-2.662,2.102c-0.912,0.642-1.814,1.276-2.705,1.9c-1.797,1.216-3.451,2.527-5.168,3.541
			c-1.697,1.039-3.248,2.126-4.756,2.993c-1.51,0.871-2.893,1.67-4.121,2.378c-1.254,0.657-2.352,1.237-3.25,1.704
			c-0.676,0.307-1.236,0.587-1.682,0.81c-0.045,0.08-0.094,0.164-0.143,0.244c0.506-0.159,1.176-0.363,1.992-0.649
			c0.957-0.376,2.117-0.833,3.445-1.351c1.318-0.558,2.781-1.249,4.369-2.001c1.602-0.75,3.246-1.722,5.018-2.692
			c1.803-0.933,3.555-2.143,5.414-3.339c0.924-0.601,1.863-1.215,2.816-1.835c0.908-0.682,1.824-1.373,2.746-2.063
			c0.926-0.703,1.852-1.415,2.785-2.126c0.936-0.703,1.871-1.418,2.74-2.211c1.754-1.569,3.506-3.135,5.234-4.677
			c0.443-0.405,0.834-0.734,1.316-1.193c0.387-0.416,0.775-0.83,1.164-1.237c0.768-0.824,1.531-1.636,2.279-2.438
			c0.746-0.799,1.473-1.588,2.193-2.359c0.684-0.817,1.307-1.673,1.93-2.475c1.221-1.63,2.459-3.105,3.393-4.609
			c0.945-1.498,1.777-2.885,2.508-4.111c0.385-0.606,0.711-1.188,0.965-1.757c0.275-0.558,0.525-1.068,0.754-1.527
			C443.857,50.491,444.338,49.431,444.338,49.431"/>
		
			<radialGradient id="SVGID_19_" cx="0.9692" cy="356.7852" r="2.4575" gradientTransform="matrix(13.0406 13.0406 13.0549 -13.0549 -4256.1382 4703.3311)" gradientUnits="userSpaceOnUse">
			<stop  offset="0" style="stop-color:#F7A9AD"/>
			<stop  offset="0.7773" style="stop-color:#F04E3D"/>
			<stop  offset="1" style="stop-color:#EA2B29"/>
		</radialGradient>
		<path fill="url(#SVGID_19_)" d="M426.01,64.409c0.602-3.848-0.57-7.903-3.525-10.861c-4.926-4.924-12.924-4.927-17.861,0.008
			c-4.688,4.691-4.924,12.199-0.641,17.155c-0.244-0.211-0.465-0.416-0.684-0.636l-0.096-0.094l0.178,0.212
			c-0.248-0.212-0.475-0.424-0.703-0.652c-5.52-5.522-5.52-14.493,0.01-20.021c5.531-5.528,14.5-5.534,20.021-0.011
			c3.83,3.828,4.998,9.313,3.525,14.154l0.01-0.134C426.182,63.817,426.104,64.114,426.01,64.409z"/>
		
			<linearGradient id="SVGID_20_" gradientUnits="userSpaceOnUse" x1="-9.9375" y1="361.2891" x2="-7.479" y2="361.2891" gradientTransform="matrix(-2.506009e-005 7.2511 7.2511 2.506009e-005 -2206.2852 124.4923)">
			<stop  offset="0" style="stop-color:#B7E3EF"/>
			<stop  offset="0.2393" style="stop-color:#B7E3EF"/>
			<stop  offset="1" style="stop-color:#E9F6F7"/>
		</linearGradient>
		<path fill="url(#SVGID_20_)" d="M420.156,68.271c-3.705,3.709-9.709,3.709-13.416,0.005c-2.639-2.639-3.391-6.444-2.264-9.758
			c0.453-1.333,1.209-2.589,2.277-3.651c3.699-3.707,9.705-3.709,13.406-0.009c2.42,2.417,3.258,5.815,2.518,8.921
			C422.283,65.422,421.441,66.986,420.156,68.271z"/>
		
			<linearGradient id="SVGID_21_" gradientUnits="userSpaceOnUse" x1="0.3779" y1="365.1777" x2="2.8374" y2="365.1777" gradientTransform="matrix(5.1697 5.1697 5.1697 -5.1697 -1483.9698 1943.0602)">
			<stop  offset="0" style="stop-color:#E9F6F7"/>
			<stop  offset="0.7607" style="stop-color:#B7E3EF"/>
			<stop  offset="1" style="stop-color:#B7E3EF"/>
		</linearGradient>
		<path fill="url(#SVGID_21_)" d="M420.156,68.271c-3.705,3.709-9.709,3.709-13.416,0.005c-2.639-2.639-3.391-6.444-2.264-9.758
			c2.441-1.434,6.805-2.87,11.1,1.431c2.201,2.203,4.658,3.39,7.102,3.828C422.283,65.422,421.441,66.986,420.156,68.271z"/>
		
			<linearGradient id="SVGID_22_" gradientUnits="userSpaceOnUse" x1="0.312" y1="370.3691" x2="2.7697" y2="370.3691" gradientTransform="matrix(3.9928 3.9928 3.9928 -3.9928 -1066.6178 1528.6948)">
			<stop  offset="0" style="stop-color:#561514"/>
			<stop  offset="1" style="stop-color:#EA2B29"/>
		</linearGradient>
		<path fill="url(#SVGID_22_)" d="M416.363,51.144c0.813,0.81,0.813,2.128,0,2.944c-0.816,0.813-2.131,0.81-2.943,0
			c-0.816-0.815-0.816-2.131,0-2.944C414.232,50.331,415.547,50.331,416.363,51.144z"/>
		
			<linearGradient id="SVGID_23_" gradientUnits="userSpaceOnUse" x1="-5.4482" y1="341.6211" x2="-2.9885" y2="341.6211" gradientTransform="matrix(2.390021e-005 6.6714 -6.6714 2.390021e-005 2672.2749 149.9368)">
			<stop  offset="0" style="stop-color:#0A0A0A"/>
			<stop  offset="0.9613" style="stop-color:#6A615F"/>
			<stop  offset="1" style="stop-color:#6D6562"/>
		</linearGradient>
		<path fill="url(#SVGID_23_)" d="M409.469,112.194c-5.098,6.599-13.33,13.211-26.584,17.917c0,0,3.264-11.911,1.986-19.185
			c-2.369,0.936-4.496,1.687-6.32,2.282l-0.883,0.501c4.813,5.386-0.77,24.463-0.77,24.463
			C395.357,131.303,404.725,121.136,409.469,112.194z"/>
		
			<linearGradient id="SVGID_24_" gradientUnits="userSpaceOnUse" x1="-5.4468" y1="341.1445" x2="-2.9869" y2="341.1445" gradientTransform="matrix(-3.487733e-005 6.6735 -6.6735 -3.487733e-005 2675.2134 149.953)">
			<stop  offset="0" style="stop-color:#0A0A0A"/>
			<stop  offset="0.9613" style="stop-color:#6A615F"/>
			<stop  offset="1" style="stop-color:#6D6562"/>
		</linearGradient>
		<path fill="url(#SVGID_24_)" d="M386.555,126.079c0,0,3.281-11.227,1.441-16.442c-1.08,0.462-2.125,0.889-3.129,1.283
			c1.283,7.277-1.982,19.19-1.982,19.19c13.254-4.708,21.484-11.32,26.584-17.919c4.063-7.66,4.727-14.42,4.797-17.46l-0.23,0.166
			C413.691,100.665,410.545,117.153,386.555,126.079z"/>
		
			<linearGradient id="SVGID_25_" gradientUnits="userSpaceOnUse" x1="-2.4683" y1="337.6201" x2="-0.0074" y2="337.6201" gradientTransform="matrix(-4.0914 -4.0914 -4.0914 4.0914 1775.1342 -1273.6868)">
			<stop  offset="0" style="stop-color:#0A0A0A"/>
			<stop  offset="0.9613" style="stop-color:#6A615F"/>
			<stop  offset="1" style="stop-color:#6D6562"/>
		</linearGradient>
		<path fill="url(#SVGID_25_)" d="M386.555,126.079c0,0,3.281-11.227,1.441-16.442c-1.08,0.462-2.125,0.889-3.129,1.283
			c1.283,7.277-1.982,19.19-1.982,19.19c13.254-4.708,21.484-11.32,26.584-17.919c4.063-7.66,4.727-14.42,4.797-17.46l-0.23,0.166
			C413.691,100.665,410.545,117.153,386.555,126.079z"/>
		
			<linearGradient id="SVGID_26_" gradientUnits="userSpaceOnUse" x1="-5.4458" y1="340.9922" x2="-2.9859" y2="340.9922" gradientTransform="matrix(0 6.6738 -6.6738 0 2676.0015 149.9424)">
			<stop  offset="0" style="stop-color:#0A0A0A"/>
			<stop  offset="0.9613" style="stop-color:#6A615F"/>
			<stop  offset="1" style="stop-color:#6D6562"/>
		</linearGradient>
		<path fill="url(#SVGID_26_)" d="M386.555,126.079c23.99-8.928,27.135-25.415,27.48-31.182c-9.746,6.954-18.793,11.64-26.039,14.74
			C389.836,114.852,386.555,126.079,386.555,126.079z"/>
		
			<linearGradient id="SVGID_27_" gradientUnits="userSpaceOnUse" x1="-2.4683" y1="337.3555" x2="-0.0081" y2="337.3555" gradientTransform="matrix(-4.0913 -4.0913 -4.0913 4.0913 1775.8464 -1274.395)">
			<stop  offset="0" style="stop-color:#0A0A0A"/>
			<stop  offset="0.9613" style="stop-color:#6A615F"/>
			<stop  offset="1" style="stop-color:#6D6562"/>
		</linearGradient>
		<path fill="url(#SVGID_27_)" d="M386.555,126.079c23.99-8.928,27.135-25.415,27.48-31.182c-9.746,6.954-18.793,11.64-26.039,14.74
			C389.836,114.852,386.555,126.079,386.555,126.079z"/>
		
			<linearGradient id="SVGID_28_" gradientUnits="userSpaceOnUse" x1="0.3862" y1="356.9297" x2="2.8471" y2="356.9297" gradientTransform="matrix(9.4142 9.4142 9.4142 -9.4142 -2991.7632 3438.8582)">
			<stop  offset="0" style="stop-color:#0A0A0A"/>
			<stop  offset="0.9613" style="stop-color:#6A615F"/>
			<stop  offset="1" style="stop-color:#6D6562"/>
		</linearGradient>
		<path fill="url(#SVGID_28_)" d="M386.555,126.079c23.99-8.928,27.135-25.415,27.48-31.182c-9.746,6.954-18.793,11.64-26.039,14.74
			C389.836,114.852,386.555,126.079,386.555,126.079z"/>
		
			<linearGradient id="SVGID_29_" gradientUnits="userSpaceOnUse" x1="-5.5601" y1="341.7324" x2="-3.1005" y2="341.7324" gradientTransform="matrix(-6.6716 0 0 6.6716 324.3934 -2198.0083)">
			<stop  offset="0" style="stop-color:#0A0A0A"/>
			<stop  offset="0.9613" style="stop-color:#6A615F"/>
			<stop  offset="1" style="stop-color:#6D6562"/>
		</linearGradient>
		<path fill="url(#SVGID_29_)" d="M344.969,92.196c4.707-13.254,11.32-21.483,17.918-26.587
			c-8.947,4.742-19.105,14.115-25.977,32.57c0,0,19.08-5.576,24.461-0.765l0.51-0.894c0.592-1.824,1.342-3.945,2.279-6.309
			C356.887,88.932,344.969,92.196,344.969,92.196z"/>
		
			<linearGradient id="SVGID_30_" gradientUnits="userSpaceOnUse" x1="-5.5581" y1="341.2549" x2="-3.0979" y2="341.2549" gradientTransform="matrix(-6.6734 0 0 6.6734 324.3994 -2200.8347)">
			<stop  offset="0" style="stop-color:#0A0A0A"/>
			<stop  offset="0.9613" style="stop-color:#6A615F"/>
			<stop  offset="1" style="stop-color:#6D6562"/>
		</linearGradient>
		<path fill="url(#SVGID_30_)" d="M344.969,92.196c0,0,11.918-3.265,19.191-1.988c0.395-0.995,0.826-2.042,1.287-3.124
			c-5.211-1.84-16.445,1.441-16.445,1.441c8.936-24.013,25.445-27.142,31.195-27.482l0.166-0.229
			c-3.029,0.068-9.803,0.726-17.477,4.796C356.289,70.713,349.676,78.942,344.969,92.196z"/>
		
			<linearGradient id="SVGID_31_" gradientUnits="userSpaceOnUse" x1="-1.4102" y1="360.7012" x2="1.0507" y2="360.7012" gradientTransform="matrix(5.6433 5.6433 5.6433 -5.6433 -1670.4979 2114.4141)">
			<stop  offset="0" style="stop-color:#7D736F"/>
			<stop  offset="1" style="stop-color:#6D6562"/>
		</linearGradient>
		<path fill="url(#SVGID_31_)" d="M344.969,92.196c0,0,11.918-3.265,19.191-1.988c0.395-0.995,0.826-2.042,1.287-3.124
			c-5.211-1.84-16.445,1.441-16.445,1.441c8.936-24.013,25.445-27.142,31.195-27.482l0.166-0.229
			c-3.029,0.068-9.803,0.726-17.477,4.796C356.289,70.713,349.676,78.942,344.969,92.196z"/>
		
			<linearGradient id="SVGID_32_" gradientUnits="userSpaceOnUse" x1="-5.5654" y1="341.1016" x2="-3.1055" y2="341.1016" gradientTransform="matrix(-6.6732 2.221914e-005 2.221914e-005 6.6732 324.4285 -2201.4624)">
			<stop  offset="0" style="stop-color:#0A0A0A"/>
			<stop  offset="0.9613" style="stop-color:#6A615F"/>
			<stop  offset="1" style="stop-color:#6D6562"/>
		</linearGradient>
		<path fill="url(#SVGID_32_)" d="M349.002,88.526c0,0,11.24-3.285,16.445-1.441c3.104-7.249,7.793-16.292,14.75-26.043
			C374.447,61.381,357.939,64.514,349.002,88.526z"/>
		
			<linearGradient id="SVGID_33_" gradientUnits="userSpaceOnUse" x1="-1.4102" y1="360.8945" x2="1.0494" y2="360.8945" gradientTransform="matrix(5.643 5.643 5.643 -5.643 -1669.6521 2113.5657)">
			<stop  offset="0" style="stop-color:#7D736F"/>
			<stop  offset="1" style="stop-color:#6D6562"/>
		</linearGradient>
		<path fill="url(#SVGID_33_)" d="M349.002,88.526c0,0,11.24-3.285,16.445-1.441c3.104-7.249,7.793-16.292,14.75-26.043
			C374.447,61.381,357.939,64.514,349.002,88.526z"/>
		
			<linearGradient id="SVGID_34_" gradientUnits="userSpaceOnUse" x1="0.3447" y1="357.3809" x2="2.8045" y2="357.3809" gradientTransform="matrix(8.7503 8.7503 8.7503 -8.7503 -2758.0342 3206.5076)">
			<stop  offset="0" style="stop-color:#0A0A0A"/>
			<stop  offset="0.9613" style="stop-color:#6A615F"/>
			<stop  offset="1" style="stop-color:#6D6562"/>
		</linearGradient>
		<path fill="url(#SVGID_34_)" d="M349.002,88.526c0,0,11.24-3.285,16.445-1.441c3.104-7.249,7.793-16.292,14.75-26.043
			C374.447,61.381,357.939,64.514,349.002,88.526z"/>
		
			<linearGradient id="SVGID_35_" gradientUnits="userSpaceOnUse" x1="0.4893" y1="362.79" x2="2.9492" y2="362.79" gradientTransform="matrix(8.0289 8.0289 8.0289 -8.0289 -2476.4043 2928.5549)">
			<stop  offset="0" style="stop-color:#0A0A0A"/>
			<stop  offset="0.9613" style="stop-color:#6A615F"/>
			<stop  offset="1" style="stop-color:#6D6562"/>
		</linearGradient>
		<path fill="url(#SVGID_35_)" d="M457.938,15.592c0,0,1.352,15.422-8.779,34.771c0.596,1.907,1.035,3.847,1.32,5.808
			c12.781-22.957,10.594-42.163,10.594-42.163s-19.154-2.176-42.066,10.559c0.943,0.142,1.887,0.317,2.826,0.53
			C441.805,14.186,457.938,15.592,457.938,15.592z"/>
		
			<linearGradient id="SVGID_36_" gradientUnits="userSpaceOnUse" x1="0.4893" y1="362.748" x2="2.9491" y2="362.748" gradientTransform="matrix(8.0286 8.0286 8.0286 -8.0286 -2476.5027 2928.6536)">
			<stop  offset="0" style="stop-color:#0A0A0A"/>
			<stop  offset="0.9613" style="stop-color:#6A615F"/>
			<stop  offset="1" style="stop-color:#6D6562"/>
		</linearGradient>
		<path fill="url(#SVGID_36_)" d="M457.938,15.592c0,0-16.133-1.407-36.105,9.505c1.822,0.419,3.625,0.971,5.381,1.665
			c16.102-7.404,28.43-6.333,28.43-6.333s1.117,12.752-6.705,29.25c0.074,0.228,0.15,0.454,0.219,0.685
			C459.287,31.015,457.938,15.592,457.938,15.592z"/>
		
			<linearGradient id="SVGID_37_" gradientUnits="userSpaceOnUse" x1="6.5576" y1="351.0156" x2="9.0171" y2="351.0156" gradientTransform="matrix(10.6807 -10.6807 -10.6807 -10.6807 4066.5151 3904.9143)">
			<stop  offset="0" style="stop-color:#0A0A0A"/>
			<stop  offset="0.9613" style="stop-color:#6A615F"/>
			<stop  offset="1" style="stop-color:#6D6562"/>
		</linearGradient>
		<path fill="url(#SVGID_37_)" d="M457.938,15.592c0,0-16.133-1.407-36.105,9.505c1.822,0.419,3.625,0.971,5.381,1.665
			c16.102-7.404,28.43-6.333,28.43-6.333s1.117,12.752-6.705,29.25c0.074,0.228,0.15,0.454,0.219,0.685
			C459.287,31.015,457.938,15.592,457.938,15.592z"/>
		
			<linearGradient id="SVGID_38_" gradientUnits="userSpaceOnUse" x1="0.4897" y1="362.6641" x2="2.9489" y2="362.6641" gradientTransform="matrix(8.0281 8.0281 8.0281 -8.0281 -2476.824 2928.9731)">
			<stop  offset="0" style="stop-color:#0A0A0A"/>
			<stop  offset="0.9613" style="stop-color:#6A615F"/>
			<stop  offset="1" style="stop-color:#6D6562"/>
		</linearGradient>
		<path fill="url(#SVGID_38_)" d="M436.752,27.632c1.807-0.53,3.41-0.877,4.736-1.104c1.324-0.257,2.387-0.331,3.1-0.394
			c0.719-0.054,1.1-0.054,1.1-0.054s-0.375,0.078-1.063,0.275c-0.686,0.195-1.678,0.516-2.926,0.965
			c-1.248,0.44-2.73,1.058-4.408,1.794c-0.928,0.416-1.908,0.886-2.936,1.407c1.959,1.319,3.82,2.843,5.553,4.575
			c4.246,4.245,7.252,9.253,9.029,14.583c7.822-16.498,6.705-29.25,6.705-29.25s-12.328-1.07-28.424,6.333
			c1.697,0.668,3.355,1.467,4.961,2.396C433.799,28.535,435.338,28.028,436.752,27.632z"/>
		
			<linearGradient id="SVGID_39_" gradientUnits="userSpaceOnUse" x1="6.5591" y1="350.9316" x2="9.0177" y2="350.9316" gradientTransform="matrix(10.6805 -10.6805 -10.6805 -10.6805 4067.0784 3905.4858)">
			<stop  offset="0" style="stop-color:#0A0A0A"/>
			<stop  offset="0.9613" style="stop-color:#6A615F"/>
			<stop  offset="1" style="stop-color:#6D6562"/>
		</linearGradient>
		<path fill="url(#SVGID_39_)" d="M436.752,27.632c1.807-0.53,3.41-0.877,4.736-1.104c1.324-0.257,2.387-0.331,3.1-0.394
			c0.719-0.054,1.1-0.054,1.1-0.054s-0.375,0.078-1.063,0.275c-0.686,0.195-1.678,0.516-2.926,0.965
			c-1.248,0.44-2.73,1.058-4.408,1.794c-0.928,0.416-1.908,0.886-2.936,1.407c1.959,1.319,3.82,2.843,5.553,4.575
			c4.246,4.245,7.252,9.253,9.029,14.583c7.822-16.498,6.705-29.25,6.705-29.25s-12.328-1.07-28.424,6.333
			c1.697,0.668,3.355,1.467,4.961,2.396C433.799,28.535,435.338,28.028,436.752,27.632z"/>
		
			<linearGradient id="SVGID_40_" gradientUnits="userSpaceOnUse" x1="0.231" y1="360.2891" x2="2.6916" y2="360.2891" gradientTransform="matrix(10.0803 10.0803 10.0803 -10.0803 -3201.6702 3644.7158)">
			<stop  offset="0" style="stop-color:#0A0A0A"/>
			<stop  offset="0.9613" style="stop-color:#6A615F"/>
			<stop  offset="1" style="stop-color:#6D6562"/>
		</linearGradient>
		<path fill="url(#SVGID_40_)" d="M436.752,27.632c1.807-0.53,3.41-0.877,4.736-1.104c1.324-0.257,2.387-0.331,3.1-0.394
			c0.719-0.054,1.1-0.054,1.1-0.054s-0.375,0.078-1.063,0.275c-0.686,0.195-1.678,0.516-2.926,0.965
			c-1.248,0.44-2.73,1.058-4.408,1.794c-0.928,0.416-1.908,0.886-2.936,1.407c1.959,1.319,3.82,2.843,5.553,4.575
			c4.246,4.245,7.252,9.253,9.029,14.583c7.822-16.498,6.705-29.25,6.705-29.25s-12.328-1.07-28.424,6.333
			c1.697,0.668,3.355,1.467,4.961,2.396C433.799,28.535,435.338,28.028,436.752,27.632z"/>
		
			<linearGradient id="SVGID_41_" gradientUnits="userSpaceOnUse" x1="0.4893" y1="362.4463" x2="2.9477" y2="362.4463" gradientTransform="matrix(8.0278 8.0278 8.0278 -8.0278 -2477.9021 2930.0562)">
			<stop  offset="0" style="stop-color:#0A0A0A"/>
			<stop  offset="0.9613" style="stop-color:#6A615F"/>
			<stop  offset="1" style="stop-color:#6D6562"/>
		</linearGradient>
		<path fill="url(#SVGID_41_)" d="M441.699,27.322c1.248-0.452,2.234-0.772,2.926-0.968c0.688-0.197,1.063-0.275,1.063-0.275
			s-0.381,0-1.1,0.054c-0.713,0.066-1.775,0.139-3.1,0.394c-1.326,0.227-2.93,0.574-4.736,1.104
			c-1.414,0.396-2.953,0.903-4.572,1.526c0.736,0.427,1.463,0.88,2.176,1.362c1.027-0.518,2.008-0.991,2.936-1.404
			C438.967,28.377,440.451,27.759,441.699,27.322z"/>
		
			<linearGradient id="SVGID_42_" gradientUnits="userSpaceOnUse" x1="6.5532" y1="351.2021" x2="9.0145" y2="351.2021" gradientTransform="matrix(10.6807 -10.6807 -10.6807 -10.6807 4065.1558 3903.5664)">
			<stop  offset="0" style="stop-color:#0A0A0A"/>
			<stop  offset="0.9613" style="stop-color:#6A615F"/>
			<stop  offset="1" style="stop-color:#6D6562"/>
		</linearGradient>
		<path fill="url(#SVGID_42_)" d="M441.699,27.322c1.248-0.452,2.234-0.772,2.926-0.968c0.688-0.197,1.063-0.275,1.063-0.275
			s-0.381,0-1.1,0.054c-0.713,0.066-1.775,0.139-3.1,0.394c-1.326,0.227-2.93,0.574-4.736,1.104
			c-1.414,0.396-2.953,0.903-4.572,1.526c0.736,0.427,1.463,0.88,2.176,1.362c1.027-0.518,2.008-0.991,2.936-1.404
			C438.967,28.377,440.451,27.759,441.699,27.322z"/>
		
			<linearGradient id="SVGID_43_" gradientUnits="userSpaceOnUse" x1="0.2319" y1="360.1152" x2="2.689" y2="360.1152" gradientTransform="matrix(10.0798 10.0798 10.0798 -10.0798 -3202.7263 3645.7773)">
			<stop  offset="0" style="stop-color:#0A0A0A"/>
			<stop  offset="0.9613" style="stop-color:#6A615F"/>
			<stop  offset="1" style="stop-color:#6D6562"/>
		</linearGradient>
		<path fill="url(#SVGID_43_)" d="M441.699,27.322c1.248-0.452,2.234-0.772,2.926-0.968c0.688-0.197,1.063-0.275,1.063-0.275
			s-0.381,0-1.1,0.054c-0.713,0.066-1.775,0.139-3.1,0.394c-1.326,0.227-2.93,0.574-4.736,1.104
			c-1.414,0.396-2.953,0.903-4.572,1.526c0.736,0.427,1.463,0.88,2.176,1.362c1.027-0.518,2.008-0.991,2.936-1.404
			C438.967,28.377,440.451,27.759,441.699,27.322z"/>
		
			<radialGradient id="SVGID_44_" cx="0.9702" cy="356.7891" r="2.4536" gradientTransform="matrix(13.0416 13.0416 13.056 -13.056 -4256.4966 4703.6851)" gradientUnits="userSpaceOnUse">
			<stop  offset="0" style="stop-color:#7D736F"/>
			<stop  offset="1" style="stop-color:#6D6562"/>
		</radialGradient>
		<path fill="url(#SVGID_44_)" d="M441.699,27.322c1.248-0.452,2.234-0.772,2.926-0.968c0.688-0.197,1.063-0.275,1.063-0.275
			s-0.381,0-1.1,0.054c-0.713,0.066-1.775,0.139-3.1,0.394c-1.326,0.227-2.93,0.574-4.736,1.104
			c-1.414,0.396-2.953,0.903-4.572,1.526c0.736,0.427,1.463,0.88,2.176,1.362c1.027-0.518,2.008-0.991,2.936-1.404
			C438.967,28.377,440.451,27.759,441.699,27.322z"/>
		
			<linearGradient id="SVGID_45_" gradientUnits="userSpaceOnUse" x1="10.5928" y1="350.9199" x2="13.0518" y2="350.9199" gradientTransform="matrix(5.3952 -5.3952 -5.3952 -5.3952 2211.8176 2050.0354)">
			<stop  offset="0" style="stop-color:#561514"/>
			<stop  offset="1" style="stop-color:#EA2B29"/>
		</linearGradient>
		<path fill="url(#SVGID_45_)" d="M377.268,107.046c-1.254,0.878-2.508,1.733-3.742,2.546c0.77,1.051,1.48,2.129,2.143,3.233
			c0.387,0.648,0.76,1.308,1.105,1.968c0.963,1.838,1.785,3.732,2.459,5.664c0.016,0.047,0.033,0.093,0.051,0.141
			c0.031-0.076,0.068-0.15,0.102-0.22c0.113-0.25,0.23-0.5,0.338-0.745c0.713-1.586,1.344-3.132,1.902-4.644
			c-0.344-0.824-0.711-1.643-1.104-2.447c-0.17-0.332-0.332-0.664-0.506-0.993c-0.762-1.446-1.617-2.86-2.559-4.23
			C377.396,107.225,377.328,107.137,377.268,107.046 M360.85,93.125l-0.438,0.161c-1.648,0.605-3.344,1.297-5.08,2.079
			c0.012,0.006,0.025,0.008,0.037,0.014c1.287,0.521,2.555,1.109,3.797,1.772c0.541,0.278,1.07,0.58,1.6,0.889l1.07,0.678
			l1.32,0.834c0.264,0.178,0.518,0.354,0.768,0.535c0.74,0.532,1.469,1.086,2.178,1.667c0.25,0.205,0.498,0.411,0.744,0.617
			c0.832-1.248,1.699-2.517,2.59-3.788c-0.742-0.608-1.494-1.188-2.268-1.739c-0.254-0.183-0.51-0.363-0.764-0.538l-0.221-0.137
			l-2.178-1.373c-0.426-0.251-0.854-0.495-1.289-0.73c-0.102-0.054-0.205-0.108-0.305-0.162
			C361.893,93.632,361.377,93.371,360.85,93.125"/>
		
			<linearGradient id="SVGID_46_" gradientUnits="userSpaceOnUse" x1="0.2026" y1="356.2617" x2="2.6628" y2="356.2617" gradientTransform="matrix(9.6282 9.6282 9.6282 -9.6282 -3069.9768 3514.0374)">
			<stop  offset="0" style="stop-color:#561514"/>
			<stop  offset="1" style="stop-color:#EA2B29"/>
		</linearGradient>
		<path fill="url(#SVGID_46_)" d="M385.234,101.972c-0.484,0.301-0.986,0.592-1.5,0.881c-1.338,0.739-2.68,1.503-3.908,2.381
			c-0.85,0.606-1.705,1.213-2.557,1.809c0.064,0.093,0.129,0.182,0.189,0.275c0.945,1.37,1.795,2.781,2.557,4.228
			c0.174,0.332,0.342,0.664,0.506,0.996c0.398,0.805,0.766,1.621,1.105,2.444c0.264-0.69,0.508-1.373,0.742-2.051
			c0.139-0.404,0.273-0.81,0.402-1.206c0.713-2.192,1.281-4.28,1.74-6.238c0.041-0.19,0.084-0.376,0.127-0.56
			c0.08-0.372,0.164-0.738,0.238-1.097C385.008,103.202,385.125,102.579,385.234,101.972 M375.346,89.438
			c-0.844,0.123-1.73,0.269-2.656,0.44c-1.518,0.283-3.137,0.636-4.846,1.078c-0.799,0.207-1.615,0.428-2.447,0.674
			c-0.662,0.193-1.336,0.405-2.021,0.626c-0.826,0.269-1.668,0.556-2.52,0.87c0.521,0.247,1.041,0.507,1.557,0.781
			c0.1,0.054,0.203,0.108,0.305,0.162c0.436,0.235,0.863,0.476,1.293,0.727l2.174,1.373l0.221,0.14
			c0.258,0.175,0.514,0.352,0.77,0.538c0.77,0.548,1.521,1.127,2.262,1.739c0.514-0.73,1.031-1.459,1.553-2.186
			c0.881-1.229,1.641-2.575,2.383-3.911C373.98,91.395,374.609,90.339,375.346,89.438"/>
		
			<linearGradient id="SVGID_47_" gradientUnits="userSpaceOnUse" x1="0.2319" y1="355.5664" x2="2.6914" y2="355.5664" gradientTransform="matrix(10.0808 10.0808 10.0808 -10.0808 -3214.9734 3658.0234)">
			<stop  offset="0" style="stop-color:#128176"/>
			<stop  offset="1" style="stop-color:#208378"/>
		</linearGradient>
		<path fill="url(#SVGID_47_)" d="M377.379,87.515c-0.541,0.402-1.061,0.85-1.535,1.354c-0.174,0.182-0.338,0.374-0.498,0.569
			c0.498-0.074,0.988-0.135,1.459-0.195c0.025-0.077,0.047-0.155,0.072-0.24C377.018,88.613,377.174,88.107,377.379,87.515
			 M390.494,83.346c-0.453,0-1.01,0.022-1.654,0.063c-1.715,0.128-3.963,0.516-6.268,1.375c-1.16,0.424-2.346,0.955-3.492,1.617
			c-0.221,0.125-0.436,0.256-0.652,0.389c-0.574,0.971-1.023,1.75-1.35,2.293c-0.021,0.045-0.047,0.09-0.068,0.133
			c2.826-0.339,5.107-0.424,6.684-0.424c1.592,0,2.465,0.085,2.465,0.085s0.518,5.103-0.924,13.095
			c0.775-0.481,1.498-1.001,2.121-1.597c1.016-0.962,1.807-2.077,2.467-3.236c0.025-0.045,0.053-0.097,0.078-0.147
			c-0.096,0.033-0.186,0.064-0.277,0.09c-0.527,0.144-0.811,0.226-0.811,0.226s0.268-0.119,0.775-0.34
			c0.137-0.065,0.287-0.141,0.455-0.22c0.559-1.025,1.018-2.069,1.398-3.094c0.859-2.308,1.244-4.554,1.373-6.27
			c0.057-0.866,0.074-1.575,0.057-2.086c-0.014-0.506-0.043-0.798-0.043-0.798l-1.104-1.104c0,0-0.295-0.03-0.801-0.044
			C390.795,83.349,390.652,83.346,390.494,83.346"/>
		
			<radialGradient id="SVGID_48_" cx="0.9727" cy="356.7686" r="2.446" gradientTransform="matrix(13.0422 13.0422 13.0566 -13.0566 -4256.7134 4703.9067)" gradientUnits="userSpaceOnUse">
			<stop  offset="0" style="stop-color:#208F84"/>
			<stop  offset="0.7773" style="stop-color:#1F877A"/>
			<stop  offset="1" style="stop-color:#208378"/>
		</radialGradient>
		<path fill="url(#SVGID_48_)" d="M378.428,86.791c-0.359,0.227-0.707,0.464-1.049,0.725c-0.205,0.592-0.361,1.098-0.502,1.487
			c-0.025,0.085-0.047,0.164-0.072,0.24c0.066-0.009,0.135-0.017,0.205-0.025c0.021-0.042,0.047-0.087,0.068-0.133
			C377.404,88.541,377.854,87.761,378.428,86.791"/>
		
			<linearGradient id="SVGID_49_" gradientUnits="userSpaceOnUse" x1="6.6675" y1="350.8848" x2="9.0841" y2="350.8848" gradientTransform="matrix(10.5245 -10.5245 -10.5245 -10.5245 4012.3215 3849.5864)">
			<stop  offset="0" style="stop-color:#128176"/>
			<stop  offset="1" style="stop-color:#208378"/>
		</linearGradient>
		<path fill="url(#SVGID_49_)" d="M375.178,104.305c0.232,0.277,0.459,0.563,0.684,0.848c0.488,0.62,0.957,1.251,1.406,1.893
			c0-0.002,0.002-0.002,0.002-0.002c-0.449-0.642-0.918-1.273-1.408-1.894c-0.223-0.281-0.447-0.564-0.68-0.842
			C375.182,104.305,375.182,104.305,375.178,104.305 M369.436,98.583L369.436,98.583c0.725,0.602,1.443,1.229,2.141,1.885
			c0-0.003,0-0.003,0-0.003C370.879,99.808,370.16,99.186,369.436,98.583"/>
		
			<linearGradient id="SVGID_50_" gradientUnits="userSpaceOnUse" x1="0.2285" y1="354.3359" x2="2.6943" y2="354.3359" gradientTransform="matrix(10.0808 10.0808 10.0808 -10.0808 -3214.9734 3658.0234)">
			<stop  offset="0" style="stop-color:#128176"/>
			<stop  offset="1" style="stop-color:#208378"/>
		</linearGradient>
		<path fill="url(#SVGID_50_)" d="M371.576,100.466c0,0,0,0,0,0.003c0.314,0.293,0.619,0.592,0.922,0.895
			c0.949,0.949,1.84,1.931,2.68,2.941c0.004,0,0.004,0,0.004,0.002c-0.838-1.01-1.734-1.995-2.684-2.944
			C372.195,101.055,371.885,100.76,371.576,100.466"/>
		
			<linearGradient id="SVGID_51_" gradientUnits="userSpaceOnUse" x1="2.646" y1="350.7432" x2="5.1113" y2="350.7432" gradientTransform="matrix(15.6011 -15.6011 -15.6011 -15.6011 5765.896 5660.1567)">
			<stop  offset="0" style="stop-color:#218C78"/>
			<stop  offset="0.4784" style="stop-color:#209178"/>
			<stop  offset="1" style="stop-color:#1E9679"/>
		</linearGradient>
		<path fill="url(#SVGID_51_)" d="M372.662,108.457c-0.006,0.006-0.012,0.014-0.016,0.02c-0.195,0.436-0.607,1.315-1.266,2.486
			c0.361-0.227,0.721-0.456,1.094-0.686c0.346-0.227,0.695-0.458,1.051-0.685C373.246,109.208,372.955,108.83,372.662,108.457"/>
		
			<linearGradient id="SVGID_52_" gradientUnits="userSpaceOnUse" x1="4.271" y1="350.7813" x2="6.7285" y2="350.7813" gradientTransform="matrix(11.7869 -11.7869 -11.7869 -11.7869 4439.6968 4308.8159)">
			<stop  offset="0" style="stop-color:#218C78"/>
			<stop  offset="0.4784" style="stop-color:#209178"/>
			<stop  offset="1" style="stop-color:#1E9679"/>
		</linearGradient>
		<path fill="url(#SVGID_52_)" d="M361.227,115.728c0,0-1.176,0.849-2.697,1.951l0.283,0.283L361.227,115.728 M368.406,111.304
			c0,0-2.781,2.829-7.598,6.001c0.053-0.027,0.104-0.057,0.156-0.086c0.6-0.328,1.316-0.729,2.121-1.208
			c0.811-0.479,1.744-0.992,2.723-1.597c0.709-0.437,1.465-0.899,2.258-1.38c0.066-0.101,0.133-0.203,0.199-0.299
			c-0.766,0.581-1.59,1.133-2.477,1.639L368.406,111.304 M372.646,108.477c-0.941,1.152-2.072,2.35-3.408,3.477
			c-0.105,0.189-0.207,0.37-0.316,0.552c0.021-0.009,0.037-0.018,0.053-0.03c0.775-0.489,1.582-0.992,2.406-1.514
			C372.039,109.792,372.451,108.912,372.646,108.477"/>
		
			<linearGradient id="SVGID_53_" gradientUnits="userSpaceOnUse" x1="-16.2427" y1="352.666" x2="-13.7889" y2="352.666" gradientTransform="matrix(-2.5692 2.8348 2.8348 2.5692 -671.243 -749.1919)">
			<stop  offset="0" style="stop-color:#218C78"/>
			<stop  offset="0.4784" style="stop-color:#209178"/>
			<stop  offset="1" style="stop-color:#1E9679"/>
		</linearGradient>
		<path fill="url(#SVGID_53_)" d="M369.238,111.954c-0.313,0.263-0.635,0.525-0.973,0.781c-0.066,0.097-0.133,0.198-0.199,0.299
			c0.279-0.175,0.568-0.351,0.855-0.528C369.031,112.324,369.133,112.143,369.238,111.954"/>
		
			<linearGradient id="SVGID_54_" gradientUnits="userSpaceOnUse" x1="6.0542" y1="350.9297" x2="8.514" y2="350.9297" gradientTransform="matrix(8.3008 -8.3008 -8.3008 -8.3008 3221.8928 3079.3557)">
			<stop  offset="0" style="stop-color:#1E9679"/>
			<stop  offset="0.4804" style="stop-color:#209782"/>
			<stop  offset="1" style="stop-color:#209789"/>
		</linearGradient>
		<path fill="url(#SVGID_54_)" d="M366.846,102.372c-0.305,0.462-0.605,0.923-0.9,1.376c-0.758,1.215-1.5,2.387-2.201,3.497
			c-0.686,1.129-1.338,2.188-1.938,3.171c-0.602,0.978-1.117,1.911-1.594,2.721c-0.479,0.807-0.885,1.523-1.211,2.118
			c-0.648,1.197-1.018,1.879-1.018,1.879l0.545,0.544c1.521-1.102,2.697-1.951,2.697-1.951l-2.414,2.234l0.273,0.276
			c0,0,0.627-0.339,1.723-0.933c4.816-3.172,7.598-6.001,7.598-6.001l-2.617,3.07c0.887-0.506,1.711-1.058,2.477-1.639
			c0.338-0.256,0.66-0.518,0.973-0.781c1.336-1.127,2.467-2.325,3.408-3.477c0.004-0.006,0.01-0.014,0.016-0.02
			c-0.016-0.018-0.029-0.04-0.043-0.059c-1.031-1.316-2.152-2.577-3.361-3.791C368.477,103.824,367.672,103.082,366.846,102.372"/>
		
			<linearGradient id="SVGID_55_" gradientUnits="userSpaceOnUse" x1="-4.9702" y1="351.168" x2="-2.5174" y2="351.168" gradientTransform="matrix(-14.092 14.092 14.092 14.092 -4582.7661 -4828.0684)">
			<stop  offset="0" style="stop-color:#20958A"/>
			<stop  offset="0.0408" style="stop-color:#20958A"/>
			<stop  offset="0.7607" style="stop-color:#1F8E84"/>
			<stop  offset="1" style="stop-color:#1F8E84"/>
		</linearGradient>
		<path fill="url(#SVGID_55_)" d="M390.043,96.749c-0.168,0.08-0.318,0.155-0.455,0.22c-0.508,0.221-0.775,0.34-0.775,0.34
			s0.283-0.082,0.811-0.226c0.092-0.026,0.182-0.057,0.277-0.09C389.949,96.912,389.998,96.828,390.043,96.749"/>
		
			<linearGradient id="SVGID_56_" gradientUnits="userSpaceOnUse" x1="10.5928" y1="350.8379" x2="13.0514" y2="350.8379" gradientTransform="matrix(5.3952 -5.3952 -5.3952 -5.3952 2211.8176 2050.0354)">
			<stop  offset="0" style="stop-color:#128176"/>
			<stop  offset="1" style="stop-color:#208378"/>
		</linearGradient>
		<path fill="url(#SVGID_56_)" d="M369.436,98.583c-0.891,1.271-1.758,2.54-2.59,3.788c0.826,0.71,1.631,1.453,2.412,2.235
			c1.209,1.214,2.33,2.475,3.361,3.791c0.014,0.02,0.027,0.041,0.043,0.059c0.293,0.374,0.584,0.751,0.863,1.135
			c1.234-0.813,2.488-1.667,3.742-2.546c-0.449-0.642-0.918-1.273-1.406-1.893c-0.225-0.284-0.451-0.57-0.684-0.848
			c-0.84-1.011-1.73-1.993-2.68-2.941c-0.303-0.303-0.607-0.602-0.922-0.895C370.879,99.813,370.16,99.186,369.436,98.583"/>
		
			<linearGradient id="SVGID_57_" gradientUnits="userSpaceOnUse" x1="0.2026" y1="356.6494" x2="2.6639" y2="356.6494" gradientTransform="matrix(9.6282 9.6282 9.6282 -9.6282 -3069.9768 3514.0374)">
			<stop  offset="0" style="stop-color:#128176"/>
			<stop  offset="1" style="stop-color:#208378"/>
		</linearGradient>
		<path fill="url(#SVGID_57_)" d="M383.693,88.792c-1.576,0-3.857,0.085-6.684,0.424c-0.07,0.009-0.139,0.017-0.205,0.025
			c-0.471,0.06-0.961,0.121-1.459,0.195c-0.736,0.901-1.365,1.958-1.975,3.05c-0.742,1.336-1.502,2.682-2.383,3.911
			c-0.521,0.726-1.039,1.455-1.553,2.186c0.725,0.602,1.443,1.224,2.141,1.882c0.309,0.294,0.619,0.589,0.922,0.898
			c0.949,0.949,1.846,1.934,2.684,2.944c0.232,0.278,0.457,0.561,0.68,0.842c0.49,0.62,0.959,1.251,1.408,1.894
			c0.852-0.595,1.707-1.202,2.557-1.809c1.229-0.878,2.57-1.643,3.908-2.381c0.514-0.289,1.016-0.58,1.5-0.881
			c1.441-7.992,0.924-13.095,0.924-13.095S385.285,88.792,383.693,88.792"/>
		<path fill="#036667" d="M398.701,78.809c0,0,0.029,0.295,0.045,0.799c0.018,0.512,0,1.221-0.063,2.086
			c-0.125,1.718-0.51,3.966-1.373,6.269c-0.42,1.159-0.955,2.341-1.617,3.492c-0.658,1.152-1.449,2.27-2.467,3.233
			c-1.014,0.965-2.291,1.729-3.615,2.471c-1.342,0.743-2.686,1.507-3.914,2.385c-2.457,1.763-4.941,3.491-7.35,5.039
			c-1.213,0.768-2.389,1.507-3.5,2.203c-1.125,0.685-2.188,1.34-3.17,1.94c-0.977,0.605-1.908,1.115-2.719,1.594
			c-0.805,0.476-1.521,0.884-2.117,1.208c-1.195,0.646-1.881,1.022-1.881,1.022l-1.104-1.104c0,0,0.373-0.686,1.018-1.88
			c0.328-0.597,0.736-1.31,1.207-2.123c0.48-0.807,0.996-1.741,1.598-2.716c0.605-0.981,1.252-2.045,1.938-3.171
			c0.701-1.112,1.438-2.284,2.203-3.497c1.551-2.407,3.279-4.898,5.043-7.353c0.873-1.229,1.643-2.572,2.379-3.911
			c0.746-1.329,1.514-2.607,2.475-3.616c0.963-1.019,2.078-1.811,3.238-2.466c1.148-0.664,2.332-1.197,3.488-1.622
			c2.307-0.861,4.553-1.247,6.268-1.377c0.867-0.053,1.574-0.071,2.088-0.053c0.504,0.011,0.797,0.04,0.797,0.04L398.701,78.809z"/>
		
			<linearGradient id="SVGID_58_" gradientUnits="userSpaceOnUse" x1="-8.0156" y1="351.2441" x2="-5.5556" y2="351.2441" gradientTransform="matrix(-6.8074 6.8074 6.8074 6.8074 -2051.6694 -2251.0315)">
			<stop  offset="0" style="stop-color:#FCDEDF"/>
			<stop  offset="0.0408" style="stop-color:#FBDBDB"/>
			<stop  offset="0.7607" style="stop-color:#01A89C"/>
			<stop  offset="1" style="stop-color:#01A89C"/>
		</linearGradient>
		<path fill="url(#SVGID_58_)" d="M369.242,106.23c0,0,0.133-0.052,0.387-0.146c0.248-0.107,0.604-0.275,1.066-0.462
			c0.447-0.212,0.994-0.476,1.621-0.772c0.607-0.329,1.299-0.699,2.043-1.096c0.752-0.399,1.52-0.908,2.361-1.389
			c0.846-0.465,1.656-1.091,2.545-1.659c0.441-0.293,0.881-0.593,1.334-0.893c0.428-0.326,0.861-0.663,1.301-0.997
			c0.443-0.335,0.883-0.669,1.33-1.006c0.451-0.333,0.898-0.67,1.309-1.054c0.848-0.727,1.697-1.457,2.535-2.174l0.605-0.527
			l0.578-0.578c0.389-0.384,0.771-0.764,1.146-1.135c0.373-0.377,0.744-0.742,1.104-1.098c0.342-0.37,0.643-0.754,0.955-1.115
			c0.313-0.368,0.613-0.724,0.9-1.066c0.291-0.346,0.602-0.658,0.826-1.014c0.48-0.69,0.939-1.313,1.35-1.868
			c0.209-0.27,0.389-0.539,0.529-0.8c0.154-0.258,0.293-0.492,0.42-0.705c0.51-0.852,0.82-1.33,0.82-1.33s-0.215,0.531-0.615,1.452
			c-0.104,0.229-0.213,0.487-0.336,0.762c-0.115,0.286-0.266,0.577-0.441,0.875c-0.338,0.61-0.721,1.297-1.16,2.041
			c-0.432,0.745-1.025,1.464-1.604,2.265c-0.293,0.395-0.588,0.813-0.912,1.212c-0.346,0.375-0.695,0.759-1.057,1.147
			c-0.355,0.39-0.725,0.779-1.1,1.178l-0.555,0.604c-0.232,0.22-0.422,0.381-0.639,0.571c-0.844,0.74-1.693,1.49-2.545,2.243
			c-0.424,0.381-0.885,0.718-1.344,1.049c-0.457,0.34-0.914,0.675-1.365,1.009c-0.457,0.327-0.904,0.653-1.35,0.974
			c-0.469,0.289-0.936,0.577-1.393,0.856c-0.918,0.557-1.783,1.123-2.68,1.548c-0.887,0.443-1.703,0.889-2.498,1.226
			c-0.797,0.337-1.527,0.648-2.186,0.89c-0.67,0.228-1.256,0.427-1.736,0.589c-0.49,0.145-0.881,0.234-1.143,0.308
			C369.383,106.203,369.242,106.23,369.242,106.23z"/>
	</g>
</g>
</svg>
