<?xml version="1.0" encoding="utf-8"?>
<!-- Generator: Adobe Illustrator 16.0.0, SVG Export Plug-In . SVG Version: 6.00 Build 0)  -->
<!DOCTYPE svg PUBLIC "-//W3C//DTD SVG 1.1//EN" "http://www.w3.org/Graphics/SVG/1.1/DTD/svg11.dtd">
<svg version="1.1" id="Layer_1" xmlns="http://www.w3.org/2000/svg" xmlns:xlink="http://www.w3.org/1999/xlink" x="0px" y="0px"
	 width="600px" height="350px" viewBox="0 0 600 350" enable-background="new 0 0 600 350" xml:space="preserve">
<g>
	<g>
		<rect x="275.729" y="150.624" fill="#676767" width="9.995" height="12.019"/>
		<rect x="293.457" y="150.624" fill="#676767" width="9.993" height="12.019"/>
		<g>
			<path fill="#E3E3E3" d="M303.313,135.921c1.116-2.146,1.759-4.574,1.759-7.156c0-8.558-6.935-15.501-15.492-15.501
				c-0.474,0-0.937,0.03-1.395,0.077l0.515-0.425V85.511l-1.914-1.362l1.127-0.8l-2.069-1.476l1.495-1.062l-2.158-1.22l2.158-1.214
				l-1.495-1.073l2.069-1.471l-1.127-0.803l1.914-1.364V56.339h-3.77c-13.61,47.11-12.671,64.618-12.671,64.618h3.952
				c-1.342,2.293-2.125,4.953-2.125,7.809c0,8.558,6.938,15.496,15.499,15.496c0.713,0,1.415-0.063,2.107-0.161v2.075v7.313
				l3.267,2.508l10.673-5.233v-14.417L303.313,135.921z"/>
		</g>
		<g>
			<path fill="#E3E3E3" d="M294.252,56.339h-3.769v17.328l1.912,1.364l-1.128,0.803l2.075,1.471l-1.5,1.073l2.159,1.214l-2.159,1.22
				l1.5,1.062l-2.075,1.476l1.128,0.8l-1.912,1.362v26.193c6.247,0.327,11.6,3.989,14.312,9.252h2.129
				C306.924,120.957,307.866,103.449,294.252,56.339z"/>
		</g>
		<path fill="#0A8E80" d="M322.498,226.917c-6.229-40.771-16.141-67.139-16.141-67.139h-14.719
			c22.647,96.272,12.742,156.032,12.742,164.244c0,8.201,9.905,14.148,14.158,2.544
			C322.782,314.956,328.729,267.688,322.498,226.917z"/>
		<path opacity="0.6" fill="#01A79D" enable-background="new    " d="M304.381,324.022c0,3.943,2.293,7.363,5.136,8.562
			c1.797-0.801,3.479-2.685,4.699-6.018c4.253-11.61,10.194-58.878,3.97-99.649s-16.141-67.139-16.141-67.139h-10.401
			C314.286,256.051,304.381,315.811,304.381,324.022z"/>
		<path fill="#0A8E80" d="M256.686,226.917c6.227-40.771,16.141-67.139,16.141-67.139h14.717
			c-22.651,96.272-12.737,156.032-12.737,164.244c0,8.201-9.914,14.148-14.157,2.544
			C256.405,314.956,250.454,267.688,256.686,226.917z"/>
		<path opacity="0.6" fill="#01A79D" enable-background="new    " d="M260.648,326.566c1.219,3.322,2.898,5.2,4.678,6.006
			c2.839-1.208,5.113-4.622,5.113-8.55c0-8.212-9.905-67.972,12.739-164.244h-10.353c0,0-9.914,26.367-16.141,67.139
			C250.454,267.688,256.405,314.956,260.648,326.566z"/>
		<path fill="#E3E3E3" d="M273.794,136.302l-0.242,0.049v14.417l10.679,5.233l3.264-2.508v-7.318v-0.033
			C281.428,145.426,276.329,141.598,273.794,136.302z"/>
		<path fill="#676767" d="M289.58,117.008c-6.496,0-11.766,5.261-11.766,11.757c0,6.497,5.27,11.766,11.766,11.766
			c6.502,0,11.757-5.269,11.757-11.766C301.337,122.269,296.082,117.008,289.58,117.008z M289.58,136.224
			c-4.12,0-7.461-3.338-7.461-7.458c0-4.122,3.341-7.46,7.461-7.46c4.122,0,7.46,3.338,7.46,7.46
			C297.04,132.885,293.702,136.224,289.58,136.224z"/>
	</g>
	<g>
		<path fill="#E3E3E3" d="M222.838,14.748c-6.156,0-30.544,0-33.616,0c-3.078,0-4.735,7.819-19.414,7.819
			c-10.183,0-15.864-5.683-15.864-5.683v26.992c0,0,5.207-2.609,15.864-2.609c5.976,0,10.084,1.717,12.547,3.217v21.739
			c0,3.347,2.715,6.063,6.058,6.063h24.817c3.344,0,6.015-2.716,6.015-6.063c0,0,0-24.574,0-25.285
			c1.969-2.863,5.771-5.587,14.008-5.587c17.998,0,29.834,17.995,29.834,23.673h4.025C267.111,22.095,228.995,14.748,222.838,14.748
			z"/>
		<rect x="190.004" y="68.97" fill="#676767" width="21.186" height="95.65"/>
		<path fill="#0A8E80" d="M220.596,324.59c0,3.349-2.713,6.066-6.058,6.066h-27.882c-3.344,0-6.06-2.718-6.06-6.066l2.019-158.713
			c0-3.349,2.714-6.061,6.063-6.061h23.84c3.344,0,6.056,2.711,6.056,6.061L220.596,324.59z"/>
		<path fill="#C9C9C9" d="M169.808,41.27c5.976,0,10.084,1.717,12.547,3.217v21.739c0,3.346,2.715,6.062,6.058,6.062h24.817
			c3.344,0,6.015-2.716,6.015-6.062c0,0,0-24.575,0-25.286c1.969-2.863,5.771-5.587,14.008-5.587
			c17.998,0,29.834,17.995,29.834,23.675h2.296c-0.423-7.785-4.929-29.967-42.447-29.967c0,0-9.816,11.147-26.525,11.147
			c-16.712,0-20.995-8.287-42.463-8.287v11.956C153.943,43.876,159.15,41.27,169.808,41.27z"/>
		<path fill="#E3E3E3" d="M158.677,43.26c0,3.344-2.713,6.063-6.061,6.063H136.09c-3.348,0-6.061-2.719-6.061-6.063V20.576
			c0-3.346,2.713-6.06,6.061-6.06h16.526c3.348,0,6.061,2.713,6.061,6.06V43.26z"/>
		<path fill="#C9C9C9" d="M130.031,31.038v12.225c0,3.344,2.714,6.063,6.062,6.063h16.526c3.347,0,6.061-2.719,6.061-6.063V29.459
			C145.525,33.031,136.135,32.487,130.031,31.038z"/>
		<rect x="192.88" y="159.822" opacity="0.6" fill="#01A79D" enable-background="new    " width="15.433" height="170.834"/>
	</g>
	<g>
		<path fill="#C9C9C9" d="M343.584,119.486l10.434,21.951l13.042,0.653l-29.341,16.086
			C337.719,158.177,327.503,134.919,343.584,119.486z"/>
		<path fill="#C9C9C9" d="M389.888,139.485c0-11.52-14.35-23.037-29.57-26.299l8.921,22.602l-14.132,11.084l-26.52,10.652
			l5.217,11.953l3.479-1.089c0,0,7.172,11.954,8.696,16.304c1.52,4.352,1.089,22.91,1.089,33.191v105.196l0.038-0.007
			c0.398,6.914,6.115,12.411,13.136,12.411c7.274,0,13.178-5.897,13.178-13.176l-5.854-120.859c0-10.456,0.801-19.583,9.274-32.63
			C385.318,155.787,389.888,151.005,389.888,139.485z M368.753,322.313c0,4.704-3.812,8.517-8.511,8.517
			c-4.706,0-8.513-3.813-8.513-8.517c0-4.702,3.807-8.501,8.513-8.501C364.941,313.813,368.753,317.613,368.753,322.313z"/>
		<path fill="#E3E3E3" d="M360.242,313.813c4.399,0,8.021,3.338,8.468,7.624l-6.78-130.308c0-2.497-2.031-4.515-4.52-4.515
			c-2.489,0-4.515,2.022-4.515,4.515l-1.166,131.189C351.729,317.613,355.542,313.813,360.242,313.813z"/>
		<path fill="#E3E3E3" d="M389.888,139.485c0-11.52-14.35-23.037-29.57-26.299l8.921,22.602l-14.132,11.084l-26.52,10.652
			l5.217,11.953l54.194-19.092C389.244,147.174,389.888,143.801,389.888,139.485z"/>
		<path fill="#676767" d="M361.369,170.539c0.267,0.708-0.087,1.498-0.796,1.764l-9.514,3.594c-0.713,0.267-1.496-0.087-1.769-0.8
			l-3.589-9.508c-0.267-0.708,0.093-1.503,0.8-1.77l9.514-3.594c0.702-0.267,1.498,0.087,1.765,0.795L361.369,170.539z"/>
		<g>
			<path fill="#E3E3E3" d="M352.46,172.254c0.245,0.648-0.082,1.373-0.73,1.623l0,0c-0.653,0.245-1.383-0.087-1.622-0.735
				l-2.505-6.627c-0.245-0.648,0.081-1.372,0.734-1.618l0,0c0.648-0.245,1.373,0.082,1.618,0.729L352.46,172.254z"/>
			<path fill="#E3E3E3" d="M355.967,170.925c0.245,0.651-0.081,1.377-0.735,1.623l0,0c-0.647,0.245-1.378-0.079-1.617-0.733
				l-2.505-6.627c-0.245-0.646,0.087-1.378,0.729-1.623l0,0c0.648-0.245,1.378,0.087,1.623,0.738L355.967,170.925z"/>
			<path fill="#E3E3E3" d="M359.469,169.602c0.25,0.653-0.082,1.378-0.73,1.623l0,0c-0.647,0.246-1.377-0.082-1.622-0.729
				l-2.5-6.632c-0.245-0.643,0.082-1.367,0.729-1.615l0,0c0.653-0.248,1.372,0.079,1.623,0.733L359.469,169.602z"/>
		</g>
	</g>
	<polygon fill="#676767" points="411.888,88.778 411.55,150.295 411.55,88.778 	"/>
	<g>
		<path fill="#0A8E80" d="M407.619,203.854c0.979,3.523,2.15,5.288,6.267,6.459c4.122,1.182,10.771,10.575,8.027,21.353
			c-2.733,10.769-6.104,25.463-6.104,37.016c0,11.559,0,48.028,0,48.028c0,10.368,8.403,18.773,18.771,18.773
			s18.775-8.41,18.775-18.773c0,0,0-36.47,0-48.028c0-11.558-3.371-26.247-6.115-37.016c-2.739-10.777,3.921-20.171,8.032-21.353
			c4.117-1.176,5.289-2.938,6.269-6.459c0.985-3.534,3.333-19.789,3.333-19.789H434.58h-30.294
			C404.286,184.065,406.638,200.32,407.619,203.854z M434.58,309.401c4.046,0,7.319,3.273,7.319,7.309
			c0,4.046-3.273,7.319-7.319,7.319c-4.041,0-7.314-3.273-7.314-7.319C427.266,312.675,430.539,309.401,434.58,309.401z"/>
		<path opacity="0.6" fill="#01A79D" enable-background="new    " d="M413.107,199.994c0.784,3.578,1.716,5.363,4.994,6.562
			c3.272,1.193,8.576,10.733,6.393,21.668c-2.178,10.94-4.868,25.848-4.868,37.578c0,11.729,0,48.735,0,48.735
			c0,10.526,6.693,19.062,14.954,19.062c8.255,0,14.941-8.535,14.941-19.062c0,0,0-37.006,0-48.735
			c0-11.726-2.679-26.638-4.856-37.578c-2.185-10.935,3.109-20.475,6.393-21.668c3.273-1.198,4.21-2.979,4.993-6.562
			c0.769-3.586,2.642-20.081,2.642-20.081H434.58h-24.125C410.455,179.913,412.328,196.408,413.107,199.994z M434.58,309.401
			c4.046,0,7.319,3.273,7.319,7.309c0,4.046-3.273,7.319-7.319,7.319c-4.041,0-7.314-3.273-7.314-7.319
			C427.266,312.675,430.539,309.401,434.58,309.401z"/>
		<path fill="#383938" d="M408.975,186.777h25.605h25.605c0,0,9.785-16.663,9.785-36.954s0-61.051,0-61.051l-0.523,0.959
			l-0.781-0.959l-0.702,0.899l-1.36-0.899l-1.079,1.795l-0.806-1.795h-1.894l-1.883,1.455l-0.578-1.455h-0.897l-1.142,1.427
			l-0.893-1.427h-1.171l-1.079,1.057l-0.772-1.057h-1.005l-0.817,0.651l-0.708-0.651h-0.649l-0.592,1.144l-1.187-1.144l-1.063,1.732
			l-0.841-1.732l-1.416,1.427l-1.232-1.427h-0.648l-1.255,1.427l-1.097-1.427h-0.677l-0.839,0.839l-0.955-0.839l-1.198,1.117
			l-0.68-1.117h-0.755l-0.914,1.395l-1.291-1.395l-0.898,1.64l-1.269-1.64l-1.242,1.236l-1.105-1.236h-0.997l-0.888,6.789
			l-0.729-6.789h-0.811l-0.463,1.144l-0.426-1.144h-0.832l-1.057,1.514l-1.612-1.514h-0.735l-0.882,0.989l-1.149-0.989h-0.915
			l-0.909,1.947l-1.144-1.947h-0.816l-0.806,9.122l-1.264-9.122h-0.882l-0.818,1.332l-0.995-1.332h-0.708l-0.752,1.364l-1.317-1.364
			h-0.659l-1.582,1.117l-0.879-1.117l-1.182,1.084l-0.703-1.084h-0.741l-0.963,1.675l-0.654-1.675l-0.719,1.364l-0.871-1.364
			c0,0,0,40.758,0,61.051C399.205,170.114,408.975,186.777,408.975,186.777z"/>
		<polygon fill="#676767" points="454.401,88.778 454.063,145.854 454.063,88.778 		"/>
		<polygon fill="#676767" points="464.765,88.778 464.427,150.295 464.427,88.778 		"/>
		<polygon fill="#676767" points="463.365,88.778 463.027,145.854 463.027,88.778 		"/>
		<polygon fill="#676767" points="457.304,88.778 456.966,150.295 456.966,88.778 		"/>
		<polygon fill="#676767" points="451.761,88.778 451.429,148.609 451.429,88.778 		"/>
		<polygon fill="#676767" points="444.851,88.778 444.519,147.496 444.519,88.778 		"/>
		<polygon fill="#676767" points="441.746,88.778 441.408,152.781 441.408,88.778 		"/>
		<polygon fill="#676767" points="437.487,88.778 437.155,143.918 437.155,88.778 		"/>
		<polygon fill="#676767" points="430,88.778 429.668,148.609 429.668,88.778 		"/>
		<polygon fill="#676767" points="425.491,88.778 425.153,148.609 425.153,88.778 		"/>
		<polygon fill="#676767" points="422.207,88.778 421.869,145.854 421.869,88.778 		"/>
		<polygon fill="#676767" points="419.229,88.778 418.896,151.533 418.896,88.778 		"/>
		<polygon fill="#676767" points="416.314,88.778 415.978,145.854 415.978,88.778 		"/>
		<polygon fill="#676767" points="413.281,88.778 412.949,152.781 412.949,88.778 		"/>
		<polygon fill="#676767" points="410.744,88.778 410.412,145.854 410.412,88.778 		"/>
		<polygon fill="#676767" points="408.092,88.778 407.76,148.609 407.76,88.778 		"/>
		<polygon fill="#676767" points="427.283,88.778 426.944,145.854 426.944,88.778 		"/>
		<polygon fill="#C9C9C9" points="464.019,189.806 466.986,170.016 402.172,170.016 405.146,189.806 		"/>
		<polygon fill="#E3E3E3" points="465.549,179.578 403.611,179.578 404.192,183.467 464.966,183.467 		"/>
		<polygon fill="#E3E3E3" points="404.688,186.777 405.146,189.806 464.019,189.806 464.47,186.777 		"/>
		<g>
			<circle fill="#E3E3E3" cx="457.163" cy="174.34" r="1.623"/>
			<circle fill="#E3E3E3" cx="442.111" cy="174.337" r="1.62"/>
			<circle fill="#E3E3E3" cx="427.049" cy="174.34" r="1.623"/>
			<circle fill="#E3E3E3" cx="411.99" cy="174.34" r="1.623"/>
		</g>
	</g>
</g>
</svg>
