<?xml version="1.0" encoding="utf-8"?>
<!-- Generator: Adobe Illustrator 16.0.0, SVG Export Plug-In . SVG Version: 6.00 Build 0)  -->
<!DOCTYPE svg PUBLIC "-//W3C//DTD SVG 1.1//EN" "http://www.w3.org/Graphics/SVG/1.1/DTD/svg11.dtd">
<svg version="1.1" id="Layer_1" xmlns="http://www.w3.org/2000/svg" xmlns:xlink="http://www.w3.org/1999/xlink" x="0px" y="0px"
	 width="30px" height="30px" viewBox="0 0 30 30" enable-background="new 0 0 30 30" xml:space="preserve">
<path id="Fill-1-Copy" fill="#231F20" d="M13.004,11.932l3.671-5.125c0.695-0.966,1.59-1.447,2.689-1.447
	c0.895,0,1.672,0.306,2.326,0.918c0.656,0.614,0.982,1.348,0.982,2.2c0,0.631-0.172,1.189-0.52,1.672l-3.311,4.636l4.047,4.941
	c0.406,0.491,0.607,1.067,0.607,1.728c0,0.873-0.316,1.623-0.953,2.247c-0.637,0.628-1.408,0.939-2.313,0.939
	c-0.992,0-1.75-0.312-2.27-0.934l-4.958-5.96v3.287c0,0.938-0.168,1.666-0.505,2.188c-0.617,0.944-1.513,1.418-2.688,1.418
	c-1.07,0-1.899-0.349-2.486-1.043c-0.55-0.641-0.824-1.49-0.824-2.548V8.868c0-1.004,0.279-1.829,0.838-2.479
	c0.588-0.686,1.397-1.03,2.428-1.03c0.983,0,1.801,0.345,2.457,1.03c0.366,0.381,0.597,0.766,0.694,1.154
	c0.058,0.243,0.086,0.693,0.086,1.353V11.932"/>
</svg>
