<?xml version="1.0" encoding="iso-8859-1"?>
<!-- Generator: Adobe Illustrator 19.0.0, SVG Export Plug-In . SVG Version: 6.00 Build 0)  -->
<svg version="1.1" id="Layer_1" xmlns="http://www.w3.org/2000/svg" xmlns:xlink="http://www.w3.org/1999/xlink" x="0px" y="0px"
	 viewBox="0 0 512 512" style="enable-background:new 0 0 512 512;" xml:space="preserve">
<g>
	<g>
		<path d="M133.162,212.412c-2.745,6.098-4.973,8.323-11.061,11.065c6.09,2.738,8.316,4.969,11.057,11.054
			c2.747-6.086,4.976-8.316,11.064-11.06C138.132,220.735,135.904,218.51,133.162,212.412z"/>
	</g>
</g>
<g>
	<g>
		<path d="M98.315,262.227c-2.747,6.085-4.971,8.308-11.064,11.053c6.093,2.741,8.316,4.967,11.064,11.058
			c2.744-6.091,4.967-8.317,11.061-11.058C103.283,270.535,101.059,268.312,98.315,262.227z"/>
	</g>
</g>
<g>
	<g>
		<path d="M65.085,212.412c-2.75,6.094-4.976,8.316-11.066,11.065c6.091,2.738,8.315,4.964,11.066,11.054
			c2.739-6.086,4.966-8.316,11.057-11.06C70.051,220.728,67.823,218.51,65.085,212.412z"/>
	</g>
</g>
<g>
	<g>
		<path d="M170.772,262.218c-2.747,6.084-4.976,8.316-11.063,11.059c6.089,2.737,8.316,4.963,11.058,11.06
			c2.746-6.097,4.974-8.324,11.062-11.064C175.739,270.535,173.513,268.303,170.772,262.218z"/>
	</g>
</g>
<g>
	<g>
		<path d="M341.233,212.412c-2.746,6.098-4.973,8.323-11.062,11.065c6.091,2.738,8.316,4.969,11.057,11.054
			c2.748-6.086,4.976-8.316,11.065-11.06C346.204,220.735,343.976,218.51,341.233,212.412z"/>
	</g>
</g>
<g>
	<g>
		<path d="M378.842,262.218c-2.747,6.084-4.976,8.316-11.063,11.059c6.089,2.737,8.316,4.963,11.059,11.06
			c2.745-6.097,4.974-8.324,11.061-11.064C383.812,270.535,381.583,268.303,378.842,262.218z"/>
	</g>
</g>
<g>
	<g>
		<path d="M413.685,212.412c-2.743,6.092-4.967,8.316-11.062,11.057c6.095,2.746,8.32,4.97,11.062,11.054
			c2.748-6.084,4.973-8.308,11.065-11.054C418.657,220.728,416.433,218.504,413.685,212.412z"/>
	</g>
</g>
<g>
	<g>
		<path d="M446.916,262.218c-2.739,6.084-4.966,8.316-11.057,11.059c6.091,2.743,8.318,4.963,11.057,11.06
			c2.749-6.095,4.976-8.317,11.065-11.064C451.892,270.535,449.666,268.308,446.916,262.218z"/>
	</g>
</g>
<g>
	<g>
		<path d="M133.162,307.877c-2.745,6.098-4.973,8.323-11.061,11.065c6.09,2.739,8.316,4.97,11.057,11.054
			c2.747-6.084,4.976-8.315,11.064-11.059C138.132,316.2,135.904,313.975,133.162,307.877z"/>
	</g>
</g>
<g>
	<g>
		<path d="M98.315,357.692c-2.747,6.086-4.971,8.308-11.064,11.054c6.093,2.741,8.316,4.966,11.064,11.057
			c2.744-6.091,4.967-8.316,11.061-11.057C103.283,366,101.059,363.778,98.315,357.692z"/>
	</g>
</g>
<g>
	<g>
		<path d="M65.085,307.877c-2.75,6.095-4.976,8.316-11.066,11.065c6.091,2.739,8.315,4.965,11.066,11.054
			c2.739-6.084,4.966-8.315,11.057-11.059C70.051,316.193,67.823,313.975,65.085,307.877z"/>
	</g>
</g>
<g>
	<g>
		<path d="M170.772,357.684c-2.747,6.085-4.976,8.316-11.063,11.06c6.089,2.737,8.316,4.962,11.058,11.059
			c2.746-6.097,4.974-8.323,11.062-11.064C175.739,366,173.513,363.77,170.772,357.684z"/>
	</g>
</g>
<g>
	<g>
		<path d="M341.233,307.877c-2.746,6.098-4.973,8.323-11.062,11.065c6.091,2.739,8.316,4.97,11.057,11.054
			c2.748-6.084,4.976-8.315,11.065-11.059C346.204,316.2,343.976,313.975,341.233,307.877z"/>
	</g>
</g>
<g>
	<g>
		<path d="M378.842,357.683c-2.747,6.086-4.976,8.316-11.063,11.06c6.089,2.738,8.316,4.962,11.059,11.059
			c2.745-6.097,4.974-8.323,11.061-11.064C383.812,366,381.583,363.769,378.842,357.683z"/>
	</g>
</g>
<g>
	<g>
		<path d="M413.685,307.877c-2.743,6.092-4.967,8.316-11.062,11.058c6.095,2.746,8.32,4.969,11.062,11.054
			c2.748-6.085,4.973-8.308,11.065-11.054C418.657,316.193,416.433,313.969,413.685,307.877z"/>
	</g>
</g>
<g>
	<g>
		<path d="M446.916,357.683c-2.739,6.086-4.966,8.316-11.057,11.06c6.091,2.743,8.318,4.962,11.057,11.059
			c2.749-6.094,4.976-8.316,11.065-11.064C451.892,366,449.666,363.773,446.916,357.683z"/>
	</g>
</g>
<g>
	<g>
		<path d="M133.162,403.344c-2.745,6.097-4.973,8.323-11.061,11.064c6.09,2.739,8.316,4.97,11.057,11.055
			c2.747-6.086,4.976-8.316,11.064-11.059C138.132,411.667,135.904,409.441,133.162,403.344z"/>
	</g>
</g>
<g>
	<g>
		<path d="M98.315,453.158c-2.747,6.084-4.971,8.307-11.064,11.054c6.093,2.741,8.316,4.965,11.064,11.057
			c2.744-6.092,4.967-8.316,11.061-11.057C103.283,461.466,101.059,459.243,98.315,453.158z"/>
	</g>
</g>
<g>
	<g>
		<path d="M65.085,403.344c-2.75,6.095-4.976,8.315-11.066,11.064c6.091,2.739,8.315,4.965,11.066,11.055
			c2.739-6.086,4.966-8.316,11.057-11.059C70.051,411.659,67.823,409.441,65.085,403.344z"/>
	</g>
</g>
<g>
	<g>
		<path d="M170.772,453.15c-2.747,6.086-4.976,8.315-11.063,11.06c6.089,2.737,8.316,4.961,11.058,11.059
			c2.746-6.098,4.974-8.323,11.062-11.065C175.739,461.466,173.513,459.236,170.772,453.15z"/>
	</g>
</g>
<g>
	<g>
		<path d="M341.233,403.344c-2.746,6.097-4.973,8.323-11.062,11.064c6.091,2.739,8.316,4.968,11.057,11.055
			c2.748-6.085,4.976-8.316,11.065-11.059C346.204,411.667,343.976,409.441,341.233,403.344z"/>
	</g>
</g>
<g>
	<g>
		<path d="M378.842,453.15c-2.747,6.086-4.976,8.315-11.063,11.06c6.089,2.737,8.316,4.961,11.059,11.059
			c2.745-6.098,4.974-8.323,11.061-11.065C383.812,461.466,381.583,459.236,378.842,453.15z"/>
	</g>
</g>
<g>
	<g>
		<path d="M413.685,403.344c-2.743,6.091-4.967,8.315-11.062,11.058c6.095,2.745,8.32,4.967,11.062,11.053
			c2.748-6.085,4.973-8.308,11.065-11.053C418.657,411.659,416.433,409.435,413.685,403.344z"/>
	</g>
</g>
<g>
	<g>
		<path d="M446.916,453.15c-2.739,6.086-4.966,8.315-11.057,11.06c6.091,2.743,8.318,4.961,11.057,11.059
			c2.749-6.094,4.976-8.316,11.065-11.065C451.892,461.466,449.666,459.239,446.916,453.15z"/>
	</g>
</g>
<g>
	<g>
		<path d="M488.969,87.352h-62.455c11.521-8.47,18.786-20.95,18.786-34.76c0-25.373-24.373-46.017-54.334-46.017
			c-27.079,0-55.712,14.035-82.804,40.585c-12.655,12.402-22.159,24.706-27.571,32.29c-4.917-8.473-14.086-14.177-24.593-14.177
			c-10.509,0-19.676,5.704-24.594,14.178c-5.413-7.585-14.915-19.89-27.571-32.292c-27.093-26.55-55.727-40.585-82.806-40.585
			c-29.958,0-54.332,20.644-54.332,46.017c0,13.809,7.264,26.289,18.784,34.76H23.031C10.332,87.352,0,97.679,0,110.376v70.868
			c0,12.46,9.954,22.634,22.329,23.005v293.338c0,4.329,3.509,7.837,7.837,7.837h174.775h102.116h174.777
			c4.329,0,7.837-3.508,7.837-7.837V204.249C502.046,203.878,512,193.704,512,181.244v-70.868
			C512,97.679,501.668,87.352,488.969,87.352z M319.054,57.8c30.464-29.761,55.922-36.006,71.914-36.006
			c21.566,0,39.109,13.816,39.109,30.799c0,16.144-16.016,29.638-36.463,30.722c-0.256,0.014-0.509,0.04-0.76,0.078h-96.248
			C301.908,76.385,309.583,67.051,319.054,57.8z M81.922,52.593c0-16.984,17.544-30.799,39.106-30.799
			c28.975,0,55.101,19.579,71.917,36.006c9.47,9.252,17.147,18.585,22.447,25.594h-96.248c-0.251-0.039-0.504-0.066-0.76-0.078
			C97.938,82.23,81.922,68.737,81.922,52.593z M23.031,188.595v-0.001c-4.056,0-7.357-3.298-7.357-7.35v-70.868
			c0-4.053,3.301-7.35,7.357-7.35h163.345v85.569H30.166H23.031z M197.104,489.751H38.003V204.267h156.209h2.892V489.751z
			 M299.22,489.751h-86.442V204.267h86.442V489.751z M309.951,188.594h-2.894H204.941h-2.892v-85.568h107.902V188.594z
			 M473.997,489.751H314.894V204.267h2.894h156.209V489.751z M488.969,188.594h-7.136H325.625v-85.568h163.345
			c4.057,0,7.357,3.297,7.357,7.35v70.868h0C496.327,185.296,493.027,188.594,488.969,188.594z"/>
	</g>
</g>
<g>
</g>
<g>
</g>
<g>
</g>
<g>
</g>
<g>
</g>
<g>
</g>
<g>
</g>
<g>
</g>
<g>
</g>
<g>
</g>
<g>
</g>
<g>
</g>
<g>
</g>
<g>
</g>
<g>
</g>
</svg>
