<?xml version="1.0" encoding="utf-8"?>
<!-- Generator: Adobe Illustrator 16.0.0, SVG Export Plug-In . SVG Version: 6.00 Build 0)  -->
<!DOCTYPE svg PUBLIC "-//W3C//DTD SVG 1.1//EN" "http://www.w3.org/Graphics/SVG/1.1/DTD/svg11.dtd">
<svg version="1.1" id="Layer_1" xmlns="http://www.w3.org/2000/svg" xmlns:xlink="http://www.w3.org/1999/xlink" x="0px" y="0px"
	 width="100px" height="100px" viewBox="0 0 100 100" enable-background="new 0 0 100 100" xml:space="preserve">
<g transform="translate(0.000000,542.000000) scale(0.100000,-0.100000)">
	<path fill="#FFFFFF" d="M426.025,5351.738c-25.586-39.307-49.512-77.686-59.961-96.533c-2.637-4.688-9.277-16.357-14.746-26.123
		c-12.207-21.826-42.671-84.321-50.776-104.634c-3.418-8.252-7.129-17.48-8.496-20.703c-14.648-34.229-40.43-121.191-45.313-152.393
		c-0.586-4.15-1.563-8.105-1.66-8.643c-0.391-0.586-2.441-11.523-4.785-24.463c-2.051-12.788-4.297-25.386-4.687-28.022
		c-4.883-26.953-4.883-128.516-0.195-143.262c0.586-1.465,1.367-6.348,1.953-11.035c2.051-18.262,8.398-44.824,16.504-68.652
		c30.859-91.504,91.304-153.809,176.46-182.217c10.938-3.516,24.902-7.52,31.055-8.594c6.25-1.172,13.184-2.441,15.43-2.832
		c9.473-1.855,31.25-3.418,51.367-3.613c118.75-1.074,207.91,50.576,233.203,135.537c8.594,28.711,8.984,67.285,0.879,102.148
		c-1.465,6.738-3.125,14.258-3.711,16.699c-5.078,23.73-21.875,62.305-39.16,90.137c-25.195,40.674-49.512,69.482-118.555,140.571
		c-26.172,26.904-49.609,51.172-52.051,53.809c-2.539,2.832-7.617,8.301-11.133,12.207
		c-58.594,64.014-91.699,120.068-105.371,178.022c-5.469,23.34-6.445,32.568-6.641,64.551c0,29.346,0.977,40.088,5.664,66.797
		c1.66,8.838,3.418,18.994,4.004,22.559c0.488,3.564,1.465,7.178,2.051,7.91c1.074,2.051,2.441,9.033,1.465,9.033
		C438.428,5370,432.666,5361.748,426.025,5351.738z"/>
</g>
</svg>
