<?xml version="1.0" standalone="no"?>
<!DOCTYPE svg PUBLIC "-//W3C//DTD SVG 20010904//EN"
 "http://www.w3.org/TR/2001/REC-SVG-20010904/DTD/svg10.dtd">
<svg version="1.0" xmlns="http://www.w3.org/2000/svg"
 width="542.000000pt" height="542.000000pt" viewBox="0 0 542.000000 542.000000"
 preserveAspectRatio="xMidYMid meet">
<metadata>
Created by potrace 1.11, written by Peter Selinger 2001-2013
</metadata>
<g transform="translate(0.000000,542.000000) scale(0.100000,-0.100000)"
fill="#000000" stroke="none">
<path d="M2317 5003 c-136 -209 -263 -413 -319 -513 -14 -25 -49 -87 -78 -139
-65 -116 -227 -448 -270 -556 -18 -44 -38 -93 -45 -110 -78 -182 -215 -644
-241 -810 -3 -22 -8 -43 -9 -46 -2 -3 -13 -61 -25 -130 -11 -68 -23 -135 -25
-149 -26 -143 -26 -683 -1 -761 3 -8 7 -34 10 -59 11 -97 45 -238 88 -365 164
-486 485 -817 938 -968 58 -19 132 -40 165 -46 33 -6 70 -13 82 -15 50 -10
166 -18 273 -19 631 -6 1105 269 1239 720 46 153 48 358 5 543 -8 36 -17 76
-20 89 -27 126 -116 331 -208 479 -134 216 -263 369 -630 747 -139 143 -264
272 -277 286 -13 15 -40 44 -59 65 -311 340 -487 638 -560 946 -29 124 -34
173 -35 343 0 156 5 213 30 355 9 47 18 101 21 120 3 19 8 38 11 42 6 11 13
48 8 48 -2 0 -33 -44 -68 -97z"/>
</g>
</svg>
