<?xml version="1.0" encoding="utf-8"?>
<!-- Generator: Adobe Illustrator 16.0.0, SVG Export Plug-In . SVG Version: 6.00 Build 0)  -->
<!DOCTYPE svg PUBLIC "-//W3C//DTD SVG 1.1//EN" "http://www.w3.org/Graphics/SVG/1.1/DTD/svg11.dtd">
<svg version="1.1" id="Layer_1" xmlns="http://www.w3.org/2000/svg" xmlns:xlink="http://www.w3.org/1999/xlink" x="0px" y="0px"
	 width="65px" height="25px" viewBox="0 0 65 25" enable-background="new 0 0 65 25" xml:space="preserve">
<g>
	<path fill="#231F20" d="M63.07,19.797c0,1.493-1.21,2.703-2.702,2.703H4.632c-1.493,0-2.703-1.21-2.703-2.703V5.203
		C1.93,3.71,3.14,2.5,4.632,2.5h55.736c1.492,0,2.702,1.21,2.702,2.703V19.797z"/>
	<g id="PLAY_1_">
		<defs>
			<path id="SVGID_1_" d="M15.18,11.304l-2.757-1.592c0,0-5.022-2.9-5.318-3.07C6.81,6.471,6.516,6.574,6.516,6.931
				c0,0.593,0,6.191,0,6.191s0,6.051,0,6.318c0,0.267,0.21,0.382,0.467,0.233c0.256-0.147,5.44-3.141,5.44-3.141l2.757-1.592
				c0,0,2.339-1.351,2.65-1.53s0.281-0.426,0.019-0.567C17.586,12.703,15.18,11.304,15.18,11.304z"/>
		</defs>
		<clipPath id="SVGID_2_">
			<use xlink:href="#SVGID_1_"  overflow="visible"/>
		</clipPath>
		<linearGradient id="SVGID_3_" gradientUnits="userSpaceOnUse" x1="9.9302" y1="6.3506" x2="9.9302" y2="19.8945">
			<stop  offset="0" style="stop-color:#257DB0"/>
			<stop  offset="0.208" style="stop-color:#3C90B3"/>
			<stop  offset="0.7416" style="stop-color:#73BDB9"/>
			<stop  offset="1" style="stop-color:#89CEBC"/>
		</linearGradient>
		<polygon clip-path="url(#SVGID_2_)" fill="url(#SVGID_3_)" points="6.516,6.351 6.516,13.122 6.516,19.895 13.345,13.122 		"/>
		<linearGradient id="SVGID_4_" gradientUnits="userSpaceOnUse" x1="6.5156" y1="9.7114" x2="15.1797" y2="9.7114">
			<stop  offset="0" style="stop-color:#51BFAC"/>
			<stop  offset="1" style="stop-color:#DEE899"/>
		</linearGradient>
		<polygon clip-path="url(#SVGID_2_)" fill="url(#SVGID_4_)" points="15.18,11.304 12.423,9.712 6.516,6.301 6.516,6.351 
			13.345,13.122 		"/>
		<linearGradient id="SVGID_5_" gradientUnits="userSpaceOnUse" x1="10.8477" y1="13.1221" x2="10.8477" y2="19.9434">
			<stop  offset="0" style="stop-color:#EB403D"/>
			<stop  offset="0.1937" style="stop-color:#D64252"/>
			<stop  offset="0.7369" style="stop-color:#9F4887"/>
			<stop  offset="1" style="stop-color:#894A9C"/>
		</linearGradient>
		<polygon clip-path="url(#SVGID_2_)" fill="url(#SVGID_5_)" points="6.516,19.895 6.516,19.943 12.423,16.533 15.18,14.941 
			13.345,13.122 		"/>
		<linearGradient id="SVGID_6_" gradientUnits="userSpaceOnUse" x1="15.8374" y1="11.3037" x2="15.8374" y2="14.9414">
			<stop  offset="0" style="stop-color:#F48779"/>
			<stop  offset="0.6121" style="stop-color:#FAB076"/>
			<stop  offset="1" style="stop-color:#FDC674"/>
		</linearGradient>
		<polygon clip-path="url(#SVGID_2_)" fill="url(#SVGID_6_)" points="15.18,11.304 13.345,13.122 15.18,14.941 18.33,13.122 		"/>
	</g>
	<g>
		<path fill="#F9F9F9" d="M49.513,15.77c-0.257,0-0.491-0.047-0.703-0.142s-0.39-0.24-0.533-0.437h-0.043
			c0.028,0.23,0.043,0.448,0.043,0.654v1.62H47.68v-5.707h0.485l0.082,0.539h0.029c0.153-0.215,0.332-0.371,0.535-0.467
			c0.204-0.096,0.438-0.144,0.701-0.144c0.522,0,0.926,0.179,1.209,0.535c0.284,0.357,0.426,0.858,0.426,1.502
			c0,0.647-0.145,1.149-0.433,1.509C50.426,15.591,50.025,15.77,49.513,15.77z M49.426,12.194c-0.402,0-0.693,0.111-0.873,0.334
			s-0.271,0.577-0.276,1.063v0.133c0,0.554,0.092,0.95,0.276,1.188s0.48,0.357,0.888,0.357c0.341,0,0.607-0.138,0.8-0.413
			c0.193-0.275,0.289-0.655,0.289-1.14c0-0.491-0.096-0.868-0.289-1.13C50.048,12.325,49.776,12.194,49.426,12.194z"/>
		<path fill="#F9F9F9" d="M52.529,15.698h-0.597v-5.592h0.597V15.698z"/>
		<path fill="#F9F9F9" d="M55.959,15.698l-0.119-0.561h-0.028c-0.196,0.247-0.393,0.414-0.588,0.501
			c-0.195,0.088-0.439,0.131-0.731,0.131c-0.391,0-0.696-0.101-0.918-0.302s-0.332-0.487-0.332-0.858
			c0-0.796,0.636-1.212,1.908-1.251l0.668-0.021v-0.244c0-0.31-0.066-0.538-0.199-0.685c-0.133-0.147-0.346-0.222-0.638-0.222
			c-0.328,0-0.7,0.102-1.114,0.303l-0.184-0.457c0.194-0.105,0.407-0.188,0.639-0.248c0.23-0.06,0.462-0.09,0.695-0.09
			c0.469,0,0.817,0.104,1.044,0.313c0.226,0.209,0.339,0.543,0.339,1.003v2.688H55.959z M54.611,15.277
			c0.371,0,0.663-0.102,0.875-0.305c0.212-0.204,0.318-0.489,0.318-0.855v-0.356l-0.598,0.025c-0.474,0.017-0.815,0.091-1.025,0.222
			c-0.21,0.13-0.314,0.333-0.314,0.608c0,0.216,0.065,0.38,0.196,0.492C54.193,15.222,54.376,15.277,54.611,15.277z"/>
		<path fill="#F9F9F9" d="M56.747,11.759h0.64l0.862,2.247c0.189,0.513,0.307,0.883,0.353,1.11h0.028
			c0.031-0.123,0.097-0.331,0.196-0.628c0.1-0.296,0.425-1.205,0.976-2.729h0.64l-1.692,4.485c-0.168,0.443-0.363,0.758-0.588,0.944
			c-0.224,0.186-0.499,0.277-0.824,0.277c-0.183,0-0.362-0.02-0.54-0.061v-0.478c0.132,0.028,0.279,0.043,0.442,0.043
			c0.41,0,0.702-0.23,0.877-0.69l0.219-0.561L56.747,11.759z"/>
	</g>
	<g>
		<path fill="#F9F9F9" d="M38.461,12.125c0.189,0.157,0.585,0.486,0.585,1.112c0,0.609-0.346,0.898-0.692,1.17
			c-0.106,0.107-0.23,0.223-0.23,0.404c0,0.181,0.124,0.279,0.215,0.354l0.297,0.23c0.362,0.305,0.691,0.585,0.691,1.154
			c0,0.774-0.75,1.557-2.167,1.557c-1.194,0-1.771-0.568-1.771-1.179c0-0.296,0.147-0.716,0.634-1.005
			c0.511-0.313,1.203-0.354,1.573-0.379c-0.115-0.148-0.247-0.305-0.247-0.56c0-0.14,0.042-0.223,0.083-0.322
			c-0.091,0.009-0.182,0.017-0.265,0.017c-0.873,0-1.367-0.65-1.367-1.293c0-0.379,0.174-0.799,0.527-1.104
			c0.47-0.388,1.03-0.454,1.476-0.454h1.696l-0.527,0.297H38.461z M37.876,15.783c-0.065-0.009-0.107-0.009-0.189-0.009
			c-0.073,0-0.52,0.018-0.865,0.133c-0.181,0.065-0.708,0.263-0.708,0.849c0,0.584,0.568,1.005,1.45,1.005
			c0.79,0,1.211-0.38,1.211-0.89C38.774,16.45,38.503,16.229,37.876,15.783z M38.115,14.218c0.189-0.189,0.205-0.453,0.205-0.602
			c0-0.593-0.354-1.516-1.037-1.516c-0.215,0-0.445,0.106-0.577,0.272c-0.14,0.173-0.182,0.395-0.182,0.609
			c0,0.552,0.322,1.466,1.03,1.466C37.761,14.448,37.982,14.35,38.115,14.218z"/>
		<path fill="#F9F9F9" d="M33.274,15.651c-1.308,0-2.006-1.02-2.006-1.941c0-1.077,0.88-1.998,2.13-1.998
			c1.209,0,1.966,0.945,1.966,1.94C35.364,14.623,34.616,15.651,33.274,15.651z M34.303,14.985c0.197-0.264,0.247-0.593,0.247-0.913
			c0-0.725-0.346-2.105-1.365-2.105c-0.271,0-0.543,0.106-0.74,0.279c-0.321,0.288-0.379,0.65-0.379,1.004
			c0,0.813,0.403,2.154,1.398,2.154C33.785,15.404,34.114,15.248,34.303,14.985z"/>
		<path fill="#F9F9F9" d="M28.816,15.651c-1.308,0-2.007-1.02-2.007-1.941c0-1.077,0.88-1.998,2.13-1.998
			c1.209,0,1.966,0.945,1.966,1.94C30.906,14.623,30.157,15.651,28.816,15.651z M29.845,14.985c0.197-0.264,0.247-0.593,0.247-0.913
			c0-0.725-0.346-2.105-1.366-2.105c-0.271,0-0.543,0.106-0.74,0.279c-0.321,0.288-0.378,0.65-0.378,1.004
			c0,0.813,0.403,2.154,1.398,2.154C29.327,15.404,29.656,15.248,29.845,14.985z"/>
		<path fill="#F9F9F9" d="M26.181,15.522l-1.183,0.273c-0.48,0.074-0.91,0.14-1.364,0.14c-2.283,0-3.151-1.679-3.151-2.993
			c0-1.604,1.232-3.093,3.341-3.093c0.446,0,0.876,0.066,1.265,0.174c0.62,0.174,0.91,0.389,1.092,0.513l-0.687,0.653l-0.29,0.065
			l0.207-0.33c-0.281-0.273-0.794-0.777-1.77-0.777c-1.307,0-2.291,0.992-2.291,2.439c0,1.555,1.125,3.019,2.927,3.019
			c0.53,0,0.802-0.107,1.05-0.207v-1.331l-1.249,0.065l0.661-0.355h1.753l-0.215,0.206c-0.058,0.051-0.066,0.067-0.083,0.133
			c-0.008,0.074-0.016,0.314-0.016,0.397V15.522z"/>
		<path fill="#F9F9F9" d="M41.075,15.284c-0.273-0.024-0.33-0.074-0.33-0.396v-0.092v-4.589c0.001-0.018,0.003-0.036,0.004-0.054
			c0.033-0.289,0.116-0.339,0.373-0.487h-1.184l-0.62,0.298h0.633v0.003L39.95,9.964v4.832v0.273c0,0.165-0.032,0.19-0.223,0.438
			h1.464l0.306-0.182C41.356,15.309,41.216,15.301,41.075,15.284z"/>
		<path fill="#F9F9F9" d="M44.439,15.36c-0.09,0.05-0.18,0.107-0.27,0.148c-0.271,0.123-0.551,0.155-0.798,0.155
			c-0.262,0-0.673-0.017-1.092-0.32c-0.583-0.411-0.838-1.117-0.838-1.732c0-1.273,1.035-1.897,1.881-1.897
			c0.296,0,0.6,0.074,0.847,0.23c0.41,0.271,0.517,0.624,0.573,0.813l-1.929,0.78l-0.633,0.05c0.205,1.043,0.911,1.649,1.691,1.649
			c0.419,0,0.723-0.147,1.002-0.286L44.439,15.36z M43.668,12.913c0.156-0.058,0.238-0.107,0.238-0.222
			c0-0.328-0.369-0.706-0.813-0.706c-0.329,0-0.944,0.254-0.944,1.141c0,0.14,0.017,0.288,0.025,0.437L43.668,12.913z"/>
		<g>
			<path fill="#F9F9F9" d="M45.232,11.771v0.542h-0.065v-0.542h-0.18v-0.057h0.425v0.057H45.232z"/>
			<path fill="#F9F9F9" d="M45.972,12.313v-0.547h-0.003l-0.167,0.547H45.75l-0.168-0.547h-0.003v0.547h-0.06v-0.599h0.103
				l0.152,0.483h0.002l0.15-0.483h0.104v0.599H45.972z"/>
		</g>
	</g>
	<g>
		<path fill="#F9F9F9" d="M22.126,8.239h-0.411c0-0.057-0.039-0.216-0.117-0.479h-0.593c-0.081,0.259-0.121,0.419-0.121,0.479
			h-0.387c0-0.033,0.1-0.307,0.3-0.821c0.2-0.515,0.3-0.798,0.3-0.851h0.485c0,0.049,0.091,0.328,0.272,0.838
			C22.035,7.915,22.126,8.193,22.126,8.239z M21.533,7.514c-0.146-0.441-0.22-0.681-0.22-0.716h-0.021
			c0,0.033-0.076,0.271-0.227,0.716H21.533z"/>
		<path fill="#F9F9F9" d="M23.782,8.239h-0.317c0-0.035-0.118-0.22-0.353-0.556c-0.247-0.354-0.387-0.596-0.421-0.726h-0.021
			c0.021,0.188,0.032,0.357,0.032,0.509c0,0.211,0.006,0.469,0.018,0.772h-0.316c0.013-0.265,0.019-0.557,0.019-0.874
			c0-0.313-0.006-0.578-0.019-0.798h0.381c0,0.046,0.106,0.227,0.317,0.543c0.225,0.337,0.354,0.565,0.388,0.685h0.019
			c-0.021-0.19-0.031-0.361-0.031-0.514c0-0.231-0.006-0.47-0.018-0.714h0.321c-0.012,0.213-0.018,0.479-0.018,0.798
			C23.764,7.687,23.77,7.979,23.782,8.239z"/>
		<path fill="#F9F9F9" d="M25.643,7.346c0,0.243-0.078,0.455-0.234,0.637s-0.374,0.272-0.655,0.272
			c-0.127,0-0.301-0.005-0.524-0.016c0.011-0.258,0.017-0.55,0.017-0.874c0-0.312-0.006-0.577-0.017-0.798h0.225
			c0.037,0,0.092-0.001,0.165-0.004c0.073-0.002,0.12-0.004,0.142-0.004c0.309,0,0.533,0.077,0.672,0.231S25.643,7.13,25.643,7.346z
			 M25.292,7.401c0-0.165-0.048-0.303-0.144-0.416c-0.096-0.112-0.242-0.169-0.439-0.169c-0.037,0-0.087,0.004-0.152,0.012
			C24.566,7,24.571,7.179,24.571,7.365c0,0.204,0.004,0.407,0.013,0.608c0.056,0.011,0.111,0.017,0.167,0.017
			c0.184,0,0.32-0.057,0.409-0.171C25.248,7.705,25.292,7.565,25.292,7.401z"/>
		<path fill="#F9F9F9" d="M27.359,8.239h-0.38c-0.1-0.303-0.176-0.49-0.229-0.561c-0.053-0.071-0.139-0.106-0.257-0.106
			c-0.05,0-0.097,0-0.143,0.001c0,0.22,0.004,0.442,0.011,0.666h-0.357c0.011-0.258,0.017-0.55,0.017-0.874
			c0-0.312-0.006-0.577-0.017-0.798h0.222c0.026,0,0.08-0.001,0.161-0.004c0.082-0.002,0.157-0.004,0.227-0.004
			c0.393,0,0.589,0.135,0.589,0.403c0,0.214-0.112,0.362-0.336,0.446v0.019c0.086,0.024,0.162,0.092,0.227,0.202
			C27.161,7.741,27.249,7.944,27.359,8.239z M26.877,7.059c0-0.171-0.109-0.256-0.329-0.256c-0.081,0-0.152,0.006-0.213,0.018
			c0.009,0.133,0.014,0.306,0.014,0.52c0.047,0.001,0.087,0.002,0.12,0.002C26.741,7.342,26.877,7.247,26.877,7.059z"/>
		<path fill="#F9F9F9" d="M29.2,7.373c0,0.263-0.081,0.48-0.241,0.653c-0.161,0.173-0.36,0.26-0.597,0.26
			c-0.226,0-0.416-0.08-0.568-0.238c-0.152-0.159-0.229-0.361-0.229-0.605c0-0.263,0.081-0.481,0.242-0.654
			c0.161-0.173,0.36-0.259,0.597-0.259c0.226,0,0.416,0.079,0.568,0.237S29.2,7.127,29.2,7.373z M28.845,7.41
			c0-0.179-0.046-0.324-0.137-0.436c-0.092-0.111-0.205-0.167-0.339-0.167c-0.125,0-0.231,0.057-0.318,0.168
			c-0.087,0.112-0.131,0.254-0.131,0.426c0,0.178,0.046,0.322,0.138,0.435c0.092,0.111,0.205,0.167,0.338,0.167
			c0.125,0,0.231-0.056,0.318-0.169C28.802,7.722,28.845,7.58,28.845,7.41z"/>
		<path fill="#F9F9F9" d="M29.926,8.239h-0.363c0.011-0.265,0.017-0.557,0.017-0.874c0-0.313-0.006-0.578-0.017-0.798h0.363
			c-0.011,0.216-0.017,0.481-0.017,0.798C29.909,7.688,29.915,7.979,29.926,8.239z"/>
		<path fill="#F9F9F9" d="M31.787,7.346c0,0.243-0.078,0.455-0.234,0.637s-0.374,0.272-0.655,0.272
			c-0.127,0-0.301-0.005-0.524-0.016c0.011-0.258,0.017-0.55,0.017-0.874c0-0.312-0.005-0.577-0.017-0.798h0.225
			c0.037,0,0.092-0.001,0.165-0.004c0.073-0.002,0.12-0.004,0.143-0.004c0.309,0,0.533,0.077,0.672,0.231S31.787,7.13,31.787,7.346z
			 M31.437,7.401c0-0.165-0.048-0.303-0.144-0.416c-0.096-0.112-0.242-0.169-0.439-0.169c-0.037,0-0.087,0.004-0.152,0.012
			C30.71,7,30.715,7.179,30.715,7.365c0,0.204,0.004,0.407,0.013,0.608c0.056,0.011,0.111,0.017,0.167,0.017
			c0.184,0,0.32-0.057,0.409-0.171C31.392,7.705,31.437,7.565,31.437,7.401z"/>
		<path fill="#F9F9F9" d="M34.256,8.239h-0.411c0-0.057-0.038-0.216-0.116-0.479h-0.594c-0.08,0.259-0.121,0.419-0.121,0.479h-0.386
			c0-0.033,0.1-0.307,0.3-0.821s0.3-0.798,0.3-0.851h0.485c0,0.049,0.091,0.328,0.271,0.838S34.256,8.193,34.256,8.239z
			 M33.663,7.514c-0.146-0.441-0.22-0.681-0.22-0.716h-0.021c0,0.033-0.076,0.271-0.228,0.716H33.663z"/>
		<path fill="#F9F9F9" d="M35.754,7.006c0,0.204-0.076,0.355-0.228,0.453c-0.152,0.098-0.339,0.146-0.56,0.146
			c-0.04,0-0.069-0.001-0.086-0.003c0,0.161,0.005,0.373,0.014,0.637h-0.36c0.011-0.247,0.017-0.538,0.017-0.874
			c0-0.309-0.006-0.574-0.017-0.798h0.224c0.031,0,0.092-0.001,0.182-0.004c0.09-0.002,0.168-0.004,0.234-0.004
			c0.162,0,0.3,0.037,0.412,0.11C35.698,6.744,35.754,6.855,35.754,7.006z M35.423,7.076c0-0.184-0.122-0.274-0.365-0.274
			c-0.061,0-0.125,0.006-0.192,0.019c0.01,0.162,0.015,0.346,0.015,0.55c0.021,0.002,0.046,0.003,0.074,0.003
			C35.267,7.373,35.423,7.273,35.423,7.076z"/>
		<path fill="#F9F9F9" d="M37.294,7.006c0,0.204-0.076,0.355-0.228,0.453c-0.152,0.098-0.339,0.146-0.56,0.146
			c-0.04,0-0.069-0.001-0.086-0.003c0,0.161,0.005,0.373,0.014,0.637h-0.36c0.011-0.247,0.017-0.538,0.017-0.874
			c0-0.309-0.006-0.574-0.017-0.798h0.224c0.031,0,0.092-0.001,0.182-0.004c0.09-0.002,0.168-0.004,0.234-0.004
			c0.162,0,0.3,0.037,0.412,0.11C37.238,6.744,37.294,6.855,37.294,7.006z M36.963,7.076c0-0.184-0.122-0.274-0.365-0.274
			c-0.061,0-0.125,0.006-0.192,0.019c0.01,0.162,0.015,0.346,0.015,0.55c0.021,0.002,0.046,0.003,0.074,0.003
			C36.807,7.373,36.963,7.273,36.963,7.076z"/>
		<path fill="#F9F9F9" d="M39.812,7.373c0,0.263-0.08,0.48-0.241,0.653s-0.359,0.26-0.597,0.26c-0.227,0-0.415-0.08-0.567-0.238
			c-0.152-0.159-0.229-0.361-0.229-0.605c0-0.263,0.08-0.481,0.241-0.654s0.359-0.259,0.597-0.259c0.227,0,0.415,0.079,0.567,0.237
			S39.812,7.127,39.812,7.373z M39.458,7.41c0-0.179-0.046-0.324-0.138-0.436s-0.205-0.167-0.339-0.167
			c-0.125,0-0.231,0.057-0.318,0.168c-0.088,0.112-0.131,0.254-0.131,0.426c0,0.178,0.046,0.322,0.138,0.435
			c0.092,0.111,0.205,0.167,0.338,0.167c0.125,0,0.231-0.056,0.318-0.169C39.414,7.722,39.458,7.58,39.458,7.41z"/>
		<path fill="#F9F9F9" d="M41.553,8.239h-0.317c0-0.035-0.117-0.22-0.354-0.556c-0.246-0.354-0.387-0.596-0.421-0.726H40.44
			c0.021,0.188,0.032,0.357,0.032,0.509c0,0.211,0.006,0.469,0.018,0.772h-0.315c0.013-0.265,0.02-0.557,0.02-0.874
			c0-0.313-0.007-0.578-0.02-0.798h0.381c0,0.046,0.106,0.227,0.317,0.543c0.226,0.337,0.354,0.565,0.388,0.685h0.02
			c-0.021-0.19-0.031-0.361-0.031-0.514c0-0.231-0.006-0.47-0.018-0.714h0.321c-0.013,0.213-0.019,0.479-0.019,0.798
			C41.534,7.687,41.54,7.979,41.553,8.239z"/>
	</g>
</g>
</svg>
