<?xml version="1.0" encoding="utf-8"?>
<!-- Generator: Adobe Illustrator 16.0.0, SVG Export Plug-In . SVG Version: 6.00 Build 0)  -->
<!DOCTYPE svg PUBLIC "-//W3C//DTD SVG 1.1//EN" "http://www.w3.org/Graphics/SVG/1.1/DTD/svg11.dtd">
<svg version="1.1" id="Layer_1" xmlns="http://www.w3.org/2000/svg" xmlns:xlink="http://www.w3.org/1999/xlink" x="0px" y="0px"
	 width="398.5px" height="246px" viewBox="0 0 398.5 246" enable-background="new 0 0 398.5 246" xml:space="preserve">
<polygon fill="#FFFFFF" stroke="#808080" stroke-width="1.078" stroke-miterlimit="10" points="122.477,154.77 236.351,201.106 
	379.015,64.711 268.458,41.006 "/>
<polygon fill="#EE2B2F" points="121.982,157.778 127.529,187.379 243.356,233.445 386.06,89.996 381.542,65.883 237.642,204.056 "/>
<g>
	
		<rect x="22.385" y="99.457" transform="matrix(0.9997 -0.0242 0.0242 0.9997 -2.6851 4.3704)" fill="#00A99D" width="313.896" height="27.466"/>
	<g>
		<path fill="#00A99D" d="M335.697,123.144c0.12,0.356,0.372,0.148,0.297-0.84l-0.449-0.694L335.697,123.144z"/>
		<path fill="#00A99D" d="M336.338,116.464c-0.239-1.159-0.639-2.493-1.02-1.729c0.444,1.143,0.277,1.426,0.804,2.655
			c0.074,0.991-0.098,1.732-0.261,1.57c0.119,0.347-0.058,1.541,0.226,2.067c0.305-1.297,0.278-2.93-0.039-4.629
			C336.135,116.03,336.256,116.382,336.338,116.464z"/>
		<path fill="#00A99D" d="M259.896,96.897l0.625,0.036C260.349,96.91,260.135,96.899,259.896,96.897z"/>
		<path fill="#00A99D" d="M199.919,98.111c0.457-0.021,0.646-0.069,0.668-0.109C200.164,98.041,199.816,98.076,199.919,98.111z"/>
		<path fill="#00A99D" d="M189.669,97.882c0.219,0.005,0.405,0.009,0.604,0.015C190.042,97.862,189.81,97.846,189.669,97.882z"/>
		<path fill="#00A99D" d="M259.896,96.897L258.29,96.8C258.182,96.944,259.114,96.885,259.896,96.897z"/>
		<path fill="#00A99D" d="M334.971,103.143c0.028,0.334,0.075,0.612,0.135,0.867c-0.022-0.275-0.044-0.542-0.065-0.817
			C335.017,103.18,334.995,103.167,334.971,103.143z"/>
		<path fill="#00A99D" d="M286.323,95.907l0.488-0.012c0.142-0.053,0.274-0.115,0.399-0.186L286.323,95.907z"/>
		<path fill="#00A99D" d="M306.611,95.349c-0.46-0.003-0.611,0.367-0.782,0.532c0.256-0.157,0.593-0.238,0.994-0.276
			C306.829,95.535,306.767,95.453,306.611,95.349z"/>
		<path fill="#00A99D" d="M336.35,98.559l0.064,0.57C336.397,98.98,336.369,98.731,336.35,98.559z"/>
		<path fill="#00A99D" d="M271.8,96.179c-0.036-0.054-0.108-0.1-0.188-0.127C271.613,96.098,271.688,96.14,271.8,96.179z"/>
		<path fill="#00A99D" d="M313.008,121.966c-0.016,0.027,0.007,0.043,0.004,0.065C313.128,121.991,313.163,121.965,313.008,121.966z
			"/>
		<path fill="#00A99D" d="M336.57,123.218l-0.326,0.028c-0.033,0.07-0.067,0.139-0.066,0.207L336.57,123.218z"/>
		<path fill="#00A99D" d="M170.919,97.865c0.036,0.002,0.049,0.002,0.083,0.004C171.494,97.815,171.215,97.83,170.919,97.865z"/>
		<path fill="#00A99D" d="M21.139,126.456c0.281-1.957,0.499,3.161,0.792,0.218C21.794,126.951,21.293,124.021,21.139,126.456z"/>
		<path fill="#00A99D" d="M335.007,102.616c-0.008-0.274-0.017-0.553-0.024-0.833C334.979,102.163,334.987,102.418,335.007,102.616z
			"/>
		<path fill="#00A99D" d="M21.932,126.674h0.003l0.026-0.304C21.949,126.495,21.942,126.566,21.932,126.674z"/>
		<path fill="#00A99D" d="M127.748,99.13c0.09,0.062,0.264,0.107,0.444,0.15C128.176,99.242,128.075,99.199,127.748,99.13z"/>
		<path fill="#00A99D" d="M159.926,98.875l-0.797-0.029C159.445,98.871,159.701,98.876,159.926,98.875z"/>
		<path fill="#00A99D" d="M111.06,100.053c-0.434-0.017-0.582-0.065-1.171-0.001c0.055,0.018,0.109,0.03,0.181,0.041
			C110.281,100.038,110.565,100.006,111.06,100.053z"/>
		<path fill="#00A99D" d="M93.677,100.476c0.093,0.026,0.214,0.043,0.322,0.065c0.172-0.01,0.373-0.022,0.551-0.033L93.677,100.476z
			"/>
		<path fill="#00A99D" d="M260.185,123.421c0.383,0.094,0.623,0.203,0.811,0.312C260.721,123.477,263.271,123.322,260.185,123.421z"
			/>
		<path fill="#00A99D" d="M335.178,103.128c-0.096-0.1-0.146-0.247-0.171-0.513c0.012,0.199,0.021,0.391,0.033,0.577
			C335.096,103.243,335.147,103.252,335.178,103.128z"/>
		<path fill="#00A99D" d="M110.423,102.97l-2.764,0.011C108.433,102.999,109.437,102.994,110.423,102.97z"/>
		<path fill="#00A99D" d="M135.479,126.491l0.633-0.06C135.867,126.429,135.643,126.445,135.479,126.491z"/>
		<path fill="#00A99D" d="M99.465,103.235c-0.496-0.119-1.02-0.181-1.561-0.216c-0.114,0.031-0.243,0.058-0.319,0.102
			L99.465,103.235z"/>
		<path fill="#00A99D" d="M261,123.736c-0.005-0.001-0.005-0.004-0.005-0.004S260.995,123.735,261,123.736z"/>
		<path fill="#00A99D" d="M279.171,122.423c-2.632,0.052-1.226,0.503-1.775,0.793c-3.139,0.212-1.463-0.321-2.538-0.542
			c-1.958,0.175-3.452,0.654-4.915,0.672c-0.111-0.078-0.396-0.1-0.065-0.207c-2.063,0.434-6.153,0.167-8.559,0.709
			c-0.18-0.04-0.271-0.077-0.318-0.112c0.397,0.232,0.463,0.476,0.388,0.652c-1.179,0.039-2.182,0.359-2.634,0.054
			c0.724-0.008,0.78-0.137,1.117-0.244l-1.233,0.167c-1.124-0.426,1.685-0.197,1.676-0.534c-2.406,0.206-5.208,0.65-7.057,0.566
			c-0.397-0.435,4.315-0.253,1.84-0.589l2.862,0.101c-2.2-0.647,1.738,0.006-0.286-0.695c-3.764-0.037-4.202,0.329-7.957,0.29
			c-0.838,0.267,0.289,0.359-0.551,0.626c-5.321,0.572-4.224-1.016-8.13-0.328c-1.008,0.319-1.387,0.891-4.186,0.662l0.94-0.525
			c-3.643,0.038-2.062,0.771-5.883,0.526c0.673-0.213,2.857-0.235,2.305-0.282c-2.48-0.336-1.741,0.327-3.64,0.373l-0.404-0.434
			c-3.875,0.163-8.138,0.587-12.43,0.772c0.235-0.138,0.967-0.295-0.041-0.406c-5.409,0.353-11.561,0.225-16.791,0.088l-1.986,0.43
			c-0.464,0.008-0.865-0.152-0.365-0.239c-2.039-0.096-0.1,0.247-1.075,0.421c-1.157,0.055-1.535-0.184-0.804-0.316
			c-3.584,0.413-10.216,0.949-14.011,0.628l0.735-0.132c-2.951-0.084-3.307,0.867-6.048,0.576l0.521-0.082
			c-6.4-0.012-13.46,0.511-18.355,0.05c-0.915,0.576-6.337-0.093-6.729,0.687c-3.662-0.292-2.619-0.456-7.769-0.589
			c-1.375-0.002-2.037,0.531-3.733,0.653l-0.052-0.402l-2.295,0.479l-1.239-0.452l-1.59,0.142c0.635,0.009,1.353,0.149,1.259,0.267
			c-2.484,0.243-6.073-0.134-6.14-0.339l-5.878,0.483c0.126-0.165,1.111-0.245,1.888-0.367c-3.132,0.488-0.581-0.411-3.452,0.035
			c0.388,0.083-0.203,0.245-0.266,0.33c-1.442-0.209-4.71-0.133-7.125,0.029l0.457-0.29c-4.368,0.035-9.202,0.356-14.103,0.47
			c1.761,0.087,1.369,0.577-0.068,0.659l-0.585-0.413c-0.921,0.286,1.505,0.125-0.393,0.493c-1.832-0.004-1.242-0.455-0.194-0.62
			l-2.222,0.203c-0.134-0.124,0.387-0.205,0.519-0.369c-0.908,0.286-3.853-0.334-5.16,0.156l-0.128-0.123
			c-4.899,0.115-7.118,0.315-11.108,0.433c-0.069,0.369-1.631,0.326-2.813,0.651c-2.936-0.047-6.198-0.257-9.731-0.141
			c-2.479,0.244-0.717,0.33-1.829,0.575c-0.191-0.331-3.719-0.213-1.895-0.5c-4.24,0.159-5.416,0.199-10.772,0.601
			c0.585,0.124,1.241,0.167,0.905,0.289c-0.972,0.079-2.218-0.087-2.083-0.25l0.257-0.041c-6.009,0.648-13.92-0.64-18.697,0.174
			l0.268-0.041l-4.963,0.484c-2.289-0.002,1.366-0.285-0.332-0.451c-1.835,0.236-3.408,0.325-4.861,0.359
			c-0.707,0.006-1.384,0.013-2.051,0.02l-0.585-0.027c0.003-0.185-0.002-0.355-0.023-0.542l-0.009-0.079l-0.015-0.244l-0.035-0.493
			c-0.031-0.331-0.063-0.669-0.095-1.017c0.905-3.442-0.362-12.129,0.157-16.758l-0.227,0.272c-0.257-1.187,0.099-1.446,0.13-2.326
			c-0.178,0.129-0.178,1.299-0.322,0.561c-0.054-1.259-0.109-2.533-0.164-3.831c1.629-0.016,3.275-0.033,4.929-0.049
			c2.157,0.006,4.326,0.011,6.497,0.016c4.342,0.022,8.695,0.043,12.978,0.064c3.79-0.029,2.121-1.255,6.91-0.815l-1.345,0.464
			c7.633-0.703,15.633-0.36,23.106-0.98c-0.443,0.11-0.453,0.24-1.184,0.256c1.588,0.276,5.845-0.126,5.867-0.383
			c1.166,0,0.276,0.226,0.997,0.338c1.59,0.147,3.97-0.498,4.82-0.206c0.145,0.048-0.443,0.112-0.732,0.144
			c1.029-0.177,4.814-0.077,3.816-0.416c2.813,0.104,5.37-0.291,7.616-0.13c1.451-0.44,4.813,0.078,5.263-0.506
			c-0.187,0.596,4.936,0.358,6.706,0.037c-0.59,0.193,1.549,0.148,0.859,0.413c2.026-0.058,3.881-0.213,3.521-0.508
			c3.751,0.618,7.492-0.751,9.616,0.105c6.013-0.464,11.58-0.814,16.992-1.083c-0.181,0.594-5.985,0.204-5.738,0.817
			c5.132-0.368,8.083-0.945,13.182-0.927c1.321,0.049-0.743,0.274-1.186,0.386c5.127-0.367,9.926-0.187,14.486-0.618
			c-0.011,0.055-0.503,0.127-0.967,0.183c0.9-0.041,2.095,0.037,1.987-0.229l-0.875,0.094c-1.446-0.355,3.555-0.899,3.711-1.109
			c-1.51,0.805,4.516,0.084,2.113,1.113c0.591-0.064,1.332-0.209,1.191-0.385c0.88,0.031,1.162,0.128,0.275,0.354
			c3.221-0.224,2.068-0.481,4.99-0.546c-0.008,0.13-0.596,0.194-0.895,0.354c1.473-0.289,2.953-0.578,5.425-0.527
			c-0.147,0.082,0.142,0.176-0.594,0.192c4.239-0.142,7.21-0.849,11.866-0.716c-1.358,0.596,1.587,0.146,1.845,0.628l2.498-0.207
			l-1.01-0.212c2.192-0.045,4.119-0.447,6.006-0.333l-1.623,0.24l4.104-0.191l-2.328-0.129c2.21-0.305-0.252-0.613,2.667-0.546
			c-0.591,0.064,2.192-0.048,3.341,0.213c0,0-0.008,0-0.008,0.002c1.081-0.182,2.19-0.373,3.814-0.291
			c0.424,0.146-0.326,0.548-0.05,0.645c1.06-0.434,5.128-0.238,6.472-0.705c-0.448,0.113-0.466,0.37-0.315,0.418l0.889-0.353
			c1.017,0.082,1.167,0.129,1.006,0.337c3.054-0.013-0.983-0.596,2.645-0.417c-0.283,0.033-0.146,0.08-0.738,0.145
			c3.643,0.051,7.026-0.38,10.374-0.298c0.998,0.468-2.918,0.191-1.779,0.578c4.819-0.206,9.968-0.83,14.636-0.827l-0.871-0.033
			c0.631-0.709,3.483,0.259,5.834-0.125c-0.576,0.064-0.749,0.403-0.594,0.321c3.198,0.034,6.527-0.328,11.363-0.664l-0.595,0.193
			c1.886,0.114,4.96-0.029,6.996,0.004c0.6-0.193,1.763-0.192,1.05-0.435c6.296,0.863,11.949-0.833,17.534-0.123
			c-0.665,0.019-1.582,0.194-1.054,0.183l4.736-0.28c-0.382-0.292-0.626-0.167-1.627-0.378c0.596-0.194,1.93-0.365,3.104-0.394
			c-2.127,0.252,0.029,0.485,0.954,0.631c-0.155-0.09,0.157-0.2,0.077-0.292c2.489,0.478,0.4-0.618,3.789-0.337l-0.176,0.162
			c1.263-0.111,2.424-0.35,3.789-0.336c0.575,0.335-1.342,0.196-1.423,0.485c1.916-0.067,3.766-0.754,5.509-0.448
			c-0.813,0.117-1.982,0.147-2.794,0.264c1.898,0.365,2.114,0.255,3.52,0.286l-0.138-0.006l3.249,0.107l-0.83-0.091
			c2.376-0.969,4.879-0.285,8.094-0.96c-3.125,0.641-0.51,0.34-0.74,0.742c0.826,0.089,2.084,0.182,1.729,0.302
			c1.52-0.356,2.555,0.191,4.699-0.329c0.099,0.125,1.633-0.027,1.297,0.301c1.982-0.147-0.476-0.21-0.312-0.375
			c3.049-0.509,7.203,0.354,11.59-0.349c1.437-0.128,2.429-0.272,3.299-0.417c0.47-0.074,0.753-0.145,1.14-0.215
			c0.378-0.071,0.799-0.141,1.301-0.209c0.083,0.484,0.164,1.123,0.236,1.996c-0.088,0.598-0.209,0.354-0.309-0.03
			c-0.1-0.346-0.176-0.748-0.176-0.748c-0.075,0.719-0.092,1.624-0.068,2.444c0.022,0.826,0.088,1.637,0.183,2.539
			c-0.12-0.363-0.204,0.016-0.335,0.57c0.069,1.449,0.488,0.958,0.347,2.875c-0.151-0.324-0.388-0.74-0.548-1.436
			c0.159,1.707,0.438,3.388,0.596,5.154c-0.212,0.475-0.363-1.06-0.523-1.679c0.148,1.985,0.326,5.146,0.692,5.752l0.095-1.279
			c0.034,0.724-0.293,0.38-0.371-0.153c-0.316-1.697,0.063-2.46,0.189-2.56l0.111,1.257c0.718-1.312-0.241-5.057-0.26-7.594
			l0.568,1.043l-0.513-2.59c0.127-0.556,0.423-0.942,0.533,0.309c0.226-1.825-0.23-1.605,0.031-3.175
			c0.042-0.173,0.07-0.096,0.095,0.063l-0.207-1.873c0.123,0.35,0.371-0.544,0.326,0.842c0.048-0.886,0.047-1.746,0.02-2.478
			c-2.912,0.1-4.032,0.495-5.017,0.197l0.266-0.04c-4.42,0.291-0.418,0.41-3.726,0.958l-2.258-0.931l-0.425,0.41
			c-0.456-0.003-1.36-0.012-1.197-0.175c-1.692,0.314,0.294,0.167-0.686,0.448c-2.206-0.311-6.053,0.316-6.563-0.308
			c-0.78,0.323,2.107,0.184-0.234,0.452c-0.685-0.668-2.707,0.183-4.722-0.083c0.608-0.368,2.514-0.227,0.498-0.494
			c-1.196,0.626-3.911-0.036-5.602,0.119c-0.068,0.477-3.676,0.287-6.513,0.514c0.176-0.163-5.351-0.131-7.997-0.239l0.075-0.081
			c-0.499,0.492-3.228,0.468-5.21,0.616c0.071-0.29,0.426-0.412,1.497-0.566l-1.864,0.047c-0.438,0.164-1.018,0.26-2.227,0.344
			l0.461-0.37c-2.483,0.079-4.99,0.544-8.191,0.381c-0.172,0.338,2.563,0.87-0.81,1.175c-0.129-0.177-0.262-0.484,0.621-0.58
			c-0.29,0.031-1.029,0.175-1.616,0.112l1.344-0.337c-1.458-0.098-0.755,0.273-1.919,0.273c0.018-0.259-0.865-0.164-0.704-0.373
			c0.296-0.032,1.018,0.083,1.461-0.03c-1.313-0.014-2.903-0.129-3.432-0.312c0.118,0.145,0.009,0.348-0.95,0.404
			c-2.483,0.079-0.858-0.29-2.31-0.387c-0.598,0.193-2.187,0.046-2.219,0.433c-0.727,0.016-0.864-0.161-1.148-0.259
			c-1.28,0.202-6.001,0.194-4.544,0.57l0.331,0.029c-0.062,0.006-0.135,0.031-0.21,0.031c0.011,0,0,0,0.011,0h-0.011
			c-4.203,0-8.756-0.017-12.932,0.25l0.005-0.134c-2.493,0.208-5.552,0.219-7.327,0.541c-0.738,0.017-1.747-0.195-1.436-0.357
			c-1.904,0.143-2.115,0.292-4.875,0.146c1.912-0.272-0.667-0.184,1.96-0.213c-2.48-0.051-3.047-0.245-5.699,0.173
			c0.898-0.353-1.875-0.372-3.051-0.245l1.742,0.195c-1.323,0.081-2.483,0.079-3.659,0.079l0.626-0.451
			c-5.085-0.406-9.125,1.122-13.006,0.33c-1.333,0.336,2.76,0.147,1.568,0.532c-2.333-0.002-4.779-0.567-5.51-0.552
			c-3.201-0.164-2.965,0.708-6.313,0.625c0.432,0.144,0.845,0.549-1.65,0.756c-2.336-0.001-2.885-0.582-1.415-0.742
			c0.56-0.026,0.831,0.016,0.809,0.069c0.752-0.074,1.74-0.165,0.813-0.311l-0.3,0.163c-1.162-0.13-4.373-0.037-3.625-0.309
			c-1.76,0.19-0.748,0.272,0.561,0.321c-3-0.152-4.678,0.107-7.763,0.03c0.491,0.073,0.947,0.245,0.459,0.255
			c-4.524-0.083-1.983,0.342-5.044,0.484c-1.745-0.194,0.61-0.58-2.468-0.307c-1.887-0.115-0.409-0.403,0.337-0.547
			c-2.802,0.368-5.254-0.069-6.859-0.085l1.476-0.161c-0.882,0.096-1.607,0.112-2.345,0.128l0.852,0.29
			c-0.869-0.032-1.605-0.016-1.592-0.146c-0.89,0.225,0.697,0.5-1.072,0.821c-1.162-0.13-3.523,0.253-3.934-0.147
			c3.646,0.051-0.412-0.404,2.669-0.545c-0.593,0.063-1.319,0.079-2.192,0.045c-0.132-0.043,0.121-0.089,0.358-0.118
			c-3.495-0.284-1.591,0.504-5.204,0.582c0.453-0.244-0.848-0.42-1.436-0.356c1.455-0.03,0.705,0.37-0.626,0.581
			c-2.321-0.125-2.515,0.196-3.727,0.204l1.386,0.052c-0.463,0.243-1.623,0.241-3.236,0.353c-0.142-0.177,1.464-0.16,0.885-0.226
			c-1.783,0.452-4.061-0.324-6.554,0.012c-1.162-0.129-0.123-0.434-1.143-0.515c-2.794,0.368-3.042-0.245-5.98,0.075
			c0.855,0.292,1.002,0.211-1.064,0.565l4.835-0.337l-3.095,0.529c1.461-0.031,3.078-0.271,3.955-0.239
			c-1.475,0.291-1.325,0.209-0.618,0.452c-2.011-0.42-3.958,0.368-6.276,0.108l0.052-0.774c-3.482-0.26-6.164,0.545-10.68,0.46
			l1.453,0.099c-0.598,0.322-2.785,0.11-4.242,0.27c0.13-0.261-0.786-0.333-1.414-0.478c0.081,0.189-3.302,0.062-3.699,0.587
			l-2.022-0.291c-3.646-0.051-4.14,0.836-7.644,0.833c1.048-0.307-0.548-0.451,1.792-0.709c-1.169,0.026-2.221,0.004-2.235,0.184
			c-0.687-0.146-3.234,0.426-4.314,0.207c-0.49,0.125-0.645,0.399-1.958,0.41c-0.145-0.049,0.002-0.128,0.002-0.128
			c-0.002,0.128-2.051,0.224-0.897,0.481c-3.621-0.718-10.065,0.302-13.217-0.314c-2.55,0.148-5.622,0.306-7.938,0.38
			c0.147-0.08,0.004-0.128,0.444-0.112c-3.201-0.162-1.947,0.79-5.589,0.608c-1.868-0.372,1.925-0.272,0.763-0.402
			c-0.524-0.837-4.385,0.223-6.843-0.214l0.591-0.064c-1.878-0.243-4.556,0.433-7.614,0.445c0,0,0.147-0.079,0.015-0.128
			c-2.079,0.483-6.032,0.722-8.969,0.914c0.907-0.354,1.332-0.208,0.765-0.532c-1.316,0.08,0.399,0.533-2.229,0.691
			c-0.86-0.162-2.761-0.274-3.022-0.628l2.48-0.08c-1.282-0.437-3.211,0.093-4.52,0.044l0.162-0.208
			c-3.801,0.158-3.841,0.673-7.929,0.734l0.426,0.145c-2.221,0.563-1.879-0.241-4.098,0.191l-0.687-0.5
			c-1.471,0.16-5.15,0.625-7.79,0.786c1.487-0.42,4.575-0.69,6.483-0.963c-1.461,0.031-4.963,0.158-5.718,0.431
			c0.587-0.064,1.326-0.209,1.91-0.144c-1.783,0.45-4.136,0.706-7.047,0.767c0.161-0.331-0.596-0.453-1.76-0.492
			c-0.583-0.02-1.267-0.019-1.991-0.013c-1.063,0.013-2.184,0.027-3.267,0.04c0.007,1.132,0.004,2.298-0.033,3.23
			c-0.044,0.65-0.12,1.197-0.246,1.565c0.495,5.141,0.089,10.219,0.294,16.217c0.728-2.147,0.064,1.75,0.855,1.363
			c0.084,1.396,0.084,1.93,0.035,2.057l-0.179,2.074c-0.051,1.064-0.102,2.126-0.003,3.033c0.028,0.056,0.061,0.112,0.099,0.17
			c0.635,0.091,0.238,0.147-0.45,0.198c-0.06-0.692-0.114-1.787-0.207-1.619c0.002,0.787,0.004,1.395,0.005,1.832
			c2.704,0.036,0.827,0.31,3.892,0.419c-0.422-0.276,1.054-0.436,2.801-0.369l-2.465-0.309c4.266-0.529,3.712,0.581,8.012,0.056
			l-1.356,0.283c2.208-0.2,8.158-0.191,10.31-0.886c0.394,0.083,0.916,0.29-0.057,0.371c5.288-0.031,11.749-0.968,15.865-0.672
			l-0.396,0.206c0.985-0.082,1.708-0.409,2.947-0.243c-0.061,0.082-0.392,0.206,0.065,0.206c0.52-0.081,2.611-0.406,3.92-0.323
			l-1.111,0.247c5.161,0.132,7.898-0.727,12.218-0.965c0.003,0.575,4.064,0.665,6.091,0.708l-0.069,0.083
			c6.005-0.074,10.185-0.724,15.739-1.084c3.466,0.542,11.695-0.021,17.249,0.195c-0.851-0.084,0.127-0.348,1.112-0.43
			c1.304,0.087,3.588,0.151,3.395,0.151h-0.464c0.993,1,3.665,0.188,5.753,0.151l0.328-0.75c5.487,0.871,14.304-0.742,17.307,0.085
			c1.313-0.204,2.946-0.255,4.249-0.459l-0.062,0.366c3.654,0.005,5.479,0.004,9.991-0.192l-0.915,0.285
			c2.548-0.038,3.19-1.146,5.538-1.224l0.721,0.535c4.441-0.116,8.95,0.26,13.328-0.348c-0.071,0.083-0.197,0.245-0.917,0.284
			c2.092-0.036,8.098,0.179,7.32-0.562c0.064,0.493,4.585-0.061,6.979-0.337l-0.364,0.373c2.013-0.515,2.075-0.644,4.899-0.841
			c0.672,0.031,0.594,0.277-0.298,0.206c2.237,0.136,1.731-0.387,4.444-0.258l-1.004,0.257c2.299-0.028,2.113-0.148,3.372-0.45
			c1.441-0.183,4.361-0.014,4.708,0.308c0.305-0.209,1.556-0.509,2.912-0.446c0.187,0.12-0.305,0.209-0.552,0.253
			c3.849,0.154,5.703-0.562,8.354-0.269c0.057,0.12,0.231,0.176,0.451,0.207c-3.051,0.065-5.51,0.104-5.28,0.073
			c0.008,0.336,2.474,0.334,0.525,0.846c1.972-0.3,5.343-0.933,7.75-0.833c0.116,0.029,0.231,0.059,0.319,0.109l-0.247,0.043
			c0.556,0.021,1.051-0.023,1.518-0.09c0.768,0.037,1.257,0.066,1.992,0.052c0.292,0.271,2.831,0.082,4.061,0.066
			c-0.111-0.365,1.501-0.346-0.015-0.613c0.196,0.022-0.231,0.05-1.047,0.086c-0.186,0.014-0.402,0.025-0.524,0.05
			c0.024-0.01,0.052-0.022,0.083-0.035c-0.806,0.027-1.859,0.06-3.055,0.099c0.967-0.209,1.979-0.392,3.343-0.22
			c0.625-0.252,1.313-0.511,1.701-0.635c1.695,0.471,4.944,0.67,5.403,0.976c3.749-0.297,8.84-0.35,11.184-1.099
			c1.065-0.113,1.231,0.169,1.632,0.267c-0.614,0.085-1.346,0.092-1.678,0.199c2.129-0.229,6.321-0.222,6.817-0.716
			c2.695,0.153-1.5,0.48,2.193,0.312l-0.494,0.161c7.288,0.594,11.789-1.518,19.873-0.723c-0.56-0.047-0.84-0.069-0.956-0.147
			c9.2,0.215,18.927-0.867,28.012-0.395c2.58,0.077,2.852-0.238,4.419-0.51l0.568,0.381l2.679-0.52
			c3.805-0.427,6.628,0.809,11.441,0.062l-0.631-0.252c1.735,0.009,5.491-0.289,5.207,0.023c0.177-0.052,0.563-0.29,1.244-0.167
			l0.058,0.206l4.251-0.458c3.306,0.069-0.497,0.833,4.323,0.756c1.789-0.124,5.086-0.726,4.41-0.847
			c-0.724,0.006-1.851-0.084-1.909-0.29l1.636-0.147c0.282-0.617,1.526-1.271-2.506-1.598l-2.792,0.439l-0.91-0.273l2.357-0.076
			c-1.344-0.245-2.187,0.021-3.132,0.213c-0.229-0.152-0.625-0.253-1.183-0.297l-2.737,0.647c-0.339-0.23,1.223-0.502-0.627-0.589
			c-1.282,0.302,1.249,0.504-0.88,0.732c-1.348-0.243-0.962-0.478-2.529-0.204c-0.225-0.151,0.106-0.259,0.729-0.344
			c-1.397,0.222-3.706,0.17-4.421,0.511c-1.405-0.308-4.726,0.203-4.602-0.376c-0.438,0.149-2.457,0.512-3.743,0.567
			c2.334-0.746-4.816,0.077-4.213-0.678c-1.725,0.663-6.276,0.428-9.35,0.847c0.171-0.054,0.507-0.161,0.78-0.137
			c-1.736-0.01-2.244-0.184-3.362-0.274c-0.21,0.517-2.908,0.7-4.356,1.051c-2.138-0.443,1.276-0.634,0.598-1.091
			c0.118,0.413-3.684,0.503-2.951,0.832c-1.634-0.266-1.405-0.114-2.253-0.519c-0.269,0.647-1.512,0.144-2.85,0.571
			c-2.36-0.259-0.62-0.586-3.2-0.328C276.878,122.706,279.171,122.423,279.171,122.423z M217.734,125.017v-0.007
			c0.529-0.021,0.979-0.04,1.268-0.051C218.738,124.971,218.371,124.988,217.734,125.017z M212.568,125.149
			c0.628-0.012,1.412-0.026,2.24-0.04c0.184,0.121-0.009,0.256-0.529,0.263C214.561,125.28,213.341,125.237,212.568,125.149z
			 M223.555,127.431c-0.816,0.072-1.092,0.006-1.206-0.066c0.386-0.021,0.836-0.046,1.429-0.079
			c0.024-0.012,0.069-0.035,0.095-0.047C223.797,127.311,223.71,127.379,223.555,127.431z"/>
		<path fill="#00A99D" d="M225.014,126.914c0.117-0.012,0.183-0.029,0.336-0.036c-0.169-0.024-0.329-0.047-0.489-0.07
			c-0.099,0.041-0.199,0.084-0.288,0.121C224.722,126.924,224.876,126.919,225.014,126.914z"/>
		<path fill="#00A99D" d="M260.629,96.94l-0.108-0.006c0.091,0.013,0.175,0.025,0.229,0.047
			C260.678,96.964,260.676,96.953,260.629,96.94z"/>
		<polygon fill="#00A99D" points="141.227,126.17 141.237,126.263 141.687,126.172 		"/>
		<path fill="#00A99D" d="M289.107,97.513c0.057,0.03,0.164,0.061,0.376,0.085C289.467,97.574,289.305,97.545,289.107,97.513z"/>
		<path fill="#00A99D" d="M301.398,97.298l1.741,0.089C302.386,97.33,301.838,97.309,301.398,97.298z"/>
		<path fill="#00A99D" d="M310.852,97.252c0.117-0.068,0.15-0.117,0.182-0.162l-0.02-0.002L310.852,97.252z"/>
		<path fill="#00A99D" d="M160.636,101.318c-0.127,0.009-0.251,0.017-0.364,0.025C159.418,101.436,160,101.393,160.636,101.318z"/>
		<path fill="#00A99D" d="M205.321,99.378c-0.474,0.078-0.938,0.154-1.433,0.208C204.684,99.596,205.304,99.587,205.321,99.378z"/>
		<path fill="#00A99D" d="M110.727,102.969c0.005-0.002,0-0.004,0.005-0.006c-0.107,0.002-0.201,0.004-0.308,0.008L110.727,102.969z
			"/>
		<path fill="#00A99D" d="M201.809,99.631c0.798,0.053,1.462,0.021,2.079-0.044C203.236,99.578,202.465,99.559,201.809,99.631z"/>
		<path fill="#00A99D" d="M335.14,111.567l-0.003,0.455c0.023-0.008,0.044,0.019,0.061,0.053L335.14,111.567z"/>
		<path fill="#00A99D" d="M335.197,112.076l0.056,0.504C335.247,112.348,335.239,112.147,335.197,112.076z"/>
		<path fill="#00A99D" d="M335.371,113.642l-0.118-1.062C335.261,112.949,335.26,113.403,335.371,113.642z"/>
		<path fill="#00A99D" d="M335.008,99.055l-0.137-0.14C334.9,98.993,334.944,99.042,335.008,99.055z"/>
		<path fill="#00A99D" d="M334.688,96.711c0.06,0.006,0.124,0.012,0.2,0.02c-0.035,0.232-0.078,0.506-0.121,0.793l-0.025,0.183
			c-0.007,0.051-0.012,0.104-0.012,0.272c-0.001,0.275,0.009,0.551,0.033,0.821l0.108,0.115c-0.046-0.126-0.06-0.329-0.058-0.577
			c0.004-0.238,0.023-0.599,0.053-0.687c0.057-0.304,0.125-0.742,0.1-1.003C334.867,96.658,334.773,96.677,334.688,96.711z"/>
		<path fill="#00A99D" d="M319.59,95.427l3.188,0.029c-0.56-0.128-1.297-0.302,0.15-0.371
			C318.903,94.759,323.763,95.383,319.59,95.427z"/>
		<path fill="#00A99D" d="M309.708,95.46c1.711-0.107-0.024-0.205,0.064-0.288C308.69,95.328,308.429,95.367,309.708,95.46z"/>
		<path fill="#00A99D" d="M238.339,97.186l0.165-0.339C237.185,96.927,238.494,96.977,238.339,97.186z"/>
		<polygon fill="#00A99D" points="224.739,99.244 226.027,99.421 226.631,99.1 		"/>
		<polygon fill="#00A99D" points="216.621,97.057 217.197,96.996 214.999,97.17 		"/>
		<path fill="#00A99D" d="M96.761,100.076l0.409,0.402C98.06,100.383,98.235,99.916,96.761,100.076z"/>
		<path fill="#00A99D" d="M45.025,101.748c-0.568-0.193-2.027-0.289-2.919-0.065C43.27,101.682,44.434,101.814,45.025,101.748z"/>
		<polygon fill="#00A99D" points="127.583,129.806 126.546,129.969 128.504,129.807 		"/>
	</g>
</g>
<g>
	<path d="M41.744,72.372v6.591h5.131v5.272h-5.131v8.333c0,2.778,0.659,4.049,2.825,4.049c0.895,0,1.601-0.094,2.119-0.188
		l0.047,5.414c-0.941,0.377-2.636,0.612-4.661,0.612c-2.307,0-4.237-0.8-5.367-1.977c-1.318-1.365-1.977-3.578-1.977-6.826v-9.416
		h-3.06v-5.272h3.06v-4.991L41.744,72.372z"/>
	<path d="M51.02,68.559h7.156v13.134h0.095c0.753-0.988,1.694-1.741,2.825-2.354c1.035-0.564,2.4-0.894,3.719-0.894
		c4.566,0,8.05,3.154,8.05,10.074v13.465h-7.156V89.32c0-3.013-1.036-5.085-3.719-5.085c-1.883,0-3.06,1.224-3.578,2.495
		c-0.188,0.471-0.236,1.083-0.236,1.601v13.652H51.02V68.559z"/>
	<path d="M84.12,92.756c0.235,2.966,3.154,4.378,6.497,4.378c2.448,0,4.426-0.33,6.355-0.941l0.942,4.849
		c-2.354,0.941-5.226,1.412-8.333,1.412c-7.815,0-12.287-4.52-12.287-11.723c0-5.837,3.625-12.287,11.628-12.287
		c7.438,0,10.263,5.791,10.263,11.487c0,1.225-0.141,2.307-0.235,2.825H84.12z M92.547,87.86c0-1.742-0.753-4.661-4.049-4.661
		c-3.013,0-4.237,2.73-4.426,4.661H92.547z"/>
	<path d="M105.372,59.667h22.791v4.583h-17.328v14.063h16.01v4.521h-16.01v19.149h-5.462V59.667z"/>
	<path d="M141.407,59.667v42.317h-5.462V59.667H141.407z"/>
	<path d="M150.95,60.232c2.762-0.565,6.718-0.878,10.485-0.878c5.839,0,9.606,1.067,12.243,3.453
		c2.134,1.883,3.327,4.772,3.327,8.037c0,5.588-3.516,9.292-7.973,10.799v0.188c3.265,1.13,5.211,4.144,6.215,8.539
		c1.382,5.902,2.386,9.983,3.265,11.615h-5.65c-0.691-1.193-1.632-4.834-2.825-10.108c-1.255-5.839-3.516-8.037-8.476-8.225h-5.149
		v18.333h-5.462V60.232z M156.412,79.507H162c5.839,0,9.543-3.202,9.543-8.036c0-5.462-3.955-7.848-9.731-7.911
		c-2.637,0-4.521,0.251-5.4,0.502V79.507z"/>
	<path d="M183.971,95.329c2.449,1.506,6.027,2.763,9.795,2.763c5.588,0,8.852-2.951,8.852-7.221c0-3.956-2.26-6.215-7.974-8.413
		c-6.906-2.448-11.175-6.027-11.175-11.992c0-6.592,5.462-11.489,13.687-11.489c4.333,0,7.472,1.004,9.355,2.072l-1.507,4.458
		c-1.381-0.753-4.206-2.009-8.036-2.009c-5.776,0-7.974,3.454-7.974,6.342c0,3.956,2.574,5.901,8.413,8.162
		c7.157,2.762,10.8,6.216,10.8,12.431c0,6.53-4.835,12.181-14.818,12.181c-4.081,0-8.539-1.193-10.799-2.7L183.971,95.329z"/>
	<path d="M223.71,64.313h-12.87v-4.646h31.329v4.646h-12.934v37.671h-5.525V64.313z"/>
	<path d="M258.439,76.938v10.263h9.84v4.426h-9.84v10.357h-4.613V91.627h-9.839v-4.426h9.839V76.938H258.439z"/>
	<path d="M289.657,85.883c0,11.911-4.097,16.478-9.182,16.478c-5.272,0-8.804-5.603-8.804-16.29c0-10.498,3.767-16.195,9.322-16.195
		C286.407,69.876,289.657,75.761,289.657,85.883z M275.438,86.119c0,6.544,1.271,13.041,5.273,13.041
		c4.095,0,5.179-6.92,5.179-13.135c0-5.931-1.084-12.946-5.226-12.946C276.709,73.078,275.438,79.668,275.438,86.119z"/>
	<path d="M293.99,101.984v-31.73h3.436l5.839,14.876c1.318,3.389,2.966,7.626,4.049,11.063h0.093
		c-0.282-4.991-0.422-9.086-0.422-14.594V70.253h3.248v31.73h-3.438l-6.026-15.253c-1.271-3.202-2.636-6.826-3.765-10.781h-0.095
		c0.282,4.237,0.377,8.286,0.377,15.065v10.969H293.99z"/>
	<path d="M315.885,70.253h3.625v28.67h8.944v3.06h-12.569V70.253z"/>
	<path d="M333.023,101.984V88.566l-6.968-18.313h3.813l2.825,7.956c0.8,2.212,1.647,4.708,2.354,7.156h0.093
		c0.659-2.448,1.46-4.849,2.309-7.297l2.684-7.815h3.813l-7.297,18.172v13.559H333.023z"/>
	<path fill="#FFFFFF" d="M40.806,119.635c-1.342,0.684-3.014,0.896-4.286,0.896c-3.297,0-4.993-1.86-4.993-4.852
		c0-3.509,2.543-7.159,6.712-7.159c2.331,0,4.003,1.296,4.003,3.438c0,2.944-2.85,4.003-7.466,3.886
		c0,0.329,0.118,0.847,0.354,1.177c0.448,0.589,1.225,0.896,2.214,0.896c1.248,0,2.308-0.283,3.226-0.731L40.806,119.635z
		 M37.815,110.992c-1.577,0-2.473,1.295-2.708,2.379c2.637,0.024,3.956-0.353,3.956-1.39
		C39.063,111.393,38.593,110.992,37.815,110.992z"/>
	<path fill="#FFFFFF" d="M56.581,103.575l-2.332,12.246c-0.283,1.483-0.494,3.108-0.542,4.474h-3.109l0.166-1.86h-0.047
		c-1.013,1.53-2.425,2.121-3.768,2.121c-1.955,0-3.58-1.555-3.58-4.357c0-4.003,2.896-7.678,7.253-7.678
		c0.471,0,1.083,0.071,1.578,0.259l0.989-5.204H56.581z M51.706,111.487c-0.259-0.212-0.776-0.4-1.342-0.4
		c-2.026,0-3.462,2.354-3.462,4.569c0,1.389,0.612,2.166,1.602,2.166c0.965,0,2.167-1.036,2.614-3.226L51.706,111.487z"/>
	<path fill="#FFFFFF" d="M57,121.896c0.636,0.378,2.049,0.636,3.014,0.636c1.696,0,2.968-0.753,3.438-3.062l0.188-0.965h-0.047
		c-0.895,1.152-1.931,1.694-3.297,1.694c-2.284,0-3.674-1.859-3.697-4.097c0-3.815,2.708-7.583,7.725-7.583
		c1.625,0,3.061,0.283,4.262,0.801l-1.743,9.491c-0.4,2.119-1.036,4.004-2.426,5.11c-1.248,0.989-2.92,1.295-4.45,1.295
		c-1.531,0-2.968-0.283-3.745-0.73L57,121.896z M64.913,111.323c-0.259-0.118-0.754-0.212-1.225-0.212
		c-2.048,0-3.508,2.285-3.508,4.475c0,1.154,0.518,2.001,1.554,2.001c1.107,0,2.237-1.225,2.591-3.179L64.913,111.323z"/>
	<path fill="#FFFFFF" d="M79.015,119.635c-1.342,0.684-3.015,0.896-4.286,0.896c-3.296,0-4.993-1.86-4.993-4.852
		c0-3.509,2.544-7.159,6.712-7.159c2.331,0,4.004,1.296,4.004,3.438c0,2.944-2.85,4.003-7.466,3.886
		c0,0.329,0.118,0.847,0.353,1.177c0.448,0.589,1.225,0.896,2.214,0.896c1.248,0,2.307-0.283,3.226-0.731L79.015,119.635z
		 M76.024,110.992c-1.578,0-2.473,1.295-2.708,2.379c2.638,0.024,3.956-0.353,3.956-1.39
		C77.272,111.393,76.802,110.992,76.024,110.992z"/>
	<path fill="#FFFFFF" d="M84.591,124.957l2.213-11.727c0.259-1.366,0.542-3.273,0.684-4.451h3.038l-0.212,1.672h0.047
		c0.942-1.248,2.307-1.931,3.697-1.931c2.497,0,3.697,2.002,3.697,4.357c0,4.003-2.661,7.678-6.664,7.678
		c-0.942,0-1.743-0.236-2.143-0.473H88.9l-0.942,4.875H84.591z M89.419,117.421c0.376,0.353,0.895,0.565,1.554,0.565
		c1.813,0,3.226-2.59,3.226-4.851c0-0.918-0.376-1.884-1.483-1.884c-1.271,0-2.449,1.437-2.873,3.697L89.419,117.421z"/>
	<path fill="#FFFFFF" d="M98.74,120.294l1.295-6.853c0.33-1.742,0.471-3.673,0.588-4.663h2.944
		c-0.071,0.777-0.141,1.555-0.212,2.355h0.071c0.8-1.531,2.096-2.615,3.673-2.615c0.212,0,0.424,0,0.636,0.024l-0.66,3.297
		c-0.165-0.023-0.353-0.023-0.542-0.023c-2.167,0-3.179,1.931-3.603,4.192l-0.801,4.285H98.74z"/>
	<path fill="#FFFFFF" d="M107.45,120.294l2.19-11.515h3.391l-2.19,11.515H107.45z M110.111,105.694
		c0.024-1.154,0.918-1.931,1.955-1.931c0.989,0,1.695,0.659,1.695,1.672c0,1.201-0.918,1.908-2.001,1.908
		C110.818,107.343,110.111,106.707,110.111,105.694z"/>
	<path fill="#FFFFFF" d="M113.689,120.294l1.46-7.771c0.283-1.459,0.471-2.731,0.612-3.744h3.015l-0.235,1.908h0.047
		c1.083-1.507,2.52-2.167,4.051-2.167c1.884,0,2.943,1.154,2.943,3.133c0,0.518-0.094,1.389-0.188,1.955l-1.271,6.687h-3.391
		l1.201-6.381c0.07-0.4,0.118-0.872,0.118-1.295c0-0.801-0.283-1.366-1.13-1.366c-1.107,0-2.402,1.39-2.873,3.933l-0.966,5.109
		H113.689z"/>
	<path fill="#FFFFFF" d="M133.467,105.553l-0.613,3.226h2.449l-0.494,2.567h-2.449l-0.777,3.909
		c-0.094,0.471-0.188,1.059-0.188,1.46c0,0.565,0.235,0.965,0.965,0.965c0.306,0,0.635,0,0.942-0.047l-0.4,2.661
		c-0.424,0.166-1.272,0.261-2.002,0.261c-2.025,0-2.991-1.037-2.991-2.474c0-0.636,0.071-1.272,0.236-2.143l0.895-4.592h-1.46
		l0.471-2.567h1.484l0.471-2.425L133.467,105.553z"/>
	<path fill="#FFFFFF" d="M135.135,120.294l2.19-11.515h3.391l-2.19,11.515H135.135z M137.796,105.694
		c0.024-1.154,0.918-1.931,1.955-1.931c0.989,0,1.695,0.659,1.695,1.672c0,1.201-0.918,1.908-2.002,1.908
		C138.503,107.343,137.796,106.707,137.796,105.694z"/>
	<path fill="#FFFFFF" d="M141.374,120.294l1.46-7.771c0.282-1.459,0.471-2.731,0.612-3.744h3.015l-0.235,1.908h0.047
		c1.083-1.507,2.52-2.167,4.051-2.167c1.884,0,2.943,1.154,2.943,3.133c0,0.518-0.094,1.389-0.188,1.955l-1.271,6.687h-3.391
		l1.201-6.381c0.07-0.4,0.118-0.872,0.118-1.295c0-0.801-0.282-1.366-1.13-1.366c-1.107,0-2.402,1.39-2.873,3.933l-0.966,5.109
		H141.374z"/>
	<path fill="#FFFFFF" d="M155.382,121.896c0.636,0.378,2.049,0.636,3.014,0.636c1.695,0,2.968-0.753,3.438-3.062l0.188-0.965h-0.047
		c-0.895,1.152-1.931,1.694-3.297,1.694c-2.284,0-3.674-1.859-3.697-4.097c0-3.815,2.708-7.583,7.725-7.583
		c1.625,0,3.061,0.283,4.262,0.801l-1.743,9.491c-0.4,2.119-1.036,4.004-2.426,5.11c-1.248,0.989-2.92,1.295-4.451,1.295
		c-1.531,0-2.967-0.283-3.745-0.73L155.382,121.896z M163.294,111.323c-0.258-0.118-0.753-0.212-1.224-0.212
		c-2.048,0-3.508,2.285-3.508,4.475c0,1.154,0.518,2.001,1.554,2.001c1.106,0,2.237-1.225,2.591-3.179L163.294,111.323z"/>
	<path fill="#FFFFFF" d="M182.293,119.87c-0.542,0.283-1.743,0.66-3.274,0.66c-3.438,0-5.675-2.332-5.675-5.816
		c0-3.509,2.402-6.052,6.123-6.052c1.224,0,2.308,0.306,2.873,0.588l-0.471,1.601c-0.494-0.282-1.271-0.542-2.402-0.542
		c-2.614,0-4.027,1.931-4.027,4.31c0,2.638,1.695,4.263,3.956,4.263c1.178,0,1.955-0.307,2.543-0.566L182.293,119.87z"/>
	<path fill="#FFFFFF" d="M194.889,114.501c0,4.215-2.919,6.053-5.675,6.053c-3.084,0-5.463-2.262-5.463-5.865
		c0-3.815,2.496-6.052,5.652-6.052C192.675,108.638,194.889,111.016,194.889,114.501z M185.846,114.619
		c0,2.497,1.437,4.38,3.462,4.38c1.978,0,3.461-1.86,3.461-4.428c0-1.931-0.965-4.379-3.415-4.379
		C186.906,110.192,185.846,112.453,185.846,114.619z"/>
	<path fill="#FFFFFF" d="M197.499,111.981c0-1.177-0.024-2.143-0.095-3.085h1.814l0.094,1.837h0.071
		c0.635-1.084,1.695-2.096,3.58-2.096c1.554,0,2.73,0.942,3.226,2.285h0.047c0.354-0.636,0.801-1.13,1.271-1.484
		c0.683-0.519,1.437-0.801,2.52-0.801c1.507,0,3.745,0.989,3.745,4.946v6.71h-2.025v-6.452c0-2.189-0.801-3.508-2.473-3.508
		c-1.177,0-2.096,0.871-2.449,1.884c-0.095,0.282-0.166,0.659-0.166,1.036v7.041h-2.024v-6.829c0-1.813-0.801-3.132-2.378-3.132
		c-1.295,0-2.238,1.036-2.567,2.072c-0.117,0.306-0.165,0.659-0.165,1.012v6.876h-2.025V111.981z"/>
	<path fill="#FFFFFF" d="M217.133,112.618c0-1.46-0.047-2.638-0.094-3.721h1.861l0.094,1.955h0.046
		c0.848-1.389,2.19-2.213,4.051-2.213c2.755,0,4.828,2.332,4.828,5.793c0,4.098-2.497,6.124-5.182,6.124
		c-1.507,0-2.826-0.661-3.508-1.791h-0.047v6.193h-2.049V112.618z M219.182,115.656c0,0.306,0.047,0.589,0.094,0.847
		c0.377,1.437,1.625,2.426,3.108,2.426c2.19,0,3.462-1.79,3.462-4.403c0-2.285-1.202-4.239-3.391-4.239
		c-1.413,0-2.732,1.013-3.132,2.567c-0.071,0.258-0.142,0.564-0.142,0.847V115.656z"/>
	<path fill="#FFFFFF" d="M236.84,120.294l-0.166-1.436h-0.069c-0.636,0.894-1.861,1.696-3.487,1.696
		c-2.307,0-3.484-1.626-3.484-3.274c0-2.755,2.45-4.262,6.853-4.239v-0.235c0-0.942-0.259-2.638-2.59-2.638
		c-1.059,0-2.166,0.33-2.967,0.848l-0.471-1.366c0.941-0.612,2.308-1.012,3.744-1.012c3.487,0,4.334,2.378,4.334,4.663v4.262
		c0,0.989,0.047,1.955,0.188,2.731H236.84z M236.534,114.478c-2.261-0.047-4.828,0.353-4.828,2.566c0,1.343,0.896,1.979,1.954,1.979
		c1.484,0,2.427-0.942,2.756-1.907c0.07-0.212,0.118-0.448,0.118-0.66V114.478z"/>
	<path fill="#FFFFFF" d="M241.875,111.981c0-1.177-0.023-2.143-0.095-3.085h1.838l0.118,1.884h0.047
		c0.564-1.083,1.884-2.143,3.768-2.143c1.578,0,4.026,0.942,4.026,4.851v6.805h-2.072v-6.569c0-1.837-0.682-3.368-2.637-3.368
		c-1.366,0-2.426,0.966-2.778,2.12c-0.095,0.259-0.142,0.612-0.142,0.965v6.853h-2.073V111.981z"/>
	<path fill="#FFFFFF" d="M255.39,108.896l2.495,6.735c0.26,0.754,0.542,1.648,0.731,2.331h0.047
		c0.212-0.683,0.447-1.554,0.729-2.378l2.261-6.688h2.19l-3.109,8.125c-1.482,3.909-2.495,5.912-3.908,7.135
		c-1.013,0.896-2.025,1.249-2.544,1.342l-0.518-1.742c0.518-0.165,1.201-0.494,1.813-1.013c0.565-0.447,1.272-1.248,1.743-2.308
		c0.095-0.212,0.165-0.376,0.165-0.494s-0.047-0.284-0.142-0.542l-4.215-10.503H255.39z"/>
	<path fill="#FFFFFF" d="M263.981,121.236l6.57-17.073h1.601l-6.594,17.073H263.981z"/>
	<path fill="#FFFFFF" d="M277.52,105.482v3.296h2.566v2.638h-2.566v4.168c0,1.39,0.329,2.025,1.412,2.025
		c0.448,0,0.801-0.047,1.061-0.094l0.022,2.708c-0.47,0.188-1.318,0.307-2.331,0.307c-1.153,0-2.119-0.4-2.685-0.99
		c-0.659-0.682-0.988-1.789-0.988-3.414v-4.71h-1.531v-2.638h1.531v-2.496L277.52,105.482z"/>
	<path fill="#FFFFFF" d="M284.793,115.679c0.117,1.484,1.577,2.19,3.249,2.19c1.226,0,2.214-0.165,3.18-0.471l0.471,2.426
		c-1.178,0.47-2.614,0.707-4.167,0.707c-3.91,0-6.147-2.261-6.147-5.864c0-2.92,1.813-6.147,5.817-6.147
		c3.721,0,5.134,2.897,5.134,5.747c0,0.612-0.07,1.154-0.118,1.413H284.793z M289.008,113.23c0-0.872-0.377-2.332-2.024-2.332
		c-1.507,0-2.12,1.366-2.215,2.332H289.008z"/>
	<path fill="#FFFFFF" d="M301.016,120.294l-0.212-1.153h-0.07c-0.754,0.918-1.932,1.414-3.297,1.414
		c-2.332,0-3.721-1.696-3.721-3.534c0-2.991,2.685-4.427,6.758-4.403v-0.165c0-0.613-0.329-1.484-2.096-1.484
		c-1.178,0-2.426,0.4-3.179,0.871l-0.659-2.308c0.801-0.447,2.378-1.013,4.474-1.013c3.838,0,5.063,2.261,5.063,4.969v4.003
		c0,1.107,0.047,2.166,0.164,2.802H301.016z M300.591,114.855c-1.884-0.024-3.344,0.424-3.344,1.813
		c0,0.918,0.613,1.366,1.414,1.366c0.895,0,1.625-0.589,1.86-1.318c0.047-0.188,0.069-0.401,0.069-0.613V114.855z"/>
	<path fill="#FFFFFF" d="M306.899,112.453c0-1.437-0.047-2.661-0.095-3.674h3.015l0.165,1.555h0.07
		c0.494-0.73,1.507-1.814,3.485-1.814c1.484,0,2.662,0.754,3.156,1.955h0.047c0.423-0.589,0.941-1.06,1.483-1.389
		c0.636-0.377,1.342-0.566,2.19-0.566c2.213,0,3.885,1.555,3.885,4.993v6.782h-3.485v-6.264c0-1.672-0.541-2.638-1.695-2.638
		c-0.824,0-1.412,0.565-1.648,1.249c-0.095,0.259-0.142,0.636-0.142,0.918v6.734h-3.484v-6.452c0-1.46-0.519-2.449-1.649-2.449
		c-0.918,0-1.46,0.707-1.672,1.295c-0.117,0.283-0.142,0.612-0.142,0.896v6.71h-3.484V112.453z"/>
	<path d="M34.896,133.161c0.023,0.705-0.495,1.27-1.318,1.27c-0.73,0-1.249-0.564-1.249-1.27c0-0.731,0.542-1.295,1.295-1.295
		C34.401,131.866,34.896,132.43,34.896,133.161z M32.588,147.76v-11.398h2.072v11.398H32.588z"/>
	<path d="M38.097,139.448c0-1.178-0.024-2.144-0.095-3.086h1.837l0.118,1.885h0.047c0.565-1.083,1.884-2.144,3.768-2.144
		c1.577,0,4.026,0.943,4.026,4.851v6.805h-2.072v-6.57c0-1.837-0.683-3.367-2.638-3.367c-1.365,0-2.425,0.966-2.778,2.121
		c-0.094,0.258-0.141,0.61-0.141,0.965v6.851h-2.072V139.448z"/>
	<path d="M57.447,143.555c0.848,0.47,2.292,0.815,3.484,0.815c1.947,0,2.888-1.004,2.888-2.386c0-1.538-0.941-2.292-2.731-3.454
		c-2.889-1.757-3.987-3.985-3.987-5.901c0-3.39,2.26-6.215,6.686-6.215c1.381,0,2.7,0.375,3.328,0.753l-0.659,3.546
		c-0.596-0.375-1.507-0.721-2.7-0.721c-1.758,0-2.605,1.065-2.605,2.197c0,1.254,0.628,1.916,2.92,3.295
		c2.794,1.696,3.83,3.83,3.83,6.06c0,3.862-2.856,6.404-7,6.404c-1.695,0-3.359-0.439-4.049-0.849L57.447,143.555z"/>
	<path d="M74.272,128.328c0.031,1.318-0.911,2.23-2.166,2.23c-1.13,0-2.072-0.912-2.041-2.23c-0.031-1.38,0.973-2.228,2.103-2.228
		C73.362,126.1,74.272,126.947,74.272,128.328z M70.16,147.76v-15.35h4.113v15.35H70.16z"/>
	<path d="M77.159,137.023c0-1.694-0.094-3.17-0.125-4.613h3.547l0.188,1.757h0.063c0.817-1.224,2.135-2.008,3.736-2.008
		c2.92,0,4.081,2.322,4.081,5.743v9.857h-4.112v-9.605c0-1.318-0.314-2.544-1.507-2.544c-0.69,0-1.255,0.473-1.538,1.382
		c-0.126,0.314-0.22,0.817-0.22,1.413v9.354h-4.113V137.023z"/>
	<path d="M102.868,132.41c-0.063,1.382-0.157,3.014-0.157,4.866v8.757c0,3.298-0.596,5.116-1.852,6.31
		c-1.13,1.067-2.731,1.696-4.992,1.696c-1.413,0-2.731-0.251-3.83-0.723l0.753-3.171c0.785,0.345,1.758,0.659,2.951,0.659
		c2.072,0,2.889-1.379,2.889-3.734v-0.942h-0.063c-0.533,0.973-1.601,1.537-2.763,1.537c-3.453,0-4.802-3.765-4.802-7.438
		c0-5.117,2.323-8.067,5.179-8.067c1.224,0,2.229,0.626,2.825,1.788h0.063l0.22-1.538H102.868z M98.63,137.997
		c0-0.406-0.063-0.815-0.157-1.129c-0.188-0.659-0.627-1.257-1.319-1.257c-1.475,0-2.071,2.01-2.071,4.521
		c0,2.856,0.816,4.302,1.978,4.302c0.533,0,1.067-0.284,1.381-1.101c0.125-0.345,0.188-0.815,0.188-1.224V137.997z"/>
	<path d="M112.441,147.76l-0.22-1.507h-0.063c-0.848,1.192-2.041,1.76-3.391,1.76c-2.323,0-4.05-1.946-4.05-4.68
		c0-4.018,3.548-5.681,7.032-5.712v-0.345c0-1.193-0.722-2.072-2.167-2.072c-1.224,0-2.229,0.314-3.139,0.879l-0.753-2.764
		c0.847-0.5,2.637-1.16,4.771-1.16c4.677,0,5.431,3.265,5.431,6.371v5.715c0,1.224,0.063,2.48,0.251,3.515H112.441z
		 M111.876,140.288c-1.381,0.033-3.265,0.473-3.265,2.605c0,1.541,0.848,2.105,1.476,2.105c0.659,0,1.413-0.409,1.695-1.318
		c0.063-0.22,0.094-0.472,0.094-0.723V140.288z"/>
	<path d="M118.781,137.276c0-1.852-0.063-3.423-0.125-4.866h3.579l0.22,1.757h0.063c0.627-1.254,1.789-2.008,3.202-2.008
		c3.39,0,4.771,3.64,4.771,7.909c0,5.464-2.417,7.944-4.992,7.944c-1.255,0-2.103-0.787-2.542-1.507h-0.063v7.282h-4.113V137.276z
		 M122.894,142.143c0,0.531,0.063,1.004,0.22,1.318c0.313,0.94,0.848,1.193,1.318,1.193c1.444,0,1.946-2.136,1.946-4.552
		c0-2.92-0.691-4.491-1.915-4.491c-0.628,0-1.224,0.598-1.381,1.32c-0.157,0.312-0.188,0.721-0.188,1.099V142.143z"/>
	<path d="M144.051,140.038c0,6.404-3.548,7.975-5.871,7.975c-3.673,0-5.87-2.889-5.87-7.88c0-5.525,2.888-7.973,5.933-7.973
		C141.853,132.16,144.051,135.205,144.051,140.038z M136.391,140.038c0,2.636,0.408,4.836,1.883,4.836
		c1.318,0,1.664-2.575,1.664-4.836c0-2.102-0.345-4.772-1.727-4.772C136.705,135.266,136.391,137.936,136.391,140.038z"/>
	<path d="M146.341,137.023c0-1.538-0.063-3.201-0.126-4.613h3.579l0.22,2.228h0.094c0.69-1.633,1.915-2.478,3.045-2.478
		c0.408,0,0.628,0,0.879,0.061v4.082c-0.251-0.063-0.533-0.063-0.879-0.063c-0.878,0-2.04,0.598-2.512,2.197
		c-0.094,0.347-0.156,0.879-0.156,1.541v7.783h-4.144V137.023z"/>
	<path d="M158.897,141.545c0.063,2.386,1.444,3.265,3.265,3.265c1.162,0,2.197-0.25,2.919-0.503l0.565,2.953
		c-1.067,0.406-2.668,0.69-4.238,0.69c-4.175,0-6.467-2.762-6.467-7.567c0-5.147,2.668-8.223,6.152-8.223
		c3.297,0,5.211,2.605,5.211,7.25c0,1.099-0.032,1.696-0.126,2.136H158.897z M162.571,138.656c0-1.977-0.503-3.515-1.727-3.515
		c-1.35,0-1.883,1.977-1.915,3.515H162.571z"/>
</g>
</svg>
