<?xml version="1.0" encoding="utf-8"?>
<!-- Generator: Adobe Illustrator 16.0.0, SVG Export Plug-In . SVG Version: 6.00 Build 0)  -->
<!DOCTYPE svg PUBLIC "-//W3C//DTD SVG 1.1//EN" "http://www.w3.org/Graphics/SVG/1.1/DTD/svg11.dtd">
<svg version="1.1" xmlns="http://www.w3.org/2000/svg" xmlns:xlink="http://www.w3.org/1999/xlink" x="0px" y="0px" width="208px"
	 height="295px" viewBox="0 0 208 295" enable-background="new 0 0 208 295" xml:space="preserve">
<g id="Layer_3">
	<path fill-rule="evenodd" clip-rule="evenodd" fill="#F5F5F5" d="M5.045,298.239c0.02-86.905,0.032-173.812,0.068-260.716
		c0.005-15.229,9.358-26.942,23.701-29.686c2.139-0.41,4.37-0.463,6.56-0.464c46.016-0.024,92.032-0.041,138.049-0.009
		c20.707,0.015,32.658,12.019,32.664,32.676c0.022,86.067,0.04,172.134,0.061,258.199c-1.352,0.007-2.71-0.055-4.058,0.033
		c-3.659,0.24-5.354-1.381-5.141-5.041c0.098-1.672,0.005-3.353,0.005-5.031c-0.001-71.786,0-143.573-0.003-215.361
		c-0.001-8.092-0.013-8.105-8.144-8.106c-55.983-0.003-111.966-0.004-167.95,0.002c-7.556,0.001-7.629,0.074-7.629,7.606
		c-0.005,72.625-0.002,145.251-0.006,217.878C13.223,298.271,13.209,298.271,5.045,298.239z"/>
</g>
<g id="Layer_1">
	<g>
		<g>
			<path fill="none" d="M172.992,2c10.831,0,21.666,0.137,32.492-0.089c2.994-0.063,3.592,0.606,3.586,3.588
				c-0.117,49.16-0.084,98.32-0.084,147.481c0,47.16-0.034,94.319,0.084,141.481c0.008,2.981-0.6,3.586-3.584,3.58
				c-67.323-0.104-134.648-0.104-201.973,0c-2.981,0.006-3.591-0.597-3.583-3.58c0.12-45.828,0.083-91.655,0.083-137.481
				c3.363,0.764,1.933,3.494,1.937,5.33c0.084,42.817,0.032,85.637,0.168,128.455c0.006,1.998-1.945,5.989,2.125,5.832
				c3.2-0.125,1.705-3.787,1.708-5.804c0.083-84.969,0.043-169.941,0.098-254.911C6.059,20.503,19.263,8.131,33.12,8.078
				c46.65-0.18,93.302-0.268,139.95,0.028c18.873,0.12,30.996,12.38,30.966,31.38c-0.134,83.305-0.058,166.61-0.058,249.915
				c0,1.332-0.049,2.668,0.019,3.996c0.069,1.414-0.408,3.322,1.856,3.392c2.67,0.08,1.99-2.095,2.115-3.627
				c0.08-0.992,0.016-1.998,0.016-2.998c0-23.158,0-46.315,0-69.476c0-60.646,0.009-121.292-0.004-181.938
				c-0.004-18.368-9.898-30.199-27.762-34.053C177.891,4.194,174.275,5.733,172.992,2z M104.854,47.001
				c4.652,0,9.308,0.013,13.961-0.004c4.047-0.015,7.035-1.82,7.021-6.024c-0.017-4.203-3.021-5.981-7.063-5.984
				c-9.475-0.006-18.946-0.008-28.419,0.002c-4.003,0.004-6.31,2.029-6.296,6.025c0.013,3.998,2.331,5.99,6.338,5.986
				C95.213,46.998,100.033,47.001,104.854,47.001z M104.045,31c3.959-0.09,6.842-2.804,6.91-5.89
				c0.074-3.231-3.092-6.363-6.502-6.058c-3.688,0.33-5.619,2.594-5.427,6.326C99.206,28.883,101.337,30.618,104.045,31z"/>
			<path fill="#D1D2D2" d="M172.992,2c1.283,3.733,4.896,2.195,7.227,2.698c17.862,3.854,27.758,15.685,27.762,34.053
				c0.013,60.646,0.004,121.291,0.004,181.938c0,23.158,0,46.315,0,69.475c0,1,0.064,2.006-0.016,2.998
				c-0.125,1.533,0.555,3.707-2.115,3.627c-2.266-0.068-1.787-1.977-1.856-3.391c-0.065-1.328-0.019-2.664-0.019-3.996
				c0-83.305-0.076-166.61,0.058-249.916c0.03-19-12.093-31.26-30.966-31.38c-46.648-0.296-93.3-0.209-139.95-0.029
				C19.263,8.131,6.059,20.503,6.049,35.884c-0.054,84.97-0.015,169.942-0.098,254.911c-0.002,2.016,1.492,5.678-1.708,5.803
				c-4.07,0.158-2.119-3.834-2.125-5.832c-0.136-42.817-0.084-85.637-0.168-128.455c-0.004-1.836,1.426-4.565-1.937-5.33
				c0-5,0-10,0-14.999c2.936-2.717,2.936-18.283,0-20.998c0-4.999,0-9.999,0-14.998c1.419-0.12,1.991-0.94,1.988-2.312
				c-0.013-5.792-0.012-11.584,0-17.375c0.003-1.37-0.566-2.193-1.987-2.311c0-6.666,0-13.332,0-19.997
				c2.854-0.427,1.947-2.691,1.963-4.32c0.08-7.978,0.021-15.957,0.042-23.936C2.061,19.01,17.126,4.016,33.949,4.005
				c33.577-0.022,67.153,0.017,100.729-0.072c1.833-0.005,4.557,1.421,5.318-1.934C150.994,2,161.993,2,172.992,2z"/>
			<path fill="none" d="M139.996,2c-0.762,3.355-3.484,1.929-5.318,1.934c-33.576,0.089-67.153,0.05-100.729,0.072
				C17.125,4.017,2.061,19.011,2.019,35.736c-0.021,7.979,0.038,15.958-0.042,23.936c-0.016,1.629,0.891,3.893-1.963,4.32
				c0-19.283,0.15-38.568-0.126-57.848C-0.167,2.266,1.019,1.915,4.35,1.923C49.564,2.037,94.78,2,139.996,2z"/>
			<path fill="none" d="M0.014,83.989c1.421,0.117,1.99,0.941,1.987,2.311c-0.012,5.792-0.012,11.584,0,17.375
				c0.003,1.371-0.569,2.191-1.988,2.312C0.014,98.654,0.014,91.322,0.014,83.989z"/>
			<path fill="none" d="M0.014,120.984c2.936,2.715,2.936,18.281,0,20.998C0.014,134.982,0.014,127.984,0.014,120.984z"/>
			<path fill="#D1D2D2" d="M104.854,47.001c-4.819,0-9.64-0.004-14.459,0.001c-4.007,0.004-6.325-1.988-6.338-5.986
				c-0.014-3.996,2.292-6.021,6.296-6.025c9.474-0.01,18.946-0.008,28.419-0.002c4.043,0.003,7.047,1.781,7.063,5.984
				c0.017,4.204-2.974,6.009-7.021,6.024C114.16,47.014,109.506,47.001,104.854,47.001z M104.586,43.992
				c4.646,0,9.295-0.004,13.941,0.002c2.082,0.003,4.227-0.057,4.353-2.835c0.125-2.739-1.813-3.17-4.021-3.167
				c-9.295,0.014-18.59,0.01-27.885,0.004c-1.997-0.001-3.777,0.406-3.859,2.834c-0.093,2.742,1.82,3.176,4.026,3.167
				C95.623,43.978,100.104,43.991,104.586,43.992z"/>
			<path fill="#D3D3D3" d="M104.045,31c-2.708-0.382-4.839-2.117-5.019-5.623c-0.192-3.732,1.739-5.996,5.427-6.326
				c3.41-0.305,6.576,2.827,6.502,6.058C110.887,28.196,108.004,30.91,104.045,31z M107.956,24.657
				c-0.211-1.497-1.06-2.565-2.847-2.583c-2.012-0.021-3.071,1.058-3.022,3.057c0.043,1.756,1.054,2.743,2.806,2.779
				C106.912,27.951,107.887,26.833,107.956,24.657z"/>
			<path fill="none" d="M104.586,43.992c-4.481-0.001-8.963-0.014-13.445,0.005c-2.206,0.009-4.119-0.425-4.026-3.167
				c0.082-2.428,1.862-2.835,3.859-2.834c9.295,0.006,18.59,0.01,27.885-0.004c2.205-0.003,4.146,0.427,4.021,3.167
				c-0.126,2.779-2.271,2.838-4.353,2.835C113.881,43.988,109.232,43.992,104.586,43.992z"/>
			<path fill="none" d="M107.956,24.657c-0.069,2.176-1.044,3.294-3.063,3.252c-1.75-0.037-2.763-1.023-2.806-2.779
				c-0.049-1.999,1.01-3.077,3.022-3.057C106.896,22.092,107.745,23.16,107.956,24.657z"/>
		</g>
	</g>
</g>
<g id="Layer_2" display="none">
	<g>
		<path display="inline" fill-rule="evenodd" clip-rule="evenodd" fill="#D0D0D0" d="M171.979,12.434
			c0.904,2.078,2.819,1.807,4.564,2c17.461,1.934,29.414,15.159,29.42,32.741c0.027,81.679,0.022,163.358-0.031,245.038
			c-0.002,2.77,1.317,6.664-3.785,6.733c-1.926-1.38-2.257-3.43-2.357-5.584c-0.136-2.911-0.102-5.826-0.102-8.738
			c-0.003-75.435-0.002-150.869-0.002-226.303c0-2.59,0.009-5.18-0.008-7.77c-0.123-19.243-10.509-29.79-29.818-29.842
			c-42.735-0.116-85.47-0.063-128.206-0.025C22.468,20.7,12.204,30.914,12.192,50.067c-0.044,78.348-0.014,156.696-0.021,235.043
			c0,2.751,0.029,5.505-0.102,8.254c-0.102,2.153-0.433,4.202-2.358,5.581c-2.647,0.101-3.859-1.209-3.807-3.82
			c0.029-1.454-0.021-2.91-0.021-4.364c-0.002-40.418,0.012-80.836-0.04-121.253c-0.002-2.278,0.907-4.989-1.904-6.518
			c0-4.857,0-9.713,0-14.57c1.572-6.799,1.572-13.598,0-20.398c0-4.856,0-9.713,0-14.57c1.59-7.123,1.59-14.246,0-21.369
			c0-6.476,0-12.951,0-19.426c1.47-1.842,0.873-4.023,0.958-6.077c0.417-9.96-0.705-19.944,0.824-29.901
			c1.475-9.603,11.952-21.007,21.358-22.466c3.402-0.527,6.852-0.848,10.338-0.841c32.144,0.056,64.289,0.042,96.432,0.011
			c2.049-0.002,4.232,0.521,6.075-0.95C150.61,12.434,161.296,12.434,171.979,12.434z"/>
		<path display="inline" fill-rule="evenodd" clip-rule="evenodd" fill="#D0D0D0" d="M105.687,56.122
			c-4.189,0-8.382,0.096-12.569-0.025c-4.75-0.139-7.581-2.399-7.31-5.9c0.33-4.256,3.303-5.632,7.071-5.659
			c8.702-0.06,17.403-0.06,26.106,0c3.771,0.026,6.737,1.407,7.065,5.662c0.27,3.5-2.562,5.762-7.313,5.896
			C114.391,56.218,110.037,56.122,105.687,56.122z"/>
		<path display="inline" fill-rule="evenodd" clip-rule="evenodd" fill="#D1D1D1" d="M111.595,34.43
			c-0.391,3.568-2.127,5.797-5.543,5.866c-3.402,0.068-5.558-2.014-5.64-5.398c-0.082-3.398,2.007-5.542,5.396-5.645
			C109.249,29.148,110.988,31.394,111.595,34.43z"/>
		<path display="inline" fill-rule="evenodd" clip-rule="evenodd" fill="#F5F5F5" d="M106.1,47.452c4.357,0,8.716-0.043,13.071,0.02
			c1.857,0.026,3.761,0.437,3.824,2.771c0.065,2.353-1.8,2.894-3.674,2.905c-8.878,0.056-17.754,0.054-26.63,0.012
			c-1.858-0.008-3.799-0.45-3.816-2.773c-0.021-2.665,2.161-2.902,4.151-2.931c4.357-0.065,8.716-0.02,13.073-0.02
			C106.1,47.442,106.1,47.446,106.1,47.452z"/>
		<path display="inline" fill-rule="evenodd" clip-rule="evenodd" fill="#F2F2F2" d="M105.901,37.406
			c-1.66-0.281-2.564-1.119-2.537-2.614c0.032-1.74,1.082-2.714,2.79-2.568c1.719,0.146,2.556,1.31,2.309,3.015
			C108.243,36.745,107.13,37.313,105.901,37.406z"/>
	</g>
</g>
</svg>
