<?xml version="1.0" encoding="utf-8"?>
<!-- Generator: Adobe Illustrator 16.0.0, SVG Export Plug-In . SVG Version: 6.00 Build 0)  -->
<!DOCTYPE svg PUBLIC "-//W3C//DTD SVG 1.1//EN" "http://www.w3.org/Graphics/SVG/1.1/DTD/svg11.dtd">
<svg version="1.1" id="Layer_1" xmlns="http://www.w3.org/2000/svg" xmlns:xlink="http://www.w3.org/1999/xlink" x="0px" y="0px"
	 width="1280px" height="400px" viewBox="0 0 1280 400" enable-background="new 0 0 1280 400" xml:space="preserve">
<g id="Layer_1_1_" display="none">
	<g display="inline">
		<g>
			<g>
				<g>
					<g>
						<g>
							<g>
								<defs>
									<rect id="SVGID_1_" x="-7" y="-414.111" width="1294" height="1228.223"/>
								</defs>
								<clipPath id="SVGID_2_">
									<use xlink:href="#SVGID_1_"  overflow="visible"/>
								</clipPath>
								
									<linearGradient id="SVGID_3_" gradientUnits="userSpaceOnUse" x1="1242.9111" y1="1656.5811" x2="1242.9111" y2="1535.5911" gradientTransform="matrix(1 0 0 1 -936 -1173)">
									<stop  offset="0" style="stop-color:#036163"/>
									<stop  offset="1" style="stop-color:#00A0A4"/>
								</linearGradient>
								<path clip-path="url(#SVGID_2_)" fill="url(#SVGID_3_)" d="M-39.464,415.143c0,0,31.54-1.104,40.886-14.414
									c0,0,26.868-7.764,40.887,3.328c0,0,32.71-35.481,49.065-26.613c0,0,61.915,28.833,189.25,19.964
									c0,0,182.244,17.735,280.372,51.002l92.29,1.106l-692.75,3.328V415.143L-39.464,415.143z"/>
							</g>
						</g>
					</g>
				</g>
			</g>
		</g>
		<g>
			<g>
				<g>
					<g>
						<g>
							<g>
								<defs>
									<rect id="SVGID_4_" x="-7" y="-414.111" width="1294" height="1228.223"/>
								</defs>
								<clipPath id="SVGID_5_">
									<use xlink:href="#SVGID_4_"  overflow="visible"/>
								</clipPath>
								
									<linearGradient id="SVGID_6_" gradientUnits="userSpaceOnUse" x1="1445.2109" y1="1654.4756" x2="1445.2109" y2="1559.2429" gradientTransform="matrix(1 0 0 1 -936 -1173)">
									<stop  offset="0" style="stop-color:#036163"/>
									<stop  offset="1" style="stop-color:#00A0A4"/>
								</linearGradient>
								<path clip-path="url(#SVGID_5_)" fill="url(#SVGID_6_)" d="M291.138,457.281c0,0,71.75-89.477,241.989-50.748
									c0,0,81.604,36.057,194.158,41.396"/>
							</g>
						</g>
					</g>
				</g>
			</g>
		</g>
		<g>
			<g>
				<g>
					<g>
						<g>
							<g>
								<defs>
									<rect id="SVGID_7_" x="-7" y="-414.111" width="1294" height="1228.223"/>
								</defs>
								<clipPath id="SVGID_8_">
									<use xlink:href="#SVGID_7_"  overflow="visible"/>
								</clipPath>
								
									<linearGradient id="SVGID_9_" gradientUnits="userSpaceOnUse" x1="2116.7246" y1="1644.4961" x2="2116.7246" y2="1584.1703" gradientTransform="matrix(1 0 0 1 -936 -1173)">
									<stop  offset="0" style="stop-color:#036163"/>
									<stop  offset="1" style="stop-color:#00A0A4"/>
								</linearGradient>
								<path clip-path="url(#SVGID_8_)" fill="url(#SVGID_9_)" d="M1315.652,452.844v-23.285c0,0-2.335-21.063-73.596-6.649
									c0,0-84.112,31.045-196.261,25.5l121.496,7.764L1315.652,452.844z"/>
							</g>
						</g>
					</g>
				</g>
			</g>
		</g>
		<g>
			<g>
				<g>
					<g>
						<g>
							<g>
								<defs>
									<rect id="SVGID_10_" x="-7" y="-414.111" width="1294" height="1228.223"/>
								</defs>
								<clipPath id="SVGID_11_">
									<use xlink:href="#SVGID_10_"  overflow="visible"/>
								</clipPath>
								
									<linearGradient id="SVGID_12_" gradientUnits="userSpaceOnUse" x1="2007.0098" y1="1625.6631" x2="2007.0098" y2="1550.4329" gradientTransform="matrix(0.9999 -0.0143 0.0143 0.9999 -943.886 -1120.0836)">
									<stop  offset="0" style="stop-color:#036163"/>
									<stop  offset="1" style="stop-color:#00A0A4"/>
								</linearGradient>
								<path clip-path="url(#SVGID_11_)" fill="url(#SVGID_12_)" d="M1291.516,454.668c0,0-152.845-31.52-192.927-40.779
									c0,0-69.748-14.442-115.208,14.291c0,0-72.14,24.904-103.205,25.354L1291.516,454.668z"/>
							</g>
						</g>
					</g>
				</g>
			</g>
		</g>
		<g>
			<g>
				<g>
					<g>
						<g>
							<g>
								<defs>
									<rect id="SVGID_13_" x="-7" y="-414.111" width="1294" height="1228.223"/>
								</defs>
								<clipPath id="SVGID_14_">
									<use xlink:href="#SVGID_13_"  overflow="visible"/>
								</clipPath>
								
									<linearGradient id="SVGID_15_" gradientUnits="userSpaceOnUse" x1="1753.7344" y1="1656.249" x2="1753.7344" y2="1557.2064" gradientTransform="matrix(1 0 0 1 -936 -1173)">
									<stop  offset="0" style="stop-color:#036163"/>
									<stop  offset="1" style="stop-color:#00A0A4"/>
								</linearGradient>
								<path clip-path="url(#SVGID_14_)" fill="url(#SVGID_15_)" d="M1088.473,458.086c0,0-200.612-44.369-253.206-57.313
									c0,0-91.546-20.332-151.931,16.645c0,0-95.438,31.428-136.341,31.428L1088.473,458.086z"/>
							</g>
						</g>
					</g>
				</g>
			</g>
		</g>
	</g>
</g>
<g id="Layer_2">
	<g>
		<path fill="#FFFFFF" d="M534.676,118.799h0.253c0.114,0,0.208-0.093,0.208-0.208v-3.22c0-0.114-0.094-0.208-0.208-0.208h-0.253
			c-0.111,0-0.207,0.094-0.207,0.208v3.22C534.469,118.706,534.562,118.799,534.676,118.799z"/>
		<circle fill="#FFFFFF" cx="534.803" cy="112.842" r="1.378"/>
		<g>
			<path fill="#FFFFFF" d="M534.908,125.234c-1.975,0-3.579-1.606-3.579-3.581c0-0.318,0.042-0.634,0.124-0.937l0.806,0.217
				c-0.063,0.233-0.098,0.476-0.098,0.72c0,1.516,1.231,2.749,2.747,2.749c1.519,0,2.748-1.233,2.748-2.749
				c0-0.742-0.323-1.467-0.888-1.99c-0.604-0.556-1.404-0.828-2.271-0.76l-0.063-0.829c1.095-0.084,2.124,0.262,2.896,0.978
				c0.73,0.68,1.151,1.627,1.151,2.601C538.488,123.628,536.884,125.234,534.908,125.234z"/>
		</g>
		<path fill="#FFFFFF" d="M534.676,118.799h0.253c0.114,0,0.208-0.093,0.208-0.208v-3.22c0-0.114-0.094-0.208-0.208-0.208h-0.253
			c-0.111,0-0.207,0.094-0.207,0.208v3.22C534.469,118.706,534.562,118.799,534.676,118.799z"/>
		<circle fill="#FFFFFF" cx="534.803" cy="112.842" r="1.378"/>
		<g>
			<path fill="#FFFFFF" d="M534.908,125.234c-1.975,0-3.579-1.606-3.579-3.581c0-0.318,0.042-0.634,0.124-0.937l0.806,0.217
				c-0.063,0.233-0.098,0.476-0.098,0.72c0,1.516,1.231,2.749,2.747,2.749c1.519,0,2.748-1.233,2.748-2.749
				c0-0.742-0.323-1.467-0.888-1.99c-0.604-0.556-1.404-0.828-2.271-0.76l-0.063-0.829c1.095-0.084,2.124,0.262,2.896,0.978
				c0.73,0.68,1.151,1.627,1.151,2.601C538.488,123.628,536.884,125.234,534.908,125.234z"/>
		</g>
		<g>
			<g>
				<path fill="#DE4016" d="M754.337,319.279h-21.415V131.296h21.415V319.279z M734.962,317.238h17.336V133.336h-17.336V317.238z"/>
			</g>
			<g>
				<polygon fill="#DE4016" points="735.463,319.146 734.459,317.369 750.224,308.469 732.887,298.68 750.224,288.891 
					732.887,279.104 750.224,269.318 732.887,259.529 750.222,249.742 732.886,239.957 750.222,230.17 732.886,220.383 
					750.222,210.6 732.886,200.816 750.222,191.03 732.886,181.244 750.222,171.458 732.886,161.671 750.222,151.886 732.886,142.1 
					751.797,131.427 752.801,133.204 737.036,142.1 754.373,151.886 737.036,161.671 754.373,171.458 737.036,181.244 
					754.373,191.03 737.036,200.816 754.373,210.6 737.036,220.383 754.373,230.17 737.036,239.957 754.373,249.742 
					737.036,259.529 754.371,269.318 737.036,279.104 754.371,288.891 737.036,298.68 754.371,308.469 				"/>
			</g>
			<g>
				<path fill="#DE4016" d="M811.105,122.49H549.368l11.271-21.416h250.465L811.105,122.49L811.105,122.49z M552.748,120.451
					h256.317v-17.337H561.873L552.748,120.451z"/>
			</g>
			<g>
				<polygon fill="#DE4016" points="782.814,121.513 781.743,120.206 769.181,104.942 755.546,121.513 754.475,120.206 
					741.911,104.942 728.277,121.513 727.205,120.206 714.643,104.942 701.013,121.513 699.941,120.206 687.383,104.942 
					673.748,121.513 672.677,120.206 660.114,104.942 646.484,121.513 645.411,120.206 632.849,104.942 619.222,121.513 
					618.148,120.206 605.586,104.942 591.95,121.513 590.879,120.206 578.321,104.942 564.691,121.513 563.447,119.996 
					561.427,102.044 563.25,101.838 565.086,118.141 578.321,102.062 579.391,103.353 591.95,118.62 605.586,102.062 
					606.653,103.353 619.22,118.62 632.85,102.062 633.919,103.353 646.483,118.62 660.114,102.062 661.183,103.353 673.748,118.62 
					687.383,102.062 688.452,103.353 701.013,118.62 714.644,102.062 715.711,103.353 728.276,118.62 741.911,102.062 
					742.979,103.353 755.546,118.62 769.181,102.061 770.248,103.353 782.814,118.62 796.452,102.061 797.519,103.353 
					810.795,119.484 809.375,120.648 809.012,120.206 796.452,104.942 				"/>
			</g>
			<path fill="#CC3C15" d="M732.924,136.735v30.764h-13.815l-6.752-5.423v-15.721c0-4.316,2.841-7.966,6.752-9.186
				c0.911-0.278,1.87-0.434,2.868-0.434H732.924L732.924,136.735z"/>
			<rect x="722.64" y="144.044" fill="#FF6C45" width="9.35" height="3.317"/>
			<rect x="722.64" y="149.016" fill="#FF6C45" width="9.35" height="11.809"/>
			<path fill="#A83313" d="M719.106,137.169v30.33l-6.752-5.423v-15.721C712.354,142.039,715.195,138.389,719.106,137.169z"/>
			<polygon fill="#A83313" points="756.268,131.964 730.993,131.964 727.681,122.49 759.579,122.49 			"/>
			<rect x="726.411" y="122.49" fill="#772611" width="34.438" height="1.808"/>
			<rect x="723.128" y="320.875" fill="#A83313" width="41.002" height="6.373"/>
			<polygon fill="#CC3C15" points="784.836,343.77 702.422,343.77 709.181,327.248 778.077,327.248 			"/>
			<rect x="702.422" y="343.77" fill="#A83313" width="82.414" height="8.918"/>
		</g>
		
			<rect x="561.376" y="250.588" opacity="0.9" fill="none" stroke="#038D80" stroke-miterlimit="10" enable-background="new    " width="77.725" height="8.1"/>
		<polyline opacity="0.9" fill="none" stroke="#038D80" stroke-miterlimit="10" enable-background="new    " points="
			561.376,258.26 565.466,251.016 569.556,258.26 573.646,251.016 577.737,258.26 581.827,251.016 585.919,258.26 590.009,251.016 
			594.099,258.26 598.188,251.016 602.279,258.26 606.368,251.016 610.461,258.26 614.552,251.016 618.642,258.26 622.733,251.016 
			626.824,258.26 630.916,251.016 635.008,258.26 639.1,251.016 		"/>
		<g opacity="0.9" enable-background="new    ">
			<polygon fill="none" stroke="#038D80" stroke-width="0.9341" stroke-miterlimit="10" points="731.5,227.963 731.5,221.836 
				659.714,221.836 662.539,227.963 			"/>
			<polyline fill="none" stroke="#038D80" stroke-width="0.9341" stroke-miterlimit="10" points="731.5,222.279 731.399,222.42 
				727.821,227.377 727.722,227.518 727.621,227.377 724.042,222.42 723.941,222.279 723.842,222.42 720.265,227.377 
				720.164,227.518 720.063,227.377 716.486,222.42 716.385,222.279 716.283,222.42 712.707,227.377 712.605,227.518 
				712.505,227.377 708.928,222.42 708.827,222.279 708.729,222.42 705.149,227.377 705.05,227.518 704.948,227.377 701.373,222.42 
				701.271,222.279 701.172,222.42 697.595,227.377 697.493,227.518 697.396,227.377 693.816,222.42 693.716,222.279 
				693.614,222.42 690.036,227.377 689.937,227.518 689.837,227.377 686.261,222.42 686.159,222.279 686.06,222.42 682.481,227.377 
				682.381,227.518 682.28,227.377 678.704,222.42 678.604,222.279 678.503,222.42 674.927,227.377 674.825,227.518 
				674.726,227.377 671.146,222.42 671.047,222.279 670.945,222.42 667.37,227.377 667.27,227.518 667.169,227.377 663.593,222.42 
				663.491,222.279 663.392,222.42 661.337,225.268 			"/>
		</g>
		<g opacity="0.9" enable-background="new    ">
			<polygon fill="none" stroke="#038D80" stroke-miterlimit="10" points="561.101,190 561.101,196.127 643.376,196.127 640.137,190 
							"/>
			<polyline fill="none" stroke="#038D80" stroke-miterlimit="10" points="561.101,195.683 561.216,195.543 565.316,190.585 
				565.433,190.444 565.547,190.585 569.647,195.543 569.765,195.683 569.878,195.543 573.978,190.585 574.094,190.444 
				574.209,190.585 578.309,195.543 578.425,195.683 578.541,195.543 582.64,190.585 582.756,190.444 582.87,190.585 
				586.972,195.543 587.086,195.683 587.199,195.543 591.302,190.585 591.416,190.444 591.53,190.585 595.631,195.543 
				595.745,195.683 595.859,195.543 599.96,190.585 600.074,190.444 600.188,190.585 604.291,195.542 604.404,195.683 
				604.521,195.542 608.623,190.585 608.736,190.444 608.852,190.585 612.95,195.542 613.065,195.683 613.181,195.542 
				617.28,190.585 617.396,190.444 617.512,190.585 621.61,195.542 621.725,195.683 621.842,195.542 625.939,190.585 
				626.056,190.444 626.171,190.585 630.271,195.542 630.387,195.683 630.503,195.542 634.601,190.585 634.717,190.444 
				634.832,190.585 638.931,195.542 639.046,195.683 639.161,195.542 641.515,192.695 			"/>
		</g>
		<g>
			<path opacity="0.9" fill="#038D80" enable-background="new    " d="M562.225,250.162h12.855v-8.598h-8.841
				c-1.803,0-3.33,1.188-3.839,2.821c-0.117,0.382-0.183,0.778-0.183,1.198L562.225,250.162L562.225,250.162z"/>
			<rect x="565.278" y="245.863" fill="#5EC3DE" width="6.75" height="2.547"/>
			<path fill="#006666" d="M562.404,244.387h12.679v-2.822h-8.839C564.44,241.564,562.914,242.754,562.404,244.387z"/>
		</g>
		<polygon fill="#232626" points="593.118,334.953 687.447,334.953 692.329,353 588.235,353 		"/>
		<g>
			<g>
				
					<rect x="530.711" y="242.793" fill="none" stroke="#F7931E" stroke-width="3.7489" stroke-miterlimit="10" width="27.488" height="27.492"/>
				
					<line fill="none" stroke="#F7931E" stroke-width="3.7489" stroke-miterlimit="10" x1="530.711" y1="270.285" x2="558.202" y2="242.793"/>
				
					<line fill="none" stroke="#F7931E" stroke-width="3.7489" stroke-miterlimit="10" x1="531.855" y1="242.793" x2="558.202" y2="270.285"/>
				
					<rect x="530.711" y="215.301" fill="none" stroke="#F7931E" stroke-width="3.7489" stroke-miterlimit="10" width="27.488" height="27.492"/>
				
					<line fill="none" stroke="#F7931E" stroke-width="3.7489" stroke-miterlimit="10" x1="530.711" y1="242.793" x2="558.202" y2="215.301"/>
				
					<line fill="none" stroke="#F7931E" stroke-width="3.7489" stroke-miterlimit="10" x1="531.855" y1="215.301" x2="558.202" y2="242.793"/>
				
					<rect x="530.711" y="187.81" fill="none" stroke="#F7931E" stroke-width="3.7489" stroke-miterlimit="10" width="27.488" height="27.491"/>
				
					<line fill="none" stroke="#F7931E" stroke-width="3.7489" stroke-miterlimit="10" x1="530.711" y1="215.301" x2="558.202" y2="187.81"/>
				
					<line fill="none" stroke="#F7931E" stroke-width="3.7489" stroke-miterlimit="10" x1="531.855" y1="187.81" x2="558.202" y2="215.301"/>
				
					<rect x="530.711" y="160.317" fill="none" stroke="#F7931E" stroke-width="3.7489" stroke-miterlimit="10" width="27.488" height="27.493"/>
				
					<line fill="none" stroke="#F7931E" stroke-width="3.7489" stroke-miterlimit="10" x1="530.711" y1="187.81" x2="558.202" y2="160.317"/>
				
					<line fill="none" stroke="#F7931E" stroke-width="3.7489" stroke-miterlimit="10" x1="531.855" y1="160.317" x2="558.202" y2="187.81"/>
				
					<rect x="530.711" y="297.779" fill="none" stroke="#F7931E" stroke-width="3.7489" stroke-miterlimit="10" width="27.488" height="27.492"/>
				
					<line fill="none" stroke="#F7931E" stroke-width="3.7489" stroke-miterlimit="10" x1="530.711" y1="325.271" x2="558.202" y2="297.779"/>
				
					<line fill="none" stroke="#F7931E" stroke-width="3.7489" stroke-miterlimit="10" x1="531.855" y1="297.779" x2="558.202" y2="325.271"/>
				
					<rect x="530.711" y="270.285" fill="none" stroke="#F7931E" stroke-width="3.7489" stroke-miterlimit="10" width="27.488" height="27.494"/>
				
					<line fill="none" stroke="#F7931E" stroke-width="3.7489" stroke-miterlimit="10" x1="530.711" y1="297.779" x2="558.202" y2="270.285"/>
				
					<line fill="none" stroke="#F7931E" stroke-width="3.7489" stroke-miterlimit="10" x1="531.855" y1="270.285" x2="558.202" y2="297.779"/>
				
					<rect x="534.153" y="133.242" fill="none" stroke="#F7931E" stroke-width="2.9158" stroke-miterlimit="10" width="21.752" height="21.752"/>
				
					<line fill="none" stroke="#F7931E" stroke-width="2.9158" stroke-miterlimit="10" x1="555.905" y1="154.994" x2="534.153" y2="133.242"/>
				
					<line fill="none" stroke="#F7931E" stroke-width="2.9158" stroke-miterlimit="10" x1="534.153" y1="154.088" x2="555.905" y2="133.242"/>
				
					<rect x="512.4" y="133.242" fill="none" stroke="#F7931E" stroke-width="2.9158" stroke-miterlimit="10" width="21.753" height="21.752"/>
				
					<line fill="none" stroke="#F7931E" stroke-width="2.9158" stroke-miterlimit="10" x1="534.153" y1="154.994" x2="512.4" y2="133.242"/>
				
					<line fill="none" stroke="#F7931E" stroke-width="2.9158" stroke-miterlimit="10" x1="512.4" y1="154.088" x2="534.153" y2="133.242"/>
				
					<rect x="490.647" y="133.242" fill="none" stroke="#F7931E" stroke-width="2.9158" stroke-miterlimit="10" width="21.753" height="21.752"/>
				
					<line fill="none" stroke="#F7931E" stroke-width="2.9158" stroke-miterlimit="10" x1="512.4" y1="154.994" x2="490.647" y2="133.242"/>
				
					<line fill="none" stroke="#F7931E" stroke-width="2.9158" stroke-miterlimit="10" x1="490.647" y1="154.088" x2="512.4" y2="133.242"/>
				
					<rect x="468.895" y="133.242" fill="none" stroke="#F7931E" stroke-width="2.9158" stroke-miterlimit="10" width="21.752" height="21.752"/>
				
					<line fill="none" stroke="#F7931E" stroke-width="2.9158" stroke-miterlimit="10" x1="490.647" y1="154.994" x2="468.895" y2="133.242"/>
				
					<line fill="none" stroke="#F7931E" stroke-width="2.9158" stroke-miterlimit="10" x1="468.895" y1="154.088" x2="490.647" y2="133.242"/>
				
					<rect x="577.657" y="133.242" fill="none" stroke="#F7931E" stroke-width="2.9158" stroke-miterlimit="10" width="21.752" height="21.752"/>
				
					<line fill="none" stroke="#F7931E" stroke-width="2.9158" stroke-miterlimit="10" x1="599.409" y1="154.994" x2="577.657" y2="133.242"/>
				
					<line fill="none" stroke="#F7931E" stroke-width="2.9158" stroke-miterlimit="10" x1="577.657" y1="154.088" x2="599.409" y2="133.242"/>
				
					<rect x="555.905" y="133.242" fill="none" stroke="#F7931E" stroke-width="2.9158" stroke-miterlimit="10" width="21.752" height="21.752"/>
				
					<line fill="none" stroke="#F7931E" stroke-width="2.9158" stroke-miterlimit="10" x1="577.657" y1="154.994" x2="555.905" y2="133.242"/>
				
					<line fill="none" stroke="#F7931E" stroke-width="2.9158" stroke-miterlimit="10" x1="555.905" y1="154.088" x2="577.657" y2="133.242"/>
				
					<rect x="599.409" y="133.242" fill="none" stroke="#F7931E" stroke-width="2.9158" stroke-miterlimit="10" width="21.754" height="21.752"/>
				
					<line fill="none" stroke="#F7931E" stroke-width="2.9158" stroke-miterlimit="10" x1="621.161" y1="154.994" x2="599.409" y2="133.242"/>
				
					<line fill="none" stroke="#F7931E" stroke-width="2.9158" stroke-miterlimit="10" x1="599.409" y1="154.088" x2="621.161" y2="133.242"/>
				
					<rect x="642.914" y="133.242" fill="none" stroke="#F7931E" stroke-width="2.9158" stroke-linecap="round" stroke-linejoin="round" stroke-miterlimit="10" width="21.755" height="21.752"/>
				
					<line fill="none" stroke="#F7931E" stroke-width="2.9158" stroke-miterlimit="10" x1="664.667" y1="154.994" x2="642.914" y2="133.242"/>
				
					<line fill="none" stroke="#F7931E" stroke-width="2.9158" stroke-miterlimit="10" x1="642.914" y1="154.088" x2="664.667" y2="133.242"/>
				
					<polyline fill="none" stroke="#F7931E" stroke-width="2.9158" stroke-linecap="round" stroke-linejoin="round" stroke-miterlimit="10" points="
					664.667,133.242 686.421,133.242 664.667,154.994 				"/>
				
					<line fill="none" stroke="#F7931E" stroke-width="2.9158" stroke-miterlimit="10" x1="675.545" y1="143.665" x2="664.667" y2="133.242"/>
				
					<rect x="621.161" y="133.242" fill="none" stroke="#F7931E" stroke-width="2.9158" stroke-miterlimit="10" width="21.753" height="21.752"/>
				
					<line fill="none" stroke="#F7931E" stroke-width="2.9158" stroke-miterlimit="10" x1="642.914" y1="154.994" x2="621.161" y2="133.242"/>
				
					<line fill="none" stroke="#F7931E" stroke-width="2.9158" stroke-miterlimit="10" x1="621.161" y1="154.088" x2="642.914" y2="133.242"/>
				<rect x="528.952" y="154.994" fill="#F7931E" width="31.033" height="19.069"/>
				<rect x="528.952" y="156.43" fill="#CCCCCC" width="31.033" height="3.541"/>
				<g>
					
						<line fill="none" stroke="#AF6419" stroke-width="1.6662" stroke-miterlimit="10" x1="548.577" y1="174.063" x2="548.577" y2="325.271"/>
					<g>
						
							<line fill="none" stroke="#AF6419" stroke-width="1.6662" stroke-miterlimit="10" x1="541.479" y1="174.063" x2="541.479" y2="325.271"/>
						<g>
							
								<line fill="none" stroke="#AF6419" stroke-width="1.6662" stroke-miterlimit="10" x1="541.479" y1="179.895" x2="548.577" y2="179.895"/>
							
								<line fill="none" stroke="#AF6419" stroke-width="1.6662" stroke-miterlimit="10" x1="541.479" y1="187.276" x2="548.577" y2="187.276"/>
							
								<line fill="none" stroke="#AF6419" stroke-width="1.6662" stroke-miterlimit="10" x1="541.479" y1="194.657" x2="548.577" y2="194.657"/>
							
								<line fill="none" stroke="#AF6419" stroke-width="1.6662" stroke-miterlimit="10" x1="541.479" y1="202.038" x2="548.577" y2="202.038"/>
							
								<line fill="none" stroke="#AF6419" stroke-width="1.6662" stroke-miterlimit="10" x1="541.479" y1="209.419" x2="548.577" y2="209.419"/>
							
								<line fill="none" stroke="#AF6419" stroke-width="1.6662" stroke-miterlimit="10" x1="541.479" y1="216.8" x2="548.577" y2="216.8"/>
							
								<line fill="none" stroke="#AF6419" stroke-width="1.6662" stroke-miterlimit="10" x1="541.479" y1="224.18" x2="548.577" y2="224.18"/>
							
								<line fill="none" stroke="#AF6419" stroke-width="1.6662" stroke-miterlimit="10" x1="541.479" y1="231.561" x2="548.577" y2="231.561"/>
							
								<line fill="none" stroke="#AF6419" stroke-width="1.6662" stroke-miterlimit="10" x1="541.479" y1="238.941" x2="548.577" y2="238.941"/>
							
								<line fill="none" stroke="#AF6419" stroke-width="1.6662" stroke-miterlimit="10" x1="541.479" y1="246.324" x2="548.577" y2="246.324"/>
							
								<line fill="none" stroke="#AF6419" stroke-width="1.6662" stroke-miterlimit="10" x1="541.479" y1="253.705" x2="548.577" y2="253.705"/>
							
								<line fill="none" stroke="#AF6419" stroke-width="1.6662" stroke-miterlimit="10" x1="541.479" y1="261.086" x2="548.577" y2="261.086"/>
							
								<line fill="none" stroke="#AF6419" stroke-width="1.6662" stroke-miterlimit="10" x1="541.479" y1="268.465" x2="548.577" y2="268.465"/>
							
								<line fill="none" stroke="#AF6419" stroke-width="1.6662" stroke-miterlimit="10" x1="541.479" y1="275.846" x2="548.577" y2="275.846"/>
							
								<line fill="none" stroke="#AF6419" stroke-width="1.6662" stroke-miterlimit="10" x1="541.479" y1="283.229" x2="548.577" y2="283.229"/>
							
								<line fill="none" stroke="#AF6419" stroke-width="1.6662" stroke-miterlimit="10" x1="541.479" y1="290.609" x2="548.577" y2="290.609"/>
							
								<line fill="none" stroke="#AF6419" stroke-width="1.6662" stroke-miterlimit="10" x1="541.479" y1="297.99" x2="548.577" y2="297.99"/>
							
								<line fill="none" stroke="#AF6419" stroke-width="1.6662" stroke-miterlimit="10" x1="541.479" y1="305.371" x2="548.577" y2="305.371"/>
							
								<line fill="none" stroke="#AF6419" stroke-width="1.6662" stroke-miterlimit="10" x1="541.479" y1="312.752" x2="548.577" y2="312.752"/>
							
								<line fill="none" stroke="#AF6419" stroke-width="1.6662" stroke-miterlimit="10" x1="541.479" y1="320.131" x2="548.577" y2="320.131"/>
						</g>
					</g>
				</g>
				
					<rect x="541.479" y="163.234" fill="#C6701A" stroke="#AF6419" stroke-width="1.6662" stroke-miterlimit="10" width="7.098" height="10.83"/>
				<circle fill="#F7931E" cx="479.771" cy="144.117" r="6.139"/>
				<circle fill="none" stroke="#F2F2F2" stroke-width="0.8331" stroke-miterlimit="10" cx="479.771" cy="144.117" r="3.962"/>
				<circle fill="#333333" cx="479.771" cy="144.117" r="1.002"/>
				
					<linearGradient id="SVGID_16_" gradientUnits="userSpaceOnUse" x1="1474.0254" y1="1449.7705" x2="1469.7559" y2="1445.5009" gradientTransform="matrix(1 0 0 1 -936 -1173)">
					<stop  offset="0" style="stop-color:#FFFFFF"/>
					<stop  offset="1" style="stop-color:#E6E6E6"/>
				</linearGradient>
				<polygon fill="url(#SVGID_16_)" points="532.529,273.721 532.529,272.16 536.175,272.16 539.716,275.701 537.216,278.721 				
					"/>
				
					<linearGradient id="SVGID_17_" gradientUnits="userSpaceOnUse" x1="1474.0254" y1="1477.1582" x2="1469.7556" y2="1472.8883" gradientTransform="matrix(1 0 0 1 -936 -1173)">
					<stop  offset="0" style="stop-color:#FFFFFF"/>
					<stop  offset="1" style="stop-color:#E6E6E6"/>
				</linearGradient>
				<polygon fill="url(#SVGID_17_)" points="532.529,301.109 532.529,299.547 536.175,299.547 539.716,303.09 537.216,306.109 				
					"/>
				
					<linearGradient id="SVGID_18_" gradientUnits="userSpaceOnUse" x1="1474.0234" y1="1422.1729" x2="1469.7559" y2="1417.9053" gradientTransform="matrix(1 0 0 1 -936 -1173)">
					<stop  offset="0" style="stop-color:#FFFFFF"/>
					<stop  offset="1" style="stop-color:#E6E6E6"/>
				</linearGradient>
				<polygon fill="url(#SVGID_18_)" points="532.529,246.127 532.529,244.564 536.175,244.564 539.716,248.105 537.216,251.125 				
					"/>
				
					<linearGradient id="SVGID_19_" gradientUnits="userSpaceOnUse" x1="1474.0264" y1="1394.6816" x2="1469.756" y2="1390.4114" gradientTransform="matrix(1 0 0 1 -936 -1173)">
					<stop  offset="0" style="stop-color:#FFFFFF"/>
					<stop  offset="1" style="stop-color:#E6E6E6"/>
				</linearGradient>
				<polygon fill="url(#SVGID_19_)" points="532.529,218.633 532.529,217.073 536.175,217.073 539.716,220.611 537.216,223.631 				
					"/>
				
					<linearGradient id="SVGID_20_" gradientUnits="userSpaceOnUse" x1="1474.0244" y1="1367.2227" x2="1469.7559" y2="1362.9542" gradientTransform="matrix(1 0 0 1 -936 -1173)">
					<stop  offset="0" style="stop-color:#FFFFFF"/>
					<stop  offset="1" style="stop-color:#E6E6E6"/>
				</linearGradient>
				<polygon fill="url(#SVGID_20_)" points="532.529,191.177 532.529,189.615 536.175,189.615 539.716,193.155 537.216,196.174 				
					"/>
			</g>
		</g>
		<g>
			<g>
				<g>
					<g>
						<g>
							
								<linearGradient id="SVGID_21_" gradientUnits="userSpaceOnUse" x1="2004.7305" y1="1887.5459" x2="2004.7305" y2="1872.442" gradientTransform="matrix(1 0 0 1 -1363.4004 -1573.0996)">
								<stop  offset="0" style="stop-color:#580E0E"/>
								<stop  offset="1" style="stop-color:#ED2224"/>
							</linearGradient>
							<ellipse fill="url(#SVGID_21_)" cx="641.33" cy="317.927" rx="17.764" ry="3.519"/>
						</g>
						<g>
							<g>
								
									<linearGradient id="SVGID_22_" gradientUnits="userSpaceOnUse" x1="2081.2295" y1="1876.3086" x2="2069.4583" y2="1888.0798" gradientTransform="matrix(-1 0 0 1 2746.0586 -1573.0996)">
									<stop  offset="0" style="stop-color:#580E0E"/>
									<stop  offset="1" style="stop-color:#ED2224"/>
								</linearGradient>
								<path fill="url(#SVGID_22_)" d="M652.061,316.139c7.313,0.412,16.992,18.094,16.992,18.094
									c8.311-18.155,7.741-32.168,4.728-41.981c-3.504-11.422-10.319-17.162-10.319-17.162l-9.229,33.244L652.061,316.139z"/>
								
									<linearGradient id="SVGID_23_" gradientUnits="userSpaceOnUse" x1="2037.168" y1="1872.7256" x2="2022.7357" y2="1872.7256" gradientTransform="matrix(1 0 0 1 -1363.4004 -1573.0996)">
									<stop  offset="0" style="stop-color:#580E0E"/>
									<stop  offset="1" style="stop-color:#ED2224"/>
								</linearGradient>
								<path fill="url(#SVGID_23_)" d="M654.228,308.332c6.44,3.721,13.34,15.832,13.34,15.832
									c6.131-12.879,7.289-23.52,6.213-31.914c-3.503-11.422-10.319-17.162-10.319-17.162L654.228,308.332z"/>
								
									<linearGradient id="SVGID_24_" gradientUnits="userSpaceOnUse" x1="1988.9307" y1="1869.9629" x2="2022.1431" y2="1869.9629" gradientTransform="matrix(1 0 0 1 -1363.4004 -1573.0996)">
									<stop  offset="0" style="stop-color:#580E0E"/>
									<stop  offset="1" style="stop-color:#ED2224"/>
								</linearGradient>
								<path fill="url(#SVGID_24_)" d="M663.188,275.088c0,0,17.356,14.619,4.123,43.551c0,0-7.133-13.021-12.517-13.322
									L663.188,275.088z"/>
							</g>
							<g>
								
									<linearGradient id="SVGID_25_" gradientUnits="userSpaceOnUse" x1="1979.3262" y1="1876.3105" x2="1967.5553" y2="1888.0814" gradientTransform="matrix(1 0 0 1 -1363.4004 -1573.0996)">
									<stop  offset="0" style="stop-color:#580E0E"/>
									<stop  offset="1" style="stop-color:#ED2224"/>
								</linearGradient>
								<path fill="url(#SVGID_25_)" d="M628.696,316.139c-7.313,0.412-16.994,18.094-16.994,18.094
									c-8.309-18.155-7.737-32.168-4.723-41.981c3.503-11.422,10.32-17.162,10.32-17.162l9.229,33.244L628.696,316.139z"/>
								
									<linearGradient id="SVGID_26_" gradientUnits="userSpaceOnUse" x1="1970.0215" y1="1872.7256" x2="1989.9316" y2="1872.7256" gradientTransform="matrix(1 0 0 1 -1363.4004 -1573.0996)">
									<stop  offset="0" style="stop-color:#F7A9AD"/>
									<stop  offset="0.7773" style="stop-color:#F04C3C"/>
									<stop  offset="1" style="stop-color:#ED2224"/>
								</linearGradient>
								<path fill="url(#SVGID_26_)" d="M626.531,308.332c-6.439,3.721-13.34,15.832-13.34,15.832
									c-6.13-12.879-7.289-23.52-6.213-31.914c3.503-11.422,10.322-17.162,10.322-17.162L626.531,308.332z"/>
								
									<linearGradient id="SVGID_27_" gradientUnits="userSpaceOnUse" x1="1989.0352" y1="1869.9629" x2="2019.9078" y2="1869.9629" gradientTransform="matrix(1 0 0 1 -1363.4004 -1573.0996)">
									<stop  offset="0" style="stop-color:#580E0E"/>
									<stop  offset="1" style="stop-color:#ED2224"/>
								</linearGradient>
								<path fill="url(#SVGID_27_)" d="M617.571,275.088c0,0-17.356,14.619-4.123,43.551c0,0,7.13-13.021,12.519-13.322
									L617.571,275.088z"/>
							</g>
							
								<linearGradient id="SVGID_28_" gradientUnits="userSpaceOnUse" x1="1992.959" y1="1823.5723" x2="2021.2843" y2="1823.5723" gradientTransform="matrix(1 0 0 1 -1363.4004 -1573.0996)">
								<stop  offset="0" style="stop-color:#580E0E"/>
								<stop  offset="1" style="stop-color:#ED2224"/>
							</linearGradient>
							<path fill="url(#SVGID_28_)" d="M666.781,250.607c0,27.94-7.142,48.799-12.506,60.52c-0.871,1.904-1.694,3.568-2.438,4.98
								c-2.206-0.705-4.502-1.213-6.863-1.5c-1.524-0.191-3.077-0.283-4.651-0.283c-2.186,0-4.326,0.186-6.405,0.541
								c-0.286,0.047-0.566,0.102-0.854,0.154l-2.539,0.588c-0.545,0.145-1.084,0.301-1.617,0.475
								c-0.527-1.01-1.102-2.146-1.704-3.416c-5.416-11.381-13.214-32.844-13.214-62.057c0-44.767,26.394-65.771,26.394-65.771
								S666.781,205.844,666.781,250.607z"/>
							
								<linearGradient id="SVGID_29_" gradientUnits="userSpaceOnUse" x1="2002.6738" y1="1860.7539" x2="2002.6738" y2="1823.6243" gradientTransform="matrix(1 0 0 1 -1363.4004 -1573.0996)">
								<stop  offset="0" style="stop-color:#580E0E"/>
								<stop  offset="1" style="stop-color:#ED2224"/>
							</linearGradient>
							<path fill="url(#SVGID_29_)" d="M662.146,248.32c0,26.436-6.634,45.926-11.323,56.397c-2.563,5.729-4.546,8.765-4.546,8.765
								s-0.478,0.508-1.301,1.123c-1.524-0.189-3.078-0.283-4.652-0.283c-2.185,0-4.326,0.186-6.407,0.541
								c-1.043-0.727-1.657-1.381-1.657-1.381s-1.177-1.803-2.896-5.25c-4.567-9.215-12.964-30.166-12.964-59.912
								c0-40.904,22.867-60.098,22.867-60.098S662.146,207.416,662.146,248.32z"/>
							
								<linearGradient id="SVGID_30_" gradientUnits="userSpaceOnUse" x1="1984.1406" y1="1825.5791" x2="2019.7053" y2="1825.5791" gradientTransform="matrix(1 0 0 1 -1363.4004 -1573.0996)">
								<stop  offset="0" style="stop-color:#580E0E"/>
								<stop  offset="1" style="stop-color:#ED2224"/>
							</linearGradient>
							<path fill="url(#SVGID_30_)" d="M662.146,248.65c0,37.633-14.604,59.975-14.604,59.975s-2.828,2.996-6.454,2.996
								s-6.452-2.996-6.452-2.996s-14.592-22.342-14.592-59.975c0-37.646,21.044-55.313,21.044-55.313
								S662.146,211.004,662.146,248.65z"/>
							<path opacity="0.5" fill="#333231" enable-background="new    " d="M652.34,254.084c0,6.09-4.933,11.023-11.017,11.023
								c-4.335,0-8.08-2.506-9.876-6.15c-0.722-1.471-1.131-3.121-1.131-4.873c0-6.084,4.933-11.018,11.009-11.018
								c3.975,0,7.452,2.1,9.396,5.256C651.745,249.998,652.341,251.969,652.34,254.084z"/>
							
								<radialGradient id="SVGID_31_" cx="2001.0908" cy="1823.1484" r="46.0611" gradientTransform="matrix(0.9989 0 0 1 -1360.377 -1573.0996)" gradientUnits="userSpaceOnUse">
								<stop  offset="0" style="stop-color:#F7A9AD"/>
								<stop  offset="0.7773" style="stop-color:#F04C3C"/>
								<stop  offset="1" style="stop-color:#ED2224"/>
							</radialGradient>
							<path fill="url(#SVGID_31_)" d="M634.309,299.973c0,0-0.185-0.344-0.527-0.979c-0.303-0.656-0.839-1.596-1.357-2.854
								c-0.501-1.259-1.23-2.761-1.823-4.558c-0.589-1.801-1.415-3.797-1.977-6.063c-0.31-1.127-0.631-2.304-0.963-3.521
								c-0.157-0.61-0.319-1.231-0.486-1.863c-0.129-0.637-0.262-1.282-0.396-1.938c-0.261-1.316-0.526-2.666-0.802-4.052
								c-0.28-1.381-0.554-2.797-0.695-4.252c-0.314-2.901-0.777-5.901-1.007-8.971c-0.124-3.068-0.25-6.188-0.374-9.311
								l-0.031-1.172c0-0.486,0.021-0.801,0.03-1.207l0.073-2.313l0.072-2.297c0.063-0.781,0.125-1.563,0.187-2.345
								c0.124-1.555,0.224-3.104,0.479-4.598c0.237-1.498,0.389-2.988,0.693-4.436c0.308-1.443,0.517-2.879,0.886-4.252
								c0.365-1.373,0.688-2.723,1.074-4.018c0.419-1.287,0.771-2.552,1.208-3.744c0.468-1.185,0.87-2.34,1.34-3.422
								c0.904-2.175,1.856-4.109,2.794-5.775c0.913-1.676,1.813-3.075,2.604-4.189c0.764-1.131,1.472-1.947,1.938-2.504
								c0.477-0.552,0.75-0.826,0.75-0.826s-0.217,0.326-0.564,0.957c-0.353,0.633-0.836,1.578-1.404,2.793
								c-0.581,1.207-1.199,2.715-1.874,4.447c-0.666,1.736-1.313,3.729-1.979,5.907c-0.636,2.19-1.216,4.584-1.776,7.125
								c-0.521,2.556-0.96,5.265-1.351,8.071c-0.366,2.813-0.611,5.748-0.781,8.682c-0.05,0.738-0.098,1.479-0.146,2.223
								l-0.037,2.299l-0.036,2.31c-0.002,0.358-0.021,0.821-0.015,1.104l0.046,1.144c0.072,3.045,0.146,6.092,0.223,9.092
								c0.217,2.988,0.427,5.937,0.629,8.785c0.063,1.433,0.301,2.815,0.443,4.188c0.159,1.364,0.313,2.707,0.469,4.008
								c0.079,0.651,0.156,1.299,0.229,1.934c0.104,0.625,0.209,1.244,0.313,1.854c0.19,1.226,0.381,2.398,0.563,3.533
								c0.094,0.566,0.185,1.123,0.271,1.666c0.106,0.541,0.222,1.063,0.327,1.574c0.201,1.029,0.396,2.002,0.574,2.92
								c0.354,1.848,0.791,3.41,1.075,4.736c0.339,1.307,0.604,2.332,0.787,3.029C634.195,299.604,634.309,299.973,634.309,299.973z
								"/>
							
								<linearGradient id="SVGID_32_" gradientUnits="userSpaceOnUse" x1="2016.8984" y1="1801.9648" x2="2016.8984" y2="1851.6791" gradientTransform="matrix(1 0 0 1 -1363.4004 -1573.0996)">
								<stop  offset="0" style="stop-color:#FCDEE0"/>
								<stop  offset="0.0408" style="stop-color:#FCDBDC"/>
								<stop  offset="0.7607" style="stop-color:#F69CA1"/>
							</linearGradient>
							<path fill="url(#SVGID_32_)" d="M648.297,296.387c0,0,0.104-0.273,0.312-0.795c0.188-0.525,0.438-1.303,0.793-2.271
								c0.313-0.981,0.687-2.182,1.111-3.555c0.371-1.391,0.79-2.955,1.247-4.662c0.462-1.703,0.792-3.598,1.268-5.559
								c0.503-1.959,0.75-4.084,1.166-6.248c0.188-1.082,0.383-2.186,0.579-3.301c0.131-1.125,0.265-2.27,0.396-3.414
								c0.144-1.146,0.281-2.305,0.431-3.465c0.151-1.16,0.298-2.324,0.331-3.502c0.157-2.348,0.313-4.688,0.471-6.996
								c0.037-0.563,0.072-1.119,0.107-1.678c0-0.576,0-1.152,0-1.729c0.003-1.143,0.004-2.27,0.008-3.379
								c0.006-1.107,0.01-2.197,0.016-3.27c-0.037-1.061-0.146-2.072-0.211-3.078c-0.072-1-0.146-1.973-0.214-2.912
								c-0.07-0.943-0.081-1.863-0.25-2.729c-0.274-1.735-0.491-3.345-0.685-4.771c-0.083-0.719-0.191-1.383-0.353-1.98
								c-0.136-0.605-0.261-1.166-0.375-1.666c-0.44-2.021-0.668-3.193-0.668-3.193s0.417,1.104,1.104,3.072
								c0.167,0.494,0.354,1.039,0.559,1.633c0.223,0.593,0.407,1.242,0.567,1.951c0.354,1.404,0.752,2.998,1.146,4.746
								c0.408,1.75,0.577,3.695,0.871,5.742c0.126,1.021,0.295,2.08,0.396,3.152c0.036,1.068,0.073,2.156,0.112,3.271
								c0.036,1.107,0.073,2.234,0.11,3.384c0.019,0.563,0.033,1.145,0.056,1.721c-0.017,0.676-0.061,1.191-0.089,1.799
								c-0.133,2.348-0.267,4.727-0.396,7.107c-0.053,1.188-0.21,2.377-0.378,3.553c-0.159,1.18-0.314,2.354-0.479,3.518
								c-0.164,1.162-0.327,2.314-0.485,3.455c-0.235,1.125-0.476,2.238-0.702,3.336c-0.479,2.188-0.866,4.313-1.484,6.271
								c-0.577,1.971-1.063,3.846-1.669,5.527c-0.604,1.688-1.154,3.225-1.699,4.565c-0.58,1.328-1.086,2.483-1.502,3.438
								c-0.454,0.939-0.845,1.658-1.095,2.152C648.442,296.129,648.297,296.387,648.297,296.387z"/>
							
								<radialGradient id="SVGID_33_" cx="2001.0918" cy="1823.1494" r="46.059" gradientTransform="matrix(0.9989 0 0 1 -1360.377 -1573.0996)" gradientUnits="userSpaceOnUse">
								<stop  offset="0" style="stop-color:#F7A9AD"/>
								<stop  offset="0.7773" style="stop-color:#F04C3C"/>
								<stop  offset="1" style="stop-color:#ED2224"/>
							</radialGradient>
							<path fill="url(#SVGID_33_)" d="M651.379,246.125c-2.329-3.189-6.076-5.258-10.319-5.258
								c-7.062,0-12.798,5.732-12.798,12.811c0,6.729,5.218,12.275,11.84,12.764c-0.327,0.021-0.632,0.037-0.947,0.037h-0.133
								c0.098,0.017,0.182,0.017,0.277,0.023c-0.327,0.021-0.646,0.035-0.974,0.035c-7.921,0-14.35-6.436-14.35-14.365
								c0-7.928,6.428-14.361,14.35-14.361c5.493,0,10.265,3.099,12.678,7.625c-0.021-0.037-0.053-0.069-0.084-0.106
								C651.077,245.576,651.233,245.846,651.379,246.125z"/>
							<g>
								
									<linearGradient id="SVGID_34_" gradientUnits="userSpaceOnUse" x1="1544.4189" y1="670.917" x2="1557.2118" y2="683.71" gradientTransform="matrix(1 0 0 1 -910.6309 -424.375)">
									<stop  offset="0.2393" style="stop-color:#B5E2EE"/>
									<stop  offset="1" style="stop-color:#E7F5F8"/>
								</linearGradient>
								<path fill="url(#SVGID_34_)" d="M649.952,253.092c0,5.313-4.306,9.623-9.614,9.623c-3.785,0-7.058-2.188-8.622-5.373
									c-0.633-1.277-0.987-2.725-0.986-4.25c0-5.314,4.303-9.621,9.608-9.621c3.469,0,6.506,1.838,8.196,4.59
									C649.431,249.525,649.952,251.244,649.952,253.092z"/>
								
									<linearGradient id="SVGID_35_" gradientUnits="userSpaceOnUse" x1="1542.3467" y1="679.7617" x2="1560.583" y2="679.7617" gradientTransform="matrix(1 0 0 1 -910.6309 -424.375)">
									<stop  offset="0" style="stop-color:#E7F5F8"/>
									<stop  offset="0.7607" style="stop-color:#B5E2EE"/>
								</linearGradient>
								<path fill="url(#SVGID_35_)" d="M649.952,253.092c0,5.313-4.306,9.623-9.614,9.623c-3.785,0-7.058-2.188-8.622-5.373
									c0.722-2.777,2.818-6.938,8.981-6.938c3.16,0,5.771-0.906,7.837-2.346C649.431,249.525,649.952,251.244,649.952,253.092z"/>
							</g>
							
								<linearGradient id="SVGID_36_" gradientUnits="userSpaceOnUse" x1="1996.2373" y1="1818.7422" x2="2010.323" y2="1818.7422" gradientTransform="matrix(1 0 0 1 -1363.4004 -1573.0996)">
								<stop  offset="0" style="stop-color:#580E0E"/>
								<stop  offset="1" style="stop-color:#ED2224"/>
							</linearGradient>
							<circle fill="url(#SVGID_36_)" cx="634.946" cy="245.642" r="2.11"/>
						</g>
					</g>
					<g>
						
							<linearGradient id="SVGID_37_" gradientUnits="userSpaceOnUse" x1="2082.9443" y1="1878.04" x2="2071.1758" y2="1889.8082" gradientTransform="matrix(-1 0 0 1 2746.0586 -1573.0996)">
							<stop  offset="0" style="stop-color:#080808"/>
							<stop  offset="0.9613" style="stop-color:#68605E"/>
							<stop  offset="1" style="stop-color:#6C6461"/>
						</linearGradient>
						<path fill="url(#SVGID_37_)" d="M673.78,292.25c1.077,8.395-0.082,19.035-6.214,31.914c0,0-6.201-10.883-12.333-15.184
							c-1.025,2.369-2.014,4.434-2.896,6.168l-0.273,0.992c7.313,0.411,16.992,18.094,16.992,18.094
							C677.363,316.074,676.796,302.064,673.78,292.25z"/>
						
							<linearGradient id="SVGID_38_" gradientUnits="userSpaceOnUse" x1="2079.0889" y1="1874.168" x2="2067.3176" y2="1885.9393" gradientTransform="matrix(-1 0 0 1 2746.0586 -1573.0996)">
							<stop  offset="0" style="stop-color:#080808"/>
							<stop  offset="0.9613" style="stop-color:#68605E"/>
							<stop  offset="1" style="stop-color:#6C6461"/>
						</linearGradient>
						<path fill="url(#SVGID_38_)" d="M667.311,318.639c0,0-5.702-10.402-10.761-12.824c-0.443,1.111-0.886,2.164-1.318,3.164
							c6.132,4.304,12.333,15.188,12.333,15.188c6.131-12.881,7.292-23.521,6.215-31.916c-2.578-8.408-6.945-13.729-9.078-15.959
							c-0.017,0.094-0.029,0.188-0.047,0.283C668.543,280.957,678.107,295.037,667.311,318.639z"/>
						
							<linearGradient id="SVGID_39_" gradientUnits="userSpaceOnUse" x1="2037.168" y1="1873.3291" x2="2022.7358" y2="1873.3291" gradientTransform="matrix(1 0 0 1 -1363.4004 -1573.0996)">
							<stop  offset="0" style="stop-color:#080808"/>
							<stop  offset="0.9613" style="stop-color:#68605E"/>
							<stop  offset="1" style="stop-color:#6C6461"/>
						</linearGradient>
						<path fill="url(#SVGID_39_)" d="M667.311,318.639c0,0-5.702-10.402-10.761-12.824c-0.443,1.111-0.886,2.164-1.318,3.164
							c6.132,4.304,12.333,15.188,12.333,15.188c6.131-12.881,7.292-23.521,6.215-31.916c-2.578-8.408-6.945-13.729-9.078-15.959
							c-0.017,0.094-0.029,0.188-0.047,0.283C668.543,280.957,678.107,295.037,667.311,318.639z"/>
						
							<linearGradient id="SVGID_40_" gradientUnits="userSpaceOnUse" x1="2077.8506" y1="1872.9346" x2="2066.0789" y2="1884.7063" gradientTransform="matrix(-1 0 0 1 2746.0586 -1573.0996)">
							<stop  offset="0" style="stop-color:#080808"/>
							<stop  offset="0.9613" style="stop-color:#68605E"/>
							<stop  offset="1" style="stop-color:#6C6461"/>
						</linearGradient>
						<path fill="url(#SVGID_40_)" d="M667.311,318.639c10.797-23.604,1.23-37.682-2.656-42.063
							c-2.003,11.979-5.128,21.818-8.104,29.238C661.608,308.236,667.311,318.639,667.311,318.639z"/>
						
							<linearGradient id="SVGID_41_" gradientUnits="userSpaceOnUse" x1="2037.168" y1="1870.707" x2="2022.7357" y2="1870.707" gradientTransform="matrix(1 0 0 1 -1363.4004 -1573.0996)">
							<stop  offset="0" style="stop-color:#080808"/>
							<stop  offset="0.9613" style="stop-color:#68605E"/>
							<stop  offset="1" style="stop-color:#6C6461"/>
						</linearGradient>
						<path fill="url(#SVGID_41_)" d="M667.311,318.639c10.797-23.604,1.23-37.682-2.656-42.063
							c-2.003,11.979-5.128,21.818-8.104,29.238C661.608,308.236,667.311,318.639,667.311,318.639z"/>
						
							<linearGradient id="SVGID_42_" gradientUnits="userSpaceOnUse" x1="1988.9258" y1="1870.707" x2="2022.1421" y2="1870.707" gradientTransform="matrix(1 0 0 1 -1363.4004 -1573.0996)">
							<stop  offset="0" style="stop-color:#080808"/>
							<stop  offset="0.9613" style="stop-color:#68605E"/>
							<stop  offset="1" style="stop-color:#6C6461"/>
						</linearGradient>
						<path fill="url(#SVGID_42_)" d="M667.311,318.639c10.797-23.604,1.23-37.682-2.656-42.063
							c-2.003,11.979-5.128,21.818-8.104,29.238C661.608,308.236,667.311,318.639,667.311,318.639z"/>
						
							<linearGradient id="SVGID_43_" gradientUnits="userSpaceOnUse" x1="1981.043" y1="1878.0381" x2="1969.2754" y2="1889.8058" gradientTransform="matrix(1 0 0 1 -1363.4004 -1573.0996)">
							<stop  offset="0" style="stop-color:#080808"/>
							<stop  offset="0.9613" style="stop-color:#68605E"/>
							<stop  offset="1" style="stop-color:#6C6461"/>
						</linearGradient>
						<path fill="url(#SVGID_43_)" d="M613.191,324.164c-6.131-12.879-7.289-23.52-6.214-31.914
							c-3.019,9.814-3.583,23.824,4.725,41.982c0,0,9.685-17.681,16.996-18.092l-0.275-1.005c-0.885-1.731-1.864-3.797-2.894-6.157
							C619.394,313.277,613.191,324.164,613.191,324.164z"/>
						
							<linearGradient id="SVGID_44_" gradientUnits="userSpaceOnUse" x1="1977.1865" y1="1874.166" x2="1965.4159" y2="1885.9368" gradientTransform="matrix(1 0 0 1 -1363.4004 -1573.0996)">
							<stop  offset="0" style="stop-color:#080808"/>
							<stop  offset="0.9613" style="stop-color:#68605E"/>
							<stop  offset="1" style="stop-color:#6C6461"/>
						</linearGradient>
						<path fill="url(#SVGID_44_)" d="M613.191,324.164c0,0,6.202-10.887,12.337-15.188c-0.435-0.998-0.873-2.058-1.314-3.162
							c-5.062,2.414-10.765,12.826-10.765,12.826c-10.813-23.627-1.216-37.707,2.666-42.078c-0.016-0.095-0.027-0.188-0.047-0.281
							c-2.125,2.221-6.507,7.551-9.09,15.969C605.903,300.641,607.061,311.285,613.191,324.164z"/>
						
							<linearGradient id="SVGID_45_" gradientUnits="userSpaceOnUse" x1="1970.0225" y1="1873.3223" x2="1989.9324" y2="1873.3223" gradientTransform="matrix(1 0 0 1 -1363.4004 -1573.0996)">
							<stop  offset="0" style="stop-color:#7B726E"/>
							<stop  offset="1" style="stop-color:#6C6461"/>
						</linearGradient>
						<path fill="url(#SVGID_45_)" d="M613.191,324.164c0,0,6.202-10.887,12.337-15.188c-0.435-0.998-0.873-2.058-1.314-3.162
							c-5.062,2.414-10.765,12.826-10.765,12.826c-10.813-23.627-1.216-37.707,2.666-42.078c-0.016-0.095-0.027-0.188-0.047-0.281
							c-2.125,2.221-6.507,7.551-9.09,15.969C605.903,300.641,607.061,311.285,613.191,324.164z"/>
						
							<linearGradient id="SVGID_46_" gradientUnits="userSpaceOnUse" x1="1975.9482" y1="1872.9326" x2="1964.1763" y2="1884.7047" gradientTransform="matrix(1 0 0 1 -1363.4004 -1573.0996)">
							<stop  offset="0" style="stop-color:#080808"/>
							<stop  offset="0.9613" style="stop-color:#68605E"/>
							<stop  offset="1" style="stop-color:#6C6461"/>
						</linearGradient>
						<path fill="url(#SVGID_46_)" d="M613.448,318.639c0,0,5.704-10.41,10.766-12.826c-2.977-7.424-6.101-17.27-8.1-29.252
							C612.232,280.932,602.64,295.012,613.448,318.639z"/>
						
							<linearGradient id="SVGID_47_" gradientUnits="userSpaceOnUse" x1="1970.0215" y1="1870.6992" x2="1989.9308" y2="1870.6992" gradientTransform="matrix(1 0 0 1 -1363.4004 -1573.0996)">
							<stop  offset="0" style="stop-color:#7B726E"/>
							<stop  offset="1" style="stop-color:#6C6461"/>
						</linearGradient>
						<path fill="url(#SVGID_47_)" d="M613.448,318.639c0,0,5.704-10.41,10.766-12.826c-2.977-7.424-6.101-17.27-8.1-29.252
							C612.232,280.932,602.64,295.012,613.448,318.639z"/>
						
							<linearGradient id="SVGID_48_" gradientUnits="userSpaceOnUse" x1="1989.0342" y1="1870.6992" x2="2019.9067" y2="1870.6992" gradientTransform="matrix(1 0 0 1 -1363.4004 -1573.0996)">
							<stop  offset="0" style="stop-color:#080808"/>
							<stop  offset="0.9613" style="stop-color:#68605E"/>
							<stop  offset="1" style="stop-color:#6C6461"/>
						</linearGradient>
						<path fill="url(#SVGID_48_)" d="M613.448,318.639c0,0,5.704-10.41,10.766-12.826c-2.977-7.424-6.101-17.27-8.1-29.252
							C612.232,280.932,602.64,295.012,613.448,318.639z"/>
					</g>
					<g>
						
							<linearGradient id="SVGID_49_" gradientUnits="userSpaceOnUse" x1="1992.9619" y1="1776.8574" x2="2021.2855" y2="1776.8574" gradientTransform="matrix(1 0 0 1 -1363.4004 -1573.0996)">
							<stop  offset="0" style="stop-color:#080808"/>
							<stop  offset="0.9613" style="stop-color:#68605E"/>
							<stop  offset="1" style="stop-color:#6C6461"/>
						</linearGradient>
						<path fill="url(#SVGID_49_)" d="M639.269,188.224c0,0,12.023,10.093,18.639,31.231c1.791,0.938,3.499,2.02,5.104,3.219
							c-7.294-25.625-22.634-37.833-22.634-37.833s-15.292,12.176-22.596,37.74c0.779-0.578,1.58-1.128,2.405-1.646
							C626.689,198.785,639.269,188.224,639.269,188.224z"/>
						
							<linearGradient id="SVGID_50_" gradientUnits="userSpaceOnUse" x1="1992.96" y1="1777.6787" x2="2021.2849" y2="1777.6787" gradientTransform="matrix(1 0 0 1 -1363.4004 -1573.0996)">
							<stop  offset="0" style="stop-color:#080808"/>
							<stop  offset="0.9613" style="stop-color:#68605E"/>
							<stop  offset="1" style="stop-color:#6C6461"/>
						</linearGradient>
						<path fill="url(#SVGID_50_)" d="M639.269,188.224c0,0-12.578,10.562-19.076,32.709c1.605-1.011,3.297-1.904,5.059-2.668
							c6.229-16.854,15.843-24.926,15.843-24.926s9.94,8.344,16.165,25.783c0.22,0.105,0.437,0.22,0.647,0.33
							C651.292,198.317,639.269,188.224,639.269,188.224z"/>
						
							<linearGradient id="SVGID_51_" gradientUnits="userSpaceOnUse" x1="2002.4492" y1="1862.2246" x2="2002.4492" y2="1824.5463" gradientTransform="matrix(1 0 0 1 -1363.4004 -1573.0996)">
							<stop  offset="0" style="stop-color:#080808"/>
							<stop  offset="0.9613" style="stop-color:#68605E"/>
							<stop  offset="1" style="stop-color:#6C6461"/>
						</linearGradient>
						<path fill="url(#SVGID_51_)" d="M639.269,188.224c0,0-12.578,10.562-19.076,32.709c1.605-1.011,3.297-1.904,5.059-2.668
							c6.229-16.854,15.843-24.926,15.843-24.926s9.94,8.344,16.165,25.783c0.22,0.105,0.437,0.22,0.647,0.33
							C651.292,198.317,639.269,188.224,639.269,188.224z"/>
						
							<linearGradient id="SVGID_52_" gradientUnits="userSpaceOnUse" x1="1992.96" y1="1779.3301" x2="2021.2844" y2="1779.3301" gradientTransform="matrix(1 0 0 1 -1363.4004 -1573.0996)">
							<stop  offset="0" style="stop-color:#080808"/>
							<stop  offset="0.9613" style="stop-color:#68605E"/>
							<stop  offset="1" style="stop-color:#6C6461"/>
						</linearGradient>
						<path fill="url(#SVGID_52_)" d="M632.707,212.049c0.916-1.674,1.813-3.072,2.604-4.188c0.762-1.131,1.471-1.946,1.938-2.504
							c0.478-0.551,0.75-0.825,0.75-0.825s-0.217,0.323-0.563,0.956c-0.354,0.633-0.836,1.576-1.406,2.791
							c-0.58,1.209-1.199,2.717-1.873,4.449c-0.368,0.961-0.729,2.002-1.097,3.109c2.353-0.458,4.777-0.699,7.263-0.699
							c6.086,0,11.833,1.438,16.934,3.982c-6.224-17.438-16.165-25.781-16.165-25.781s-9.609,8.07-15.845,24.924
							c1.697-0.738,3.461-1.354,5.274-1.843C631.243,214.813,631.98,213.35,632.707,212.049z"/>
						
							<linearGradient id="SVGID_53_" gradientUnits="userSpaceOnUse" x1="2004.6523" y1="1862.2207" x2="2004.6523" y2="1824.5444" gradientTransform="matrix(1 0 0 1 -1363.4004 -1573.0996)">
							<stop  offset="0" style="stop-color:#080808"/>
							<stop  offset="0.9613" style="stop-color:#68605E"/>
							<stop  offset="1" style="stop-color:#6C6461"/>
						</linearGradient>
						<path fill="url(#SVGID_53_)" d="M632.707,212.049c0.916-1.674,1.813-3.072,2.604-4.188c0.762-1.131,1.471-1.946,1.938-2.504
							c0.478-0.551,0.75-0.825,0.75-0.825s-0.217,0.323-0.563,0.956c-0.354,0.633-0.836,1.576-1.406,2.791
							c-0.58,1.209-1.199,2.717-1.873,4.449c-0.368,0.961-0.729,2.002-1.097,3.109c2.353-0.458,4.777-0.699,7.263-0.699
							c6.086,0,11.833,1.438,16.934,3.982c-6.224-17.438-16.165-25.781-16.165-25.781s-9.609,8.07-15.845,24.924
							c1.697-0.738,3.461-1.354,5.274-1.843C631.243,214.813,631.98,213.35,632.707,212.049z"/>
						
							<linearGradient id="SVGID_54_" gradientUnits="userSpaceOnUse" x1="1984.1396" y1="1779.3301" x2="2019.7043" y2="1779.3301" gradientTransform="matrix(1 0 0 1 -1363.4004 -1573.0996)">
							<stop  offset="0" style="stop-color:#080808"/>
							<stop  offset="0.9613" style="stop-color:#68605E"/>
							<stop  offset="1" style="stop-color:#6C6461"/>
						</linearGradient>
						<path fill="url(#SVGID_54_)" d="M632.707,212.049c0.916-1.674,1.813-3.072,2.604-4.188c0.762-1.131,1.471-1.946,1.938-2.504
							c0.478-0.551,0.75-0.825,0.75-0.825s-0.217,0.323-0.563,0.956c-0.354,0.633-0.836,1.576-1.406,2.791
							c-0.58,1.209-1.199,2.717-1.873,4.449c-0.368,0.961-0.729,2.002-1.097,3.109c2.353-0.458,4.777-0.699,7.263-0.699
							c6.086,0,11.833,1.438,16.934,3.982c-6.224-17.438-16.165-25.781-16.165-25.781s-9.609,8.07-15.845,24.924
							c1.697-0.738,3.461-1.354,5.274-1.843C631.243,214.813,631.98,213.35,632.707,212.049z"/>
						
							<linearGradient id="SVGID_55_" gradientUnits="userSpaceOnUse" x1="1992.96" y1="1783.5771" x2="2021.2833" y2="1783.5771" gradientTransform="matrix(1 0 0 1 -1363.4004 -1573.0996)">
							<stop  offset="0" style="stop-color:#080808"/>
							<stop  offset="0.9613" style="stop-color:#68605E"/>
							<stop  offset="1" style="stop-color:#6C6461"/>
						</linearGradient>
						<path fill="url(#SVGID_55_)" d="M636.032,208.279c0.57-1.215,1.057-2.158,1.406-2.791c0.351-0.633,0.563-0.957,0.563-0.957
							s-0.273,0.273-0.75,0.826c-0.469,0.557-1.178,1.371-1.938,2.502c-0.792,1.117-1.688,2.516-2.604,4.189
							c-0.729,1.299-1.469,2.766-2.188,4.375c0.835-0.224,1.687-0.42,2.54-0.586c0.363-1.105,0.729-2.148,1.097-3.107
							C634.832,210.996,635.452,209.488,636.032,208.279z"/>
						
							<linearGradient id="SVGID_56_" gradientUnits="userSpaceOnUse" x1="1997.6621" y1="1862.2334" x2="1997.6621" y2="1824.552" gradientTransform="matrix(1 0 0 1 -1363.4004 -1573.0996)">
							<stop  offset="0" style="stop-color:#080808"/>
							<stop  offset="0.9613" style="stop-color:#68605E"/>
							<stop  offset="1" style="stop-color:#6C6461"/>
						</linearGradient>
						<path fill="url(#SVGID_56_)" d="M636.032,208.279c0.57-1.215,1.057-2.158,1.406-2.791c0.351-0.633,0.563-0.957,0.563-0.957
							s-0.273,0.273-0.75,0.826c-0.469,0.557-1.178,1.371-1.938,2.502c-0.792,1.117-1.688,2.516-2.604,4.189
							c-0.729,1.299-1.469,2.766-2.188,4.375c0.835-0.224,1.687-0.42,2.54-0.586c0.363-1.105,0.729-2.148,1.097-3.107
							C634.832,210.996,635.452,209.488,636.032,208.279z"/>
						
							<linearGradient id="SVGID_57_" gradientUnits="userSpaceOnUse" x1="1984.1396" y1="1783.5771" x2="2019.703" y2="1783.5771" gradientTransform="matrix(1 0 0 1 -1363.4004 -1573.0996)">
							<stop  offset="0" style="stop-color:#080808"/>
							<stop  offset="0.9613" style="stop-color:#68605E"/>
							<stop  offset="1" style="stop-color:#6C6461"/>
						</linearGradient>
						<path fill="url(#SVGID_57_)" d="M636.032,208.279c0.57-1.215,1.057-2.158,1.406-2.791c0.351-0.633,0.563-0.957,0.563-0.957
							s-0.273,0.273-0.75,0.826c-0.469,0.557-1.178,1.371-1.938,2.502c-0.792,1.117-1.688,2.516-2.604,4.189
							c-0.729,1.299-1.469,2.766-2.188,4.375c0.835-0.224,1.687-0.42,2.54-0.586c0.363-1.105,0.729-2.148,1.097-3.107
							C634.832,210.996,635.452,209.488,636.032,208.279z"/>
						
							<radialGradient id="SVGID_58_" cx="2001.0908" cy="1823.1533" r="46.0656" gradientTransform="matrix(0.9989 0 0 1 -1360.377 -1573.0996)" gradientUnits="userSpaceOnUse">
							<stop  offset="0" style="stop-color:#7B726E"/>
							<stop  offset="1" style="stop-color:#6C6461"/>
						</radialGradient>
						<path fill="url(#SVGID_58_)" d="M636.032,208.279c0.57-1.215,1.057-2.158,1.406-2.791c0.351-0.633,0.563-0.957,0.563-0.957
							s-0.273,0.273-0.75,0.826c-0.469,0.557-1.178,1.371-1.938,2.502c-0.792,1.117-1.688,2.516-2.604,4.189
							c-0.729,1.299-1.469,2.766-2.188,4.375c0.835-0.224,1.687-0.42,2.54-0.586c0.363-1.105,0.729-2.148,1.097-3.107
							C634.832,210.996,635.452,209.488,636.032,208.279z"/>
					</g>
				</g>
				
					<linearGradient id="SVGID_59_" gradientUnits="userSpaceOnUse" x1="2003.9277" y1="1880.5479" x2="2003.9277" y2="1861.5149" gradientTransform="matrix(1 0 0 1 -1363.4004 -1573.0996)">
					<stop  offset="0" style="stop-color:#580E0E"/>
					<stop  offset="1" style="stop-color:#ED2224"/>
				</linearGradient>
				<path fill="url(#SVGID_59_)" d="M658.161,319.926c-1.905-0.934-3.899-1.723-5.964-2.363c-2.43-0.754-4.962-1.301-7.563-1.604
					c-1.678-0.203-3.396-0.31-5.127-0.31c-2.406,0-4.771,0.197-7.063,0.578c-0.313,0.056-0.625,0.109-0.938,0.168l-2.799,0.633
					c-0.604,0.154-1.195,0.324-1.784,0.511c-1.379,0.422-2.726,0.91-4.03,1.467c0.686-1.801,1.406-3.521,2.154-5.133
					c0.063-0.146,0.135-0.289,0.199-0.433c0.55-0.196,1.105-0.383,1.676-0.557c0.588-0.188,1.186-0.354,1.784-0.51l2.799-0.633
					c0.313-0.059,0.622-0.113,0.938-0.168c2.293-0.379,4.654-0.58,7.063-0.58c1.731,0,3.449,0.105,5.127,0.309
					c2.603,0.313,5.136,0.854,7.563,1.605c1.231,0.387,2.442,0.822,3.623,1.313C656.64,316.006,657.427,317.912,658.161,319.926z"/>
				
					<linearGradient id="SVGID_60_" gradientUnits="userSpaceOnUse" x1="1984.3447" y1="1876.332" x2="2018.3132" y2="1876.332" gradientTransform="matrix(1 0 0 1 -1363.4004 -1573.0996)">
					<stop  offset="0" style="stop-color:#580E0E"/>
					<stop  offset="1" style="stop-color:#ED2224"/>
				</linearGradient>
				<path fill="url(#SVGID_60_)" d="M655.82,314.217c-1.181-0.488-2.389-0.924-3.623-1.313c-2.431-0.756-4.962-1.299-7.563-1.605
					c-1.678-0.205-3.396-0.307-5.127-0.307c-2.406,0-4.771,0.199-7.063,0.578c-0.313,0.053-0.625,0.106-0.938,0.168l-2.799,0.633
					c-0.604,0.156-1.196,0.322-1.784,0.508c-0.564,0.176-1.125,0.357-1.676,0.557c0.711-1.524,1.44-2.969,2.182-4.326
					c6.207-11.368,12.918-16.86,12.918-16.86s5.231,4.274,10.729,13.092c1.271,2.052,2.563,4.343,3.806,6.878
					C655.199,312.869,655.515,313.535,655.82,314.217z"/>
			</g>
			<path opacity="0.9" fill="#038D80" enable-background="new    " d="M641.989,284.326c0,0,0.23,0.189,0.604,0.541
				c0.384,0.354,0.875,0.875,1.456,1.537c1.141,1.322,2.476,3.211,3.513,5.479c0.524,1.137,0.994,2.365,1.339,3.664
				c0.357,1.299,0.592,2.67,0.553,4.088c-0.031,1.416-0.396,2.885-0.818,4.371c-0.426,1.488-0.847,3.002-1.097,4.512
				c-0.497,3.023-1.042,6.051-1.654,8.892c-0.32,1.416-0.637,2.782-0.935,4.086c-0.313,1.299-0.604,2.524-0.882,3.661
				c-0.269,1.134-0.567,2.175-0.807,3.095c-0.235,0.924-0.458,1.729-0.653,2.39c-0.393,1.319-0.614,2.077-0.614,2.077h-1.584
				c0,0-0.224-0.758-0.614-2.077c-0.191-0.658-0.416-1.466-0.655-2.39c-0.233-0.92-0.533-1.961-0.806-3.095
				c-0.271-1.137-0.567-2.362-0.884-3.661c-0.296-1.304-0.604-2.67-0.932-4.086c-0.612-2.839-1.157-5.863-1.654-8.89
				c-0.251-1.514-0.67-3.021-1.096-4.514c-0.424-1.486-0.785-2.955-0.819-4.371c-0.041-1.416,0.19-2.787,0.553-4.086
				c0.35-1.299,0.813-2.529,1.344-3.666c1.034-2.271,2.37-4.156,3.508-5.479c0.581-0.662,1.075-1.185,1.456-1.537
				c0.371-0.352,0.604-0.541,0.604-0.541H641.989L641.989,284.326z"/>
			<path fill="#006666" d="M642.12,276.033c0,0,0.231,0.189,0.604,0.545c0.382,0.355,0.875,0.873,1.453,1.533
				c1.142,1.324,2.476,3.213,3.513,5.479c0.524,1.139,0.995,2.363,1.34,3.664c0.359,1.303,0.595,2.674,0.556,4.09
				c-0.034,1.414-0.397,2.883-0.818,4.369c-0.428,1.484-0.847,3-1.098,4.514c-0.497,3.021-1.041,6.051-1.655,8.885
				c-0.321,1.421-0.635,2.789-0.935,4.089c-0.313,1.299-0.604,2.528-0.881,3.661c-0.268,1.136-0.564,2.173-0.806,3.099
				c-0.238,0.92-0.459,1.728-0.656,2.383c-0.391,1.322-0.614,2.08-0.614,2.08h-1.584c0,0-0.225-0.758-0.613-2.08
				c-0.194-0.655-0.416-1.463-0.653-2.383c-0.236-0.926-0.535-1.963-0.806-3.099c-0.271-1.133-0.568-2.36-0.885-3.661
				c-0.297-1.3-0.604-2.668-0.932-4.089c-0.613-2.834-1.159-5.86-1.655-8.885c-0.252-1.514-0.67-3.022-1.095-4.514
				c-0.423-1.486-0.787-2.955-0.82-4.369c-0.042-1.416,0.192-2.787,0.553-4.09c0.35-1.299,0.813-2.525,1.343-3.664
				c1.034-2.271,2.37-4.154,3.507-5.479c0.583-0.66,1.075-1.18,1.457-1.533c0.372-0.354,0.604-0.545,0.604-0.545H642.12
				L642.12,276.033z"/>
			
				<linearGradient id="SVGID_61_" gradientUnits="userSpaceOnUse" x1="2006.916" y1="1857.3008" x2="2006.916" y2="1881.3198" gradientTransform="matrix(1 0 0 1 -1363.4004 -1573.0996)">
				<stop  offset="0" style="stop-color:#FCDEE0"/>
				<stop  offset="0.0408" style="stop-color:#FCDBDC"/>
				<stop  offset="0.7607" style="stop-color:#00A89C"/>
			</linearGradient>
			<path fill="url(#SVGID_61_)" d="M640.661,316.824c0,0,0.063-0.135,0.171-0.385c0.104-0.254,0.235-0.633,0.438-1.101
				c0.169-0.479,0.373-1.053,0.607-1.719c0.198-0.672,0.433-1.433,0.684-2.252c0.251-0.82,0.433-1.736,0.691-2.688
				c0.272-0.943,0.405-1.977,0.638-3.021c0.104-0.521,0.209-1.056,0.313-1.595c0.072-0.545,0.146-1.094,0.222-1.649
				c0.073-0.551,0.151-1.108,0.23-1.672c0.083-0.562,0.163-1.123,0.185-1.688c0.086-1.137,0.173-2.27,0.258-3.383
				c0.021-0.27,0.04-0.539,0.061-0.811c0-0.283,0.001-0.559,0.001-0.834c0.001-0.553,0.002-1.096,0.005-1.633
				c0.002-0.537,0.008-1.064,0.01-1.58c-0.021-0.51-0.079-1.004-0.113-1.486c-0.041-0.48-0.08-0.951-0.117-1.406
				c-0.04-0.457-0.045-0.9-0.139-1.318c-0.147-0.84-0.271-1.61-0.374-2.303c-0.044-0.35-0.104-0.668-0.189-0.959
				c-0.073-0.293-0.145-0.563-0.205-0.809c-0.241-0.975-0.363-1.543-0.363-1.543s0.229,0.533,0.604,1.484
				c0.092,0.235,0.19,0.502,0.306,0.789c0.121,0.283,0.226,0.602,0.313,0.94c0.189,0.68,0.412,1.446,0.63,2.293
				c0.224,0.847,0.313,1.785,0.477,2.771c0.068,0.494,0.16,1.012,0.215,1.524c0.021,0.517,0.044,1.041,0.063,1.574
				c0.02,0.536,0.04,1.079,0.061,1.635c0.016,0.274,0.021,0.554,0.031,0.832c-0.008,0.324-0.033,0.574-0.048,0.867
				c-0.073,1.137-0.146,2.282-0.22,3.437c-0.025,0.577-0.114,1.146-0.207,1.717c-0.086,0.57-0.172,1.141-0.26,1.699
				c-0.091,0.563-0.183,1.118-0.271,1.67c-0.13,0.547-0.258,1.084-0.385,1.608c-0.261,1.06-0.476,2.086-0.813,3.028
				c-0.313,0.951-0.579,1.856-0.911,2.673c-0.329,0.813-0.636,1.562-0.935,2.207c-0.313,0.646-0.594,1.202-0.817,1.661
				c-0.249,0.455-0.462,0.804-0.602,1.041C640.743,316.699,640.661,316.824,640.661,316.824z"/>
		</g>
		<rect x="528.808" y="326.076" fill="#A83313" width="31.298" height="4.865"/>
		<polygon fill="#CC3C15" points="575.911,345.551 513.002,345.551 518.161,332.941 570.751,332.941 		"/>
		<rect x="513.002" y="345.551" fill="#A83313" width="62.907" height="6.809"/>
	</g>
</g>
<rect x="-1.684" y="352.5" fill="#333333" width="1283.367" height="62"/>
</svg>
