<?xml version="1.0" encoding="utf-8"?>
<!-- Generator: Adobe Illustrator 16.0.0, SVG Export Plug-In . SVG Version: 6.00 Build 0)  -->
<!DOCTYPE svg PUBLIC "-//W3C//DTD SVG 1.1//EN" "http://www.w3.org/Graphics/SVG/1.1/DTD/svg11.dtd">
<svg version="1.1" id="Layer_1" xmlns="http://www.w3.org/2000/svg" xmlns:xlink="http://www.w3.org/1999/xlink" x="0px" y="0px"
	 width="1280px" height="400px" viewBox="0 0 1280 400" enable-background="new 0 0 1280 400" xml:space="preserve">
<g>
	<path fill="#F1F1F1" d="M1258.746,289.028c-7.664-7.45-18.159-12.048-29.741-12.048c-20.804,0-38.106,14.823-41.77,34.403
		c-7.034-5.547-15.936-8.87-25.625-8.87c-3.151,0-6.216,0.365-9.163,1.033c-5.732-2.817-12.188-4.404-19.02-4.404
		c-8.188,0-15.84,2.274-22.349,6.219c0.013-0.372,0.027-0.741,0.027-1.11c0-20.687-16.914-37.452-37.772-37.452
		c-15.411,0-28.656,9.153-34.528,22.269c-1.509-0.155-3.035-0.236-4.583-0.236c-16.043,0-30.092,8.463-37.854,21.132
		c-6.038-2.438-12.648-3.793-20.115-3.793c-4.938,0-9.725,0.594-14.286,1.697c-8.567-15.891-26.45-26.824-47.132-26.824
		c-8.709,0-16.915,1.945-24.144,5.377c-5.561-14.327-20.508-24.591-38.084-24.591c-7.707,0-14.91,1.976-21.037,5.4
		c0.012-0.323,0.026-0.644,0.026-0.965c0-17.96-15.922-32.518-35.558-32.518c-14.507,0-26.975,7.947-32.503,19.335
		c-1.42-0.135-2.856-0.205-4.313-0.205c-23.011,0-41.665,17.06-41.665,38.103c0,2.964,0.384,5.849,1.084,8.619
		c-2.394-0.531-4.888-0.818-7.46-0.818c-5.463,0-10.6,1.272-15.079,3.508c-5.644-6.866-14.626-11.309-24.744-11.309
		c-7.12,0-13.673,2.205-18.899,5.903c-5.787-14.421-20.931-24.706-38.704-24.706c-19.888,0-36.485,12.881-40.36,30.021
		c-0.855-1.167-1.821-2.259-2.871-3.275c1.299-3.055,2.015-6.375,2.015-9.849c0-15.045-13.336-27.242-29.786-27.242
		c-13.29,0-24.545,7.961-28.381,18.949c-4.409-5.229-11.329-8.602-19.112-8.602c-5.126,0-9.88,1.467-13.79,3.962
		c-5.439-8.553-15.563-14.31-27.162-14.31c-12.545,0-23.361,6.726-28.397,16.446c-5.122-2.473-10.956-3.881-17.154-3.881
		c-15.029,0-27.947,8.251-33.646,20.068c-7.215-6.468-17.094-10.461-27.996-10.461c-19.584,0-35.872,12.871-39.32,29.871
		c-6.622-4.815-15.001-7.701-24.123-7.701c-2.966,0-5.85,0.316-8.625,0.896c-5.396-2.445-11.473-3.824-17.904-3.824
		c-7.707,0-14.91,1.976-21.037,5.4c0.012-0.323,0.026-0.644,0.026-0.965c0-17.96-15.922-32.518-35.558-32.518
		c-14.507,0-26.975,7.947-32.503,19.335c-1.42-0.135-2.856-0.205-4.313-0.205c-23.011,0-41.665,17.06-41.665,38.103
		c0,2.964,0.384,5.849,1.084,8.619c-2.394-0.531-4.888-0.818-7.46-0.818c-5.463,0-10.6,1.272-15.079,3.508
		c-5.644-6.866-14.626-11.309-24.744-11.309c-7.12,0-13.673,2.205-18.899,5.903c-5.787-14.421-20.931-24.706-38.704-24.706
		c-6.1,0-12.423,2.616-18.293,6.208v79.965l415.406-0.682h444.851L1280,400l2-132.037
		C1271.594,271.449,1263.143,279.145,1258.746,289.028z"/>
</g>
<g>
	<polygon fill="none" points="656.136,398.903 656.136,399.086 556.568,399.086 556.555,400 888.074,400 888.074,398.903 	"/>
	<path fill="#FFFFFF" d="M556.568,399.086h99.567v-0.183h231.938V400H1282v-48.723c-3.023,0.467-5.795,1.611-8.121,3.258
		c-3.423-8.527-12.377-14.609-22.887-14.609c-11.76,0-21.573,7.617-23.865,17.752c-0.506-0.689-1.076-1.336-1.697-1.937
		c0.769-1.806,1.191-3.77,1.191-5.824c0-8.896-7.886-16.108-17.612-16.108c-7.858,0-14.514,4.708-16.782,11.205
		c-2.607-3.093-6.699-5.086-11.301-5.086c-3.031,0-5.842,0.867-8.154,2.343c-3.217-5.057-9.202-8.462-16.061-8.462
		c-7.418,0-13.813,3.978-16.791,9.726c-3.029-1.463-6.479-2.296-10.144-2.296c-8.888,0-16.525,4.88-19.896,11.867
		c-4.266-3.824-10.107-6.186-16.554-6.186c-11.58,0-21.211,7.611-23.25,17.663c-3.915-2.848-8.87-4.554-14.265-4.554
		c-1.754,0-3.459,0.188-5.1,0.53c-3.191-1.446-6.784-2.261-10.587-2.261c-4.558,0-8.816,1.167-12.439,3.192
		c0.007-0.19,0.017-0.38,0.017-0.57c0-10.62-9.416-19.229-21.026-19.229c-1.078,0-2.138,0.075-3.173,0.218
		c-0.054,0-0.105-0.009-0.159-0.009c-4.353,0-8.355,1.77-11.517,4.725c-1.646-10.428-9.423-18.328-18.774-18.328
		c-5.205,0-9.92,2.451-13.365,6.415c-2.724-7.248-8.889-12.311-16.066-12.311c-2.959,0-5.743,0.862-8.19,2.38
		c-2.402-5.964-7.568-10.088-13.558-10.088c-5.537,0-10.37,3.53-12.968,8.778c-1.869-1.529-4.139-2.429-6.586-2.429
		c-3.713,0-7.018,2.066-9.125,5.28c-1.83-6.745-7.205-11.628-13.547-11.628c-7.856,0-14.224,7.482-14.224,16.711
		c0,2.134,0.342,4.169,0.963,6.045c-0.504,0.62-0.963,1.292-1.374,2.009c-1.85-10.515-9.773-18.418-19.271-18.418
		c-8.485,0-15.716,6.312-18.478,15.156c-2.495-2.267-5.623-3.619-9.023-3.619c-4.831,0-9.119,2.725-11.814,6.94
		c-2.139-1.371-4.592-2.153-7.201-2.153c-1.229,0-2.418,0.176-3.561,0.501c0.334-1.7,0.516-3.468,0.516-5.288
		c0-12.91-8.904-23.376-19.891-23.376c-0.696,0-1.382,0.039-2.061,0.124c-2.641-6.986-8.594-11.86-15.521-11.86
		c-9.374,0-16.977,8.929-16.977,19.947c0,0.199,0.009,0.396,0.013,0.592c-2.928-2.102-6.366-3.313-10.045-3.313
		c-8.392,0-15.529,6.296-18.184,15.088c-3.454-2.104-7.371-3.298-11.528-3.298c-9.874,0-18.414,6.707-22.506,16.455
		c-2.178-0.676-4.462-1.039-6.821-1.039c-6.637,0-11.863,2.858-16.527,7.577v0.572c-5.097-4.682-10.81-7.52-18.061-7.52
		c-2.578,0-5.076,0.361-7.454,1.03c-4.469-9.671-13.801-16.326-24.591-16.326c-4.543,0-8.826,1.187-12.597,3.274
		c-2.902-8.722-10.7-14.97-19.871-14.97c-4.021,0-7.779,1.2-10.978,3.287c0.008-0.196,0.014-0.391,0.014-0.589
		c0-10.933-8.306-19.793-18.552-19.793c-7.567,0-14.073,4.836-16.959,11.768c-0.74-0.083-1.49-0.123-2.25-0.123
		c-12.007,0-21.738,10.383-21.738,23.193c0,1.804,0.2,3.561,0.566,5.246c-1.249-0.324-2.55-0.499-3.892-0.499
		c-2.851,0-5.531,0.776-7.868,2.138c-2.945-4.18-7.63-6.882-12.91-6.882c-3.714,0-7.133,1.341-9.863,3.589
		c-3.019-8.776-10.92-15.038-20.193-15.038c-10.376,0-19.037,7.841-21.058,18.274c-0.448-0.711-0.951-1.375-1.499-1.994
		c0.677-1.86,1.052-3.879,1.052-5.998c0-9.156-6.959-16.58-15.542-16.58c-6.933,0-12.805,4.845-14.807,11.535
		c-2.302-3.184-5.911-5.236-9.972-5.236c-2.676,0-5.156,0.895-7.195,2.412c-2.839-5.207-8.121-8.711-14.171-8.711
		c-6.545,0-12.19,4.095-14.816,10.012c-2.672-1.507-5.716-2.362-8.949-2.362c-7.843,0-14.581,5.024-17.556,12.216
		c-3.763-3.938-8.917-6.368-14.605-6.368c-10.219,0-18.716,7.837-20.515,18.184c-1.071-0.909-2.239-1.689-3.471-2.355
		c-3.856-4.14-9.589-6.773-16.001-6.773c-8.578,0-15.951,4.699-19.22,11.434c-0.839-0.08-1.689-0.122-2.551-0.122
		c-13.606,0-24.637,10.088-24.637,22.53c0,1.753,0.227,3.459,0.641,5.097c-1.415-0.313-2.89-0.483-4.411-0.483
		c-3.23,0-6.268,0.752-8.917,2.073c-3.337-4.06-8.648-6.687-14.631-6.687c-4.21,0-8.084,1.304-11.175,3.491
		c-3.422-8.527-12.377-14.609-22.886-14.609c-11.76,0-21.574,7.617-23.865,17.752c-0.506-0.689-1.077-1.336-1.698-1.937
		c0.769-1.806,1.192-3.77,1.192-5.824c0-8.896-7.886-16.108-17.613-16.108c-7.858,0-14.514,4.708-16.782,11.205
		c-2.607-3.093-6.699-5.086-11.301-5.086c-3.031,0-5.842,0.867-8.154,2.343c-3.217-5.057-9.203-8.462-16.062-8.462
		c-7.417,0-13.813,3.978-16.791,9.726c-3.029-1.463-6.478-2.296-10.143-2.296c-8.887,0-16.525,4.88-19.895,11.867
		c-4.267-3.824-10.108-6.186-16.554-6.186c-1.498,0-2.961,0.133-4.381,0.376V400h556.555L556.568,399.086z"/>
</g>
<path fill="#E2E2E2" d="M746.545,363.925c-2.421,0-4.657,0.779-6.479,2.1c-0.415-8.656-7.563-15.545-16.32-15.545
	c-2.773,0-5.385,0.692-7.672,1.912c1.053-2.701,1.639-5.636,1.639-8.709c0-13.243-10.734-23.979-23.977-23.979
	c-7.949,0-14.99,3.871-19.352,9.827l-15.063-90.799l10.467,95.235c-0.863-0.893-1.822-1.692-2.863-2.377l-12.465-86.883
	l7.128,84.571c-1.262-0.301-2.578-0.462-3.932-0.462c-2.996,0-5.808,0.784-8.247,2.153c-1.045-4.771-4.464-8.654-8.956-10.347
	l-3.263-59.782l0.543,59.055c-0.76-0.125-1.538-0.192-2.333-0.192c-0.503,0-0.998,0.035-1.488,0.086l-1.347-61.04l-1.36,61.594
	c-0.189,0.058-0.382,0.108-0.569,0.174c-4.736-7.526-12.514-12.944-21.609-14.526l5.238-61.283l-9.748,60.821
	c-0.337-0.011-0.675-0.018-1.015-0.018c-0.65,0-1.294,0.027-1.936,0.064l7.837-66.844l-12.623,67.494
	c-12.937,2.762-22.983,13.325-24.965,26.534c-0.514-0.035-1.031-0.06-1.554-0.06c-10.783,0-19.758,7.721-21.711,17.935
	c-3.246,0.55-6.036,2.527-7.772,5.302c-3.004-2.104-6.832-3.367-11.002-3.367c-9.653,0-17.479,6.756-17.479,15.089
	s7.826,15.088,17.479,15.088c1.385,0,2.732-0.143,4.025-0.405c9.815,6.706,53.239,11.76,105.33,11.76
	c46.928,0,86.82-4.103,101.443-9.819c1.723,1.107,3.77,1.752,5.969,1.752c6.105,0,11.055-4.949,11.055-11.055
	S752.65,363.925,746.545,363.925z M589.023,366.51c0.058-0.094,0.119-0.185,0.175-0.279c0.154,0.077,0.306,0.159,0.462,0.233
	C589.447,366.479,589.235,366.494,589.023,366.51z"/>
<path fill="#F4F4F4" d="M833.114,370.246c-2.516,0-4.948,0.222-7.262,0.627c-1.685-9.428-9.806-16.581-19.579-16.581
	c-1.213,0-2.399,0.117-3.555,0.327c-4.4-9.418-14.518-16.01-26.303-16.01c-10.018,0-18.832,4.768-23.951,11.983
	c-2.496-1.661-5.516-2.634-8.771-2.634c-6.398,0-11.894,3.759-14.272,9.126c-7.801-8.287-19.518-13.561-32.624-13.561
	c-14.013,0-26.438,6.032-34.184,15.328c-3.43-2.847-7.81-4.561-12.587-4.561c-1.215,0-2.402,0.117-3.556,0.327
	c-4.401-9.418-14.519-16.01-26.303-16.01c-10.018,0-18.832,4.768-23.952,11.983c-2.495-1.661-5.516-2.634-8.77-2.634
	c-6.398,0-11.893,3.759-14.271,9.126c-7.801-8.287-19.519-13.561-32.625-13.561c-16.324,0-30.496,8.179-37.624,20.177
	c-2.707-1.76-5.879-2.774-9.272-2.774c-5.138,0-9.769,2.327-13.039,6.048c-6.083-6.05-16.042-9.998-27.307-9.998
	c-18.523,0-33.54,10.667-33.54,23.825c0,2.86,0.711,5.603,2.012,8.144c-2.926,1.521-5.117,3.267-6.375,5.156h156.247h130.24H858.14
	c1.362-2.05,2.117-4.301,2.117-6.666C860.257,377.942,848.105,370.246,833.114,370.246z"/>
<g>
	<g>
		<g>
			<g>
				<g>
					
						<linearGradient id="SVGID_1_" gradientUnits="userSpaceOnUse" x1="1062.916" y1="666.8848" x2="1062.916" y2="652.8081" gradientTransform="matrix(1 0 0 1 -427.4004 -400.0996)">
						<stop  offset="0" style="stop-color:#580E0E"/>
						<stop  offset="1" style="stop-color:#ED2224"/>
					</linearGradient>
					<ellipse fill="url(#SVGID_1_)" cx="635.516" cy="270.029" rx="16.496" ry="3.279"/>
					
						<linearGradient id="SVGID_2_" gradientUnits="userSpaceOnUse" x1="1062.5078" y1="717.4023" x2="1062.5078" y2="666.1049" gradientTransform="matrix(1 0 0 1 -427.4004 -400.0996)">
						<stop  offset="0" style="stop-color:#F58020"/>
						<stop  offset="0.4784" style="stop-color:#F0B32A"/>
						<stop  offset="1" style="stop-color:#EDE839"/>
					</linearGradient>
					<path fill="url(#SVGID_2_)" d="M644.798,300.107l-0.774-9.696c0,0,0.122,14.61-5.231,33.444l0.535-13.667
						c0,0-4.219,25.885-4.219,27.901c0-2.017-4.221-27.901-4.221-27.901l0.536,13.667c-5.353-18.834-5.232-33.444-5.232-33.444
						l-0.772,9.696c-5.47-20.091,2.19-38.278,2.19-38.278h14.999C642.607,261.829,650.267,280.018,644.798,300.107z"/>
					
						<linearGradient id="SVGID_3_" gradientUnits="userSpaceOnUse" x1="1062.5068" y1="688.6221" x2="1062.5068" y2="649.8666" gradientTransform="matrix(1 0 0 1 -427.4004 -400.0996)">
						<stop  offset="0" style="stop-color:#F58020"/>
						<stop  offset="0.4784" style="stop-color:#F0B32A"/>
						<stop  offset="1" style="stop-color:#EDE839"/>
					</linearGradient>
					<path fill="url(#SVGID_3_)" d="M640.694,288.489l-0.444-5.594c0,0,0.068,8.426-3.017,19.286l0.307-7.883
						c0,0-2.434,14.927-2.433,16.091c0-1.164-2.434-16.091-2.434-16.091l0.309,7.883c-3.086-10.86-3.016-19.286-3.016-19.286
						l-0.446,5.594c-3.154-11.588,1.262-22.074,1.262-22.074h8.649C639.431,266.415,643.849,276.901,640.694,288.489z"/>
					
						<linearGradient id="SVGID_4_" gradientUnits="userSpaceOnUse" x1="-920.6187" y1="620.5205" x2="-920.6187" y2="629.4142" gradientTransform="matrix(-0.9988 -0.0491 -0.0491 0.9988 -258.0893 -395.0932)">
						<stop  offset="0" style="stop-color:#F58020"/>
						<stop  offset="0.4784" style="stop-color:#F0B32A"/>
						<stop  offset="1" style="stop-color:#EDE839"/>
					</linearGradient>
					<path fill="url(#SVGID_4_)" d="M632.024,267.639c-3.503,7.136-2.186,14.806-2.186,14.806
						C629.75,275.107,631.398,269.326,632.024,267.639z"/>
					
						<linearGradient id="SVGID_5_" gradientUnits="userSpaceOnUse" x1="1087.2109" y1="719.2227" x2="1087.2109" y2="728.1168" gradientTransform="matrix(0.9988 -0.0491 0.0491 0.9988 -481.9615 -395.0932)">
						<stop  offset="0" style="stop-color:#F58020"/>
						<stop  offset="0.4784" style="stop-color:#F0B32A"/>
						<stop  offset="1" style="stop-color:#EDE839"/>
					</linearGradient>
					<path fill="url(#SVGID_5_)" d="M638.19,267.639c3.504,7.136,2.186,14.806,2.186,14.806
						C640.464,275.107,638.816,269.326,638.19,267.639z"/>
					
						<linearGradient id="SVGID_6_" gradientUnits="userSpaceOnUse" x1="1062.5059" y1="680.9063" x2="1062.5059" y2="653.6135" gradientTransform="matrix(1 0 0 1 -427.4004 -400.0996)">
						<stop  offset="0" style="stop-color:#EDE839"/>
						<stop  offset="0.4804" style="stop-color:#F0EE8A"/>
						<stop  offset="1" style="stop-color:#F2F5D1"/>
					</linearGradient>
					<path fill="url(#SVGID_6_)" d="M638.906,275.223l-0.303-3.801c0,0,0.046,5.727-2.051,13.109l0.208-5.355
						c0,0-1.654,10.144-1.654,10.935c0-0.79-1.654-10.935-1.654-10.935l0.209,5.355c-2.097-7.383-2.05-13.109-2.05-13.109
						l-0.304,3.801c-2.144-7.874,0.858-15.003,0.858-15.003h5.879C638.046,260.22,641.05,267.349,638.906,275.223z"/>
				</g>
				<g>
					<g>
						
							<linearGradient id="SVGID_7_" gradientUnits="userSpaceOnUse" x1="-2862.2397" y1="654.8867" x2="-2873.2112" y2="665.858" gradientTransform="matrix(-1 0 0 1 -2203.9414 -400.0996)">
							<stop  offset="0" style="stop-color:#580E0E"/>
							<stop  offset="1" style="stop-color:#ED2224"/>
						</linearGradient>
						<path fill="url(#SVGID_7_)" d="M646.395,266.836c6.818,0.385,15.84,16.864,15.84,16.864
							c7.744-16.926,7.215-29.982,4.405-39.132c-3.267-10.646-9.622-15.997-9.622-15.997l-8.604,30.986L646.395,266.836z"/>
						
							<linearGradient id="SVGID_8_" gradientUnits="userSpaceOnUse" x1="1094.0283" y1="651.5439" x2="1080.5758" y2="651.5439" gradientTransform="matrix(1 0 0 1 -427.4004 -400.0996)">
							<stop  offset="0" style="stop-color:#580E0E"/>
							<stop  offset="1" style="stop-color:#ED2224"/>
						</linearGradient>
						<path fill="url(#SVGID_8_)" d="M648.414,259.559c6.004,3.469,12.434,14.757,12.434,14.757
							c5.715-12.003,6.795-21.924,5.792-29.745c-3.266-10.647-9.622-15.998-9.622-15.998L648.414,259.559z"/>
						
							<linearGradient id="SVGID_9_" gradientUnits="userSpaceOnUse" x1="1049.0674" y1="648.9707" x2="1080.0229" y2="648.9707" gradientTransform="matrix(1 0 0 1 -427.4004 -400.0996)">
							<stop  offset="0" style="stop-color:#580E0E"/>
							<stop  offset="1" style="stop-color:#ED2224"/>
						</linearGradient>
						<path fill="url(#SVGID_9_)" d="M656.766,228.573c0,0,16.178,13.626,3.842,40.594c0,0-6.646-12.136-11.664-12.418
							L656.766,228.573z"/>
					</g>
					<g>
						
							<linearGradient id="SVGID_10_" gradientUnits="userSpaceOnUse" x1="1040.1162" y1="654.8867" x2="1029.1448" y2="665.8581" gradientTransform="matrix(1 0 0 1 -427.4004 -400.0996)">
							<stop  offset="0" style="stop-color:#580E0E"/>
							<stop  offset="1" style="stop-color:#ED2224"/>
						</linearGradient>
						<path fill="url(#SVGID_10_)" d="M624.619,266.836c-6.817,0.385-15.839,16.864-15.839,16.864
							c-7.744-16.926-7.215-29.982-4.403-39.132c3.266-10.646,9.621-15.997,9.621-15.997l8.603,30.986L624.619,266.836z"/>
						
							<linearGradient id="SVGID_11_" gradientUnits="userSpaceOnUse" x1="1031.4424" y1="651.5439" x2="1050" y2="651.5439" gradientTransform="matrix(1 0 0 1 -427.4004 -400.0996)">
							<stop  offset="0" style="stop-color:#F7A9AD"/>
							<stop  offset="0.7773" style="stop-color:#F04C3C"/>
							<stop  offset="1" style="stop-color:#ED2224"/>
						</linearGradient>
						<path fill="url(#SVGID_11_)" d="M622.601,259.559c-6.005,3.469-12.435,14.757-12.435,14.757
							c-5.713-12.003-6.794-21.924-5.791-29.745c3.266-10.647,9.623-15.998,9.623-15.998L622.601,259.559z"/>
						
							<linearGradient id="SVGID_12_" gradientUnits="userSpaceOnUse" x1="1049.165" y1="648.9707" x2="1077.9399" y2="648.9707" gradientTransform="matrix(1 0 0 1 -427.4004 -400.0996)">
							<stop  offset="0" style="stop-color:#580E0E"/>
							<stop  offset="1" style="stop-color:#ED2224"/>
						</linearGradient>
						<path fill="url(#SVGID_12_)" d="M614.249,228.573c0,0-16.18,13.626-3.843,40.594c0,0,6.645-12.136,11.664-12.418
							L614.249,228.573z"/>
					</g>
					
						<linearGradient id="SVGID_13_" gradientUnits="userSpaceOnUse" x1="1052.8223" y1="605.7314" x2="1079.2224" y2="605.7314" gradientTransform="matrix(1 0 0 1 -427.4004 -400.0996)">
						<stop  offset="0" style="stop-color:#580E0E"/>
						<stop  offset="1" style="stop-color:#ED2224"/>
					</linearGradient>
					<path fill="url(#SVGID_13_)" d="M660.115,205.757c0,26.047-6.656,45.483-11.655,56.406c-0.812,1.774-1.58,3.325-2.271,4.641
						c-2.057-0.656-4.195-1.13-6.397-1.396c-1.421-0.178-2.869-0.265-4.336-0.265c-2.037,0-4.033,0.173-5.974,0.505
						c-0.266,0.044-0.529,0.095-0.793,0.145l-2.367,0.548c-0.508,0.137-1.01,0.28-1.508,0.441c-0.494-0.942-1.025-2.004-1.587-3.184
						c-5.048-10.607-12.315-30.612-12.315-57.841c0-41.723,24.596-61.298,24.596-61.298S660.115,164.034,660.115,205.757z"/>
					
						<linearGradient id="SVGID_14_" gradientUnits="userSpaceOnUse" x1="1061.876" y1="640.3877" x2="1061.876" y2="605.7803" gradientTransform="matrix(1 0 0 1 -427.4004 -400.0996)">
						<stop  offset="0" style="stop-color:#580E0E"/>
						<stop  offset="1" style="stop-color:#ED2224"/>
					</linearGradient>
					<path fill="url(#SVGID_14_)" d="M655.795,203.626c0,24.638-6.181,42.805-10.553,52.566c-2.391,5.34-4.238,8.167-4.238,8.167
						s-0.443,0.474-1.212,1.048c-1.42-0.178-2.869-0.265-4.335-0.265c-2.037,0-4.033,0.173-5.974,0.506
						c-0.97-0.678-1.545-1.288-1.545-1.288s-1.096-1.679-2.696-4.896c-4.261-8.586-12.083-28.115-12.083-55.839
						c0-38.126,21.313-56.015,21.313-56.015S655.795,165.5,655.795,203.626z"/>
					
						<linearGradient id="SVGID_15_" gradientUnits="userSpaceOnUse" x1="1044.6016" y1="607.6025" x2="1077.75" y2="607.6025" gradientTransform="matrix(1 0 0 1 -427.4004 -400.0996)">
						<stop  offset="0" style="stop-color:#580E0E"/>
						<stop  offset="1" style="stop-color:#ED2224"/>
					</linearGradient>
					<path fill="url(#SVGID_15_)" d="M655.795,203.933c0,35.077-13.609,55.899-13.609,55.899s-2.637,2.792-6.017,2.792
						c-3.379,0-6.013-2.792-6.013-2.792s-13.601-20.822-13.601-55.899c0-35.089,19.614-51.552,19.614-51.552
						S655.795,168.845,655.795,203.933z"/>
					<path opacity="0.5" fill="#333231" enable-background="new    " d="M646.656,208.997c0,5.677-4.595,10.276-10.266,10.276
						c-4.041,0-7.532-2.338-9.206-5.735c-0.672-1.368-1.054-2.908-1.054-4.541c0-5.671,4.595-10.27,10.26-10.27
						c3.703,0,6.946,1.959,8.754,4.9C646.102,205.189,646.656,207.027,646.656,208.997z"/>
					
						<radialGradient id="SVGID_16_" cx="1062.5488" cy="605.3369" r="42.9311" gradientTransform="matrix(0.9989 0 0 1 -427.6152 -400.0996)" gradientUnits="userSpaceOnUse">
						<stop  offset="0" style="stop-color:#F7A9AD"/>
						<stop  offset="0.7773" style="stop-color:#F04C3C"/>
						<stop  offset="1" style="stop-color:#ED2224"/>
					</radialGradient>
					<path fill="url(#SVGID_16_)" d="M629.849,251.769c0,0-0.171-0.318-0.492-0.915c-0.283-0.61-0.782-1.486-1.269-2.656
						c-0.467-1.173-1.147-2.573-1.701-4.248c-0.547-1.675-1.319-3.539-1.839-5.651c-0.287-1.052-0.587-2.146-0.896-3.281
						c-0.15-0.568-0.301-1.147-0.456-1.735c-0.121-0.594-0.242-1.197-0.365-1.809c-0.243-1.227-0.493-2.486-0.747-3.774
						c-0.261-1.286-0.515-2.606-0.648-3.963c-0.297-2.707-0.728-5.503-0.939-8.36c-0.115-2.862-0.233-5.77-0.349-8.678l-0.029-1.091
						c0-0.456,0.02-0.745,0.028-1.125l0.069-2.151l0.069-2.142c0.058-0.729,0.115-1.456,0.172-2.183
						c0.115-1.45,0.208-2.896,0.448-4.287c0.225-1.396,0.361-2.785,0.649-4.133c0.283-1.346,0.478-2.683,0.822-3.962
						c0.345-1.279,0.641-2.536,1.005-3.742c0.39-1.199,0.715-2.378,1.125-3.488c0.433-1.105,0.811-2.183,1.248-3.19
						c0.844-2.026,1.732-3.831,2.601-5.384c0.854-1.561,1.692-2.865,2.428-3.904c0.711-1.054,1.372-1.813,1.807-2.333
						c0.443-0.515,0.7-0.771,0.7-0.771s-0.199,0.304-0.526,0.892c-0.33,0.59-0.779,1.47-1.31,2.603
						c-0.541,1.126-1.12,2.531-1.747,4.146c-0.62,1.617-1.226,3.474-1.845,5.504c-0.593,2.042-1.135,4.275-1.659,6.643
						c-0.486,2.38-0.895,4.904-1.257,7.523c-0.341,2.619-0.571,5.358-0.729,8.093c-0.045,0.686-0.089,1.376-0.135,2.066
						l-0.035,2.144l-0.034,2.151c-0.002,0.336-0.018,0.767-0.011,1.028l0.042,1.063c0.068,2.84,0.137,5.679,0.206,8.475
						c0.2,2.788,0.396,5.533,0.585,8.188c0.059,1.335,0.279,2.626,0.415,3.902c0.15,1.273,0.295,2.522,0.437,3.736
						c0.073,0.608,0.146,1.208,0.217,1.798c0.099,0.586,0.196,1.161,0.292,1.729c0.18,1.139,0.354,2.239,0.522,3.294
						c0.085,0.529,0.168,1.048,0.25,1.554c0.104,0.501,0.206,0.991,0.305,1.468c0.189,0.959,0.369,1.867,0.537,2.722
						c0.33,1.719,0.738,3.179,1.003,4.413c0.316,1.218,0.565,2.175,0.733,2.827C629.744,251.423,629.849,251.769,629.849,251.769z"
						/>
					
						<linearGradient id="SVGID_17_" gradientUnits="userSpaceOnUse" x1="1075.1348" y1="585.5928" x2="1075.1348" y2="631.929" gradientTransform="matrix(1 0 0 1 -427.4004 -400.0996)">
						<stop  offset="0" style="stop-color:#FCDEE0"/>
						<stop  offset="0.0408" style="stop-color:#FCDBDC"/>
						<stop  offset="0.7607" style="stop-color:#F69CA1"/>
					</linearGradient>
					<path fill="url(#SVGID_17_)" d="M642.887,248.427c0,0,0.101-0.258,0.289-0.741c0.174-0.489,0.404-1.215,0.738-2.116
						c0.289-0.917,0.637-2.033,1.038-3.313c0.347-1.294,0.735-2.753,1.162-4.345c0.431-1.587,0.738-3.35,1.181-5.179
						c0.469-1.824,0.698-3.806,1.086-5.821c0.176-1.011,0.355-2.038,0.539-3.077c0.122-1.05,0.246-2.112,0.371-3.182
						c0.132-1.07,0.264-2.147,0.398-3.23c0.143-1.08,0.277-2.167,0.311-3.262c0.146-2.187,0.295-4.371,0.438-6.522
						c0.034-0.523,0.067-1.044,0.101-1.563c0-0.539,0.002-1.075,0.002-1.607c0.003-1.064,0.004-2.116,0.006-3.15
						c0.004-1.035,0.008-2.051,0.014-3.047c-0.035-0.984-0.137-1.933-0.197-2.866c-0.068-0.934-0.137-1.84-0.199-2.718
						c-0.066-0.878-0.075-1.735-0.232-2.544c-0.258-1.618-0.458-3.114-0.637-4.444c-0.076-0.668-0.18-1.287-0.325-1.849
						c-0.128-0.565-0.245-1.085-0.349-1.554c-0.416-1.883-0.625-2.976-0.625-2.976s0.391,1.029,1.024,2.863
						c0.157,0.459,0.331,0.969,0.521,1.522c0.208,0.551,0.38,1.158,0.531,1.817c0.329,1.312,0.701,2.794,1.07,4.424
						c0.38,1.631,0.539,3.447,0.812,5.353c0.118,0.954,0.275,1.94,0.366,2.941c0.036,0.996,0.071,2.013,0.107,3.045
						c0.035,1.035,0.068,2.087,0.104,3.15c0.016,0.533,0.033,1.067,0.052,1.606c-0.014,0.629-0.056,1.109-0.083,1.675
						c-0.123,2.187-0.248,4.405-0.371,6.625c-0.048,1.112-0.196,2.215-0.354,3.313c-0.147,1.098-0.295,2.191-0.441,3.276
						c-0.153,1.083-0.305,2.159-0.455,3.221c-0.222,1.05-0.44,2.088-0.655,3.109c-0.444,2.037-0.807,4.02-1.384,5.847
						c-0.539,1.834-0.989,3.582-1.555,5.151c-0.562,1.57-1.078,3.005-1.587,4.26c-0.54,1.238-1.011,2.317-1.399,3.208
						c-0.423,0.876-0.787,1.548-1.019,2.007C643.023,248.186,642.887,248.427,642.887,248.427z"/>
					
						<radialGradient id="SVGID_18_" cx="1062.5498" cy="605.3369" r="42.9292" gradientTransform="matrix(0.9989 0 0 1 -427.6152 -400.0996)" gradientUnits="userSpaceOnUse">
						<stop  offset="0" style="stop-color:#F7A9AD"/>
						<stop  offset="0.7773" style="stop-color:#F04C3C"/>
						<stop  offset="1" style="stop-color:#ED2224"/>
					</radialGradient>
					<path fill="url(#SVGID_18_)" d="M645.76,201.579c-2.17-2.977-5.663-4.9-9.62-4.9c-6.581,0-11.928,5.342-11.928,11.939
						c0,6.27,4.861,11.442,11.034,11.896c-0.305,0.021-0.587,0.033-0.883,0.033h-0.125c0.091,0.013,0.169,0.013,0.261,0.023
						c-0.305,0.021-0.599,0.033-0.904,0.033c-7.382,0-13.375-5.997-13.375-13.388s5.992-13.389,13.375-13.389
						c5.12,0,9.565,2.887,11.813,7.106c-0.022-0.033-0.044-0.067-0.078-0.101C645.479,201.068,645.625,201.318,645.76,201.579z"/>
					<g>
						
							<linearGradient id="SVGID_19_" gradientUnits="userSpaceOnUse" x1="603.9941" y1="-546.6563" x2="615.9167" y2="-534.7336" gradientTransform="matrix(1 0 0 1 25.3696 748.625)">
							<stop  offset="0.2393" style="stop-color:#B5E2EE"/>
							<stop  offset="1" style="stop-color:#E7F5F8"/>
						</linearGradient>
						<path fill="url(#SVGID_19_)" d="M644.43,208.072c0,4.956-4.013,8.971-8.964,8.971c-3.528,0-6.575-2.041-8.037-5.007
							c-0.587-1.194-0.921-2.539-0.92-3.964c0-4.952,4.01-8.967,8.958-8.967c3.231,0,6.064,1.711,7.643,4.279
							C643.943,204.747,644.43,206.352,644.43,208.072z"/>
						
							<linearGradient id="SVGID_20_" gradientUnits="userSpaceOnUse" x1="602.0596" y1="-538.4111" x2="619.0601" y2="-538.4111" gradientTransform="matrix(1 0 0 1 25.3696 748.625)">
							<stop  offset="0" style="stop-color:#E7F5F8"/>
							<stop  offset="0.7607" style="stop-color:#B5E2EE"/>
						</linearGradient>
						<path fill="url(#SVGID_20_)" d="M644.43,208.072c0,4.956-4.013,8.971-8.964,8.971c-3.528,0-6.575-2.041-8.037-5.007
							c0.672-2.591,2.63-6.466,8.375-6.466c2.945,0,5.377-0.846,7.305-2.186C643.943,204.747,644.43,206.352,644.43,208.072z"/>
					</g>
					
						<linearGradient id="SVGID_21_" gradientUnits="userSpaceOnUse" x1="1055.877" y1="601.2285" x2="1069.0078" y2="601.2285" gradientTransform="matrix(1 0 0 1 -427.4004 -400.0996)">
						<stop  offset="0" style="stop-color:#580E0E"/>
						<stop  offset="1" style="stop-color:#ED2224"/>
					</linearGradient>
					<circle fill="url(#SVGID_21_)" cx="630.444" cy="201.128" r="1.968"/>
				</g>
			</g>
			<g>
				
					<linearGradient id="SVGID_22_" gradientUnits="userSpaceOnUse" x1="-2860.6387" y1="656.4971" x2="-2871.6079" y2="667.4662" gradientTransform="matrix(-1 0 0 1 -2203.9414 -400.0996)">
					<stop  offset="0" style="stop-color:#080808"/>
					<stop  offset="0.9613" style="stop-color:#68605E"/>
					<stop  offset="1" style="stop-color:#6C6461"/>
				</linearGradient>
				<path fill="url(#SVGID_22_)" d="M666.64,244.57c1.003,7.819-0.077,17.741-5.792,29.745c0,0-5.781-10.144-11.496-14.151
					c-0.959,2.207-1.875,4.132-2.698,5.749l-0.257,0.926c6.816,0.384,15.84,16.863,15.84,16.863
					C669.979,266.775,669.449,253.718,666.64,244.57z"/>
				
					<linearGradient id="SVGID_23_" gradientUnits="userSpaceOnUse" x1="-2864.2354" y1="652.8887" x2="-2875.207" y2="663.8604" gradientTransform="matrix(-1 0 0 1 -2203.9414 -400.0996)">
					<stop  offset="0" style="stop-color:#080808"/>
					<stop  offset="0.9613" style="stop-color:#68605E"/>
					<stop  offset="1" style="stop-color:#6C6461"/>
				</linearGradient>
				<path fill="url(#SVGID_23_)" d="M660.607,269.166c0,0-5.314-9.696-10.027-11.953c-0.416,1.034-0.826,2.018-1.23,2.948
					c5.717,4.009,11.495,14.153,11.495,14.153c5.716-12.004,6.795-21.925,5.792-29.746c-2.402-7.835-6.477-12.798-8.462-14.875
					c-0.015,0.088-0.029,0.177-0.043,0.265C661.756,234.046,670.672,247.167,660.607,269.166z"/>
				
					<linearGradient id="SVGID_24_" gradientUnits="userSpaceOnUse" x1="1094.0273" y1="652.1045" x2="1080.5757" y2="652.1045" gradientTransform="matrix(1 0 0 1 -427.4004 -400.0996)">
					<stop  offset="0" style="stop-color:#080808"/>
					<stop  offset="0.9613" style="stop-color:#68605E"/>
					<stop  offset="1" style="stop-color:#6C6461"/>
				</linearGradient>
				<path fill="url(#SVGID_24_)" d="M660.607,269.166c0,0-5.314-9.696-10.027-11.953c-0.416,1.034-0.826,2.018-1.23,2.948
					c5.717,4.009,11.495,14.153,11.495,14.153c5.716-12.004,6.795-21.925,5.792-29.746c-2.402-7.835-6.477-12.798-8.462-14.875
					c-0.015,0.088-0.029,0.177-0.043,0.265C661.756,234.046,670.672,247.167,660.607,269.166z"/>
				
					<linearGradient id="SVGID_25_" gradientUnits="userSpaceOnUse" x1="-2865.3867" y1="651.7383" x2="-2876.3586" y2="662.7102" gradientTransform="matrix(-1 0 0 1 -2203.9414 -400.0996)">
					<stop  offset="0" style="stop-color:#080808"/>
					<stop  offset="0.9613" style="stop-color:#68605E"/>
					<stop  offset="1" style="stop-color:#6C6461"/>
				</linearGradient>
				<path fill="url(#SVGID_25_)" d="M660.607,269.166c10.064-22,1.148-35.12-2.476-39.207c-1.866,11.164-4.78,20.339-7.552,27.254
					C655.293,259.47,660.607,269.166,660.607,269.166z"/>
				
					<linearGradient id="SVGID_26_" gradientUnits="userSpaceOnUse" x1="1094.0273" y1="649.6631" x2="1080.5751" y2="649.6631" gradientTransform="matrix(1 0 0 1 -427.4004 -400.0996)">
					<stop  offset="0" style="stop-color:#080808"/>
					<stop  offset="0.9613" style="stop-color:#68605E"/>
					<stop  offset="1" style="stop-color:#6C6461"/>
				</linearGradient>
				<path fill="url(#SVGID_26_)" d="M660.607,269.166c10.064-22,1.148-35.12-2.476-39.207c-1.866,11.164-4.78,20.339-7.552,27.254
					C655.293,259.47,660.607,269.166,660.607,269.166z"/>
				
					<linearGradient id="SVGID_27_" gradientUnits="userSpaceOnUse" x1="1049.0635" y1="649.6621" x2="1080.0223" y2="649.6621" gradientTransform="matrix(1 0 0 1 -427.4004 -400.0996)">
					<stop  offset="0" style="stop-color:#080808"/>
					<stop  offset="0.9613" style="stop-color:#68605E"/>
					<stop  offset="1" style="stop-color:#6C6461"/>
				</linearGradient>
				<path fill="url(#SVGID_27_)" d="M660.607,269.166c10.064-22,1.148-35.12-2.476-39.207c-1.866,11.164-4.78,20.339-7.552,27.254
					C655.293,259.47,660.607,269.166,660.607,269.166z"/>
				
					<linearGradient id="SVGID_28_" gradientUnits="userSpaceOnUse" x1="1041.7168" y1="656.4961" x2="1030.7483" y2="667.4647" gradientTransform="matrix(1 0 0 1 -427.4004 -400.0996)">
					<stop  offset="0" style="stop-color:#080808"/>
					<stop  offset="0.9613" style="stop-color:#68605E"/>
					<stop  offset="1" style="stop-color:#6C6461"/>
				</linearGradient>
				<path fill="url(#SVGID_28_)" d="M610.167,274.315c-5.714-12.004-6.793-21.924-5.792-29.746
					c-2.811,9.148-3.339,22.205,4.404,39.132c0,0,9.023-16.479,15.84-16.863l-0.261-0.935c-0.821-1.618-1.738-3.538-2.693-5.742
					C615.948,264.168,610.167,274.315,610.167,274.315z"/>
				
					<linearGradient id="SVGID_29_" gradientUnits="userSpaceOnUse" x1="1038.1201" y1="652.8896" x2="1027.1484" y2="663.8613" gradientTransform="matrix(1 0 0 1 -427.4004 -400.0996)">
					<stop  offset="0" style="stop-color:#080808"/>
					<stop  offset="0.9613" style="stop-color:#68605E"/>
					<stop  offset="1" style="stop-color:#6C6461"/>
				</linearGradient>
				<path fill="url(#SVGID_29_)" d="M610.167,274.315c0,0,5.782-10.147,11.5-14.155c-0.403-0.931-0.814-1.915-1.229-2.948
					c-4.715,2.251-10.03,11.955-10.03,11.955c-10.076-22.021-1.133-35.146,2.485-39.218c-0.014-0.088-0.029-0.176-0.043-0.264
					c-1.981,2.071-6.066,7.037-8.473,14.886C603.374,252.39,604.453,262.312,610.167,274.315z"/>
				
					<linearGradient id="SVGID_30_" gradientUnits="userSpaceOnUse" x1="1031.4434" y1="652.1006" x2="1050" y2="652.1006" gradientTransform="matrix(1 0 0 1 -427.4004 -400.0996)">
					<stop  offset="0" style="stop-color:#7B726E"/>
					<stop  offset="1" style="stop-color:#6C6461"/>
				</linearGradient>
				<path fill="url(#SVGID_30_)" d="M610.167,274.315c0,0,5.782-10.147,11.5-14.155c-0.403-0.931-0.814-1.915-1.229-2.948
					c-4.715,2.251-10.03,11.955-10.03,11.955c-10.076-22.021-1.133-35.146,2.485-39.218c-0.014-0.088-0.029-0.176-0.043-0.264
					c-1.981,2.071-6.066,7.037-8.473,14.886C603.374,252.39,604.453,262.312,610.167,274.315z"/>
				
					<linearGradient id="SVGID_31_" gradientUnits="userSpaceOnUse" x1="1036.9688" y1="651.7383" x2="1025.9972" y2="662.71" gradientTransform="matrix(1 0 0 1 -427.4004 -400.0996)">
					<stop  offset="0" style="stop-color:#080808"/>
					<stop  offset="0.9613" style="stop-color:#68605E"/>
					<stop  offset="1" style="stop-color:#6C6461"/>
				</linearGradient>
				<path fill="url(#SVGID_31_)" d="M610.406,269.166c0,0,5.317-9.703,10.032-11.955c-2.771-6.918-5.683-16.096-7.547-27.264
					C609.273,234.021,600.333,247.145,610.406,269.166z"/>
				
					<linearGradient id="SVGID_32_" gradientUnits="userSpaceOnUse" x1="1031.4434" y1="649.6563" x2="1050" y2="649.6563" gradientTransform="matrix(1 0 0 1 -427.4004 -400.0996)">
					<stop  offset="0" style="stop-color:#7B726E"/>
					<stop  offset="1" style="stop-color:#6C6461"/>
				</linearGradient>
				<path fill="url(#SVGID_32_)" d="M610.406,269.166c0,0,5.317-9.703,10.032-11.955c-2.771-6.918-5.683-16.096-7.547-27.264
					C609.273,234.021,600.333,247.145,610.406,269.166z"/>
				
					<linearGradient id="SVGID_33_" gradientUnits="userSpaceOnUse" x1="1049.1641" y1="649.6563" x2="1077.9388" y2="649.6563" gradientTransform="matrix(1 0 0 1 -427.4004 -400.0996)">
					<stop  offset="0" style="stop-color:#080808"/>
					<stop  offset="0.9613" style="stop-color:#68605E"/>
					<stop  offset="1" style="stop-color:#6C6461"/>
				</linearGradient>
				<path fill="url(#SVGID_33_)" d="M610.406,269.166c0,0,5.317-9.703,10.032-11.955c-2.771-6.918-5.683-16.096-7.547-27.264
					C609.273,234.021,600.333,247.145,610.406,269.166z"/>
			</g>
			<g>
				
					<linearGradient id="SVGID_34_" gradientUnits="userSpaceOnUse" x1="1052.8242" y1="562.1904" x2="1079.2238" y2="562.1904" gradientTransform="matrix(1 0 0 1 -427.4004 -400.0996)">
					<stop  offset="0" style="stop-color:#080808"/>
					<stop  offset="0.9613" style="stop-color:#68605E"/>
					<stop  offset="1" style="stop-color:#6C6461"/>
				</linearGradient>
				<path fill="url(#SVGID_34_)" d="M634.471,147.612c0,0,11.208,9.407,17.373,29.11c1.669,0.875,3.26,1.879,4.76,3.001
					c-6.799-23.887-21.097-35.264-21.097-35.264s-14.253,11.349-21.058,35.174c0.726-0.539,1.474-1.05,2.242-1.532
					C622.748,157.456,634.471,147.612,634.471,147.612z"/>
				
					<linearGradient id="SVGID_35_" gradientUnits="userSpaceOnUse" x1="1052.8242" y1="562.957" x2="1079.2247" y2="562.957" gradientTransform="matrix(1 0 0 1 -427.4004 -400.0996)">
					<stop  offset="0" style="stop-color:#080808"/>
					<stop  offset="0.9613" style="stop-color:#68605E"/>
					<stop  offset="1" style="stop-color:#6C6461"/>
				</linearGradient>
				<path fill="url(#SVGID_35_)" d="M634.471,147.612c0,0-11.723,9.845-17.78,30.489c1.499-0.942,3.072-1.776,4.712-2.488
					c5.808-15.708,14.767-23.231,14.767-23.231s9.27,7.776,15.066,24.03c0.203,0.102,0.404,0.204,0.607,0.311
					C645.68,157.019,634.471,147.612,634.471,147.612z"/>
				
					<linearGradient id="SVGID_36_" gradientUnits="userSpaceOnUse" x1="1061.667" y1="641.7617" x2="1061.667" y2="606.642" gradientTransform="matrix(1 0 0 1 -427.4004 -400.0996)">
					<stop  offset="0" style="stop-color:#080808"/>
					<stop  offset="0.9613" style="stop-color:#68605E"/>
					<stop  offset="1" style="stop-color:#6C6461"/>
				</linearGradient>
				<path fill="url(#SVGID_36_)" d="M634.471,147.612c0,0-11.723,9.845-17.78,30.489c1.499-0.942,3.072-1.776,4.712-2.488
					c5.808-15.708,14.767-23.231,14.767-23.231s9.27,7.776,15.066,24.03c0.203,0.102,0.404,0.204,0.607,0.311
					C645.68,157.019,634.471,147.612,634.471,147.612z"/>
				
					<linearGradient id="SVGID_37_" gradientUnits="userSpaceOnUse" x1="1052.8232" y1="564.4951" x2="1079.224" y2="564.4951" gradientTransform="matrix(1 0 0 1 -427.4004 -400.0996)">
					<stop  offset="0" style="stop-color:#080808"/>
					<stop  offset="0.9613" style="stop-color:#68605E"/>
					<stop  offset="1" style="stop-color:#6C6461"/>
				</linearGradient>
				<path fill="url(#SVGID_37_)" d="M628.357,169.818c0.854-1.561,1.692-2.864,2.43-3.903c0.71-1.055,1.371-1.814,1.805-2.333
					c0.443-0.516,0.7-0.771,0.7-0.771s-0.199,0.303-0.526,0.891c-0.33,0.591-0.778,1.47-1.31,2.604
					c-0.541,1.125-1.119,2.53-1.747,4.146c-0.344,0.896-0.682,1.866-1.022,2.897c2.192-0.426,4.455-0.65,6.77-0.65
					c5.672,0,11.029,1.338,15.779,3.712c-5.797-16.253-15.066-24.029-15.066-24.029s-8.958,7.522-14.767,23.23
					c1.583-0.688,3.225-1.264,4.917-1.717C626.991,172.395,627.68,171.029,628.357,169.818z"/>
				
					<linearGradient id="SVGID_38_" gradientUnits="userSpaceOnUse" x1="1063.7188" y1="641.7598" x2="1063.7188" y2="606.641" gradientTransform="matrix(1 0 0 1 -427.4004 -400.0996)">
					<stop  offset="0" style="stop-color:#080808"/>
					<stop  offset="0.9613" style="stop-color:#68605E"/>
					<stop  offset="1" style="stop-color:#6C6461"/>
				</linearGradient>
				<path fill="url(#SVGID_38_)" d="M628.357,169.818c0.854-1.561,1.692-2.864,2.43-3.903c0.71-1.055,1.371-1.814,1.805-2.333
					c0.443-0.516,0.7-0.771,0.7-0.771s-0.199,0.303-0.526,0.891c-0.33,0.591-0.778,1.47-1.31,2.604
					c-0.541,1.125-1.119,2.53-1.747,4.146c-0.344,0.896-0.682,1.866-1.022,2.897c2.192-0.426,4.455-0.65,6.77-0.65
					c5.672,0,11.029,1.338,15.779,3.712c-5.797-16.253-15.066-24.029-15.066-24.029s-8.958,7.522-14.767,23.23
					c1.583-0.688,3.225-1.264,4.917-1.717C626.991,172.395,627.68,171.029,628.357,169.818z"/>
				
					<linearGradient id="SVGID_39_" gradientUnits="userSpaceOnUse" x1="1044.6016" y1="564.4951" x2="1077.7509" y2="564.4951" gradientTransform="matrix(1 0 0 1 -427.4004 -400.0996)">
					<stop  offset="0" style="stop-color:#080808"/>
					<stop  offset="0.9613" style="stop-color:#68605E"/>
					<stop  offset="1" style="stop-color:#6C6461"/>
				</linearGradient>
				<path fill="url(#SVGID_39_)" d="M628.357,169.818c0.854-1.561,1.692-2.864,2.43-3.903c0.71-1.055,1.371-1.814,1.805-2.333
					c0.443-0.516,0.7-0.771,0.7-0.771s-0.199,0.303-0.526,0.891c-0.33,0.591-0.778,1.47-1.31,2.604
					c-0.541,1.125-1.119,2.53-1.747,4.146c-0.344,0.896-0.682,1.866-1.022,2.897c2.192-0.426,4.455-0.65,6.77-0.65
					c5.672,0,11.029,1.338,15.779,3.712c-5.797-16.253-15.066-24.029-15.066-24.029s-8.958,7.522-14.767,23.23
					c1.583-0.688,3.225-1.264,4.917-1.717C626.991,172.395,627.68,171.029,628.357,169.818z"/>
				
					<linearGradient id="SVGID_40_" gradientUnits="userSpaceOnUse" x1="1052.8232" y1="568.4541" x2="1079.22" y2="568.4541" gradientTransform="matrix(1 0 0 1 -427.4004 -400.0996)">
					<stop  offset="0" style="stop-color:#080808"/>
					<stop  offset="0.9613" style="stop-color:#68605E"/>
					<stop  offset="1" style="stop-color:#6C6461"/>
				</linearGradient>
				<path fill="url(#SVGID_40_)" d="M631.456,166.306c0.531-1.134,0.98-2.013,1.31-2.603c0.327-0.589,0.526-0.892,0.526-0.892
					s-0.256,0.255-0.7,0.771c-0.434,0.52-1.094,1.279-1.805,2.333c-0.738,1.039-1.577,2.344-2.43,3.904
					c-0.677,1.21-1.366,2.575-2.037,4.077c0.779-0.208,1.568-0.391,2.367-0.546c0.34-1.031,0.678-2.003,1.022-2.898
					C630.337,168.837,630.915,167.432,631.456,166.306z"/>
				
					<linearGradient id="SVGID_41_" gradientUnits="userSpaceOnUse" x1="1057.2051" y1="641.7617" x2="1057.2051" y2="606.642" gradientTransform="matrix(1 0 0 1 -427.4004 -400.0996)">
					<stop  offset="0" style="stop-color:#080808"/>
					<stop  offset="0.9613" style="stop-color:#68605E"/>
					<stop  offset="1" style="stop-color:#6C6461"/>
				</linearGradient>
				<path fill="url(#SVGID_41_)" d="M631.456,166.306c0.531-1.134,0.98-2.013,1.31-2.603c0.327-0.589,0.526-0.892,0.526-0.892
					s-0.256,0.255-0.7,0.771c-0.434,0.52-1.094,1.279-1.805,2.333c-0.738,1.039-1.577,2.344-2.43,3.904
					c-0.677,1.21-1.366,2.575-2.037,4.077c0.779-0.208,1.568-0.391,2.367-0.546c0.34-1.031,0.678-2.003,1.022-2.898
					C630.337,168.837,630.915,167.432,631.456,166.306z"/>
				
					<linearGradient id="SVGID_42_" gradientUnits="userSpaceOnUse" x1="1044.6035" y1="568.4541" x2="1077.7477" y2="568.4541" gradientTransform="matrix(1 0 0 1 -427.4004 -400.0996)">
					<stop  offset="0" style="stop-color:#080808"/>
					<stop  offset="0.9613" style="stop-color:#68605E"/>
					<stop  offset="1" style="stop-color:#6C6461"/>
				</linearGradient>
				<path fill="url(#SVGID_42_)" d="M631.456,166.306c0.531-1.134,0.98-2.013,1.31-2.603c0.327-0.589,0.526-0.892,0.526-0.892
					s-0.256,0.255-0.7,0.771c-0.434,0.52-1.094,1.279-1.805,2.333c-0.738,1.039-1.577,2.344-2.43,3.904
					c-0.677,1.21-1.366,2.575-2.037,4.077c0.779-0.208,1.568-0.391,2.367-0.546c0.34-1.031,0.678-2.003,1.022-2.898
					C630.337,168.837,630.915,167.432,631.456,166.306z"/>
				
					<radialGradient id="SVGID_43_" cx="1062.5488" cy="605.332" r="42.9263" gradientTransform="matrix(0.9989 0 0 1 -427.6152 -400.0996)" gradientUnits="userSpaceOnUse">
					<stop  offset="0" style="stop-color:#7B726E"/>
					<stop  offset="1" style="stop-color:#6C6461"/>
				</radialGradient>
				<path fill="url(#SVGID_43_)" d="M631.456,166.306c0.531-1.134,0.98-2.013,1.31-2.603c0.327-0.589,0.526-0.892,0.526-0.892
					s-0.256,0.255-0.7,0.771c-0.434,0.52-1.094,1.279-1.805,2.333c-0.738,1.039-1.577,2.344-2.43,3.904
					c-0.677,1.21-1.366,2.575-2.037,4.077c0.779-0.208,1.568-0.391,2.367-0.546c0.34-1.031,0.678-2.003,1.022-2.898
					C630.337,168.837,630.915,167.432,631.456,166.306z"/>
			</g>
		</g>
		
			<linearGradient id="SVGID_44_" gradientUnits="userSpaceOnUse" x1="1063.0449" y1="658.8379" x2="1063.0449" y2="641.1013" gradientTransform="matrix(1 0 0 1 -427.4004 -400.0996)">
			<stop  offset="0" style="stop-color:#580E0E"/>
			<stop  offset="1" style="stop-color:#ED2224"/>
		</linearGradient>
		<path fill="url(#SVGID_44_)" d="M652.081,270.364c-1.78-0.866-3.638-1.604-5.558-2.202c-2.266-0.704-4.625-1.211-7.051-1.498
			c-1.564-0.19-3.161-0.285-4.778-0.285c-2.245,0-4.444,0.185-6.583,0.54c-0.294,0.047-0.582,0.101-0.874,0.154l-2.609,0.591
			c-0.559,0.146-1.114,0.301-1.663,0.474c-1.284,0.392-2.536,0.849-3.757,1.367c0.638-1.681,1.312-3.279,2.009-4.783
			c0.063-0.136,0.125-0.271,0.186-0.402c0.514-0.187,1.034-0.356,1.562-0.519c0.549-0.172,1.104-0.327,1.663-0.474l2.609-0.589
			c0.292-0.053,0.58-0.107,0.874-0.155c2.138-0.354,4.338-0.541,6.583-0.541c1.618,0,3.214,0.096,4.778,0.285
			c2.426,0.289,4.785,0.795,7.051,1.499c1.148,0.358,2.276,0.766,3.376,1.221C650.662,266.714,651.396,268.486,652.081,270.364z"/>
		
			<linearGradient id="SVGID_45_" gradientUnits="userSpaceOnUse" x1="1044.793" y1="654.9072" x2="1076.4525" y2="654.9072" gradientTransform="matrix(1 0 0 1 -427.4004 -400.0996)">
			<stop  offset="0" style="stop-color:#580E0E"/>
			<stop  offset="1" style="stop-color:#ED2224"/>
		</linearGradient>
		<path fill="url(#SVGID_45_)" d="M649.899,265.046c-1.1-0.457-2.227-0.863-3.376-1.223c-2.266-0.703-4.625-1.21-7.051-1.498
			c-1.564-0.189-3.161-0.284-4.778-0.284c-2.245,0-4.444,0.186-6.583,0.54c-0.294,0.048-0.582,0.102-0.874,0.155l-2.609,0.59
			c-0.559,0.146-1.114,0.3-1.663,0.474c-0.526,0.162-1.047,0.332-1.562,0.518c0.663-1.425,1.346-2.769,2.034-4.033
			c5.784-10.598,12.04-15.716,12.04-15.716s4.879,3.985,10.002,12.203c1.186,1.908,2.389,4.044,3.545,6.407
			C649.32,263.787,649.614,264.409,649.899,265.046z"/>
	</g>
	<path opacity="0.9" fill="#038D80" enable-background="new    " d="M637.008,237.184c0,0,0.218,0.177,0.563,0.506
		c0.355,0.331,0.816,0.815,1.356,1.431c1.063,1.233,2.306,2.994,3.271,5.109c0.491,1.059,0.928,2.203,1.249,3.415
		c0.334,1.211,0.551,2.488,0.515,3.81c-0.032,1.321-0.372,2.687-0.765,4.073c-0.396,1.388-0.787,2.798-1.021,4.206
		c-0.463,2.818-0.972,5.639-1.544,8.283c-0.3,1.319-0.592,2.598-0.868,3.809c-0.291,1.21-0.567,2.355-0.822,3.412
		c-0.249,1.057-0.529,2.026-0.75,2.885c-0.222,0.86-0.428,1.608-0.611,2.225c-0.364,1.232-0.573,1.938-0.573,1.938h-1.476
		c0,0-0.208-0.706-0.575-1.938c-0.182-0.616-0.388-1.364-0.612-2.225c-0.22-0.858-0.499-1.828-0.749-2.885
		c-0.254-1.057-0.531-2.202-0.823-3.412c-0.276-1.211-0.566-2.489-0.867-3.809c-0.572-2.645-1.08-5.465-1.543-8.283
		c-0.235-1.408-0.624-2.816-1.021-4.206c-0.394-1.387-0.732-2.752-0.764-4.073c-0.038-1.32,0.179-2.599,0.513-3.809
		c0.324-1.211,0.759-2.357,1.251-3.416c0.964-2.115,2.208-3.875,3.269-5.109c0.542-0.616,1.002-1.1,1.358-1.431
		c0.345-0.329,0.561-0.506,0.561-0.506H637.008z"/>
	<path fill="#006666" d="M637.131,229.455c0,0,0.216,0.177,0.562,0.506c0.355,0.331,0.815,0.815,1.356,1.431
		c1.063,1.233,2.306,2.995,3.271,5.11c0.49,1.058,0.928,2.202,1.248,3.414c0.336,1.211,0.553,2.488,0.516,3.811
		c-0.033,1.32-0.372,2.686-0.765,4.073c-0.397,1.387-0.787,2.798-1.021,4.205c-0.463,2.818-0.972,5.639-1.545,8.282
		c-0.299,1.321-0.591,2.599-0.867,3.809c-0.291,1.21-0.567,2.356-0.821,3.413c-0.249,1.058-0.53,2.025-0.75,2.886
		c-0.221,0.858-0.428,1.606-0.611,2.223c-0.365,1.232-0.573,1.938-0.573,1.938h-1.476c0,0-0.208-0.706-0.574-1.938
		c-0.183-0.616-0.388-1.364-0.611-2.223c-0.22-0.86-0.499-1.828-0.749-2.886c-0.255-1.057-0.532-2.201-0.823-3.413
		c-0.275-1.21-0.566-2.487-0.867-3.809c-0.571-2.644-1.08-5.464-1.542-8.281c-0.235-1.409-0.625-2.818-1.021-4.206
		c-0.394-1.388-0.732-2.753-0.764-4.073c-0.038-1.321,0.18-2.6,0.514-3.81c0.323-1.212,0.758-2.357,1.25-3.416
		c0.965-2.114,2.209-3.875,3.27-5.109c0.542-0.615,1.002-1.1,1.357-1.431c0.346-0.329,0.562-0.506,0.562-0.506H637.131z"/>
	
		<linearGradient id="SVGID_46_" gradientUnits="userSpaceOnUse" x1="1065.8242" y1="637.1689" x2="1065.8242" y2="659.5538" gradientTransform="matrix(1 0 0 1 -427.4004 -400.0996)">
		<stop  offset="0" style="stop-color:#FCDEE0"/>
		<stop  offset="0.0408" style="stop-color:#FCDBDC"/>
		<stop  offset="0.7607" style="stop-color:#00A89C"/>
	</linearGradient>
	<path fill="url(#SVGID_46_)" d="M635.771,267.473c0,0,0.055-0.124,0.157-0.356c0.095-0.236,0.22-0.589,0.404-1.022
		c0.157-0.443,0.348-0.982,0.567-1.602c0.189-0.625,0.402-1.33,0.636-2.1c0.234-0.766,0.404-1.617,0.646-2.502
		c0.257-0.88,0.382-1.839,0.594-2.813c0.097-0.487,0.194-0.983,0.295-1.485c0.067-0.508,0.135-1.021,0.204-1.537
		c0.071-0.517,0.145-1.038,0.218-1.561c0.078-0.521,0.152-1.047,0.168-1.575c0.081-1.057,0.161-2.112,0.24-3.151
		c0.02-0.253,0.038-0.505,0.056-0.755c0-0.261,0-0.521,0-0.776c0.001-0.515,0.002-1.022,0.003-1.522
		c0.002-0.5,0.005-0.99,0.008-1.473c-0.018-0.476-0.074-0.934-0.107-1.385c-0.039-0.45-0.074-0.888-0.109-1.313
		c-0.038-0.425-0.042-0.839-0.127-1.229c-0.14-0.782-0.25-1.505-0.349-2.147c-0.041-0.322-0.097-0.621-0.177-0.893
		c-0.069-0.273-0.134-0.524-0.191-0.75c-0.227-0.91-0.341-1.438-0.341-1.438s0.211,0.497,0.56,1.383
		c0.085,0.222,0.18,0.468,0.284,0.735c0.114,0.266,0.209,0.561,0.291,0.879c0.181,0.634,0.384,1.35,0.586,2.137
		c0.209,0.788,0.295,1.666,0.443,2.587c0.064,0.46,0.15,0.938,0.201,1.421c0.02,0.481,0.039,0.972,0.059,1.471
		c0.02,0.501,0.037,1.008,0.057,1.522c0.01,0.257,0.019,0.515,0.029,0.775c-0.008,0.304-0.031,0.537-0.046,0.81
		c-0.067,1.057-0.135,2.128-0.204,3.2c-0.023,0.538-0.105,1.069-0.191,1.6c-0.082,0.53-0.162,1.06-0.242,1.584
		c-0.084,0.523-0.166,1.042-0.248,1.556c-0.122,0.509-0.241,1.009-0.359,1.503c-0.243,0.983-0.441,1.943-0.758,2.824
		c-0.294,0.886-0.541,1.73-0.851,2.488c-0.306,0.759-0.59,1.453-0.868,2.059c-0.295,0.598-0.554,1.12-0.765,1.549
		c-0.232,0.425-0.431,0.749-0.558,0.971C635.846,267.357,635.771,267.473,635.771,267.473z"/>
</g>
</svg>
