<?xml version="1.0" encoding="utf-8"?>
<!-- Generator: Adobe Illustrator 16.0.0, SVG Export Plug-In . SVG Version: 6.00 Build 0)  -->
<!DOCTYPE svg PUBLIC "-//W3C//DTD SVG 1.1//EN" "http://www.w3.org/Graphics/SVG/1.1/DTD/svg11.dtd">
<svg version="1.1" id="Layer_1" xmlns="http://www.w3.org/2000/svg" xmlns:xlink="http://www.w3.org/1999/xlink" x="0px" y="0px"
	 width="1249.992px" height="350px" viewBox="0 0 1249.992 350" enable-background="new 0 0 1249.992 350" xml:space="preserve">
<g>
	<g>
		<g>
			<g>
				<polygon fill="#02B0B0" points="140.455,96.318 140.023,96.318 89.531,96.318 89.531,109.491 102.789,109.491 102.789,109.483 
					130.076,109.483 130.068,109.491 89.562,149.164 89.531,149.164 89.531,149.18 89.5,149.21 89.531,149.233 89.531,152.991 
					93.259,152.991 104.479,152.991 108.399,149.164 140.023,118.188 140.023,128.352 153.25,128.352 153.25,123.938 153.25,96.318 
									"/>
			</g>
		</g>
		<g>
			<path d="M140,315C62.8,315,0,252.192,0,175.008C0,97.8,62.8,35,140,35c77.192,0,139.992,62.8,139.992,140.008
				C279.992,252.192,217.192,315,140,315z M140,48.435c-69.792,0-126.565,56.773-126.565,126.573
				c0,69.776,56.773,126.557,126.565,126.557c69.784,0,126.557-56.78,126.557-126.557C266.557,105.208,209.783,48.435,140,48.435z"
				/>
		</g>
		<g>
			<g>
				<path d="M179.657,167.268c4.476-3.943,8.002-9.067,10.421-15.194c3.832-10.287,3.824-21.97-0.027-32.087
					c-5.263-13.389-15.874-21.777-29.602-23.668v13.474c10.649,2.23,15.449,10.086,17.433,15.041
					c2.747,7.138,2.747,15.333,0.023,22.417c-2.346,5.873-8.535,15.734-23.56,15.734h-51.557v-3.951H89.531v29.741h13.257v-12.532
					h57.483c20.921,0,30.451,16.685,30.451,32.195c0,7.4-2.176,15.063-6.714,21.067l7.995,10.888
					c6.868-7.593,10.688-17.548,11.544-27.464C205.1,195.172,197.275,175.571,179.657,167.268z"/>
			</g>
			<g>
				<path d="M160.272,240.632h-57.483v-11.868H89.531v24.918h70.74c5.541,0,10.519-0.842,14.971-2.338l-8.319-11.337
					C164.848,240.408,162.641,240.632,160.272,240.632z"/>
			</g>
		</g>
	</g>
	<g>
		<path fill="#02B0B0" d="M877.527,121.8c-3.457,0-6.25,2.678-6.25,5.958v94.478c0,3.287,2.793,5.965,6.25,5.965
			c3.564,0,6.455-2.678,6.455-5.965v-94.478C883.982,124.478,881.092,121.8,877.527,121.8z"/>
		<path fill="#02B0B0" d="M1021.57,122.147c-3.398,0-6.064,2.546-6.064,5.795l0.023,88.358c-0.043,0.101-0.348,0.332-1.008,0.362
			l-78.16-90.125c-2.045-2.879-6.02-4.738-10.141-4.738c-6.15,0-12.803,4.514-12.803,11.814v88.451c0,3.233,2.666,5.78,6.074,5.78
			c3.387,0,6.049-2.547,6.049-5.78l-0.021-88.374c0.053-0.077,0.35-0.332,0.902-0.332c0,0,0.139,0.062,0.385,0.332l77.887,89.771
			c2.053,2.887,6.027,4.738,10.133,4.738c6.938,0,12.811-5.409,12.811-11.814v-88.443
			C1027.636,124.693,1024.967,122.147,1021.57,122.147z"/>
		<path d="M457.959,122.147c-3.399,0-6.065,2.546-6.065,5.795l0.02,88.366c-0.043,0.093-0.34,0.324-1,0.354l-78.164-90.125
			c-2.045-2.879-6.023-4.738-10.132-4.738c-6.158,0-12.807,4.514-12.807,11.814v88.451c0,3.233,2.666,5.78,6.058,5.78
			c3.407,0,6.062-2.547,6.062-5.78l-0.016-88.366c0.047-0.085,0.348-0.332,0.903-0.34c0,0,0.139,0.062,0.378,0.332l77.883,89.771
			c2.049,2.879,6.031,4.738,10.145,4.738c6.941,0,12.806-5.409,12.806-11.814v-88.443
			C464.017,124.693,461.363,122.147,457.959,122.147z"/>
		<path d="M592.889,121.8c-3.564,0-6.459,2.678-6.459,5.958v55.137c0,17.996-17.201,33.206-37.551,33.206h-9.515
			c-20.704,0-37.55-14.901-37.55-33.206v-55.137c0-3.28-2.902-5.958-6.459-5.958c-3.45,0-6.259,2.678-6.259,5.958v55.137
			c0,24.979,22.549,45.306,50.268,45.306h9.515c27.249,0,50.257-20.759,50.257-45.306v-55.137
			C599.136,124.478,596.338,121.8,592.889,121.8z"/>
		<path d="M704.644,161.688c4.686-4.005,6.822-11.405,6.822-16.206c0-6.281-2.801-12.331-7.701-16.668l-0.791-0.872
			c-4.818-3.905-11.232-6.143-17.582-6.143h-38.855c-6.459,0-12.701,2.184-17.727,6.258l-0.602,0.532
			c-4.926,4.414-7.758,10.572-7.758,16.892v59.035c0,6.319,2.832,12.478,7.766,16.892l0.734,0.656
			c4.893,3.959,11.139,6.135,17.586,6.135h38.855c21.328,0,39.352-16.29,39.352-35.567
			C724.744,179.808,717.107,168.147,704.644,161.688z M685.392,216.101h-38.855c-3.01,0-5.885-0.834-8.283-2.408l-0.453-0.277
			l-0.898-0.811c-2.404-2.146-3.73-5.031-3.73-8.087v-35.344h52.412c14.346,0,26.455,10.742,26.455,23.459
			C712.039,205.358,699.83,216.101,685.392,216.101z M636.906,137.396l1.348-1.088c2.398-1.574,5.273-2.416,8.283-2.416h38.855
			c2.84,0,5.709,0.872,8.07,2.416l0.85,0.455l0.703,0.633c2.41,2.153,3.742,5.039,3.742,8.087c0,6.397-5.908,11.599-13.174,11.599
			h-52.412v-11.599C633.172,142.435,634.498,139.548,636.906,137.396z"/>
		<path d="M849.168,157.367c0-19.285-18.027-35.567-39.365-35.567h-38.854c-6.451,0-12.703,2.184-17.727,6.258l-0.586,0.532
			c-4.939,4.407-7.764,10.564-7.764,16.892v76.753c0,3.287,2.803,5.965,6.256,5.965c3.557,0,6.447-2.678,6.447-5.965v-29.309h42.281
			l37.43,33.452c1.053,1.158,2.643,1.821,4.43,1.821c3.561,0,6.455-2.678,6.455-5.965c0-1.898-0.98-3.218-1.504-3.928
			l-29.004-26.037C835.566,188.929,849.168,174.112,849.168,157.367z M809.802,180.834h-52.227v-35.352
			c0-3.048,1.33-5.934,3.742-8.087l1.35-1.088c2.404-1.574,5.264-2.416,8.281-2.416h38.854c14.447,0,26.654,10.75,26.654,23.475
			C836.457,170.084,824.25,180.834,809.802,180.834z"/>
		<path d="M1118.185,174.668c15.018-7.895,24.549-22.842,24.549-38.924v-7.987c0-3.28-2.816-5.958-6.26-5.958
			c-3.557,0-6.459,2.678-6.459,5.958v7.987c0,17.363-15.857,32.265-35.166,33.206h-29.424v-41.193c0-3.28-2.895-5.958-6.451-5.958
			c-3.445,0-6.258,2.678-6.258,5.958v94.478c0,3.287,2.813,5.965,6.258,5.965c3.557,0,6.451-2.678,6.451-5.965v-41.193h28.236
			c20.357,0,37.551,15.218,37.551,33.222v7.972c0,3.287,2.893,5.965,6.459,5.965c3.445,0,6.258-2.678,6.258-5.965v-8.019
			C1143.715,197.749,1133.713,182.539,1118.185,174.668z"/>
		<g>
			<path d="M1157.168,134.139h-2.35v-10.526h-3.998V121.8h10.389v1.813h-4.041V134.139z M1168.646,134.139l-3.842-9.569h-0.154
				l0.115,2.207v7.362h-2.277V121.8h3.578l3.746,9.561l3.885-9.561h3.445v12.339h-2.43v-7.192l0.111-2.338h-0.15l-4.035,9.531
				H1168.646z"/>
		</g>
	</g>
</g>
</svg>
