<?xml version="1.0" encoding="utf-8"?>
<!-- Generator: Adobe Illustrator 16.0.0, SVG Export Plug-In . SVG Version: 6.00 Build 0)  -->
<!DOCTYPE svg PUBLIC "-//W3C//DTD SVG 1.1//EN" "http://www.w3.org/Graphics/SVG/1.1/DTD/svg11.dtd">
<svg version="1.1" id="Layer_1" xmlns="http://www.w3.org/2000/svg" xmlns:xlink="http://www.w3.org/1999/xlink" x="0px" y="0px"
	 width="1250px" height="350px" viewBox="0 0 1250 350" enable-background="new 0 0 1250 350" xml:space="preserve">
<g>
	<g>
		<g>
			<g>
				<polygon fill="#02B0B0" points="140.457,96.317 140.025,96.317 89.533,96.317 89.533,109.49 102.791,109.49 102.791,109.482 
					130.078,109.482 130.071,109.49 89.56,149.162 89.533,149.162 89.533,149.178 89.503,149.209 89.533,149.232 89.533,152.99 
					93.261,152.99 104.481,152.99 108.399,149.162 140.025,118.187 140.025,128.35 153.252,128.35 153.252,123.936 153.252,96.317 
									"/>
			</g>
		</g>
		<g>
			<g>
				<path fill="#FFFFFF" d="M139.998,315.001C62.802,315.001,0,252.192,0,175.007C0,97.799,62.802,34.999,139.998,34.999
					s139.996,62.8,139.996,140.008C279.994,252.192,217.194,315.001,139.998,315.001z M139.998,48.434
					c-69.788,0-126.565,56.773-126.565,126.573c0,69.777,56.777,126.559,126.565,126.559s126.561-56.781,126.561-126.559
					C266.559,105.207,209.786,48.434,139.998,48.434z"/>
			</g>
		</g>
		<g>
			<g>
				<g>
					<path fill="#FFFFFF" d="M179.659,167.267c4.476-3.943,8.003-9.067,10.42-15.194c3.833-10.287,3.826-21.971-0.029-32.087
						c-5.261-13.39-15.872-21.777-29.598-23.668v13.474c10.649,2.23,15.447,10.086,17.433,15.04
						c2.745,7.139,2.745,15.334,0.023,22.418c-2.35,5.872-8.537,15.734-23.56,15.734h-51.557v-3.951H89.533v29.743h13.258v-12.534
						h57.483c20.921,0,30.451,16.686,30.451,32.196c0,7.4-2.176,15.063-6.714,21.067l7.995,10.889
						c6.866-7.594,10.684-17.548,11.542-27.465C205.102,195.173,197.277,175.569,179.659,167.267z"/>
				</g>
				<g>
					<path fill="#FFFFFF" d="M160.274,240.633h-57.483v-11.869H89.533v24.918h70.741c5.537,0,10.519-0.841,14.971-2.338
						l-8.318-11.336C164.85,240.409,162.643,240.633,160.274,240.633z"/>
				</g>
			</g>
		</g>
	</g>
	<g>
		<path fill="#02B0B0" d="M877.528,121.799c-3.457,0-6.25,2.678-6.25,5.957v94.479c0,3.288,2.793,5.966,6.25,5.966
			c3.564,0,6.455-2.678,6.455-5.966v-94.479C883.983,124.477,881.092,121.799,877.528,121.799z"/>
		<path fill="#02B0B0" d="M1021.571,122.146c-3.398,0-6.064,2.547-6.064,5.796l0.023,88.36c-0.043,0.1-0.348,0.331-1.008,0.362
			l-78.16-90.128c-2.045-2.878-6.02-4.737-10.141-4.737c-6.15,0-12.803,4.514-12.803,11.814v88.452c0,3.233,2.666,5.78,6.074,5.78
			c3.387,0,6.049-2.547,6.049-5.78l-0.023-88.375c0.055-0.077,0.352-0.332,0.904-0.332c0,0,0.139,0.062,0.385,0.332l77.887,89.772
			c2.053,2.886,6.027,4.738,10.133,4.738c6.938,0,12.811-5.41,12.811-11.815v-88.444
			C1027.637,124.692,1024.967,122.146,1021.571,122.146z"/>
		<path fill="#FFFFFF" d="M457.962,122.146c-3.401,0-6.065,2.547-6.065,5.796l0.017,88.367c-0.044,0.093-0.339,0.324-0.998,0.355
			l-78.164-90.128c-2.049-2.878-6.025-4.737-10.135-4.737c-6.158,0-12.806,4.514-12.806,11.814v88.452
			c0,3.233,2.666,5.78,6.058,5.78c3.405,0,6.06-2.547,6.06-5.78l-0.016-88.367c0.051-0.085,0.35-0.332,0.905-0.34
			c0,0,0.137,0.062,0.38,0.332l77.881,89.772c2.047,2.878,6.033,4.738,10.144,4.738c6.941,0,12.807-5.41,12.807-11.815v-88.444
			C464.017,124.692,461.363,122.146,457.962,122.146z"/>
		<path fill="#FFFFFF" d="M592.889,121.799c-3.564,0-6.459,2.678-6.459,5.957v55.139c0,17.996-17.201,33.206-37.55,33.206h-9.515
			c-20.702,0-37.548-14.901-37.548-33.206v-55.139c0-3.279-2.902-5.957-6.461-5.957c-3.452,0-6.258,2.678-6.258,5.957v55.139
			c0,24.979,22.551,45.307,50.268,45.307h9.515c27.249,0,50.256-20.759,50.256-45.307v-55.139
			C599.136,124.477,596.339,121.799,592.889,121.799z"/>
		<path fill="#FFFFFF" d="M704.645,161.688c4.686-4.006,6.822-11.406,6.822-16.206c0-6.281-2.801-12.331-7.701-16.668l-0.791-0.872
			c-4.818-3.905-11.232-6.143-17.582-6.143h-38.855c-6.459,0-12.701,2.184-17.727,6.258l-0.602,0.532
			c-4.926,4.414-7.759,10.572-7.759,16.893v59.036c0,6.32,2.833,12.479,7.767,16.893l0.734,0.655
			c4.893,3.959,11.139,6.136,17.586,6.136h38.855c21.328,0,39.352-16.291,39.352-35.567
			C724.744,179.808,717.108,168.146,704.645,161.688z M685.393,216.101h-38.855c-3.01,0-5.885-0.833-8.283-2.407l-0.453-0.278
			l-0.898-0.811c-2.404-2.145-3.73-5.031-3.73-8.087v-35.345h52.412c14.346,0,26.455,10.743,26.455,23.461
			C712.039,205.358,699.83,216.101,685.393,216.101z M636.906,137.395l1.348-1.088c2.398-1.574,5.273-2.416,8.283-2.416h38.855
			c2.84,0,5.709,0.872,8.07,2.416l0.85,0.455l0.703,0.633c2.41,2.152,3.742,5.039,3.742,8.087c0,6.397-5.908,11.599-13.174,11.599
			h-52.412v-11.599C633.172,142.434,634.498,139.547,636.906,137.395z"/>
		<path fill="#FFFFFF" d="M849.168,157.365c0-19.284-18.027-35.566-39.365-35.566h-38.854c-6.451,0-12.703,2.184-17.727,6.258
			l-0.586,0.532c-4.939,4.407-7.764,10.564-7.764,16.893v76.754c0,3.288,2.803,5.966,6.256,5.966c3.557,0,6.447-2.678,6.447-5.966
			v-29.309h42.281l37.43,33.453c1.053,1.157,2.643,1.821,4.43,1.821c3.561,0,6.455-2.678,6.455-5.966
			c0-1.898-0.98-3.218-1.504-3.928l-29.004-26.037C835.567,188.93,849.168,174.111,849.168,157.365z M809.803,180.835h-52.227
			v-35.354c0-3.048,1.33-5.935,3.742-8.087l1.35-1.088c2.404-1.574,5.264-2.416,8.281-2.416h38.854
			c14.447,0,26.654,10.75,26.654,23.475C836.457,170.083,824.25,180.835,809.803,180.835z"/>
		<path fill="#FFFFFF" d="M1118.186,174.667c15.018-7.895,24.549-22.842,24.549-38.924v-7.987c0-3.279-2.816-5.957-6.26-5.957
			c-3.557,0-6.459,2.678-6.459,5.957v7.987c0,17.362-15.857,32.264-35.166,33.205h-29.424v-41.192c0-3.279-2.895-5.957-6.451-5.957
			c-3.445,0-6.258,2.678-6.258,5.957v94.479c0,3.288,2.813,5.966,6.258,5.966c3.557,0,6.451-2.678,6.451-5.966v-41.192h28.236
			c20.357,0,37.551,15.218,37.551,33.221v7.972c0,3.288,2.893,5.966,6.459,5.966c3.445,0,6.258-2.678,6.258-5.966v-8.018
			C1143.713,197.75,1133.713,182.54,1118.186,174.667z"/>
		<g>
			<g>
				<path fill="#FFFFFF" d="M1157.168,134.138h-2.35v-10.525h-3.998v-1.813h10.389v1.813h-4.041V134.138z M1168.647,134.138
					l-3.842-9.569h-0.154l0.115,2.207v7.362h-2.277v-12.339h3.578l3.746,9.561l3.885-9.561h3.445v12.339h-2.43v-7.192l0.111-2.338
					h-0.15l-4.035,9.53H1168.647z"/>
			</g>
		</g>
	</g>
</g>
</svg>
