<?xml version="1.0" encoding="utf-8"?>
<!-- Generator: Adobe Illustrator 16.0.0, SVG Export Plug-In . SVG Version: 6.00 Build 0)  -->
<!DOCTYPE svg PUBLIC "-//W3C//DTD SVG 1.1//EN" "http://www.w3.org/Graphics/SVG/1.1/DTD/svg11.dtd">
<svg version="1.1" id="Layer_1" xmlns="http://www.w3.org/2000/svg" xmlns:xlink="http://www.w3.org/1999/xlink" x="0px" y="0px"
	 width="1249.992px" height="350px" viewBox="0 0 1249.992 350" enable-background="new 0 0 1249.992 350" xml:space="preserve">
<g>
	<g>
		<g>
			<g>
				<polygon fill="#02B0B0" points="140.455,96.32 140.023,96.32 89.531,96.32 89.531,109.49 102.789,109.49 102.789,109.485 
					130.075,109.485 130.068,109.49 89.558,149.166 89.531,149.166 89.531,149.179 89.5,149.21 89.531,149.237 89.531,152.992 
					93.259,152.992 104.479,152.992 108.399,149.166 140.023,118.188 140.023,128.352 153.249,128.352 153.249,123.937 
					153.249,96.32 				"/>
			</g>
		</g>
		<g>
			<path fill="#FFFFFF" d="M139.996,315C62.8,315,0,252.192,0,175.01C0,97.802,62.8,35,139.996,35
				c77.196,0,139.996,62.802,139.996,140.01C279.991,252.192,217.192,315,139.996,315z M139.996,48.435
				c-69.788,0-126.565,56.775-126.565,126.575c0,69.773,56.777,126.555,126.565,126.555s126.561-56.78,126.561-126.555
				C266.557,105.21,209.784,48.435,139.996,48.435z"/>
		</g>
		<g>
			<g>
				<path fill="#FFFFFF" d="M179.657,167.27c4.476-3.944,8.002-9.068,10.422-15.197c3.831-10.285,3.824-21.97-0.031-32.087
					c-5.259-13.388-15.87-21.776-29.599-23.666v13.473c10.65,2.233,15.45,10.086,17.433,15.04
					c2.747,7.138,2.747,15.333,0.024,22.421c-2.35,5.869-8.535,15.732-23.56,15.732h-51.557v-3.95H89.531v29.738h13.257v-12.531
					h57.483c20.921,0,30.451,16.685,30.451,32.194c0,7.399-2.176,15.063-6.714,21.067l7.995,10.889
					c6.868-7.595,10.685-17.549,11.544-27.465C205.099,195.172,197.275,175.575,179.657,167.27z"/>
			</g>
			<g>
				<path fill="#FFFFFF" d="M160.272,240.633h-57.483v-11.869H89.531v24.917h70.74c5.537,0,10.518-0.841,14.971-2.337l-8.318-11.337
					C164.848,240.408,162.641,240.633,160.272,240.633z"/>
			</g>
		</g>
	</g>
	<g>
		<g>
			<path fill="#02B0B0" d="M877.523,95.89c-3.454,0-6.252,2.666-6.252,5.946v94.484c0,3.284,2.798,5.958,6.252,5.958
				c3.568,0,6.455-2.674,6.455-5.958v-94.484C883.979,98.556,881.093,95.89,877.523,95.89z"/>
			<path fill="#02B0B0" d="M1021.57,96.233c-3.402,0-6.065,2.549-6.065,5.795l0.024,88.355c-0.049,0.096-0.35,0.331-1.012,0.366
				l-78.156-90.134c-2.047-2.87-6.023-4.727-10.145-4.727c-6.15,0-12.8,4.503-12.8,11.803v88.454c0,3.237,2.667,5.776,6.07,5.776
				c3.391,0,6.054-2.539,6.054-5.776l-0.023-88.377c0.055-0.077,0.348-0.332,0.899-0.332c0,0,0.144,0.063,0.389,0.332l77.884,89.771
				c2.053,2.89,6.03,4.737,10.137,4.737c6.938,0,12.807-5.409,12.807-11.807v-88.444
				C1027.633,98.781,1024.966,96.233,1021.57,96.233z"/>
			<path fill="#FFFFFF" d="M457.959,96.233c-3.402,0-6.064,2.549-6.064,5.795l0.02,88.363c-0.046,0.088-0.339,0.323-1,0.358
				l-78.164-90.134c-2.049-2.87-6.027-4.727-10.136-4.727c-6.154,0-12.806,4.503-12.806,11.803v88.454
				c0,3.237,2.666,5.776,6.058,5.776c3.407,0,6.062-2.539,6.062-5.776l-0.015-88.369c0.05-0.085,0.347-0.332,0.903-0.34
				c0,0,0.139,0.063,0.381,0.332l77.879,89.771c2.049,2.879,6.035,4.737,10.144,4.737c6.945,0,12.811-5.409,12.811-11.807v-88.444
				C464.013,98.781,461.358,96.233,457.959,96.233z"/>
			<path fill="#FFFFFF" d="M592.885,95.89c-3.561,0-6.458,2.666-6.458,5.946v55.137c0,17.996-17.202,33.213-37.551,33.213h-9.515
				c-20.701,0-37.547-14.909-37.547-33.213v-55.137c0-3.28-2.901-5.946-6.464-5.946c-3.448,0-6.258,2.666-6.258,5.946v55.137
				c0,24.988,22.554,45.306,50.269,45.306h9.515c27.249,0,50.256-20.759,50.256-45.306v-55.137
				C599.132,98.556,596.335,95.89,592.885,95.89z"/>
			<path fill="#FFFFFF" d="M704.641,135.775c4.686-4.001,6.821-11.414,6.821-16.206c0-6.28-2.801-12.339-7.701-16.676l-0.791-0.865
				c-4.818-3.901-11.228-6.139-17.583-6.139h-38.854c-6.455,0-12.698,2.172-17.723,6.251l-0.602,0.528
				c-4.932,4.418-7.764,10.571-7.764,16.899v59.034c0,6.313,2.832,12.471,7.771,16.89l0.729,0.654
				c4.893,3.955,11.14,6.132,17.587,6.132h38.854c21.329,0,39.354-16.29,39.354-35.566
				C724.74,153.886,717.104,142.227,704.641,135.775z M685.387,190.187h-38.854c-3.01,0-5.884-0.841-8.283-2.415l-0.447-0.276
				l-0.903-0.812c-2.403-2.146-3.73-5.031-3.73-8.08v-35.351h52.412c14.346,0,26.454,10.742,26.454,23.459
				C712.034,179.438,699.826,190.187,685.387,190.187z M636.906,111.475l1.344-1.088c2.399-1.574,5.273-2.407,8.283-2.407h38.854
				c2.84,0,5.711,0.864,8.072,2.407l0.849,0.456l0.705,0.633c2.409,2.153,3.74,5.039,3.74,8.095c0,6.391-5.907,11.592-13.174,11.592
				h-52.412v-11.592C633.168,116.514,634.495,113.627,636.906,111.475z"/>
			<path fill="#FFFFFF" d="M849.164,131.45c0-19.281-18.027-35.561-39.364-35.561h-38.851c-6.451,0-12.702,2.172-17.727,6.258
				l-0.591,0.521c-4.935,4.41-7.764,10.563-7.764,16.899v76.752c0,3.284,2.806,5.958,6.256,5.958c3.561,0,6.45-2.674,6.45-5.958
				v-29.312h42.281l37.427,33.457c1.054,1.157,2.643,1.813,4.43,1.813c3.565,0,6.455-2.674,6.455-5.958
				c0-1.904-0.976-3.226-1.501-3.935l-29.008-26.033C835.563,163.008,849.164,148.198,849.164,131.45z M809.8,154.913h-52.225
				V119.57c0-3.056,1.331-5.941,3.743-8.095l1.351-1.088c2.399-1.574,5.259-2.407,8.28-2.407H809.8
				c14.446,0,26.653,10.742,26.653,23.472C836.453,144.164,824.246,154.913,809.8,154.913z"/>
			<path fill="#FFFFFF" d="M1118.186,148.747c15.018-7.888,24.543-22.834,24.543-38.925v-7.986c0-3.28-2.813-5.946-6.258-5.946
				c-3.554,0-6.456,2.666-6.456,5.946v7.986c0,17.363-15.86,32.266-35.169,33.215h-29.425v-41.201c0-3.28-2.894-5.946-6.451-5.946
				c-3.444,0-6.259,2.666-6.259,5.946v94.484c0,3.284,2.813,5.958,6.259,5.958c3.558,0,6.451-2.674,6.451-5.958v-41.191h28.236
				c20.356,0,37.55,15.21,37.55,33.214v7.979c0,3.284,2.895,5.958,6.464,5.958c3.441,0,6.254-2.674,6.254-5.958v-8.023
				C1143.71,171.836,1133.709,156.626,1118.186,148.747z"/>
			<g>
				<path d="M1157.168,108.218h-2.354V97.692h-3.998V95.89h10.388v1.802h-4.036V108.218L1157.168,108.218z M1168.646,108.218
					l-3.844-9.562h-0.154l0.116,2.207v7.354h-2.275V95.89h3.577l3.745,9.553l3.887-9.553h3.439v12.328h-2.426v-7.184l0.11-2.343
					h-0.149l-4.039,9.526H1168.646z"/>
			</g>
		</g>
		<g>
			<path fill="#FFFFFF" d="M375.222,236.943c0,5.371-1.432,9.478-4.283,12.316c-2.852,2.84-6.957,4.26-12.313,4.26h-8.82v-32.526
				h9.758c4.946,0,8.797,1.396,11.541,4.198C373.848,228,375.222,231.912,375.222,236.943z M371.302,237.074
				c0-4.243-1.045-7.438-3.125-9.593c-2.084-2.145-5.182-3.226-9.288-3.226h-5.379v25.991h4.503c4.414,0,7.736-1.104,9.955-3.326
				C370.191,244.71,371.302,241.424,371.302,237.074z"/>
			<path fill="#FFFFFF" d="M402.293,253.52h-17.745v-32.526h17.745v3.356h-14.044v10.482h13.195v3.339h-13.195v11.972h14.044V253.52
				z"/>
			<path fill="#FFFFFF" d="M429.542,244.869c0,2.854-1.015,5.093-3.048,6.689c-2.03,1.605-4.788,2.407-8.272,2.407
				c-3.773,0-6.679-0.501-8.708-1.496v-3.651c1.304,0.564,2.728,1.013,4.268,1.336c1.539,0.331,3.063,0.494,4.572,0.494
				c2.465,0,4.326-0.479,5.576-1.437s1.871-2.291,1.871-3.996c0-1.128-0.22-2.046-0.667-2.771c-0.439-0.719-1.18-1.374-2.218-1.991
				c-1.038-0.603-2.616-1.288-4.735-2.068c-2.963-1.076-5.077-2.361-6.347-3.85c-1.269-1.476-1.906-3.419-1.906-5.805
				c0-2.508,0.922-4.498,2.767-5.987c1.844-1.481,4.283-2.224,7.316-2.224c3.164,0,6.073,0.595,8.729,1.783l-1.149,3.288
				c-2.628-1.124-5.183-1.691-7.667-1.691c-1.96,0-3.488,0.435-4.595,1.29c-1.104,0.863-1.656,2.061-1.656,3.587
				c0,1.128,0.204,2.046,0.613,2.771c0.401,0.718,1.093,1.374,2.057,1.977c0.965,0.603,2.442,1.267,4.43,1.99
				c3.342,1.22,5.641,2.523,6.895,3.925C428.917,240.833,429.542,242.639,429.542,244.869z"/>
			<path fill="#FFFFFF" d="M438.281,253.52v-32.526h3.704v32.526H438.281z"/>
			<path fill="#FFFFFF" d="M466.949,236.477h10.818v15.815c-1.686,0.556-3.396,0.977-5.14,1.25c-1.74,0.277-3.762,0.425-6.054,0.425
				c-4.819,0-8.569-1.466-11.255-4.398c-2.689-2.932-4.028-7.029-4.028-12.315c0-3.38,0.664-6.343,1.995-8.891
				c1.327-2.538,3.233-4.482,5.733-5.825c2.496-1.344,5.425-2.016,8.777-2.016c3.396,0,6.561,0.643,9.492,1.914l-1.436,3.334
				c-2.878-1.242-5.642-1.868-8.296-1.868c-3.877,0-6.906,1.183-9.083,3.543c-2.18,2.354-3.265,5.625-3.265,9.809
				c0,4.392,1.05,7.725,3.146,9.993c2.099,2.269,5.179,3.403,9.24,3.403c2.211,0,4.364-0.263,6.472-0.779V239.86h-7.119
				L466.949,236.477L466.949,236.477z"/>
			<path fill="#FFFFFF" d="M512.51,253.52h-4.221l-17.401-27.303h-0.174c0.235,3.203,0.352,6.146,0.352,8.813v18.49h-3.423v-32.526
				h4.187l17.352,27.188h0.178c-0.031-0.401-0.097-1.683-0.197-3.859c-0.104-2.175-0.144-3.723-0.111-4.659v-18.668h3.46V253.52z"/>
			<path fill="#FFFFFF" d="M523.491,253.52v-32.526h3.705v32.526H523.491z"/>
			<path fill="#FFFFFF" d="M563.029,253.52h-4.227l-17.4-27.303h-0.175c0.235,3.203,0.352,6.146,0.352,8.813v18.49h-3.422v-32.526
				h4.183l17.355,27.188h0.173c-0.027-0.401-0.098-1.683-0.197-3.859c-0.1-2.175-0.135-3.723-0.108-4.659v-18.668h3.466
				L563.029,253.52L563.029,253.52z"/>
			<path fill="#FFFFFF" d="M588.008,236.477h10.824v15.815c-1.688,0.556-3.399,0.977-5.137,1.25
				c-1.747,0.277-3.767,0.425-6.058,0.425c-4.815,0-8.569-1.466-11.256-4.398c-2.685-2.932-4.028-7.029-4.028-12.315
				c0-3.38,0.664-6.343,1.991-8.891c1.327-2.538,3.241-4.482,5.737-5.825c2.497-1.344,5.421-2.016,8.773-2.016
				c3.398,0,6.563,0.643,9.495,1.914l-1.438,3.334c-2.869-1.242-5.637-1.868-8.295-1.868c-3.874,0-6.903,1.183-9.079,3.543
				c-2.176,2.354-3.269,5.625-3.269,9.809c0,4.392,1.05,7.725,3.148,9.993c2.099,2.268,5.182,3.403,9.245,3.403
				c2.203,0,4.36-0.263,6.467-0.779V239.86h-7.123L588.008,236.477L588.008,236.477z"/>
			<path fill="#FFFFFF" d="M634.428,253.52h-6.751v-26.793h-8.64v-5.733h24.038v5.733h-8.647V253.52L634.428,253.52z"/>
			<path fill="#FFFFFF" d="M676.289,253.52h-6.729v-14.045h-12.608v14.045h-6.745v-32.526h6.745v12.749h12.608v-12.749h6.729V253.52
				z"/>
			<path fill="#FFFFFF" d="M704.892,253.52h-18.34v-32.526h18.34v5.648h-11.587v7.138h10.78v5.661h-10.78v8.385h11.587V253.52z"/>
			<path fill="#FFFFFF" d="M753.987,236.943c0,5.356-1.489,9.453-4.473,12.302c-2.986,2.848-7.296,4.274-12.926,4.274h-9.017
				v-32.526h9.996c5.197,0,9.232,1.396,12.107,4.198C752.548,228,753.987,231.912,753.987,236.943z M746.975,237.121
				c0-6.984-3.022-10.479-9.06-10.479h-3.592v21.184h2.895C743.719,247.824,746.975,244.26,746.975,237.121z"/>
			<path fill="#FFFFFF" d="M762.819,253.52v-32.526h6.748v32.526H762.819z"/>
			<path fill="#FFFFFF" d="M786.451,253.52h-6.644v-32.526h18.25v5.648h-11.606v8.388h10.801v5.626h-10.801V253.52z"/>
			<path fill="#FFFFFF" d="M813.156,253.52h-6.641v-32.526h18.247v5.648h-11.606v8.388h10.8v5.626h-10.8V253.52z"/>
			<path fill="#FFFFFF" d="M851.555,253.52H833.22v-32.526h18.335v5.648h-11.582v7.138h10.776v5.661h-10.776v8.385h11.582V253.52z"
				/>
			<path fill="#FFFFFF" d="M867.175,241.042v12.478h-6.752v-32.526h9.275c4.325,0,7.528,0.803,9.604,2.407
				c2.075,1.612,3.113,4.061,3.113,7.34c0,1.904-0.519,3.61-1.548,5.101c-1.03,1.49-2.488,2.662-4.375,3.503
				c4.789,7.316,7.91,12.039,9.365,14.177h-7.494l-7.599-12.478L867.175,241.042L867.175,241.042z M867.175,235.431h2.177
				c2.135,0,3.709-0.362,4.724-1.092c1.019-0.729,1.528-1.871,1.528-3.422c0-1.543-0.522-2.647-1.56-3.296
				c-1.039-0.656-2.647-0.979-4.824-0.979h-2.045V235.431z"/>
			<path fill="#FFFFFF" d="M910.432,253.52h-18.336v-32.526h18.336v5.648h-11.587v7.138h10.779v5.661h-10.779v8.385h11.587V253.52z"
				/>
			<path fill="#FFFFFF" d="M947.543,253.52h-8.578l-13.848-24.604h-0.197c0.273,4.341,0.409,7.442,0.409,9.295v15.311h-6.03v-32.526
				h8.516l13.828,24.362h0.146c-0.212-4.229-0.32-7.216-0.32-8.968v-15.396h6.074V253.52z"/>
			<path fill="#FFFFFF" d="M971.306,226.263c-2.534,0-4.507,0.973-5.896,2.925c-1.396,1.952-2.091,4.669-2.091,8.157
				c0,7.254,2.657,10.881,7.985,10.881c2.237,0,4.947-0.571,8.122-1.713v5.779c-2.606,1.119-5.525,1.675-8.75,1.675
				c-4.631,0-8.173-1.443-10.623-4.306c-2.458-2.871-3.681-6.992-3.681-12.359c0-3.384,0.598-6.347,1.805-8.89
				c1.205-2.552,2.938-4.495,5.195-5.854c2.253-1.357,4.898-2.038,7.932-2.038c3.096,0,6.201,0.766,9.322,2.296l-2.176,5.606
				c-1.192-0.578-2.395-1.088-3.598-1.513C973.652,226.479,972.472,226.263,971.306,226.263z"/>
			<path fill="#FFFFFF" d="M1006.765,253.52h-18.331v-32.526h18.331v5.648h-11.587v7.138h10.781v5.661h-10.781v8.385h11.587V253.52z
				"/>
			<path fill="#FFFFFF" d="M1014.177,250.34c0-1.25,0.328-2.191,0.98-2.824c0.655-0.641,1.604-0.957,2.852-0.957
				c1.204,0,2.138,0.325,2.798,0.98c0.659,0.647,0.99,1.582,0.99,2.801c0,1.174-0.331,2.091-0.999,2.773
				c-0.668,0.667-1.598,1.009-2.789,1.009c-1.22,0-2.162-0.333-2.832-0.997C1014.513,252.471,1014.177,251.536,1014.177,250.34z"/>
		</g>
	</g>
</g>
</svg>
