<?xml version="1.0" encoding="utf-8"?>
<!-- Generator: Adobe Illustrator 16.0.0, SVG Export Plug-In . SVG Version: 6.00 Build 0)  -->
<!DOCTYPE svg PUBLIC "-//W3C//DTD SVG 1.1//EN" "http://www.w3.org/Graphics/SVG/1.1/DTD/svg11.dtd">
<svg version="1.1" id="Layer_1" xmlns="http://www.w3.org/2000/svg" xmlns:xlink="http://www.w3.org/1999/xlink" x="0px" y="0px"
	 width="259px" height="293px" viewBox="0 0 259 293" enable-background="new 0 0 259 293" xml:space="preserve">
<g>
	<g>
		<path fill="#191919" d="M130.318,288.059L38.3,191.643L129.885,1.1l90.107,189.684L130.318,288.059z M42.35,191.002l87.925,92.127
			l85.691-92.956l-86.1-181.252L42.35,191.002z"/>
	</g>
	<g>
		<path fill="#191919" d="M129.778,285.975l-91.469-94.529l91.467-94.525l88.517,94.145L129.778,285.975z M40.655,191.445
			l89.101,92.08l86.227-92.459l-86.224-91.706L40.655,191.445z"/>
	</g>
	<g>
		<rect x="129" y="9" width="2" height="264"/>
	</g>
	<g>
		<path fill="#191919" d="M130.229,193.215l-65.415-49.922l-0.252,0.525l-2.28-1.096l0.479-0.996l-0.106-0.082l0.392-0.513
			L129.879,2.085l66.375,138.92L130.229,193.215z M65.932,140.965l64.268,49.046l62.901-49.738L129.873,7.937L65.932,140.965z"/>
	</g>
	<g>
		<path fill="#00A89C" d="M129.643,275.607l-72.689-85.307L129.54-0.302l72.14,190.598l-1.277,1.517L129.643,275.607z
			 M64.678,188.969l64.941,76.215l64.352-76.209l-64.45-170.275L64.678,188.969z"/>
	</g>
	<g>
		<rect x="18" y="170" fill="#FFFFFF" width="222" height="39"/>
		<path fill="#00A89C" d="M242,210H17v-41h225V210z M20,208h219v-37H20V208z"/>
	</g>
	<g>
		<path fill="#231F20" d="M34.587,175.221l16.202,22.723v-22.723h3.576v28.434h-3.952l-15.787-22.15v22.15H31.05v-28.434H34.587z"/>
		<path fill="#231F20" d="M82.81,175.221h3.576v20.113c-0.303,2.227-1.258,4.145-2.865,5.75c-1.857,1.871-4.156,2.807-6.896,2.807
			c-2.766,0-5.091-0.945-6.975-2.836c-1.884-1.891-2.826-4.134-2.826-6.729v-19.105h3.577v19.105c0,1.818,0.619,3.35,1.857,4.595
			c1.238,1.244,2.694,1.867,4.367,1.867c1.66,0,3.105-0.623,4.337-1.867c1.232-1.245,1.848-2.776,1.848-4.595V175.221z"/>
		<path fill="#231F20" d="M114.673,187.432c1.844,1.844,2.766,4.069,2.766,6.678c0,2.582-0.955,4.828-2.865,6.738
			c-1.541,1.555-3.49,2.488-5.848,2.807h-9.82v-28.434h9.03c1.857,0,3.411,0.625,4.663,1.877c1.251,1.252,1.877,2.721,1.877,4.405
			c0,1.699-0.613,3.154-1.838,4.366C113.072,185.977,113.75,186.495,114.673,187.432z M102.482,178.302v6.243h5.73
			c0.777-0.077,1.375-0.334,1.798-0.771c0.58-0.564,0.87-1.321,0.87-2.271c0-0.922-0.303-1.687-0.909-2.292
			s-1.292-0.909-2.055-0.909H102.482z M107.659,200.55c1.646,0,3.085-0.614,4.317-1.847s1.848-2.764,1.848-4.596
			c0-1.83-0.616-3.364-1.848-4.604c-1.232-1.236-2.67-1.855-4.317-1.855h-5.177v12.9L107.659,200.55L107.659,200.55z"/>
		<path fill="#231F20" d="M135.688,194.348h-3.34v9.307h-3.576v-28.434h8.141c2.371,0.314,4.354,1.277,5.946,2.885
			c1.856,1.857,2.785,4.076,2.785,6.658c0,2.596-0.955,4.848-2.865,6.758c-1.264,1.276-2.383,2.035-3.357,2.271l6.383,9.859h-4.129
			L135.688,194.348z M132.35,178.342v12.883h3.517c1.659,0,3.108-0.615,4.347-1.848c1.239-1.232,1.857-2.77,1.857-4.613
			c0-1.832-0.619-3.359-1.857-4.584c-1.238-1.226-2.688-1.838-4.347-1.838H132.35z"/>
		<path fill="#231F20" d="M161.209,175.221v28.434h-3.576v-28.434H161.209z"/>
		<path fill="#231F20" d="M177.402,175.221l16.201,22.723v-22.723h3.576v28.434h-3.951l-15.787-22.15v22.15h-3.575v-28.434H177.402z
			"/>
		<path fill="#231F20" d="M224.697,175.221l-7.51,10.866l12.291,17.565h-4.17l-10.235-14.642l-1.856,2.669v11.973h-3.576v-28.432
			h3.576v10.512l7.33-10.512H224.697z"/>
	</g>
</g>
</svg>
