<?xml version="1.0" encoding="utf-8"?>
<!-- Generator: Adobe Illustrator 16.0.0, SVG Export Plug-In . SVG Version: 6.00 Build 0)  -->
<!DOCTYPE svg PUBLIC "-//W3C//DTD SVG 1.1//EN" "http://www.w3.org/Graphics/SVG/1.1/DTD/svg11.dtd">
<svg version="1.1" id="Layer_1" xmlns="http://www.w3.org/2000/svg" xmlns:xlink="http://www.w3.org/1999/xlink" x="0px" y="0px"
	 width="170.917px" height="168px" viewBox="-9.665 -9.5 170.917 168" enable-background="new -9.665 -9.5 170.917 168"
	 xml:space="preserve">
<g id="Layer_1_1_">
	<circle fill="none" stroke="#000000" stroke-width="1.455" stroke-miterlimit="10" cx="77.465" cy="76.3" r="76.456"/>
	<g>
		<path d="M13.134,81.582V60.993h5.264l4.14,7.545c1.182,2.168,2.366,4.735,3.253,7.057h0.089c-0.297-2.719-0.385-5.5-0.385-8.584
			v-6.018h4.14v20.59h-4.731l-4.258-7.943c-1.183-2.199-2.483-4.857-3.46-7.271l-0.089,0.03c0.119,2.719,0.178,5.622,0.178,8.982
			v6.201h-4.14V81.582z"/>
		<path d="M47.019,76.785c0,1.956,0.06,3.544,0.119,4.797h-3.903l-0.207-2.107h-0.088c-0.562,0.916-1.923,2.444-4.525,2.444
			c-2.929,0-5.086-1.894-5.086-6.507v-8.768h4.524v8.034c0,2.169,0.681,3.483,2.248,3.483c1.242,0,1.953-0.886,2.249-1.618
			c0.118-0.275,0.147-0.643,0.147-1.008v-8.891h4.524v10.141H47.019z"/>
		<path d="M50.502,81.582c0.058-0.978,0.117-2.779,0.117-4.46V59.893h4.495v8.523h0.058c0.858-1.283,2.366-2.109,4.377-2.109
			c3.46,0,6.003,2.963,5.974,7.546c0,5.376-3.311,8.065-6.624,8.065c-1.687,0-3.312-0.643-4.347-2.414h-0.059l-0.177,2.077H50.502z
			 M55.115,75.229c0,0.307,0.029,0.58,0.089,0.825c0.295,1.252,1.331,2.199,2.632,2.199c1.921,0,3.105-1.528,3.105-4.216
			c0-2.322-1.005-4.155-3.105-4.155c-1.213,0-2.337,0.948-2.632,2.292c-0.059,0.274-0.089,0.549-0.089,0.855V75.229z"/>
		<path d="M68.299,71.563c0-2.2-0.059-3.636-0.119-4.919h3.873l0.149,2.75h0.119c0.738-2.169,2.512-3.086,3.903-3.086
			c0.413,0,0.62,0,0.946,0.062v4.368c-0.326-0.061-0.711-0.122-1.213-0.122c-1.656,0-2.78,0.917-3.077,2.352
			c-0.059,0.305-0.088,0.672-0.088,1.039v7.576h-4.494L68.299,71.563L68.299,71.563z"/>
		<path d="M84.175,62.489c0,1.283-0.946,2.322-2.425,2.322c-1.42,0-2.367-1.039-2.337-2.322c-0.028-1.344,0.917-2.353,2.367-2.353
			C83.229,60.136,84.146,61.145,84.175,62.489z M79.533,81.582V66.644h4.496v14.938H79.533z"/>
		<path d="M87.633,71.41c0-1.863-0.06-3.453-0.12-4.766h3.904l0.206,2.047h0.089c0.592-0.947,2.071-2.384,4.464-2.384
			c2.961,0,5.178,2.017,5.178,6.417v8.86h-4.497v-8.281c0-1.923-0.652-3.238-2.275-3.238c-1.244,0-1.983,0.887-2.277,1.741
			c-0.118,0.275-0.18,0.733-0.18,1.161v8.615h-4.493V71.41H87.633z"/>
		<path d="M108.679,76.48h0.061c0.324-0.611,0.68-1.223,1.034-1.803l2.928-4.49h5.411l-5.175,6.048l5.917,8.889h-5.53l-3.49-6.141
			l-1.152,1.468v4.673h-4.494V63.437h4.494V76.48H108.679z"/>
	</g>
	<g>
		<path d="M48.374,82.917c1.64-0.275,3.774-0.429,6.029-0.429c3.745,0,6.174,0.703,8.075,2.199c2.05,1.587,3.336,4.123,3.336,7.76
			c0,3.941-1.375,6.658-3.277,8.34c-2.078,1.802-5.237,2.657-9.1,2.657c-2.312,0-3.95-0.152-5.063-0.306V82.917z M52.852,99.719
			c0.381,0.092,0.995,0.092,1.551,0.092c4.037,0.031,6.671-2.292,6.671-7.21c0.029-4.276-2.371-6.537-6.204-6.537
			c-0.994,0-1.637,0.092-2.019,0.184V99.719z"/>
		<path d="M72.024,97.244c0.145,1.924,1.96,2.841,4.039,2.841c1.52,0,2.75-0.215,3.949-0.611l0.586,3.146
			c-1.463,0.611-3.247,0.917-5.18,0.917c-4.858,0-7.638-2.934-7.638-7.606c0-3.79,2.253-7.974,7.229-7.974
			c4.622,0,6.379,3.757,6.379,7.454c0,0.794-0.087,1.497-0.146,1.834H72.024z M77.262,94.066c0-1.13-0.469-3.023-2.518-3.023
			c-1.873,0-2.633,1.771-2.751,3.023H77.262z"/>
		<path d="M84.023,99.168c0.818,0.521,2.518,1.132,3.834,1.132c1.348,0,1.902-0.488,1.902-1.252c0-0.765-0.438-1.131-2.107-1.711
			c-2.955-1.04-4.097-2.719-4.067-4.491c0-2.779,2.283-4.887,5.824-4.887c1.667,0,3.16,0.396,4.038,0.855l-0.789,3.206
			c-0.644-0.366-1.873-0.853-3.104-0.853c-1.082,0-1.696,0.455-1.696,1.221c0,0.702,0.557,1.067,2.312,1.71
			c2.724,0.978,3.863,2.413,3.893,4.611c0,2.779-2.105,4.827-6.203,4.827c-1.873,0-3.539-0.428-4.622-1.038L84.023,99.168z"/>
		<path d="M101.354,79.232v37.558h-4.453V79.232H101.354z"/>
		<path d="M117.648,88.267c-0.056,0.874-0.11,2.029-0.11,4.091v7.697c0,2.652-0.513,4.821-1.998,6.204
			c-1.459,1.299-3.431,1.692-5.374,1.692c-1.729,0-3.565-0.367-4.756-1.071l0.813-3.242c0.838,0.507,2.294,1.043,3.833,1.043
			c1.947,0,3.433-1.099,3.433-3.638v-0.901h-0.055c-0.781,1.155-2.053,1.806-3.566,1.806c-3.267,0-5.589-2.766-5.589-6.74
			c0-4.428,2.753-7.248,5.994-7.248c1.811,0,2.946,0.816,3.62,1.946h0.055l0.134-1.636h3.567V88.267z M113.434,93.88
			c0-0.283-0.025-0.565-0.08-0.79c-0.297-1.129-1.082-1.89-2.216-1.89c-1.484,0-2.7,1.41-2.7,3.919c0,2.061,0.971,3.667,2.7,3.667
			c1.054,0,1.892-0.733,2.161-1.75c0.109-0.31,0.135-0.762,0.135-1.127V93.88z"/>
		<path d="M120.838,92.667c0-1.721-0.052-3.188-0.107-4.4h3.564l0.19,1.889h0.079c0.541-0.874,1.891-2.199,4.081-2.199
			c2.7,0,4.727,1.862,4.727,5.924v8.176h-4.106v-7.643c0-1.776-0.595-2.988-2.079-2.988c-1.137,0-1.81,0.817-2.08,1.606
			c-0.108,0.254-0.164,0.677-0.164,1.072v7.952h-4.104V92.667z"/>
	</g>
	<polygon fill="#00A99D" points="46.102,102.646 27.767,84.378 46.102,84.378 	"/>
	<polygon fill="#00A99D" points="120.666,70.295 135.188,85.601 120.666,85.601 	"/>
	<g>
		<path d="M58.536,114.297c0.269,0.176,0.733,0.316,1.129,0.316c0.814,0,1.304-0.536,1.304-1.325c0-0.724-0.42-1.165-1.037-1.631
			c-0.616-0.43-1.478-1.161-1.478-2.174c0-1.188,0.825-2.06,2.072-2.06c0.488,0,0.918,0.15,1.104,0.288l-0.22,0.77
			c-0.198-0.142-0.524-0.269-0.93-0.269c-0.769,0-1.129,0.584-1.129,1.117c0,0.78,0.407,1.083,1.152,1.615
			c0.942,0.663,1.361,1.387,1.361,2.26c0,1.348-0.954,2.197-2.198,2.197c-0.535,0-1.106-0.175-1.328-0.336L58.536,114.297z"/>
		<path d="M63.845,108.248c0.011,0.348-0.21,0.582-0.548,0.582c-0.291,0-0.511-0.231-0.511-0.582c0-0.35,0.231-0.583,0.523-0.583
			C63.634,107.666,63.845,107.898,63.845,108.248z M62.879,115.333v-5.63h0.896v5.63H62.879z"/>
		<path d="M65.021,111.156c0-0.663-0.034-1-0.048-1.453h0.78l0.047,0.674h0.023c0.245-0.453,0.698-0.767,1.292-0.767
			c0.779,0,1.36,0.582,1.36,1.941v3.783h-0.897v-3.631c0-0.663-0.127-1.339-0.778-1.339c-0.373,0-0.733,0.314-0.85,0.921
			c-0.023,0.138-0.035,0.313-0.035,0.499v3.548h-0.896V111.156z"/>
		<path d="M73.179,109.703c-0.013,0.396-0.049,0.896-0.049,1.758v3.152c0,1.478-0.185,2.035-0.558,2.441
			c-0.337,0.385-0.871,0.604-1.499,0.604c-0.479,0-0.945-0.115-1.235-0.278l0.209-0.696c0.223,0.115,0.594,0.242,1.048,0.242
			c0.71,0,1.151-0.44,1.151-1.72v-0.571h-0.024c-0.198,0.442-0.605,0.686-1.083,0.686c-1,0-1.652-1.126-1.652-2.779
			c0-2.068,0.943-2.932,1.768-2.932c0.604,0,0.885,0.396,1.047,0.734h0.023l0.046-0.639h0.807V109.703z M72.249,111.647
			c0-0.142-0.014-0.291-0.047-0.408c-0.104-0.384-0.303-0.862-0.813-0.862c-0.654,0-1,0.874-1,2.118c0,1.441,0.452,2.093,1,2.093
			c0.266,0,0.615-0.126,0.801-0.802c0.045-0.175,0.06-0.349,0.06-0.51V111.647z"/>
		<path d="M76.6,115.333l-0.059-0.594h-0.035c-0.243,0.432-0.638,0.687-1.115,0.687c-0.758,0-1.338-0.64-1.338-1.604
			c0-1.408,1.129-2.036,2.396-2.048V111.6c0-0.757-0.187-1.282-0.896-1.282c-0.351,0-0.665,0.117-0.932,0.292l-0.198-0.629
			c0.233-0.175,0.758-0.372,1.314-0.372c1.129,0,1.616,0.744,1.616,2.011v2.431c0,0.432,0,0.919,0.06,1.281H76.6V115.333z
			 M76.473,112.423c-0.467,0-1.548,0.082-1.548,1.304c0,0.733,0.372,1,0.687,1c0.395,0,0.734-0.289,0.84-0.849
			c0.022-0.104,0.022-0.222,0.022-0.314L76.473,112.423L76.473,112.423z"/>
		<path d="M78.604,111.459c0-0.859-0.035-1.359-0.047-1.757h0.802l0.048,0.721h0.024c0.3-0.604,0.742-0.814,1.186-0.814
			c0.979,0,1.629,1.047,1.629,2.896c0,2.082-0.859,2.919-1.745,2.919c-0.524,0-0.827-0.335-0.979-0.649h-0.024v2.791h-0.894V111.459
			z M79.497,113.262c0,0.176,0,0.339,0.036,0.467c0.176,0.802,0.582,0.952,0.826,0.952c0.743,0,0.978-1.023,0.978-2.162
			c0-1.165-0.278-2.142-0.989-2.142c-0.406,0-0.767,0.511-0.826,1.024c-0.024,0.139-0.024,0.279-0.024,0.432V113.262L79.497,113.262
			z"/>
		<path d="M86.717,112.519c0,2.174-1.015,2.905-1.875,2.905c-1.015,0-1.824-0.917-1.824-2.896c0-2.059,0.918-2.92,1.884-2.92
			C85.9,109.61,86.717,110.552,86.717,112.519z M83.911,112.519c0,0.93,0.163,2.196,0.978,2.196c0.768,0,0.919-1.324,0.919-2.196
			c0-0.861-0.151-2.188-0.942-2.188C84.063,110.33,83.911,111.657,83.911,112.519z"/>
		<path d="M87.705,111.156c0-0.477-0.034-1.034-0.045-1.453h0.799l0.049,0.884h0.023c0.184-0.536,0.663-0.977,1.187-0.977
			c0.072,0,0.127,0.012,0.187,0.012v0.92c-0.06-0.012-0.118-0.012-0.187-0.012c-0.569,0-0.99,0.522-1.082,1.174
			c-0.023,0.151-0.035,0.327-0.035,0.511v3.12h-0.895L87.705,111.156L87.705,111.156z"/>
		<path d="M91.069,112.6c0.012,1.722,0.686,2.094,1.338,2.094c0.384,0,0.708-0.093,0.93-0.222l0.14,0.663
			c-0.313,0.177-0.789,0.268-1.234,0.268c-1.35,0-2.045-1.105-2.045-2.826c0-1.826,0.767-2.968,1.895-2.968
			c1.15,0,1.606,1.209,1.606,2.49c0,0.21,0,0.361-0.013,0.5L91.069,112.6L91.069,112.6z M92.836,111.936
			c0.023-1.127-0.406-1.627-0.838-1.627c-0.581,0-0.885,0.86-0.918,1.627H92.836z"/>
	</g>
</g>
</svg>
