<?xml version="1.0" encoding="utf-8"?>
<!-- Generator: Adobe Illustrator 16.0.0, SVG Export Plug-In . SVG Version: 6.00 Build 0)  -->
<!DOCTYPE svg PUBLIC "-//W3C//DTD SVG 1.1//EN" "http://www.w3.org/Graphics/SVG/1.1/DTD/svg11.dtd">
<svg version="1.1" id="Layer_1" xmlns="http://www.w3.org/2000/svg" xmlns:xlink="http://www.w3.org/1999/xlink" x="0px" y="0px"
	 width="325.891px" height="159.418px" viewBox="270.609 157.167 325.891 159.418"
	 enable-background="new 270.609 157.167 325.891 159.418" xml:space="preserve">
<g>
	<g>
		<path fill="none" stroke="#FFFFFF" stroke-width="0.9295" stroke-miterlimit="10" stroke-dasharray="1.8085" d="M277.716,306.9
			c13.929,2.533,33.889-1.889,40.395-16.273c2.625-5.807,2.499-12.576-1.5-17.904c-5.054-6.74-12.693-2.85-12.497,5.283
			c0.323,13.363,14.27,25.799,26.187,28.143c6.887,1.355,13.975-0.754,17.706-7.057c5.959-10.061,0.259-18.285-3.576-27.85
			c-4.769-11.889-17.711-34.424-6.506-45.963c7.866-8.098,22.898-4.75,31.224,0.709c9.787,6.42,16.601,17.293,19.481,28.512
			c4.279,16.676-2.16,34.309,9.301,49.414c4.941,6.514,12.05,7.967,19.154,3.795c6.465-3.795,7.572-10.801,9.27-17.443
			c2.291-8.971,3.984-18.129,5.16-27.311c1.126-8.809-3.39-18.123-12.58-20.498c-2.388-0.617-5.315,0.121-6.439,2.314
			c-0.847,1.652-0.465,3.723,0.5,5.313c7.023,11.572,19.317,9.877,28.62,2.074c8.374-7.027,14.644-17.406,14.271-28.607
			c-0.119-3.609-0.71-9.129,3.998-10.305c3.458-0.865,6.736,2.555,8.066,5.348c2.987,6.283,5.815,17.096,15.018,10.244
			c2.339-1.74,3.999-4.227,5.516-6.713c1.8-2.945,3.648-6.283,6.193-8.654"/>
	</g>
	<g>
		<polygon fill="#D5E6DB" points="491.232,217.322 482.854,187.352 587.773,162.729 		"/>
		<polygon fill="#6F9AAC" points="586.307,163.295 491.232,217.322 505.649,200.654 		"/>
		<polygon fill="#FFFFFF" points="587.773,162.729 505.649,200.654 530.961,217.957 		"/>
		<polygon fill="#FFFFFF" points="482.854,187.352 458.523,174.366 587.773,162.729 		"/>
	</g>
</g>
</svg>
