<?xml version="1.0" encoding="utf-8"?>
<!-- Generator: Adobe Illustrator 16.0.0, SVG Export Plug-In . SVG Version: 6.00 Build 0)  -->
<!DOCTYPE svg PUBLIC "-//W3C//DTD SVG 1.1//EN" "http://www.w3.org/Graphics/SVG/1.1/DTD/svg11.dtd">
<svg version="1.1" id="Layer_1" xmlns="http://www.w3.org/2000/svg" xmlns:xlink="http://www.w3.org/1999/xlink" x="0px" y="0px"
	 width="363px" height="136px" viewBox="-53 113 363 136" enable-background="new -53 113 363 136" xml:space="preserve">
<g>
	<path fill="#232323" d="M125.447,188.26c0,0.777-0.631,1.41-1.409,1.41l0,0c-0.779,0-1.41-0.633-1.41-1.41v-34.855
		c0-0.779,0.631-1.41,1.41-1.41l0,0c0.777,0,1.409,0.631,1.409,1.41V188.26z"/>
	<path fill="#A81D1C" d="M275.837,160.197c0,0,14.061-0.498,21.92-2.752c0,0-5.744,11.527-6.963,12.396l7.494,10.266
		c0,0-13.248,2.375-21.162,2.111L275.837,160.197z"/>
	<path fill="#971815" d="M284.081,159.645c-4.607,0.424-8.244,0.553-8.244,0.553l1.289,22.021c2.064,0.068,4.494-0.043,6.955-0.244
		V159.645z"/>
	<g>
		<path fill="#232323" d="M-33.117,176.186v15.514c0,2.422,1.963,4.385,4.385,4.385h7.371v-24.281h-7.371
			C-31.154,171.803-33.117,173.766-33.117,176.186z"/>
		<path fill="#232323" d="M-42.994,183.943c0,2.301,3.926,4.168,8.769,4.168v-8.334C-39.068,179.777-42.994,181.641-42.994,183.943z
			"/>
		<ellipse fill="#232323" cx="-36.947" cy="172.116" rx="1.276" ry="7.179"/>
		<ellipse fill="#232323" cx="-36.947" cy="195.771" rx="1.277" ry="7.179"/>
		<path fill="#232323" d="M89.772,171.803c-0.426-10.789-6.333-17.775-11.326-18.424v30.564
			C78.447,183.943,90.198,182.592,89.772,171.803z"/>
		<path fill="#232323" d="M76.467,187.07c-0.328,0-0.642,0.059-0.937,0.156l-0.625-1.703c0.95-0.336,1.739-0.652,2.324-0.945
			v-31.176c0,0-9.682-1.523-17.72,20.459l-22.956-1.096c0,0-12.753,6.25-18.375,0.041l-1.327-5.195l-0.552,0.176
			c-2.679,0.846-4.835,3.256-5.954,4.736H7.519l-1.262-8.996h5.886c0,0,1.768-0.064,0.588-0.719
			c-1.178-0.654-13.097-3.209-18.991-3.012c-5.894,0.195-7.466,0.391-9.692,0.98s-5.96,2.75,2.423,2.75h3.921l1.262,8.996h-11.608
			v22.711h8.325v5.291c-3.872,0.604-6.171,2.975-6.293,3.104l1.06,1.004c0.025-0.025,1.965-2.023,5.233-2.619v1.051
			c-3.802,0.619-6.704,3.918-6.704,7.895c0,4.418,3.582,8.002,8,8.002c4.419,0,8.001-3.584,8.001-8.002
			c0-2.578-1.221-4.869-3.114-6.334l0.688-1.121c1.991,1.602,3.136,4.127,3.013,6.283l1.458,0.086
			c0.155-2.686-1.231-5.746-3.693-7.639l4.293-7h17.608c0,0,15.954-0.729,24.235-2.07c5.665-0.914,17.537-3.371,26.152-5.666
			l5.351,1.668c-0.081,0.268-0.125,0.547-0.125,0.84c0,1.621,1.314,2.936,2.935,2.936c1.62,0,2.933-1.314,2.933-2.936
			S78.087,187.07,76.467,187.07z M16.083,169.031l0.892,3.492h-5.223C12.766,171.305,14.297,169.779,16.083,169.031z
			 M-7.823,163.527H4.472l1.262,8.996H-6.562L-7.823,163.527z M-10.334,215.947c-2.755,0-4.988-2.234-4.988-4.988
			c0-2.756,2.232-4.988,4.988-4.988c2.755,0,4.988,2.232,4.988,4.988C-5.346,213.713-7.579,215.947-10.334,215.947z M-6.682,203.842
			c-0.663-0.34-1.378-0.592-2.132-0.736v-1.207c0.23,0.021,0.463,0.049,0.703,0.086c0.766,0.123,1.479,0.373,2.131,0.715
			L-6.682,203.842z M-5.211,201.445c-0.809-0.434-1.701-0.748-2.669-0.902c-0.318-0.051-0.628-0.086-0.934-0.111v-5.197h7.411
			L-5.211,201.445z M73.859,188.666l-4.583-1.432c1.942-0.531,3.688-1.051,5.12-1.535l0.642,1.746
			C74.534,187.727,74.123,188.152,73.859,188.666z M76.467,191.723c-0.947,0-1.716-0.768-1.716-1.717
			c0-0.947,0.769-1.715,1.716-1.715c0.947,0,1.715,0.768,1.715,1.715C78.183,190.955,77.414,191.723,76.467,191.723z"/>
		<circle fill="#232323" cx="76.467" cy="190.006" r="0.842"/>
		<circle fill="#232323" cx="-10.334" cy="210.958" r="2.466"/>
	</g>
	<path fill="#D02627" d="M125.031,156.23c0,0,46.413,0.387,61.685,0.863c64.24,1.998,93.639-0.863,93.639-0.863v29.203
		c0,0-24.543,2.422-73.916,0c-19.32-0.951-81.407,0-81.407,0V156.23z"/>
	
		<rect x="104.956" y="146.832" transform="matrix(0.1545 0.988 -0.988 0.1545 252.7684 35.3684)" fill="#232323" width="1.526" height="37.082"/>
	
		<rect x="87.178" y="175.528" transform="matrix(0.988 0.1545 -0.1545 0.988 28.5128 -14.2195)" fill="#232323" width="37.082" height="1.524"/>
	<g>
		<g>
			<path fill="#FFFFFF" d="M166.411,168.963c0.559-0.014,0.84-0.02,1.398-0.033c1.361,1.986,2.037,2.98,3.398,4.967
				c-0.049-2.018-0.072-3.025-0.121-5.045c0.584-0.014,0.877-0.021,1.461-0.035c0.074,3.066,0.109,4.6,0.184,7.664
				c-0.561,0.014-0.842,0.02-1.402,0.033c-1.359-1.98-2.039-2.969-3.398-4.949c0.049,2.012,0.072,3.016,0.121,5.027
				c-0.584,0.014-0.873,0.021-1.457,0.035C166.519,173.563,166.483,172.029,166.411,168.963z"/>
			<path fill="#FFFFFF" d="M174.245,168.773c0.586-0.016,0.881-0.02,1.467-0.033c0.047,1.982,0.07,2.975,0.117,4.957
				c0.01,0.426,0.057,0.725,0.135,0.9c0.078,0.174,0.205,0.313,0.379,0.414c0.176,0.102,0.383,0.15,0.625,0.145
				c0.258-0.006,0.479-0.068,0.66-0.191c0.184-0.121,0.311-0.277,0.377-0.461c0.068-0.184,0.098-0.533,0.084-1.047
				c-0.047-1.908-0.072-2.863-0.117-4.773c0.584-0.014,0.879-0.02,1.465-0.035c0.043,1.828,0.066,2.744,0.109,4.572
				c0.02,0.771-0.012,1.305-0.09,1.605c-0.08,0.301-0.242,0.596-0.48,0.879s-0.512,0.496-0.828,0.637s-0.686,0.217-1.111,0.227
				c-0.555,0.014-1.043-0.102-1.461-0.346c-0.418-0.246-0.721-0.561-0.908-0.939c-0.186-0.379-0.289-1.025-0.311-1.939
				C174.312,171.516,174.288,170.602,174.245,168.773z"/>
			<path fill="#FFFFFF" d="M181.313,176.271c-0.074-3.064-0.111-4.598-0.186-7.664c0.482-0.012,0.725-0.016,1.207-0.029
				c0.697-0.016,1.211,0.021,1.535,0.102c0.459,0.113,0.834,0.326,1.113,0.65c0.279,0.322,0.424,0.707,0.434,1.156
				c0.008,0.291-0.051,0.557-0.168,0.797c-0.117,0.242-0.584,0.678-0.582,0.684c0.01,0.072,0.818,0.475,1.043,0.797
				c0.223,0.324,0.338,0.711,0.348,1.158c0.01,0.432-0.09,0.826-0.303,1.186c-0.215,0.359-0.496,0.631-0.844,0.814
				c-0.346,0.184-0.83,0.285-1.449,0.301C182.603,176.244,182.173,176.252,181.313,176.271z M182.622,169.967
				c0.014,0.645,0.021,0.967,0.039,1.613c0.127-0.004,0.191-0.006,0.32-0.01c0.355-0.008,0.617-0.088,0.785-0.24
				c0.17-0.154,0.25-0.359,0.244-0.617c-0.006-0.24-0.092-0.43-0.26-0.566c-0.168-0.135-0.418-0.197-0.752-0.188
				C182.849,169.961,182.772,169.963,182.622,169.967z M182.692,172.885c0.018,0.785,0.027,1.176,0.047,1.963
				c0.146-0.004,0.219-0.006,0.365-0.01c0.607-0.014,1.012-0.1,1.219-0.258c0.209-0.158,0.307-0.383,0.301-0.676
				c-0.008-0.33-0.137-0.586-0.389-0.77c-0.252-0.186-0.664-0.273-1.24-0.26C182.874,172.877,182.812,172.881,182.692,172.885z"/>
			<path fill="#FFFFFF" d="M187.419,168.457c0.617-0.016,0.928-0.021,1.545-0.037c0.848-0.02,1.451,0.041,1.814,0.184
				c0.361,0.143,0.658,0.387,0.885,0.732s0.346,0.758,0.357,1.236c0.012,0.504-0.1,0.926-0.332,1.271
				c-0.232,0.344-0.59,0.611-1.072,0.795c0.76,1.346,1.139,2.02,1.898,3.365c-0.639,0.016-0.957,0.023-1.596,0.039
				c-0.721-1.281-1.082-1.922-1.803-3.205c-0.053,0.002-0.078,0-0.133,0.002c0.033,1.299,0.049,1.949,0.08,3.246
				c-0.584,0.016-0.877,0.021-1.463,0.035C187.526,173.057,187.493,171.521,187.419,168.457z M188.952,171.416
				c0.182-0.004,0.271-0.004,0.455-0.01c0.463-0.01,0.781-0.078,0.953-0.205s0.252-0.332,0.246-0.615
				c-0.004-0.166-0.047-0.311-0.137-0.432s-0.209-0.207-0.355-0.258s-0.416-0.07-0.803-0.061c-0.16,0.004-0.24,0.002-0.4,0.006
				C188.927,170.473,188.937,170.787,188.952,171.416z"/>
			<path fill="#FFFFFF" d="M193.405,168.311c0.578-0.014,0.867-0.018,1.445-0.031c0.074,3.064,0.111,4.598,0.188,7.664
				c-0.58,0.014-0.871,0.02-1.449,0.033C193.515,172.91,193.479,171.377,193.405,168.311z"/>
			<path fill="#FFFFFF" d="M196.497,168.238c0.561-0.014,0.84-0.021,1.4-0.035c1.361,1.986,2.041,2.979,3.402,4.965
				c-0.049-2.018-0.074-3.027-0.123-5.045c0.584-0.014,0.877-0.02,1.461-0.033c0.074,3.066,0.111,4.6,0.186,7.666
				c-0.563,0.014-0.846,0.02-1.406,0.033c-1.359-1.979-2.035-2.971-3.395-4.949c0.051,2.012,0.07,3.018,0.119,5.027
				c-0.584,0.016-0.877,0.021-1.461,0.035C196.606,172.838,196.571,171.305,196.497,168.238z"/>
			<path fill="#FFFFFF" d="M204.397,168.045c0.59-0.014,0.885-0.02,1.475-0.035c0.025,1.057,0.039,1.586,0.064,2.643
				c0.807-1.076,1.211-1.613,2.018-2.689c0.701-0.018,1.051-0.027,1.752-0.045c-1.037,1.395-1.557,2.092-2.594,3.486
				c1.215,1.668,1.822,2.504,3.039,4.174c-0.693,0.016-1.039,0.023-1.732,0.041c-0.977-1.34-1.465-2.01-2.443-3.348
				c0.033,1.361,0.049,2.043,0.08,3.404c-0.59,0.016-0.885,0.021-1.475,0.037C204.507,172.646,204.472,171.111,204.397,168.045z"/>
			<path fill="#FFFFFF" d="M213.995,167.816c0.691-0.018,1.039-0.025,1.73-0.043c1.115-0.025,1.945,0.094,2.492,0.355
				c0.549,0.264,1.004,0.703,1.371,1.316c0.365,0.613,0.559,1.334,0.578,2.164c0.014,0.59-0.072,1.137-0.256,1.637
				c-0.184,0.498-0.443,0.916-0.781,1.25c-0.338,0.336-0.705,0.568-1.105,0.703c-0.398,0.135-1.096,0.215-2.088,0.238
				c-0.703,0.018-1.055,0.027-1.756,0.045C214.106,172.416,214.069,170.881,213.995,167.816z M215.479,169.188
				c0.047,1.934,0.07,2.902,0.117,4.836c0.271-0.008,0.406-0.008,0.678-0.016c0.666-0.016,1.148-0.105,1.445-0.266
				s0.535-0.424,0.717-0.789c0.184-0.367,0.27-0.814,0.258-1.344c-0.02-0.813-0.262-1.441-0.729-1.879
				c-0.42-0.393-1.084-0.576-1.99-0.555C215.778,169.182,215.677,169.182,215.479,169.188z"/>
			<path fill="#FFFFFF" d="M221.468,167.635c1.674-0.039,2.51-0.061,4.184-0.1c0.014,0.57,0.021,0.855,0.035,1.428
				c-1.094,0.025-1.641,0.039-2.734,0.066c0.012,0.555,0.018,0.832,0.031,1.387c1.094-0.027,1.641-0.041,2.736-0.066
				c0.014,0.561,0.021,0.84,0.035,1.4c-1.096,0.027-1.641,0.041-2.736,0.066c0.02,0.807,0.029,1.211,0.049,2.018
				c1.094-0.025,1.641-0.039,2.736-0.066c0.014,0.574,0.02,0.857,0.033,1.432c-1.674,0.041-2.512,0.061-4.186,0.1
				C221.579,172.234,221.542,170.701,221.468,167.635z"/>
			<path fill="#FFFFFF" d="M231.063,168.447c-0.422,0.391-0.637,0.586-1.059,0.979c-0.393-0.52-0.785-0.771-1.18-0.762
				c-0.191,0.004-0.348,0.059-0.467,0.164c-0.119,0.104-0.178,0.221-0.174,0.35s0.049,0.252,0.139,0.363
				c0.121,0.15,0.488,0.473,1.096,0.959c0.564,0.451,0.912,0.736,1.033,0.855c0.301,0.291,0.52,0.572,0.648,0.842
				c0.131,0.27,0.199,0.564,0.207,0.889c0.016,0.629-0.189,1.154-0.613,1.574c-0.426,0.42-0.986,0.639-1.686,0.656
				c-0.547,0.014-1.027-0.109-1.438-0.367c-0.412-0.258-0.768-0.67-1.07-1.236c0.484-0.307,0.723-0.463,1.207-0.77
				c0.385,0.668,0.82,0.996,1.301,0.984c0.25-0.006,0.459-0.084,0.625-0.234c0.168-0.15,0.246-0.318,0.242-0.51
				c-0.004-0.174-0.072-0.346-0.205-0.518c-0.133-0.17-0.422-0.428-0.867-0.775c-0.854-0.66-1.404-1.176-1.658-1.539
				c-0.252-0.363-0.385-0.727-0.393-1.096c-0.012-0.531,0.178-0.992,0.574-1.383c0.395-0.391,0.893-0.594,1.486-0.607
				c0.383-0.01,0.752,0.07,1.104,0.238C230.267,167.674,230.649,167.988,231.063,168.447z"/>
			<path fill="#FFFFFF" d="M232.46,167.371c0.578-0.014,0.869-0.021,1.447-0.037c0.072,3.066,0.111,4.602,0.184,7.666
				c-0.578,0.014-0.869,0.021-1.449,0.035C232.569,171.971,232.532,170.436,232.46,167.371z"/>
			<path fill="#FFFFFF" d="M242.655,168.373c-0.4,0.418-0.602,0.627-1.004,1.043c-0.666-0.672-1.434-0.996-2.299-0.975
				c-0.756,0.018-1.379,0.283-1.877,0.797c-0.498,0.512-0.736,1.125-0.721,1.84c0.02,0.74,0.299,1.359,0.84,1.859
				c0.541,0.502,1.199,0.746,1.975,0.727c0.504-0.012,0.926-0.129,1.268-0.35c0.34-0.221,0.609-0.559,0.811-1.016
				c-0.889,0.021-1.332,0.035-2.221,0.057c-0.014-0.549-0.018-0.824-0.031-1.373c1.543-0.037,2.313-0.055,3.854-0.092
				c0.008,0.129,0.014,0.191,0.02,0.32c0.018,0.672-0.141,1.311-0.473,1.92c-0.334,0.609-0.771,1.08-1.316,1.408
				c-0.545,0.33-1.189,0.502-1.934,0.52c-0.795,0.02-1.51-0.133-2.141-0.463c-0.633-0.33-1.137-0.813-1.516-1.443
				c-0.379-0.629-0.576-1.314-0.594-2.055c-0.025-1.016,0.293-1.906,0.943-2.674c0.773-0.91,1.797-1.381,3.072-1.412
				c0.666-0.016,1.291,0.092,1.879,0.324C241.685,167.533,242.175,167.877,242.655,168.373z"/>
			<path fill="#FFFFFF" d="M244.515,167.08c0.561-0.014,0.84-0.021,1.4-0.035c1.359,1.986,2.041,2.98,3.402,4.967
				c-0.049-2.018-0.074-3.027-0.123-5.045c0.584-0.016,0.875-0.021,1.459-0.035c0.072,3.066,0.109,4.6,0.184,7.664
				c-0.563,0.014-0.842,0.02-1.404,0.033c-1.357-1.979-2.037-2.969-3.395-4.947c0.049,2.012,0.07,3.018,0.119,5.027
				c-0.584,0.014-0.875,0.02-1.459,0.035C244.624,171.678,244.587,170.146,244.515,167.08z"/>
		</g>
	</g>
</g>
</svg>
