<?xml version="1.0" encoding="utf-8"?>
<!-- Generator: Adobe Illustrator 16.0.0, SVG Export Plug-In . SVG Version: 6.00 Build 0)  -->
<!DOCTYPE svg PUBLIC "-//W3C//DTD SVG 1.1//EN" "http://www.w3.org/Graphics/SVG/1.1/DTD/svg11.dtd">
<svg version="1.1" xmlns="http://www.w3.org/2000/svg" xmlns:xlink="http://www.w3.org/1999/xlink" x="0px" y="0px" width="800px"
	 height="385px" viewBox="0 0 800 385" enable-background="new 0 0 800 385" xml:space="preserve">
<g id="Destop">
	<g>
		<g>
			<g>
				<g>
					<linearGradient id="SVGID_1_" gradientUnits="userSpaceOnUse" x1="308.1318" y1="370.3613" x2="450.9713" y2="370.3613">
						<stop  offset="0.0061" style="stop-color:#58595B"/>
						<stop  offset="0.2803" style="stop-color:#757679"/>
						<stop  offset="0.5091" style="stop-color:#88898D"/>
						<stop  offset="1" style="stop-color:#58595B"/>
					</linearGradient>
					<path fill="url(#SVGID_1_)" d="M309,368v-0.277c0,0.048,0,0.09,0,0.136v0.05c0,2.618,3.382,5.092,14.507,5.092
						c21.53,0,44.849,0,53.381,0c2.159,0,3.372,0,3.372,0c8.534,0,31.854,0,53.384,0c11.123,0,15.013-1,15.046-5h-1.034l0,0H309z"/>
					<linearGradient id="SVGID_2_" gradientUnits="userSpaceOnUse" x1="377.8247" y1="317.3574" x2="377.8247" y2="379.3245">
						<stop  offset="0.0848" style="stop-color:#6D6F73"/>
						<stop  offset="0.127" style="stop-color:#97999C"/>
						<stop  offset="0.1841" style="stop-color:#CCCDCE"/>
						<stop  offset="0.2121" style="stop-color:#E0E1E2"/>
						<stop  offset="0.3152" style="stop-color:#A7A9AC"/>
						<stop  offset="0.3893" style="stop-color:#868789"/>
						<stop  offset="0.4606" style="stop-color:#636363"/>
						<stop  offset="0.5264" style="stop-color:#6E6F6F"/>
						<stop  offset="0.6452" style="stop-color:#8B8D8F"/>
						<stop  offset="0.7394" style="stop-color:#A6AAAD"/>
					</linearGradient>
					<path fill="url(#SVGID_2_)" d="M434.393,353.057C424.465,342.939,424.09,321,424.09,321h-44.578h-3.371h-44.58
						c0,0-0.374,21.939-10.302,32.057C311.331,363.169,295.784,372,322.757,372c21.53,0,44.849,0,53.383,0c2.157,0,3.371,0,3.371,0
						c8.535,0,31.854,0,53.383,0C459.865,372,444.318,363.169,434.393,353.057z"/>
					<radialGradient id="SVGID_3_" cx="446.1924" cy="396.457" r="53.5825" gradientUnits="userSpaceOnUse">
						<stop  offset="0" style="stop-color:#FFFFFF"/>
						<stop  offset="1" style="stop-color:#FFFFFF;stop-opacity:0"/>
					</radialGradient>
					<path fill="url(#SVGID_3_)" d="M386.693,372c5.508-12,23.098-22.613,44.982-24.758c1.004,1.703,2.149,3.515,3.467,4.858
						c9.754,9.936,24.926,19.899-0.119,19.899H386.693z"/>
					
						<radialGradient id="SVGID_4_" cx="555.9688" cy="396.457" r="53.5825" gradientTransform="matrix(-1 0 0 1 866.9258 0)" gradientUnits="userSpaceOnUse">
						<stop  offset="0" style="stop-color:#FFFFFF"/>
						<stop  offset="1" style="stop-color:#FFFFFF;stop-opacity:0"/>
					</radialGradient>
					<path fill="url(#SVGID_4_)" d="M370.458,372c-5.507-12-23.101-22.613-44.986-24.758c-1.002,1.703-2.149,3.515-3.467,4.858
						c-9.752,9.936-24.926,19.899,0.123,19.899H370.458z"/>
					<linearGradient id="SVGID_5_" gradientUnits="userSpaceOnUse" x1="322.1279" y1="371.0293" x2="433.6436" y2="371.0293">
						<stop  offset="0.0061" style="stop-color:#FFFFFF;stop-opacity:0"/>
						<stop  offset="0.5091" style="stop-color:#FFFFFF"/>
						<stop  offset="1" style="stop-color:#FFFFFF;stop-opacity:0"/>
					</linearGradient>
					<path fill="url(#SVGID_5_)" d="M322.128,371.029c9.291-0.156,18.584-0.228,27.878-0.288l27.878-0.086l27.878,0.084
						l13.939,0.104l13.942,0.187l-13.942,0.183l-13.939,0.103l-27.878,0.09l-27.878-0.09
						C340.712,371.255,331.419,371.184,322.128,371.029z"/>
					<linearGradient id="SVGID_6_" gradientUnits="userSpaceOnUse" x1="142.0581" y1="315.4307" x2="635.6646" y2="283.0754">
						<stop  offset="0" style="stop-color:#78797D"/>
						<stop  offset="0.3173" style="stop-color:#737478"/>
						<stop  offset="0.4909" style="stop-color:#6D6F73"/>
						<stop  offset="1" style="stop-color:#6D6F73"/>
					</linearGradient>
					<path fill="url(#SVGID_6_)" d="M150,306.596c0,7.448,6.661,14.404,14.11,14.404h209.033h7.117h209.034
						c7.446,0,14.706-6.956,14.706-14.404V280H150V306.596z"/>
					<path fill="#231F20" d="M589.294,11H380.26h-7.117H164.11C156.661,11,150,15.193,150,22.64V280h454V22.64
						C604,15.193,596.74,11,589.294,11z M583,261H169V28h414V261z"/>
					<linearGradient id="SVGID_7_" gradientUnits="userSpaceOnUse" x1="142.1572" y1="315.4229" x2="635.6582" y2="283.0745">
						<stop  offset="0" style="stop-color:#898A8F"/>
						<stop  offset="0.0499" style="stop-color:#909196"/>
						<stop  offset="0.3137" style="stop-color:#B1B2B6"/>
						<stop  offset="0.5663" style="stop-color:#C8CACD"/>
						<stop  offset="0.801" style="stop-color:#D6D8DB"/>
						<stop  offset="1" style="stop-color:#DBDDE0"/>
					</linearGradient>
					<path fill="url(#SVGID_7_)" d="M150,305.098c0,7.447,6.661,15.902,14.11,15.902h209.033h7.117h209.034
						c7.446,0,14.706-8.455,14.706-15.902V280H150V305.098z"/>
				</g>
			</g>
			<rect x="169" y="54" fill-rule="evenodd" clip-rule="evenodd" fill="#00A79D" width="414" height="79"/>
			<g>
				<circle fill-rule="evenodd" clip-rule="evenodd" fill="#FFFFFF" cx="234.872" cy="92.523" r="23.757"/>
				
					<circle fill-rule="evenodd" clip-rule="evenodd" fill="none" stroke="#FFFFFF" stroke-width="0.9427" cx="235.012" cy="92.762" r="27.862"/>
			</g>
			<g>
				<rect x="305" y="70" fill-rule="evenodd" clip-rule="evenodd" fill="#FFFFFF" width="36" height="11"/>
				<rect x="345" y="70" fill-rule="evenodd" clip-rule="evenodd" fill="#FFFFFF" width="215" height="11"/>
			</g>
			<rect x="305" y="92" fill-rule="evenodd" clip-rule="evenodd" fill="#D6F99D" width="255" height="4"/>
			<rect x="305" y="107" fill-rule="evenodd" clip-rule="evenodd" fill="#D6F99D" width="255" height="3"/>
			<rect x="244" y="141" fill="#4D4D4D" width="54" height="108"/>
			<rect x="181" y="141" fill="#4D4D4D" width="54" height="108"/>
			<rect x="315" y="147" fill="#D34658" width="81" height="49"/>
			<rect x="402" y="147" fill="#008B83" width="82" height="49"/>
			<rect x="491" y="147" fill="#D34658" width="81" height="49"/>
			<g>
				<rect x="315" y="202" fill="#666666" width="81" height="4"/>
				<rect x="315" y="209" fill="#999999" width="55" height="3"/>
				<rect x="315" y="215" fill="#999999" width="66" height="4"/>
			</g>
			<g>
				<rect x="402" y="209" fill="#999999" width="71" height="3"/>
				<rect x="402" y="215" fill="#999999" width="56" height="4"/>
				<rect x="402" y="202" fill="#666666" width="82" height="4"/>
			</g>
			<g>
				<rect x="491" y="209" fill="#999999" width="55" height="3"/>
				<rect x="491" y="215" fill="#999999" width="65" height="4"/>
				<rect x="491" y="202" fill="#666666" width="81" height="4"/>
			</g>
			<rect x="315" y="225" fill="#999999" width="54" height="2"/>
			<rect x="315" y="230" fill="#999999" width="80" height="3"/>
			<rect x="315" y="241" fill="#999999" width="80" height="3"/>
			<rect x="315" y="246" fill="#999999" width="54" height="3"/>
			<rect x="315" y="251" fill="#999999" width="80" height="3"/>
			<rect x="402" y="225" fill="#999999" width="55" height="2"/>
			<rect x="402" y="230" fill="#999999" width="80" height="3"/>
			<rect x="402" y="241" fill="#999999" width="80" height="3"/>
			<rect x="402" y="246" fill="#999999" width="55" height="3"/>
			<rect x="402" y="251" fill="#999999" width="80" height="3"/>
			<rect x="491" y="226" fill="#999999" width="54" height="2"/>
			<rect x="491" y="232" fill="#999999" width="78" height="2"/>
			<rect x="491" y="242" fill="#999999" width="78" height="3"/>
			<rect x="491" y="247" fill="#999999" width="54" height="3"/>
			<rect x="491" y="252" fill="#999999" width="78" height="3"/>
			<polygon opacity="0.3" fill="#FFFFFF" points="170.756,27 583,27 583,260.97 			"/>
		</g>
	</g>
</g>
<g id="Ipad">
	<g>
		<rect x="45" y="171" fill="#FFFFFF" width="134" height="179"/>
		<g>
			<path fill="#231F20" d="M196.087,160.856c0-4.816-3.903-8.721-8.72-8.721H38.315c-4.817,0-8.721,3.905-8.721,8.721v198.631
				c0,4.817,3.903,8.722,8.721,8.722h149.052c4.816,0,8.72-3.904,8.72-8.722V160.856z M178.949,349.847H46.123V171.11h132.826
				V349.847z"/>
			<linearGradient id="SVGID_8_" gradientUnits="userSpaceOnUse" x1="40.4434" y1="259.4678" x2="196.3218" y2="259.4678">
				<stop  offset="0" style="stop-color:#FFFFFF;stop-opacity:0"/>
				<stop  offset="1" style="stop-color:#FFFFFF"/>
			</linearGradient>
			<path opacity="0.6" fill="url(#SVGID_8_)" d="M139.722,151.501H188c0,0,9.252,0.091,8.245,12.339l-0.279,195.31
				c0,0,0.55,7.313-8.914,8.284c-9.751-0.54-146.608,0-146.608,0"/>
		</g>
		<g>
			<rect x="47" y="185" fill-rule="evenodd" clip-rule="evenodd" fill="#00A79D" width="132" height="63"/>
			<g>
				<ellipse fill-rule="evenodd" clip-rule="evenodd" fill="#FFFFFF" cx="72.333" cy="212.653" rx="18.284" ry="18.579"/>
				<path fill-rule="evenodd" clip-rule="evenodd" fill="none" stroke="#FFFFFF" stroke-width="0.7313" d="M93.885,212.84
					c0,12.034-9.602,21.787-21.442,21.787c-11.846,0-21.444-9.753-21.444-21.787c0-12.031,9.599-21.787,21.444-21.787
					C84.283,191.053,93.885,200.809,93.885,212.84z"/>
			</g>
			<g>
				<rect x="105" y="201" fill-rule="evenodd" clip-rule="evenodd" fill="#FFFFFF" width="8" height="7"/>
				<rect x="115" y="201" fill-rule="evenodd" clip-rule="evenodd" fill="#FFFFFF" width="48" height="7"/>
			</g>
			<rect x="104.156" y="216" fill-rule="evenodd" clip-rule="evenodd" fill="#D6F99D" width="57.9" height="0"/>
			<rect x="105" y="223" fill-rule="evenodd" clip-rule="evenodd" fill="#D6F99D" width="58" height="3"/>
		</g>
		<rect x="53" y="255" fill="#D34658" width="56" height="35"/>
		<rect x="53" y="321" fill="#D34658" width="56" height="29"/>
		<g>
			<rect x="53" y="294" fill="#666666" width="56" height="4"/>
			<rect x="53" y="300" fill="#999999" width="39" height="2"/>
			<rect x="53" y="304" fill="#999999" width="44" height="2"/>
		</g>
		<rect x="53" y="310" fill="#999999" width="39" height="2"/>
		<rect x="53" y="314" fill="#999999" width="55" height="1"/>
		<rect x="53.364" y="327" fill="#999999" width="38.29" height="0"/>
		<rect x="115" y="256" fill="#008B83" width="55" height="36"/>
		<g>
			<rect x="115" y="301" fill="#999999" width="48" height="3"/>
			<rect x="115" y="305" fill="#999999" width="38" height="2"/>
			<rect x="115" y="297" fill="#666666" width="55" height="2"/>
		</g>
		<rect x="115" y="312" fill="#999999" width="38" height="2"/>
		<rect x="115" y="315" fill="#999999" width="54" height="1"/>
		<rect x="115" y="322" fill="#999999" width="54" height="5"/>
		<rect x="114.262" y="328" fill="#999999" width="38.289" height="0"/>
		<rect x="115" y="329" fill="#999999" width="54" height="1"/>
		<g>
			<rect x="115" y="343" fill="#999999" width="48" height="2"/>
			<rect x="115" y="346" fill="#999999" width="38" height="4"/>
			<rect x="115" y="337" fill="#666666" width="55" height="2"/>
		</g>
		<polygon opacity="0.3" fill="#FFFFFF" points="179,349.919 179,171 76.957,171 		"/>
	</g>
</g>
<g id="Laptop">
	<g>
		<g>
			<path d="M745.063,352.729c0,4.877-2.942,8.832-6.573,8.832H465.056c-3.631,0-6.574-3.955-6.574-8.832V177.308
				c0-4.875,2.943-8.828,6.574-8.828H738.49c3.631,0,6.573,3.953,6.573,8.828V352.729z"/>
			<rect x="469.907" y="179.078" fill="#FFFFFF" width="264.514" height="163.066"/>
			<g>
				<g>
					<path fill="#5F6767" d="M409.674,364.225c0,0-2.387,4.439,14.557,8.143h354.648c0,0,11.864-0.761,14.99-6.354l0.021-3.063
						L409.674,364.225z"/>
					<linearGradient id="SVGID_9_" gradientUnits="userSpaceOnUse" x1="409.5078" y1="360.793" x2="794.0381" y2="360.793">
						<stop  offset="0" style="stop-color:#999C9D"/>
						<stop  offset="9.591131e-004" style="stop-color:#A5A7A9"/>
						<stop  offset="0.0037" style="stop-color:#C2C3C5"/>
						<stop  offset="0.0067" style="stop-color:#D9D8DA"/>
						<stop  offset="0.0099" style="stop-color:#E9E7EA"/>
						<stop  offset="0.0134" style="stop-color:#F2F0F3"/>
						<stop  offset="0.0183" style="stop-color:#F5F3F6"/>
						<stop  offset="0.0488" style="stop-color:#DFE1E3"/>
						<stop  offset="0.189" style="stop-color:#D1D1D1"/>
						<stop  offset="0.5061" style="stop-color:#E3E5E7"/>
						<stop  offset="0.872" style="stop-color:#D1D1D1"/>
						<stop  offset="0.9512" style="stop-color:#DFE1E3"/>
						<stop  offset="0.9878" style="stop-color:#F5F3F6"/>
						<stop  offset="1" style="stop-color:#999C9D"/>
					</linearGradient>
					<path fill="url(#SVGID_9_)" d="M409.757,355.259h384.258v9.868c0,0,0.574,1.317-3.948,0.988H413.375
						c0,0-3.539,0.988-3.867-1.316L409.757,355.259z"/>
					<path fill="#5F6767" d="M776.165,361.019c0,0.384-0.255,0.693-0.568,0.693h-13.076c-0.314,0-0.568-0.31-0.568-0.693l0,0
						c0-0.384,0.254-0.694,0.568-0.694h13.076C775.91,360.324,776.165,360.635,776.165,361.019L776.165,361.019z"/>
				</g>
				<linearGradient id="SVGID_10_" gradientUnits="userSpaceOnUse" x1="601.7832" y1="360.7861" x2="601.7832" y2="355.3389">
					<stop  offset="0.3415" style="stop-color:#676B6C"/>
					<stop  offset="0.3611" style="stop-color:#707475"/>
					<stop  offset="0.4574" style="stop-color:#989B9C"/>
					<stop  offset="0.5524" style="stop-color:#B7B9BB"/>
					<stop  offset="0.6444" style="stop-color:#CDCFD1"/>
					<stop  offset="0.7321" style="stop-color:#DADDDE"/>
					<stop  offset="0.811" style="stop-color:#DFE1E3"/>
					<stop  offset="0.9817" style="stop-color:#E3E5E7"/>
				</linearGradient>
				<path fill="url(#SVGID_10_)" d="M575.786,355.339c0,0-1.48,4.935,3.454,5.429h44.577c0,0,4.743,0.615,4.112-5.264
					L575.786,355.339z"/>
				<g>
					<linearGradient id="SVGID_11_" gradientUnits="userSpaceOnUse" x1="576.8418" y1="360.3066" x2="576.8418" y2="355.2148">
						<stop  offset="0.0244" style="stop-color:#5F6767"/>
						<stop  offset="0.4756" style="stop-color:#676B6C"/>
						<stop  offset="0.5137" style="stop-color:#717576"/>
						<stop  offset="0.6192" style="stop-color:#878A8B"/>
						<stop  offset="0.7202" style="stop-color:#949899"/>
						<stop  offset="0.811" style="stop-color:#999C9D"/>
					</linearGradient>
					<path fill="url(#SVGID_11_)" d="M576.033,355.333h0.031l0.018-0.115l-0.543-0.003c0,0-1.343,4.285,2.812,5.092
						C574.799,359.269,576.033,355.333,576.033,355.333z"/>
					<linearGradient id="SVGID_12_" gradientUnits="userSpaceOnUse" x1="603.2822" y1="360.5566" x2="603.2822" y2="355.4893">
						<stop  offset="0.0244" style="stop-color:#5F6767"/>
						<stop  offset="0.4756" style="stop-color:#676B6C"/>
						<stop  offset="0.5137" style="stop-color:#717576"/>
						<stop  offset="0.6192" style="stop-color:#878A8B"/>
						<stop  offset="0.7202" style="stop-color:#949899"/>
						<stop  offset="0.811" style="stop-color:#999C9D"/>
					</linearGradient>
					<path fill="url(#SVGID_12_)" d="M628.177,355.491l-0.48-0.002v0.118c0.348,5.554-4.126,4.797-4.126,4.797h-44.577
						c-0.229-0.022-0.439-0.056-0.643-0.098c0.334,0.1,0.709,0.175,1.136,0.214h44.578
						C624.064,360.521,628.67,361.31,628.177,355.491z"/>
					<linearGradient id="SVGID_13_" gradientUnits="userSpaceOnUse" x1="627.6934" y1="355.6074" x2="627.6934" y2="355.4893">
						<stop  offset="0.0244" style="stop-color:#5F6767"/>
						<stop  offset="0.4756" style="stop-color:#676B6C"/>
						<stop  offset="0.5137" style="stop-color:#717576"/>
						<stop  offset="0.6192" style="stop-color:#878A8B"/>
						<stop  offset="0.7202" style="stop-color:#949899"/>
						<stop  offset="0.811" style="stop-color:#999C9D"/>
					</linearGradient>
					<path fill="url(#SVGID_13_)" d="M627.696,355.607v-0.118h-0.005C627.692,355.529,627.692,355.566,627.696,355.607z"/>
				</g>
			</g>
		</g>
		<rect x="470" y="192" fill-rule="evenodd" clip-rule="evenodd" fill="#00A79D" width="263" height="51"/>
		<g>
			<circle fill-rule="evenodd" clip-rule="evenodd" fill="#FFFFFF" cx="511.721" cy="216.951" r="15.225"/>
			
				<circle fill-rule="evenodd" clip-rule="evenodd" fill="none" stroke="#FFFFFF" stroke-width="0.6041" cx="511.812" cy="217.104" r="17.855"/>
		</g>
		<g>
			<rect x="556" y="202" fill-rule="evenodd" clip-rule="evenodd" fill="#FFFFFF" width="23" height="7"/>
			<rect x="583" y="202" fill-rule="evenodd" clip-rule="evenodd" fill="#FFFFFF" width="137" height="7"/>
		</g>
		<rect x="556" y="217" fill-rule="evenodd" clip-rule="evenodd" fill="#D6F99D" width="164" height="1"/>
		<rect x="556" y="226" fill-rule="evenodd" clip-rule="evenodd" fill="#D6F99D" width="164" height="3"/>
		<rect x="475" y="249" fill="#4D4D4D" width="36" height="68"/>
		<rect x="517" y="249" fill="#4D4D4D" width="35" height="68"/>
		<rect x="562" y="251" fill="#D34658" width="54" height="33"/>
		<rect x="619" y="251" fill="#008B83" width="53" height="33"/>
		<rect x="675" y="251" fill="#D34658" width="52" height="33"/>
		<g>
			<rect x="562" y="287" fill="#666666" width="54" height="2"/>
			<rect x="562" y="292" fill="#999999" width="37" height="2"/>
			<rect x="562" y="295" fill="#999999" width="42" height="3"/>
		</g>
		<g>
			<rect x="619" y="292" fill="#999999" width="45" height="2"/>
			<rect x="619" y="295" fill="#999999" width="36" height="3"/>
			<rect x="619" y="287" fill="#666666" width="53" height="2"/>
		</g>
		<g>
			<rect x="675" y="292" fill="#999999" width="36" height="2"/>
			<rect x="675" y="295" fill="#999999" width="42" height="3"/>
			<rect x="675" y="287" fill="#666666" width="52" height="2"/>
		</g>
		<rect x="562" y="302" fill="#999999" width="37" height="1"/>
		<rect x="562" y="305" fill="#999999" width="52" height="1"/>
		<g>
			<rect x="562" y="322" fill="#666666" width="54" height="2"/>
			<rect x="562" y="327" fill="#999999" width="37" height="2"/>
			<rect x="562" y="330" fill="#999999" width="42" height="4"/>
		</g>
		<rect x="562" y="337" fill="#999999" width="37" height="1"/>
		<rect x="562" y="340" fill="#999999" width="52" height="1"/>
		<g>
			<rect x="619" y="322" fill="#666666" width="53" height="2"/>
			<rect x="619" y="327" fill="#999999" width="36" height="2"/>
			<rect x="619" y="330" fill="#999999" width="41" height="4"/>
		</g>
		<rect x="619" y="337" fill="#999999" width="36" height="1"/>
		<rect x="619" y="340" fill="#999999" width="51" height="1"/>
		<g>
			<rect x="675" y="322" fill="#666666" width="52" height="2"/>
			<rect x="675" y="327" fill="#999999" width="36" height="2"/>
			<rect x="675" y="330" fill="#999999" width="41" height="4"/>
		</g>
		<rect x="675" y="337" fill="#999999" width="36" height="1"/>
		<rect x="675" y="340" fill="#999999" width="51" height="1"/>
		<rect x="562" y="312" fill="#999999" width="52" height="3"/>
		<rect x="563.186" y="317" fill="#999999" width="35.801" height="0"/>
		<rect x="562" y="319" fill="#999999" width="52" height="1"/>
		<rect x="619" y="302" fill="#999999" width="36" height="1"/>
		<rect x="619" y="305" fill="#999999" width="51" height="1"/>
		<rect x="619" y="312" fill="#999999" width="51" height="3"/>
		<rect x="675" y="312" fill="#999999" width="51" height="3"/>
		<rect x="618.874" y="317" fill="#999999" width="35.8" height="0"/>
		<rect x="619" y="319" fill="#999999" width="51" height="1"/>
		<rect x="675" y="303" fill="#999999" width="35" height="2"/>
		<rect x="675" y="306" fill="#999999" width="52" height="1"/>
		<rect x="675" y="319" fill="#999999" width="52" height="1"/>
		<polygon opacity="0.3" fill="#FFFFFF" points="468.5,178 733,178 733,329.387 		"/>
		<rect x="475" y="321" fill="#D34658" width="77" height="20"/>
	</g>
</g>
<g id="iPhone">
	<g>
		<g>
			<path fill="#231F20" d="M282.292,232.612c0-5.629-4.563-10.192-10.192-10.192h-51.168c-5.631,0-10.193,4.563-10.193,10.192
				v131.043c0,5.629,4.563,10.192,10.193,10.192H272.1c5.629,0,10.192-4.563,10.192-10.192V232.612z M254.002,235.784
				c0,0.891-0.721,1.612-1.611,1.612h-10.92c-0.891,0-1.611-0.722-1.611-1.612v-0.104c0-0.891,0.721-1.611,1.611-1.611h10.92
				c0.891,0,1.611,0.721,1.611,1.611V235.784z M277.301,352.214h-60.738V244.053h60.738V352.214z"/>
		</g>
		<rect x="217" y="244" fill="#FFFFFF" width="60" height="108"/>
		<g>
			<rect x="217" y="254" fill-rule="evenodd" clip-rule="evenodd" fill="#00A79D" width="60" height="40"/>
			<g>
				<ellipse fill-rule="evenodd" clip-rule="evenodd" fill="#FFFFFF" cx="234.771" cy="273.12" rx="11.989" ry="12.3"/>
				<path fill-rule="evenodd" clip-rule="evenodd" fill="none" stroke="#FFFFFF" stroke-width="0.4818" d="M248.904,273.247
					c0,7.964-6.295,14.421-14.062,14.421s-14.062-6.457-14.062-14.421c0-7.968,6.295-14.425,14.062-14.425
					S248.904,265.279,248.904,273.247z"/>
			</g>
		</g>
		<rect x="221" y="299" fill="#D34658" width="52" height="30"/>
		<g>
			<rect x="221" y="333" fill="#666666" width="52" height="2"/>
			<rect x="221" y="338" fill="#999999" width="36" height="1"/>
			<rect x="221" y="341" fill="#999999" width="40" height="3"/>
		</g>
		<rect x="221" y="347" fill="#999999" width="36" height="1"/>
		<rect x="221.596" y="350" fill="#999999" width="49.412" height="0"/>
		<g>
			<rect x="252" y="267" fill="#FFFFFF" width="21" height="3"/>
			<rect x="252" y="272" fill="#FFFFFF" width="14" height="1"/>
			<rect x="252" y="276" fill="#FFFFFF" width="16" height="2"/>
		</g>
		<polygon opacity="0.3" fill="#FFFFFF" points="277,352.383 277,244 216.953,244 		"/>
	</g>
</g>
<g id="Layer_6">
	<g>
		<g>
			
				<image overflow="visible" opacity="0.45" width="555" height="555" xlink:href="F45989F7.png"  transform="matrix(0.24 0 0 0.24 567.5 74.3999)">
			</image>
			<g>
				<g>
					<circle fill="#00A79D" cx="634" cy="138.9" r="57"/>
				</g>
				<g>
					<path fill="#BCBEC0" d="M634,196.4c-31.706,0-57.5-25.794-57.5-57.5s25.794-57.5,57.5-57.5s57.501,25.794,57.501,57.5
						S665.706,196.4,634,196.4z M634,82.4c-31.154,0-56.5,25.346-56.5,56.5s25.346,56.5,56.5,56.5s56.501-25.346,56.501-56.5
						S665.154,82.4,634,82.4z"/>
				</g>
			</g>
		</g>
		<text transform="matrix(1 0 0 1 588.6797 141.8999)"><tspan x="0" y="0" fill="#FFFFFF" font-family="'MyriadPro-Bold'" font-size="36">100%</tspan><tspan x="0" y="14" fill="#FFFFFF" font-family="'MyriadPro-Regular'" font-size="18">Responsive</tspan></text>
	</g>
</g>
</svg>
