<?xml version="1.0" encoding="utf-8"?>
<!-- Generator: Adobe Illustrator 16.0.0, SVG Export Plug-In . SVG Version: 6.00 Build 0)  -->
<!DOCTYPE svg PUBLIC "-//W3C//DTD SVG 1.1//EN" "http://www.w3.org/Graphics/SVG/1.1/DTD/svg11.dtd">
<svg version="1.1" id="Layer_1" xmlns="http://www.w3.org/2000/svg" xmlns:xlink="http://www.w3.org/1999/xlink" x="0px" y="0px"
	 width="259px" height="293px" viewBox="0 0 259 293" enable-background="new 0 0 259 293" xml:space="preserve">
<g>
	<g>
		<g>
			<g>
				
					<linearGradient id="SVGID_1_" gradientUnits="userSpaceOnUse" x1="286.0107" y1="-137.1045" x2="286.0107" y2="-115.9046" gradientTransform="matrix(1 0 0 -1 -156 48)">
					<stop  offset="0" style="stop-color:#580E0E"/>
					<stop  offset="1" style="stop-color:#ED2224"/>
				</linearGradient>
				<ellipse fill="url(#SVGID_1_)" cx="130.011" cy="189.99" rx="24.844" ry="4.938"/>
				
					<linearGradient id="SVGID_2_" gradientUnits="userSpaceOnUse" x1="285.3945" y1="-213.1919" x2="285.3945" y2="-135.9295" gradientTransform="matrix(1 0 0 -1 -156 48)">
					<stop  offset="0" style="stop-color:#F58020"/>
					<stop  offset="0.4784" style="stop-color:#F0B32A"/>
					<stop  offset="1" style="stop-color:#EDE839"/>
				</linearGradient>
				<path fill="url(#SVGID_2_)" d="M143.989,235.293l-1.165-14.605c0,0,0.183,22.006-7.88,50.373l0.807-20.584
					c0,0-6.355,38.984-6.355,42.023c0-3.039-6.357-42.023-6.357-42.023l0.807,20.584c-8.061-28.367-7.879-50.373-7.879-50.373
					l-1.164,14.605c-8.238-30.262,3.299-57.654,3.299-57.654h22.59C140.69,177.639,152.226,205.033,143.989,235.293z"/>
				
					<linearGradient id="SVGID_3_" gradientUnits="userSpaceOnUse" x1="285.3945" y1="-169.8418" x2="285.3945" y2="-111.4711" gradientTransform="matrix(1 0 0 -1 -156 48)">
					<stop  offset="0" style="stop-color:#F58020"/>
					<stop  offset="0.4784" style="stop-color:#F0B32A"/>
					<stop  offset="1" style="stop-color:#EDE839"/>
				</linearGradient>
				<path fill="url(#SVGID_3_)" d="M137.81,217.793l-0.67-8.424c0,0,0.104,12.689-4.543,29.047l0.463-11.873
					c0,0-3.666,22.482-3.664,24.234c0-1.752-3.666-24.234-3.666-24.234l0.465,11.873c-4.648-16.357-4.543-29.047-4.543-29.047
					l-0.672,8.424c-4.75-17.451,1.901-33.247,1.901-33.247h13.027C135.908,184.546,142.56,200.342,137.81,217.793z"/>
				
					<linearGradient id="SVGID_4_" gradientUnits="userSpaceOnUse" x1="-136.0552" y1="-130.7217" x2="-136.0552" y2="-144.1183" gradientTransform="matrix(-0.9988 -0.0491 0.0491 -0.9988 -6.3296 52.5268)">
					<stop  offset="0" style="stop-color:#F58020"/>
					<stop  offset="0.4784" style="stop-color:#F0B32A"/>
					<stop  offset="1" style="stop-color:#EDE839"/>
				</linearGradient>
				<path fill="url(#SVGID_4_)" d="M124.751,186.389c-5.277,10.747-3.292,22.301-3.292,22.301
					C121.327,197.638,123.808,188.932,124.751,186.389z"/>
				
					<linearGradient id="SVGID_5_" gradientUnits="userSpaceOnUse" x1="319.4316" y1="-153.1133" x2="319.4316" y2="-166.5096" gradientTransform="matrix(0.9988 -0.0491 -0.0491 -0.9988 -190.9219 52.5268)">
					<stop  offset="0" style="stop-color:#F58020"/>
					<stop  offset="0.4784" style="stop-color:#F0B32A"/>
					<stop  offset="1" style="stop-color:#EDE839"/>
				</linearGradient>
				<path fill="url(#SVGID_5_)" d="M134.038,186.389c5.277,10.747,3.292,22.301,3.292,22.301
					C137.462,197.638,134.981,188.932,134.038,186.389z"/>
				
					<linearGradient id="SVGID_6_" gradientUnits="userSpaceOnUse" x1="285.3945" y1="-158.2222" x2="285.3945" y2="-117.1127" gradientTransform="matrix(1 0 0 -1 -156 48)">
					<stop  offset="0" style="stop-color:#EDE839"/>
					<stop  offset="0.4804" style="stop-color:#F0EE8A"/>
					<stop  offset="1" style="stop-color:#F2F5D1"/>
				</linearGradient>
				<path fill="url(#SVGID_6_)" d="M135.116,197.813l-0.457-5.726c0,0,0.07,8.626-3.089,19.745l0.315-8.067
					c0,0-2.492,15.278-2.492,16.472c0-1.193-2.492-16.472-2.492-16.472l0.316,8.067c-3.16-11.119-3.088-19.745-3.088-19.745
					l-0.457,5.726c-3.229-11.86,1.293-22.598,1.293-22.598h8.855C133.822,175.215,138.345,185.952,135.116,197.813z"/>
			</g>
			<g>
				<g>
					
						<linearGradient id="SVGID_7_" gradientUnits="userSpaceOnUse" x1="-2096.8657" y1="-119.0313" x2="-2113.3904" y2="-135.5558" gradientTransform="matrix(-1 0 0 -1 -1932.541 48)">
						<stop  offset="0" style="stop-color:#580E0E"/>
						<stop  offset="1" style="stop-color:#ED2224"/>
					</linearGradient>
					<path fill="url(#SVGID_7_)" d="M146.396,185.182c10.268,0.578,23.857,25.398,23.857,25.398
						c11.663-25.492,10.866-45.156,6.633-58.937c-4.918-16.036-14.492-24.094-14.492-24.094l-12.957,46.67L146.396,185.182z"/>
					
						<linearGradient id="SVGID_8_" gradientUnits="userSpaceOnUse" x1="332.8701" y1="-113.9976" x2="312.6096" y2="-113.9976" gradientTransform="matrix(1 0 0 -1 -156 48)">
						<stop  offset="0" style="stop-color:#580E0E"/>
						<stop  offset="1" style="stop-color:#ED2224"/>
					</linearGradient>
					<path fill="url(#SVGID_8_)" d="M149.437,174.221c9.043,5.224,18.727,22.226,18.727,22.226
						c8.607-18.078,10.232-33.021,8.723-44.802c-4.918-16.036-14.492-24.094-14.492-24.094L149.437,174.221z"/>
					
						<linearGradient id="SVGID_9_" gradientUnits="userSpaceOnUse" x1="265.1504" y1="-110.1216" x2="311.7757" y2="-110.1216" gradientTransform="matrix(1 0 0 -1 -156 48)">
						<stop  offset="0" style="stop-color:#580E0E"/>
						<stop  offset="1" style="stop-color:#ED2224"/>
					</linearGradient>
					<path fill="url(#SVGID_9_)" d="M162.015,127.552c0,0,24.369,20.523,5.787,61.14c0,0-10.008-18.278-17.568-18.704
						L162.015,127.552z"/>
				</g>
				<g>
					
						<linearGradient id="SVGID_10_" gradientUnits="userSpaceOnUse" x1="251.6699" y1="-119.0313" x2="235.1456" y2="-135.5555" gradientTransform="matrix(1 0 0 -1 -156 48)">
						<stop  offset="0" style="stop-color:#580E0E"/>
						<stop  offset="1" style="stop-color:#ED2224"/>
					</linearGradient>
					<path fill="url(#SVGID_10_)" d="M113.597,185.182c-10.267,0.578-23.855,25.398-23.855,25.398
						c-11.664-25.492-10.867-45.156-6.631-58.937c4.918-16.036,14.49-24.094,14.49-24.094l12.957,46.67L113.597,185.182z"/>
					
						<linearGradient id="SVGID_11_" gradientUnits="userSpaceOnUse" x1="238.6064" y1="-113.9985" x2="266.5576" y2="-113.9985" gradientTransform="matrix(1 0 0 -1 -156 48)">
						<stop  offset="0" style="stop-color:#F7A9AD"/>
						<stop  offset="0.7773" style="stop-color:#F04C3C"/>
						<stop  offset="1" style="stop-color:#ED2224"/>
					</linearGradient>
					<path fill="url(#SVGID_11_)" d="M110.558,174.221c-9.045,5.224-18.728,22.226-18.728,22.226
						c-8.606-18.078-10.233-33.021-8.722-44.802c4.918-16.036,14.492-24.094,14.492-24.094L110.558,174.221z"/>
					
						<linearGradient id="SVGID_12_" gradientUnits="userSpaceOnUse" x1="265.2988" y1="-110.1216" x2="308.637" y2="-110.1216" gradientTransform="matrix(1 0 0 -1 -156 48)">
						<stop  offset="0" style="stop-color:#580E0E"/>
						<stop  offset="1" style="stop-color:#ED2224"/>
					</linearGradient>
					<path fill="url(#SVGID_12_)" d="M97.979,127.552c0,0-24.369,20.523-5.787,61.14c0,0,10.008-18.278,17.568-18.704
						L97.979,127.552z"/>
				</g>
				
					<linearGradient id="SVGID_13_" gradientUnits="userSpaceOnUse" x1="270.8086" y1="-44.9971" x2="310.57" y2="-44.9971" gradientTransform="matrix(1 0 0 -1 -156 48)">
					<stop  offset="0" style="stop-color:#580E0E"/>
					<stop  offset="1" style="stop-color:#ED2224"/>
				</linearGradient>
				<path fill="url(#SVGID_13_)" d="M167.06,93.187c0,39.231-10.024,68.505-17.554,84.956c-1.223,2.673-2.38,5.009-3.419,6.989
					c-3.097-0.988-6.32-1.701-9.637-2.104c-2.141-0.268-4.32-0.398-6.53-0.398c-3.069,0-6.075,0.26-8.997,0.76
					c-0.402,0.066-0.797,0.143-1.195,0.218l-3.565,0.826c-0.765,0.204-1.522,0.422-2.272,0.664c-0.744-1.419-1.545-3.019-2.39-4.794
					c-7.603-15.977-18.549-46.106-18.549-87.117c0-62.841,37.045-92.324,37.045-92.324S167.06,30.346,167.06,93.187z"/>
				
					<linearGradient id="SVGID_14_" gradientUnits="userSpaceOnUse" x1="284.4453" y1="-97.1948" x2="284.4453" y2="-45.0717" gradientTransform="matrix(1 0 0 -1 -156 48)">
					<stop  offset="0" style="stop-color:#580E0E"/>
					<stop  offset="1" style="stop-color:#ED2224"/>
				</linearGradient>
				<path fill="url(#SVGID_14_)" d="M160.554,89.977c0,37.109-9.31,64.47-15.894,79.173c-3.601,8.043-6.384,12.301-6.384,12.301
					s-0.668,0.713-1.825,1.578c-2.14-0.268-4.32-0.398-6.53-0.398c-3.068,0-6.074,0.26-8.997,0.76
					c-1.461-1.018-2.329-1.938-2.329-1.938s-1.65-2.529-4.06-7.373c-6.417-12.933-18.198-42.346-18.198-84.102
					c0-57.424,32.1-84.367,32.1-84.367S160.554,32.554,160.554,89.977z"/>
				
					<linearGradient id="SVGID_15_" gradientUnits="userSpaceOnUse" x1="258.4277" y1="-47.8169" x2="308.3533" y2="-47.8169" gradientTransform="matrix(1 0 0 -1 -156 48)">
					<stop  offset="0" style="stop-color:#580E0E"/>
					<stop  offset="1" style="stop-color:#ED2224"/>
				</linearGradient>
				<path fill="url(#SVGID_15_)" d="M160.554,90.44c0,52.83-20.5,84.192-20.5,84.192s-3.968,4.205-9.06,4.205
					c-5.09,0-9.058-4.205-9.058-4.205s-20.484-31.362-20.484-84.192c0-52.849,29.542-77.645,29.542-77.645
					S160.554,37.592,160.554,90.44z"/>
				<path opacity="0.5" fill="#333231" enable-background="new    " d="M146.788,98.067c0,8.55-6.919,15.477-15.461,15.477
					c-6.085,0-11.344-3.521-13.864-8.638c-1.013-2.06-1.588-4.379-1.588-6.838c0-8.542,6.92-15.469,15.453-15.469
					c5.575,0,10.461,2.952,13.185,7.382C145.954,92.332,146.789,95.1,146.788,98.067z"/>
				
					<radialGradient id="SVGID_16_" cx="283.9014" cy="-44.4028" r="64.6602" gradientTransform="matrix(0.9989 0 0 -1 -156.2159 48)" gradientUnits="userSpaceOnUse">
					<stop  offset="0" style="stop-color:#F7A9AD"/>
					<stop  offset="0.7773" style="stop-color:#F04C3C"/>
					<stop  offset="1" style="stop-color:#ED2224"/>
				</radialGradient>
				<path fill="url(#SVGID_16_)" d="M121.474,162.487c0,0-0.256-0.479-0.74-1.378c-0.426-0.919-1.178-2.239-1.911-4.001
					c-0.703-1.767-1.729-3.875-2.562-6.398c-0.824-2.523-1.986-5.33-2.769-8.512c-0.433-1.583-0.884-3.233-1.351-4.941
					c-0.225-0.857-0.453-1.729-0.686-2.615c-0.182-0.894-0.365-1.802-0.551-2.724c-0.365-1.847-0.742-3.744-1.125-5.684
					c-0.393-1.938-0.775-3.926-0.977-5.969c-0.447-4.077-1.096-8.288-1.414-12.591c-0.172-4.311-0.35-8.691-0.525-13.07
					l-0.043-1.643c-0.001-0.687,0.029-1.122,0.042-1.695l0.104-3.24l0.103-3.225c0.087-1.1,0.174-2.194,0.26-3.288
					c0.174-2.184,0.313-4.361,0.675-6.457c0.338-2.104,0.543-4.195,0.977-6.224c0.427-2.028,0.72-4.041,1.238-5.968
					c0.521-1.926,0.965-3.82,1.514-5.636c0.588-1.806,1.078-3.582,1.695-5.255c0.653-1.664,1.221-3.287,1.879-4.805
					c1.272-3.051,2.609-5.769,3.918-8.108c1.285-2.351,2.549-4.316,3.658-5.88c1.071-1.588,2.066-2.732,2.721-3.514
					c0.668-0.776,1.054-1.16,1.054-1.16s-0.3,0.456-0.792,1.342c-0.496,0.889-1.174,2.213-1.973,3.92
					c-0.815,1.696-1.686,3.812-2.631,6.244c-0.934,2.437-1.846,5.233-2.779,8.291c-0.893,3.076-1.709,6.438-2.498,10.004
					c-0.732,3.585-1.348,7.387-1.893,11.331c-0.515,3.946-0.861,8.071-1.098,12.19c-0.068,1.033-0.135,2.072-0.203,3.112
					l-0.052,3.228l-0.052,3.24c-0.004,0.507-0.027,1.155-0.016,1.549l0.063,1.603c0.104,4.277,0.207,8.552,0.311,12.763
					c0.301,4.199,0.596,8.334,0.881,12.334c0.088,2.01,0.42,3.955,0.625,5.876c0.225,1.919,0.443,3.799,0.657,5.628
					c0.11,0.916,0.22,1.819,0.327,2.708c0.148,0.882,0.295,1.749,0.439,2.603c0.272,1.715,0.535,3.373,0.787,4.962
					c0.129,0.797,0.254,1.578,0.377,2.34c0.156,0.755,0.31,1.492,0.459,2.21c0.285,1.444,0.555,2.813,0.809,4.1
					c0.496,2.588,1.111,4.787,1.511,6.646c0.476,1.834,0.851,3.276,1.104,4.259C121.317,161.966,121.474,162.487,121.474,162.487z"
					/>
				
					<linearGradient id="SVGID_17_" gradientUnits="userSpaceOnUse" x1="304.4141" y1="-14.6665" x2="304.4141" y2="-84.4559" gradientTransform="matrix(1 0 0 -1 -156 48)">
					<stop  offset="0" style="stop-color:#FCDEE0"/>
					<stop  offset="0.0408" style="stop-color:#FCDBDC"/>
					<stop  offset="0.7607" style="stop-color:#F69CA1"/>
				</linearGradient>
				<path fill="url(#SVGID_17_)" d="M141.112,157.454c0,0,0.15-0.388,0.435-1.117c0.261-0.737,0.608-1.829,1.113-3.186
					c0.435-1.382,0.959-3.063,1.562-4.992c0.521-1.948,1.109-4.146,1.75-6.543c0.648-2.391,1.114-5.045,1.779-7.8
					c0.706-2.747,1.051-5.732,1.635-8.768c0.266-1.521,0.537-3.069,0.813-4.635c0.185-1.581,0.371-3.181,0.56-4.792
					c0.198-1.612,0.398-3.234,0.6-4.865c0.215-1.627,0.418-3.264,0.467-4.913c0.222-3.293,0.443-6.583,0.66-9.823
					c0.052-0.788,0.102-1.572,0.152-2.354c0-0.811,0.002-1.619,0.002-2.42c0.004-1.604,0.006-3.188,0.01-4.746
					c0.006-1.558,0.013-3.089,0.02-4.588c-0.052-1.484-0.205-2.912-0.297-4.318c-0.104-1.405-0.204-2.771-0.301-4.093
					c-0.1-1.323-0.112-2.614-0.35-3.831c-0.386-2.438-0.689-4.691-0.959-6.695c-0.115-1.006-0.271-1.938-0.49-2.783
					c-0.191-0.852-0.366-1.635-0.525-2.341c-0.624-2.836-0.939-4.482-0.939-4.482s0.586,1.551,1.543,4.313
					c0.236,0.692,0.498,1.459,0.783,2.293c0.313,0.829,0.573,1.745,0.799,2.738c0.496,1.974,1.057,4.208,1.614,6.663
					c0.571,2.455,0.81,5.191,1.222,8.061c0.177,1.437,0.414,2.923,0.551,4.43c0.054,1.5,0.107,3.031,0.162,4.587
					c0.052,1.559,0.103,3.142,0.156,4.745c0.024,0.802,0.051,1.607,0.078,2.418c-0.021,0.948-0.084,1.672-0.125,2.523
					c-0.186,3.293-0.373,6.636-0.561,9.979c-0.07,1.675-0.295,3.336-0.53,4.989c-0.223,1.653-0.444,3.3-0.666,4.935
					c-0.231,1.631-0.459,3.251-0.685,4.85c-0.334,1.582-0.664,3.145-0.988,4.683c-0.668,3.069-1.214,6.055-2.084,8.806
					c-0.811,2.763-1.49,5.396-2.342,7.759c-0.846,2.365-1.623,4.526-2.389,6.415c-0.814,1.866-1.524,3.492-2.108,4.832
					c-0.638,1.32-1.185,2.331-1.535,3.023C141.317,157.092,141.112,157.454,141.112,157.454z"/>
				
					<radialGradient id="SVGID_18_" cx="283.9023" cy="-44.4033" r="64.6586" gradientTransform="matrix(0.9989 0 0 -1 -156.2159 48)" gradientUnits="userSpaceOnUse">
					<stop  offset="0" style="stop-color:#F7A9AD"/>
					<stop  offset="0.7773" style="stop-color:#F04C3C"/>
					<stop  offset="1" style="stop-color:#ED2224"/>
				</radialGradient>
				<path fill="url(#SVGID_18_)" d="M145.438,86.894c-3.269-4.482-8.529-7.38-14.488-7.38c-9.911,0-17.965,8.045-17.965,17.983
					c0,9.443,7.322,17.233,16.619,17.916c-0.459,0.033-0.885,0.05-1.33,0.05h-0.187c0.136,0.019,0.255,0.019,0.392,0.035
					c-0.459,0.033-0.902,0.051-1.361,0.051c-11.119,0-20.145-9.034-20.145-20.165c0-11.131,9.024-20.165,20.145-20.165
					c7.712,0,14.404,4.348,17.792,10.703c-0.033-0.05-0.067-0.101-0.118-0.152C145.015,86.126,145.235,86.502,145.438,86.894z"/>
				<g>
					
						<linearGradient id="SVGID_19_" gradientUnits="userSpaceOnUse" x1="-176.0254" y1="1109.2441" x2="-158.0689" y2="1091.2875" gradientTransform="matrix(1 0 0 -1 296.7695 1196.7246)">
						<stop  offset="0.2393" style="stop-color:#B5E2EE"/>
						<stop  offset="1" style="stop-color:#E7F5F8"/>
					</linearGradient>
					<path fill="url(#SVGID_19_)" d="M143.435,96.674c0,7.464-6.043,13.512-13.5,13.512c-5.313,0-9.903-3.074-12.104-7.542
						c-0.885-1.798-1.387-3.824-1.386-5.97c0-7.458,6.04-13.505,13.491-13.505c4.867,0,9.133,2.577,11.511,6.445
						C142.705,91.666,143.435,94.082,143.435,96.674z"/>
					
						<linearGradient id="SVGID_20_" gradientUnits="userSpaceOnUse" x1="-178.9385" y1="1096.8252" x2="-153.335" y2="1096.8252" gradientTransform="matrix(1 0 0 -1 296.7695 1196.7246)">
						<stop  offset="0" style="stop-color:#E7F5F8"/>
						<stop  offset="0.7607" style="stop-color:#B5E2EE"/>
					</linearGradient>
					<path fill="url(#SVGID_20_)" d="M143.435,96.674c0,7.464-6.043,13.512-13.5,13.512c-5.313,0-9.903-3.074-12.104-7.542
						c1.012-3.902,3.961-9.738,12.613-9.738c4.437,0,8.1-1.274,11.002-3.292C142.705,91.666,143.435,94.082,143.435,96.674z"/>
				</g>
				
					<linearGradient id="SVGID_21_" gradientUnits="userSpaceOnUse" x1="275.4082" y1="-38.2158" x2="295.186" y2="-38.2158" gradientTransform="matrix(1 0 0 -1 -156 48)">
					<stop  offset="0" style="stop-color:#580E0E"/>
					<stop  offset="1" style="stop-color:#ED2224"/>
				</linearGradient>
				<circle fill="url(#SVGID_21_)" cx="122.372" cy="86.216" r="2.964"/>
			</g>
		</g>
		<g>
			
				<linearGradient id="SVGID_22_" gradientUnits="userSpaceOnUse" x1="-2094.4546" y1="-121.457" x2="-2110.9751" y2="-137.9774" gradientTransform="matrix(-1 0 0 -1 -1932.541 48)">
				<stop  offset="0" style="stop-color:#080808"/>
				<stop  offset="0.9613" style="stop-color:#68605E"/>
				<stop  offset="1" style="stop-color:#6C6461"/>
			</linearGradient>
			<path fill="url(#SVGID_22_)" d="M176.886,151.645c1.512,11.779-0.115,26.722-8.724,44.802c0,0-8.704-15.277-17.313-21.315
				c-1.442,3.325-2.824,6.223-4.065,8.659l-0.386,1.393c10.267,0.579,23.856,25.399,23.856,25.399
				C181.917,185.089,181.12,165.424,176.886,151.645z"/>
			
				<linearGradient id="SVGID_23_" gradientUnits="userSpaceOnUse" x1="-2099.8721" y1="-116.0239" x2="-2116.397" y2="-132.549" gradientTransform="matrix(-1 0 0 -1 -1932.541 48)">
				<stop  offset="0" style="stop-color:#080808"/>
				<stop  offset="0.9613" style="stop-color:#68605E"/>
				<stop  offset="1" style="stop-color:#6C6461"/>
			</linearGradient>
			<path fill="url(#SVGID_23_)" d="M167.802,188.691c0,0-8.003-14.606-15.103-18.004c-0.624,1.558-1.243,3.039-1.853,4.442
				c8.61,6.037,17.314,21.316,17.314,21.316c8.607-18.08,10.234-33.022,8.725-44.803c-3.621-11.8-9.756-19.275-12.746-22.403
				c-0.021,0.132-0.045,0.266-0.065,0.398C169.533,135.794,182.961,155.556,167.802,188.691z"/>
			
				<linearGradient id="SVGID_24_" gradientUnits="userSpaceOnUse" x1="332.8701" y1="-114.8428" x2="312.6094" y2="-114.8428" gradientTransform="matrix(1 0 0 -1 -156 48)">
				<stop  offset="0" style="stop-color:#080808"/>
				<stop  offset="0.9613" style="stop-color:#68605E"/>
				<stop  offset="1" style="stop-color:#6C6461"/>
			</linearGradient>
			<path fill="url(#SVGID_24_)" d="M167.802,188.691c0,0-8.003-14.606-15.103-18.004c-0.624,1.558-1.243,3.039-1.853,4.442
				c8.61,6.037,17.314,21.316,17.314,21.316c8.607-18.08,10.234-33.022,8.725-44.803c-3.621-11.8-9.756-19.275-12.746-22.403
				c-0.021,0.132-0.045,0.266-0.065,0.398C169.533,135.794,182.961,155.556,167.802,188.691z"/>
			
				<linearGradient id="SVGID_25_" gradientUnits="userSpaceOnUse" x1="-2101.6055" y1="-114.292" x2="-2118.1309" y2="-130.8174" gradientTransform="matrix(-1 0 0 -1 -1932.541 48)">
				<stop  offset="0" style="stop-color:#080808"/>
				<stop  offset="0.9613" style="stop-color:#68605E"/>
				<stop  offset="1" style="stop-color:#6C6461"/>
			</linearGradient>
			<path fill="url(#SVGID_25_)" d="M167.802,188.691c15.159-33.136,1.731-52.896-3.728-59.052
				c-2.812,16.814-7.199,30.633-11.375,41.048C159.799,174.085,167.802,188.691,167.802,188.691z"/>
			
				<linearGradient id="SVGID_26_" gradientUnits="userSpaceOnUse" x1="332.8701" y1="-111.1646" x2="312.6089" y2="-111.1646" gradientTransform="matrix(1 0 0 -1 -156 48)">
				<stop  offset="0" style="stop-color:#080808"/>
				<stop  offset="0.9613" style="stop-color:#68605E"/>
				<stop  offset="1" style="stop-color:#6C6461"/>
			</linearGradient>
			<path fill="url(#SVGID_26_)" d="M167.802,188.691c15.159-33.136,1.731-52.896-3.728-59.052
				c-2.812,16.814-7.199,30.633-11.375,41.048C159.799,174.085,167.802,188.691,167.802,188.691z"/>
			
				<linearGradient id="SVGID_27_" gradientUnits="userSpaceOnUse" x1="265.1455" y1="-111.1655" x2="311.7744" y2="-111.1655" gradientTransform="matrix(1 0 0 -1 -156 48)">
				<stop  offset="0" style="stop-color:#080808"/>
				<stop  offset="0.9613" style="stop-color:#68605E"/>
				<stop  offset="1" style="stop-color:#6C6461"/>
			</linearGradient>
			<path fill="url(#SVGID_27_)" d="M167.802,188.691c15.159-33.136,1.731-52.896-3.728-59.052
				c-2.812,16.814-7.199,30.633-11.375,41.048C159.799,174.085,167.802,188.691,167.802,188.691z"/>
			
				<linearGradient id="SVGID_28_" gradientUnits="userSpaceOnUse" x1="254.0801" y1="-121.4575" x2="237.5603" y2="-137.9773" gradientTransform="matrix(1 0 0 -1 -156 48)">
				<stop  offset="0" style="stop-color:#080808"/>
				<stop  offset="0.9613" style="stop-color:#68605E"/>
				<stop  offset="1" style="stop-color:#6C6461"/>
			</linearGradient>
			<path fill="url(#SVGID_28_)" d="M91.831,196.446c-8.607-18.08-10.232-33.021-8.723-44.802
				c-4.234,13.779-5.03,33.444,6.633,58.938c0,0,13.59-24.82,23.857-25.399l-0.392-1.407c-1.237-2.436-2.617-5.327-4.056-8.647
				C100.539,181.161,91.831,196.446,91.831,196.446z"/>
			
				<linearGradient id="SVGID_29_" gradientUnits="userSpaceOnUse" x1="248.6631" y1="-116.0239" x2="232.1383" y2="-132.5487" gradientTransform="matrix(1 0 0 -1 -156 48)">
				<stop  offset="0" style="stop-color:#080808"/>
				<stop  offset="0.9613" style="stop-color:#68605E"/>
				<stop  offset="1" style="stop-color:#6C6461"/>
			</linearGradient>
			<path fill="url(#SVGID_29_)" d="M91.831,196.446c0,0,8.708-15.285,17.32-21.32c-0.607-1.402-1.225-2.885-1.85-4.44
				c-7.101,3.39-15.107,18.007-15.107,18.007c-15.176-33.168-1.707-52.935,3.742-59.069c-0.021-0.133-0.043-0.265-0.065-0.397
				c-2.985,3.119-9.136,10.599-12.761,22.42C81.599,163.424,83.224,178.366,91.831,196.446z"/>
			
				<linearGradient id="SVGID_30_" gradientUnits="userSpaceOnUse" x1="238.6084" y1="-114.8364" x2="266.557" y2="-114.8364" gradientTransform="matrix(1 0 0 -1 -156 48)">
				<stop  offset="0" style="stop-color:#7B726E"/>
				<stop  offset="1" style="stop-color:#6C6461"/>
			</linearGradient>
			<path fill="url(#SVGID_30_)" d="M91.831,196.446c0,0,8.708-15.285,17.32-21.32c-0.607-1.402-1.225-2.885-1.85-4.44
				c-7.101,3.39-15.107,18.007-15.107,18.007c-15.176-33.168-1.707-52.935,3.742-59.069c-0.021-0.133-0.043-0.265-0.065-0.397
				c-2.985,3.119-9.136,10.599-12.761,22.42C81.599,163.424,83.224,178.366,91.831,196.446z"/>
			
				<linearGradient id="SVGID_31_" gradientUnits="userSpaceOnUse" x1="246.9297" y1="-114.2905" x2="230.4048" y2="-130.8155" gradientTransform="matrix(1 0 0 -1 -156 48)">
				<stop  offset="0" style="stop-color:#080808"/>
				<stop  offset="0.9613" style="stop-color:#68605E"/>
				<stop  offset="1" style="stop-color:#6C6461"/>
			</linearGradient>
			<path fill="url(#SVGID_31_)" d="M92.192,188.691c0,0,8.008-14.616,15.109-18.007c-4.174-10.419-8.559-24.243-11.367-41.063
				C90.485,135.757,77.019,155.523,92.192,188.691z"/>
			
				<linearGradient id="SVGID_32_" gradientUnits="userSpaceOnUse" x1="238.6074" y1="-111.1563" x2="266.5572" y2="-111.1563" gradientTransform="matrix(1 0 0 -1 -156 48)">
				<stop  offset="0" style="stop-color:#7B726E"/>
				<stop  offset="1" style="stop-color:#6C6461"/>
			</linearGradient>
			<path fill="url(#SVGID_32_)" d="M92.192,188.691c0,0,8.008-14.616,15.109-18.007c-4.174-10.419-8.559-24.243-11.367-41.063
				C90.485,135.757,77.019,155.523,92.192,188.691z"/>
			
				<linearGradient id="SVGID_33_" gradientUnits="userSpaceOnUse" x1="265.2988" y1="-111.1563" x2="308.6391" y2="-111.1563" gradientTransform="matrix(1 0 0 -1 -156 48)">
				<stop  offset="0" style="stop-color:#080808"/>
				<stop  offset="0.9613" style="stop-color:#68605E"/>
				<stop  offset="1" style="stop-color:#6C6461"/>
			</linearGradient>
			<path fill="url(#SVGID_33_)" d="M92.192,188.691c0,0,8.008-14.616,15.109-18.007c-4.174-10.419-8.559-24.243-11.367-41.063
				C90.485,135.757,77.019,155.523,92.192,188.691z"/>
		</g>
		<g>
			
				<linearGradient id="SVGID_34_" gradientUnits="userSpaceOnUse" x1="270.8096" y1="20.5811" x2="310.571" y2="20.5811" gradientTransform="matrix(1 0 0 -1 -156 48)">
				<stop  offset="0" style="stop-color:#080808"/>
				<stop  offset="0.9613" style="stop-color:#68605E"/>
				<stop  offset="1" style="stop-color:#6C6461"/>
			</linearGradient>
			<path fill="url(#SVGID_34_)" d="M128.437,5.612c0,0,16.881,14.168,26.166,43.843c2.515,1.318,4.91,2.831,7.168,4.52
				c-10.24-35.976-31.773-53.111-31.773-53.111S108.53,17.956,98.281,53.841c1.094-0.812,2.221-1.582,3.377-2.309
				C110.779,20.439,128.437,5.612,128.437,5.612z"/>
			
				<linearGradient id="SVGID_35_" gradientUnits="userSpaceOnUse" x1="270.8096" y1="19.4282" x2="310.5713" y2="19.4282" gradientTransform="matrix(1 0 0 -1 -156 48)">
				<stop  offset="0" style="stop-color:#080808"/>
				<stop  offset="0.9613" style="stop-color:#68605E"/>
				<stop  offset="1" style="stop-color:#6C6461"/>
			</linearGradient>
			<path fill="url(#SVGID_35_)" d="M128.437,5.612c0,0-17.657,14.828-26.779,45.92c2.257-1.419,4.628-2.674,7.097-3.748
				c8.748-23.658,22.24-34.988,22.24-34.988s13.961,11.712,22.692,36.192c0.308,0.153,0.611,0.308,0.914,0.467
				C145.317,19.78,128.437,5.612,128.437,5.612z"/>
			
				<linearGradient id="SVGID_36_" gradientUnits="userSpaceOnUse" x1="284.1289" y1="-99.2612" x2="284.1289" y2="-46.3674" gradientTransform="matrix(1 0 0 -1 -156 48)">
				<stop  offset="0" style="stop-color:#080808"/>
				<stop  offset="0.9613" style="stop-color:#68605E"/>
				<stop  offset="1" style="stop-color:#6C6461"/>
			</linearGradient>
			<path fill="url(#SVGID_36_)" d="M128.437,5.612c0,0-17.657,14.828-26.779,45.92c2.257-1.419,4.628-2.674,7.097-3.748
				c8.748-23.658,22.24-34.988,22.24-34.988s13.961,11.712,22.692,36.192c0.308,0.153,0.611,0.308,0.914,0.467
				C145.317,19.78,128.437,5.612,128.437,5.612z"/>
			
				<linearGradient id="SVGID_37_" gradientUnits="userSpaceOnUse" x1="270.8096" y1="17.1094" x2="310.571" y2="17.1094" gradientTransform="matrix(1 0 0 -1 -156 48)">
				<stop  offset="0" style="stop-color:#080808"/>
				<stop  offset="0.9613" style="stop-color:#68605E"/>
				<stop  offset="1" style="stop-color:#6C6461"/>
			</linearGradient>
			<path fill="url(#SVGID_37_)" d="M119.228,39.059c1.285-2.351,2.549-4.315,3.66-5.88c1.07-1.588,2.065-2.732,2.719-3.514
				c0.668-0.776,1.054-1.16,1.054-1.16s-0.3,0.456-0.792,1.342c-0.496,0.889-1.172,2.213-1.973,3.92
				c-0.814,1.696-1.685,3.812-2.631,6.244c-0.517,1.349-1.027,2.812-1.539,4.365c3.301-0.641,6.709-0.981,10.196-0.981
				c8.542,0,16.611,2.016,23.765,5.592c-8.731-24.48-22.692-36.192-22.692-36.192s-13.492,11.33-22.24,34.988
				c2.384-1.037,4.857-1.902,7.406-2.585C117.171,42.938,118.208,40.882,119.228,39.059z"/>
			
				<linearGradient id="SVGID_38_" gradientUnits="userSpaceOnUse" x1="287.2207" y1="-99.2632" x2="287.2207" y2="-46.3681" gradientTransform="matrix(1 0 0 -1 -156 48)">
				<stop  offset="0" style="stop-color:#080808"/>
				<stop  offset="0.9613" style="stop-color:#68605E"/>
				<stop  offset="1" style="stop-color:#6C6461"/>
			</linearGradient>
			<path fill="url(#SVGID_38_)" d="M119.228,39.059c1.285-2.351,2.549-4.315,3.66-5.88c1.07-1.588,2.065-2.732,2.719-3.514
				c0.668-0.776,1.054-1.16,1.054-1.16s-0.3,0.456-0.792,1.342c-0.496,0.889-1.172,2.213-1.973,3.92
				c-0.814,1.696-1.685,3.812-2.631,6.244c-0.517,1.349-1.027,2.812-1.539,4.365c3.301-0.641,6.709-0.981,10.196-0.981
				c8.542,0,16.611,2.016,23.765,5.592c-8.731-24.48-22.692-36.192-22.692-36.192s-13.492,11.33-22.24,34.988
				c2.384-1.037,4.857-1.902,7.406-2.585C117.171,42.938,118.208,40.882,119.228,39.059z"/>
			
				<linearGradient id="SVGID_39_" gradientUnits="userSpaceOnUse" x1="258.4277" y1="17.1094" x2="308.3529" y2="17.1094" gradientTransform="matrix(1 0 0 -1 -156 48)">
				<stop  offset="0" style="stop-color:#080808"/>
				<stop  offset="0.9613" style="stop-color:#68605E"/>
				<stop  offset="1" style="stop-color:#6C6461"/>
			</linearGradient>
			<path fill="url(#SVGID_39_)" d="M119.228,39.059c1.285-2.351,2.549-4.315,3.66-5.88c1.07-1.588,2.065-2.732,2.719-3.514
				c0.668-0.776,1.054-1.16,1.054-1.16s-0.3,0.456-0.792,1.342c-0.496,0.889-1.172,2.213-1.973,3.92
				c-0.814,1.696-1.685,3.812-2.631,6.244c-0.517,1.349-1.027,2.812-1.539,4.365c3.301-0.641,6.709-0.981,10.196-0.981
				c8.542,0,16.611,2.016,23.765,5.592c-8.731-24.48-22.692-36.192-22.692-36.192s-13.492,11.33-22.24,34.988
				c2.384-1.037,4.857-1.902,7.406-2.585C117.171,42.938,118.208,40.882,119.228,39.059z"/>
			
				<linearGradient id="SVGID_40_" gradientUnits="userSpaceOnUse" x1="270.8096" y1="11.1475" x2="310.571" y2="11.1475" gradientTransform="matrix(1 0 0 -1 -156 48)">
				<stop  offset="0" style="stop-color:#080808"/>
				<stop  offset="0.9613" style="stop-color:#68605E"/>
				<stop  offset="1" style="stop-color:#6C6461"/>
			</linearGradient>
			<path fill="url(#SVGID_40_)" d="M123.896,33.768c0.8-1.708,1.477-3.031,1.973-3.92c0.492-0.887,0.792-1.342,0.792-1.342
				s-0.386,0.383-1.054,1.16c-0.653,0.782-1.648,1.926-2.719,3.514c-1.111,1.565-2.375,3.53-3.66,5.88
				c-1.02,1.823-2.057,3.879-3.067,6.14c1.173-0.313,2.362-0.588,3.565-0.822c0.512-1.553,1.021-3.016,1.539-4.365
				C122.211,37.58,123.08,35.464,123.896,33.768z"/>
			
				<linearGradient id="SVGID_41_" gradientUnits="userSpaceOnUse" x1="277.4102" y1="-99.2563" x2="277.4102" y2="-46.3648" gradientTransform="matrix(1 0 0 -1 -156 48)">
				<stop  offset="0" style="stop-color:#080808"/>
				<stop  offset="0.9613" style="stop-color:#68605E"/>
				<stop  offset="1" style="stop-color:#6C6461"/>
			</linearGradient>
			<path fill="url(#SVGID_41_)" d="M123.896,33.768c0.8-1.708,1.477-3.031,1.973-3.92c0.492-0.887,0.792-1.342,0.792-1.342
				s-0.386,0.383-1.054,1.16c-0.653,0.782-1.648,1.926-2.719,3.514c-1.111,1.565-2.375,3.53-3.66,5.88
				c-1.02,1.823-2.057,3.879-3.067,6.14c1.173-0.313,2.362-0.588,3.565-0.822c0.512-1.553,1.021-3.016,1.539-4.365
				C122.211,37.58,123.08,35.464,123.896,33.768z"/>
			
				<linearGradient id="SVGID_42_" gradientUnits="userSpaceOnUse" x1="258.4277" y1="11.1475" x2="308.3529" y2="11.1475" gradientTransform="matrix(1 0 0 -1 -156 48)">
				<stop  offset="0" style="stop-color:#080808"/>
				<stop  offset="0.9613" style="stop-color:#68605E"/>
				<stop  offset="1" style="stop-color:#6C6461"/>
			</linearGradient>
			<path fill="url(#SVGID_42_)" d="M123.896,33.768c0.8-1.708,1.477-3.031,1.973-3.92c0.492-0.887,0.792-1.342,0.792-1.342
				s-0.386,0.383-1.054,1.16c-0.653,0.782-1.648,1.926-2.719,3.514c-1.111,1.565-2.375,3.53-3.66,5.88
				c-1.02,1.823-2.057,3.879-3.067,6.14c1.173-0.313,2.362-0.588,3.565-0.822c0.512-1.553,1.021-3.016,1.539-4.365
				C122.211,37.58,123.08,35.464,123.896,33.768z"/>
			
				<radialGradient id="SVGID_43_" cx="283.9014" cy="-44.3989" r="64.6557" gradientTransform="matrix(0.9989 0 0 -1 -156.2159 48)" gradientUnits="userSpaceOnUse">
				<stop  offset="0" style="stop-color:#7B726E"/>
				<stop  offset="1" style="stop-color:#6C6461"/>
			</radialGradient>
			<path fill="url(#SVGID_43_)" d="M123.896,33.768c0.8-1.708,1.477-3.031,1.973-3.92c0.492-0.887,0.792-1.342,0.792-1.342
				s-0.386,0.383-1.054,1.16c-0.653,0.782-1.648,1.926-2.719,3.514c-1.111,1.565-2.375,3.53-3.66,5.88
				c-1.02,1.823-2.057,3.879-3.067,6.14c1.173-0.313,2.362-0.588,3.565-0.822c0.512-1.553,1.021-3.016,1.539-4.365
				C122.211,37.58,123.08,35.464,123.896,33.768z"/>
		</g>
	</g>
	
		<linearGradient id="SVGID_44_" gradientUnits="userSpaceOnUse" x1="286.2051" y1="-124.9834" x2="286.2051" y2="-98.2702" gradientTransform="matrix(1 0 0 -1 -156 48)">
		<stop  offset="0" style="stop-color:#580E0E"/>
		<stop  offset="1" style="stop-color:#ED2224"/>
	</linearGradient>
	<path fill="url(#SVGID_44_)" d="M154.961,190.495c-2.682-1.305-5.478-2.416-8.372-3.317c-3.412-1.06-6.967-1.824-10.619-2.257
		c-2.356-0.285-4.762-0.43-7.197-0.43c-3.381,0-6.693,0.28-9.914,0.815c-0.443,0.071-0.877,0.153-1.316,0.233l-3.93,0.889
		c-0.842,0.219-1.678,0.453-2.504,0.713c-1.934,0.591-3.819,1.279-5.659,2.059c0.961-2.531,1.976-4.938,3.026-7.205
		c0.094-0.203,0.188-0.408,0.281-0.605c0.773-0.28,1.557-0.536,2.352-0.78c0.826-0.26,1.662-0.493,2.504-0.713l3.93-0.888
		c0.439-0.081,0.873-0.162,1.316-0.234c3.22-0.533,6.533-0.814,9.914-0.814c2.437,0,4.841,0.144,7.197,0.429
		c3.652,0.435,7.207,1.198,10.619,2.257c1.729,0.541,3.428,1.153,5.085,1.84C152.823,184.997,153.927,187.667,154.961,190.495z"/>
	
		<linearGradient id="SVGID_45_" gradientUnits="userSpaceOnUse" x1="258.7148" y1="-119.064" x2="306.3994" y2="-119.064" gradientTransform="matrix(1 0 0 -1 -156 48)">
		<stop  offset="0" style="stop-color:#580E0E"/>
		<stop  offset="1" style="stop-color:#ED2224"/>
	</linearGradient>
	<path fill="url(#SVGID_45_)" d="M151.674,182.484c-1.657-0.687-3.354-1.299-5.085-1.84c-3.412-1.06-6.967-1.823-10.619-2.257
		c-2.356-0.285-4.762-0.428-7.197-0.428c-3.381,0-6.693,0.279-9.914,0.813c-0.443,0.072-0.877,0.153-1.316,0.234l-3.93,0.888
		c-0.842,0.219-1.678,0.453-2.504,0.713c-0.793,0.244-1.577,0.5-2.352,0.78c0.998-2.146,2.027-4.169,3.063-6.075
		c8.712-15.96,18.134-23.67,18.134-23.67s7.348,6.003,15.063,18.381c1.787,2.874,3.601,6.09,5.34,9.651
		C150.802,180.589,151.245,181.526,151.674,182.484z"/>
</g>
<path opacity="0.9" fill="#038D80" d="M132.258,140.52c0,0,0.327,0.266,0.846,0.762c0.536,0.498,1.229,1.228,2.043,2.155
	c1.6,1.858,3.473,4.51,4.929,7.696c0.738,1.593,1.396,3.317,1.88,5.143c0.504,1.824,0.83,3.748,0.776,5.738
	c-0.049,1.989-0.562,4.046-1.153,6.135c-0.598,2.089-1.186,4.214-1.537,6.334c-0.698,4.244-1.463,8.492-2.326,12.475
	c-0.452,1.989-0.89,3.913-1.307,5.736c-0.438,1.824-0.854,3.549-1.237,5.141c-0.375,1.592-0.798,3.051-1.13,4.345
	c-0.333,1.294-0.644,2.421-0.92,3.349c-0.549,1.857-0.863,2.919-0.863,2.919h-2.223c0,0-0.314-1.062-0.865-2.919
	c-0.275-0.928-0.584-2.055-0.921-3.349c-0.331-1.294-0.751-2.753-1.128-4.345c-0.383-1.592-0.8-3.316-1.239-5.141
	c-0.415-1.823-0.853-3.747-1.306-5.736c-0.861-3.982-1.627-8.23-2.324-12.474c-0.354-2.122-0.94-4.243-1.538-6.335
	c-0.593-2.089-1.103-4.145-1.151-6.135c-0.057-1.989,0.27-3.914,0.773-5.737c0.488-1.825,1.143-3.551,1.883-5.145
	c1.453-3.185,3.327-5.836,4.924-7.695c0.817-0.928,1.51-1.657,2.045-2.155c0.52-0.496,0.846-0.762,0.846-0.762H132.258z"/>
<path fill="#006666" d="M132.442,128.88c0,0,0.327,0.266,0.846,0.762c0.536,0.498,1.229,1.228,2.043,2.155
	c1.6,1.858,3.473,4.51,4.929,7.696c0.738,1.593,1.396,3.317,1.88,5.143c0.504,1.824,0.83,3.748,0.776,5.739
	c-0.049,1.988-0.562,4.045-1.153,6.135c-0.598,2.088-1.186,4.213-1.537,6.333c-0.698,4.245-1.463,8.492-2.326,12.474
	c-0.452,1.99-0.89,3.914-1.307,5.736c-0.438,1.824-0.854,3.551-1.237,5.142c-0.375,1.592-0.798,3.05-1.13,4.345
	c-0.333,1.293-0.644,2.421-0.92,3.349c-0.549,1.856-0.863,2.919-0.863,2.919h-2.223c0,0-0.314-1.063-0.865-2.919
	c-0.275-0.928-0.584-2.056-0.921-3.349c-0.331-1.295-0.751-2.753-1.128-4.345c-0.383-1.591-0.8-3.317-1.239-5.142
	c-0.415-1.822-0.853-3.746-1.306-5.736c-0.861-3.981-1.627-8.229-2.324-12.473c-0.354-2.122-0.94-4.244-1.538-6.334
	c-0.593-2.09-1.103-4.146-1.151-6.135c-0.057-1.99,0.27-3.915,0.773-5.738c0.488-1.825,1.143-3.551,1.883-5.145
	c1.453-3.185,3.327-5.836,4.924-7.695c0.817-0.928,1.51-1.657,2.045-2.155c0.52-0.496,0.846-0.762,0.846-0.762H132.442z"/>
<linearGradient id="SVGID_46_" gradientUnits="userSpaceOnUse" x1="290.3887" y1="-92.3481" x2="290.3887" y2="-126.0638" gradientTransform="matrix(1 0 0 -1 -156 48)">
	<stop  offset="0" style="stop-color:#FCDEE0"/>
	<stop  offset="0.0408" style="stop-color:#FCDBDC"/>
	<stop  offset="0.7607" style="stop-color:#00A89C"/>
</linearGradient>
<path fill="url(#SVGID_46_)" d="M130.395,186.141c0,0,0.082-0.188,0.237-0.539c0.143-0.357,0.333-0.885,0.609-1.539
	c0.237-0.668,0.524-1.48,0.854-2.412c0.285-0.941,0.606-2.004,0.957-3.161c0.354-1.155,0.609-2.438,0.973-3.769
	c0.387-1.327,0.575-2.77,0.895-4.236c0.145-0.734,0.293-1.482,0.444-2.238c0.102-0.764,0.203-1.537,0.307-2.315
	c0.108-0.778,0.218-1.563,0.328-2.351c0.117-0.785,0.229-1.576,0.255-2.373c0.121-1.591,0.242-3.18,0.361-4.746
	c0.028-0.381,0.056-0.759,0.083-1.137c0-0.393,0.001-0.782,0.001-1.169c0.002-0.775,0.003-1.54,0.006-2.293s0.007-1.492,0.011-2.217
	c-0.028-0.717-0.112-1.407-0.163-2.086c-0.057-0.679-0.111-1.338-0.164-1.978c-0.055-0.639-0.062-1.263-0.191-1.851
	c-0.211-1.178-0.377-2.266-0.524-3.234c-0.063-0.486-0.148-0.936-0.269-1.344c-0.104-0.412-0.2-0.79-0.287-1.131
	c-0.341-1.37-0.514-2.166-0.514-2.166s0.32,0.749,0.844,2.083c0.129,0.334,0.272,0.705,0.429,1.108
	c0.171,0.4,0.313,0.843,0.437,1.323c0.271,0.954,0.578,2.033,0.883,3.219c0.313,1.186,0.443,2.508,0.668,3.895
	c0.097,0.693,0.227,1.412,0.302,2.14c0.029,0.725,0.059,1.464,0.089,2.216c0.028,0.754,0.056,1.518,0.085,2.293
	c0.014,0.387,0.028,0.775,0.043,1.168c-0.011,0.457-0.046,0.808-0.068,1.219c-0.102,1.591-0.204,3.205-0.307,4.82
	c-0.038,0.81-0.161,1.611-0.29,2.41c-0.122,0.799-0.243,1.595-0.364,2.385c-0.127,0.788-0.251,1.57-0.374,2.343
	c-0.183,0.765-0.363,1.52-0.541,2.263c-0.365,1.482-0.664,2.926-1.14,4.254c-0.443,1.335-0.815,2.607-1.281,3.748
	c-0.462,1.143-0.888,2.188-1.306,3.1c-0.446,0.901-0.834,1.688-1.153,2.334c-0.349,0.639-0.648,1.127-0.84,1.461
	C130.507,185.966,130.395,186.141,130.395,186.141z"/>
</svg>
