<?xml version="1.0" encoding="utf-8"?>
<!-- Generator: Adobe Illustrator 16.0.0, SVG Export Plug-In . SVG Version: 6.00 Build 0)  -->
<!DOCTYPE svg PUBLIC "-//W3C//DTD SVG 1.1//EN" "http://www.w3.org/Graphics/SVG/1.1/DTD/svg11.dtd">
<svg version="1.1" id="Layer_1" xmlns="http://www.w3.org/2000/svg" xmlns:xlink="http://www.w3.org/1999/xlink" x="0px" y="0px"
	 width="259px" height="293px" viewBox="0 0 259 293" enable-background="new 0 0 259 293" xml:space="preserve">
<g>
	<g>
		<path fill-rule="evenodd" clip-rule="evenodd" fill="#343239" d="M219.017,75.67c2.883-1.456,5.204-6.58,6.004-0.648
			c2.556-1.288,8.208-4.274,7.844,1.568c-0.085,1.363,3.198-1.455,5.355,3.305c1.145,2.534-2.055,1.828,1.305,2.1
			c0.531,0.043,6.792,5.726,3.569,8.989c-0.159,0.163,3.004,3.923,3.69,6.208c2.59,8.604-3.213,4.527-0.284,7.83
			c4.303,4.852-2.107,10.716-4.144,9.378c-1.65,0.675,7.392,11.87-2.504,14.251c-2.179,0.524,0.298-0.17,1.343,4.783
			c1.188,5.636-6.176,3.119-5.885,3.617c0.851,1.458,0.902,7.266-2.167,8.814c-3.717,1.875-1.164-3.033-2.676,3.861
			c-0.819,3.75-3.954,10.971-8.992,8.33c-1.495-0.783-0.944,0.649-2.654,4.213c-1.027,2.145-2.973,5.467-5.344,4.346
			c-0.042-0.022-4.826,9.4-9.014,5.805c-0.376-0.322-1.115,4.178-6.428,2.573c-0.896-0.27-4.433,3.979-7.218-1.04
			c-2.77,0.494-1.015,2.631-4.856-1.188c-1.62-1.611-3.146-1.384-3.149-5.213c-0.002-0.544-2.828-6.519,1.024-7.048
			c2.884-0.396,2.171,6.132,3.557,3.085c1.146-2.517,2.994-3.56,4.768-0.813c1.505,2.335,1.281-6.271,5.917-1.139
			c0.981,1.09-0.825-6.409,5.275-1.333c1.412,1.175-0.247-6.795,5.464-1.864c1.034,0.893,0.042-4.062,2.491-3.193
			c3.114,1.109-3.049-5.191,2.571-6.066c1.783-0.278,0.904,2.272,0.04-1.692c-0.834-3.835,4.097-3.174,3.519-4.222
			c-2.199-3.986,0.61-6.033,4.072-6.961c0.141-0.037-1.228-1.416-0.203-3.088c2.123-3.464,4.717-1.066,4.033-4.135
			c-1.031-4.651,5.863-4.053,5.38-4.963c-1.813-3.427-0.016-4.799,2.786-5.402c0.01,0.015-1.945-1.729-0.535-3.798
			c3.278-4.808,2.39,0.622,0.555-5.001c-0.668-2.047,0.733-3.17,1.198-4.044c-1.314,0.985-3.406-3.841-2.127-5.792
			c0.042-0.001,0.677,4.213-2.089,0.071c-2.688-4.028-3.042-3.72-1.889-7.237c-1.77,0.454-1.414,2.101-3.45-2.509
			c-1.531-3.474,1.896,0.864-1.046-0.302c-1.873-0.742-1.657-3.905-2.617-3.311c-4.619,2.859-5.506-3.801-3.844-7.744
			C217.846,78.616,218.978,75.689,219.017,75.67z"/>
		<path fill-rule="evenodd" clip-rule="evenodd" fill="#0B050D" d="M228.497,73.482c-0.506,3.36-2.511,19.521,9.59,10.65
			c0.898-0.659,1.696-1.135,2.405-1.425c1.792,1.632,5.139,5.705,2.602,8.277c-0.01,0.013-0.002,0.048,0.024,0.104
			c-3.032,1.473-7.318,3.708-5.713,10.787c1.369,6.046,6.575,6.021,10.434,5.658c0.919,4.12-3.79,7.977-5.482,6.866
			c-0.845,0.346,1.109,3.443,1.896,6.708l-11.72-5.234c0.075-0.306,0.214-0.627,0.438-0.957c3.278-4.808,2.39,0.622,0.555-5.001
			c-0.668-2.047,0.733-3.17,1.198-4.044c-1.314,0.985-3.406-3.841-2.127-5.792c0.042-0.001,0.677,4.213-2.089,0.071
			c-2.688-4.028-3.042-3.72-1.889-7.237c-1.77,0.454-1.414,2.101-3.45-2.509c-1.531-3.474,1.896,0.864-1.046-0.302
			c-1.873-0.742-1.657-3.905-2.617-3.311c-0.408,0.252-0.785,0.43-1.137,0.542l-1.464-4.496l3.891-10.26
			c1.041-0.722,1.823-0.522,2.224,2.445C225.925,74.567,227.219,73.896,228.497,73.482z"/>
		<path fill-rule="evenodd" clip-rule="evenodd" fill="#DBD9D7" d="M49.49,206.827c0.049-0.258,0.082-0.531,0.121-0.799
			c3.572-2.511,8.591-6.128,14.046-9.377c13.421-7.989,21.106-12.494,31.466,7.399c13.022,25.019,32.574,19.385,49.678-0.383
			l-41.3-39.39c-1.512-20.906-37.286-12.824-41.189-10.755c-5.909,3.132-18.984,5.518-25.159,11.962
			c-12.218-20.369-29.363-33.715-33.042-8.833c-3.368,22.775,13.128,42.778,31.425,52.559
			C43.426,213.428,49.819,205.048,49.49,206.827z"/>
		<path fill-rule="evenodd" clip-rule="evenodd" fill="#646467" d="M48.787,99.643c-1.543,14.104-18.238,25.819-13.236,39.869
			c3.509,9.85,16.087,17.077,25.007,10.141c6.204-4.824,9.716-10.448,19.665-6.105c6.014,2.625,16.711,10.247,22.729,1.694
			c4.461-6.336,4.518-11.283,1.744-19.004c-1.982-5.508-10.231-8.361-14.88-15.465c-1.296-1.983-1.925,2.01-2.111,2.901
			c1.154,0.817,2.666,5.403,8.806,8.8c13.544,7.505,4.89,31.663-11.603,18.547c-17.072-13.574-24.651,8.906-37.602,3.255
			c-20.516-8.952,8.773-29.312,5.346-43.743C52.034,97.931,48.797,99.554,48.787,99.643z"/>
		<path fill-rule="evenodd" clip-rule="evenodd" fill="#A6A9AA" d="M134.264,119.512c-10.273,9.937-7.515,28.872-27.841,24.732
			c-8.166-1.661-12.259,2.692-34.44-13.177c-11.41-8.162-21.44-19.836-10.408-32.223c8.579-9.633,9.366-10.522,24.682,1.953
			c2.049,3.022,13.013,1.203,11.237,6.912c-1.666,5.351,2.809-2.943,14.431-2.287c0.173,0.009,13.622-13.66,21.841,9.022
			C133.837,114.649,134.368,119.41,134.264,119.512z"/>
		<path fill-rule="evenodd" clip-rule="evenodd" fill="#343239" d="M44.268,111.877c0.847,7.845-7.465,15.95-6.419,24.154
			c1.307,10.245,8.641,16.022,18.702,12.159c2.238-0.857,8.709-6.567,13.504-8.165c7.053-2.347,12.681-0.557,14.782,5.787
			c5.935,2.954,13.438,6.075,18.116-0.57c1.908-2.708,3.008-5.162,3.428-7.687c-0.183-2.07-0.69-3.773-1.727-4.473
			c-0.526-0.358-1.065-0.763-1.616-1.208c1.345,8.972-6.411,18.466-18.129,9.147c-17.072-13.574-24.651,8.906-37.602,3.255
			c-20.516-8.952,8.773-29.312,5.346-43.743c-0.619-2.603-3.855-0.979-3.866-0.891C48.322,103.895,46.478,107.931,44.268,111.877z"
			/>
		<path fill-rule="evenodd" clip-rule="evenodd" fill="#343239" d="M82.188,96.28c-0.847-14.321-19.126-16.842-27.811-7.013
			c-5.765,6.521-5.09,8.646-1.08,18.131c0.219,0.517,4.53,8.073,5.7,5.22c3.94-9.605,12.718-14.354,22.635-16.141
			C81.948,96.42,82.195,96.418,82.188,96.28z"/>
		<path fill-rule="evenodd" clip-rule="evenodd" fill="#343239" d="M75.651,87.09c0.068-3.716-6.656-15.162-12.078-14.271
			c-5.711,0.939-3.59,3.292-2.649,7.001c0.009,0.037,3.842,8.238,3.921,8.364C66.601,91.021,75.574,91.506,75.651,87.09z"/>
		<path fill-rule="evenodd" clip-rule="evenodd" fill="#A6A9AA" d="M82.59,150.26c10.822,7.676,8.313,33.77-7.279,33.481
			c-3.344-0.063-8.478-11.553-6.221,1.892c0.443,2.643-3.596,0.839-5.122-5.12c-0.078-0.299-2.447-4.303-3.202-4.36
			c-0.562-1.636-3.431,0.357-1.506,7.605c4.5,16.959-9.72,12.578-14.236,4.645c-5.42-9.534-10.365-20.047-13.206-30.921
			c-11.392-15.335-24.541-22.25-27.708-0.829c-0.19,1.289-0.315,2.568-0.38,3.838l18.401,39.315
			c4.148,3.72,8.719,6.901,13.404,9.405c7.89,4.217,14.283-4.163,13.954-2.384c0.049-0.258,0.082-0.531,0.121-0.799
			c3.572-2.511,8.591-6.128,14.046-9.377c13.421-7.989,21.106-12.494,31.466,7.399c0.167,0.328,0.342,0.646,0.515,0.966
			l25.867-23.569l-18.003-17.169C102.714,153.387,92.626,150.365,82.59,150.26z"/>
		<path fill-rule="evenodd" clip-rule="evenodd" fill="#7E8080" d="M97.654,153.914c0.908,9.499-0.576,22.789-9.373,27.962
			c-11.996,7.055-20.882,6.462-31.586,17.382c-2.578,2.623-4.413,4.466-5.582,5.712c3.414-2.411,7.814-5.501,12.543-8.318
			c12.826-7.636,20.416-12.087,30.105,4.904l25.721-22.034l-15.982-15.243C103.148,159.386,100.916,156.079,97.654,153.914z"/>
		<path fill-rule="evenodd" clip-rule="evenodd" fill="#343239" d="M64.172,86.875c-1.066-3.561-10.946-12.425-15.842-9.929
			c-5.157,2.628-2.421,4.225-0.398,7.474c0.02,0.033,6.163,6.683,6.276,6.78C56.742,93.368,65.437,91.106,64.172,86.875z"/>
		<path fill-rule="evenodd" clip-rule="evenodd" fill="#343239" d="M55.861,102.921c-3.714,0.107-15.231-6.492-14.398-11.926
			c0.877-5.721,3.25-3.624,6.972-2.723c0.037,0.009,8.278,3.754,8.406,3.831C59.696,93.826,60.28,102.793,55.861,102.921z"/>
		<path fill-rule="evenodd" clip-rule="evenodd" fill="#DBD9D7" d="M180.069,84.284c16.114,5.566,65.19,22.513,67.719,35.685
			c1.2,6.28-2.714,19.293-7.829,27.133c-19.627,30.1-28.011,93.802-76.392,64.274c-10.636-6.494-1.388-10.381,4.61-24.675
			c11.759-28.043,22.206-36.764,33.131-58.121c6.032-11.79-20.254-5.501-17.068-18.195
			C184.536,109.222,179.924,84.234,180.069,84.284z"/>
		<path fill-rule="evenodd" clip-rule="evenodd" fill="#8E9595" d="M88.938,102.299c5.575,6.145,0.314,7.485,4.215,12.046
			c1.717,2.003,6.99-4.636,7.163-1.08c4.342,3.083-1.639,14.958-13.065,16.416c-24.371,3.106-7.417-10.779-18.443-5.862
			c-1.974,0.882-2.809,1.827-5.376-0.077c2.491,2.662,5.471,5.121,8.552,7.327c22.181,15.869,26.274,11.516,34.44,13.177
			c5.614,1.144,9.466,0.523,12.318-1.178c0.444-7.588,0.208-17.5,2.119-24.072c0.484-1.664,2.957-14.32,5.833-14.457
			c-0.115-0.895-1.646-1.929-3.912-3.027c-5.751-1.119-10.751,3.917-10.856,3.913c-11.622-0.656-16.097,7.638-14.431,2.287
			C98.844,103.357,92.798,103.379,88.938,102.299z"/>
		<path fill-rule="evenodd" clip-rule="evenodd" fill="#A6A9AA" d="M182.998,91.066c16.426,1.584,58.481,16.51,59.167,29.768
			c0.303,5.892-2.503,17.8-7.221,25.033c-18.109,27.768-28.741,93.611-73.375,66.367c-9.813-5.988,1.614-16.644,7.147-29.835
			c10.852-25.87,20.491-33.915,30.572-53.62c5.565-10.875-18.687-5.074-15.747-16.786C183.811,110.919,182.865,91.02,182.998,91.066
			z"/>
		<path fill-rule="evenodd" clip-rule="evenodd" fill="#4E4C51" d="M198.088,97.21c16.116,5.565,32.731,9.269,35.257,22.444
			c1.205,6.279-2.715,19.293-7.826,27.13c-19.631,30.103-28.012,93.802-76.392,64.273c-10.637-6.491-1.392-10.376,4.606-24.675
			c11.759-28.039,22.209-36.761,33.133-58.118c6.034-11.79,5.949-10.414,9.133-23.107C196.293,103.994,197.945,97.16,198.088,97.21z
			"/>
		<path fill-rule="evenodd" clip-rule="evenodd" fill="#0B050D" d="M217.473,104.034c-5.301,2.161-3.216,14.021,5.8,20.529
			c3.15,2.273,6.2,4.528,8.858,6.9c-1.446,5.368-3.855,11.097-6.612,15.323c-8.094,12.413-14.277,30.536-22.142,45.483
			c-5.604,0.461-24.104-5.417-21.126,14.163c0.713,4.671,1.261,7.529,1.108,9.389c-5.447,2.853-11.774,3.748-19.31,1.848
			l2.602-31.93l23.389-63.594c2.708-5.214,3.361-6.787,5.325-14.478l1.99-5.404l5.921-3.311
			C208.255,100.595,213.132,102.175,217.473,104.034z"/>
		<path fill-rule="evenodd" clip-rule="evenodd" fill="#FFFFFF" d="M127.881,255.421c-0.55-0.434-1.149-0.848-1.776-1.249
			c3.05-0.765,0.069-1.983-0.688-16.519c-0.836-16.035,8.145-13.353,31.208-13.239c28.998,0.145,23.854-32.174,14.069-57.209
			c-11.585,6.032-23.56,10.165-35.145,16.197c-11.396-0.544-10.374,0.152-19.791-2.66c-19.741-8.646-30.235,32.918-30.222,37.463
			c0.019,6.877-4.08,19.914-1.177,28.621c-24.386,1.35-44.745,10.549-23.875,25.82c19.105,13.982,45.208,8.566,62.874-3.391
			C130.978,264.101,126.419,254.269,127.881,255.421z"/>
		<path fill-rule="evenodd" clip-rule="evenodd" fill="#C1C1C0" d="M99.339,185.389c21.332,2.313,62.748,32.717,23.614,38.857
			c-2.432,0.38-4.17-2.15-9.462-1.476c1.206,9.455,12.282,4.196,6.177,10.757c-0.98,1.05-18.642-0.32-5.017,5.032
			c5.819,2.285,12.087,18.051-10.617,14.585c-16.092-2.456-17.768,2.833-10.239,3.541c24.993,2.349,9.098,13.474-10.152,15.928
			c-10.663,1.359-22.909-2.8-31.563-9.868c0.777,2.938,3.406,6.245,8.405,9.901c19.105,13.982,45.208,8.566,62.874-3.391
			c7.619-5.155,3.061-14.987,4.522-13.835c-0.55-0.434-1.149-0.848-1.776-1.249c3.05-0.765,0.069-1.983-0.688-16.519
			c-0.836-16.035,8.145-13.353,31.208-13.239c5.503,0.028,9.775-1.115,13.021-3.156c0.382-10.354,12.258-34.923,4.055-33.877
			c-6.646,0.849-19.337-2.88-32.625-6.714c-1.849,0.873-3.692,1.78-5.526,2.735c-11.396-0.544-10.374,0.152-19.791-2.66
			C109.27,177.902,103.786,180.479,99.339,185.389z"/>
		<polygon fill-rule="evenodd" clip-rule="evenodd" fill="#7E8080" points="242.29,139.24 230.854,138.421 229.516,142.735 
			240.931,143.181 		"/>
		<polygon fill-rule="evenodd" clip-rule="evenodd" fill="#8E9595" points="220.022,186.398 209.047,183.094 206.795,187.007 
			217.835,189.947 		"/>
		<path fill-rule="evenodd" clip-rule="evenodd" fill="#4E4C51" d="M103.289,166.516c-4.235-3.809-14.846-3.854-5.716,4.795
			c18.354,17.396,51.578,31.923,73.394,31.48c10.979-0.225,8.248-12.642,2.782-14.288
			C148.027,180.743,127.043,178.119,103.289,166.516z"/>
		<path fill-rule="evenodd" clip-rule="evenodd" fill="#FFFFFF" d="M183.752,109.551l-59.078-4.302
			c-21.999,9.949-1.735,34.368-23.432,47.393c-4.134,2.48-6.007,12.596,1.621,18.555c16.979,13.264,28.448,19.437,49.156,26.047
			c17.194,5.487,23.158,2.463,31.404-16.431c9.068-20.775,9.211-49.511,0.638-69.766
			C184.026,110.959,183.762,109.597,183.752,109.551z"/>
		<path fill-rule="evenodd" clip-rule="evenodd" fill="#FFFFFF" d="M184.483,109.871c12.86,6.232,21.281,0.387,32.798,17.646
			c3.125,4.688,32.598,7.156,15.029,43.813c-6.063,12.65-26.828,20.009-42.252,13.904c-11.993-4.744-13.167-12.346-6.715-31.018
			c6.687,1.744-4.543-4.321,4.167-0.068c5.709,2.79,0.629-3.818,10.437-4.301c5.598-0.277-15.64-3.015-19.018-14.153
			c-0.052-0.167-17.508-8.098,0.966-23.613C180.061,111.941,184.353,109.806,184.483,109.871z"/>
		<path fill-rule="evenodd" clip-rule="evenodd" fill="#DBD9D7" d="M190.232,139.81l-4.234-3.055
			c-5.63,8.097-1.379,6.749-8.149,15.496c-3.622,4.681-15.449,8.356-25.569,23.821c-5.24,8.007-42.917,13.064-28.744-30.535
			c1.15-3.536,1.48-27.542,1.104-21.48c-0.251,4.053-7.906,19.949-7.875,20.67c-0.236,0.211-9.163,29.445-19.116,15.552
			c-0.125,3.666,1.279,7.847,5.214,10.918c16.979,13.264,28.448,19.437,49.156,26.047c17.194,5.487,23.158,2.463,31.404-16.431
			C188.686,168.752,190.939,154.016,190.232,139.81z"/>
		<path fill-rule="evenodd" clip-rule="evenodd" fill="#DBD9D7" d="M195.511,113.255l-7.955,6.794
			c6.199-3.602,29.235-0.469,15.517,9.382c-4.42,3.174,2.252,5.351,3.341,8.514c0.099,0.02,12.292-4.881,9.315,3.708
			c-0.843,2.438-2.054-0.484,2.25,2.581c1.173,0.834-1.916,1.939,4.502,0.862c4.891-0.82,7.485,7.863,7.922,11.282
			c2.258,17.717-10.432,26.239-27.493,22.764c-8.232-1.676-15.865-14.203-11.011-21.653c1.061-1.628,5.614,4.045,3.083-1.977
			c-2.562-6.088,13.218,0.385,9.701-5.987c-0.827-1.499-5.04-1.614-9.395-1.338c3.089,1.107,4.758,1.557,2.659,1.661
			c-9.808,0.482-4.728,7.091-10.437,4.301c-1.244-0.606-2.08-1.003-2.621-1.242l-0.017,0.515c0.648,0.583,1.238,1.238-0.036,1.103
			l-0.565,16.9l3.872,12.982c0.605,0.285,1.245,0.563,1.915,0.828c15.424,6.104,36.188-1.254,42.252-13.904
			c17.568-36.657-11.904-39.126-15.029-43.813C209.379,115.673,202.933,114.708,195.511,113.255z"/>
		<g>
			<defs>
				<path id="SVGID_1_" d="M43.341,206.177c4.429-23.924-35.912-84.169-41.56-45.953c-3.084,20.859,12.025,39.179,28.78,48.135
					C37.787,212.221,43.643,204.548,43.341,206.177z"/>
			</defs>
			<use xlink:href="#SVGID_1_"  overflow="visible" fill-rule="evenodd" clip-rule="evenodd" fill="#FFFFFF"/>
			<clipPath id="SVGID_2_">
				<use xlink:href="#SVGID_1_"  overflow="visible"/>
			</clipPath>
			<g clip-path="url(#SVGID_2_)">
				<path fill-rule="evenodd" clip-rule="evenodd" fill="#DBD9D7" d="M17.962,156.514c1.819-0.24-0.081-2.895-2.535-3.201
					l-13.941,3.214l-0.432,3.563L17.962,156.514z"/>
				<path fill-rule="evenodd" clip-rule="evenodd" fill="#DBD9D7" d="M24.52,163.102c1.82-0.239-0.08-2.895-2.536-3.2l-25.566,5.231
					l-0.428,3.562L24.52,163.102z"/>
				<path fill-rule="evenodd" clip-rule="evenodd" fill="#DBD9D7" d="M28.61,170.849c1.82-0.238-0.079-2.894-2.536-3.199
					l-25.565,5.231l-0.429,3.56L28.61,170.849z"/>
				<path fill-rule="evenodd" clip-rule="evenodd" fill="#DBD9D7" d="M32.307,179.901c1.819-0.24-0.083-2.896-2.539-3.201
					l-25.565,5.233l-0.428,3.561L32.307,179.901z"/>
				<path fill-rule="evenodd" clip-rule="evenodd" fill="#DBD9D7" d="M35.022,196.188c1.818-0.241-0.082-2.896-2.538-3.202
					L6.918,198.22l-0.429,3.56L35.022,196.188z"/>
				<path fill-rule="evenodd" clip-rule="evenodd" fill="#DBD9D7" d="M35.973,205.292c1.817-0.241-0.083-2.897-2.537-3.202
					l-25.566,5.233l-0.429,3.561L35.973,205.292z"/>
				<path fill-rule="evenodd" clip-rule="evenodd" fill="#DBD9D7" d="M33.171,188.123c1.819-0.24-0.081-2.896-2.536-3.199
					l-25.567,5.229l-0.428,3.563L33.171,188.123z"/>
			</g>
		</g>
		<path fill-rule="evenodd" clip-rule="evenodd" fill="#646467" d="M199.979,114.632c-13.307,0.142-24.816,35.354-28.489,46.224
			c-2.063,6.104-4.188,24.141,0.446,28.293c-0.336,5.264,1.628,4.5-3.891,11.054c-0.885,1.05-8.39-1.449-9.222-0.646
			c-16.023-14.747,6.348-77.304,23.411-89.751C186.574,110.991,200.033,109.953,199.979,114.632z"/>
		<path fill-rule="evenodd" clip-rule="evenodd" fill="#4E4C51" d="M176.938,115.029c3.769,0.063,7.385,5.108,0.604,12.804
			c-1.69,1.919-8.462,13.406-9.216,16.237c-1.827,6.855-4.527,1.855-4.955,16.787c-0.129,4.511,0.934,22.948-1.018,25.767
			c-2.701,3.907-2.886,7.052-6.686,8.463c0.816,1.77,1.859,3.279,3.156,4.47c0.832-0.804,8.337,1.695,9.222,0.646
			c5.519-6.554,3.555-5.79,3.891-11.054c-4.634-4.152-2.509-22.189-0.446-28.293c3.673-10.869,15.183-46.082,28.489-46.224
			c0.054-4.679-13.405-3.641-17.744-4.827C180.508,111.064,178.728,112.845,176.938,115.029z"/>
		<path fill-rule="evenodd" clip-rule="evenodd" fill="#646467" d="M142.346,107.077c-10.183,0.61-20.282,30.373-23.493,39.563
			c-6.21,17.785-5.665,18.337-5.096,34.392c0.042,1.146-8.04-7.018-8.707-6.315c-7.725-9.189,12.715-57.839,26.222-68.838
			C134.549,106.707,142.561,103.175,142.346,107.077z"/>
		<path fill-rule="evenodd" clip-rule="evenodd" fill="#C0272D" d="M174.474,156.165c0.369-2.205,0.705-9.199-1.687-10.245
			c-4.627-2.018-9.437-2.36-9.297,3.706c0.24,10.22-0.735,26.152,3.346,35.497c2.256,5.163,12.47,9.016,10.343-5.251
			c-0.648-4.342,0.84-12.836-1.309-17.707C175.678,161.729,174.312,157.13,174.474,156.165z"/>
		<path fill-rule="evenodd" clip-rule="evenodd" fill="#343239" d="M186.319,154.373c-12.207-7.538-24.774,5.976-21.72,18.73
			c2.025,8.463,4.153,9.133,14.219,11.303c0.55,0.118,9.212,0.928,7.549-1.668c-5.6-8.74-4.439-18.657-0.205-27.799
			C186.3,154.649,186.437,154.445,186.319,154.373z"/>
		<path fill-rule="evenodd" clip-rule="evenodd" fill="#343239" d="M175.043,154.441c-3.006-2.189-16.234-3.267-18.62,1.684
			c-2.514,5.215,0.63,4.829,4.205,6.192c0.037,0.012,8.951,1.588,9.101,1.596C173.058,164.107,178.609,157.042,175.043,154.441z"/>
		<path fill-rule="evenodd" clip-rule="evenodd" fill="#4E4C51" d="M141.833,105.697l-2.525-0.481
			c-2.565,0.134-6.112,1.147-8.035,0.662c-1.069,0.87-2.182,1.979-3.322,3.282c-0.828,8.944-10.584,22.922-13.771,32.825
			c-0.438,1.365-5.102,17.353-7.274,27.899c-0.454,2.2-1.508,3.193-2.612,3.606c0.213,0.462,0.463,0.875,0.757,1.227
			c0.667-0.702,8.748,7.462,8.707,6.315c-0.569-16.055-1.114-16.606,5.096-34.392c3.211-9.19,13.311-38.953,23.493-39.563
			C142.381,106.43,142.188,105.989,141.833,105.697z"/>
		<path fill-rule="evenodd" clip-rule="evenodd" fill="#343239" d="M172.322,163.97c-3.529-1.176-16.46,1.818-17.229,7.262
			c-0.813,5.73,2.068,4.407,5.887,4.622c0.039,0,9.012-1.207,9.157-1.244C173.366,173.783,176.512,165.365,172.322,163.97z"/>
		<path fill-rule="evenodd" clip-rule="evenodd" fill="#1E1920" d="M184.229,164.916l1.54-10.699
			c-9.938,2.256-8.595,19.886-11.643,26.72c-2.384,5.339,9.182,4.398,13.337,2.341L184.229,164.916z"/>
		<path fill-rule="evenodd" clip-rule="evenodd" fill="#8E9595" d="M228.929,106.79c-0.426,0.977-1.563,1.424-2.541,0.997
			c-0.979-0.425-1.426-1.565-0.998-2.542c3.518-8.064,7.153-13.853,11.141-18.583l0.006-0.005l-0.002-0.002
			c3.979-4.72,8.275-8.335,13.147-12.096c0.84-0.649,2.054-0.493,2.702,0.348c0.653,0.844,0.495,2.055-0.345,2.706
			c-4.683,3.613-8.798,7.072-12.558,11.53l-0.002-0.001C235.732,93.588,232.294,99.08,228.929,106.79z"/>
		<path fill-rule="evenodd" clip-rule="evenodd" fill="#343239" d="M79.671,95.443c3.334-1.643,10.425-12.865,7.145-17.276
			c-3.451-4.645-4.568-1.681-7.435,0.856c-0.029,0.024-5.56,7.19-5.638,7.318C72.026,89.202,75.711,97.398,79.671,95.443z"/>
		<path fill-rule="evenodd" clip-rule="evenodd" fill="#646467" d="M83.376,95.972c-5.164-0.59-12.483,0.399-16.548,3.975
			c-5.335,4.692-6.834,6.274-9.754,12.652c-0.466,1.017-0.664,4.294,1.165,4.452c1,0.086,6.428-9.449,8.952-11.631
			c2.923-2.532,6.827-4.511,10.4-5.872c1.539-0.587,5.796-1.393,6.057-1.53C84.285,97.679,83.55,95.99,83.376,95.972z"/>
		<path fill-rule="evenodd" clip-rule="evenodd" fill="#646467" d="M186.537,152.338c-3.269,4.498-6.191,11.829-5.001,17.493
			c1.563,7.434,2.248,9.659,6.647,15.728c0.707,0.97,3.652,2.876,4.76,1.259c0.603-0.889-5.416-10.951-6.123-14.45
			c-0.818-4.052-0.609-8.721,0.002-12.764c0.265-1.741,1.751-6.128,1.762-6.444C188.603,152.39,186.647,152.185,186.537,152.338z"/>
		<path fill-rule="evenodd" clip-rule="evenodd" fill="#A6A9AA" d="M167.407,119.474c-2.019,4.051-8.108,13.624-3.267,16.993
			c2.542,1.767,17.277,8.253,19.619,4.231c2.252-3.873,3.45-10.035,4.104-14.705C188.38,122.318,169.167,115.934,167.407,119.474
			L167.407,119.474z M168.989,126.981c0.392-1.202,0.569-2.557,1.171-3.608c0.835-1.863,13.232,0.509,12.729,6.429
			c-0.246,2.893-0.666,4.036-1.422,6.652c-0.766,2.652-3.991,0.732-6.112,0.446c-1.248-0.167-6.346-2.032-7.507-2.793
			c-1.198-0.791-0.24-5.094,1.291-4.848c0.208,0.033,3.064,0.679,2.023-0.377C170.299,128.003,168.761,128.41,168.989,126.981z"/>
		<path fill-rule="evenodd" clip-rule="evenodd" fill="#A6A9AA" d="M129.07,124.962c1.817-2.053,6.886-6.697,4.584-9.43
			c-1.211-1.434-8.812-7.549-10.817-5.564c-1.925,1.912-3.598,5.329-4.714,7.959C117.243,119.996,127.478,126.757,129.07,124.962
			L129.07,124.962z M129.323,120.319c-0.418,0.644-0.734,1.408-1.253,1.929c-0.78,0.958-7.664-2.38-6.436-5.766
			c0.6-1.654,1.024-2.257,1.879-3.671c0.864-1.43,2.45,0.202,3.648,0.704c0.703,0.294,3.396,2.187,3.953,2.815
			c0.574,0.651-0.66,3.019-1.52,2.633c-0.116-0.052-1.688-0.881-1.243-0.097C128.719,119.517,129.682,119.518,129.323,120.319z"/>
		<path fill-rule="evenodd" clip-rule="evenodd" fill="#A6A9AA" d="M112.855,169.157c0.833-2.016,3.442-6.827,0.998-8.282
			c-1.281-0.767-8.589-3.388-9.58-1.373c-0.955,1.94-1.321,4.941-1.478,7.209C102.672,168.497,112.128,170.921,112.855,169.157
			L112.855,169.157z M111.841,165.602c-0.148,0.591-0.188,1.249-0.441,1.774c-0.34,0.925-6.382,0.2-6.34-2.663
			c0.02-1.4,0.185-1.964,0.459-3.248c0.279-1.301,1.894-0.485,2.926-0.42c0.605,0.039,3.122,0.763,3.704,1.09
			c0.603,0.34,0.289,2.442-0.459,2.375c-0.099-0.01-1.496-0.224-0.958,0.25C111.176,165.154,111.902,164.907,111.841,165.602z"/>
		<path fill-rule="evenodd" clip-rule="evenodd" fill="#A6A9AA" d="M167.925,190.976c0.69-2.967,3.197-10.177-0.495-11.635
			c-1.939-0.764-12.597-2.73-13.507,0.267c-0.874,2.887-0.705,7.107-0.407,10.268C153.747,192.359,167.316,193.566,167.925,190.976
			L167.925,190.976z M165.723,186.304c-0.071,0.849,0.024,1.763-0.208,2.546c-0.257,1.349-8.745,1.716-9.331-2.239
			c-0.288-1.933-0.189-2.748-0.101-4.579c0.091-1.852,2.498-1.095,3.935-1.238c0.843-0.081,4.471,0.349,5.35,0.668
			c0.906,0.331,0.945,3.299-0.095,3.374c-0.142,0.009-2.113,0.031-1.268,0.561C164.708,185.837,165.651,185.33,165.723,186.304z"/>
		<path fill-rule="evenodd" clip-rule="evenodd" fill="#343239" d="M173.058,170.676c-3.695,0.398-14.216,8.493-12.653,13.763
			c1.642,5.549,3.711,3.149,7.273,1.756c0.036-0.015,7.694-4.839,7.812-4.934C178.086,179.165,177.447,170.204,173.058,170.676z"/>
		<path fill-rule="evenodd" clip-rule="evenodd" fill="#00A89C" d="M211.294,125.034c-3.856,1.189-4.514,0.861-8.091,3.748
			c-0.569,0.46-3.904,3.223-3.298,3.687c2.807,2.146,4.831,3.755,7.035,6.547c0.97-0.081,10.032-6.555,11.868-5.841
			c1.757,0.681-0.408-1.885-0.77-2.465C217.145,129.261,212.81,124.568,211.294,125.034z"/>
		<path fill-rule="evenodd" clip-rule="evenodd" fill="#006666" d="M210.746,127.235c-2.632,0.813-3.078,0.59-5.521,2.559
			c-0.391,0.313-2.666,2.197-2.253,2.513c1.919,1.465,3.3,2.562,4.803,4.466c0.66-0.055,6.843-4.471,8.096-3.984
			c1.2,0.465-0.278-1.286-0.525-1.683C214.738,130.12,211.776,126.918,210.746,127.235z"/>
		<path fill-rule="evenodd" clip-rule="evenodd" fill="#7E8080" d="M219.65,139.101c-1.846,0.57-2.158,0.413-3.874,1.794
			c-0.272,0.22-1.869,1.543-1.58,1.766c1.344,1.025,2.317,1.796,3.37,3.131c0.465-0.037,4.8-3.135,5.681-2.794
			c0.84,0.326-0.196-0.902-0.368-1.181C222.451,141.124,220.374,138.878,219.65,139.101z"/>
		<polygon fill-rule="evenodd" clip-rule="evenodd" fill="#7E8080" points="245.793,130.791 234.361,129.973 233.021,134.288 
			244.438,134.733 		"/>
		<polygon fill-rule="evenodd" clip-rule="evenodd" fill="#7E8080" points="247.148,121.368 235.87,120.692 235.355,124.784 
			246.401,125.577 		"/>
		<path fill-rule="evenodd" clip-rule="evenodd" fill="#8E9595" d="M210.114,191.6c1.473,0.643,2.146,2.361,1.503,3.836
			c-0.645,1.476-2.364,2.152-3.838,1.507c-1.476-0.646-2.15-2.361-1.505-3.839C206.916,191.631,208.633,190.955,210.114,191.6z"/>
		<circle fill-rule="evenodd" clip-rule="evenodd" fill="#8E9595" cx="203.044" cy="204.467" r="2.915"/>
		<path fill-rule="evenodd" clip-rule="evenodd" fill="#8E9595" d="M195.491,210.473c1.474,0.642,2.148,2.358,1.505,3.836
			c-0.646,1.475-2.364,2.149-3.839,1.506c-1.475-0.645-2.151-2.362-1.505-3.836C192.293,210.501,194.014,209.824,195.491,210.473z"
			/>
		<path fill-rule="evenodd" clip-rule="evenodd" fill="#646467" d="M172.71,186.814c-1.541,14.104-18.239,25.819-13.233,39.868
			c3.507,9.853,16.084,17.078,25.004,10.143c6.206-4.823,9.715-10.447,19.667-6.105c6.014,2.624,16.71,10.245,22.729,1.693
			c4.462-6.337,4.517-11.282,1.741-19.003c-1.98-5.509-10.229-8.362-14.878-15.467c-1.297-1.979-1.928,2.011-2.113,2.901
			c1.155,0.818,2.668,5.401,8.806,8.803c13.545,7.502,4.893,31.662-11.604,18.546c-17.072-13.574-24.646,8.907-37.602,3.254
			c-20.515-8.952,8.776-29.311,5.35-43.743C175.959,185.102,172.722,186.726,172.71,186.814z"/>
		<path fill-rule="evenodd" clip-rule="evenodd" fill="#C0272D" d="M73.674,85.576c1.875-1.216,7.262-5.692,6.417-8.163
			c-1.636-4.774-4.63-8.555-9.012-4.354c-7.376,7.076-19.788,17.115-23.92,26.434c-2.288,5.155,1.768,15.288,10.852,4.085
			c2.768-3.409,10.036-8.048,12.18-12.922C70.382,90.221,72.854,86.109,73.674,85.576z"/>
		<path fill-rule="evenodd" clip-rule="evenodd" fill="#343239" d="M86.542,77.065c-1.056-2.437-8.809-7.896-12.074-5.714
			c-3.437,2.298-1.361,3.2,0.346,5.336c0.017,0.021,4.934,4.223,5.021,4.285C81.815,82.298,87.795,79.962,86.542,77.065z"/>
		<path fill-rule="evenodd" clip-rule="evenodd" fill="#7E8080" d="M122.508,101.021c-5.13-2.468-13.548,1.229-2.318,4.56
			c9.458,2.806,31.275,6.062,40.063,6.41c12.492,0.495,24.74,2.652,36.907,2.365c10.983-0.258-1.125-7.102-6.838-7.15
			c-9.04-0.074-18.559-0.494-27.413-1.267C156.612,105.387,142.41,104.431,122.508,101.021z"/>
		<path fill-rule="evenodd" clip-rule="evenodd" fill="#343239" d="M121.221,103.196c-5.13-2.469-12.261-0.946-1.031,2.384
			c9.458,2.806,31.275,6.062,40.063,6.41c12.492,0.495,24.74,2.652,36.907,2.365c10.983-0.258-0.896-3.556-6.607-3.603
			c-9.042-0.074-18.396-0.964-27.251-1.736C157.004,108.467,141.124,106.605,121.221,103.196z"/>
		<path fill-rule="evenodd" clip-rule="evenodd" fill="#646467" d="M225.796,104.324c1.895-1.32,3.063-3.114,3.905-4.667
			c2.496-4.603,5.086-8.351,7.833-11.611l0.005-0.005l-0.003-0.001c1.874-2.216,3.809-4.198,5.834-6.064
			c0.914-0.838,2.188-2.418,2.722-4.569c0.922-0.755,1.862-1.501,2.824-2.251c0.862,0.44,1.728,0.754,2.226,0.367
			c0.41-0.314,0.903-0.447,1.382-0.408c0.482,0.825,0.291,1.902-0.484,2.501c-4.683,3.613-8.798,7.072-12.558,11.53l-0.002-0.001
			c-3.747,4.446-7.186,9.938-10.551,17.648c-0.426,0.977-1.563,1.424-2.541,0.997c-0.979-0.425-1.426-1.565-0.998-2.542
			C225.525,104.935,225.658,104.628,225.796,104.324z"/>
		<path fill-rule="evenodd" clip-rule="evenodd" fill="#8D3139" d="M254.162,69.676c2.939,1.283,4.282,4.704,2.998,7.641
			c-1.281,2.938-4.703,4.281-7.639,2.997c-2.94-1.281-4.282-4.702-2.998-7.638C247.805,69.737,251.225,68.394,254.162,69.676z"/>
		<path fill-rule="evenodd" clip-rule="evenodd" fill="#B53740" d="M253.425,69.837c2.199,0.96,3.206,3.526,2.246,5.729
			c-0.961,2.203-3.528,3.208-5.73,2.248c-2.204-0.961-3.21-3.526-2.247-5.73C248.653,69.881,251.221,68.875,253.425,69.837z"/>
		<circle fill-rule="evenodd" clip-rule="evenodd" fill="#D4373F" cx="251.669" cy="72.528" r="2.565"/>
		<path fill-rule="evenodd" clip-rule="evenodd" fill="#343239" d="M170.092,195.385c1.639,1.178,2.047,4.573-2.501,10.117
			c-3.721,4.54-10.434,18.021-4.902,23.344c4.985,4.799,7.551,6.55,10.946,6.54c14.46-0.035,18.742-15.892,35.108-4.813
			c5.139,3.479,9.413,6.92,15.342,1.988c6.452-5.363,6.535-17.927-1.249-23.208c-1.67-1.136-2.896-3.094-3.373-5.263
			c-2.063-1.729-4.111-3.684-5.723-6.147c-1.297-1.979-1.928,2.011-2.113,2.901c1.155,0.818,2.668,5.401,8.806,8.803
			c13.545,7.502,4.893,31.662-11.604,18.546c-17.072-13.574-24.646,8.907-37.602,3.254c-20.515-8.952,8.776-29.311,5.35-43.743
			c-0.618-2.603-3.855-0.979-3.867-0.89C172.389,189.76,171.403,192.604,170.092,195.385z"/>
		<path fill-rule="evenodd" clip-rule="evenodd" fill="#993333" d="M70.795,73.333c1.707,7.641-12.133,28.328-24.247,29.888
			c0.285,4.781,4.321,9.165,11.462,0.356c2.768-3.409,10.036-8.048,12.18-12.922c0.191-0.436,2.664-4.547,3.483-5.08
			c1.875-1.216,7.262-5.692,6.417-8.163c-1.636-4.774-4.63-8.555-9.012-4.354L70.795,73.333z"/>
		<g>
			<path fill="#5F6889" d="M147.1,122.414c0,0,4.775,0.583,6.327,4.918c1.815,5.074-3.958,9.208-7.883,8.016
				c-3.928-1.192-6.795-6.2-4.753-10.03C142.833,121.492,147.1,122.414,147.1,122.414z"/>
			
				<ellipse transform="matrix(-0.7775 -0.6289 0.6289 -0.7775 179.7493 319.4854)" fill="#00A79D" cx="146.399" cy="127.941" rx="6.349" ry="5.903"/>
			<circle fill="#9AA8DE" cx="145.62" cy="124.539" r="1.167"/>
		</g>
		<g>
			<path fill="#515975" d="M141.933,136.29c0,0,3.755,0.459,4.973,3.866c1.428,3.987-3.108,7.237-6.195,6.3
				c-3.087-0.935-5.343-4.875-3.737-7.884C138.581,135.564,141.933,136.29,141.933,136.29z"/>
			
				<ellipse transform="matrix(-0.7777 -0.6287 0.6287 -0.7777 162.9089 338.8848)" fill="#00A79D" cx="141.38" cy="140.635" rx="4.992" ry="4.643"/>
			<circle fill="#8E9BCD" cx="140.771" cy="137.961" r="0.918"/>
		</g>
	</g>
	<g>
		<path fill="#DBD9D7" d="M182.612,14.686c-19.461-6.773-39.163-10.972-60.239,13.504c-18.343,21.301-14.522,45.154-12.286,53.669
			c2.237,8.513,18.266,31.874,52.529,31.354c34.262-0.521,47.977-20.534,51.653-40.443
			C217.944,52.859,208.277,23.618,182.612,14.686z"/>
		<path fill="#A0A0A0" d="M214.268,72.768c0.386-2.098,0.615-4.302,0.704-6.573c-6.349,20.063-21.99,38.403-54.107,36.717
			c-34.249-1.798-48.11-28.493-49.57-37.973c-0.52-3.395-1.057-8.957-0.614-15.708c-4.317,14.19-2.101,26.89-0.592,32.626
			c2.234,8.513,18.263,31.873,52.528,31.355C196.878,112.689,210.593,92.678,214.268,72.768z"/>
		<path fill="#CBCBCB" d="M179.899,24.472c11.727,3.61,25.079,12.455,31.663,20.273c-4.668-12.985-14.141-24.903-28.95-30.059
			c-19.461-6.773-39.163-10.972-60.239,13.504c-1.194,1.389-2.293,2.791-3.307,4.194C141.453,15.854,158.641,17.929,179.899,24.472z
			"/>
		<path fill="#131542" d="M198.46,72.909c-1.949-15.066-10.316-24.649-38.692-32.467c-28.381-7.819-38.349,4.558-42.021,12.621
			c-3.674,8.063-5.42,37.716,24.762,47.58C178.126,112.283,200.409,87.971,198.46,72.909z"/>
		<path fill="#342E70" d="M194.737,69.586c-1.705-13.167-11.386-20.943-36.184-27.775c-24.802-6.833-33.342,5.121-36.551,12.168
			c-3.207,7.045-4.032,34.35,22.343,42.972C175.474,107.129,196.439,82.75,194.737,69.586z"/>
		<path fill="#443D91" d="M123.467,59.174c0,0-1.091,21.818,24.111,27.798c25.203,5.978,53.825-20.977,34.521-33.494
			C162.792,40.957,130.25,29.032,123.467,59.174z"/>
		<path fill="#564DB6" d="M125.014,57.749c-0.976-4.064,9.904-21.277,35.701-13.704c16.058,4.714,18.126,11.689,14.367,16.702
			c-5.836,7.788-22.286-3.745-32.52-4.806C132.326,54.878,125.992,61.816,125.014,57.749z"/>
		<path fill="#6B61E4" d="M164.886,56.068c-1.373,0.023-2.477-1.34-2.46-3.041c0.019-1.704,1.139-3.104,2.511-3.125
			c1.376-0.022,2.475,1.34,2.461,3.043S166.256,56.047,164.886,56.068z"/>
		<path fill="#6B61E4" d="M134.317,50.404c0.306,3.435,7.393-0.458,13.733,2.036c6.34,2.491,10.858-0.111,9.299-3.435
			C153.586,40.979,134.009,46.967,134.317,50.404z"/>
	</g>
	<g>
		<path fill="#456392" d="M144.99,157.166c-0.994-1.325-15.456-8.021-17.609-7.058c-2.152,0.961-2.9,4.058-1.518,5.129
			c1.38,1.069,15.83,8.045,17.391,7.326C144.814,161.846,146.404,159.049,144.99,157.166z"/>
		<path fill="#5479B2" d="M144.431,156.703c-0.798-1.08-14.75-7.866-16.835-6.904c-2.086,0.961-2.743,3.544-1.424,4.563
			c1.321,1.021,15.062,8.052,16.575,7.332C144.259,160.979,145.419,158.039,144.431,156.703z"/>
		<g>
			<path fill="#6997DE" d="M139.46,155.192c-0.561-0.532-9.796-4.932-11.679-4.087c-1.879,0.843-1.289,1.4,0.024,1.818
				c1.318,0.416,2.737-0.505,7.396,1.623C139.774,156.636,140.019,155.726,139.46,155.192z"/>
			
				<ellipse transform="matrix(0.6119 -0.7909 0.7909 0.6119 -68.9872 172.1325)" fill="#6997DE" cx="140.908" cy="156.364" rx="0.515" ry="0.464"/>
		</g>
	</g>
	<g>
		<path fill="#456392" d="M140.027,166.262c-0.994-1.324-15.458-8.022-17.609-7.06c-2.153,0.962-2.9,4.059-1.52,5.128
			c1.381,1.069,15.83,8.047,17.392,7.327C139.849,170.938,141.438,168.143,140.027,166.262z"/>
		<path fill="#5479B2" d="M139.468,165.798c-0.798-1.079-14.751-7.866-16.835-6.904c-2.088,0.961-2.743,3.543-1.425,4.565
			c1.32,1.021,15.061,8.05,16.575,7.331C139.296,170.072,140.453,167.133,139.468,165.798z"/>
		<g>
			<path fill="#6997DE" d="M134.495,164.288c-0.559-0.532-9.796-4.935-11.678-4.088c-1.881,0.842-1.289,1.401,0.024,1.817
				c1.317,0.417,2.735-0.506,7.394,1.623C134.811,165.73,135.056,164.821,134.495,164.288z"/>
			
				<ellipse transform="matrix(0.6128 -0.7902 0.7902 0.6128 -78.1141 171.4875)" fill="#6997DE" cx="135.944" cy="165.458" rx="0.515" ry="0.462"/>
		</g>
	</g>
</g>
</svg>
