<?xml version="1.0" encoding="utf-8"?>
<!-- Generator: Adobe Illustrator 16.0.0, SVG Export Plug-In . SVG Version: 6.00 Build 0)  -->
<!DOCTYPE svg PUBLIC "-//W3C//DTD SVG 1.1//EN" "http://www.w3.org/Graphics/SVG/1.1/DTD/svg11.dtd">
<svg version="1.1" id="Layer_1" xmlns="http://www.w3.org/2000/svg" xmlns:xlink="http://www.w3.org/1999/xlink" x="0px" y="0px"
	 width="350px" height="350px" viewBox="450 0 350 350" enable-background="new 450 0 350 350" xml:space="preserve">
<g>
	<g>
		<g>
			<polygon fill="#02B0B0" points="625.46,96.317 625.028,96.317 574.536,96.317 574.536,109.49 587.794,109.49 587.794,109.482 
				615.081,109.482 615.073,109.49 574.563,149.162 574.536,149.162 574.536,149.178 574.506,149.209 574.536,149.232 
				574.536,152.99 578.264,152.99 589.484,152.99 593.402,149.162 625.028,118.187 625.028,128.35 638.255,128.35 638.255,123.936 
				638.255,96.317 			"/>
		</g>
	</g>
	<g>
		<g>
			<path fill="#242628" d="M625.001,315.001c-77.196,0-139.998-62.81-139.998-139.994c0-77.208,62.802-140.008,139.998-140.008
				c77.195,0,139.996,62.8,139.996,140.008C764.997,252.191,702.197,315.001,625.001,315.001z M625.001,48.434
				c-69.788,0-126.565,56.773-126.565,126.573c0,69.777,56.777,126.56,126.565,126.56s126.561-56.781,126.561-126.56
				C751.562,105.207,694.789,48.434,625.001,48.434z"/>
		</g>
	</g>
	<g>
		<g>
			<g>
				<path fill="#242628" d="M664.662,167.267c4.476-3.943,8.003-9.067,10.42-15.194c3.833-10.287,3.825-21.971-0.029-32.087
					c-5.261-13.39-15.872-21.777-29.598-23.668v13.474c10.648,2.23,15.446,10.086,17.433,15.04
					c2.745,7.139,2.745,15.334,0.023,22.418c-2.351,5.872-8.537,15.734-23.561,15.734h-51.557v-3.951h-13.258v29.742h13.258v-12.533
					h57.482c20.921,0,30.451,16.686,30.451,32.195c0,7.4-2.176,15.063-6.714,21.067l7.995,10.89
					c6.866-7.595,10.684-17.549,11.542-27.465C690.105,195.173,682.28,175.568,664.662,167.267z"/>
			</g>
			<g>
				<path fill="#242628" d="M645.277,240.633h-57.482v-11.869h-13.258v24.918h70.74c5.537,0,10.52-0.841,14.972-2.338l-8.318-11.336
					C649.853,240.409,647.646,240.633,645.277,240.633z"/>
			</g>
		</g>
	</g>
</g>
</svg>
