<?xml version="1.0" encoding="utf-8"?>
<!-- Generator: Adobe Illustrator 16.0.0, SVG Export Plug-In . SVG Version: 6.00 Build 0)  -->
<!DOCTYPE svg PUBLIC "-//W3C//DTD SVG 1.1//EN" "http://www.w3.org/Graphics/SVG/1.1/DTD/svg11.dtd">
<svg version="1.1" id="Layer_1" xmlns="http://www.w3.org/2000/svg" xmlns:xlink="http://www.w3.org/1999/xlink" x="0px" y="0px"
	 width="1200px" height="450px" viewBox="0 0 1200 450" enable-background="new 0 0 1200 450" xml:space="preserve">
<path opacity="0.3" fill="#010101" enable-background="new    " d="M774.786,394.204c0,1.935-1.663,3.504-3.716,3.504H435.949
	c-2.052,0-3.716-1.569-3.716-3.504V182.162c0-1.936,1.664-3.504,3.716-3.504h335.122c2.054,0,3.716,1.569,3.716,3.504
	L774.786,394.204L774.786,394.204z"/>
<g>
	<g>
		<g>
			<path fill="#F3F3F3" stroke="#E6E7E8" stroke-miterlimit="10" d="M771.408,390.689c0,1.981-1.664,3.592-3.719,3.592H432.31
				c-2.053,0-3.719-1.609-3.719-3.592V173.34c0-1.984,1.666-3.592,3.719-3.592H767.69c2.055,0,3.719,1.608,3.719,3.592V390.689z"/>
			<g>
				<path fill="#434343" stroke="#E6E7E8" stroke-miterlimit="10" d="M737.792,202.012h10.672c1.217,0,2.205,0.994,2.205,2.206
					v7.934c0,1.209-0.988,2.205-2.205,2.205h-10.672c-1.211,0-2.205-0.996-2.205-2.205v-7.934
					C735.587,203.006,736.578,202.012,737.792,202.012"/>
				<path fill="#434343" stroke="#E6E7E8" stroke-miterlimit="10" d="M738.278,217.142h9.695c1.484,0,2.697,1.215,2.697,2.694v10.75
					c0,1.48-1.213,2.695-2.697,2.695h-9.695c-1.479,0-2.69-1.215-2.69-2.695v-10.75C735.587,218.357,736.8,217.142,738.278,217.142"
					/>
				<path fill="#434343" stroke="#E6E7E8" stroke-miterlimit="10" d="M738.278,236.07h9.695c1.484,0,2.697,1.211,2.697,2.69v10.746
					c0,1.482-1.213,2.695-2.697,2.695h-9.695c-1.479,0-2.69-1.213-2.69-2.695v-10.746C735.587,237.281,736.8,236.07,738.278,236.07"
					/>
				<path fill="#434343" stroke="#E6E7E8" stroke-miterlimit="10" d="M738.278,254.996h9.695c1.484,0,2.697,1.213,2.697,2.693
					v10.746c0,1.479-1.213,2.69-2.697,2.69h-9.695c-1.479,0-2.69-1.211-2.69-2.69v-10.746
					C735.587,256.209,736.8,254.996,738.278,254.996"/>
				<path fill="#434343" stroke="#E6E7E8" stroke-miterlimit="10" d="M738.278,273.918h9.695c1.484,0,2.697,1.211,2.697,2.689
					v10.748c0,1.479-1.213,2.692-2.697,2.692h-9.695c-1.479,0-2.69-1.213-2.69-2.692v-10.748
					C735.587,275.129,736.8,273.918,738.278,273.918"/>
				<path fill="#434343" stroke="#E6E7E8" stroke-miterlimit="10" d="M738.278,292.842h9.695c1.484,0,2.697,1.209,2.697,2.691
					v10.746c0,1.479-1.213,2.691-2.697,2.691h-9.695c-1.479,0-2.69-1.214-2.69-2.691v-10.746
					C735.587,294.051,736.8,292.842,738.278,292.842"/>
				<path fill="#434343" stroke="#E6E7E8" stroke-miterlimit="10" d="M718.934,202.012h10.676c1.209,0,2.207,0.994,2.207,2.206
					v7.934c0,1.209-0.998,2.205-2.205,2.205h-10.678c-1.213,0-2.203-0.996-2.203-2.205v-7.934
					C716.731,203.006,717.722,202.012,718.934,202.012"/>
				<path fill="#434343" stroke="#E6E7E8" stroke-miterlimit="10" d="M702.198,217.142h26.73c1.588,0,2.887,1.303,2.887,2.887
					v10.368c0,1.586-1.299,2.886-2.887,2.886h-26.73c-1.586,0-2.882-1.3-2.882-2.886v-10.368
					C699.316,218.445,700.612,217.142,702.198,217.142"/>
				<path fill="#434343" stroke="#E6E7E8" stroke-miterlimit="10" d="M714.472,236.07h14.457c1.588,0,2.889,1.297,2.889,2.881
					v10.367c0,1.588-1.301,2.885-2.889,2.885h-14.457c-1.586,0-2.881-1.297-2.881-2.885v-10.367
					C711.591,237.367,712.886,236.07,714.472,236.07"/>
				<path fill="#434343" stroke="#E6E7E8" stroke-miterlimit="10" d="M700.073,254.996h28.857c1.586,0,2.885,1.293,2.885,2.881
					v10.371c0,1.582-1.299,2.879-2.885,2.879h-28.857c-1.587,0-2.882-1.297-2.882-2.879v-10.371
					C697.191,256.289,698.486,254.996,700.073,254.996"/>
				<path fill="#434343" stroke="#E6E7E8" stroke-miterlimit="10" d="M719.425,273.918h9.69c1.484,0,2.699,1.211,2.699,2.689v10.748
					c0,1.479-1.215,2.692-2.699,2.692h-9.69c-1.48,0-2.693-1.213-2.693-2.692v-10.748
					C716.731,275.129,717.944,273.918,719.425,273.918"/>
				<path fill="#434343" stroke="#E6E7E8" stroke-miterlimit="10" d="M719.425,292.842h9.69c1.484,0,2.699,1.209,2.699,2.691v10.746
					c0,1.479-1.215,2.691-2.699,2.691h-9.69c-1.48,0-2.693-1.214-2.693-2.691v-10.746
					C716.731,294.051,717.944,292.842,719.425,292.842"/>
				<path fill="#434343" stroke="#E6E7E8" stroke-miterlimit="10" d="M701.52,202.012h9.232c1.215,0,2.207,0.994,2.207,2.206v7.934
					c0,1.209-0.99,2.205-2.205,2.205h-9.234c-1.215,0-2.204-0.996-2.204-2.205v-7.934
					C699.316,203.006,700.306,202.012,701.52,202.012"/>
				<path fill="#434343" stroke="#E6E7E8" stroke-miterlimit="10" d="M683.818,202.012h9.236c1.211,0,2.205,0.994,2.205,2.206v7.934
					c0,1.209-0.992,2.205-2.205,2.205h-9.234c-1.211,0-2.203-0.996-2.203-2.205v-7.934
					C681.616,203.006,682.607,202.012,683.818,202.012"/>
				<path fill="#434343" stroke="#E6E7E8" stroke-miterlimit="10" d="M666.119,202.012h9.233c1.213,0,2.207,0.994,2.207,2.206v7.934
					c0,1.209-0.992,2.205-2.207,2.205h-9.233c-1.212,0-2.205-0.996-2.205-2.205v-7.934
					C663.914,203.006,664.906,202.012,666.119,202.012"/>
				<path fill="#434343" stroke="#E6E7E8" stroke-miterlimit="10" d="M648.418,202.012h9.235c1.211,0,2.205,0.994,2.205,2.206v7.934
					c0,1.209-0.991,2.205-2.203,2.205h-9.237c-1.211,0-2.205-0.996-2.205-2.205v-7.934
					C646.213,203.006,647.207,202.012,648.418,202.012"/>
				<path fill="#434343" stroke="#E6E7E8" stroke-miterlimit="10" d="M630.721,202.012h9.232c1.211,0,2.204,0.994,2.204,2.206v7.934
					c0,1.209-0.993,2.205-2.204,2.205h-9.23c-1.219,0-2.213-0.996-2.213-2.205v-7.934
					C628.51,203.006,629.504,202.012,630.721,202.012"/>
				<path fill="#434343" stroke="#E6E7E8" stroke-miterlimit="10" d="M613.019,202.012h9.232c1.215,0,2.209,0.994,2.209,2.206v7.934
					c0,1.209-0.992,2.205-2.207,2.205h-9.232c-1.211,0-2.207-0.996-2.207-2.205v-7.934
					C610.814,203.006,611.81,202.012,613.019,202.012"/>
				<path fill="#434343" stroke="#E6E7E8" stroke-miterlimit="10" d="M595.319,202.012h9.234c1.215,0,2.203,0.994,2.203,2.206v7.934
					c0,1.209-0.988,2.205-2.203,2.205h-9.234c-1.213,0-2.206-0.996-2.206-2.205v-7.934
					C593.113,203.006,594.106,202.012,595.319,202.012"/>
				<path fill="#434343" stroke="#E6E7E8" stroke-miterlimit="10" d="M577.62,202.012h9.232c1.214,0,2.207,0.994,2.207,2.206v7.934
					c0,1.209-0.992,2.205-2.206,2.205h-9.234c-1.212,0-2.206-0.996-2.206-2.205v-7.934
					C575.414,203.006,576.406,202.012,577.62,202.012"/>
				<path fill="#434343" stroke="#E6E7E8" stroke-miterlimit="10" d="M559.919,202.012h9.233c1.213,0,2.205,0.994,2.205,2.206v7.934
					c0,1.209-0.989,2.205-2.204,2.205h-9.234c-1.211,0-2.204-0.996-2.204-2.205v-7.934
					C557.715,203.006,558.707,202.012,559.919,202.012"/>
				<path fill="#434343" stroke="#E6E7E8" stroke-miterlimit="10" d="M542.218,202.012h9.234c1.214,0,2.205,0.994,2.205,2.206v7.934
					c0,1.209-0.99,2.205-2.205,2.205h-9.234c-1.21,0-2.204-0.996-2.204-2.205v-7.934
					C540.013,203.006,541.008,202.012,542.218,202.012"/>
				<path fill="#434343" stroke="#E6E7E8" stroke-miterlimit="10" d="M524.518,202.012h9.234c1.212,0,2.205,0.994,2.205,2.206v7.934
					c0,1.209-0.993,2.205-2.205,2.205h-9.234c-1.213,0-2.205-0.996-2.205-2.205v-7.934
					C522.313,203.006,523.305,202.012,524.518,202.012"/>
				<path fill="#434343" stroke="#E6E7E8" stroke-miterlimit="10" d="M506.817,202.012h9.236c1.212,0,2.205,0.994,2.205,2.206v7.934
					c0,1.209-0.993,2.205-2.205,2.205h-9.236c-1.212,0-2.204-0.996-2.204-2.205v-7.934
					C504.614,203.006,505.605,202.012,506.817,202.012"/>
				<path fill="#434343" stroke="#E6E7E8" stroke-miterlimit="10" d="M489.12,202.012h9.231c1.213,0,2.206,0.994,2.206,2.206v7.934
					c0,1.209-0.992,2.205-2.206,2.205h-9.231c-1.215,0-2.204-0.996-2.204-2.205v-7.934
					C486.915,203.006,487.904,202.012,489.12,202.012"/>
				<path fill="#434343" stroke="#E6E7E8" stroke-miterlimit="10" d="M471.417,202.012h9.235c1.213,0,2.207,0.994,2.207,2.206v7.934
					c0,1.209-0.994,2.205-2.207,2.205h-9.235c-1.211,0-2.203-0.996-2.203-2.205v-7.934
					C469.214,203.006,470.205,202.012,471.417,202.012"/>
				<path fill="#434343" stroke="#E6E7E8" stroke-miterlimit="10" d="M451.535,202.012h10.673c1.215,0,2.206,0.994,2.206,2.206
					v7.934c0,1.209-0.991,2.205-2.206,2.205h-10.673c-1.213,0-2.205-0.996-2.205-2.205v-7.934
					C449.329,203.006,450.322,202.012,451.535,202.012"/>
				<path fill="#434343" stroke="#E6E7E8" stroke-miterlimit="10" d="M683.101,217.142h9.512c1.453,0,2.646,1.193,2.646,2.648
					v10.844c0,1.453-1.191,2.646-2.646,2.646h-9.512c-1.453,0-2.646-1.192-2.646-2.646V219.79
					C680.455,218.335,681.648,217.142,683.101,217.142"/>
				<path fill="#434343" stroke="#E6E7E8" stroke-miterlimit="10" d="M663.896,217.142h9.517c1.456,0,2.643,1.193,2.643,2.648
					v10.844c0,1.453-1.186,2.646-2.643,2.646h-9.517c-1.451,0-2.646-1.192-2.646-2.646V219.79
					C661.25,218.335,662.445,217.142,663.896,217.142"/>
				<path fill="#434343" stroke="#E6E7E8" stroke-miterlimit="10" d="M644.691,217.142h9.519c1.453,0,2.641,1.193,2.641,2.648
					v10.844c0,1.453-1.188,2.646-2.641,2.646h-9.519c-1.455,0-2.645-1.192-2.645-2.646V219.79
					C642.047,218.335,643.236,217.142,644.691,217.142"/>
				<path fill="#434343" stroke="#E6E7E8" stroke-miterlimit="10" d="M625.488,217.142h9.517c1.455,0,2.643,1.193,2.643,2.648
					v10.844c0,1.453-1.188,2.646-2.643,2.646h-9.517c-1.457,0-2.646-1.192-2.646-2.646V219.79
					C622.842,218.335,624.031,217.142,625.488,217.142"/>
				<path fill="#434343" stroke="#E6E7E8" stroke-miterlimit="10" d="M606.282,217.142h9.517c1.453,0,2.645,1.193,2.645,2.648
					v10.844c0,1.453-1.19,2.646-2.645,2.646l-9.517,0.003c-1.451,0-2.641-1.193-2.641-2.648V219.79
					C603.642,218.335,604.831,217.142,606.282,217.142"/>
				<path fill="#434343" stroke="#E6E7E8" stroke-miterlimit="10" d="M587.079,217.142h9.518c1.453,0,2.643,1.193,2.643,2.648
					v10.844c0,1.455-1.189,2.648-2.643,2.648h-9.518c-1.454,0-2.645-1.193-2.645-2.648V219.79
					C584.434,218.335,585.625,217.142,587.079,217.142"/>
				<path fill="#434343" stroke="#E6E7E8" stroke-miterlimit="10" d="M567.876,217.142h9.517c1.452,0,2.646,1.193,2.646,2.648
					v10.844c0,1.455-1.195,2.648-2.646,2.648h-9.517c-1.452,0-2.646-1.193-2.646-2.648V219.79
					C565.231,218.335,566.425,217.142,567.876,217.142"/>
				<path fill="#434343" stroke="#E6E7E8" stroke-miterlimit="10" d="M548.673,217.142h9.514c1.457,0,2.647,1.193,2.647,2.648
					v10.844c0,1.455-1.19,2.648-2.647,2.648h-9.514c-1.456,0-2.645-1.193-2.645-2.648V219.79
					C546.029,218.335,547.217,217.142,548.673,217.142"/>
				<path fill="#434343" stroke="#E6E7E8" stroke-miterlimit="10" d="M529.469,217.142h9.514c1.455,0,2.645,1.193,2.645,2.648
					v10.844c0,1.455-1.189,2.648-2.645,2.648h-9.514c-1.455,0-2.645-1.193-2.645-2.648V219.79
					C526.825,218.335,528.014,217.142,529.469,217.142"/>
				<path fill="#434343" stroke="#E6E7E8" stroke-miterlimit="10" d="M510.266,217.142h9.512c1.456,0,2.645,1.193,2.645,2.648
					v10.844c0,1.455-1.188,2.648-2.645,2.648h-9.512c-1.456,0-2.646-1.193-2.646-2.648V219.79
					C507.62,218.335,508.81,217.142,510.266,217.142"/>
				<path fill="#434343" stroke="#E6E7E8" stroke-miterlimit="10" d="M491.059,217.142h9.518c1.454,0,2.644,1.193,2.644,2.648
					v10.844c0,1.455-1.189,2.648-2.644,2.648h-9.518c-1.454,0-2.643-1.193-2.643-2.648V219.79
					C488.417,218.335,489.605,217.142,491.059,217.142"/>
				<path fill="#434343" stroke="#E6E7E8" stroke-miterlimit="10" d="M471.857,217.142h9.516c1.452,0,2.645,1.193,2.645,2.648
					v10.844c0,1.455-1.192,2.648-2.645,2.648h-9.516c-1.455,0-2.645-1.193-2.645-2.648V219.79
					C469.214,218.335,470.403,217.142,471.857,217.142"/>
				<path fill="#434343" stroke="#E6E7E8" stroke-miterlimit="10" d="M452.023,217.142h9.695c1.48,0,2.695,1.215,2.695,2.694v10.75
					c0,1.482-1.214,2.697-2.695,2.697h-9.695c-1.481,0-2.693-1.215-2.693-2.697v-10.75
					C449.329,218.357,450.542,217.142,452.023,217.142"/>
				<path fill="#434343" stroke="#E6E7E8" stroke-miterlimit="10" d="M452.213,236.07h19.944c1.586,0,2.885,1.297,2.885,2.883
					v10.365c0,1.59-1.299,2.885-2.885,2.885h-19.944c-1.589,0-2.884-1.295-2.884-2.885v-10.365
					C449.329,237.367,450.624,236.07,452.213,236.07"/>
				<path fill="#434343" stroke="#E6E7E8" stroke-miterlimit="10" d="M452.213,254.996h23.717c1.585,0,2.882,1.293,2.882,2.881
					v10.371c0,1.582-1.297,2.879-2.882,2.879h-23.717c-1.586,0-2.884-1.297-2.884-2.879v-10.371
					C449.329,256.289,450.627,254.996,452.213,254.996"/>
				<path fill="#434343" stroke="#E6E7E8" stroke-miterlimit="10" d="M452.213,273.918h34.002c1.586,0,2.882,1.297,2.882,2.879
					v10.373c0,1.584-1.296,2.881-2.882,2.881h-34.002c-1.589,0-2.885-1.297-2.885-2.881v-10.373
					C449.329,275.215,450.624,273.918,452.213,273.918"/>
				<path fill="#434343" stroke="#E6E7E8" stroke-miterlimit="10" d="M452.213,292.842h14.118c1.582,0,2.884,1.295,2.884,2.883
					v10.369c0,1.584-1.302,2.877-2.884,2.877h-14.118c-1.589,0-2.884-1.293-2.884-2.877v-10.369
					C449.329,294.137,450.624,292.842,452.213,292.842"/>
				<path fill="#434343" stroke="#E6E7E8" stroke-miterlimit="10" d="M480.269,236.07h10.191c1.56,0,2.832,1.272,2.832,2.83v10.471
					c0,1.559-1.272,2.832-2.832,2.832h-10.191c-1.556,0-2.83-1.273-2.83-2.832V238.9C477.439,237.344,478.715,236.07,480.269,236.07
					"/>
				<path fill="#434343" stroke="#E6E7E8" stroke-miterlimit="10" d="M499.838,236.07h10.188c1.556,0,2.833,1.272,2.833,2.83v10.471
					c0,1.559-1.277,2.832-2.833,2.832h-10.188c-1.557,0-2.832-1.273-2.832-2.832V238.9
					C497.006,237.344,498.281,236.07,499.838,236.07"/>
				<path fill="#434343" stroke="#E6E7E8" stroke-miterlimit="10" d="M519.401,236.07h10.19c1.558,0,2.832,1.272,2.832,2.83v10.471
					c0,1.559-1.274,2.832-2.832,2.832h-10.19c-1.558,0-2.832-1.273-2.832-2.832V238.9
					C516.569,237.344,517.844,236.07,519.401,236.07"/>
				<path fill="#434343" stroke="#E6E7E8" stroke-miterlimit="10" d="M538.967,236.07h10.188c1.558,0,2.832,1.272,2.832,2.83v10.471
					c0,1.559-1.274,2.832-2.832,2.832h-10.188c-1.56,0-2.832-1.273-2.832-2.832V238.9
					C536.135,237.344,537.407,236.07,538.967,236.07"/>
				<path fill="#434343" stroke="#E6E7E8" stroke-miterlimit="10" d="M558.529,236.07h10.189c1.558,0,2.833,1.272,2.833,2.83v10.471
					c0,1.559-1.275,2.832-2.833,2.832h-10.189c-1.558,0-2.831-1.273-2.831-2.832V238.9
					C555.699,237.344,556.971,236.07,558.529,236.07"/>
				<path fill="#434343" stroke="#E6E7E8" stroke-miterlimit="10" d="M578.096,236.07h10.188c1.559,0,2.834,1.272,2.834,2.83v10.471
					c0,1.559-1.275,2.832-2.834,2.832h-10.188c-1.563,0-2.835-1.273-2.835-2.832V238.9
					C575.261,237.344,576.534,236.07,578.096,236.07"/>
				<path fill="#434343" stroke="#E6E7E8" stroke-miterlimit="10" d="M597.658,236.07h10.191c1.557,0,2.83,1.272,2.83,2.828v10.473
					c0,1.559-1.273,2.832-2.83,2.832h-10.191c-1.556,0-2.831-1.273-2.831-2.832V238.9
					C594.827,237.344,596.102,236.07,597.658,236.07"/>
				<path fill="#434343" stroke="#E6E7E8" stroke-miterlimit="10" d="M617.223,236.07h10.188c1.563,0,2.834,1.272,2.834,2.828
					v10.473c0,1.559-1.271,2.832-2.834,2.832h-10.188c-1.561,0-2.834-1.273-2.834-2.832v-10.473
					C614.389,237.344,615.662,236.07,617.223,236.07"/>
				<path fill="#434343" stroke="#E6E7E8" stroke-miterlimit="10" d="M636.787,236.07h10.19c1.553,0,2.832,1.272,2.832,2.828v10.473
					c0,1.559-1.279,2.832-2.832,2.832h-10.19c-1.56,0-2.83-1.273-2.83-2.832v-10.473C633.957,237.344,635.228,236.07,636.787,236.07
					"/>
				<path fill="#434343" stroke="#E6E7E8" stroke-miterlimit="10" d="M656.351,236.07h10.193c1.553,0,2.828,1.272,2.828,2.828
					v10.473c0,1.559-1.275,2.832-2.828,2.832h-10.193c-1.557,0-2.828-1.273-2.828-2.832v-10.473
					C653.523,237.344,654.795,236.07,656.351,236.07"/>
				<path fill="#434343" stroke="#E6E7E8" stroke-miterlimit="10" d="M675.912,236.07h10.192c1.558,0,2.832,1.272,2.832,2.828
					v10.473c0,1.559-1.275,2.832-2.832,2.832h-10.192c-1.55,0-2.828-1.273-2.828-2.832v-10.473
					C673.084,237.344,674.363,236.07,675.912,236.07"/>
				<path fill="#434343" stroke="#E6E7E8" stroke-miterlimit="10" d="M695.478,236.07h10.194c1.557,0,2.832,1.272,2.832,2.828
					v10.473c0,1.559-1.275,2.832-2.832,2.832h-10.194c-1.557,0-2.83-1.273-2.83-2.832v-10.473
					C692.648,237.344,693.922,236.07,695.478,236.07"/>
				<path fill="#434343" stroke="#E6E7E8" stroke-miterlimit="10" d="M485.715,254.996h10.189c1.56,0,2.832,1.27,2.832,2.832v10.469
					c0,1.555-1.272,2.83-2.832,2.83h-10.189c-1.559,0-2.831-1.275-2.831-2.83v-10.469
					C482.884,256.266,484.157,254.996,485.715,254.996"/>
				<path fill="#434343" stroke="#E6E7E8" stroke-miterlimit="10" d="M505.278,254.996h10.192c1.556,0,2.829,1.27,2.829,2.832
					v10.469c0,1.555-1.273,2.83-2.829,2.83h-10.192c-1.559,0-2.831-1.275-2.831-2.83v-10.469
					C502.447,256.266,503.72,254.996,505.278,254.996"/>
				<path fill="#434343" stroke="#E6E7E8" stroke-miterlimit="10" d="M524.844,254.996h10.189c1.558,0,2.834,1.27,2.834,2.832
					v10.469c0,1.555-1.276,2.83-2.834,2.83h-10.189c-1.558,0-2.831-1.275-2.831-2.83v-10.469
					C522.012,256.266,523.286,254.996,524.844,254.996"/>
				<path fill="#434343" stroke="#E6E7E8" stroke-miterlimit="10" d="M544.407,254.996h10.191c1.558,0,2.83,1.27,2.83,2.832v10.469
					c0,1.555-1.272,2.83-2.83,2.83h-10.191c-1.555,0-2.831-1.275-2.831-2.83v-10.469
					C541.576,256.266,542.851,254.996,544.407,254.996"/>
				<path fill="#434343" stroke="#E6E7E8" stroke-miterlimit="10" d="M563.974,254.996h10.189c1.558,0,2.833,1.27,2.833,2.832
					v10.469c0,1.555-1.275,2.83-2.833,2.83h-10.189c-1.559,0-2.83-1.275-2.83-2.83v-10.469
					C561.143,256.266,562.416,254.996,563.974,254.996"/>
				<path fill="#434343" stroke="#E6E7E8" stroke-miterlimit="10" d="M583.536,254.996h10.19c1.562,0,2.83,1.27,2.83,2.832v10.469
					c0,1.555-1.271,2.83-2.83,2.83h-10.19c-1.557,0-2.829-1.275-2.829-2.83v-10.469C580.707,256.266,581.98,254.996,583.536,254.996
					"/>
				<path fill="#434343" stroke="#E6E7E8" stroke-miterlimit="10" d="M603.101,254.996h10.188c1.561,0,2.832,1.27,2.832,2.83v10.469
					c0,1.557-1.271,2.832-2.832,2.832h-10.188c-1.56,0-2.833-1.275-2.833-2.83v-10.469
					C600.268,256.266,601.542,254.996,603.101,254.996"/>
				<path fill="#434343" stroke="#E6E7E8" stroke-miterlimit="10" d="M622.666,254.996h10.188c1.556,0,2.832,1.27,2.832,2.83v10.469
					c0,1.557-1.276,2.832-2.832,2.832h-10.188c-1.56,0-2.836-1.275-2.836-2.832v-10.469
					C619.83,256.266,621.107,254.996,622.666,254.996"/>
				<path fill="#434343" stroke="#E6E7E8" stroke-miterlimit="10" d="M642.23,254.996h10.191c1.557,0,2.83,1.27,2.83,2.83v10.469
					c0,1.557-1.273,2.832-2.83,2.832H642.23c-1.557,0-2.834-1.275-2.834-2.832v-10.469
					C639.396,256.266,640.674,254.996,642.23,254.996"/>
				<path fill="#434343" stroke="#E6E7E8" stroke-miterlimit="10" d="M661.793,254.996h10.188c1.563,0,2.834,1.27,2.834,2.83v10.469
					c0,1.557-1.271,2.832-2.834,2.832h-10.188c-1.556,0-2.832-1.275-2.832-2.832v-10.469
					C658.961,256.266,660.238,254.996,661.793,254.996"/>
				<path fill="#434343" stroke="#E6E7E8" stroke-miterlimit="10" d="M681.359,254.996h10.187c1.563,0,2.84,1.27,2.84,2.83v10.469
					c0,1.557-1.275,2.832-2.84,2.832h-10.187c-1.559,0-2.834-1.275-2.834-2.832v-10.469
					C678.525,256.266,679.801,254.996,681.359,254.996"/>
				<path fill="#434343" stroke="#E6E7E8" stroke-miterlimit="10" d="M495.96,273.918h10.188c1.557,0,2.832,1.273,2.832,2.836
					v10.467c0,1.555-1.275,2.83-2.832,2.83H495.96c-1.56,0-2.832-1.275-2.832-2.83v-10.467
					C493.128,275.191,494.401,273.918,495.96,273.918"/>
				<path fill="#434343" stroke="#E6E7E8" stroke-miterlimit="10" d="M515.521,273.918h10.189c1.559,0,2.834,1.273,2.834,2.836
					v10.467c0,1.555-1.275,2.83-2.834,2.83h-10.189c-1.559,0-2.831-1.275-2.831-2.83v-10.467
					C512.69,275.191,513.964,273.918,515.521,273.918"/>
				<path fill="#434343" stroke="#E6E7E8" stroke-miterlimit="10" d="M535.087,273.918h10.188c1.562,0,2.832,1.273,2.832,2.836
					v10.467c0,1.555-1.271,2.83-2.832,2.83h-10.188c-1.556,0-2.832-1.275-2.832-2.83v-10.467
					C532.255,275.191,533.531,273.918,535.087,273.918"/>
				<path fill="#434343" stroke="#E6E7E8" stroke-miterlimit="10" d="M554.65,273.918h10.192c1.558,0,2.832,1.273,2.832,2.836
					v10.467c0,1.555-1.274,2.83-2.832,2.83H554.65c-1.556,0-2.829-1.275-2.829-2.83v-10.467
					C551.821,275.191,553.094,273.918,554.65,273.918"/>
				<path fill="#434343" stroke="#E6E7E8" stroke-miterlimit="10" d="M574.216,273.918h10.191c1.557,0,2.832,1.273,2.832,2.836
					v10.467c0,1.555-1.275,2.83-2.832,2.83h-10.191c-1.56,0-2.834-1.275-2.834-2.83v-10.467
					C571.382,275.191,572.656,273.918,574.216,273.918"/>
				<path fill="#434343" stroke="#E6E7E8" stroke-miterlimit="10" d="M593.779,273.918h10.189c1.562,0,2.835,1.273,2.835,2.834
					v10.467c0,1.555-1.273,2.832-2.835,2.832h-10.189c-1.556,0-2.829-1.275-2.829-2.83v-10.467
					C590.95,275.191,592.223,273.918,593.779,273.918"/>
				<path fill="#434343" stroke="#E6E7E8" stroke-miterlimit="10" d="M613.344,273.918h10.19c1.56,0,2.832,1.273,2.832,2.834v10.467
					c0,1.555-1.272,2.83-2.832,2.83h-10.19c-1.557,0-2.83-1.275-2.83-2.83v-10.467C610.514,275.191,611.787,273.918,613.344,273.918
					"/>
				<path fill="#434343" stroke="#E6E7E8" stroke-miterlimit="10" d="M632.906,273.918h10.193c1.555,0,2.828,1.273,2.828,2.834
					v10.467c0,1.555-1.273,2.83-2.828,2.83h-10.193c-1.555,0-2.827-1.275-2.827-2.83v-10.467
					C630.078,275.191,631.351,273.918,632.906,273.918"/>
				<path fill="#434343" stroke="#E6E7E8" stroke-miterlimit="10" d="M652.474,273.918h10.188c1.557,0,2.834,1.273,2.834,2.834
					v10.467c0,1.555-1.277,2.83-2.834,2.83h-10.188c-1.561,0-2.832-1.275-2.832-2.83v-10.467
					C649.642,275.191,650.914,273.918,652.474,273.918"/>
				<path fill="#434343" stroke="#E6E7E8" stroke-miterlimit="10" d="M672.037,273.918h10.19c1.557,0,2.832,1.273,2.832,2.834
					v10.467c0,1.555-1.275,2.83-2.832,2.83h-10.19c-1.556,0-2.83-1.275-2.83-2.83v-10.467
					C669.207,275.191,670.482,273.918,672.037,273.918"/>
				<path fill="#434343" stroke="#E6E7E8" stroke-miterlimit="10" d="M691.654,273.918h18.425c1.582,0,2.882,1.297,2.882,2.877
					v10.373c0,1.584-1.3,2.881-2.882,2.881h-18.425c-1.588,0-2.885-1.297-2.885-2.881v-10.373
					C688.769,275.215,690.066,273.918,691.654,273.918"/>
				<path fill="#434343" stroke="#E6E7E8" stroke-miterlimit="10" d="M476.076,292.842h10.187c1.559,0,2.834,1.273,2.834,2.834
					v10.469c0,1.558-1.275,2.826-2.834,2.826h-10.187c-1.559,0-2.834-1.27-2.834-2.826v-10.469
					C473.242,294.115,474.517,292.842,476.076,292.842"/>
				<path fill="#434343" stroke="#E6E7E8" stroke-miterlimit="10" d="M495.638,292.842h10.191c1.558,0,2.833,1.273,2.833,2.834
					v10.469c0,1.558-1.275,2.826-2.833,2.826h-10.191c-1.555,0-2.832-1.27-2.832-2.826v-10.469
					C492.807,294.115,494.084,292.842,495.638,292.842"/>
				<path fill="#434343" stroke="#E6E7E8" stroke-miterlimit="10" d="M515.204,292.842h10.189c1.559,0,2.834,1.273,2.834,2.834
					v10.469c0,1.558-1.275,2.826-2.834,2.826h-10.189c-1.556,0-2.831-1.27-2.831-2.826v-10.469
					C512.372,294.115,513.647,292.842,515.204,292.842"/>
				<path fill="#434343" stroke="#E6E7E8" stroke-miterlimit="10" d="M534.766,292.842h88.275c1.559,0,2.836,1.273,2.836,2.834
					v10.469c0,1.558-1.277,2.826-2.836,2.826h-88.275c-1.553,0-2.831-1.27-2.831-2.826v-10.469
					C531.934,294.115,533.214,292.842,534.766,292.842"/>
				<path fill="#434343" stroke="#E6E7E8" stroke-miterlimit="10" d="M632.592,292.842h10.188c1.554,0,2.834,1.273,2.834,2.834
					v10.467c0,1.56-1.28,2.828-2.834,2.828h-10.188c-1.562,0-2.836-1.27-2.836-2.828v-10.467
					C629.756,294.115,631.031,292.842,632.592,292.842"/>
				<path fill="#434343" stroke="#E6E7E8" stroke-miterlimit="10" d="M652.152,292.842h10.195c1.555,0,2.828,1.273,2.828,2.834
					v10.467c0,1.56-1.273,2.828-2.828,2.828h-10.195c-1.555,0-2.83-1.27-2.83-2.828v-10.467
					C649.322,294.115,650.598,292.842,652.152,292.842"/>
				<path fill="#434343" stroke="#E6E7E8" stroke-miterlimit="10" d="M671.769,292.842h18.424c1.582,0,2.879,1.293,2.879,2.881
					v10.369c0,1.586-1.297,2.879-2.879,2.879h-18.424c-1.586,0-2.881-1.293-2.881-2.879v-10.369
					C668.889,294.135,670.183,292.842,671.769,292.842"/>
				<path fill="#434343" stroke="#E6E7E8" stroke-miterlimit="10" d="M700.569,292.842h9.695c1.479,0,2.695,1.209,2.695,2.691
					v10.746c0,1.479-1.217,2.691-2.695,2.691h-9.695c-1.48,0-2.695-1.214-2.695-2.691v-10.746
					C697.873,294.051,699.088,292.842,700.569,292.842"/>
				<path fill="#D5D4D4" stroke="#E6E7E8" stroke-miterlimit="10" d="M553.553,322.732l89.884-0.002c1.371,0,2.49,1.119,2.49,2.487
					v43.222c0,1.369-1.119,2.492-2.49,2.492h-89.884c-1.368,0-2.491-1.123-2.491-2.492v-43.219
					C551.061,323.85,552.184,322.732,553.553,322.732"/>
				<path fill="#D5D4D4" stroke="#E6E7E8" stroke-miterlimit="10" d="M551.579,374.164h44.702c0.286,0,0.519,0.229,0.519,0.514
					v8.977c0,0.283-0.231,0.519-0.519,0.519h-44.702c-0.284,0-0.518-0.233-0.518-0.519v-8.977
					C551.061,374.393,551.295,374.164,551.579,374.164"/>
				<path fill="#D5D4D4" stroke="#E6E7E8" stroke-miterlimit="10" d="M600.709,374.164h44.703c0.284,0,0.516,0.229,0.516,0.514
					v8.975c0,0.285-0.23,0.521-0.516,0.521h-44.703c-0.287,0-0.518-0.233-0.518-0.519v-8.977
					C600.191,374.393,600.423,374.164,600.709,374.164"/>
			</g>
		</g>
		<g>
			<path fill="#434343" d="M406.344,55.718h386.353c9.291,0,12.115,5.031,8.31,11.968l-32.326,99.288H430.129l-28.803-93.255
				C394.859,61.862,396.111,55.718,406.344,55.718"/>
			<polygon fill="#00B6BE" points="781.227,73.648 757.72,153.104 441.356,153.104 417.606,73.648 			"/>
			<path fill="#D5D4D4" d="M455.087,160.139h13.466c0.854,0,1.554,0.819,1.554,1.81v18.454c0,0.994-0.701,1.808-1.554,1.808h-13.466
				c-0.855,0-1.559-0.814-1.559-1.808v-18.454C453.528,160.958,454.231,160.139,455.087,160.139"/>
			<path fill="#D5D4D4" d="M731.143,160.139h13.463c0.855,0,1.56,0.819,1.56,1.81v18.454c0,0.994-0.703,1.808-1.56,1.808h-13.463
				c-0.857,0-1.557-0.814-1.557-1.808v-18.454C729.587,160.958,730.285,160.139,731.143,160.139"/>
		</g>
	</g>
</g>
<path opacity="0.3" fill="#010101" enable-background="new    " d="M913.029,249h-0.635L912,247.891v-0.871
	c0-0.777-0.937-1.455-1.716-1.457l-104.993-0.164c-0.778-0.002-1.486,0.617-1.488,1.396l-0.046,6.399l-4.165-0.01
	c-0.191,0-0.362,0.158-0.362,0.352c0,0.195,0.154,0.354,0.348,0.354l4.143,0.006l-0.002,0.97l-4.146-0.007
	c-0.194-0.002-0.354,0.156-0.354,0.353c-0.001,0.194,0.158,0.354,0.353,0.354l4.145,0.006l-0.011,7.402l-4.146-0.006
	c-0.195,0.001-0.353,0.157-0.354,0.354c0.002,0.195,0.31,0.352,0.502,0.352l4.294,0.007v0.97l-4.296-0.006
	c-0.192,0.002-0.426,0.158-0.427,0.354c0.001,0.195,0.121,0.354,0.315,0.354l4.125,0.006l-0.021,7.404l-4.146-0.006
	c-0.197-0.001-0.354,0.156-0.356,0.354c0,0.193,0.312,0.353,0.504,0.353l4.301,0.006v0.97l-4.302-0.006
	c-0.194-0.001-0.429,0.157-0.429,0.352c0,0.197,0.116,0.353,0.314,0.354l4.122,0.007l-0.021,7.402l-4.148-0.005
	c-0.195-0.003-0.354,0.157-0.354,0.354c0,0.192,0.315,0.351,0.511,0.351l4.305,0.007v0.971l-4.309-0.007
	c-0.193,0-0.431,0.157-0.433,0.353c0,0.194,0.118,0.352,0.312,0.352l4.124,0.007l-0.019,7.404l-4.153-0.005
	c-0.19-0.002-0.354,0.154-0.354,0.352c0,0.195,0.156,0.352,0.353,0.352l4.143,0.007l-0.002,0.971l-4.145-0.005
	c-0.193,0-0.352,0.157-0.354,0.35c-0.002,0.195,0.156,0.355,0.352,0.356l4.146,0.004l-0.011,7.403l-4.146-0.006
	c-0.193,0-0.353,0.158-0.353,0.354c-0.002,0.193,0.331,0.354,0.524,0.354l4.32,0.006v0.969l-4.319-0.004
	c-0.193,0-0.441,0.154-0.441,0.353c0,0.193,0.114,0.351,0.309,0.353l4.124,0.006l-0.021,7.402l-4.153-0.004
	c-0.191,0-0.354,0.155-0.354,0.353c0,0.192,0.335,0.354,0.529,0.353L804,312.6v0.971l-4.329-0.006c-0.192,0-0.442,0.158-0.443,0.352
	c0.003,0.195,0.114,0.354,0.308,0.354l4.122,0.006l-0.021,7.404l-4.151-0.006c-0.192-0.002-0.352,0.158-0.354,0.354
	c0,0.193,0.154,0.352,0.351,0.352l4.146,0.006l-0.002,0.971l-4.146-0.006c-0.193,0-0.353,0.155-0.353,0.353
	c-0.001,0.196,0.156,0.354,0.353,0.354l4.146,0.006l-0.011,7.401l-4.146-0.005c-0.193,0-0.352,0.158-0.354,0.352
	c-0.002,0.196,0.158,0.354,0.352,0.354l4.146,0.006l-0.002,0.97l-4.145-0.008c-0.197,0-0.354,0.159-0.353,0.354
	c-0.004,0.193,0.155,0.354,0.35,0.354l4.146,0.006l-0.01,7.405l-4.146-0.006c-0.192-0.001-0.354,0.155-0.353,0.353
	c-0.001,0.195,0.357,0.353,0.552,0.353l4.348,0.006v0.97l-4.348-0.006c-0.193,0-0.455,0.159-0.454,0.352
	c0,0.197,0.108,0.355,0.304,0.354l4.118,0.007l-0.021,7.404l-4.153-0.006c-0.192,0-0.355,0.157-0.354,0.352
	c0,0.194,0.363,0.354,0.558,0.354l4.354,0.006v0.969l-4.355-0.006c-0.193,0-0.456,0.156-0.456,0.354
	c0,0.195,0.105,0.353,0.298,0.353l4.122,0.006l-0.023,7.608l-4.152-0.004c-0.194,0-0.354,0.158-0.355,0.353
	c0.002,0.194,0.369,0.353,0.565,0.353l4.358,0.006v0.969l-4.361-0.006c-0.191,0-0.461,0.158-0.463,0.354
	c0.001,0.194,0.105,0.352,0.3,0.352l4.12,0.008l-0.023,7.402l-4.153-0.004c-0.191,0-0.355,0.156-0.355,0.353s0.377,0.353,0.57,0.354
	l4.367,0.006v0.967l-4.369-0.006c-0.192,0-0.463,0.158-0.463,0.354s0.102,0.354,0.296,0.354l4.118,0.006l-0.023,7.404l-4.155-0.006
	c-0.192-0.002-0.353,0.159-0.354,0.354c0.002,0.195,0.385,0.354,0.578,0.354l4.373,0.006v0.971l-4.377-0.006
	c-0.192-0.002-0.468,0.154-0.466,0.351c0,0.194,0.101,0.351,0.293,0.354l4.119,0.006l-0.021,5.467
	c-0.004,0.781,0.61,1.563,1.393,1.563h0.891l1.169,0.672v0.986c0,0.777,0.422,1.374,1.202,1.374l104.731,0.127
	c0.777,0.001,1.356-0.64,1.357-1.417l0.172-141.42C914.464,249.544,913.807,249,913.029,249z"/>
<path opacity="0.3" fill="#010101" enable-background="new    " d="M394.994,271c-0.028-1-0.039-1.51-0.073-2.223
	c-0.796-18.662-2.48-35.118-3.917-44.594c-1.688-0.004-3.373-0.03-5.063-0.035c-0.612,3.924-1.271,9.04-1.9,15.012l0.006-0.313
	c-0.099,0.383-0.193,0.789-0.287,1.209c-0.029,0.133-0.06,0.266-0.088,0.399c-0.091,0.419-0.18,0.847-0.266,1.3
	c-0.015,0.078-0.028,0.161-0.043,0.24c-0.076,0.412-0.15,0.839-0.224,1.277c-0.024,0.146-0.049,0.291-0.072,0.438
	c-0.082,0.509-0.071,1.027-0.147,1.568c-0.005,0.021,0.079,0.043,0.079,0.065v0.008c-1,10.853-2.318,28.256-1.704,47.726
	c0.071,2.31,0.116,4.584,0.224,6.819l0.594,0.01l0,0l1.131,0.015l0.164-12.651l1.024,107.33l0.215-0.002
	c0.003,0.299,0.005,0.598,0.007,0.896c3.143,1.096,6.563,1.063,9.677-0.093c-0.001-0.299-0.004-0.598-0.007-0.896l0.22-0.003
	l-1.174-122.464l2.333-0.238L395.526,271H396v0.172v-0.104l0,0V271H394.994z"/>
<polygon opacity="0.3" fill="#010101" enable-background="new    " points="368.595,281 364,281 364,280.632 363.154,281 
	361.502,281 354.406,281 352.186,310.143 352,310.26 352,314.857 354.71,395 361.502,395 368.294,395 371,314.857 371,310.26 
	370.815,310.141 "/>
<g>
	<path fill="#56C3BA" d="M908.486,391.732c-0.002,0.777-0.633,1.408-1.41,1.408l-104.836-0.146c-0.782,0-1.413-0.636-1.412-1.411
		l0.195-141.508c0.001-0.778,0.631-1.408,1.412-1.406l104.839,0.143c0.778,0.002,1.409,0.633,1.409,1.412L908.486,391.732z"/>
	<polygon fill="#E6E8EB" points="907.311,391.73 907.508,249.754 904.691,246.693 799.188,246.552 798.993,388.527 801.809,391.586 
			"/>
	<polygon fill="#CED6D7" points="907.311,391.73 907.311,391.73 904.494,388.674 799.188,246.552 798.993,388.527 801.809,391.586 	
		"/>
	
		<rect x="780.838" y="264.857" transform="matrix(0.0014 -1 1 0.0014 533.0299 1168.9915)" fill="#E6E8EB" width="141.98" height="105.503"/>
	<path fill="#01A79D" d="M905.437,388.438c-0.003,0.778-0.632,1.41-1.413,1.408l-104.836-0.143
		c-0.781-0.002-1.412-0.635-1.407-1.415l0.192-141.506c0-0.778,0.632-1.409,1.411-1.406l104.839,0.144
		c0.779,0.002,1.408,0.635,1.407,1.412L905.437,388.438z"/>
	<g>
		<path fill="#49505A" d="M802.293,254.396c0-1.052,0.854-1.906,1.909-1.904c1.058,0.003,1.91,0.857,1.909,1.91
			c0,1.059-0.857,1.912-1.912,1.91C803.144,256.313,802.289,255.455,802.293,254.396z"/>
		<path fill="#49505A" d="M802.28,264.208c0.001-1.056,0.857-1.909,1.91-1.908c1.055,0.002,1.911,0.857,1.909,1.914
			c-0.003,1.054-0.858,1.909-1.916,1.907C803.133,266.12,802.277,265.262,802.28,264.208z"/>
		<path fill="#49505A" d="M802.264,274.016c0.004-1.056,0.856-1.908,1.913-1.908c1.058,0.002,1.909,0.856,1.908,1.916
			c0.001,1.053-0.856,1.908-1.913,1.906C803.116,275.928,802.264,275.071,802.264,274.016z"/>
		<circle fill="#49505A" cx="804.161" cy="283.825" r="1.91"/>
		<path fill="#49505A" d="M802.238,293.633c0.002-1.059,0.857-1.91,1.911-1.908c1.056,0.002,1.911,0.855,1.909,1.911
			s-0.857,1.91-1.916,1.909C803.089,295.544,802.238,294.686,802.238,293.633z"/>
		<path fill="#49505A" d="M802.224,303.438c0.001-1.055,0.857-1.908,1.913-1.905c1.056,0,1.909,0.854,1.908,1.913
			c0,1.053-0.859,1.908-1.914,1.906C803.077,305.352,802.223,304.492,802.224,303.438z"/>
		<path fill="#49505A" d="M802.211,313.246c0-1.057,0.856-1.909,1.91-1.909c1.059,0.003,1.913,0.858,1.908,1.915
			c0,1.057-0.855,1.906-1.912,1.906C803.063,315.157,802.211,314.301,802.211,313.246z"/>
		<path fill="#49505A" d="M802.197,323.055c0.004-1.059,0.858-1.91,1.912-1.908c1.056,0,1.91,0.855,1.91,1.912
			c-0.002,1.055-0.859,1.914-1.915,1.912C803.048,324.968,802.196,324.109,802.197,323.055z"/>
		<path fill="#49505A" d="M802.186,332.863c0.002-1.057,0.855-1.913,1.911-1.911c1.054,0.002,1.909,0.86,1.907,1.915
			c-0.004,1.053-0.856,1.908-1.913,1.906C803.035,334.773,802.184,333.914,802.186,332.863z"/>
		<path fill="#49505A" d="M802.171,342.671c0.001-1.058,0.856-1.909,1.911-1.907c1.057,0.002,1.909,0.854,1.909,1.912
			c0,1.057-0.856,1.91-1.916,1.907C803.023,344.582,802.169,343.725,802.171,342.671z"/>
		<path fill="#49505A" d="M802.156,352.479c0.004-1.057,0.857-1.91,1.912-1.91c1.06,0.005,1.912,0.859,1.91,1.916
			c-0.001,1.056-0.858,1.906-1.913,1.906C803.008,354.391,802.156,353.532,802.156,352.479z"/>
	</g>
	<g>
		<g>
			<path fill="#FFFFFF" d="M793.818,253.889c-0.194-0.002-0.352-0.158-0.352-0.354l0,0c-0.002-0.192,0.159-0.351,0.352-0.351
				l9.873,0.014c0.195,0.002,0.354,0.156,0.354,0.354l0,0c0,0.194-0.159,0.352-0.354,0.354L793.818,253.889z"/>
			<path fill="#FFFFFF" d="M793.815,255.563c-0.193,0-0.353-0.158-0.352-0.354l0,0c0-0.195,0.157-0.354,0.353-0.352l9.875,0.013
				c0.192,0,0.353,0.157,0.351,0.354l0,0c0.002,0.194-0.158,0.354-0.354,0.354L793.815,255.563z"/>
		</g>
		<g>
			<path fill="#FFFFFF" d="M793.804,263.671c-0.192,0-0.353-0.155-0.354-0.353l0,0c0.001-0.194,0.158-0.352,0.354-0.353l9.875,0.015
				c0.192,0,0.352,0.158,0.35,0.353l0,0c0,0.194-0.158,0.353-0.352,0.353L793.804,263.671z"/>
			<path fill="#FFFFFF" d="M793.803,265.348c-0.195,0-0.353-0.156-0.354-0.354l0,0c0.001-0.194,0.158-0.352,0.354-0.354l9.873,0.017
				c0.192-0.003,0.354,0.157,0.354,0.352l0,0c-0.002,0.194-0.159,0.353-0.353,0.353L793.803,265.348z"/>
		</g>
		<g>
			<path fill="#FFFFFF" d="M793.789,273.457c-0.193,0-0.351-0.158-0.351-0.352l0,0c0.002-0.197,0.157-0.354,0.354-0.354l9.873,0.015
				c0.193,0,0.351,0.156,0.351,0.353l0,0c-0.002,0.194-0.158,0.352-0.353,0.352L793.789,273.457z"/>
			<path fill="#FFFFFF" d="M793.791,275.133c-0.197-0.003-0.354-0.158-0.354-0.355l0,0c0-0.192,0.158-0.352,0.353-0.351l9.875,0.013
				c0.192,0.002,0.352,0.16,0.352,0.354l0,0c-0.001,0.195-0.158,0.354-0.354,0.354L793.791,275.133z"/>
		</g>
		<g>
			<path fill="#FFFFFF" d="M793.777,283.241c-0.192,0-0.351-0.157-0.35-0.351l0,0c-0.001-0.197,0.155-0.356,0.352-0.354l9.873,0.013
				c0.193,0.001,0.354,0.156,0.354,0.354l0,0c-0.001,0.193-0.158,0.354-0.354,0.352L793.777,283.241z"/>
			<path fill="#FFFFFF" d="M793.775,284.915c-0.192,0-0.352-0.156-0.352-0.353l0,0c0.002-0.193,0.157-0.352,0.352-0.352l9.876,0.014
				c0.193,0,0.352,0.158,0.353,0.353l0,0c0,0.194-0.16,0.354-0.354,0.353L793.775,284.915z"/>
		</g>
		<g>
			<path fill="#FFFFFF" d="M793.766,293.023c-0.195,0-0.354-0.155-0.354-0.352l0,0c0-0.195,0.159-0.354,0.353-0.352l9.877,0.013
				c0.193,0,0.35,0.157,0.351,0.353l0,0c0,0.194-0.161,0.353-0.353,0.353L793.766,293.023z"/>
			<path fill="#FFFFFF" d="M793.761,294.702c-0.193-0.001-0.353-0.161-0.352-0.357l0,0c0.001-0.19,0.16-0.349,0.354-0.349
				l9.873,0.013c0.19,0,0.351,0.159,0.351,0.351l0,0c0,0.197-0.159,0.356-0.351,0.354L793.761,294.702z"/>
		</g>
		<g>
			<path fill="#FFFFFF" d="M793.748,302.811c-0.191,0-0.351-0.16-0.35-0.354l0,0c0.001-0.195,0.159-0.354,0.354-0.354l9.874,0.015
				c0.193,0,0.351,0.157,0.351,0.354l0,0c0,0.192-0.158,0.353-0.354,0.351L793.748,302.811z"/>
			<path fill="#FFFFFF" d="M793.747,304.484c-0.192-0.002-0.352-0.158-0.352-0.353l0,0c0-0.196,0.16-0.353,0.352-0.353l9.878,0.012
				c0.19,0.003,0.351,0.158,0.351,0.355l0,0c0,0.191-0.161,0.35-0.354,0.35L793.747,304.484z"/>
		</g>
		<g>
			<path fill="#FFFFFF" d="M793.736,312.594c-0.192,0.002-0.35-0.16-0.35-0.353l0,0c-0.002-0.196,0.159-0.353,0.352-0.353
				l9.873,0.014c0.195,0,0.354,0.156,0.353,0.354l0,0c0.002,0.193-0.156,0.354-0.353,0.352L793.736,312.594z"/>
			<path fill="#FFFFFF" d="M793.734,314.27c-0.192,0-0.35-0.158-0.352-0.354l0,0c0-0.193,0.159-0.352,0.352-0.352l9.875,0.013
				c0.193,0,0.353,0.161,0.353,0.354l0,0c0,0.194-0.158,0.352-0.353,0.352L793.734,314.27z"/>
		</g>
		<g>
			<path fill="#FFFFFF" d="M793.725,322.378c-0.195,0-0.354-0.157-0.354-0.353l0,0c0.002-0.193,0.159-0.354,0.354-0.353l9.872,0.013
				c0.193-0.002,0.354,0.16,0.354,0.355l0,0c0.001,0.193-0.157,0.35-0.353,0.35L793.725,322.378z"/>
			<path fill="#FFFFFF" d="M793.721,324.055c-0.195,0-0.353-0.158-0.352-0.354l0,0c0-0.196,0.159-0.354,0.353-0.354l9.874,0.016
				c0.195,0.003,0.353,0.156,0.352,0.352l0,0c0,0.196-0.158,0.354-0.353,0.354L793.721,324.055z"/>
		</g>
		<g>
			<path fill="#FFFFFF" d="M793.709,332.164c-0.192,0-0.353-0.158-0.351-0.354l0,0c0.002-0.193,0.158-0.353,0.354-0.353l9.874,0.013
				c0.19,0.002,0.352,0.159,0.349,0.354l0,0c0.002,0.194-0.155,0.354-0.351,0.353L793.709,332.164z"/>
			<path fill="#FFFFFF" d="M793.707,333.838c-0.193,0-0.353-0.16-0.35-0.354l0,0c-0.002-0.193,0.155-0.354,0.354-0.354l9.873,0.014
				c0.192,0,0.351,0.158,0.351,0.354l0,0c-0.003,0.194-0.159,0.351-0.353,0.351L793.707,333.838z"/>
		</g>
		<g>
			<path fill="#FFFFFF" d="M793.697,341.947c-0.192,0-0.352-0.156-0.351-0.352l0,0c-0.002-0.197,0.159-0.354,0.351-0.354
				l9.875,0.014c0.192,0.001,0.353,0.159,0.352,0.354l0,0c0.001,0.195-0.159,0.35-0.353,0.35L793.697,341.947z"/>
			<path fill="#FFFFFF" d="M793.697,343.621c-0.194,0.003-0.354-0.156-0.354-0.354l0,0c-0.002-0.191,0.158-0.352,0.354-0.352
				l9.872,0.014c0.192,0,0.352,0.158,0.354,0.354l0,0c-0.002,0.195-0.161,0.353-0.354,0.353L793.697,343.621z"/>
		</g>
		<g>
			<path fill="#FFFFFF" d="M793.684,351.732c-0.193,0-0.352-0.16-0.352-0.354l0,0c-0.003-0.194,0.157-0.353,0.352-0.353l9.874,0.014
				c0.194,0.002,0.352,0.159,0.354,0.355l0,0c-0.002,0.191-0.16,0.353-0.353,0.352L793.684,351.732z"/>
			<path fill="#FFFFFF" d="M793.681,353.406c-0.193,0-0.354-0.156-0.354-0.354l0,0c0-0.195,0.159-0.353,0.354-0.353l9.877,0.013
				c0.189,0.002,0.35,0.159,0.348,0.355l0,0c0.002,0.193-0.158,0.353-0.352,0.352L793.681,353.406z"/>
		</g>
		<g>
			<circle fill="#49505A" cx="804.054" cy="362.259" r="1.911"/>
			<path fill="#49505A" d="M802.129,372.064c0.004-1.057,0.858-1.91,1.914-1.908c1.053,0,1.907,0.857,1.907,1.916
				c0,1.052-0.857,1.906-1.915,1.908C802.982,373.977,802.129,373.12,802.129,372.064z"/>
			<path fill="#49505A" d="M802.116,381.874c0.002-1.056,0.857-1.911,1.912-1.907c1.058,0.001,1.911,0.854,1.908,1.912
				c-0.002,1.055-0.857,1.908-1.916,1.905C802.971,383.783,802.115,382.927,802.116,381.874z"/>
		</g>
		<g>
			<path fill="#FFFFFF" d="M793.67,361.721c-0.195,0-0.352-0.156-0.354-0.352l0,0c0.002-0.194,0.159-0.354,0.354-0.354l9.875,0.014
				c0.192,0,0.354,0.16,0.351,0.353l0,0c-0.001,0.195-0.157,0.354-0.351,0.354L793.67,361.721z"/>
			<path fill="#FFFFFF" d="M793.668,363.396c-0.195,0-0.354-0.158-0.354-0.353l0,0c0.003-0.194,0.163-0.354,0.356-0.354l9.873,0.015
				c0.192,0,0.351,0.159,0.35,0.354l0,0c0.002,0.194-0.159,0.353-0.352,0.353L793.668,363.396z"/>
		</g>
		<g>
			<path fill="#FFFFFF" d="M793.655,371.507c-0.191-0.001-0.351-0.157-0.351-0.354l0,0c0-0.194,0.16-0.353,0.353-0.353l9.873,0.013
				c0.194,0.002,0.354,0.16,0.352,0.354l0,0c0,0.194-0.157,0.353-0.353,0.353L793.655,371.507z"/>
			<path fill="#FFFFFF" d="M793.654,373.18c-0.193,0.002-0.352-0.156-0.353-0.353l0,0c0.001-0.195,0.16-0.353,0.353-0.353
				l9.875,0.014c0.194,0,0.353,0.158,0.351,0.354l0,0c0.002,0.195-0.158,0.354-0.353,0.354L793.654,373.18z"/>
		</g>
		<g>
			<path fill="#FFFFFF" d="M793.643,381.291c-0.193,0-0.352-0.158-0.352-0.354l0,0c0-0.193,0.157-0.354,0.352-0.354l9.875,0.014
				c0.194,0.002,0.354,0.158,0.352,0.354l0,0c-0.002,0.195-0.157,0.354-0.354,0.354L793.643,381.291z"/>
			<path fill="#FFFFFF" d="M793.641,382.965c-0.193-0.003-0.353-0.158-0.353-0.354l0,0c-0.001-0.195,0.158-0.353,0.353-0.352
				l9.874,0.014c0.194,0,0.353,0.156,0.353,0.354l0,0c-0.001,0.196-0.157,0.352-0.352,0.352L793.641,382.965z"/>
		</g>
	</g>
</g>
<g>
	<path fill="#28292C" d="M379.887,394.163c0.004,0.444,0.008,0.89,0.012,1.332c3.143,1.096,6.563,1.063,9.678-0.093
		c-0.003-0.443-0.008-0.885-0.012-1.332L379.887,394.163z"/>
	<path fill="#28292C" d="M388.048,394.521c-2.212,0.021-4.423,0.043-6.634,0.063c-0.016-1.414-0.026-2.827-0.039-4.241
		c2.137-0.791,4.481-0.814,6.632-0.063C388.021,391.693,388.033,393.107,388.048,394.521z"/>
	<g>
		<path fill="#B7BEC0" d="M382.429,240.109c-0.006-0.449,0.37-1.476,0.844-1.479l0,0c0.471-0.004,0.865,1.011,0.869,1.464
			l0.019,2.073c0.005,0.453-0.374,0.821-0.848,0.827l0,0c-0.473,0.004-0.861-0.359-0.865-0.811L382.429,240.109z"/>
		<path fill="#CED6D7" d="M382.179,240.619c-0.669,1.794-1.102,5.277-1.065,9.281c0.058,5.824,1.088,10.537,2.307,10.526
			c1.217-0.012,2.156-4.745,2.101-10.567c-0.038-4.004-0.537-7.48-1.24-9.26L382.179,240.619z"/>
		<path fill="#B7BEC0" d="M384.486,243.83c0.08,8.439-0.844,15.289-2.057,15.303c-0.033-0.001-0.06-0.008-0.088-0.018
			c0.322,0.838,0.692,1.314,1.079,1.313c1.217-0.012,2.156-4.746,2.101-10.568c-0.035-3.736-0.472-7.017-1.104-8.885
			C384.448,241.9,384.475,242.854,384.486,243.83z"/>
		<path fill="#969B9D" d="M384.737,246.78c0.074,0.975,0.121,2.006,0.13,3.086c0.054,5.3-0.724,9.685-1.779,10.438
			c0.109,0.08,0.218,0.124,0.333,0.123c1.217-0.012,2.156-4.745,2.101-10.567c-0.009-1.051-0.055-2.056-0.123-3.008L384.737,246.78z
			"/>
		
			<rect x="382.1" y="254.291" transform="matrix(-1 0.0098 -0.0098 -1 770.7596 606.5951)" fill="#28292C" width="3.589" height="101.789"/>
		
			<rect x="379.03" y="254.277" transform="matrix(-1 0.0095 -0.0095 -1 771.2263 645.1905)" opacity="0.3" fill="#E6E8EB" enable-background="new    " width="10.113" height="140.286"/>
		<g>
			<path opacity="0.3" fill="#D4DBDD" enable-background="new    " d="M380.805,246.802c-0.802,2.509-1.609,5.019-2.413,7.525
				c3.345-0.032,6.688-0.063,10.034-0.097c-0.854-2.492-1.707-4.983-2.562-7.479C384.335,246.241,382.326,246.262,380.805,246.802z"
				/>
			<path opacity="0.3" fill="#E6E8EB" enable-background="new    " d="M381.363,246.738c-0.049,0.02-0.102,0.035-0.147,0.06
				c-0.613,2.507-1.225,5.015-1.834,7.521c1.371-0.014,1.729-0.018,3.099-0.029c-0.063-2.824-0.242-5.104-0.459-7.499
				C381.973,246.77,381.413,246.758,381.363,246.738z"/>
			<path opacity="0.3" fill="#E6E8EB" enable-background="new    " d="M386.257,254.252c0.338-0.003,0.709-0.008,1.225-0.012
				c-0.658-2.495-1.318-4.989-1.978-7.483c-0.049-0.022-0.101-0.037-0.148-0.058c-0.051,0.021-0.608,0.044-0.657,0.064
				c-0.028,0.42-0.057,0.842-0.084,1.258C385.159,250.1,385.712,252.175,386.257,254.252z"/>
			<path opacity="0.3" fill="#969B9D" enable-background="new    " d="M380.811,247.333c1.521-0.542,3.529-0.563,5.059-0.049
				c0.791,2.315,2.494,6.946,2.556,6.946c-0.854-2.492-1.707-4.983-2.562-7.479c-1.529-0.512-3.538-0.491-5.06,0.049
				C380.003,249.311,380.064,249.661,380.811,247.333z"/>
		</g>
		
			<rect x="387.005" y="254.258" transform="matrix(-1 0.0092 -0.0092 -1 779.1026 645.2096)" opacity="0.3" fill="#E6E8EB" enable-background="new    " width="2.119" height="140.284"/>
		
			<rect x="380.619" y="254.3" transform="matrix(1 -0.008 0.008 1 -2.5807 3.0561)" opacity="0.3" fill="#E6E8EB" enable-background="new    " width="0.978" height="140.283"/>
	</g>
	<g>
		<path fill="#E6E6E5" d="M379.294,238.843c-2.389,9.29-3.604,30.189-2.845,54.237c0.072,2.311,0.163,4.584,0.27,6.818l1.759,0.024
			L379.294,238.843z"/>
		<path fill="#28292C" d="M378.064,245.348l-0.728,54.563l1.142,0.015l0.816-61.081C378.838,240.609,378.429,242.8,378.064,245.348z
			"/>
		<g>
			<path fill="#28292C" d="M390.298,271.229c-0.034-0.844-0.07-1.693-0.112-2.547c-0.796-18.662-2.491-35.07-3.926-44.547
				c-1.688-0.004-3.378-0.006-5.067-0.011c-1.478,9.469-3.246,25.871-4.124,44.526c-0.046,0.854-0.085,1.705-0.125,2.549
				L390.298,271.229z"/>
			<path fill="#28292C" d="M384.341,236.854c0.01-4.477-0.004-8.762-0.04-12.723c-0.68-0.001-1.358-0.002-2.039-0.005
				c-0.056,3.961-0.086,8.246-0.098,12.724c-0.034,15.809,0.232,29.272,0.641,34.362l0.742,0.001
				C383.977,266.125,384.307,252.664,384.341,236.854z"/>
			
				<rect x="376.6" y="271.048" transform="matrix(-1 -0.0021 0.0021 -1 766.9786 543.884)" fill="#28292C" width="14.353" height="0.979"/>
			
				<rect x="382.625" y="270.817" transform="matrix(-1 -0.0025 0.0025 -1 772.8981 543.2585)" fill="#28292C" width="8.317" height="0.672"/>
		</g>
	</g>
</g>
<g>
	<g>
		<polygon fill="#BE202E" points="362.539,394.499 348.955,394.499 346.54,314.857 364.955,314.857 		"/>
		<rect x="346.54" y="310.26" fill="#28292C" width="18.415" height="4.598"/>
		<polygon fill="#28292C" points="358.916,299.771 358.916,288.745 352.578,288.745 352.578,299.771 346.54,310.26 364.955,310.26 
					"/>
		<polygon fill="#E8435E" points="353.433,283.918 353.433,288.745 358.063,288.745 358.063,280.632 		"/>
		<polygon opacity="0.3" fill="#FFFFFF" enable-background="new    " points="353.433,283.918 356.955,285.643 358.063,280.632 		
			"/>
		<polygon fill="#181919" points="355.747,288.745 355.747,310.26 364.955,310.26 358.916,299.771 358.916,288.745 		"/>
		<polygon opacity="0.05" fill="#010101" enable-background="new    " points="355.747,394.499 362.539,394.499 364.955,314.857 
			355.747,314.857 		"/>
	</g>
	<g>
		<polygon fill="#28292C" points="364.954,275.242 346.541,275.242 348.654,245.614 362.841,245.614 		"/>
		<polygon fill="#181919" points="355.747,275.242 364.954,275.242 362.841,245.614 355.747,245.614 		"/>
	</g>
</g>
<g>
	<g>
		<path fill="#28292C" d="M793.674,202.207c0,0,60.654-1.631,65.434-0.942c4.777,0.687,8.219,1.687,16.676,10.677
			c8.459,8.993,15.388,14.873,15.388,14.873s2.869,2.966-1.265,3.406c-3.239,0.346-6.267-0.596-7.065-1.926
			c-0.801-1.333-9.896-13.857-11.592-15.402c-1.697-1.543-6.13-7.641-11.851-8.801c-5.713-1.162-64.334,5.251-64.334,5.251
			L793.674,202.207z"/>
		<path fill="#28292C" d="M794.115,201.753c0,0,60.654-1.632,65.436-0.945c4.776,0.69,8.219,1.693,16.674,10.683
			c8.457,8.989,15.387,14.868,15.387,14.868s2.867,2.969-1.262,3.408c-3.242,0.35-6.271-0.595-7.067-1.927
			c-0.799-1.332-9.896-13.857-11.592-15.4c-1.696-1.548-6.131-7.642-11.847-8.802c-5.717-1.161-64.339,5.253-64.339,5.253
			L794.115,201.753z"/>
	</g>
	<g>
		<path fill="#28292C" d="M899.07,200.929c0,0-60.677-0.16-65.438,0.641c-4.761,0.806-8.179,1.889-16.412,11.082
			c-8.238,9.194-15.021,15.241-15.021,15.241s-2.797,3.035,1.347,3.375c3.246,0.267,6.254-0.748,7.018-2.101
			c0.766-1.351,9.557-14.089,11.213-15.675c1.658-1.585,5.944-7.789,11.631-9.086c5.688-1.298,64.446,3.691,64.446,3.691
			L899.07,200.929z"/>
		<path fill="#28292C" d="M898.616,200.487c0,0-60.677-0.161-65.436,0.642c-4.764,0.804-8.178,1.891-16.414,11.083
			c-8.238,9.192-15.021,15.238-15.021,15.238s-2.796,3.034,1.347,3.374c3.246,0.27,6.252-0.746,7.018-2.096
			c0.769-1.353,9.558-14.093,11.213-15.678c1.66-1.587,5.945-7.787,11.633-9.086c5.685-1.301,64.443,3.69,64.443,3.69
			L898.616,200.487z"/>
	</g>
	<path fill="#28292C" d="M899.264,200.74c0,0-13.963-1.918-25.506-1.108c-8.516,0.598-10.492,1.619-14.122,3.227
		c-2.868,1.272-6.958,4.109-10.229,4.747c-1.227,0.237-2.08,0.324-2.694,0.35c-0.614-0.009-1.466-0.079-2.695-0.285
		c-3.286-0.556-7.445-3.296-10.344-4.497c-3.668-1.519-5.669-2.493-14.195-2.883c-11.562-0.533-25.473,1.725-25.473,1.725
		c-0.742,0.157-0.497,1.72-0.497,1.72s0.081,3.539,0.091,4.435c0.011,0.894,1.121,1.366,3.806,3.31
		c2.627,1.904,2.805,10.138,6.3,15.612c3.494,5.474,11.5,7.834,17.908,7.759c6.408-0.08,12.117-2.531,14.83-6.365
		c2.341-3.311,5.172-10.318,6.411-12.229c0.881-1.357,2.649-1.979,3.938-1.997c1.291-0.015,3.073,0.568,3.984,1.901
		c1.285,1.878,4.285,8.817,6.707,12.067c2.803,3.77,8.568,6.082,14.979,6.006c6.408-0.078,14.354-2.631,17.717-8.191
		c3.359-5.554,3.336-13.792,5.922-15.76c2.633-2.007,3.733-2.506,3.723-3.398c-0.01-0.896-0.017-4.436-0.017-4.436
		S900.012,200.881,899.264,200.74z M831.757,229.583c-5.005,4.176-15.929,3.114-21.007,0.778c-5.998-2.76-7.809-10.642-8.842-15.918
		c-1.029-5.282,1.137-9.121,5.392-10.204c4.607-1.175,11.02-1.104,11.02-1.104c2.758,0.043,5.891,0.151,10.526,1.364
		c9.264,2.418,9.57,8.531,9.598,10.84C838.471,217.651,837.294,224.971,831.757,229.583z M891.663,213.353
		c-0.904,5.305-2.522,13.225-8.45,16.127c-5.021,2.461-15.917,3.787-21.021-0.266c-5.646-4.479-7.002-11.768-7.029-14.079
		c-0.028-2.309,0.132-8.427,9.332-11.07c4.604-1.322,7.732-1.512,10.49-1.616c0,0,6.407-0.227,11.041,0.834
		C890.307,204.267,892.568,208.051,891.663,213.353z"/>
	<path opacity="0.3" fill="#E6E8EB" enable-background="new    " d="M831.568,229.213c-5.006,4.178-15.933,3.112-21.01,0.778
		c-5.998-2.763-7.808-10.641-8.84-15.919c-1.031-5.28,1.136-9.12,5.391-10.204c4.607-1.173,11.021-1.103,11.021-1.103
		c2.759,0.041,5.89,0.153,10.525,1.366c9.262,2.417,9.571,8.528,9.6,10.837C838.281,217.282,837.104,224.6,831.568,229.213z"/>
	<path opacity="0.3" fill="#E6E8EB" enable-background="new    " d="M891.475,212.983c-0.906,5.304-2.527,13.224-8.453,16.128
		c-5.021,2.459-15.916,3.783-21.023-0.269c-5.645-4.476-7-11.764-7.027-14.076c-0.028-2.311,0.132-8.428,9.334-11.071
		c4.604-1.323,7.732-1.511,10.49-1.617c0,0,6.406-0.227,11.041,0.834C890.118,203.895,892.377,207.681,891.475,212.983z"/>
</g>
<g>
	<path opacity="0.3" fill="#333333" enable-background="new    " d="M733.188,402.714l-1.492-1.016l0,0l-2.851-2.032L659,352.001
		v0.002c0-0.095,0-0.165-1-0.217v-0.002l-8.423-3.765l-5.028-2.24l3.995,4.211l6.785,7.01h0.131c0.069,0,0.54-0.425,0.54-0.367
		v0.003l69.766,47.665l2.879,2.032l0,0l1.44,1.016c0.739,0.507,1.597,0.5,1.944-0.012l1.88-2.781
		C734.26,404.044,733.93,403.219,733.188,402.714z M657.686,353.546l-0.002,0.002c0,0,0,0-0.001,0l0.004-0.005L657.686,353.546z
		 M656.632,355.093C656.632,355.093,656.631,355.093,656.632,355.093l0.003-0.005l-0.001,0.003L656.632,355.093z"/>
	<g>
		
			<linearGradient id="SVGID_1_" gradientUnits="userSpaceOnUse" x1="3373.6663" y1="754.9473" x2="3381.7903" y2="754.9473" gradientTransform="matrix(0.3887 -0.5707 -0.8265 -0.563 41.8312 2755.124)">
			<stop  offset="0" style="stop-color:#F7AAAA"/>
			<stop  offset="0.3314" style="stop-color:#F4A8AA"/>
			<stop  offset="0.5157" style="stop-color:#ECA1AA"/>
			<stop  offset="0.6633" style="stop-color:#DF98AA"/>
			<stop  offset="0.7915" style="stop-color:#CF8AAA"/>
			<stop  offset="0.8086" style="stop-color:#CC88AA"/>
		</linearGradient>
		<path fill="url(#SVGID_1_)" d="M733.936,401.169c0.741,0.505,1.06,1.33,0.71,1.842l-1.894,2.781
			c-0.35,0.512-1.231,0.517-1.975,0.012l-3.133-2.133c-0.741-0.506-1.06-1.33-0.711-1.842l1.894-2.781
			c0.35-0.512,1.233-0.518,1.976-0.012L733.936,401.169z"/>
		<g>
			<polygon fill="#F4CEA4" points="649.715,347.602 657.382,353.543 658.434,351.998 650.095,347.042 			"/>
			<polygon fill="#F2DCC7" points="649.328,348.169 656.099,354.902 657.382,353.543 649.715,347.602 			"/>
			<polygon fill="#E8BB8E" points="658.434,351.998 659.056,350.239 650.48,346.477 650.095,347.042 			"/>
			
				<linearGradient id="SVGID_2_" gradientUnits="userSpaceOnUse" x1="3376.2444" y1="855.5527" x2="3379.2083" y2="855.5527" gradientTransform="matrix(0.3887 -0.5707 -0.8265 -0.563 41.8312 2755.124)">
				<stop  offset="0" style="stop-color:#3D3D3C"/>
				<stop  offset="0.0498" style="stop-color:#444342"/>
				<stop  offset="0.1279" style="stop-color:#575553"/>
				<stop  offset="0.2244" style="stop-color:#7A7876"/>
				<stop  offset="0.3346" style="stop-color:#B5B4B4"/>
				<stop  offset="0.3578" style="stop-color:#C7C6C6"/>
				<stop  offset="0.4331" style="stop-color:#9A9898"/>
				<stop  offset="0.5946" style="stop-color:#565655"/>
				<stop  offset="1" style="stop-color:#3D3D3C"/>
			</linearGradient>
			<polygon fill="url(#SVGID_2_)" points="645.373,344.234 649.328,348.169 649.715,347.602 650.095,347.042 650.48,346.477 			"/>
		</g>
		
			<linearGradient id="SVGID_3_" gradientUnits="userSpaceOnUse" x1="3373.6672" y1="756.6621" x2="3381.7893" y2="756.6621" gradientTransform="matrix(0.3887 -0.5707 -0.8265 -0.563 41.8312 2755.124)">
			<stop  offset="0" style="stop-color:#717070"/>
			<stop  offset="0.1816" style="stop-color:#FFFFFF"/>
			<stop  offset="0.2491" style="stop-color:#FDFDFD"/>
			<stop  offset="0.2734" style="stop-color:#F6F6F6"/>
			<stop  offset="0.2907" style="stop-color:#EBEBEB"/>
			<stop  offset="0.3047" style="stop-color:#DADADA"/>
			<stop  offset="0.3167" style="stop-color:#C4C4C4"/>
			<stop  offset="0.3272" style="stop-color:#A9A9A9"/>
			<stop  offset="0.3366" style="stop-color:#8A8A8A"/>
			<stop  offset="0.3373" style="stop-color:#878787"/>
			<stop  offset="0.4307" style="stop-color:#818180"/>
			<stop  offset="0.5829" style="stop-color:#71706F"/>
			<stop  offset="0.7735" style="stop-color:#575655"/>
			<stop  offset="0.9532" style="stop-color:#3D3D3C"/>
		</linearGradient>
		<polygon fill="url(#SVGID_3_)" points="732.443,400.153 729.286,404.788 726.303,402.756 729.46,398.121 		"/>
		<path fill="#8CD4E2" d="M657.379,353.548c-0.615-0.42-1.352-0.415-1.641,0.011c-0.291,0.426-0.024,1.11,0.591,1.529l-0.001,0.003
			l69.975,47.665l1.053-1.545l-69.975-47.665L657.379,353.548z"/>
		<path fill="#3AC0C4" d="M658.432,352.003c-0.615-0.42-1.353-0.416-1.643,0.011c-0.289,0.424-0.023,1.109,0.593,1.529l-0.001,0.003
			l69.975,47.665l1.053-1.545l-69.976-47.665L658.432,352.003z"/>
		<path fill="#00A99D" d="M659.484,350.458c-0.616-0.42-1.352-0.415-1.641,0.01c-0.29,0.425-0.025,1.111,0.59,1.53l-0.001,0.003
			l69.976,47.665l1.053-1.545l-69.976-47.665L659.484,350.458z"/>
	</g>
</g>
</svg>
